<?xml version="1.0" encoding="utf-8"?>
<!-- Generator: Adobe Illustrator 16.0.0, SVG Export Plug-In . SVG Version: 6.00 Build 0)  -->
<!DOCTYPE svg PUBLIC "-//W3C//DTD SVG 1.1//EN" "http://www.w3.org/Graphics/SVG/1.1/DTD/svg11.dtd">
<svg version="1.1" id="Layer_1" xmlns="http://www.w3.org/2000/svg" xmlns:xlink="http://www.w3.org/1999/xlink" x="0px" y="0px"
	 width="480px" height="480px" viewBox="0 0 480 480" enable-background="new 0 0 480 480" xml:space="preserve">
<rect x="38.198" y="35.143" fill="#8C8C8C" width="77.84" height="77.84"/>
<rect x="147.001" y="35.144" fill="#8C8C8C" width="77.841" height="77.841"/>
<rect x="38.198" y="145.989" fill="#8C8C8C" width="77.84" height="77.839"/>
<rect x="147.001" y="145.99" fill="#8C8C8C" width="77.841" height="77.84"/>
<rect x="256.157" y="35.478" fill="#8C8C8C" width="77.84" height="77.84"/>
<rect x="364.96" y="35.479" fill="#8C8C8C" stroke="#8C8C8C" stroke-miterlimit="10" width="77.842" height="77.841"/>
<rect x="256.157" y="146.324" fill="#8C8C8C" width="77.84" height="77.839"/>
<rect x="364.96" y="146.325" fill="#8C8C8C" width="77.842" height="77.84"/>
<rect x="38.198" y="257.17" fill="#8C8C8C" width="77.84" height="77.842"/>
<rect x="147.001" y="257.17" fill="#8C8C8C" width="77.841" height="77.842"/>
<rect x="38.198" y="368.016" fill="#8C8C8C" width="77.84" height="77.84"/>
<rect x="147.001" y="368.018" fill="#8C8C8C" width="77.841" height="77.84"/>
<rect x="256.157" y="257.17" fill="#8C8C8C" width="77.84" height="77.84"/>
<rect x="364.96" y="257.17" fill="#8C8C8C" width="77.842" height="77.842"/>
<rect x="256.157" y="368.016" fill="#8C8C8C" width="77.84" height="77.84"/>
<rect x="364.96" y="368.018" fill="#8C8C8C" width="77.842" height="77.84"/>
</svg>
