<?xml version="1.0" encoding="utf-8"?>
<!-- Generator: Adobe Illustrator 16.0.0, SVG Export Plug-In . SVG Version: 6.00 Build 0)  -->
<!DOCTYPE svg PUBLIC "-//W3C//DTD SVG 1.1//EN" "http://www.w3.org/Graphics/SVG/1.1/DTD/svg11.dtd">
<svg version="1.1" id="Layer_1" xmlns="http://www.w3.org/2000/svg" xmlns:xlink="http://www.w3.org/1999/xlink" x="0px" y="0px"
	 width="480px" height="480px" viewBox="0 0 480 480" enable-background="new 0 0 480 480" xml:space="preserve">
<rect x="50.326" y="47.333" fill="#8C8C8C" width="52.542" height="52.542"/>
<rect x="131.928" y="47.334" fill="#8C8C8C" width="52.542" height="52.543"/>
<rect x="50.326" y="130.468" fill="#8C8C8C" width="52.542" height="52.541"/>
<rect x="131.928" y="130.469" fill="#8C8C8C" width="52.542" height="52.542"/>
<rect x="213.795" y="47.584" fill="#8C8C8C" width="52.541" height="52.542"/>
<rect x="295.396" y="47.585" fill="#8C8C8C" width="52.543" height="52.542"/>
<rect x="213.795" y="130.719" fill="#8C8C8C" width="52.541" height="52.541"/>
<rect x="295.396" y="130.72" fill="#8C8C8C" width="52.543" height="52.542"/>
<rect x="50.326" y="213.853" fill="#8C8C8C" width="52.542" height="52.544"/>
<rect x="131.928" y="213.853" fill="#8C8C8C" width="52.542" height="52.544"/>
<rect x="50.326" y="296.987" fill="#8C8C8C" width="52.542" height="52.543"/>
<rect x="131.928" y="296.989" fill="#8C8C8C" width="52.542" height="52.541"/>
<rect x="213.795" y="213.853" fill="#8C8C8C" width="52.541" height="52.542"/>
<rect x="295.396" y="213.853" fill="#8C8C8C" width="52.543" height="52.544"/>
<rect x="213.795" y="296.987" fill="#8C8C8C" width="52.541" height="52.543"/>
<rect x="295.396" y="296.989" fill="#8C8C8C" width="52.543" height="52.541"/>
<rect x="376.998" y="47.585" fill="#8C8C8C" width="52.543" height="52.542"/>
<rect x="376.998" y="130.72" fill="#8C8C8C" width="52.543" height="52.542"/>
<rect x="376.998" y="213.853" fill="#8C8C8C" width="52.543" height="52.544"/>
<rect x="376.998" y="296.989" fill="#8C8C8C" width="52.543" height="52.541"/>
<rect x="50.458" y="380.124" fill="#8C8C8C" width="52.542" height="52.543"/>
<rect x="132.06" y="380.126" fill="#8C8C8C" width="52.542" height="52.541"/>
<rect x="213.927" y="380.124" fill="#8C8C8C" width="52.542" height="52.543"/>
<rect x="295.527" y="380.126" fill="#8C8C8C" width="52.545" height="52.541"/>
<rect x="377.129" y="380.126" fill="#8C8C8C" width="52.545" height="52.541"/>
</svg>
