<?xml version="1.0" encoding="utf-8"?>
<!-- Generator: Adobe Illustrator 16.0.0, SVG Export Plug-In . SVG Version: 6.00 Build 0)  -->
<!DOCTYPE svg PUBLIC "-//W3C//DTD SVG 1.1//EN" "http://www.w3.org/Graphics/SVG/1.1/DTD/svg11.dtd">
<svg version="1.1" id="Layer_1" xmlns="http://www.w3.org/2000/svg" xmlns:xlink="http://www.w3.org/1999/xlink" x="0px" y="0px"
	 width="480px" height="480px" viewBox="0 0 480 480" enable-background="new 0 0 480 480" xml:space="preserve">
<rect x="44.128" y="41.278" fill="#8C8C8C" width="48.064" height="48.063"/>
<rect x="112.676" y="41.278" fill="#8C8C8C" width="48.063" height="48.064"/>
<rect x="44.128" y="111.112" fill="#8C8C8C" width="48.064" height="48.062"/>
<rect x="112.676" y="111.111" fill="#8C8C8C" width="48.063" height="48.063"/>
<rect x="182.005" y="41.488" fill="#8C8C8C" width="48.062" height="48.064"/>
<rect x="250.548" y="41.488" fill="#8C8C8C" width="48.066" height="48.064"/>
<rect x="182.005" y="111.322" fill="#8C8C8C" width="48.062" height="48.062"/>
<rect x="250.548" y="111.322" fill="#8C8C8C" width="48.066" height="48.063"/>
<rect x="44.128" y="181.154" fill="#8C8C8C" width="48.064" height="48.065"/>
<rect x="112.676" y="181.154" fill="#8C8C8C" width="48.063" height="48.065"/>
<rect x="44.128" y="250.988" fill="#8C8C8C" width="48.064" height="48.063"/>
<rect x="112.676" y="250.99" fill="#8C8C8C" width="48.063" height="48.062"/>
<rect x="182.005" y="181.154" fill="#8C8C8C" width="48.062" height="48.064"/>
<rect x="250.548" y="181.153" fill="#8C8C8C" width="48.066" height="48.066"/>
<rect x="182.005" y="250.987" fill="#8C8C8C" width="48.062" height="48.064"/>
<rect x="250.548" y="250.989" fill="#8C8C8C" width="48.066" height="48.062"/>
<rect x="318.533" y="41.489" fill="#8C8C8C" width="48.064" height="48.064"/>
<rect x="318.533" y="111.323" fill="#8C8C8C" width="48.064" height="48.063"/>
<rect x="318.533" y="181.154" fill="#8C8C8C" width="48.064" height="48.065"/>
<rect x="318.533" y="250.99" fill="#8C8C8C" width="48.064" height="48.062"/>
<rect x="44.24" y="320.823" fill="#8C8C8C" width="48.063" height="48.063"/>
<rect x="112.786" y="320.823" fill="#8C8C8C" width="48.063" height="48.063"/>
<rect x="182.116" y="320.823" fill="#8C8C8C" width="48.063" height="48.063"/>
<rect x="250.659" y="320.822" fill="#8C8C8C" width="48.066" height="48.063"/>
<rect x="318.643" y="320.823" fill="#8C8C8C" width="48.066" height="48.063"/>
<rect x="387.188" y="41.488" fill="#8C8C8C" width="48.066" height="48.063"/>
<rect x="387.805" y="111.321" fill="#8C8C8C" width="48.066" height="48.063"/>
<rect x="387.805" y="181.154" fill="#8C8C8C" width="48.066" height="48.065"/>
<rect x="387.805" y="250.988" fill="#8C8C8C" width="48.066" height="48.062"/>
<rect x="387.299" y="320.821" fill="#8C8C8C" width="48.066" height="48.063"/>
<rect x="44.746" y="390.659" fill="#8C8C8C" width="48.063" height="48.063"/>
<rect x="113.292" y="390.661" fill="#8C8C8C" width="48.064" height="48.061"/>
<rect x="182.06" y="390.659" fill="#8C8C8C" width="48.063" height="48.063"/>
<rect x="250.604" y="390.661" fill="#8C8C8C" width="48.066" height="48.061"/>
<rect x="319.15" y="390.661" fill="#8C8C8C" width="48.064" height="48.061"/>
<rect x="387.805" y="390.659" fill="#8C8C8C" width="48.066" height="48.063"/>
</svg>
