<?xml version="1.0" encoding="utf-8"?>
<!-- Generator: Adobe Illustrator 16.0.0, SVG Export Plug-In . SVG Version: 6.00 Build 0)  -->
<!DOCTYPE svg PUBLIC "-//W3C//DTD SVG 1.1//EN" "http://www.w3.org/Graphics/SVG/1.1/DTD/svg11.dtd">
<svg version="1.1" id="Layer_1" xmlns="http://www.w3.org/2000/svg" xmlns:xlink="http://www.w3.org/1999/xlink" x="0px" y="0px"
	 width="480px" height="480px" viewBox="0 0 480 480" enable-background="new 0 0 480 480" xml:space="preserve">
<rect x="29.216" y="25.832" fill="#8C8C8C" width="44.059" height="44.059"/>
<rect x="92.05" y="25.831" fill="#8C8C8C" width="44.059" height="44.061"/>
<rect x="29.216" y="89.845" fill="#8C8C8C" width="44.059" height="44.06"/>
<rect x="92.05" y="89.845" fill="#8C8C8C" width="44.059" height="44.061"/>
<rect x="155.088" y="26.024" fill="#8C8C8C" width="44.056" height="44.06"/>
<rect x="217.919" y="26.025" fill="#8C8C8C" width="44.06" height="44.06"/>
<rect x="155.088" y="90.039" fill="#8C8C8C" width="44.056" height="44.058"/>
<rect x="217.919" y="90.039" fill="#8C8C8C" width="44.06" height="44.06"/>
<rect x="29.216" y="154.051" fill="#8C8C8C" width="44.059" height="44.062"/>
<rect x="92.05" y="154.051" fill="#8C8C8C" width="44.059" height="44.062"/>
<rect x="29.216" y="218.063" fill="#8C8C8C" width="44.059" height="44.061"/>
<rect x="92.05" y="218.067" fill="#8C8C8C" width="44.059" height="44.057"/>
<rect x="155.088" y="154.051" fill="#8C8C8C" width="44.056" height="44.06"/>
<rect x="217.919" y="154.051" fill="#8C8C8C" width="44.06" height="44.062"/>
<rect x="155.088" y="218.063" fill="#8C8C8C" width="44.056" height="44.061"/>
<rect x="217.919" y="218.067" fill="#8C8C8C" width="44.06" height="44.057"/>
<rect x="280.755" y="26.025" fill="#8C8C8C" width="44.059" height="44.06"/>
<rect x="280.755" y="90.039" fill="#8C8C8C" width="44.059" height="44.06"/>
<rect x="280.755" y="154.051" fill="#8C8C8C" width="44.059" height="44.062"/>
<rect x="280.755" y="218.067" fill="#8C8C8C" width="44.059" height="44.057"/>
<rect x="29.317" y="282.081" fill="#8C8C8C" width="44.059" height="44.057"/>
<rect x="92.151" y="282.081" fill="#8C8C8C" width="44.059" height="44.057"/>
<rect x="155.19" y="282.081" fill="#8C8C8C" width="44.057" height="44.057"/>
<rect x="218.02" y="282.081" fill="#8C8C8C" width="44.063" height="44.057"/>
<rect x="280.856" y="282.081" fill="#8C8C8C" width="44.061" height="44.057"/>
<rect x="343.688" y="26.023" fill="#8C8C8C" width="44.059" height="44.06"/>
<rect x="343.688" y="90.037" fill="#8C8C8C" width="44.059" height="44.06"/>
<rect x="343.688" y="154.05" fill="#8C8C8C" width="44.059" height="44.061"/>
<rect x="343.688" y="218.064" fill="#8C8C8C" width="44.059" height="44.058"/>
<rect x="406.522" y="26.023" fill="#8C8C8C" width="44.059" height="44.06"/>
<rect x="406.522" y="90.037" fill="#8C8C8C" width="44.059" height="44.06"/>
<rect x="406.522" y="154.05" fill="#8C8C8C" width="44.059" height="44.061"/>
<rect x="406.522" y="218.064" fill="#8C8C8C" width="44.059" height="44.058"/>
<rect x="343.79" y="282.079" fill="#8C8C8C" width="44.061" height="44.057"/>
<rect x="406.624" y="282.079" fill="#8C8C8C" width="44.059" height="44.057"/>
<rect x="29.317" y="346.093" fill="#8C8C8C" width="44.061" height="44.061"/>
<rect x="92.152" y="346.095" fill="#8C8C8C" width="44.059" height="44.059"/>
<rect x="155.19" y="346.093" fill="#8C8C8C" width="44.057" height="44.061"/>
<rect x="218.022" y="346.095" fill="#8C8C8C" width="44.059" height="44.059"/>
<rect x="280.856" y="346.095" fill="#8C8C8C" width="44.057" height="44.059"/>
<rect x="29.418" y="410.11" fill="#8C8C8C" width="44.061" height="44.059"/>
<rect x="92.254" y="410.11" fill="#8C8C8C" width="44.059" height="44.059"/>
<rect x="155.292" y="410.11" fill="#8C8C8C" width="44.057" height="44.059"/>
<rect x="218.123" y="410.11" fill="#8C8C8C" width="44.062" height="44.059"/>
<rect x="280.956" y="410.11" fill="#8C8C8C" width="44.061" height="44.059"/>
<rect x="343.79" y="346.093" fill="#8C8C8C" width="44.059" height="44.059"/>
<rect x="406.624" y="346.093" fill="#8C8C8C" width="44.057" height="44.059"/>
<rect x="343.892" y="410.108" fill="#8C8C8C" width="44.061" height="44.059"/>
<rect x="406.724" y="410.108" fill="#8C8C8C" width="44.061" height="44.059"/>
</svg>
