<svg enable-background="new 0 0 500 500" height="500" viewBox="0 0 500 500" width="500" xmlns="http://www.w3.org/2000/svg"><path d="m15 123.7h104v104h-104z"/><path d="m15 272.3h104v104h-104z"/><path d="m142 113.1h71v71h-71z"/><path d="m142 214.5h71v71h-71z"/><path d="m142 315.9h71v71h-71z"/><path d="m241.5 105h54.9v54.9h-54.9z"/><path d="m241.5 183.4h54.9v54.9h-54.9z"/><path d="m241.5 261.8h54.9v54.9h-54.9z"/><path d="m241.5 340.2h54.9v54.9h-54.9z"/><path d="m320.5 93.2h46.7v46.7h-46.7z"/><path d="m320.5 159.9h46.7v46.7h-46.7z"/><path d="m320.5 226.6h46.7v46.7h-46.7z"/><path d="m320.5 293.3h46.7v46.7h-46.7z"/><path d="m320.5 360h46.7v46.7h-46.7z"/><path d="m386 83.8h40.8v40.8h-40.8z"/><path d="m386 142.1h40.8v40.8h-40.8z"/><path d="m386 200.4h40.8v40.8h-40.8z"/><path d="m386 258.7h40.8v40.8h-40.8z"/><path d="m386 317h40.8v40.8h-40.8z"/><path d="m386 375.3h40.8v40.8h-40.8z"/><path d="m450 62.8h39.1v39.1h-39.1z"/><path d="m450 118.7h39.1v39.1h-39.1z"/><path d="m450 174.6h39.1v39.1h-39.1z"/><path d="m450 230.5h39.1v39.1h-39.1z"/><path d="m450 286.4h39.1v39.1h-39.1z"/><path d="m450 342.3h39.1v39.1h-39.1z"/><path d="m450 398.2h39.1v39.1h-39.1z"/></svg>