<?xml version="1.0" encoding="utf-8"?>
<!DOCTYPE svg PUBLIC "-//W3C//DTD SVG 1.1//EN" "http://www.w3.org/Graphics/SVG/1.1/DTD/svg11.dtd">
<svg version="1.1" id="Layer_1" xmlns="http://www.w3.org/2000/svg" xmlns:xlink="http://www.w3.org/1999/xlink" x="0px" y="0px"
	 width="500px" height="500px" viewBox="0 0 500 500" enable-background="new 0 0 500 500" xml:space="preserve">
<rect x="10" y="70" fill="#000000" width="153" height="153"/>
<rect x="10" y="277" fill="#000000" width="153" height="153"/>
<rect x="195" y="52.2" fill="#000000" width="104.4" height="104.4"/>
<rect x="195" y="198" fill="#000000" width="104.4" height="104.4"/>
<rect x="195" y="343.8" fill="#000000" width="104.4" height="104.4"/>
<rect x="329" y="43.4" fill="#000000" width="78.3" height="78.3"/>
<rect x="329" y="155" fill="#000000" width="78.3" height="78.3"/>
<rect x="329" y="266.6" fill="#000000" width="78.3" height="78.3"/>
<rect x="329" y="378.2" fill="#000000" width="78.3" height="78.3"/>
<rect x="430" y="26" fill="#000000" width="64" height="64"/>
<rect x="430" y="122" fill="#000000" width="64" height="64"/>
<rect x="430" y="218" fill="#000000" width="64" height="64"/>
<rect x="430" y="314" fill="#000000" width="64" height="64"/>
<rect x="430" y="410" fill="#000000" width="64" height="64"/>
</svg>

