<?xml version="1.0" encoding="UTF-8" standalone="no"?>
<!-- Generator: Adobe Illustrator 16.0.0, SVG Export Plug-In . SVG Version: 6.00 Build 0)  -->

<svg
   version="1.1"
   id="Layer_1"
   x="0px"
   y="0px"
   width="500px"
   height="500px"
   viewBox="0 0 500 500"
   enable-background="new 0 0 500 500"
   xml:space="preserve"
   sodipodi:docname="333_speed_bld.svg"
   inkscape:version="1.3 (0e150ed6c4, 2023-07-21)"
   xmlns:inkscape="http://www.inkscape.org/namespaces/inkscape"
   xmlns:sodipodi="http://sodipodi.sourceforge.net/DTD/sodipodi-0.dtd"
   xmlns="http://www.w3.org/2000/svg"
   xmlns:svg="http://www.w3.org/2000/svg"><defs
   id="defs3"><inkscape:path-effect
     effect="powerclip"
     id="path-effect7"
     is_visible="true"
     lpeversion="1"
     inverse="true"
     flatten="false"
     hide_clip="false"
     message="Use fill-rule evenodd on &lt;b&gt;fill and stroke&lt;/b&gt; dialog if no flatten result after convert clip to paths." /><clipPath
     clipPathUnits="userSpaceOnUse"
     id="clipPath7"><path
       fill="#000000"
       d="m 459.05298,254.89797 c 6.23877,-91.84036 93.58151,-227.825391 -74.33993,-227.825391 -140.67033,0 -150.11013,115.243121 -150.11013,227.825391 0,101.79738 5.11861,223.53995 134.83282,227.82539 180.83691,5.97469 96.55089,-125.76443 89.61724,-227.82539 z"
       id="path7"
       style="display:none;stroke:#ffffff;stroke-width:0;stroke-dasharray:none;stroke-opacity:1;paint-order:stroke fill markers" /><path
       id="lpe_path-effect7"
       style="display:inline;stroke:#ffffff;stroke-width:0;stroke-dasharray:none;stroke-opacity:1;paint-order:stroke fill markers"
       class="powerclip"
       d="M 27.985016,116.74666 H 364.93304 V 453.69469 H 27.985016 Z M 459.05298,254.89797 c 6.23877,-91.84036 93.58151,-227.825391 -74.33993,-227.825391 -140.67033,0 -150.11013,115.243121 -150.11013,227.825391 0,101.79738 5.11861,223.53995 134.83282,227.82539 180.83691,5.97469 96.55089,-125.76443 89.61724,-227.82539 z" /></clipPath></defs><sodipodi:namedview
   id="namedview3"
   pagecolor="#ffffff"
   bordercolor="#000000"
   borderopacity="0.25"
   inkscape:showpageshadow="2"
   inkscape:pageopacity="0.0"
   inkscape:pagecheckerboard="0"
   inkscape:deskcolor="#d1d1d1"
   inkscape:zoom="0.96433296"
   inkscape:cx="66.367119"
   inkscape:cy="295.54108"
   inkscape:window-width="2558"
   inkscape:window-height="1559"
   inkscape:window-x="0"
   inkscape:window-y="39"
   inkscape:window-maximized="1"
   inkscape:current-layer="Layer_1" />&#10;&#10;&#10;&#10;&#10;<rect
   style="fill:#000000;stroke:#ffffff;stroke-width:0;stroke-dasharray:none;stroke-opacity:1;paint-order:stroke fill markers"
   id="rect7"
   width="100"
   height="50"
   x="146.45903"
   y="52.70153"
   ry="14.13716" /><rect
   style="fill:#000000;stroke:#ffffff;stroke-width:0;stroke-dasharray:none;stroke-opacity:1;paint-order:stroke fill markers"
   id="rect8"
   width="50"
   height="52.096478"
   x="171.45903"
   y="87.380508"
   ry="0" /><rect
   style="fill:#000000;stroke:#ffffff;stroke-width:0;stroke-dasharray:none;stroke-opacity:1;paint-order:stroke fill markers"
   id="rect8-3"
   width="50"
   height="52.096478"
   x="-78.85408"
   y="143.86423"
   ry="15.133824"
   transform="rotate(-44.663342)" /><path
   style="fill:none;stroke:#000000;stroke-width:45;stroke-linejoin:round;stroke-dasharray:none;stroke-opacity:1;paint-order:stroke fill markers"
   id="path8"
   clip-path="url(#clipPath7)"
   inkscape:path-effect="#path-effect7"
   sodipodi:type="arc"
   sodipodi:cx="196.45903"
   sodipodi:cy="285.22067"
   sodipodi:rx="140.97401"
   sodipodi:ry="140.97401"
   d="M 337.43304,285.22067 A 140.97401,140.97401 0 0 1 196.45903,426.19469 140.97401,140.97401 0 0 1 55.485016,285.22067 140.97401,140.97401 0 0 1 196.45903,144.24666 140.97401,140.97401 0 0 1 337.43304,285.22067 Z" /><path
   fill="#000000"
   d="m 444.45566,260.03964 c 4.929,-76.658 73.935,-190.162998 -58.733,-190.162998 -111.138,0 -118.596,96.191998 -118.596,190.162998 0,84.969 4.044,186.586 106.526,190.163 142.872,4.987 76.281,-104.974 70.803,-190.163 z"
   id="path3"
   style="display:inline;stroke:#ffffff;stroke-width:0;stroke-dasharray:none;stroke-opacity:1;paint-order:stroke fill markers" /><rect
   style="fill:#000000;stroke:#000000;stroke-width:0;stroke-linejoin:round;stroke-dasharray:none;stroke-opacity:1;paint-order:stroke fill markers"
   id="rect9"
   width="50"
   height="108.49739"
   x="-82.082863"
   y="249.45572"
   ry="13.761313"
   inkscape:transform-center-y="-22.071257"
   transform="rotate(-45)"
   inkscape:transform-center-x="22.071259" /></svg>
