<?xml version="1.0" encoding="UTF-8"?>
<!DOCTYPE svg PUBLIC "-//W3C//DTD SVG 1.1//EN" "http://www.w3.org/Graphics/SVG/1.1/DTD/svg11.dtd">
<svg xmlns="http://www.w3.org/2000/svg" version="1.1" width="500px" height="500px" style="shape-rendering:geometricPrecision; text-rendering:geometricPrecision; image-rendering:optimizeQuality; fill-rule:evenodd; clip-rule:evenodd" xmlns:xlink="http://www.w3.org/1999/xlink">
<g><path style="opacity:0.993" fill="#000000" d="M 29.5,28.5 C 81.1667,28.5 132.833,28.5 184.5,28.5C 184.5,86.8333 184.5,145.167 184.5,203.5C 132.833,203.5 81.1667,203.5 29.5,203.5C 29.5,145.167 29.5,86.8333 29.5,28.5 Z"/></g>
<g><path style="opacity:0.987" fill="#000000" d="M 229.5,28.5 C 268.5,28.5 307.5,28.5 346.5,28.5C 346.5,86.8333 346.5,145.167 346.5,203.5C 307.5,203.5 268.5,203.5 229.5,203.5C 229.5,145.167 229.5,86.8333 229.5,28.5 Z"/></g>
<g><path style="opacity:0.974" fill="#000000" d="M 391.5,28.5 C 417.833,28.5 444.167,28.5 470.5,28.5C 470.5,86.8333 470.5,145.167 470.5,203.5C 444.167,203.5 417.833,203.5 391.5,203.5C 391.5,145.167 391.5,86.8333 391.5,28.5 Z"/></g>
<g><path style="opacity:0.99" fill="#000000" d="M 29.5,248.5 C 81.1667,248.5 132.833,248.5 184.5,248.5C 184.5,287.5 184.5,326.5 184.5,365.5C 132.833,365.5 81.1667,365.5 29.5,365.5C 29.5,326.5 29.5,287.5 29.5,248.5 Z"/></g>
<g><path style="opacity:0.984" fill="#000000" d="M 229.5,248.5 C 268.5,248.5 307.5,248.5 346.5,248.5C 346.5,287.5 346.5,326.5 346.5,365.5C 307.5,365.5 268.5,365.5 229.5,365.5C 229.5,326.5 229.5,287.5 229.5,248.5 Z"/></g>
<g><path style="opacity:0.972" fill="#000000" d="M 391.5,248.5 C 417.833,248.5 444.167,248.5 470.5,248.5C 470.5,287.5 470.5,326.5 470.5,365.5C 444.167,365.5 417.833,365.5 391.5,365.5C 391.5,326.5 391.5,287.5 391.5,248.5 Z"/></g>
<g><path style="opacity:0.982" fill="#000000" d="M 29.5,410.5 C 81.1667,410.5 132.833,410.5 184.5,410.5C 184.5,430.167 184.5,449.833 184.5,469.5C 132.833,469.5 81.1667,469.5 29.5,469.5C 29.5,449.833 29.5,430.167 29.5,410.5 Z"/></g>
<g><path style="opacity:0.976" fill="#000000" d="M 229.5,410.5 C 268.5,410.5 307.5,410.5 346.5,410.5C 346.5,430.167 346.5,449.833 346.5,469.5C 307.5,469.5 268.5,469.5 229.5,469.5C 229.5,449.833 229.5,430.167 229.5,410.5 Z"/></g>
<g><path style="opacity:0.963" fill="#000000" d="M 391.5,410.5 C 417.833,410.5 444.167,410.5 470.5,410.5C 470.5,430.167 470.5,449.833 470.5,469.5C 444.167,469.5 417.833,469.5 391.5,469.5C 391.5,449.833 391.5,430.167 391.5,410.5 Z"/></g>
</svg>
