<svg enable-background="new 0 0 500 500" height="500" viewBox="0 0 500 500" width="500" xmlns="http://www.w3.org/2000/svg"><path clip-rule="evenodd" d="m153.52831 415.13112c0-1.11869 0-2.09286 0-3.27864-5.87778 0-11.64776.006-17.41773-.00087-7.64846-.01-15.2977.0288-22.94575-.0663-4.11309-.0516-7.3031-2.881-8.11597-6.90145-.73981-3.65833 1.21132-7.61731 4.7958-9.17718 1.34985-.58771 2.95525-.81328 4.44565-.81887 16.29463-.0555 32.59045.004 48.88549-.0643 3.64237-.0151 6.13848 1.68604 8.6354 4.14941 10.08508 9.94894 20.34384 19.72181 30.53791 29.56095 1.43572 1.38578 2.75644 2.91972 4.32709 4.13024 2.48134 1.91122 3.29701 4.22409 3.21117 7.36578-.22078 8.04213-.0742 16.09462-.0734 24.14271v3.38605c-3.80206-3.65754-7.06194-7.06195-10.60569-10.14018-5.46256-4.7451-11.09719-9.29335-16.70306-13.87156-3.40283-2.77959-7.49994-3.75177-11.74678-3.71703-9.23586.0766-18.46974.49388-27.70562.57252-11.30719.0966-22.61836-.14612-33.92356.0315-5.04333.0794-9.183172-1.79744-12.568822-5.09484-11.91165-11.60143-23.63845-23.39211-35.43871-35.10735-2.63665-2.61789-3.28505-5.77396-2.08409-9.1616 1.16262-3.28026 3.70026-5.14435 7.18771-5.48971 2.74645-.27228 5.02897.79851 7.02842 2.67259 7.86046 7.36859 15.75444 14.70242 23.63644 22.04824 1.50798 1.40576 2.98161 2.85224 4.549882 4.18655.50625.43118 1.26403.8005 1.90762.8021 16.49625.0338 32.99251.0159 49.48836.0008.18845 0 .37609-.0839.6923-.1593z" fill-rule="evenodd" stroke-width=".399251"/><path d="m86.767944 299.47809h85.185295v85.185295h-85.185295z" stroke-width="1.52332"/><path d="m287.40018 302.00003h43.425129v43.425129h-43.425129z" stroke-width=".434251"/><path d="m287.61731 362.7952h43.425129v43.425129h-43.425129z" stroke-width=".434251"/><path d="m287.72586 423.59039h43.425129v43.425129h-43.425129z" stroke-width=".434251"/><path d="m435.64748 384.57851c2.14043-33.28883 32.10638-82.57851-25.50487-82.57851-48.26182 0-51.50046 41.77149-51.50046 82.57851 0 36.8979 1.75611 81.02521 46.25904 82.57854 62.04235 2.1656 33.12513-45.5851 30.74629-82.57854z" stroke-width=".434251"/><g stroke-width=".504819"><path d="m138.46339 33.595341h58.587841v58.587841h-58.587841z"/><path d="m220.48636 33.595341h58.587841v58.587841h-58.587841z"/><path d="m302.50934 33.595341h58.587841v58.587841h-58.587841z"/><path d="m138.75633 115.61831h58.587841v58.587841h-58.587841z"/><path d="m220.77931 115.61831h58.587841v58.587841h-58.587841z"/><path d="m302.80231 115.61831h58.587841v58.587841h-58.587841z"/><path d="m138.9028 197.6413h58.587841v58.587841h-58.587841z"/><path d="m220.92578 197.6413h58.587841v58.587841h-58.587841z"/><path d="m302.94876 197.6413h58.587841v58.587841h-58.587841z"/></g></svg>