<svg enable-background="new 0 0 500 500" height="500" viewBox="0 0 500 500" width="500" xmlns="http://www.w3.org/2000/svg" xmlns:xlink="http://www.w3.org/1999/xlink"><clipPath id="a"><path d="m26.919922 115.99805h338.552738v338.55273h-338.552738zm413.920848 140.82866c5.72791-86.34221 85.91865-214.18628-68.25266-214.18628-129.15165 0-137.81847 108.34392-137.81847 214.18628 0 95.70313 4.69947 210.15738 123.79212 214.18628 166.02921 5.617 88.6449-118.23537 82.27901-214.18628z"/></clipPath><rect height="50" ry="14.13716" width="100" x="146.45903" y="52.70153"/><path d="m171.45903 87.380508h50v52.096478h-50z"/><rect height="52.096478" ry="15.133824" transform="matrix(.71124936 -.70293979 .70293979 .71124936 0 0)" width="50" x="-78.85408" y="143.86423"/><path clip-path="url(#a)" d="m196.19531 120.99805c-90.46094 0-164.275388 73.81445-164.275388 164.27539s73.814448 164.27734 164.275388 164.27734 164.27735-73.8164 164.27735-164.27734-73.81641-164.27539-164.27735-164.27539zm0 45c66.14116 0 119.27735 53.13423 119.27735 119.27539s-53.13619 119.27734-119.27735 119.27734-119.275388-53.13618-119.275388-119.27734 53.134228-119.27539 119.275388-119.27539z"/><path d="m444.45566 260.03964c4.929-76.658 73.935-190.162998-58.733-190.162998-111.138 0-118.596 96.191998-118.596 190.162998 0 84.969 4.044 186.586 106.526 190.163 142.872 4.987 76.281-104.974 70.803-190.163z"/><rect height="108.49739" ry="13.761313" transform="matrix(.70710678 -.70710678 .70710678 .70710678 0 0)" width="50" x="-82.082863" y="249.45572"/></svg>