<svg enable-background="new 0 0 500 500" height="500" viewBox="0 0 500 500" width="500" xmlns="http://www.w3.org/2000/svg"><path clip-rule="evenodd" d="m256.32692 415.69427c0-.95078 0-1.77872 0-2.7865-4.99549 0-9.89937.005-14.80323-.00074-6.50039-.008-13.00144.0245-19.50148-.0564-3.49569-.0439-6.20686-2.44855-6.89772-5.86551-.62876-3.10919 1.02949-6.47391 4.07592-7.79963 1.14723-.4995 2.51165-.69121 3.77834-.69596 13.84872-.0471 27.69846.004 41.54752-.0546 3.09564-.0128 5.21707 1.43296 7.33918 3.52656 8.57127 8.45556 17.29013 16.76147 25.95402 25.1237 1.22021 1.17777 2.34268 2.48145 3.67757 3.51027 2.10888 1.62433 2.80211 3.59003 2.72916 6.26014-.18764 6.83496-.063 13.67873-.0624 20.51876v2.87779c-3.23135-3.10853-6.0019-6.00192-9.01372-8.61808-4.64259-4.03285-9.43144-7.89838-14.19584-11.78937-2.89205-2.36236-6.37416-3.18861-9.98353-3.15909-7.84951.0651-15.69734.41975-23.54686.48658-9.60992.0821-19.22323-.12418-28.83146.0268-4.28629.0675-7.80473-1.52764-10.68218-4.33008-10.12365-9.86-20.09019-19.88083-30.11917-29.83756-2.24088-2.22493-2.79195-4.90726-1.77126-7.7864.98811-2.78787 3.14483-4.37215 6.1088-4.66567 2.33419-.2314 4.27409.67865 5.97341 2.27142 6.68057 6.26253 13.38963 12.49551 20.0885 18.73869 1.28162 1.19475 2.53405 2.4241 3.86692 3.55813.43026.36645 1.07429.68033 1.62127.6817 14.02008.0287 28.04016.0136 42.0599.00068.16016 0 .31964-.0713.58838-.1354z" fill-rule="evenodd" stroke-width=".339321"/><path d="m199.58765 317.40137h72.251747v72.251747h-72.251747z" stroke-width="1.29203"/><path d="m335.5289 316.03168h36.0588v36.0588h-36.0588z" stroke-width=".360588"/><path d="m335.7092 366.51398h36.0588v36.0588h-36.0588z" stroke-width=".360588"/><path d="m335.79935 416.99634h36.0588v36.0588h-36.0588z" stroke-width=".360588"/><path d="m458.62858 384.60215c1.77734-27.64195 26.66008-68.57048-21.17841-68.57048-40.07503 0-42.76429 34.68567-42.76429 68.57048 0 30.63881 1.45822 67.28067 38.41199 68.57051 51.51793 1.79824 27.50602-37.85237 25.53071-68.57051z" stroke-width=".360588"/><g stroke-width=".464401"><path d="m210.71657 48.984993h53.897011v53.897011h-53.897011z"/><path d="m286.17233 48.984993h53.897011v53.897011h-53.897011z"/><path d="m361.62817 48.984993h53.897011v53.897011h-53.897011z"/><path d="m210.98605 124.4408h53.897011v53.897011h-53.897011z"/><path d="m286.44183 124.4408h53.897011v53.897011h-53.897011z"/><path d="m361.89767 124.4408h53.897011v53.897011h-53.897011z"/><path d="m211.12079 199.89662h53.897011v53.897011h-53.897011z"/><path d="m286.5766 199.89662h53.897011v53.897011h-53.897011z"/><path d="m362.03241 199.89662h53.897011v53.897011h-53.897011z"/></g><circle cx="85.562248" cy="122.107" r="50" stroke-width=".90259"/><circle cx="85.561996" cy="242.36209" r="50" stroke-width=".90259"/><circle cx="85.561996" cy="362.61801" r="50" stroke-width=".90259"/></svg>