<svg enable-background="new 0 0 500 500" height="500" viewBox="0 0 500 500" width="500" xmlns="http://www.w3.org/2000/svg"><path d="m217.11501 84.371002h74.748001v74.748001h-74.748001z" stroke-width=".74748"/><path d="m217.11464 204.37099h74.748001v74.748001h-74.748001z" stroke-width=".74748"/><path d="m217.11464 324.371h74.748001v74.748001h-74.748001z" stroke-width=".74748"/><path d="m449.32574 241.67685c3.77752-63.68794 56.66276-157.988589-45.01216-157.988589-85.17463 0-90.89034 79.916899-90.89034 157.988589 0 70.59277 3.09927 155.0168 81.64005 157.98859 109.49514 4.14323 58.46071-87.21305 54.26245-157.98859z" stroke-width=".797946"/><g stroke-width=".674668"><circle cx="159.69063" cy="102.481" r="37.374001"/><circle cx="159.69031" cy="195.73534" r="37.374001"/><circle cx="159.69031" cy="288.98965" r="37.374001"/><circle cx="159.69031" cy="382.24399" r="37.374001"/><circle cx="64.892242" cy="102.481" r="37.374001"/><circle cx="64.891983" cy="195.73534" r="37.374001"/><circle cx="64.891983" cy="288.98965" r="37.374001"/><circle cx="64.891983" cy="382.24399" r="37.374001"/></g></svg>