<svg enable-background="new 0 0 500 500" height="500" viewBox="0 0 500 500" width="500" xmlns="http://www.w3.org/2000/svg"><path d="m30 30h116v116h-116z"/><path d="m30 192h116v116h-116z"/><path d="m30 354h116v116h-116z"/><path d="m192 30h116v116h-116z"/><path d="m192 192h116v116h-116z"/><path d="m192 354h116v116h-116z"/><path d="m354 30h116v116h-116z"/><path d="m354 192h116v116h-116z"/><path d="m354 354h116v116h-116z"/><g fill="#fff"><path d="m369 45h86v86h-86z"/><path d="m45 207h86v86h-86z"/><path d="m207 207h86v86h-86z"/><path d="m207 369h86v86h-86z"/></g></svg>