<?xml version="1.0" encoding="utf-8"?>
<!DOCTYPE svg PUBLIC "-//W3C//DTD SVG 1.1//EN" "http://www.w3.org/Graphics/SVG/1.1/DTD/svg11.dtd">
<svg version="1.1" id="Layer_1" xmlns="http://www.w3.org/2000/svg" xmlns:xlink="http://www.w3.org/1999/xlink" x="0px" y="0px"
	 width="500px" height="500px" viewBox="0 0 500 500" enable-background="new 0 0 500 500" xml:space="preserve">
<rect x="20" y="155" fill="#000000" width="50" height="50"/>
<rect x="20" y="225" fill="#000000" width="50" height="50"/>
<rect x="20" y="295" fill="#000000" width="50" height="50"/>
<rect x="90" y="155" fill="#000000" width="50" height="50"/>
<rect x="90" y="225" fill="#000000" width="50" height="50"/>
<rect x="90" y="295" fill="#000000" width="50" height="50"/>
<rect x="160" y="155" fill="#000000" width="50" height="50"/>
<rect x="160" y="225" fill="#000000" width="50" height="50"/>
<rect x="160" y="295" fill="#000000" width="50" height="50"/>
<path fill="#000000" d="M 235 235 h 15 v -10 l 15 25 l -15 25 v -10 h -15 z"/> 
<rect x="290" y="155" fill="#000000" width="50" height="50"/>
<rect x="290" y="225" fill="#000000" width="50" height="50"/>
<rect x="290" y="295" fill="#000000" width="50" height="50"/>
<rect x="360" y="155" fill="#000000" width="50" height="50"/>
<rect x="360" y="225" fill="#000000" width="50" height="50"/>
<rect x="360" y="295" fill="#000000" width="50" height="50"/>
<rect x="430" y="155" fill="#000000" width="50" height="50"/>
<rect x="430" y="225" fill="#000000" width="50" height="50"/>
<rect x="430" y="295" fill="#000000" width="50" height="50"/>
<rect x="300" y="235" fill="#ffffff" width="30" height="30"/>
<rect x="370" y="235" fill="#ffffff" width="30" height="30"/>
<rect x="370" y="305" fill="#ffffff" width="30" height="30"/>
<rect x="440" y="165" fill="#ffffff" width="30" height="30"/>
</svg>

