<?xml version="1.0" encoding="utf-8"?>
<!-- Generator: Adobe Illustrator 16.0.0, SVG Export Plug-In . SVG Version: 6.00 Build 0)  -->
<!DOCTYPE svg PUBLIC "-//W3C//DTD SVG 1.1//EN" "http://www.w3.org/Graphics/SVG/1.1/DTD/svg11.dtd">
<svg version="1.1" xmlns="http://www.w3.org/2000/svg" xmlns:xlink="http://www.w3.org/1999/xlink" x="0px" y="0px" width="720px"
	 height="720px" viewBox="0 0 720 720" enable-background="new 0 0 720 720" xml:space="preserve">
<g id="Layer_2" display="none">
	<rect display="inline" width="720" height="720"/>
</g>
<g id="Layer_1">
	<g>
		<polygon points="519.834,703.5 680.166,703.5 600,623.334 		"/>
		<polygon points="279.834,703.5 440.166,703.5 360,623.334 		"/>
		<polygon points="39.834,703.5 200.166,703.5 120,623.334 		"/>
		<polygon points="399.834,616.5 480,696.666 560.166,616.5 		"/>
		<polygon points="159.834,616.5 240,696.666 320.166,616.5 		"/>
		<polygon points="623.334,600 703.5,680.166 703.5,519.834 		"/>
		<polygon points="16.5,519.834 16.5,680.166 96.666,600 		"/>
		<polygon points="399.834,583.5 560.166,583.5 480,503.334 		"/>
		<polygon points="159.834,583.5 320.166,583.5 240,503.334 		"/>
		<polygon points="279.834,496.5 360,576.666 440.166,496.5 		"/>
		<polygon points="616.5,399.834 616.5,560.166 696.666,480 		"/>
		<polygon points="503.334,480 583.5,560.166 583.5,399.834 		"/>
		<polygon points="136.5,399.834 136.5,560.166 216.666,480 		"/>
		<polygon points="23.334,480 103.5,560.166 103.5,399.834 		"/>
		<polygon points="279.834,463.5 440.166,463.5 360,383.334 		"/>
		<polygon points="623.334,360 703.5,440.166 703.5,279.834 		"/>
		<polygon points="496.5,279.834 496.5,440.166 576.666,360 		"/>
		<polygon points="383.334,360 463.5,440.166 463.5,279.834 		"/>
		<polygon points="256.5,279.834 256.5,440.166 336.666,360 		"/>
		<polygon points="143.334,360 223.5,440.166 223.5,279.834 		"/>
		<polygon points="16.5,279.834 16.5,440.166 96.666,360 		"/>
		<polygon points="279.834,256.5 360,336.666 440.166,256.5 		"/>
		<polygon points="616.5,159.834 616.5,320.166 696.666,240 		"/>
		<polygon points="503.334,240 583.5,320.166 583.5,159.834 		"/>
		<polygon points="136.5,159.834 136.5,320.166 216.666,240 		"/>
		<polygon points="23.334,240 103.5,320.166 103.5,159.834 		"/>
		<polygon points="279.834,223.5 440.166,223.5 360,143.334 		"/>
		<polygon points="399.834,136.5 480,216.666 560.166,136.5 		"/>
		<polygon points="159.834,136.5 240,216.666 320.166,136.5 		"/>
		<polygon points="623.334,120 703.5,200.166 703.5,39.834 		"/>
		<polygon points="16.5,39.834 16.5,200.166 96.666,120 		"/>
		<polygon points="399.834,103.5 560.166,103.5 480,23.334 		"/>
		<polygon points="159.834,103.5 320.166,103.5 240,23.334 		"/>
		<polygon points="519.834,16.5 600,96.666 680.166,16.5 		"/>
		<polygon points="279.834,16.5 360,96.666 440.166,16.5 		"/>
	</g>
	<polygon points="39.834,16.5 120,96.666 200.166,16.5 	"/>
</g>
</svg>
