<?xml version="1.0" encoding="UTF-8"?>
<svg xmlns="http://www.w3.org/2000/svg" xmlns:xlink="http://www.w3.org/1999/xlink" width="500px" height="500px" viewBox="0 0 500 500" version="1.1">
<g id="surface1">
<path style=" stroke:none;fill-rule:nonzero;fill:rgb(0%,0%,0%);fill-opacity:1;" d="M 360.996094 488.542969 L 472.335938 488.542969 L 416.667969 432.871094 Z M 360.996094 488.542969 "/>
<path style=" stroke:none;fill-rule:nonzero;fill:rgb(0%,0%,0%);fill-opacity:1;" d="M 194.328125 488.542969 L 305.671875 488.542969 L 250 432.871094 Z M 194.328125 488.542969 "/>
<path style=" stroke:none;fill-rule:nonzero;fill:rgb(0%,0%,0%);fill-opacity:1;" d="M 27.664062 488.542969 L 139.003906 488.542969 L 83.332031 432.871094 Z M 27.664062 488.542969 "/>
<path style=" stroke:none;fill-rule:nonzero;fill:rgb(0%,0%,0%);fill-opacity:1;" d="M 277.664062 428.125 L 333.332031 483.796875 L 389.003906 428.125 Z M 277.664062 428.125 "/>
<path style=" stroke:none;fill-rule:nonzero;fill:rgb(0%,0%,0%);fill-opacity:1;" d="M 110.996094 428.125 L 166.667969 483.796875 L 222.335938 428.125 Z M 110.996094 428.125 "/>
<path style=" stroke:none;fill-rule:nonzero;fill:rgb(0%,0%,0%);fill-opacity:1;" d="M 432.871094 416.667969 L 488.542969 472.335938 L 488.542969 360.996094 Z M 432.871094 416.667969 "/>
<path style=" stroke:none;fill-rule:nonzero;fill:rgb(0%,0%,0%);fill-opacity:1;" d="M 11.457031 360.996094 L 11.457031 472.335938 L 67.128906 416.667969 Z M 11.457031 360.996094 "/>
<path style=" stroke:none;fill-rule:nonzero;fill:rgb(0%,0%,0%);fill-opacity:1;" d="M 277.664062 405.207031 L 389.003906 405.207031 L 333.332031 349.539062 Z M 277.664062 405.207031 "/>
<path style=" stroke:none;fill-rule:nonzero;fill:rgb(0%,0%,0%);fill-opacity:1;" d="M 110.996094 405.207031 L 222.335938 405.207031 L 166.667969 349.539062 Z M 110.996094 405.207031 "/>
<path style=" stroke:none;fill-rule:nonzero;fill:rgb(0%,0%,0%);fill-opacity:1;" d="M 194.328125 344.792969 L 250 400.460938 L 305.671875 344.792969 Z M 194.328125 344.792969 "/>
<path style=" stroke:none;fill-rule:nonzero;fill:rgb(0%,0%,0%);fill-opacity:1;" d="M 428.125 277.664062 L 428.125 389.003906 L 483.796875 333.332031 Z M 428.125 277.664062 "/>
<path style=" stroke:none;fill-rule:nonzero;fill:rgb(0%,0%,0%);fill-opacity:1;" d="M 349.539062 333.332031 L 405.207031 389.003906 L 405.207031 277.664062 Z M 349.539062 333.332031 "/>
<path style=" stroke:none;fill-rule:nonzero;fill:rgb(0%,0%,0%);fill-opacity:1;" d="M 94.792969 277.664062 L 94.792969 389.003906 L 150.460938 333.332031 Z M 94.792969 277.664062 "/>
<path style=" stroke:none;fill-rule:nonzero;fill:rgb(0%,0%,0%);fill-opacity:1;" d="M 16.203125 333.332031 L 71.875 389.003906 L 71.875 277.664062 Z M 16.203125 333.332031 "/>
<path style=" stroke:none;fill-rule:nonzero;fill:rgb(0%,0%,0%);fill-opacity:1;" d="M 194.328125 321.875 L 305.671875 321.875 L 250 266.203125 Z M 194.328125 321.875 "/>
<path style=" stroke:none;fill-rule:nonzero;fill:rgb(0%,0%,0%);fill-opacity:1;" d="M 432.871094 250 L 488.542969 305.671875 L 488.542969 194.328125 Z M 432.871094 250 "/>
<path style=" stroke:none;fill-rule:nonzero;fill:rgb(0%,0%,0%);fill-opacity:1;" d="M 344.792969 194.328125 L 344.792969 305.671875 L 400.460938 250 Z M 344.792969 194.328125 "/>
<path style=" stroke:none;fill-rule:nonzero;fill:rgb(0%,0%,0%);fill-opacity:1;" d="M 266.203125 250 L 321.875 305.671875 L 321.875 194.328125 Z M 266.203125 250 "/>
<path style=" stroke:none;fill-rule:nonzero;fill:rgb(0%,0%,0%);fill-opacity:1;" d="M 178.125 194.328125 L 178.125 305.671875 L 233.796875 250 Z M 178.125 194.328125 "/>
<path style=" stroke:none;fill-rule:nonzero;fill:rgb(0%,0%,0%);fill-opacity:1;" d="M 99.539062 250 L 155.207031 305.671875 L 155.207031 194.328125 Z M 99.539062 250 "/>
<path style=" stroke:none;fill-rule:nonzero;fill:rgb(0%,0%,0%);fill-opacity:1;" d="M 11.457031 194.328125 L 11.457031 305.671875 L 67.128906 250 Z M 11.457031 194.328125 "/>
<path style=" stroke:none;fill-rule:nonzero;fill:rgb(0%,0%,0%);fill-opacity:1;" d="M 194.328125 178.125 L 250 233.796875 L 305.671875 178.125 Z M 194.328125 178.125 "/>
<path style=" stroke:none;fill-rule:nonzero;fill:rgb(0%,0%,0%);fill-opacity:1;" d="M 428.125 110.996094 L 428.125 222.335938 L 483.796875 166.667969 Z M 428.125 110.996094 "/>
<path style=" stroke:none;fill-rule:nonzero;fill:rgb(0%,0%,0%);fill-opacity:1;" d="M 349.539062 166.667969 L 405.207031 222.335938 L 405.207031 110.996094 Z M 349.539062 166.667969 "/>
<path style=" stroke:none;fill-rule:nonzero;fill:rgb(0%,0%,0%);fill-opacity:1;" d="M 94.792969 110.996094 L 94.792969 222.335938 L 150.460938 166.667969 Z M 94.792969 110.996094 "/>
<path style=" stroke:none;fill-rule:nonzero;fill:rgb(0%,0%,0%);fill-opacity:1;" d="M 16.203125 166.667969 L 71.875 222.335938 L 71.875 110.996094 Z M 16.203125 166.667969 "/>
<path style=" stroke:none;fill-rule:nonzero;fill:rgb(0%,0%,0%);fill-opacity:1;" d="M 194.328125 155.207031 L 305.671875 155.207031 L 250 99.539062 Z M 194.328125 155.207031 "/>
<path style=" stroke:none;fill-rule:nonzero;fill:rgb(0%,0%,0%);fill-opacity:1;" d="M 277.664062 94.792969 L 333.332031 150.460938 L 389.003906 94.792969 Z M 277.664062 94.792969 "/>
<path style=" stroke:none;fill-rule:nonzero;fill:rgb(0%,0%,0%);fill-opacity:1;" d="M 110.996094 94.792969 L 166.667969 150.460938 L 222.335938 94.792969 Z M 110.996094 94.792969 "/>
<path style=" stroke:none;fill-rule:nonzero;fill:rgb(0%,0%,0%);fill-opacity:1;" d="M 432.871094 83.332031 L 488.542969 139.003906 L 488.542969 27.664062 Z M 432.871094 83.332031 "/>
<path style=" stroke:none;fill-rule:nonzero;fill:rgb(0%,0%,0%);fill-opacity:1;" d="M 11.457031 27.664062 L 11.457031 139.003906 L 67.128906 83.332031 Z M 11.457031 27.664062 "/>
<path style=" stroke:none;fill-rule:nonzero;fill:rgb(0%,0%,0%);fill-opacity:1;" d="M 277.664062 71.875 L 389.003906 71.875 L 333.332031 16.203125 Z M 277.664062 71.875 "/>
<path style=" stroke:none;fill-rule:nonzero;fill:rgb(0%,0%,0%);fill-opacity:1;" d="M 110.996094 71.875 L 222.335938 71.875 L 166.667969 16.203125 Z M 110.996094 71.875 "/>
<path style=" stroke:none;fill-rule:nonzero;fill:rgb(0%,0%,0%);fill-opacity:1;" d="M 360.996094 11.457031 L 416.667969 67.128906 L 472.335938 11.457031 Z M 360.996094 11.457031 "/>
<path style=" stroke:none;fill-rule:nonzero;fill:rgb(0%,0%,0%);fill-opacity:1;" d="M 194.328125 11.457031 L 250 67.128906 L 305.671875 11.457031 Z M 194.328125 11.457031 "/>
<path style=" stroke:none;fill-rule:nonzero;fill:rgb(0%,0%,0%);fill-opacity:1;" d="M 27.664062 11.457031 L 83.332031 67.128906 L 139.003906 11.457031 Z M 27.664062 11.457031 "/>
</g>
</svg>
