<svg enable-background="new 0 0 500 500" height="500" viewBox="0 0 500 500" width="500" xmlns="http://www.w3.org/2000/svg"><path d="m38.5 78.599998h72.800003v72.800003h-72.800003z"/><path d="m38.5 182.60001h72.800003v72.800003h-72.800003z"/><path d="m127.39999 71.199997h49.700001v49.700001h-49.700001z"/><path d="m127.39999 142.2h49.700001v49.700001h-49.700001z"/><path d="m127.39999 213.10001h49.700001v49.700001h-49.700001z"/><path d="m197.10001 65.5h38.400002v38.400002h-38.400002z"/><path d="m197.10001 120.39999h38.400002v38.400002h-38.400002z"/><path d="m197.10001 175.3h38.400002v38.400002h-38.400002z"/><path d="m197.10001 230.10001h38.400002v38.400002h-38.400002z"/><path d="m252.39999 57.199997h32.700001v32.700001h-32.700001z"/><path d="m252.39999 103.9h32.700001v32.700001h-32.700001z"/><path d="m252.39999 150.60001h32.700001v32.700001h-32.700001z"/><path d="m252.39999 197.3h32.700001v32.700001h-32.700001z"/><path d="m252.39999 244h32.700001v32.700001h-32.700001z"/><path d="m330.01294 188.59871h90v25h-90z"/><path d="m330.01294 188.59871h25v90h-25z"/><path d="m370.01294 228.59871h90v90h-90z"/><path d="m242.51386 330.90956-71.4571 51.76261 27.26652 84.70244h88.38115l27.26653-84.70244z" stroke-width=".940682"/><path d="m331.36112 466.15911h138.64602l-69.32301-120.64244z" stroke-width=".868485"/><path d="m395.2248 25.901621c-38.9905 0-70.59855 31.608045-70.59855 70.598547 0 38.990492 31.60805 70.598552 70.59855 70.598552 38.99049 0 70.59855-31.60806 70.59855-70.598552 0-38.990502-31.60806-70.598547-70.59855-70.598547zm0 6.419005 17.0403 59.630558h-.0105c.43221 1.537448.66186 3.156343.66186 4.832639 0 9.811927-7.9186 17.765197-17.69165 17.765197-9.77306 0-17.69166-7.95327-17.69166-17.765197 0-1.676296.22966-3.295191.66185-4.832639h-.021zm0 22.12508-11.20962 39.217913h.0105c-.28424 1.011142-.44124 2.070268-.44124 3.172732 0 6.453089 5.21284 11.682369 11.64036 11.682369 6.42753 0 11.64036-5.22928 11.64036-11.682369 0-1.102464-.157-2.16159-.44125-3.172732h.0105z" stroke-width=".336183"/><path clip-rule="evenodd" d="m108.27892 424.68778c0-.91372 0-1.7094 0-2.6779-4.80079 0-9.513541.005-14.226289-.00098-6.247034-.007-12.49472.0235-18.741427-.0542-3.359448-.0421-5.964961-2.35312-6.628893-5.63691-.604257-2.98803.989377-6.2216 3.917073-7.49566 1.102532-.48001 2.413767-.66425 3.631087-.66882 13.308982-.0453 26.618939.002 39.928259-.0525 2.97497-.0124 5.01373 1.3771 7.05313 3.38911 8.2372 8.12601 16.61626 16.10821 24.94248 24.14452 1.17265 1.13189 2.25137 2.38476 3.53425 3.37348 2.02668 1.56102 2.69291 3.4501 2.62279 6.01615-.18033 6.56857-.0606 13.14562-.06 19.71907v2.76563c-3.10544-2.98737-5.76802-5.768-8.66244-8.28221-4.46167-3.87566-9.06387-7.59055-13.64259-11.32989-2.77932-2.27029-6.12572-3.06434-9.59441-3.03596-7.54359.0626-15.08556.40338-22.629151.46762-9.235384.0789-18.474028-.11938-27.70778.0257-4.119253.0649-7.50055-1.46809-10.265851-4.16132-9.729093-9.47572-19.307204-19.106-28.945316-28.67465-2.153542-2.13822-2.683124-4.71602-1.702225-7.48294.949594-2.67922 3.022264-4.20176 5.870718-4.48383 2.24322-.2224 4.107514.65219 5.740605 2.18289 6.420191 6.01844 12.867775 12.0085 19.305575 18.00836 1.231667 1.14818 2.43529 2.32963 3.716199 3.41945.413489.35219 1.032421.65383 1.55809.65513 13.473661.0277 26.947322.013 40.420656.00065.15392 0 .30719-.0685.56545-.13011z" fill-rule="evenodd" stroke-width=".326097"/><path d="m53.878429 330.21533h69.304733v69.305977h-69.304733z" stroke-width="1.23936"/></svg>