<svg enable-background="new 0 0 500 500" height="500" viewBox="0 0 500 500" width="500" xmlns="http://www.w3.org/2000/svg"><g stroke-width=".773559"><path d="m70.849289 53.655769h56.31509v56.31509h-56.31509z"/><path d="m70.849289 134.10591h56.31509v56.31509h-56.31509z"/><path d="m139.61867 47.931435h38.445877v38.445877h-38.445877z"/><path d="m139.61867 102.85411h38.445877v38.445877h-38.445877z"/><path d="m139.61867 157.69946h38.445877v38.445877h-38.445877z"/><path d="m193.53574 43.522152h29.704662v29.704662h-29.704662z"/><path d="m193.53574 85.990524h29.704662v29.704662h-29.704662z"/><path d="m193.53574 128.45892h29.704662v29.704662h-29.704662z"/><path d="m193.53574 170.84996h29.704662v29.704662h-29.704662z"/><path d="m236.31354 37.101612h25.295376v25.295376h-25.295376z"/><path d="m236.31354 73.226814h25.295376v25.295376h-25.295376z"/><path d="m236.31354 109.35202h25.295376v25.295376h-25.295376z"/><path d="m236.31354 145.47722h25.295376v25.295376h-25.295376z"/><path d="m236.31354 181.60242h25.295376v25.295376h-25.295376z"/><path d="m175.98627 238.37862h69.6203v19.338972h-69.6203z"/><path d="m175.98627 238.37862h19.338972v69.6203h-19.338972z"/><path d="m206.92862 269.32095h69.6203v69.6203h-69.6203z"/></g><path d="m175.16841 366.40333-49.91057 36.15458 19.04482 59.16201h61.73149l19.04481-59.16201z" stroke-width=".657037"/><path d="m225.26271 463.01218h98.04019l-49.0201-85.30939z" stroke-width=".614128"/><path d="m99.676147 228.66224c-30.16144 0-54.61213 24.45068-54.61213 54.61213s24.45069 54.61214 54.61213 54.61214c30.161433 0 54.612133-24.45069 54.612133-54.61214s-24.4507-54.61213-54.612133-54.61213zm0 4.96548 13.181673 46.12775h-.008c.33434 1.1893.51198 2.44161.51198 3.73833 0 7.5901-6.12549 13.74242-13.685523 13.74242-7.56004 0-13.68554-6.15232-13.68554-13.74242 0-1.29672.17766-2.54903.51198-3.73833h-.0162zm0 17.11505-8.6713 30.33737h.008c-.21988.78217-.34133 1.60147-.34133 2.45429 0 4.99185 4.03244 9.037 9.0045 9.037 4.972083 0 9.004513-4.04515 9.004513-9.037 0-.85282-.12145-1.67212-.34133-2.45429h.008z" stroke-width=".260057"/><path clip-rule="evenodd" d="m84.695489 438.94631c0-.70682 0-1.32232 0-2.07152-3.713694 0-7.359284.004-11.004873-.00075-4.832448-.005-9.665401.0182-14.497597-.0419-2.598731-.0326-4.614248-1.82028-5.127839-4.36048-.467428-2.31142.765341-4.81278 3.030087-5.79834.852873-.37131 1.867191-.51383 2.808859-.51737 10.295282-.035 20.591317.002 30.88686-.0406 2.301314-.01 3.878414 1.06527 5.456014 2.62168 6.37196 6.28594 12.85365 12.46065 19.29447 18.6772.90712.87559 1.74157 1.84476 2.73395 2.60959 1.56776 1.20754 2.08313 2.66886 2.02889 4.65385-.1395 5.08117-.0469 10.16891-.0464 15.25386v2.13938c-2.40224-2.31091-4.4619-4.46189-6.7009-6.40678-3.45137-2.99805-7.01144-5.87174-10.55335-8.76434-2.14997-1.7562-4.73861-2.37045-7.42184-2.34849-5.835413.0484-11.669571.31204-17.504982.36173-7.144114.061-14.290749-.0924-21.4336.0199-3.186485.0502-5.802117-1.13565-7.94124-3.21903-7.526026-7.33002-14.935259-14.77961-22.390907-22.18153-1.665891-1.65404-2.075554-3.64812-1.316771-5.78849.734567-2.07254 2.337899-3.25031 4.541346-3.46851 1.735263-.17204 3.177404.50451 4.440696 1.6886 4.966396 4.65561 9.953982 9.28928 14.933999 13.93052.952767.88819 1.883841 1.80211 2.874699 2.64515.319858.27244.798639.50577 1.205275.50678 10.42267.0214 20.84534.0101 31.267757.0005.119066 0 .23763-.053.437409-.10064z" fill-rule="evenodd" stroke-width=".252255"/><path d="m42.613506 365.8663h53.611294v53.612255h-53.611294z" stroke-width=".958718"/><path d="m449.3255 241.67659c3.77752-63.68794 56.66276-157.98859-45.01216-157.98859-85.17463 0-90.89034 79.9169-90.89034 157.98859 0 70.59277 3.09927 155.0168 81.64005 157.98859 109.49514 4.14323 58.46071-87.21305 54.26245-157.98859z" stroke-width=".797946"/></svg>