<?xml version="1.0" encoding="utf-8"?>
<!-- Generator: Adobe Illustrator 16.0.0, SVG Export Plug-In . SVG Version: 6.00 Build 0)  -->
<!DOCTYPE svg PUBLIC "-//W3C//DTD SVG 1.1//EN" "http://www.w3.org/Graphics/SVG/1.1/DTD/svg11.dtd">
<svg version="1.1" id="Layer_1" xmlns="http://www.w3.org/2000/svg" xmlns:xlink="http://www.w3.org/1999/xlink" x="0px" y="0px"
	 width="500px" height="500px" viewBox="0 0 500 500" enable-background="new 0 0 500 500" xml:space="preserve">
<g>
	<path fill="#000000" d="M250,62 205,140 295,140z"/>

	<path fill="#000000" d="M188,160 143,238 233,238z"/>
	<path fill="#000000" d="M250,233 205,155 295,155z"/>
	<path fill="#000000" d="M312,160 267,238 357,238z"/>

	<path fill="#000000" d="M126,258 81,336 171,336z"/>
	<path fill="#000000" d="M188,331 143,253 233,253z"/>
	<path fill="#000000" d="M250,258 205,336 295,336z"/>
	<path fill="#000000" d="M312,331 267,253 357,253z"/>
	<path fill="#000000" d="M374,258 329,336 419,336z"/>

	<path fill="#000000" d="M64,356 19,434 109,434z"/>
	<path fill="#000000" d="M126,429 81,351 171,351z"/>
	<path fill="#000000" d="M188,356 143,434 233,434z"/>
	<path fill="#000000" d="M250,429 205,351 295,351z"/>
	<path fill="#000000" d="M312,356 267,434 357,434z"/>
	<path fill="#000000" d="M374,429 329,351 419,351z"/>
	<path fill="#000000" d="M436,356 391,434 481,434z"/>
</g>
</svg>
