<svg enable-background="new 0 0 500 500" height="500" viewBox="0 0 500 500" width="500" xmlns="http://www.w3.org/2000/svg"><path d="m250 48-45 78h90z"/><path d="m188 155.333-45 78h90z"/><path d="m250 224.333-45-80h90z"/><path d="m312 155.333-45 78h90z"/><path d="m126 262.667-45 78h90z"/><path d="m188 329.667-45-78h90z"/><path d="m250 262.667-45 78h90z"/><path d="m312 329.667-45-78h90z"/><path d="m374 262.667-45 78h90z"/><path d="m64 370-45 78h90z"/><path d="m126 437-45-78h90z"/><path d="m188 370-45 78h90z"/><path d="m250 437-45-78h90z"/><path d="m312 370-45 78h90z"/><path d="m374 437-45-78h90z"/><path d="m436 370-45 78h90z"/></svg>