<?xml version="1.0" encoding="utf-8"?>
<!-- Generator: Adobe Illustrator 16.0.0, SVG Export Plug-In . SVG Version: 6.00 Build 0)  -->
<!DOCTYPE svg PUBLIC "-//W3C//DTD SVG 1.1//EN" "http://www.w3.org/Graphics/SVG/1.1/DTD/svg11.dtd">
<svg version="1.1" id="Layer_1" xmlns="http://www.w3.org/2000/svg" xmlns:xlink="http://www.w3.org/1999/xlink" x="0px" y="0px"
	 width="500px" height="500px" viewBox="0 0 500 500" enable-background="new 0 0 500 500" xml:space="preserve">
<g>
	<path fill="#000000" d="M30,30 160,30 160,160 30,160z"/>
	<path fill="#000000" d="M30,340 160,340 160,470 30,470z"/>
	<path fill="#000000" d="M340,30 470,30 470,160 340,160z"/>
	<path fill="#000000" d="M340,340 470,340 470,470 340,470z"/>
	<path fill="#000000" d="M185,30 315,30 315,160 250,225 185,160z"/>
	<path fill="#000000" d="M30,185 30,315 160,315 225,250 160,185z"/>
	<path fill="#000000" d="M470,185 470,315 340,315 275,250 340,185z"/>
	<path fill="#000000" d="M185,470 315,470 315,340 250,275 185,340z"/>
</g>
</svg>
