<?xml version="1.0" encoding="UTF-8" standalone="no"?>
<!-- Generator: Adobe Illustrator 16.0.0, SVG Export Plug-In . SVG Version: 6.00 Build 0)  -->

<svg
   version="1.1"
   id="Layer_1"
   x="0px"
   y="0px"
   width="500px"
   height="500px"
   viewBox="0 0 500 500"
   enable-background="new 0 0 500 500"
   xml:space="preserve"
   sodipodi:docname="sq1_bld.svg"
   inkscape:version="1.3.2 (091e20ef0f, 2023-11-25, custom)"
   xmlns:inkscape="http://www.inkscape.org/namespaces/inkscape"
   xmlns:sodipodi="http://sodipodi.sourceforge.net/DTD/sodipodi-0.dtd"
   xmlns="http://www.w3.org/2000/svg"
   xmlns:svg="http://www.w3.org/2000/svg"><defs
   id="defs7" /><sodipodi:namedview
   id="namedview7"
   pagecolor="#ffffff"
   bordercolor="#000000"
   borderopacity="0.25"
   inkscape:showpageshadow="2"
   inkscape:pageopacity="0.0"
   inkscape:pagecheckerboard="0"
   inkscape:deskcolor="#d1d1d1"
   inkscape:zoom="1.0059375"
   inkscape:cx="77.539607"
   inkscape:cy="313.14072"
   inkscape:window-width="1918"
   inkscape:window-height="1171"
   inkscape:window-x="0"
   inkscape:window-y="27"
   inkscape:window-maximized="1"
   inkscape:current-layer="Layer_1" />


<polygon
   fill="#000000"
   points="292.637,50.222 250.096,220.298 207.541,50.222 "
   id="polygon3"
   transform="matrix(0.8526973,0,0,0.8526973,3.363515,36.823117)" />
<polygon
   fill="#000000"
   points="49.989,207.429 220.368,250.008 49.989,292.579 "
   id="polygon4"
   transform="matrix(0.8526973,0,0,0.8526973,3.363515,36.823117)" />

<polyline
   fill="#000000"
   points="227.836,227.996 49.989,180.362 49.989,50.222 180.183,50.222 180.621,50.222 228.283,227.996 "
   id="polyline5"
   transform="matrix(0.8526973,0,0,0.8526973,3.363515,36.823117)" />

<polyline
   fill="#000000"
   points="227.836,272.029 49.989,319.662 49.989,449.784 180.183,449.784 180.621,449.784 228.283,272.029   "
   id="polyline7"
   transform="matrix(0.8526973,0,0,0.8526973,3.363515,36.823117)" />
<path
   fill="#000000"
   d="m 434.41327,249.91814 c 4.929,-76.658 73.935,-190.163003 -58.733,-190.163003 -111.138,0 -118.596,96.192003 -118.596,190.163003 0,84.969 4.044,186.586 106.526,190.163 142.872,4.987 76.281,-104.974 70.803,-190.163 z"
   id="path3" /></svg>
