<?xml version="1.0" encoding="UTF-8" standalone="no"?>
<!-- Created with Inkscape (http://www.inkscape.org/) -->

<svg
   xmlns:dc="http://purl.org/dc/elements/1.1/"
   xmlns:cc="http://creativecommons.org/ns#"
   xmlns:rdf="http://www.w3.org/1999/02/22-rdf-syntax-ns#"
   xmlns:svg="http://www.w3.org/2000/svg"
   xmlns="http://www.w3.org/2000/svg"
   xmlns:sodipodi="http://sodipodi.sourceforge.net/DTD/sodipodi-0.dtd"
   xmlns:inkscape="http://www.inkscape.org/namespaces/inkscape"
   id="svg4206"
   version="1.1"
   inkscape:version="0.91 r13725"
   width="702.94269"
   height="379.3916"
   viewBox="0 0 702.94269 379.3916"
   sodipodi:docname="10e3.svg">
  <metadata
     id="metadata4212">
    <rdf:RDF>
      <cc:Work
         rdf:about="">
        <dc:format>image/svg+xml</dc:format>
        <dc:type
           rdf:resource="http://purl.org/dc/dcmitype/StillImage" />
        <dc:title></dc:title>
      </cc:Work>
    </rdf:RDF>
  </metadata>
  <defs
     id="defs4210" />
  <sodipodi:namedview
     pagecolor="#ffffff"
     bordercolor="#666666"
     borderopacity="1"
     objecttolerance="10"
     gridtolerance="10"
     guidetolerance="10"
     inkscape:pageopacity="0"
     inkscape:pageshadow="2"
     inkscape:window-width="2560"
     inkscape:window-height="1413"
     id="namedview4208"
     showgrid="false"
     fit-margin-top="0"
     fit-margin-left="0"
     fit-margin-right="0"
     fit-margin-bottom="0"
     inkscape:zoom="1.445679"
     inkscape:cx="337.63701"
     inkscape:cy="159.90518"
     inkscape:window-x="0"
     inkscape:window-y="27"
     inkscape:window-maximized="0"
     inkscape:current-layer="svg4206" />
  <path
     style="fill:#000000"
     d="m 335.72134,379.14353 c -16.66592,-1.7182 -42.9406,-6.4693 -59.75614,-10.80536 -11.97333,-3.08745 -28.29876,-8.64666 -40.67604,-13.85118 -14.45772,-6.07933 -30.57256,-10.61295 -44.91782,-12.63682 -11.03634,-1.55705 -18.21326,-1.71706 -78.3,-1.74576 -41.054657,-0.0196 -68.369316,-0.38492 -71.999997,-0.96295 -3.47679,-0.55353 -8.876655,-2.42197 -13.310763,-4.60574 -12.152647,-5.98508 -20.7014815,-15.76677 -25.0384075,-28.6493 -2.29623,-6.82079 -2.29623,-21.07921 0,-27.9 5.068954,-15.05696 16.0298135,-26.02387 31.1491715,-31.16637 4.798646,-1.63215 14.54052,-1.68363 318.599996,-1.68363 304.05948,0 313.80135,0.0515 318.6,1.68363 15.11936,5.1425 26.08022,16.10941 31.14917,31.16637 2.29623,6.82079 2.29623,21.07921 0,27.9 -4.33693,12.88253 -12.88576,22.66422 -25.0384,28.6493 -4.43412,2.18377 -9.83398,4.05221 -13.31077,4.60574 -3.63068,0.57803 -30.94534,0.94335 -72,0.96295 -60.08675,0.0287 -67.26366,0.18871 -78.3,1.74576 -14.34526,2.02387 -30.4601,6.55749 -44.91782,12.63682 -24.69892,10.38565 -52.5474,17.8247 -86.03218,22.98143 -8.70921,1.34124 -38.56865,2.43095 -45.9,1.67511 z m 37.56709,-18.89382 c 14.05504,-2.97676 31.29033,-7.85408 41.52595,-11.7512 9.35282,-3.56098 23.93562,-11.51871 31.60696,-17.24768 6.72628,-5.0232 19.08065,-16.95651 20.66883,-19.96441 1.05141,-1.99129 0.54358,-5.07093 -4.41666,-26.78366 -4.50675,-19.72761 -6.01716,-24.97273 -7.71031,-26.775 l -2.10563,-2.24134 -101.38623,0 -101.38623,0 -2.10563,2.24134 c -1.69315,1.80227 -3.20356,7.04739 -7.71031,26.775 -4.96024,21.71273 -5.46807,24.79236 -4.41666,26.78366 0.65341,1.2375 4.3562,5.32838 8.22842,9.09084 20.43383,19.8546 43.14462,30.55306 83.99041,39.56568 15.70494,3.4653 29.85078,3.56126 45.21709,0.30677 z M 358.44634,191.78023 c -10.76625,-6.26502 -19.575,-11.70333 -19.575,-12.08513 0,-0.3818 5.14612,-9.59741 11.43581,-20.47914 l 11.43581,-19.78496 5.09549,2.90271 c 27.3471,15.57862 34.99757,20.10523 35.01386,20.7169 0.0268,1.0072 -22.7898,40.24835 -23.36148,40.17819 -0.25822,-0.0317 -9.27824,-5.18355 -20.04449,-11.44857 z m -44.775,-25.88962 c -10.6425,-6.16439 -19.33047,-11.45653 -19.3066,-11.76032 0.0959,-1.22049 22.50443,-39.87807 23.13438,-39.90977 0.58253,-0.0293 39.2709,22.07669 40.13657,22.93348 0.63308,0.62658 -22.6267,40.03102 -23.60454,39.9885 -0.55539,-0.0242 -9.71731,-5.0875 -20.35981,-11.25189 z m -36.9,-4.00419 c 0,-7.425 0.1808,-13.5 0.40178,-13.5 0.22098,0 2.93555,1.485 6.03237,3.3 3.09683,1.815 6.15603,3.3 6.79823,3.3 0.64219,0 1.16762,0.28798 1.16762,0.63996 0,0.35198 5.16375,3.60715 11.475,7.23371 6.31125,3.62656 13.7025,7.92754 16.425,9.55772 l 4.95,2.96398 -23.625,0.003 -23.625,0.002 0,-13.5 z m 122.4,12.7762 c 0,-0.39809 1.1693,-2.56759 2.59844,-4.82112 1.42915,-2.25353 2.90124,-5.06658 3.27131,-6.2512 0.37007,-1.18463 0.98198,-2.35638 1.35978,-2.60388 0.37781,-0.2475 4.63449,-7.335 9.4593,-15.75 4.82481,-8.415 9.1186,-15.68475 9.54177,-16.155 0.42805,-0.47567 0.7694,9.6066 0.7694,22.725 l 0,23.58 -13.5,0 c -7.425,0 -13.5,-0.32571 -13.5,-0.7238 z m -14.85,-27.22724 c -10.99408,-6.39367 -19.68082,-12.00225 -19.53203,-12.6108 0.21485,-0.87874 21.34485,-38.142943 22.36729,-39.446253 0.20724,-0.26418 39.10357,21.622263 40.61315,22.852473 0.27719,0.2259 -22.15903,39.28419 -23.0705,40.1625 -0.31786,0.30629 -9.48791,-4.62477 -20.37791,-10.95792 z m -114.3,-6.7423 c -10.395,-6.10786 -19.26204,-11.24871 -19.70455,-11.42411 -0.75252,-0.29829 20.18346,-37.750493 22.32323,-39.933853 0.71642,-0.73101 6.32616,2.11576 20.78132,10.54588 10.89,6.350953 19.72919,11.873983 19.64264,12.273403 -0.37836,1.746 -22.55755,39.29424 -23.30836,39.45984 -0.45885,0.10122 -9.33928,-4.81331 -19.73428,-10.92116 z m 69.9225,-18.80573 c -10.54762,-6.10825 -19.41445,-11.34288 -19.70407,-11.63249 -0.67508,-0.67509 21.43867,-39.328933 22.81403,-39.877903 1.23008,-0.49097 38.99987,21.11621 39.58726,22.64691 0.44992,1.17247 -21.35549,39.368813 -22.68544,39.737883 -0.45885,0.12734 -9.46416,-4.76614 -20.01178,-10.8744 z m 70.04775,-18.81407 C 399.38813,96.961057 390.58151,91.566907 390.4213,91.086287 c -0.26557,-0.79669 20.50704,-37.55093 22.21323,-39.30323 0.55291,-0.56786 38.41782,20.38438 40.37413,22.34069 0.48407,0.48406 -22.39314,40.062673 -23.15699,40.062673 -0.31959,0 -9.25662,-5.00091 -19.86008,-11.11314 z M 295.46476,96.317367 c -10.75611,-6.25953 -19.56486,-11.73764 -19.575,-12.1736 -0.0193,-0.82853 22.44734,-40.15735 22.93989,-40.15735 0.3412,0 39.44251,22.52863 39.94485,23.01465 0.43958,0.42527 -22.68357,40.887653 -23.30316,40.777363 -0.2475,-0.0441 -9.25046,-5.20154 -20.00658,-11.461063 z m 69.95658,-18.95564 c -10.89,-6.34358 -19.71824,-11.93466 -19.61832,-12.4246 0.16556,-0.81175 4.47141,-8.36452 17.9462,-31.47886 l 4.82585,-8.27813 20.02313,11.59503 c 12.27153,7.10623 19.90756,12.05138 19.72458,12.77382 -0.4314,1.70331 -22.11509,39.38611 -22.65144,39.3646 -0.2475,-0.01 -9.36,-5.20826 -20.25,-11.55186 z m -88.65,-27.90031 0,-23.475 14.41821,0 14.4182,0 -2.78318,4.725 c -1.53076,2.59875 -3.3842,5.94 -4.11876,7.425 -3.24994,6.57009 -19.98683,34.15079 -20.91073,34.45875 -0.74754,0.24918 -1.02374,-5.99215 -1.02374,-23.13375 z m 44.35825,2.33317 c -10.50046,-6.07292 -19.32078,-11.2707 -19.60072,-11.55064 -0.38966,-0.38966 21.07744,-38.7275796 22.52678,-40.23035962 0.63172,-0.65501 40.01401,22.58528962 39.96785,23.58586962 -0.0726,1.5747 -21.8707,38.66737 -22.90216,38.97146 -0.495,0.14593 -9.49128,-4.70341 -19.99175,-10.77633 z m 98.32821,-0.5634 c -3.44495,-1.93487 -6.54125,-3.34631 -6.88069,-3.13653 -0.33943,0.20978 -0.81373,-0.1225 -1.05397,-0.73841 -0.24026,-0.6159 -7.55801,-5.16983 -16.26169,-10.11983 -8.70367,-4.95 -15.83954,-9.50625 -15.85748,-10.125 -0.0253,-0.87199 5.22997,-1.125 23.36737,-1.125 l 23.4,0 0,14.4 c 0,7.92 -0.10125,14.39161 -0.225,14.38136 -0.12375,-0.0103 -3.04359,-1.60171 -6.48854,-3.53658 z"
     id="path4216"
     inkscape:connector-curvature="0" />
</svg>
