<?xml version="1.0" encoding="UTF-8" standalone="no"?>
<!-- Created with Inkscape (http://www.inkscape.org/) -->

<svg
   xmlns:dc="http://purl.org/dc/elements/1.1/"
   xmlns:cc="http://creativecommons.org/ns#"
   xmlns:rdf="http://www.w3.org/1999/02/22-rdf-syntax-ns#"
   xmlns:svg="http://www.w3.org/2000/svg"
   xmlns="http://www.w3.org/2000/svg"
   xmlns:sodipodi="http://sodipodi.sourceforge.net/DTD/sodipodi-0.dtd"
   xmlns:inkscape="http://www.inkscape.org/namespaces/inkscape"
   id="svg4206"
   version="1.1"
   inkscape:version="0.91 r13725"
   width="500"
   height="500"
   viewBox="0 0 500 500"
   sodipodi:docname="10e3.svg">
  <metadata
     id="metadata4212">
    <rdf:RDF>
      <cc:Work
         rdf:about="">
        <dc:format>image/svg+xml</dc:format>
        <dc:type
           rdf:resource="http://purl.org/dc/dcmitype/StillImage" />
        <dc:title></dc:title>
      </cc:Work>
    </rdf:RDF>
  </metadata>
  <defs
     id="defs4210" />
  <sodipodi:namedview
     pagecolor="#ffffff"
     bordercolor="#666666"
     borderopacity="1"
     objecttolerance="10"
     gridtolerance="10"
     guidetolerance="10"
     inkscape:pageopacity="0"
     inkscape:pageshadow="2"
     inkscape:window-width="2560"
     inkscape:window-height="1413"
     id="namedview4208"
     showgrid="false"
     fit-margin-top="0"
     fit-margin-left="0"
     fit-margin-right="0"
     fit-margin-bottom="0"
     inkscape:zoom="2.0444988"
     inkscape:cx="239.5047"
     inkscape:cy="185.93858"
     inkscape:window-x="0"
     inkscape:window-y="27"
     inkscape:window-maximized="0"
     inkscape:current-layer="svg4206"
     inkscape:snap-page="true"
     inkscape:snap-bbox="false"
     inkscape:snap-global="true"
     showguides="true">
    <inkscape:grid
       type="xygrid"
       id="grid4143" />
  </sodipodi:namedview>
  <path
     style="fill:#000000"
     d="m 249.9993,290.91067 c -215.703066,0 -222.613783,0.038 -226.017994,1.24235 -10.725836,3.79469 -18.501068,11.88705 -22.0970376,22.99771 -1.62896883,5.03314 -1.62896883,15.55484 0,20.58799 3.0766607,9.50615 9.1403786,16.72353 17.7615956,21.13997 3.145606,1.61141 6.977561,2.98996 9.44403,3.39841 2.575645,0.42655 21.952969,0.69607 51.077578,0.71052 42.626178,0.0212 47.716728,0.13952 55.546038,1.28846 10.17669,1.49345 21.60883,4.83878 31.86529,9.32478 8.78057,3.84047 20.36184,7.94293 28.85582,10.22122 11.92914,3.19959 30.56847,6.70501 42.39147,7.97286 5.20092,0.55777 26.38381,-0.24539 32.56223,-1.23513 23.75446,-3.80518 43.51122,-9.29527 61.03288,-16.95895 10.25647,-4.486 21.6886,-7.83133 31.86529,-9.32478 7.8293,-1.14894 12.91984,-1.26726 55.54603,-1.28846 29.12463,-0.0144 48.50193,-0.28396 51.0776,-0.71052 2.46647,-0.40845 6.29704,-1.787 9.44263,-3.39841 8.62122,-4.41644 14.68631,-11.63382 17.76297,-21.13997 1.62897,-5.03315 1.62897,-15.55485 0,-20.58799 -3.59595,-11.11066 -11.37118,-19.20302 -22.09703,-22.99771 -3.4042,-1.20436 -10.3163,-1.24235 -226.01939,-1.24235 z m -71.92344,7.63709 71.92344,0 71.92484,0 1.49364,1.65452 c 1.20112,1.32993 2.27307,5.1992 5.47023,19.75639 3.51885,16.02205 3.87864,18.29566 3.13276,19.76505 -1.12668,2.21957 -9.89038,11.02415 -14.66208,14.73082 -5.44214,4.22747 -15.78765,10.09983 -22.42264,12.72751 -7.26127,2.87573 -19.48778,6.47529 -29.45856,8.67188 -10.90103,2.40152 -20.93604,2.3308 -32.0773,-0.22628 -28.97643,-6.6505 -45.08899,-14.54553 -59.58495,-29.19645 -2.74698,-2.77636 -5.37386,-5.79433 -5.83739,-6.70748 -0.74588,-1.4694 -0.38471,-3.743 3.13414,-19.76505 3.19716,-14.55719 4.26771,-18.42646 5.46885,-19.75639 l 1.49502,-1.65452 z"
     id="path8070"
     inkscape:connector-curvature="0" />
  <g
     id="g8083"
     transform="matrix(0.7094108,0,0,0.73791012,0.66219549,110.0218)">
    <path
       id="path8068"
       d="m 277.17383,148.38672 c -0.22098,0 -0.40235,6.075 -0.40235,13.5 l 0,13.5 23.625,-0.002 23.625,-0.004 -4.94921,-2.96289 c -2.7225,-1.63018 -10.11454,-5.93203 -16.42579,-9.55859 -6.31125,-3.62657 -11.4746,-6.88045 -11.4746,-7.23243 0,-0.35198 -0.52578,-0.64062 -1.16797,-0.64062 -0.6422,0 -3.702,-1.48578 -6.79883,-3.30078 -3.09682,-1.815 -5.81027,-3.29883 -6.03125,-3.29883 z"
       style="fill:#000000"
       inkscape:connector-curvature="0" />
    <path
       id="path8066"
       d="m 361.74219,139.43164 -11.43555,19.78516 c -6.28969,10.88173 -11.43555,20.09671 -11.43555,20.47851 0,0.3818 8.80993,5.81897 19.57618,12.08399 10.76625,6.26502 19.78474,11.41752 20.04296,11.44922 0.57168,0.0702 23.38813,-39.17054 23.36133,-40.17774 -0.0163,-0.61167 -7.66657,-5.13818 -35.01367,-20.7168 l -5.0957,-2.90234 z"
       style="fill:#000000"
       inkscape:connector-curvature="0" />
    <path
       id="path8064"
       d="m 425.40234,129.08203 c -0.42317,0.47025 -4.71815,7.7393 -9.54296,16.1543 -4.82481,8.415 -9.08118,15.5025 -9.45899,15.75 -0.3778,0.2475 -0.9893,1.41888 -1.35937,2.60351 -0.37007,1.18462 -1.84234,3.99843 -3.27149,6.25196 -1.42914,2.25353 -2.59765,4.42222 -2.59765,4.82031 0,0.39809 6.07499,0.72461 13.5,0.72461 l 13.5,0 0,-23.58008 c -10e-6,-13.1184 -0.34149,-23.20028 -0.76954,-22.72461 z"
       style="fill:#000000"
       inkscape:connector-curvature="0" />
    <path
       id="path8062"
       d="m 272.64062,89.335938 c -2.13976,2.183359 -23.07673,39.635302 -22.32421,39.933592 0.44251,0.1754 9.31007,5.31597 19.70507,11.42383 10.395,6.10785 19.27553,11.02114 19.73438,10.91992 0.75081,-0.1656 22.93023,-37.71298 23.30859,-39.45898 0.0865,-0.39942 -8.75258,-5.92249 -19.64257,-12.273441 -14.45516,-8.43012 -20.06483,-11.275931 -20.78126,-10.544921 z M 317.5,114.2207 c -0.62995,0.0317 -23.03887,38.68967 -23.13477,39.91016 -0.0239,0.30379 8.66415,5.59538 19.30665,11.75976 10.6425,6.16439 19.80398,11.22776 20.35937,11.25196 0.97784,0.0425 24.2366,-39.3617 23.60352,-39.98828 C 356.7691,136.29751 318.08253,114.1914 317.5,114.2207 Z"
       style="fill:#000000"
       inkscape:connector-curvature="0" />
    <path
       id="path8060"
       d="m 343.05469,70.376953 c -1.37536,0.54897 -23.48954,39.201867 -22.81446,39.876957 0.28962,0.28961 9.15551,5.52456 19.70313,11.63281 10.54762,6.10826 19.55287,11.00234 20.01172,10.875 1.32995,-0.36907 23.13547,-38.565812 22.68554,-39.738282 -0.58739,-1.5307 -38.35585,-23.137455 -39.58593,-22.646485 z m 44.10156,25.001953 c -1.02244,1.30331 -22.15234,38.566574 -22.36719,39.445314 -0.14879,0.60855 8.53913,6.21766 19.53321,12.61133 10.89,6.33315 20.05909,11.26332 20.37695,10.95703 0.91147,-0.87831 23.3475,-39.93621 23.07031,-40.16211 -1.50958,-1.23021 -40.40604,-23.115744 -40.61328,-22.851564 z"
       style="fill:#000000"
       inkscape:connector-curvature="0" />
    <path
       id="path8058"
       d="m 412.63477,51.783203 c -1.70619,1.7523 -22.47847,38.506045 -22.21289,39.302735 0.1602,0.480619 8.96685,5.876058 19.57031,11.988282 10.60346,6.11223 19.53978,11.11133 19.85937,11.11133 0.76385,0 23.64032,-39.578443 23.15625,-40.062503 -1.95631,-1.95631 -39.82013,-22.907704 -40.37304,-22.339844 z"
       style="fill:#000000"
       inkscape:connector-curvature="0" />
    <path
       id="path8056"
       d="m 402.77148,25.986328 c -18.1374,0 -23.39248,0.25301 -23.36718,1.125 0.0179,0.61875 7.15375,5.175 15.85742,10.125 8.70368,4.95 16.02146,9.503241 16.26172,10.119141 0.24024,0.61591 0.7133,0.948061 1.05273,0.738281 0.33944,-0.20978 3.43591,1.201849 6.88086,3.136719 3.44495,1.93487 6.36649,3.526809 6.49024,3.537109 0.12375,0.01025 0.22461,-6.460859 0.22461,-14.380859 l 0,-14.400391 -23.4004,0 z"
       style="fill:#000000"
       inkscape:connector-curvature="0" />
    <path
       id="path8054"
       d="m 276.77148,25.986328 0,23.47461 c 0,17.1416 0.2759,23.383945 1.02344,23.134765 0.9239,-0.30796 17.66022,-27.888894 20.91016,-34.458984 0.73456,-1.485 2.58838,-4.827031 4.11914,-7.425781 l 2.7832,-4.72461 -14.41797,0 -14.41797,0 z m 22.0586,18 c -0.49255,0 -22.95875,39.329673 -22.93946,40.158203 0.0101,0.43596 8.81811,5.912345 19.57422,12.171875 10.75612,6.259524 19.75836,11.418794 20.00586,11.462894 0.61959,0.11029 23.74427,-40.352077 23.30469,-40.777347 -0.50234,-0.48602 -39.60411,-23.015625 -39.94531,-23.015625 z"
       style="fill:#000000"
       inkscape:connector-curvature="0" />
    <path
       id="path4216"
       d="M 324.05469,0.01367188 C 322.60535,1.5164519 301.13964,39.854481 301.5293,40.244141 c 0.27994,0.27994 9.09915,5.477861 19.59961,11.550781 10.50047,6.07292 19.49718,10.92132 19.99218,10.77539 1.03146,-0.304089 22.82975,-37.396003 22.90235,-38.970703 0.0462,-1.00058 -39.33703,-24.24094712 -39.96875,-23.58593712 z M 368.57422,25.179688 363.75,33.458984 c -13.47479,23.11434 -17.78171,30.666766 -17.94727,31.478516 -0.0999,0.48994 8.72915,6.080248 19.61915,12.423828 10.88999,6.3436 20.00249,11.542734 20.25,11.552734 0.53634,0.02151 22.21899,-37.661924 22.65039,-39.365234 0.18298,-0.72244 -7.45308,-5.667207 -19.72461,-12.773437 L 368.57422,25.179688 Z"
       style="fill:#000000"
       inkscape:connector-curvature="0" />
  </g>
</svg>
