<?xml version="1.0" encoding="UTF-8" standalone="no"?>
<!-- Created with Inkscape (http://www.inkscape.org/) -->

<svg
   xmlns:dc="http://purl.org/dc/elements/1.1/"
   xmlns:cc="http://creativecommons.org/ns#"
   xmlns:rdf="http://www.w3.org/1999/02/22-rdf-syntax-ns#"
   xmlns:svg="http://www.w3.org/2000/svg"
   xmlns="http://www.w3.org/2000/svg"
   xmlns:sodipodi="http://sodipodi.sourceforge.net/DTD/sodipodi-0.dtd"
   xmlns:inkscape="http://www.inkscape.org/namespaces/inkscape"
   id="svg2"
   version="1.1"
   inkscape:version="0.91 r13725"
   width="500"
   height="500"
   viewBox="0 0 500 500"
   sodipodi:docname="A3d1.svg">
  <metadata
     id="metadata8">
    <rdf:RDF>
      <cc:Work
         rdf:about="">
        <dc:format>image/svg+xml</dc:format>
        <dc:type
           rdf:resource="http://purl.org/dc/dcmitype/StillImage" />
        <dc:title></dc:title>
      </cc:Work>
    </rdf:RDF>
  </metadata>
  <defs
     id="defs6" />
  <sodipodi:namedview
     pagecolor="#ffffff"
     bordercolor="#666666"
     borderopacity="1"
     objecttolerance="10"
     gridtolerance="10"
     guidetolerance="10"
     inkscape:pageopacity="0"
     inkscape:pageshadow="2"
     inkscape:window-width="2560"
     inkscape:window-height="1413"
     id="namedview4"
     showgrid="false"
     fit-margin-top="0"
     fit-margin-left="0"
     fit-margin-right="0"
     fit-margin-bottom="0"
     inkscape:zoom="1.1654321"
     inkscape:cx="105.26484"
     inkscape:cy="195.36063"
     inkscape:window-x="0"
     inkscape:window-y="27"
     inkscape:window-maximized="0"
     inkscape:current-layer="svg2" />
  <path
     style="fill:#000000"
     d="m 450.00145,156.28599 c -0.43688,0.0949 -0.41635,0.36705 -0.26264,0.88657 0.77541,2.62086 2.09598,8.59169 3.05556,13.80959 1.75166,9.52488 6.69944,27.02445 9.49722,33.59322 1.46537,3.44048 2.91434,6.86349 3.21955,7.60624 0.71867,1.74896 1.83615,1.18482 6.10087,-3.07991 6.15301,-6.15301 8.9002,-12.90755 8.9002,-21.88473 0,-4.18318 -0.31956,-6.85054 -1.09411,-9.1513 -4.06134,-12.06393 -14.00835,-20.19952 -26.41234,-21.60287 -1.67349,-0.18934 -2.56743,-0.27172 -3.00431,-0.17681 z"
     id="path8729"
     inkscape:connector-curvature="0" />
  <path
     style="fill:#000000"
     d="m 49.99727,156.28599 c -0.436026,-0.0949 -1.328957,-0.0126 -3.003032,0.17681 -12.403985,1.40335 -22.352275,9.53894 -26.413618,21.60287 -1.503382,4.46578 -1.504963,13.82315 -0.0039,18.30133 2.046326,6.10462 5.726522,11.48779 10.278724,15.03438 1.452582,1.13168 2.851791,1.92847 3.109369,1.76928 0.257578,-0.1592 0.793085,-1.28261 1.190195,-2.4957 0.397109,-1.21308 1.634379,-4.19733 2.749363,-6.63255 2.282778,-4.98579 7.08253,-21.87557 8.987317,-31.62537 1.271813,-6.50983 2.745192,-13.18561 3.36432,-15.24448 0.15628,-0.5197 0.177231,-0.79168 -0.258795,-0.88657 z"
     id="path8727"
     inkscape:connector-curvature="0" />
  <path
     style="fill:#000000"
     d="m 302.54154,156.22322 0,3.5424 0,3.54112 6.98102,0 c 6.6763,0 7.04257,0.0648 8.3634,1.47077 1.11062,1.1822 2.10051,4.62301 5.05672,17.56338 3.25368,14.24252 3.58766,16.26232 2.89798,17.56851 -1.92595,3.6476 -13.77139,13.88901 -20.19872,17.46345 l -3.09912,1.72316 0,8.70802 c -3.4e-4,4.78927 0.13966,8.70803 0.31132,8.70803 1.10107,0 17.4028,-5.76062 23.18254,-8.19172 8.34667,-3.51081 21.90153,-7.49638 27.43086,-8.06616 2.19621,-0.22633 4.12575,-0.62479 4.28675,-0.88528 0.3275,-0.52992 -2.91032,-33.11841 -3.83963,-38.64611 -0.32752,-1.94818 -0.60074,-7.2614 -0.60599,-11.80715 -0.005,-4.54575 -0.17411,-9.26097 -0.37537,-10.47858 l -0.36642,-2.21384 -25.01203,0 -25.01331,0 z"
     id="path8725"
     inkscape:connector-curvature="0" />
  <g
     id="g8739"
     transform="matrix(0.65595248,0,0,0.65595248,0.84823967,107.67376)">
    <path
       id="path8737"
       d="m 407.73242,166.71289 0,23.40039 0,23.40039 23.39844,0 23.40039,0 0,-23.40039 0,-23.40039 -23.40039,0 -23.39844,0 z"
       style="fill:#000000"
       inkscape:connector-curvature="0" />
    <path
       id="path8735"
       d="m 305.13086,166.71289 0,23.40039 0,23.40039 23.40039,0 23.40039,0 0,-23.40039 0,-23.40039 -23.40039,0 -23.40039,0 z m 51.30078,0 0,23.40039 0,23.40039 23.40039,0 23.40039,0 0,-23.40039 0,-23.40039 -23.40039,0 -23.40039,0 z"
       style="fill:#000000"
       inkscape:connector-curvature="0" />
    <path
       id="path8733"
       d="m 407.73242,115.41406 0,23.39844 0,23.40039 23.39844,0 23.40039,0 0,-23.40039 0,-23.39844 -23.40039,0 -23.39844,0 z"
       style="fill:#000000"
       inkscape:connector-curvature="0" />
    <path
       id="path8731"
       d="m 305.13086,115.41406 0,23.39844 0,23.40039 23.40039,0 23.40039,0 0,-23.40039 0,-23.39844 -23.40039,0 -23.40039,0 z m 51.30078,0 0,23.39844 0,23.40039 23.40039,0 23.40039,0 0,-23.40039 0,-23.39844 -23.40039,0 -23.40039,0 z"
       style="fill:#000000"
       inkscape:connector-curvature="0" />
    <path
       id="path8723"
       d="m 407.73242,64.113281 0,23.400391 0,23.400388 23.39844,0 23.40039,0 0,-23.400388 0,-23.400391 -23.40039,0 -23.39844,0 z"
       style="fill:#000000"
       inkscape:connector-curvature="0" />
    <path
       id="path8721"
       d="m 305.13086,64.113281 0,23.400391 0,23.400388 23.40039,0 23.40039,0 0,-23.400388 0,-23.400391 -23.40039,0 -23.40039,0 z m 51.30078,0 0,23.400391 0,23.400388 23.40039,0 23.40039,0 0,-23.400388 0,-23.400391 -23.40039,0 -23.40039,0 z"
       style="fill:#000000"
       inkscape:connector-curvature="0" />
  </g>
  <path
     style="fill:#000000"
     d="m 111.32627,107.67504 c -3.7296,0.0776 -6.91916,2.82694 -8.6145,7.72154 -0.52347,1.51129 -1.21313,5.93652 -1.53227,9.83288 -0.31913,3.89636 -0.82827,8.67774 -1.13254,10.62592 -0.304264,1.94818 -0.717632,6.19901 -0.918596,9.44597 -0.200958,3.24696 -0.726002,7.76371 -1.165851,10.03659 -0.439842,2.27287 -1.207103,7.18657 -1.70522,10.92058 -2.264079,16.97233 -2.717152,19.88156 -6.200798,39.77865 -0.658235,3.75956 -1.512698,6.81157 -2.060104,7.35897 -1.185417,1.18542 -1.178904,1.00619 0.265202,-6.7453 2.7289,-14.64779 5.191464,-29.11669 5.567908,-32.71691 0.220682,-2.11052 1.429576,-11.94048 2.686585,-21.84372 3.095951,-24.39124 3.403481,-29.02173 2.062662,-31.06807 -2.151721,-3.28394 -3.935216,-4.37943 -6.499308,-3.99337 -2.888107,0.43485 -5.793609,2.13468 -7.326937,4.28804 -1.204158,1.69108 -6.180968,18.52419 -6.829849,23.09926 -0.207229,1.46113 -0.87754,5.31245 -1.488704,8.55942 -0.611151,3.24696 -1.400951,8.29554 -1.755185,11.21781 -1.132633,9.3438 -2.736089,17.97946 -6.576179,35.42143 -2.118738,9.62346 -4.100396,16.46684 -5.532039,19.10206 -1.252784,2.30599 -1.083961,0.95506 0.812254,-6.49419 2.542347,-9.98756 6.512837,-29.82443 7.722814,-38.58461 0.313932,-2.27288 0.817927,-5.46004 1.121016,-7.08352 1.280236,-6.85756 2.551406,-19.52049 2.33811,-23.29528 -0.255874,-4.52831 -1.194876,-6.10472 -4.460988,-7.48708 -1.64465,-0.69609 -2.221823,-0.67684 -4.2496,0.13452 -1.290567,0.51638 -2.987474,1.77773 -3.770445,2.80445 -3.756686,4.92619 -8.170412,16.91702 -10.141641,27.54744 -2.725239,14.69657 -7.454358,32.24443 -10.646416,39.50449 -1.114435,2.53467 -3.133414,7.63374 -4.486612,11.33183 -1.353199,3.69808 -3.740499,8.98189 -5.305272,11.74181 -2.805572,4.94841 -2.879055,5.21102 -5.256588,18.89194 -3.160502,18.18632 -4.212402,33.40814 -4.404619,63.75807 l -0.147333,23.31962 -2.212558,5.28862 c -1.2171,2.90884 -4.927443,10.08092 -8.245526,15.93887 -8.4690157,14.95176 -10.68607604,19.09756 -10.35815884,19.3711 0.15689074,0.13087 2.55844424,1.59722 5.33730164,3.25799 7.3309122,4.38124 18.7410572,8.68086 30.0738842,11.33439 8.653669,2.02622 10.630439,2.28654 17.710717,2.32786 4.383402,0.0256 11.384714,-0.27179 15.558373,-0.66107 6.581013,-0.61382 7.689698,-0.86908 8.349304,-1.92174 0.418314,-0.66759 3.344,-8.91844 6.501866,-18.33464 7.632965,-22.76015 6.853189,-21.06591 10.809126,-23.45799 1.844709,-1.11545 4.282858,-2.3824 5.419294,-2.81598 7.35691,-2.80687 17.52652,-9.14272 24.81345,-15.45973 2.36217,-2.04775 6.16755,-5.0578 8.45692,-6.68892 3.33917,-2.37906 4.98511,-4.16291 8.3224,-9.01678 2.28808,-3.32788 4.59398,-7.43864 5.12335,-9.13593 2.99257,-9.59509 6.30553,-17.93364 10.30819,-25.94216 3.98198,-7.96714 5.11371,-9.68018 9.66633,-14.63209 7.58823,-8.25377 13.28321,-15.9536 14.18625,-19.17892 0.73656,-2.63071 0.70834,-2.8141 -0.6457,-4.10739 -0.99066,-0.9462 -2.92978,-1.64462 -6.43653,-2.31762 -6.54106,-1.25531 -6.90266,-1.23795 -12.90126,0.61367 -4.35791,1.34519 -6.01652,2.27388 -11.34464,6.34686 -3.81269,2.91454 -8.26283,7.0667 -11.43818,10.67332 -7.42418,8.43256 -7.04294,8.12517 -6.58258,5.31424 0.21271,-1.29879 0.91176,-6.21377 1.55276,-10.92187 0.641,-4.70809 1.68234,-11.0837 2.31377,-14.16831 0.63142,-3.08462 1.97659,-14.77472 2.99022,-25.97674 1.01363,-11.20203 2.22093,-22.75725 2.68274,-25.67952 0.48929,-3.09603 1.00341,-12.61959 1.23248,-22.82125 0.55009,-24.49799 -0.44798,-30.48038 -5.67169,-34.00064 -2.77626,-1.87092 -4.45723,-2.19327 -7.18088,-1.37724 -3.40902,1.02137 -5.51773,4.2274 -6.33276,9.6279 -0.35637,2.36131 -1.58596,10.1382 -2.73271,17.28153 -1.14675,7.14332 -2.49062,17.2392 -2.9851,22.43434 -0.49447,5.19514 -1.53605,13.16497 -2.31504,17.71072 -0.77899,4.54575 -1.74307,11.4519 -2.14338,15.34826 -0.92213,8.97537 -1.63582,10.98342 -1.67831,4.72363 -0.0339,-4.99249 0.88487,-13.10467 2.80829,-24.79552 0.64104,-3.89636 1.46836,-9.74012 1.83846,-12.98709 1.15938,-10.17171 1.80468,-15.10693 3.00944,-23.02495 0.64225,-4.22106 1.59287,-12.31439 2.11391,-17.98617 1.55664,-16.94494 -0.0826,-23.6567 -6.46856,-26.48152 -1.32783,-0.58736 -2.63103,-0.85862 -3.87422,-0.83276 z m 277.34618,0 c -1.2432,-0.0259 -2.54639,0.2454 -3.87422,0.83276 -6.38599,2.82482 -8.0252,9.53658 -6.46856,26.48152 0.52104,5.67178 1.47294,13.76511 2.11519,17.98617 1.20476,7.91802 1.85006,12.85324 3.00944,23.02495 0.37009,3.24697 1.19743,9.09073 1.83846,12.98709 1.92342,11.69085 2.84221,19.80303 2.8083,24.79552 -0.0425,6.25979 -0.75619,4.25174 -1.67832,-4.72363 -0.40032,-3.89636 -1.36438,-10.80251 -2.14337,-15.34826 -0.77899,-4.54575 -1.82186,-12.51558 -2.31633,-17.71072 -0.49448,-5.19514 -1.83706,-15.29102 -2.98382,-22.43434 -1.14674,-7.14333 -2.37634,-14.92022 -2.73271,-17.28153 -0.81503,-5.4005 -2.92502,-8.60653 -6.33404,-9.6279 -2.72366,-0.81603 -4.40462,-0.49368 -7.18088,1.37724 -5.22371,3.52026 -6.22177,9.50265 -5.67169,34.00064 0.22907,10.20166 0.74447,19.72522 1.23375,22.82125 0.46182,2.92227 1.66911,14.47749 2.68274,25.67952 1.01363,11.20202 2.3588,22.89212 2.99023,25.97674 0.63143,3.08461 1.67276,9.46022 2.31377,14.16831 0.641,4.7081 1.34005,9.62308 1.55276,10.92187 0.46036,2.81093 0.8416,3.11832 -6.58259,-5.31424 -3.13811,-3.56433 -7.67019,-7.80229 -11.43817,-10.6951 -5.37475,-4.12638 -6.9495,-5.00637 -11.34464,-6.34557 -6.00459,-1.82961 -6.3708,-1.84671 -12.90254,-0.59318 -3.50675,0.673 -5.44459,1.37142 -6.43525,2.31762 -1.35404,1.29329 -1.38354,1.47668 -0.64698,4.10739 0.90304,3.22532 6.5993,10.92515 14.18753,19.17892 4.55262,4.95191 5.68435,6.66495 9.66633,14.63209 3.96832,7.9398 6.83772,15.14572 10.34663,25.98315 0.55683,1.7198 2.91596,5.89195 5.24249,9.27174 3.27426,4.75655 5.01875,6.68042 7.72154,8.51585 1.92048,1.30417 5.68252,4.25904 8.36083,6.56593 7.91516,6.81754 17.82352,13.03469 25.35154,15.90685 3.17302,1.21059 8.72599,4.72798 9.18333,5.81773 0.22488,0.53584 3.29243,9.45741 6.81704,19.82463 3.52462,10.36722 6.6907,19.13352 7.03483,19.48128 0.34414,0.34776 3.33752,0.92582 6.65306,1.28499 3.31553,0.35918 10.11036,0.69125 15.09843,0.73795 8.60748,0.0806 9.58433,-0.0326 19.18661,-2.23946 11.72064,-2.69368 22.92203,-6.87937 30.44927,-11.37795 2.77886,-1.66077 5.18169,-3.12712 5.33858,-3.25799 0.32791,-0.27354 -1.88914,-4.41934 -10.35816,-19.3711 -3.31809,-5.85795 -7.02842,-13.03003 -8.24553,-15.93887 l -2.21256,-5.28862 -0.14861,-23.31962 c -0.19222,-30.34993 -1.24284,-45.57175 -4.40334,-63.75807 -2.37752,-13.68092 -2.45101,-13.94353 -5.25659,-18.89194 -1.56477,-2.75992 -3.95207,-8.04373 -5.30527,-11.74181 -1.3532,-3.69809 -3.37218,-8.79716 -4.48661,-11.33183 -3.19206,-7.26006 -7.92118,-24.80792 -10.64642,-39.50449 -1.97123,-10.63042 -6.38623,-22.62125 -10.14292,-27.54744 -0.78297,-1.02672 -2.4786,-2.28807 -3.76916,-2.80445 -2.02778,-0.81136 -2.60495,-0.83061 -4.2496,-0.13452 -3.26612,1.38236 -4.20512,2.95877 -4.46099,7.48708 -0.2133,3.77479 1.05659,16.43772 2.33683,23.29528 0.30309,1.62348 0.80836,4.81064 1.12229,7.08352 1.20998,8.76018 5.18047,28.59705 7.72282,38.58461 1.89621,7.44925 2.06504,8.80018 0.81225,6.49419 -3.01479,-5.54932 -9.87107,-36.44912 -12.09796,-54.52349 -0.36005,-2.92227 -1.15429,-7.97085 -1.76544,-11.21781 -0.61117,-3.24697 -1.28148,-7.09829 -1.48871,-8.55942 -0.64888,-4.57507 -5.62697,-21.40818 -6.83112,-23.09926 -1.53333,-2.15336 -4.43756,-3.85319 -7.32566,-4.28804 -2.56409,-0.38606 -4.34887,0.70943 -6.50059,3.99337 -1.29501,1.97643 -1.01252,6.89993 1.52329,26.64038 0.95933,7.46803 2.26694,17.96214 2.90695,23.31963 1.05256,8.81105 2.28298,16.25638 5.89076,35.66869 1.44095,7.75328 1.44763,7.9303 0.26264,6.7453 -0.54741,-0.5474 -1.40187,-3.59941 -2.0601,-7.35897 -3.48365,-19.89709 -3.93673,-22.80632 -6.2008,-39.77865 -0.49812,-3.73401 -1.26666,-8.64771 -1.7065,-10.92058 -0.43985,-2.27288 -0.96361,-6.78963 -1.16458,-10.03659 -0.20096,-3.24696 -0.61432,-7.49779 -0.91859,-9.44597 -0.30426,-1.94818 -0.81469,-6.72956 -1.13382,-10.62592 -0.31914,-3.89636 -1.00751,-8.32159 -1.53098,-9.83288 -1.69535,-4.8946 -4.88619,-7.64394 -8.61579,-7.72154 z m -189.22819,38.29636 100.69126,0 -100.69126,0 z m -52.01242,10.25182 -0.36513,2.21384 c -0.20125,1.21761 -0.37141,5.93283 -0.37666,10.47858 -0.005,4.54575 -0.27719,9.85897 -0.60471,11.80715 -0.92932,5.5277 -4.16713,38.11619 -3.83963,38.64611 0.16101,0.26049 2.08925,0.65895 4.28547,0.88528 5.52848,0.56969 19.08466,4.55535 27.4283,8.06488 3.83202,1.61184 10.4871,4.10512 14.78968,5.541 4.30259,1.43589 8.0225,2.62041 8.26602,2.6315 0.24353,0.0111 0.44234,-3.89826 0.442,-8.68753 l 0,-8.70802 -3.09912,-1.72316 c -6.42733,-3.57444 -18.27277,-13.81585 -20.19872,-17.46345 -0.68968,-1.30619 -0.35698,-3.32599 2.8967,-17.56851 2.95621,-12.94037 3.94738,-16.38118 5.058,-17.56338 1.32083,-1.40593 1.68582,-1.47077 8.36212,-1.47077 l 6.9823,0 0,-3.54112 0,-3.5424 -25.01331,0 -25.01331,0 z"
     id="path4138"
     inkscape:connector-curvature="0" />
</svg>
