<?xml version="1.0" encoding="UTF-8" standalone="no"?>
<!-- Created with Inkscape (http://www.inkscape.org/) -->

<svg
   xmlns:dc="http://purl.org/dc/elements/1.1/"
   xmlns:cc="http://creativecommons.org/ns#"
   xmlns:rdf="http://www.w3.org/1999/02/22-rdf-syntax-ns#"
   xmlns:svg="http://www.w3.org/2000/svg"
   xmlns="http://www.w3.org/2000/svg"
   xmlns:sodipodi="http://sodipodi.sourceforge.net/DTD/sodipodi-0.dtd"
   xmlns:inkscape="http://www.inkscape.org/namespaces/inkscape"
   id="svg2"
   version="1.1"
   inkscape:version="0.91 r13725"
   width="500"
   height="500"
   viewBox="0 0 500 500"
   sodipodi:docname="A4b.svg">
  <metadata
     id="metadata8">
    <rdf:RDF>
      <cc:Work
         rdf:about="">
        <dc:format>image/svg+xml</dc:format>
        <dc:type
           rdf:resource="http://purl.org/dc/dcmitype/StillImage" />
        <dc:title></dc:title>
      </cc:Work>
    </rdf:RDF>
  </metadata>
  <defs
     id="defs6" />
  <sodipodi:namedview
     pagecolor="#ffffff"
     bordercolor="#666666"
     borderopacity="1"
     objecttolerance="10"
     gridtolerance="10"
     guidetolerance="10"
     inkscape:pageopacity="0"
     inkscape:pageshadow="2"
     inkscape:window-width="2560"
     inkscape:window-height="1413"
     id="namedview4"
     showgrid="false"
     fit-margin-top="0"
     fit-margin-left="0"
     fit-margin-right="0"
     fit-margin-bottom="0"
     inkscape:zoom="1.1654321"
     inkscape:cx="85.300839"
     inkscape:cy="398.4197"
     inkscape:window-x="0"
     inkscape:window-y="27"
     inkscape:window-maximized="0"
     inkscape:current-layer="svg2" />
  <path
     style="fill:#000000;stroke:#ffffff;stroke-width:3;stroke-miterlimit:4;stroke-dasharray:none;stroke-opacity:1"
     d="m 249.99932,271.50095 c -214.917636,0 -221.80319,0.0371 -225.195005,1.21612 -10.686786,3.71457 -18.4336956,11.63609 -22.016576,22.5122 -1.62303,4.92689 -1.62303,15.22646 0,20.15336 3.0654604,9.30546 9.1071,16.37048 17.69692,20.69368 3.134152,1.57739 6.952153,2.92685 9.409641,3.32666 2.566267,0.41755 21.873033,0.68138 50.891592,0.69553 42.470988,0.0208 47.542978,0.13656 55.343798,1.26125 10.13962,1.46193 21.53014,4.73665 31.74926,9.12792 8.74859,3.7594 20.2877,7.77525 28.75074,10.00545 11.8857,3.13204 30.45715,6.56345 42.23711,7.80454 5.18198,0.546 26.28775,-0.24021 32.44366,-1.20906 23.66795,-3.72484 43.35279,-9.09904 60.81064,-16.60093 10.21913,-4.39127 21.60962,-7.66599 31.74926,-9.12792 7.80079,-1.12469 12.87279,-1.2405 55.34379,-1.26125 29.01858,-0.0141 48.32531,-0.27797 50.89161,-0.69553 2.45748,-0.39981 6.2741,-1.74927 9.40824,-3.32666 8.58982,-4.3232 14.63282,-11.38822 17.69829,-20.69368 1.62302,-4.9269 1.62302,-15.22647 0,-20.15336 -3.58287,-10.87611 -11.32979,-18.79763 -22.01656,-22.5122 -3.39181,-1.17895 -10.27874,-1.21612 -225.19641,-1.21612 z m -71.66155,7.47585 71.66155,0 71.66295,0 1.4882,1.61961 c 1.19674,1.30185 2.26479,5.08943 5.4503,19.3393 3.50604,15.68382 3.86452,17.90942 3.12136,19.34779 -1.12258,2.17271 -9.85437,10.79141 -14.60869,14.41984 -5.42233,4.13822 -15.73015,9.88661 -22.34099,12.45881 -7.23484,2.81503 -19.41683,6.33858 -29.35129,8.48882 -10.86134,2.35081 -20.85981,2.28159 -31.96051,-0.2215 -28.87091,-6.51011 -44.92481,-14.23847 -59.36798,-28.58009 -2.73697,-2.71775 -5.3543,-5.67202 -5.81613,-6.56588 -0.74316,-1.43838 -0.38331,-3.66397 3.12273,-19.34779 3.18552,-14.24987 4.25216,-18.03745 5.44893,-19.3393 l 1.48957,-1.61961 z"
     id="path8070-4"
     inkscape:connector-curvature="0" />
  <g
     id="g4291"
     transform="translate(127.5,245)">
    <rect
       y="-150"
       x="45"
       height="155"
       width="155"
       id="rect4289"
       style="fill:#ffffff;fill-opacity:1;stroke:none;stroke-width:2.5;stroke-miterlimit:4;stroke-dasharray:none;stroke-opacity:1" />
    <rect
       y="-45"
       x="50"
       height="45"
       width="45"
       id="rect4142"
       style="fill:#000000;fill-opacity:1;stroke:none;stroke-width:2.5;stroke-miterlimit:4;stroke-dasharray:none;stroke-opacity:1" />
    <rect
       y="-45"
       x="100"
       height="45"
       width="45"
       id="rect4142-2"
       style="fill:#000000;fill-opacity:1;stroke:none;stroke-width:2.5;stroke-miterlimit:4;stroke-dasharray:none;stroke-opacity:1" />
    <rect
       y="-45"
       x="150"
       height="45"
       width="45"
       id="rect4142-2-4"
       style="fill:#000000;fill-opacity:1;stroke:none;stroke-width:2.5;stroke-miterlimit:4;stroke-dasharray:none;stroke-opacity:1" />
    <rect
       y="-95"
       x="50"
       height="45"
       width="45"
       id="rect4142-1"
       style="fill:#000000;fill-opacity:1;stroke:none;stroke-width:2.5;stroke-miterlimit:4;stroke-dasharray:none;stroke-opacity:1" />
    <rect
       y="-95"
       x="100"
       height="45"
       width="45"
       id="rect4142-2-0"
       style="fill:#000000;fill-opacity:1;stroke:none;stroke-width:2.5;stroke-miterlimit:4;stroke-dasharray:none;stroke-opacity:1" />
    <rect
       y="-95"
       x="150"
       height="45"
       width="45"
       id="rect4142-2-4-3"
       style="fill:#000000;fill-opacity:1;stroke:none;stroke-width:2.5;stroke-miterlimit:4;stroke-dasharray:none;stroke-opacity:1" />
    <rect
       y="-145"
       x="50"
       height="45"
       width="45"
       id="rect4142-1-0"
       style="fill:#000000;fill-opacity:1;stroke:none;stroke-width:2.5;stroke-miterlimit:4;stroke-dasharray:none;stroke-opacity:1" />
    <rect
       y="-145"
       x="100"
       height="45"
       width="45"
       id="rect4142-2-0-2"
       style="fill:#000000;fill-opacity:1;stroke:none;stroke-width:2.5;stroke-miterlimit:4;stroke-dasharray:none;stroke-opacity:1" />
    <rect
       y="-145"
       x="150"
       height="45"
       width="45"
       id="rect4142-2-4-3-8"
       style="fill:#000000;fill-opacity:1;stroke:none;stroke-width:2.5;stroke-miterlimit:4;stroke-dasharray:none;stroke-opacity:1" />
  </g>
  <path
     style="fill:#000000;stroke:#ffffff;stroke-width:2.99980998;stroke-miterlimit:4;stroke-dasharray:none;stroke-opacity:1"
     d="m 390.55768,216.50157 c -1.21467,-0.0256 -2.48864,0.24157 -3.78599,0.82351 -6.2394,2.79878 -7.84045,9.44968 -6.31953,26.23846 0.50906,5.61951 1.43898,13.63751 2.06648,17.81966 1.17712,7.84506 1.80681,12.73498 2.93958,22.81296 0.36159,3.21704 1.16945,9.0065 1.79576,12.86697 1.87929,11.5831 2.77642,19.62173 2.74323,24.56822 -0.0416,6.20212 -0.73658,4.21256 -1.63755,-4.68013 -0.39113,-3.86044 -1.33394,-10.70413 -2.09506,-15.20798 -0.76111,-4.50387 -1.77969,-12.39982 -2.26282,-17.54708 -0.48313,-5.14728 -1.79627,-15.14973 -2.91671,-22.22721 -1.12042,-7.0775 -2.32069,-14.78226 -2.66887,-17.12182 -0.79633,-5.35072 -2.8572,-8.52805 -6.18799,-9.54002 -2.66117,-0.80849 -4.30469,-0.48889 -7.01726,1.36479 -5.10383,3.48784 -6.0792,9.41462 -5.54174,33.68686 0.22382,10.10765 0.72676,19.54248 1.20482,22.60997 0.45121,2.89535 1.63083,14.34513 2.62122,25.44395 0.99037,11.09879 2.30547,22.6816 2.92242,25.73779 0.61695,3.05621 1.63463,9.37181 2.26092,14.03651 0.6263,4.6647 1.30772,9.53487 1.51555,10.8217 0.44979,2.78502 0.82372,3.09093 -6.4301,-5.26394 -3.0661,-3.53148 -7.49345,-7.72938 -11.17497,-10.59552 -5.25142,-4.08835 -6.79111,-4.96162 -11.0854,-6.28849 -5.86679,-1.81274 -6.22479,-1.82967 -12.60662,-0.58767 -3.4263,0.6668 -5.31919,1.35716 -6.28713,2.29463 -1.32296,1.28137 -1.35064,1.46471 -0.631,4.07118 0.88232,3.19561 6.44691,10.82502 13.86103,19.00274 4.44813,4.90628 5.55341,6.60287 9.444,14.4966 3.87726,7.86662 6.68096,15.006 10.10934,25.74359 0.54405,1.70392 2.8492,5.83762 5.12235,9.18627 3.19911,4.71271 4.90263,6.61962 7.5434,8.43814 1.8764,1.29215 5.55373,4.21934 8.17057,6.50499 7.73353,6.75472 17.41386,12.91326 24.7691,15.75894 3.10022,1.19943 8.5263,4.68684 8.97316,5.76654 0.21972,0.5309 3.21702,9.36902 6.66076,19.64069 3.44373,10.27168 6.53614,18.9578 6.87237,19.30236 0.33624,0.34456 3.26118,0.91808 6.50062,1.27394 3.23947,0.35587 9.87769,0.6844 14.75127,0.73072 8.40997,0.0799 9.36507,-0.0328 18.747,-2.21922 11.45168,-2.66886 22.39587,-6.81696 29.75036,-11.27408 2.7151,-1.64544 5.06247,-3.09868 5.21576,-3.22834 0.32039,-0.27102 -1.84418,-4.3782 -10.11888,-19.19217 -3.24191,-5.80398 -6.86892,-12.90976 -8.05809,-15.79179 l -2.16181,-5.24075 -0.14296,-23.1029 c -0.1878,-30.07027 -1.21656,-45.15233 -4.30452,-63.17107 -2.32297,-13.55484 -2.39449,-13.81576 -5.13569,-18.71858 -1.52886,-2.73447 -3.8612,-7.96959 -5.18335,-11.63359 -1.32214,-3.66401 -3.29382,-8.71635 -4.38267,-11.22767 -3.11881,-7.19316 -7.74022,-24.57909 -10.4029,-39.14022 -1.92601,-10.53246 -6.23872,-22.41124 -9.90918,-27.29203 -0.765,-1.01726 -2.4221,-2.26824 -3.68305,-2.77987 -1.98125,-0.80387 -2.54702,-0.82305 -4.15393,-0.13338 -3.19115,1.36964 -4.1079,2.93088 -4.3579,7.41745 -0.20841,3.74001 1.03295,16.2873 2.28379,23.08166 0.29616,1.60854 0.78943,4.76729 1.09616,7.01922 1.18222,8.67946 5.0613,28.33225 7.5453,38.22777 1.85272,7.38063 2.01897,8.72017 0.79495,6.43543 -2.94561,-5.4982 -9.64545,-36.11564 -11.82123,-54.02346 -0.3518,-2.89533 -1.12813,-7.89655 -1.72525,-11.1136 -0.59713,-3.21704 -1.25206,-7.033 -1.45452,-8.48065 -0.634,-4.53293 -5.49569,-21.20899 -6.67221,-22.88449 -1.49815,-2.13352 -4.33648,-3.8182 -7.15832,-4.24904 -2.50524,-0.3825 -4.24959,0.70347 -6.35193,3.95713 -1.26529,1.95823 -0.99067,6.83456 1.48694,26.39312 0.93732,7.39919 2.21704,17.79673 2.84236,23.10485 1.0284,8.72986 2.22836,16.10622 5.75335,35.33968 1.40789,7.68181 1.41514,7.85692 0.25734,6.68285 -0.53484,-0.54235 -1.36997,-3.56493 -2.01309,-7.28986 -3.40371,-19.71373 -3.84622,-22.59685 -6.05836,-39.41278 -0.48668,-3.6996 -1.23639,-8.56785 -1.66614,-10.81978 -0.42974,-2.25193 -0.94171,-6.72701 -1.13808,-9.94405 -0.19634,-3.21704 -0.6006,-7.4281 -0.89788,-9.35834 -0.29729,-1.93022 -0.79578,-6.66933 -1.10759,-10.52976 -0.31182,-3.86047 -0.98504,-8.24373 -1.49648,-9.74111 -1.65645,-4.84949 -4.77251,-7.57254 -8.41651,-7.6494 z m 66.40362,36.74121 c 0.0648,-0.0263 0.13992,0 0.2097,0 -0.0698,0 -0.14489,-0.0263 -0.2097,0 z"
     id="path8122-4"
     inkscape:connector-curvature="0" />
  <path
     style="fill:#000000;stroke:#ffffff;stroke-width:2.99988914;stroke-miterlimit:4;stroke-dasharray:none;stroke-opacity:1"
     d="m 110.8522,161.5266 c 0.814,0.0846 1.84303,0.30091 3.21157,0.58995 7.28472,1.53844 11.15202,6.26659 11.89016,14.54114 0.20105,2.25374 0.49756,4.30853 0.6586,4.5651 0.51485,0.82036 -1.75576,9.45426 -3.71744,14.13876 -3.16813,7.56557 -6.98839,13.84552 -11.36051,18.66869 -3.97042,4.38008 -4.28211,4.96658 -6.90122,13.04483 -3.19103,9.84224 -6.588375,17.34109 -9.495875,20.95614 -1.78219,2.21587 -2.25164,3.64637 -3.49922,10.67536 -0.79233,4.46416 -1.78434,8.7512 -2.20584,9.52676 -0.42151,0.77555 -1.33018,4.70807 -2.01937,8.73953 -1.46215,8.55297 -1.40422,7.88199 -0.67843,7.88199 0.31596,0 1.02029,-1.78952 1.56711,-3.97713 3.08188,-12.32948 3.93746,-16.06018 5.06829,-22.1145 1.03705,-5.55232 1.65709,-7.27474 3.67179,-10.18309 3.165245,-4.56931 7.198415,-13.93558 9.541505,-22.16531 1.76994,-6.21656 2.06108,-6.75268 5.33609,-9.80803 1.90526,-1.77749 4.34605,-4.4036 5.42536,-5.83483 1.07932,-1.43123 1.75594,-2.02835 1.50163,-1.32832 -0.2543,0.70003 -0.88503,3.05794 -1.40047,5.24099 -0.51546,2.18305 -2.26771,7.62437 -3.89395,12.09157 -1.62628,4.46721 -3.20144,9.84109 -3.49921,11.94119 -1.04927,7.4004 -5.62321,21.51638 -10.311165,31.819 -4.42005,9.71386 -4.20798,8.64104 -4.13992,21.00106 0.0346,6.30025 0.33469,17.0395 0.66848,23.86477 0.65794,13.45411 0.44456,15.1235 -3.27307,25.45482 -1.631,4.53251 -2.81305,11.56303 -1.76548,10.5015 0.92005,-0.93233 6.54301,-16.65044 7.28605,-20.36619 0.90858,-4.54335 0.92882,-24.10396 0.0298,-28.59396 -0.41586,-2.07685 -0.75577,-7.55634 -0.75577,-12.17557 0,-7.46022 0.1855,-8.88645 1.66032,-12.76941 2.245575,-5.91231 5.220325,-8.90651 9.410585,-9.47402 4.7749,-0.64672 10.31042,2.10181 14.70499,7.30183 4.01594,4.75198 5.30069,7.14742 7.18687,13.39255 1.21981,4.03881 1.43814,6.24084 1.41437,14.31846 -0.0154,5.2502 -0.1647,10.97832 -0.33126,12.72839 -0.3878,4.07454 1.5889,15.59718 4.42359,25.78496 l 2.21576,7.96792 -0.93034,8.26682 c -0.73757,6.54418 -1.45694,9.66052 -3.4516,14.95527 -4.75283,12.61643 -7.86546,17.30478 -15.48658,23.32367 -12.15991,9.60346 -12.83353,10.38534 -17.93643,20.8858 -5.402175,11.11635 -10.542635,24.42263 -18.686235,48.36438 l -5.84393,17.1802 -8.72422,2.98675 -8.72422,2.98871 -11.4736,0.037 -11.47359,0.0371 -8.78375,-3.1821 -8.78372,-3.18404 -8.3393804,-7.04984 c -4.58651,-3.8782 -8.33938,-7.16027 -8.33938,-7.29206 0,-0.13182 4.63134,-9.63083 10.2913104,-21.1085 5.65996,-11.47767 11.76336,-24.85486 13.56241,-29.72888 1.79906,-4.87402 3.98838,-9.88711 4.86599,-11.13831 3.51779,-5.01543 6.9476,-13.56902 9.16062,-22.84705 1.6061,-6.73362 2.16587,-11.13821 2.71765,-19.1375 0.0118,-0.007 0.0351,-0.006 0.0398,-0.0195 0.0487,-0.14423 0.0113,-0.3013 0,-0.45517 0.0286,-0.42535 0.0646,-0.67433 0.0933,-1.12516 0.0508,-0.0776 0.103,-0.15372 0.12297,-0.24221 0.0395,-0.17452 0,-0.3584 0,-0.53717 l 0,-0.6876 c 0.013,-0.21567 0.0286,-0.27662 0.0417,-0.49814 0.96546,-16.37248 0.58779,-22.16774 -2.75929,-42.38302 -3.34376,-20.195 -3.47904,-26.7052 -0.67446,-32.53788 1.05508,-2.1942 5.57652,-13.07683 10.04733,-24.18315 7.24615,-18.00071 9.16066,-22.04633 17.63094,-37.24949 9.13074,-16.38872 9.90672,-17.54564 19.84274,-29.62729 5.687,-6.91511 11.68555,-14.86968 13.33032,-17.67637 2.690765,-4.59161 3.031855,-4.94322 3.396065,-3.51419 0.33734,1.32355 0.91533,1.6614 3.47145,2.02765 6.55103,0.9386 8.16808,2.96052 8.92259,11.15978 0.42181,4.58424 0.34676,4.94201 -2.30306,11.08559 -4.31433,10.00271 -5.37922,11.72564 -10.86858,17.58651 -2.839405,3.03153 -5.318445,6.03901 -5.508675,6.6826 -4.32779,14.64154 -7.6045,22.66966 -12.27103,30.06682 -3.05482,4.84229 -3.4989,5.9879 -3.87612,9.99557 -0.45908,4.87736 -4.4629,22.03287 -5.97285,25.59156 -0.50738,1.19581 -0.92243,2.69425 -0.92243,3.3286 0,0.63435 1.79924,3.38079 3.99712,6.10439 4.59733,5.69697 7.64867,12.83985 9.47803,22.17897 1.03697,5.29391 1.18641,5.61309 1.96186,4.22717 1.0081,-1.80177 0.6324,-3.61623 -3.28498,-15.85775 -2.48727,-7.77252 -3.00701,-8.79926 -6.47473,-12.82606 l -3.769,-4.37757 1.36476,-3.40284 c 2.0724,-5.16831 5.75844,-21.39984 5.76657,-25.39623 0.007,-3.28469 0.29309,-3.95021 3.9614,-9.22787 4.12442,-5.93385 7.9331,-14.703 10.90033,-25.09736 1.42235,-4.98255 1.93892,-5.85643 6.538215,-11.06019 4.28348,-4.84642 5.60899,-6.96916 9.33321,-14.93964 l 4.34225,-9.29039 -0.121,-5.42462 c -0.0985,-4.45347 -0.39927,-5.89408 -1.68415,-8.05584 -1.91906,-3.22877 -5.34775,-5.32302 -8.71826,-5.32302 -4.06884,0 -4.40819,-1.55709 -1.51951,-6.98734 1.94915,-3.664 2.45768,-4.5903 4.89972,-4.33656 z"
     id="path4138-4-9"
     inkscape:connector-curvature="0" />
</svg>
