<?xml version="1.0" encoding="UTF-8" standalone="no"?>
<!-- Created with Inkscape (http://www.inkscape.org/) -->

<svg
   xmlns:dc="http://purl.org/dc/elements/1.1/"
   xmlns:cc="http://creativecommons.org/ns#"
   xmlns:rdf="http://www.w3.org/1999/02/22-rdf-syntax-ns#"
   xmlns:svg="http://www.w3.org/2000/svg"
   xmlns="http://www.w3.org/2000/svg"
   xmlns:sodipodi="http://sodipodi.sourceforge.net/DTD/sodipodi-0.dtd"
   xmlns:inkscape="http://www.inkscape.org/namespaces/inkscape"
   id="svg2"
   version="1.1"
   inkscape:version="0.91 r13725"
   width="751.67914"
   height="540.67413"
   viewBox="0 0 751.67914 540.67413"
   sodipodi:docname="A3b.svg">
  <metadata
     id="metadata8">
    <rdf:RDF>
      <cc:Work
         rdf:about="">
        <dc:format>image/svg+xml</dc:format>
        <dc:type
           rdf:resource="http://purl.org/dc/dcmitype/StillImage" />
        <dc:title></dc:title>
      </cc:Work>
    </rdf:RDF>
  </metadata>
  <defs
     id="defs6" />
  <sodipodi:namedview
     pagecolor="#ffffff"
     bordercolor="#666666"
     borderopacity="1"
     objecttolerance="10"
     gridtolerance="10"
     guidetolerance="10"
     inkscape:pageopacity="0"
     inkscape:pageshadow="2"
     inkscape:window-width="2120"
     inkscape:window-height="1409"
     id="namedview4"
     showgrid="false"
     fit-margin-top="0"
     fit-margin-left="0"
     fit-margin-right="0"
     fit-margin-bottom="0"
     inkscape:zoom="1.1654321"
     inkscape:cx="144.66701"
     inkscape:cy="175.74165"
     inkscape:window-x="0"
     inkscape:window-y="27"
     inkscape:window-maximized="0"
     inkscape:current-layer="svg2" />
  <path
     style="fill:#000000"
     d="m 650.84152,539.55231 c -4.3582,-0.63276 -8.0444,-1.29714 -8.1916,-1.4764 -0.1471,-0.17925 -3.1132,-5.59091 -6.5913,-12.02591 -5.4822,-10.14282 -6.9458,-13.91598 -10.9971,-28.35 -2.5703,-9.1575 -7.2538,-25.7625 -10.4077,-36.9 -3.154,-11.1375 -8.6363,-30.78 -12.183,-43.65 -6.571,-23.84463 -14.7198,-50.34715 -18.0047,-58.55721 -2.0729,-5.1808 -4.3579,-6.79208 -18.8505,-13.29227 -10.0003,-4.4853 -22.0266,-12.36559 -32.0593,-21.00704 -3.924,-3.37989 -9.2323,-7.49132 -11.7961,-9.13651 -3.5691,-2.29029 -6.1042,-5.13737 -10.8177,-12.14912 -3.3859,-5.03682 -6.8022,-11.18285 -7.5919,-13.65785 -4.9147,-15.40425 -9.8243,-27.60771 -15.3886,-38.25 -5.2819,-10.10238 -7.7379,-13.66676 -14.5732,-21.15 -10.9908,-12.03262 -16.5559,-19.48611 -18.6353,-24.95862 -1.7171,-4.51897 -1.7166,-4.54165 0.1381,-6.51581 1.3862,-1.47563 4.1699,-2.40467 10.9109,-3.64153 l 9.0499,-1.66048 7.8066,2.51068 c 11.655,3.7484 22.5337,12.33139 38.2976,30.21576 l 4.3631,4.95 -0.5859,-4.5 c -0.3223,-2.475 -1.19,-9.1575 -1.9282,-14.85 -0.7382,-5.6925 -2.1252,-14.1975 -3.0823,-18.9 -0.957,-4.7025 -2.7841,-20.0925 -4.0601,-34.2 -1.2759,-14.1075 -3.0823,-31.5225 -4.014,-38.7 -1.0053,-7.74335 -1.9265,-22.1994 -2.2655,-35.55 -0.8472,-33.36439 1.0928,-43.35503 9.3161,-47.97681 5.9094,-3.32125 11.7688,-2.19214 15.2745,2.94343 1.5593,2.28427 2.5478,5.97375 3.7943,14.16123 0.9271,6.08968 1.8858,11.88865 2.1306,12.88661 1.0385,4.23443 4.9825,33.27566 5.926,43.63554 0.5635,6.1875 1.6116,14.05657 2.3291,17.48683 0.9968,4.7651 4.5397,32.04755 4.917,37.86317 0.032,0.495 0.3671,0.09 0.7445,-0.9 1.0202,-2.67636 -0.5678,-22.95043 -2.6401,-33.70555 -0.9967,-5.17306 -2.2303,-13.07056 -2.7413,-17.55 -0.511,-4.47946 -1.3079,-11.18195 -1.7709,-14.89445 -0.4629,-3.7125 -1.2348,-10.1925 -1.7154,-14.4 -0.4805,-4.2075 -1.4648,-10.89 -2.1873,-14.85 -0.7224,-3.96 -1.9465,-13.88887 -2.7202,-22.06415 -1.2275,-12.97239 -1.2461,-15.85548 -0.1456,-22.65344 1.4756,-9.11572 3.6222,-12.64663 9.3251,-15.33877 7.9633,-3.75927 15.0036,0.43398 18.2217,10.85312 0.9756,3.15856 1.7634,7.01643 1.7506,8.57304 -0.037,4.48951 3.6159,38.95475 5.0213,47.3802 0.7019,4.2075 2.329,15.5475 3.6159,25.2 3.0826,23.12247 8.9951,56.66912 10.2001,57.87409 1.7552,1.7552 1.752,0.23628 -0.019,-9.27615 -6.5909,-35.39566 -6.3708,-33.96564 -11.2224,-72.89794 -6.125,-49.15087 -6.0766,-47.37882 -1.4296,-52.36061 3.3397,-3.58034 3.5687,-3.67203 7.6457,-3.06065 4.5588,0.68364 8.9125,3.7276 10.8749,7.60346 2.1366,4.21967 7.7709,24.93635 9.6244,35.38708 0.993,5.59939 2.5628,15.64822 3.4885,22.33072 2.105,15.19671 4.1347,26.91539 6.3814,36.84391 0.9591,4.23835 2.5991,11.55359 3.6443,16.25609 4.0299,18.12982 7.5164,29.58155 8.6585,28.43941 0.2084,-0.20842 -0.8304,-5.3763 -2.3084,-11.48418 -9.7565,-40.31789 -17.8436,-93.57417 -15.5199,-102.20391 2.1587,-8.01672 11.62,-9.44662 17.301,-2.61473 5.7244,6.88403 13.1476,27.66145 15.6355,43.76341 2.1321,13.79862 10.3582,43.75707 14.4424,52.59661 1.7425,3.77145 4.6087,10.9956 6.3693,16.05369 1.7606,5.05807 4.7756,11.8925 6.7001,15.18761 4.9091,8.40563 5.0128,8.76667 8.592,29.92575 4.4361,26.22556 6.5915,58.85828 6.1283,92.78634 -0.1893,13.86 -0.7803,27.4275 -1.3135,30.15 -1.6719,8.53705 -0.295,18.88484 3.6392,27.34975 1.8662,4.01513 9.2597,20.05775 16.4302,35.65025 7.1704,15.5925 19.0074,41.31 26.3044,57.15 7.2969,15.84 15.5925,33.90324 18.4346,40.14053 l 5.1675,11.34054 -7.9516,8.56963 c -6.9483,7.48836 -9.2218,9.27232 -18.0187,14.13871 -8.707,4.81662 -11.8423,6.00139 -23.2051,8.76882 -8.1969,1.99638 -18.0458,3.65433 -26.1879,4.40844 -15.3359,1.42041 -15.2459,1.42063 -25.4741,-0.0644 z M 37.13602,527.48826 C 25.82993,523.2853 25.57996,523.13065 13.9999,513.17495 L 2.29336,503.11051 9.7997,487.58025 C 13.92819,479.03861 20.52368,465.3675 24.45634,457.2 c 3.93266,-8.1675 8.90219,-19.84666 11.04339,-25.95368 2.14121,-6.10702 4.90736,-12.58702 6.14701,-14.4 4.90708,-7.17659 10.20467,-20.4011 13.20443,-32.96252 2.49483,-10.44705 3.20554,-15.80711 4.10608,-30.96732 1.3205,-22.2302 0.86621,-29.45403 -3.60131,-57.26648 -1.90829,-11.88 -3.70782,-25.97255 -3.99897,-31.31678 -0.49045,-9.00271 -0.37285,-10.02787 1.60031,-13.95 1.17132,-2.32827 7.42199,-17.59822 13.89039,-33.93322 10.64081,-26.87183 13.03213,-32.01396 25.11245,-54 12.81223,-23.31809 13.95086,-25.04575 28.17861,-42.7557 8.15478,-10.15064 16.20942,-20.96731 17.89921,-24.03706 2.82004,-5.12303 4.57766,-6.45117 4.57766,-3.45909 0,1.26351 2.68803,2.26919 6.11969,2.28956 3.44744,0.0204 7.45048,2.66041 8.74994,5.77045 0.6753,1.61624 1.49393,5.94309 1.81917,9.61522 0.58871,6.64701 0.56915,6.72788 -4.41026,18.23698 -4.94914,11.43911 -7.26577,14.94475 -16.38485,24.79444 -4.07933,4.40617 -4.95334,6.04367 -6.71959,12.58947 -3.2715,12.12434 -9.42782,26.77076 -14.84312,35.31305 -4.66177,7.35364 -5.09578,8.4999 -5.82876,15.39397 -0.85035,7.99812 -5.12292,26.74084 -7.98457,35.02637 l -1.75373,5.07768 5.8085,7.34566 c 6.47406,8.18736 10.02199,16.38842 13.05463,30.1758 0.9771,4.44224 1.92293,8.22318 2.10183,8.40208 0.17891,0.1789 0.78196,-0.52803 1.34012,-1.57097 0.80351,-1.50137 0.55278,-3.62585 -1.20404,-10.20207 -3.88959,-14.55975 -7.60144,-23.60719 -11.60227,-28.27988 -2.03717,-2.37928 -4.27362,-5.00839 -4.96988,-5.84246 -1.09707,-1.31425 -1.02492,-2.16062 0.541,-6.34592 2.71389,-7.25351 8.26619,-32.04043 8.26619,-36.90242 0,-3.75369 0.63127,-5.15583 5.26752,-11.69998 5.53582,-7.8139 9.94325,-18.12978 14.45915,-33.84253 2.2649,-7.88058 2.84866,-8.90394 9.31677,-16.33291 5.87327,-6.74576 7.77547,-9.82963 12.77851,-20.71678 5.78204,-12.58231 5.87805,-12.91695 5.87805,-20.48802 0,-6.61753 -0.32041,-8.24354 -2.285,-11.59586 -2.65826,-4.53598 -6.43352,-6.87745 -12.10719,-7.50908 -5.29022,-0.58895 -5.56125,-2.18483 -1.69727,-9.99394 l 3.0045,-6.0721 4.51748,0.49162 c 13.00563,1.41535 19.02797,8.41766 19.94809,23.19411 0.56158,9.01864 -0.39738,13.94533 -4.81832,24.75421 -4.44631,10.87094 -9.67116,19.45018 -15.63703,25.6761 -4.75293,4.9601 -5.41162,6.16981 -8.08589,14.85 -4.02016,13.0487 -9.40543,25.6138 -13.50055,31.5 -3.01082,4.32764 -3.66775,6.2513 -5.225,15.3 -0.97966,5.6925 -2.46109,12.1725 -3.29208,14.4 -0.83099,2.2275 -1.66536,5.1847 -1.85416,6.57156 -0.87741,6.44521 -2.0819,12.93189 -2.68804,14.47624 -0.48724,1.2414 -0.3254,1.58532 0.60204,1.27939 0.69763,-0.23012 1.95394,-3.01914 2.79179,-6.19781 3.17538,-12.04673 5.47762,-22.28214 6.96913,-30.9837 1.28789,-7.51361 2.07457,-9.7486 4.75183,-13.5 3.76643,-5.27758 9.19232,-17.92408 13.14249,-30.63213 2.56277,-8.24468 3.26469,-9.5064 8.01102,-14.4 2.86119,-2.94995 6.08287,-6.57855 7.15931,-8.06355 l 1.95715,-2.7 -1.33989,5.4 c -1.84293,7.42739 -6.99938,23.38363 -9.25845,28.64962 -1.02628,2.39228 -1.86556,5.83478 -1.86506,7.65 0.002,5.80526 -5.45092,23.51725 -12.37538,40.20038 -8.1721,19.68908 -8.60952,22.35268 -7.16828,43.65 0.58621,8.6625 1.05312,22.23 1.03759,30.15 -0.026,13.25367 -0.22683,15.00899 -2.5227,22.05 -4.29982,13.18667 -5.12898,16.5565 -4.87185,19.8 0.20879,2.6337 0.89886,1.23235 4.21029,-8.55 2.17833,-6.435 4.25154,-12.105 4.60715,-12.6 2.36971,-3.29857 3.31906,-25.96367 1.67754,-40.05 -0.49031,-4.2075 -1.11725,-13.0345 -1.39319,-19.61557 -0.45446,-10.83859 -0.3061,-12.57628 1.57517,-18.45 2.75219,-8.59286 7.5951,-13.95065 13.62894,-15.07789 3.68027,-0.68755 4.90699,-0.46431 9.87312,1.79675 9.20113,4.18923 15.94133,13.10542 20.1771,26.69104 2.36736,7.59294 2.40228,8.06003 1.89941,25.40809 -0.59075,20.37986 0.67049,30.70987 5.99444,49.09673 1.70388,5.88454 2.94838,11.14954 2.76555,11.7 -0.18283,0.55047 -0.76206,5.65835 -1.28716,11.35085 -0.85013,9.21573 -1.4999,11.74669 -5.92905,23.09449 -2.73587,7.00948 -6.27374,14.51329 -7.86194,16.67516 -1.58821,2.16185 -3.29265,4.58814 -3.78765,5.39175 -0.495,0.8036 -5.76,5.47361 -11.7,10.3778 -5.94,4.90418 -11.94189,10.10788 -13.33753,11.56375 -5.77456,6.0238 -20.75165,42.80784 -34.92378,85.77357 -5.82831,17.6697 -6.91335,20.23479 -8.88869,21.01345 -1.2375,0.48782 -6.75315,2.46713 -12.257,4.39848 l -10.007,3.51155 -16.093,-0.0814 -16.093,-0.0814 -11.42958,-4.24888 z m 298.5296,-174.33115 c -16.6659,-1.7182 -42.9406,-6.4693 -59.7562,-10.80537 -11.9627,-3.08471 -28.29581,-8.64542 -40.64149,-13.83666 -11.61044,-4.88207 -32.82495,-11.22344 -40.56819,-12.12652 l -5.06585,-0.59081 -1.43786,-10.07387 c -1.00963,-7.07366 -1.39099,-15.70271 -1.28048,-28.97388 0.15385,-18.47571 0.10091,-19.07174 -2.35838,-26.55 -1.38366,-4.2075 -2.88156,-8.03475 -3.32867,-8.505 -0.44709,-0.47025 -0.8129,-1.58232 -0.8129,-2.47127 0,-0.88895 -2.67825,-4.5542 -5.95168,-8.145 -4.48346,-4.91818 -7.4252,-7.23173 -11.925,-9.37851 l -5.97332,-2.84978 150.37442,-0.0752 150.3743,-0.0752 2.7347,3.375 c 1.504,1.85625 6.128,7.04858 10.2756,11.53852 6.5924,7.13667 8.3763,9.84652 14.1815,21.54338 3.662,7.37835 8.8248,19.81442 11.51,27.72519 4.7776,14.07464 6.4878,17.37188 14.3961,27.75618 l 3.8751,5.08827 -5.6108,0.61752 c -8.0863,0.88994 -29.0292,7.08981 -41.1133,12.17102 -24.6627,10.37045 -52.5303,17.81287 -85.9976,22.96691 -8.7092,1.34125 -38.5687,2.43096 -45.9,1.67512 z m 37.5671,-18.89382 c 14.055,-2.97677 31.2903,-7.85408 41.5259,-11.7512 9.3528,-3.56098 23.9356,-11.51871 31.607,-17.24768 6.7263,-5.02321 19.0806,-16.95651 20.6688,-19.96441 1.0514,-1.9913 0.5436,-5.07094 -4.4166,-26.78366 -4.5068,-19.72761 -6.0172,-24.97273 -7.7104,-26.775 l -2.1056,-2.24134 -101.3862,0 -101.38626,0 -2.10563,2.24134 c -1.69314,1.80227 -3.20356,7.04739 -7.71031,26.775 -4.96023,21.71272 -5.46806,24.79236 -4.41666,26.78366 0.65341,1.2375 4.3562,5.32838 8.22843,9.09083 20.43383,19.85461 43.14463,30.55307 83.99043,39.56569 15.7049,3.46529 29.8508,3.56126 45.2171,0.30677 z M 39.1156,313.07356 C 31.58389,311.83195 20.12801,305.74525 14.03879,299.74985 4.25882,290.12054 0,279.86698 0,265.95 c 0,-13.61884 4.19178,-23.98705 13.43449,-33.22976 9.58691,-9.58692 18.50193,-13.10765 34.90611,-13.7852 6.31125,-0.26067 11.475,-0.2456 11.475,0.0335 0,1.25846 -8.39699,23.25662 -10.81146,28.32349 -2.49413,5.23406 -2.68755,6.37294 -2.67487,15.75 0.0102,7.49736 0.90293,15.39608 3.45677,30.58296 l 3.44308,20.475 -4.58176,-0.10521 c -2.51997,-0.0578 -6.80926,-0.47239 -9.53176,-0.9212 z m 648.90002,-28.96725 c 0,-8.57653 -0.3839,-19.81528 -0.8531,-24.975 -0.4691,-5.15973 -1.0804,-13.95383 -1.3583,-19.54244 -0.4813,-9.67933 -0.4265,-10.11897 1.1562,-9.27194 2.1712,1.16202 7.3555,7.57424 10.2543,12.68307 4.1856,7.37698 5.6165,13.22365 5.6165,22.95 0,9.73356 -1.4344,15.5883 -5.6228,22.95 -2.7727,4.87351 -7.4061,10.8 -8.4434,10.8 -0.4122,0 -0.7494,-7.01717 -0.7494,-15.59369 z M 276.71562,126 l 0,-23.4 23.4,0 23.4,0 0,23.4 0,23.4 -23.4,0 -23.4,0 0,-23.4 z m 51.3,0 0,-23.4 23.4,0 23.4,0 0,23.4 0,23.4 -23.4,0 -23.4,0 0,-23.4 z m 51.3,0 0,-23.4 23.4,0 23.4,0 0,23.4 0,23.4 -23.4,0 -23.4,0 0,-23.4 z m -102.6,-51.3 0,-23.4 23.4,0 23.4,0 0,23.4 0,23.4 -23.4,0 -23.4,0 0,-23.4 z m 51.3,0 0,-23.4 23.4,0 23.4,0 0,23.4 0,23.4 -23.4,0 -23.4,0 0,-23.4 z m 51.3,0 0,-23.4 23.4,0 23.4,0 0,23.4 0,23.4 -23.4,0 -23.4,0 0,-23.4 z m -102.6,-51.3 0,-23.4 23.4,0 23.4,0 0,23.4 0,23.4 -23.4,0 -23.4,0 0,-23.4 z m 51.3,0 0,-23.4 23.4,0 23.4,0 0,23.4 0,23.4 -23.4,0 -23.4,0 0,-23.4 z m 51.3,0 0,-23.4 23.4,0 23.4,0 0,23.4 0,23.4 -23.4,0 -23.4,0 0,-23.4 z"
     id="path4140"
     inkscape:connector-curvature="0" />
</svg>
