<?xml version="1.0" encoding="UTF-8" standalone="no"?>
<!-- Created with Inkscape (http://www.inkscape.org/) -->

<svg
   xmlns:dc="http://purl.org/dc/elements/1.1/"
   xmlns:cc="http://creativecommons.org/ns#"
   xmlns:rdf="http://www.w3.org/1999/02/22-rdf-syntax-ns#"
   xmlns:svg="http://www.w3.org/2000/svg"
   xmlns="http://www.w3.org/2000/svg"
   xmlns:sodipodi="http://sodipodi.sourceforge.net/DTD/sodipodi-0.dtd"
   xmlns:inkscape="http://www.inkscape.org/namespaces/inkscape"
   id="svg2"
   version="1.1"
   inkscape:version="0.91 r13725"
   width="500"
   height="500"
   viewBox="0 0 500 500"
   sodipodi:docname="A4b.svg">
  <metadata
     id="metadata8">
    <rdf:RDF>
      <cc:Work
         rdf:about="">
        <dc:format>image/svg+xml</dc:format>
        <dc:type
           rdf:resource="http://purl.org/dc/dcmitype/StillImage" />
        <dc:title></dc:title>
      </cc:Work>
    </rdf:RDF>
  </metadata>
  <defs
     id="defs6" />
  <sodipodi:namedview
     pagecolor="#ffffff"
     bordercolor="#666666"
     borderopacity="1"
     objecttolerance="10"
     gridtolerance="10"
     guidetolerance="10"
     inkscape:pageopacity="0"
     inkscape:pageshadow="2"
     inkscape:window-width="2560"
     inkscape:window-height="1413"
     id="namedview4"
     showgrid="false"
     fit-margin-top="0"
     fit-margin-left="0"
     fit-margin-right="0"
     fit-margin-bottom="0"
     inkscape:zoom="1.1654321"
     inkscape:cx="-213.30086"
     inkscape:cy="295.4536"
     inkscape:window-x="0"
     inkscape:window-y="27"
     inkscape:window-maximized="0"
     inkscape:current-layer="svg2" />
  <path
     style="fill:#000000"
     d="m 166.51767,222.90215 67.27576,0 67.27575,0 1.3971,1.48782 c 1.12353,1.19591 2.12483,4.6753 5.11534,17.76567 3.29137,14.40761 3.62924,16.45211 2.93157,17.77345 -1.05385,1.99591 -9.25237,9.91332 -13.71565,13.2465 -5.0904,3.80149 -14.76718,9.08213 -20.97329,11.44504 -6.79189,2.58596 -18.22814,5.82282 -27.55442,7.79808 -10.1964,2.15953 -19.58279,2.09594 -30.00387,-0.20347 -27.10347,-5.98038 -42.17323,-13.07989 -55.73222,-26.25453 -2.56944,-2.49659 -5.0265,-5.21047 -5.46008,-6.03162 -0.69766,-1.32134 -0.36112,-3.36585 2.93027,-17.77345 2.99048,-13.09037 3.99315,-16.56976 5.11664,-17.76567 l 1.3971,-1.48782 z"
     id="path8113"
     inkscape:connector-curvature="0" />
  <path
     style="fill:#000000"
     d="m 32.685434,215.89205 c -10.885091,0.44959 -16.800797,2.78576 -23.1622481,9.14722 -6.133055,6.13305 -8.91393825,13.01212 -8.91393825,22.04898 0,9.23469 2.82614435,16.03912 9.31570145,22.42871 4.0405379,3.97828 11.6417299,8.01749 16.6394409,8.84136 1.806531,0.29781 4.652376,0.57207 6.324517,0.61042 l 3.040434,0.07 -2.284861,-13.58605 c -1.694616,-10.07735 -2.28587,-15.31797 -2.292638,-20.29289 -0.0084,-6.2222 0.11924,-6.97791 1.774234,-10.45101 1.602136,-3.36215 7.174699,-17.95964 7.174699,-18.7947 0,-0.1852 -3.427473,-0.195 -7.615341,-0.022 z"
     id="path8111"
     inkscape:connector-curvature="0" />
  <path
     style="fill:#000000"
     d="m 99.698104,120.2726 -1.993263,4.02929 c -2.563967,5.18178 -2.384123,6.24087 1.126234,6.63167 3.764795,0.41912 6.270045,1.97198 8.033955,4.98185 1.30361,2.22445 1.51633,3.3046 1.51633,7.6957 0,5.02383 -0.0643,5.24476 -3.90099,13.59383 -3.3198,7.22423 -4.581236,9.27055 -8.478479,13.74674 -4.291952,4.92954 -4.680365,5.60931 -6.183253,10.83852 -2.996552,10.42629 -5.921022,17.27097 -9.594348,22.45593 -3.076411,4.34241 -3.495334,5.27359 -3.495334,7.76438 0,3.2262 -3.683883,19.67365 -5.484701,24.48676 -1.039076,2.77718 -1.086964,3.33865 -0.358997,4.21073 0.462007,0.55345 1.946568,2.29758 3.298344,3.87636 2.654774,3.10059 5.117323,9.10369 7.698284,18.7649 1.165748,4.36369 1.332812,5.7741 0.799638,6.77034 -0.370371,0.69205 -0.771643,1.1607 -0.89036,1.04199 -0.11871,-0.11871 -0.746142,-2.62775 -1.394502,-5.57542 -2.012326,-9.1487 -4.366616,-14.59055 -8.662517,-20.02332 l -3.854324,-4.87429 1.16381,-3.36832 c 1.898865,-5.49791 4.733828,-17.9354 5.298083,-23.2426 0.486373,-4.5746 0.775239,-5.33558 3.868584,-10.21514 3.593355,-5.66828 7.677535,-15.38664 9.848358,-23.43181 1.172005,-4.34351 1.752703,-5.43033 4.459567,-8.35407 6.051019,-6.53582 7.588177,-8.86103 10.872207,-16.45152 3.30411,-7.63693 3.31703,-7.69146 2.92639,-12.10212 -0.21582,-2.43666 -0.75979,-5.30778 -1.20788,-6.38025 -0.86227,-2.06368 -3.51855,-3.81487 -5.806117,-3.8284 -2.277105,-0.0135 -4.060398,-0.68181 -4.060398,-1.52022 0,-1.98541 -1.166584,-1.10289 -3.037839,2.29653 -1.12127,2.03695 -6.465463,9.21315 -11.876615,15.94867 -9.440908,11.75154 -10.195869,12.89804 -18.697501,28.3709 -8.015968,14.58897 -9.603295,18.00106 -16.664068,35.83202 -4.292145,10.83919 -8.43997,20.9719 -9.217206,22.51684 -1.309302,2.60255 -1.386871,3.28358 -1.06143,9.25738 0.193194,3.54619 1.386671,12.89714 2.652928,20.78019 2.964449,18.45511 3.266063,23.24796 2.389838,37.99895 -0.597559,10.05964 -1.068749,13.61729 -2.724209,20.54949 -1.990508,8.33521 -5.506185,17.10935 -8.762307,21.87142 -0.822578,1.20302 -2.657724,5.50312 -4.078536,9.55547 -1.420806,4.05235 -4.718088,11.80176 -7.327625,17.22135 -2.60954,5.41959 -6.9870583,14.49154 -9.7265423,20.1594 l -4.9805579,10.30585 7.7682758,6.67833 c 7.6840174,6.60616 7.8502784,6.70824 15.3525034,9.49714 l 7.584237,2.81882 10.677807,0.0544 10.679103,0.0544 6.639447,-2.33022 c 3.652112,-1.28156 7.312597,-2.59491 8.133741,-2.91861 1.310749,-0.51668 2.030727,-2.21891 5.898137,-13.94374 9.404,-28.51017 19.342164,-52.91835 23.173907,-56.91548 0.926085,-0.96605 4.908917,-4.41946 8.850447,-7.67366 3.94152,-3.2542 7.43462,-6.35245 7.76308,-6.88568 0.32846,-0.53324 1.45909,-2.14377 2.51296,-3.57828 1.05385,-1.43452 3.40232,-6.41284 5.21772,-11.06402 2.939,-7.5299 3.36928,-9.21014 3.93339,-15.32529 0.34843,-3.77729 0.73275,-7.16583 0.85407,-7.5311 0.12132,-0.36526 -0.70323,-3.85966 -1.83385,-7.76438 -3.53274,-12.20071 -4.37075,-19.05457 -3.97875,-32.57775 0.33368,-11.51141 0.31116,-11.82142 -1.25971,-16.85976 -2.81067,-9.01482 -7.2836,-14.93145 -13.38906,-17.71124 -3.29531,-1.50034 -4.10926,-1.64856 -6.55132,-1.19233 -4.003794,0.74799 -7.217309,4.30334 -9.043541,10.00518 -1.248328,3.89754 -1.346143,5.05007 -1.044583,12.24209 0.183101,4.3669 0.598706,10.22389 0.924054,13.0158 1.089241,9.34707 0.459161,24.38715 -1.113274,26.57594 -0.235967,0.32846 -1.611837,4.09056 -3.057281,8.36054 -2.197319,6.49114 -2.654349,7.42153 -2.792893,5.67392 -0.17062,-2.15224 0.379069,-4.38883 3.23224,-13.13892 1.523438,-4.67211 1.657191,-5.83608 1.674444,-14.63063 0.01029,-5.25537 -0.300491,-14.25842 -0.689474,-20.00647 -0.956344,-14.13197 -0.666304,-15.89967 4.756342,-28.96448 4.594766,-11.07019 8.214136,-22.82361 8.212806,-26.67572 -3.3e-4,-1.2045 0.55669,-3.48776 1.23768,-5.07517 1.49902,-3.49428 4.92019,-14.08265 6.14308,-19.01114 l 0.88906,-3.58346 -1.2986,1.79238 c -0.71427,0.98538 -2.8526,3.39246 -4.75116,5.34992 -3.14946,3.24718 -3.614384,4.08466 -5.314932,9.55546 -2.621152,8.43251 -6.221594,16.82462 -8.720831,20.32659 -1.776511,2.48926 -2.298604,3.9723 -3.153191,8.958 -0.9897,5.77397 -2.517113,12.5649 -4.624155,20.55858 -0.55596,2.10922 -1.390369,3.96083 -1.853285,4.11352 -0.615415,0.20301 -0.722487,-0.0265 -0.399176,-0.85018 0.402208,-1.02476 1.201096,-5.32795 1.783307,-9.60471 0.125279,-0.92026 0.6798,-2.883 1.231208,-4.36107 0.551408,-1.47807 1.533717,-5.77817 2.183776,-9.55546 1.033322,-6.00432 1.468973,-7.28 3.466821,-10.15163 2.717341,-3.90582 6.291698,-12.24347 8.959299,-20.90201 1.774527,-5.75979 2.211638,-6.56354 5.365469,-9.85484 3.95869,-4.13125 7.42547,-9.82384 10.37584,-17.03732 2.93354,-7.1723 3.56989,-10.44123 3.19725,-16.4256 -0.61055,-9.805 -4.60746,-14.45093 -13.23742,-15.39009 l -2.997666,-0.3266 z m 204.364856,95.46263 -99.78222,0.0506 -99.78093,0.0492 3.96319,1.89217 c 2.98587,1.42451 4.9384,2.95864 7.91342,6.22213 2.17211,2.3827 3.94894,4.81579 3.94894,5.40565 0,0.58987 0.24247,1.32741 0.53914,1.63945 0.29668,0.31204 1.29026,2.85091 2.2084,5.64282 1.63187,4.96224 1.66766,5.35826 1.56558,17.61793 -0.0733,8.80616 0.17893,14.5325 0.84888,19.22627 l 0.95516,6.68352 3.36055,0.39268 c 5.13807,0.59925 19.21519,4.80739 26.91937,8.04691 8.19205,3.44468 19.03071,7.13404 26.96863,9.18092 11.15809,2.87723 28.5926,6.0294 39.65135,7.16952 4.86473,0.50154 24.67844,-0.22069 30.45748,-1.11068 22.20742,-3.42 40.69813,-8.35838 57.06321,-15.23976 8.01848,-3.37167 21.91525,-7.48619 27.28096,-8.07671 l 3.72344,-0.40954 -2.57128,-3.3761 c -5.2476,-6.89057 -6.38267,-9.07826 -9.55288,-18.41757 -1.78178,-5.24924 -5.20743,-13.50217 -7.63737,-18.39812 -3.85207,-7.76152 -5.03588,-9.55939 -9.41031,-14.29497 -2.75216,-2.97932 -5.82031,-6.42508 -6.8183,-7.65681 l -1.81441,-2.2395 z"
     id="path8105"
     inkscape:connector-curvature="0" />
  <path
     style="fill:#000000"
     d="m 368.86594,75.551266 c -1.21441,-0.0181 -2.49702,0.275808 -3.81804,0.899429 -3.7842,1.786386 -5.2093,4.130055 -6.18844,10.178844 -0.73024,4.510827 -0.71731,6.423191 0.0972,15.031101 0.51338,5.42475 1.32597,12.01331 1.80533,14.64099 0.47941,2.62769 1.1314,7.06164 1.45024,9.85355 0.3189,2.79191 0.83202,7.09201 1.13918,9.55547 0.30722,2.46345 0.8351,6.91098 1.17419,9.88335 0.33907,2.97236 1.15823,8.21331 1.81959,11.64592 1.37509,7.13663 2.42917,20.5893 1.75221,22.36521 -0.25043,0.65692 -0.47255,0.92592 -0.49378,0.59746 -0.25036,-3.85899 -2.60192,-21.96249 -3.26335,-25.1244 -0.4761,-2.27617 -1.17093,-7.49741 -1.54484,-11.60316 -0.62607,-6.87436 -3.24428,-26.14562 -3.93338,-28.95541 -0.16244,-0.6622 -0.79747,-4.51021 -1.41265,-8.55105 -0.82713,-5.43285 -1.48346,-7.880319 -2.51815,-9.396059 -2.32623,-3.407738 -6.21486,-4.15692 -10.13608,-1.953084 -5.45662,3.066809 -6.74412,9.695993 -6.18196,31.835133 0.22495,8.85887 0.8363,18.45049 1.50337,23.58864 0.61824,4.76267 1.81796,16.31927 2.66459,25.68039 0.8467,9.36111 2.05809,19.57272 2.69311,22.69309 0.63509,3.12037 1.55526,8.76418 2.0451,12.54147 0.48984,3.77729 1.06659,8.21124 1.28046,9.85354 l 0.38879,2.98601 -2.89528,-3.28409 c -10.46022,-11.86728 -17.67967,-17.56326 -25.41341,-20.05054 l -5.18014,-1.66536 -6.00441,1.1016 c -4.47303,0.82073 -6.31967,1.4366 -7.23949,2.41576 -1.2307,1.30997 -1.23141,1.32619 -0.092,4.32478 1.3798,3.63132 5.0722,8.57607 12.36521,16.56039 4.5356,4.96554 6.16597,7.33097 9.67081,14.03446 3.69222,7.06176 6.95006,15.15944 10.21124,25.38102 0.52401,1.6423 2.79085,5.72077 5.03758,9.06298 3.12768,4.65269 4.809,6.54143 7.1773,8.06117 1.70122,1.09167 5.22409,3.81997 7.82788,6.06272 6.65726,5.73409 14.63691,10.96361 21.27267,13.93986 9.61665,4.31324 11.13358,5.38288 12.50907,8.82063 2.17971,5.44783 7.58637,23.03336 11.94659,38.8556 2.35344,8.53997 5.99165,21.57412 8.0845,28.96448 2.09279,7.39035 5.19959,18.40766 6.90513,24.48418 2.68827,9.57777 3.66007,12.08251 7.29782,18.81284 2.30791,4.26998 4.27642,7.86058 4.37402,7.97952 0.0977,0.11895 2.54355,0.55991 5.43546,0.97978 6.78699,0.9854 6.7276,0.98529 16.90383,0.0428 5.40274,-0.5004 11.93777,-1.60038 17.37687,-2.92509 7.53986,-1.83635 9.62028,-2.62298 15.39786,-5.81908 5.83724,-3.22912 7.34509,-4.41285 11.95568,-9.3818 l 5.27734,-5.68688 -3.42923,-7.52462 c -1.8859,-4.13881 -7.39112,-16.12485 -12.23302,-26.63557 -4.84197,-10.51073 -12.69537,-27.57599 -17.45334,-37.92248 -4.75802,-10.3465 -9.66498,-20.99177 -10.90331,-23.65603 -2.61056,-5.61694 -3.52386,-12.48319 -2.41447,-18.148 0.35382,-1.80653 0.74661,-10.80958 0.87222,-20.00647 0.30736,-22.51316 -1.12327,-44.16601 -4.06687,-61.56814 -2.375,-14.04023 -2.44368,-14.27982 -5.70114,-19.85743 -1.27701,-2.18649 -3.27835,-6.72144 -4.4466,-10.07775 -1.16826,-3.35633 -3.07004,-8.15062 -4.22628,-10.65319 -2.7101,-5.86553 -8.16791,-25.74403 -9.58268,-34.90019 -1.65086,-10.68455 -6.57738,-24.4717 -10.37584,-29.03964 -3.76966,-4.53334 -10.04762,-3.58419 -11.48003,1.73535 -1.54191,5.72632 3.82409,41.06432 10.29807,67.81749 0.98074,4.05292 1.67017,7.48223 1.53188,7.62053 -0.75785,0.75787 -3.07113,-6.84102 -5.7452,-18.87117 -0.69355,-3.12037 -1.78193,-7.97429 -2.41835,-10.78667 -1.49081,-6.58813 -2.83727,-14.36402 -4.23406,-24.44789 -0.61425,-4.43421 -1.65575,-11.10304 -2.31466,-14.81855 -1.22991,-6.93465 -4.96898,-20.681081 -6.38673,-23.481068 -1.30216,-2.57185 -4.19115,-4.591725 -7.21617,-5.045358 -2.70532,-0.405685 -2.8565,-0.344912 -5.07257,2.030844 -3.08355,3.305696 -3.11561,2.130318 0.94867,34.744672 3.21931,25.83376 3.07214,24.88519 7.44557,48.37219 1.17515,6.31203 1.17763,7.31941 0.0129,6.15474 -0.79959,-0.79957 -4.72228,-23.05895 -6.76776,-38.40201 -0.85393,-6.40497 -1.93445,-13.93047 -2.4002,-16.72238 -0.93257,-5.59076 -3.35529,-28.459516 -3.33074,-31.438556 0.008,-1.032898 -0.51515,-3.593593 -1.16252,-5.689474 -1.60153,-5.185262 -4.62918,-8.047061 -8.2724,-8.101344 z m 86.97248,147.713774 c -0.43831,0.146 -0.39894,1.51521 -0.15941,6.33229 0.1844,3.70835 0.58945,9.54279 0.90073,12.96656 0.31134,3.42376 0.56635,10.88104 0.56635,16.57205 0,5.691 0.22415,10.34732 0.49767,10.34732 0.6883,0 3.7628,-3.93178 5.60264,-7.16563 2.77923,-4.88489 3.7312,-8.77062 3.7312,-15.22938 0,-6.45398 -0.94994,-10.33305 -3.72731,-15.22809 -1.92352,-3.39 -5.36333,-7.64521 -6.80404,-8.41627 -0.26256,-0.14052 -0.46172,-0.22752 -0.60783,-0.17885 z"
     id="path8099"
     inkscape:connector-curvature="0" />
  <g
     id="g8115"
     transform="matrix(0.66355592,0,0,0.66355592,0.60924765,70.616069)">
    <path
       id="path8109"
       d="m 379.31641,102.59961 0,23.40039 0,23.40039 23.39843,0 23.40039,0 0,-23.40039 0,-23.40039 -23.40039,0 -23.39843,0 z"
       style="fill:#000000"
       inkscape:connector-curvature="0" />
    <path
       id="path8107"
       d="m 276.71484,102.59961 0,23.40039 0,23.40039 23.40039,0 23.40039,0 0,-23.40039 0,-23.40039 -23.40039,0 -23.40039,0 z m 51.30078,0 0,23.40039 0,23.40039 23.4004,0 23.40039,0 0,-23.40039 0,-23.40039 -23.40039,0 -23.4004,0 z"
       style="fill:#000000"
       inkscape:connector-curvature="0" />
    <path
       id="path8103"
       d="m 379.31641,51.300781 0,23.398438 0,23.40039 23.39843,0 23.40039,0 0,-23.40039 0,-23.398438 -23.40039,0 -23.39843,0 z"
       style="fill:#000000"
       inkscape:connector-curvature="0" />
    <path
       id="path8101"
       d="m 276.71484,51.300781 0,23.398438 0,23.40039 23.40039,0 23.40039,0 0,-23.40039 0,-23.398438 -23.40039,0 -23.40039,0 z m 51.30078,0 0,23.398438 0,23.40039 23.4004,0 23.40039,0 0,-23.40039 0,-23.398438 -23.40039,0 -23.4004,0 z"
       style="fill:#000000"
       inkscape:connector-curvature="0" />
    <path
       id="path8097"
       d="m 379.31641,0 0,23.400391 0,23.40039 23.39843,0 23.40039,0 0,-23.40039 0,-23.400391 -23.40039,0 -23.39843,0 z"
       style="fill:#000000"
       inkscape:connector-curvature="0" />
    <path
       id="path4140"
       d="m 276.71484,0 0,23.400391 0,23.40039 23.40039,0 23.40039,0 0,-23.40039 0,-23.400391 -23.40039,0 -23.40039,0 z m 51.30078,0 0,23.400391 0,23.40039 23.4004,0 23.40039,0 0,-23.40039 0,-23.400391 -23.40039,0 -23.4004,0 z"
       style="fill:#000000"
       inkscape:connector-curvature="0" />
  </g>
</svg>
