<?xml version="1.0" encoding="UTF-8" standalone="no"?>
<!-- Created with Inkscape (http://www.inkscape.org/) -->

<svg
   xmlns:dc="http://purl.org/dc/elements/1.1/"
   xmlns:cc="http://creativecommons.org/ns#"
   xmlns:rdf="http://www.w3.org/1999/02/22-rdf-syntax-ns#"
   xmlns:svg="http://www.w3.org/2000/svg"
   xmlns="http://www.w3.org/2000/svg"
   xmlns:sodipodi="http://sodipodi.sourceforge.net/DTD/sodipodi-0.dtd"
   xmlns:inkscape="http://www.inkscape.org/namespaces/inkscape"
   id="svg2"
   version="1.1"
   inkscape:version="0.91 r13725"
   width="500"
   height="500"
   viewBox="0 0 500 500"
   sodipodi:docname="A4b1.svg">
  <metadata
     id="metadata8">
    <rdf:RDF>
      <cc:Work
         rdf:about="">
        <dc:format>image/svg+xml</dc:format>
        <dc:type
           rdf:resource="http://purl.org/dc/dcmitype/StillImage" />
        <dc:title></dc:title>
      </cc:Work>
    </rdf:RDF>
  </metadata>
  <defs
     id="defs6" />
  <sodipodi:namedview
     pagecolor="#ffffff"
     bordercolor="#666666"
     borderopacity="1"
     objecttolerance="10"
     gridtolerance="10"
     guidetolerance="10"
     inkscape:pageopacity="0"
     inkscape:pageshadow="2"
     inkscape:window-width="2560"
     inkscape:window-height="1413"
     id="namedview4"
     showgrid="false"
     fit-margin-top="0"
     fit-margin-left="0"
     fit-margin-right="0"
     fit-margin-bottom="0"
     inkscape:zoom="1.1654321"
     inkscape:cx="127.30191"
     inkscape:cy="209.30747"
     inkscape:window-x="0"
     inkscape:window-y="27"
     inkscape:window-maximized="0"
     inkscape:current-layer="svg2" />
  <path
     style="fill:#000000"
     d="M 37.5427,425.78909 C 26.276266,423.15111 14.933069,418.87561 7.645105,414.52003 4.8825275,412.869 2.4946262,411.41172 2.3386546,411.28161 c -0.3259961,-0.27194 1.8774626,-4.39279 10.2968624,-19.25695 3.298644,-5.82364 6.987511,-12.95446 8.19748,-15.84626 l 2.199952,-5.25783 0.146824,-23.1825 c 0.191091,-30.17212 1.236438,-45.30527 4.378424,-63.38505 2.363604,-13.60077 2.436097,-13.86133 5.225232,-18.78075 1.555606,-2.74375 3.929051,-7.99662 5.274322,-11.67303 1.345271,-3.67643 3.352415,-8.74609 4.460321,-11.26592 3.173358,-7.21752 7.874592,-24.66184 10.583865,-39.27231 1.959681,-10.56814 6.348782,-22.48858 10.08346,-27.38591 0.778384,-1.0207 2.464967,-2.27583 3.747973,-2.78919 2.015896,-0.8066 2.5897,-0.82462 4.224715,-0.1326 3.246978,1.37427 4.180309,2.94059 4.434684,7.44237 0.212047,3.75268 -1.05122,16.3414 -2.323955,23.15878 -0.301314,1.61397 -0.803191,4.78323 -1.115284,7.04278 -1.202888,8.70887 -5.149908,28.42946 -7.677361,38.35851 -1.885105,7.40561 -2.053147,8.74887 -0.807703,6.45639 1.423256,-2.61978 3.393983,-9.42428 5.500307,-18.99136 3.817593,-17.33978 5.411401,-25.92485 6.537398,-35.21391 0.352159,-2.90515 1.137397,-7.92313 1.744967,-11.15108 0.607584,-3.22794 1.273257,-7.05745 1.479272,-8.51003 0.645079,-4.54827 5.593593,-21.28191 6.790697,-22.96308 1.524345,-2.14075 4.412323,-3.83131 7.28351,-4.26361 2.54907,-0.3838 4.322606,0.70604 6.461721,3.97074 1.332962,2.03436 1.027382,6.6373 -2.050435,30.88564 -1.249644,9.84522 -2.45158,19.61708 -2.670969,21.71524 -0.374239,3.57913 -2.822115,17.9636 -5.535028,32.52559 -1.435645,7.70607 -1.442649,7.88377 -0.264176,6.70529 0.544199,-0.54419 1.393376,-3.57774 2.047755,-7.31527 3.463236,-19.78053 3.914059,-22.67239 6.164874,-39.54529 0.495199,-3.71213 1.258122,-8.59806 1.695387,-10.85762 0.437272,-2.25956 0.958503,-6.74934 1.158294,-9.97728 0.19978,-3.22794 0.61073,-7.45361 0.91321,-9.39038 0.30249,-1.93676 0.80956,-6.69064 1.12681,-10.56417 0.31727,-3.87353 1.00263,-8.27206 1.52304,-9.7745 2.24721,-6.4879 7.1355,-9.18436 12.41568,-6.84869 6.34858,2.80828 7.97839,9.48016 6.43087,26.32583 -0.51798,5.63856 -1.46418,13.68527 -2.10267,17.88159 -1.19769,7.87164 -1.83876,12.77693 -2.99135,22.88905 -0.36792,3.22794 -1.19036,9.03824 -1.82765,12.91177 -1.91214,11.62236 -2.82546,19.6865 -2.79174,24.64974 0.0422,6.22312 0.75113,4.2276 1.66786,-4.69519 0.39797,-3.87353 1.3572,-10.74024 2.13163,-15.25936 0.77442,-4.51912 1.81024,-12.44225 2.30182,-17.60696 0.49158,-5.16471 1.82653,-15.20067 2.96657,-22.30215 1.14003,-7.10147 2.36264,-14.83243 2.71693,-17.1799 0.81025,-5.36887 2.90721,-8.55689 6.29626,-9.57227 2.7077,-0.81125 4.37898,-0.49069 7.13898,1.36927 5.1931,3.49963 6.18518,9.44708 5.63831,33.80155 -0.22772,10.14189 -0.73914,19.60909 -1.22556,22.68698 -0.4591,2.90515 -1.65922,14.39369 -2.66691,25.53009 -1.00769,11.1364 -2.34577,22.75699 -2.9735,25.82354 -0.62773,3.06654 -1.66271,9.40505 -2.29996,14.08557 -0.63725,4.68051 -1.33164,9.56644 -1.54311,10.85762 -0.45765,2.79447 -0.83747,3.10107 6.54322,-5.28209 3.15674,-3.58549 7.58112,-7.71428 11.37147,-10.61174 5.29691,-4.04913 6.94648,-4.97186 11.27887,-6.30916 5.96345,-1.84079 6.32312,-1.85789 12.82586,-0.60993 3.48621,0.66905 5.41307,1.36278 6.39792,2.30343 1.34611,1.28571 1.37493,1.46878 0.64269,4.08408 -0.89775,3.20643 -6.55998,10.86104 -14.10375,19.06645 -4.52595,4.9229 -5.65076,6.62557 -9.60942,14.54604 -3.97921,7.96159 -7.27325,16.25106 -10.24829,25.78993 -0.52627,1.68736 -2.81794,5.77477 -5.09262,9.08315 -3.31774,4.82544 -4.95428,6.59839 -8.27388,8.96351 -2.27597,1.62156 -6.05948,4.6139 -8.40781,6.64966 -7.24424,6.28 -17.35337,12.57852 -24.66717,15.36894 -1.12978,0.43104 -3.554613,1.69102 -5.388515,2.79993 -3.932762,2.37807 -3.156882,0.69413 -10.745129,23.32094 -3.139367,9.36104 -6.048199,17.56307 -6.464062,18.22675 -0.655742,1.0465 -1.757684,1.30011 -8.300143,1.91033 -4.149206,0.387 -11.10942,0.68283 -15.467142,0.65739 -7.038799,-0.0411 -9.003987,-0.29931 -17.606959,-2.31366 z m 390.45709,1.53606 c -3.29611,-0.35707 -6.27284,-0.93208 -6.61496,-1.2778 -0.34211,-0.34572 -3.4889,-9.06117 -6.99286,-19.36765 -3.50396,-10.30649 -6.55376,-19.17492 -6.77733,-19.70762 -0.45466,-1.08336 -5.97485,-4.58117 -9.12929,-5.78467 -7.48391,-2.85533 -17.33421,-9.03581 -25.203,-15.81341 -2.66262,-2.29337 -6.40322,-5.23058 -8.31244,-6.52711 -2.68696,-1.82468 -4.42154,-3.7377 -7.67661,-8.46639 -2.3129,-3.35999 -4.6582,-7.50793 -5.21177,-9.21765 -3.48836,-10.77394 -6.34088,-17.93735 -10.28595,-25.83063 -3.95866,-7.92047 -5.08347,-9.62314 -9.60942,-14.54604 -7.54378,-8.20541 -13.206,-15.86002 -14.10375,-19.06645 -0.73224,-2.6153 -0.70342,-2.79837 0.64268,-4.08408 0.98486,-0.94065 2.91172,-1.63438 6.39793,-2.30343 6.49347,-1.24619 6.85749,-1.22945 12.8269,0.58943 4.3694,1.33135 5.93456,2.20695 11.27783,6.30916 3.7459,2.87586 8.25174,7.08879 11.37147,10.63224 7.38069,8.38316 7.00087,8.07656 6.54321,5.28209 -0.21146,-1.29118 -0.90585,-6.17711 -1.5431,-10.85762 -0.63725,-4.68052 -1.67223,-11.01903 -2.29997,-14.08557 -0.62772,-3.06655 -1.9658,-14.68714 -2.97349,-25.82354 -1.0077,-11.1364 -2.20781,-22.62494 -2.66692,-25.53009 -0.48642,-3.07789 -0.99783,-12.54509 -1.22556,-22.68698 -0.54686,-24.35447 0.44522,-30.30192 5.63832,-33.80155 2.76,-1.85997 4.43127,-2.18052 7.13898,-1.36927 3.38905,1.01538 5.486,4.2034 6.29626,9.57227 0.35429,2.34747 1.5769,10.07843 2.71693,17.1799 1.14003,7.10148 2.47499,17.13744 2.96657,22.30215 0.49158,5.16471 1.52739,13.08784 2.30182,17.60696 0.77443,4.51912 1.73366,11.38583 2.13163,15.25936 0.91673,8.92279 1.6256,10.91831 1.66786,4.69519 0.0337,-4.96324 -0.8796,-13.02738 -2.79175,-24.64974 -0.63728,-3.87353 -1.45972,-9.68383 -1.82764,-12.91177 -1.15259,-10.11212 -1.79366,-15.01741 -2.99135,-22.88905 -0.63849,-4.19632 -1.58469,-12.24303 -2.10267,-17.88159 -1.54752,-16.84567 0.0823,-23.51755 6.43087,-26.32583 5.28017,-2.33567 10.16846,0.36079 12.41568,6.84869 0.5204,1.50244 1.20577,5.90097 1.52303,9.7745 0.31726,3.87353 0.82433,8.62741 1.12681,10.56417 0.30249,1.93677 0.71343,6.16244 0.91322,9.39038 0.19979,3.22794 0.72102,7.71772 1.15829,9.97728 0.43727,2.25956 1.20019,7.14549 1.69538,10.85762 2.25082,16.8729 2.70165,19.76476 6.16488,39.54529 0.65438,3.73753 1.50356,6.77108 2.04776,7.31527 1.17805,1.17806 1.17122,1.00255 -0.26129,-6.70529 -3.58664,-19.2986 -4.8089,-26.70065 -5.8553,-35.46008 -0.63625,-5.3261 -1.93713,-15.75823 -2.89085,-23.18249 -2.52095,-19.62481 -2.8006,-24.51904 -1.51318,-26.4839 2.13913,-3.2647 3.91266,-4.35454 6.46173,-3.97074 2.87119,0.4323 5.75917,2.12286 7.28351,4.26361 1.1971,1.68117 6.14562,18.41481 6.7907,22.96308 0.20601,1.45258 0.87169,5.28209 1.47927,8.51003 0.60757,3.22795 1.39754,8.24593 1.75547,11.15108 2.21385,17.96849 9.03007,48.68846 12.02721,54.20527 1.24544,2.29248 1.0774,0.94922 -0.80771,-6.45639 -2.52745,-9.92905 -6.47447,-29.64964 -7.67736,-38.35851 -0.3121,-2.25955 -0.81397,-5.42881 -1.11529,-7.04278 -1.27273,-6.81738 -2.536,-19.4061 -2.32395,-23.15878 0.25437,-4.50178 1.1877,-6.0681 4.43468,-7.44237 1.63502,-0.69202 2.20882,-0.674 4.22472,0.1326 1.28301,0.51336 2.96959,1.76849 3.74797,2.78919 3.73469,4.89733 8.12378,16.81777 10.08346,27.38591 2.70928,14.61047 7.41051,32.05479 10.58387,39.27231 1.1079,2.51983 3.11505,7.58949 4.46032,11.26592 1.34527,3.67641 3.71872,8.92928 5.27432,11.67303 2.78914,4.91942 2.86164,5.17998 5.22523,18.78075 3.14198,18.07978 4.18734,33.21293 4.37843,63.38505 l 0.14682,23.1825 2.19995,5.25783 c 1.20998,2.8918 4.89884,10.02262 8.19748,15.84626 8.41941,14.86416 10.62286,18.98501 10.29687,19.25695 -0.15597,0.13011 -2.54388,1.58739 -5.30646,3.23842 -7.48314,4.47223 -18.61991,8.63366 -30.27189,11.31156 -9.54602,2.1939 -10.51715,2.3073 -19.0742,2.22719 -4.95885,-0.0464 -11.7129,-0.37656 -15.00901,-0.73363 z M 239.72927,281.06451 c -10.868,-1.12046 -28.00197,-4.2187 -38.96755,-7.04628 -7.80099,-2.01158 -18.45199,-5.63777 -26.50272,-9.02303 -8.16893,-3.43494 -21.66313,-7.3934 -27.12114,-7.95583 -2.18335,-0.22499 -4.10068,-0.62096 -4.26074,-0.87993 -0.32559,-0.52682 2.89294,-32.92409 3.81681,-38.41941 0.32561,-1.93677 0.59644,-7.21885 0.60187,-11.73797 0.005,-4.51912 0.17356,-9.20698 0.37364,-10.41745 l 0.36378,-2.20087 101.96678,0 101.96678,0 0.36377,2.20087 c 0.20008,1.21047 0.36822,5.89833 0.37365,10.41745 0.005,4.51912 0.27626,9.8012 0.60186,11.73797 0.92387,5.49532 4.14241,37.89259 3.81682,38.41941 -0.16006,0.25897 -2.07739,0.65494 -4.26074,0.87993 -5.45801,0.56243 -18.95222,4.52089 -27.12114,7.95583 -16.08283,6.76267 -34.25552,11.61595 -56.0799,14.97694 -5.67936,0.87465 -25.15098,1.58526 -29.93183,1.09237 z m 24.49786,-12.32085 c 9.16543,-1.94117 20.40473,-5.12172 27.07947,-7.66307 6.09907,-2.32215 15.60865,-7.51146 20.6112,-11.24737 4.38628,-3.27568 12.44268,-11.05751 13.47835,-13.01899 0.68563,-1.29854 0.35447,-3.3068 -2.88015,-17.46588 -2.93889,-12.86456 -3.92385,-16.28495 -5.02797,-17.46023 l -1.3731,-1.4616 -66.11493,0 -66.11493,0 -1.3731,1.4616 c -1.10412,1.17528 -2.08908,4.59567 -5.02797,17.46023 -3.23462,14.15908 -3.56578,16.16734 -2.88015,17.46588 0.4261,0.80699 2.84072,3.47469 5.36583,5.92823 13.3251,12.94737 28.13502,19.92394 54.77096,25.80116 10.24134,2.25975 19.46598,2.32233 29.48649,0.20004 z M 32.139624,248.23957 c -4.525533,-3.52581 -8.184728,-8.87787 -10.219065,-14.94673 -1.492332,-4.45194 -1.489946,-13.75423 0.0046,-18.19386 4.03755,-11.99324 13.927009,-20.082 26.258326,-21.47713 3.328533,-0.37658 3.553518,-0.32762 3.242787,0.70568 -0.6155,2.04681 -2.080129,8.68372 -3.344491,15.15541 -1.893628,9.69268 -6.665123,26.483 -8.934527,31.43958 -1.108452,2.42096 -2.338371,5.38846 -2.733155,6.59444 -0.394783,1.20598 -0.927298,2.32218 -1.183367,2.48044 -0.256069,0.15826 -1.647094,-0.63277 -3.091165,-1.75783 z m 432.108496,0.77483 c -0.30342,-0.7384 -1.74358,-4.14099 -3.20037,-7.56131 -2.78138,-6.53029 -7.6994,-23.92781 -9.4408,-33.39689 -0.95397,-5.18733 -2.2678,-11.12316 -3.03866,-13.72867 -0.30562,-1.03295 -0.0792,-1.08213 3.24817,-0.70568 12.33132,1.39513 22.22077,9.48389 26.25832,21.47713 0.77002,2.28729 1.0867,4.93825 1.0867,9.09693 0,8.92459 -2.73072,15.63941 -8.84769,21.75637 -4.23973,4.23974 -5.3512,4.80083 -6.06567,3.06212 z m -184.31629,-94.95287 0,-15.25936 15.25936,0 15.25937,0 0,15.25936 0,15.25936 -15.25937,0 -15.25936,0 0,-15.25936 z m 33.45322,0 0,-15.25936 15.25937,0 15.25936,0 0,15.25936 0,15.25936 -15.25936,0 -15.25937,0 0,-15.25936 z m 33.45322,0 0,-15.25936 15.25937,0 15.25936,0 0,3.59884 c 0,2.65588 -0.32994,4.1327 -1.25923,5.63633 -1.33677,2.16292 -2.79415,7.94537 -2.82844,11.22234 -0.0173,1.65018 -0.18746,1.89837 -1.04769,1.5279 -0.56489,-0.24327 -2.6117,-0.55862 -4.54847,-0.70077 -3.00905,-0.22085 -3.92425,-0.0318 -6.29037,1.29955 -2.82896,1.59175 -5.40642,4.2104 -6.49434,6.59811 -0.54041,1.18606 -1.02753,1.33642 -4.32956,1.33642 l -3.72063,0 0,-15.25936 z m -66.90644,-33.45322 0,-15.25937 15.25936,0 15.25937,0 0,15.25937 0,15.25936 -15.25937,0 -15.25936,0 0,-15.25936 z m 33.45322,0 0,-15.25937 15.25937,0 15.25936,0 0,15.25937 0,15.25936 -15.25936,0 -15.25937,0 0,-15.25936 z m 33.45322,0 0,-15.25937 15.25937,0 15.25936,0 0,15.25937 0,15.25936 -15.25936,0 -15.25937,0 0,-15.25936 z m -66.90644,-33.453223 0,-15.259364 15.25936,0 15.25937,0 0,15.259364 0,15.259363 -15.25937,0 -15.25936,0 0,-15.259363 z m 33.45322,0 0,-15.259364 15.25937,0 15.25936,0 0,15.259364 0,15.259363 -15.25936,0 -15.25937,0 0,-15.259363 z m 33.45322,0 0,-15.259364 15.25937,0 15.25936,0 0,15.259364 0,15.259363 -15.25936,0 -15.25937,0 0,-15.259363 z"
     id="path4138"
     inkscape:connector-curvature="0" />
</svg>
