<?xml version="1.0" encoding="UTF-8" standalone="no"?>
<!-- Created with Inkscape (http://www.inkscape.org/) -->

<svg
   xmlns:dc="http://purl.org/dc/elements/1.1/"
   xmlns:cc="http://creativecommons.org/ns#"
   xmlns:rdf="http://www.w3.org/1999/02/22-rdf-syntax-ns#"
   xmlns:svg="http://www.w3.org/2000/svg"
   xmlns="http://www.w3.org/2000/svg"
   xmlns:sodipodi="http://sodipodi.sourceforge.net/DTD/sodipodi-0.dtd"
   xmlns:inkscape="http://www.inkscape.org/namespaces/inkscape"
   id="svg2"
   version="1.1"
   inkscape:version="0.91 r13725"
   width="500"
   height="500"
   viewBox="0 0 500 500"
   sodipodi:docname="A4b1.svg">
  <metadata
     id="metadata8">
    <rdf:RDF>
      <cc:Work
         rdf:about="">
        <dc:format>image/svg+xml</dc:format>
        <dc:type
           rdf:resource="http://purl.org/dc/dcmitype/StillImage" />
        <dc:title></dc:title>
      </cc:Work>
    </rdf:RDF>
  </metadata>
  <defs
     id="defs6" />
  <sodipodi:namedview
     pagecolor="#ffffff"
     bordercolor="#666666"
     borderopacity="1"
     objecttolerance="10"
     gridtolerance="10"
     guidetolerance="10"
     inkscape:pageopacity="0"
     inkscape:pageshadow="2"
     inkscape:window-width="2560"
     inkscape:window-height="1413"
     id="namedview4"
     showgrid="false"
     fit-margin-top="0"
     fit-margin-left="0"
     fit-margin-right="0"
     fit-margin-bottom="0"
     inkscape:zoom="2"
     inkscape:cx="216.12503"
     inkscape:cy="233.22406"
     inkscape:window-x="0"
     inkscape:window-y="27"
     inkscape:window-maximized="0"
     inkscape:current-layer="svg2" />
  <path
     style="fill:#000000;stroke:#ffffff;stroke-width:3;stroke-miterlimit:4;stroke-dasharray:none;stroke-opacity:1"
     d="m 249.99932,271.50095 c -214.917636,0 -221.80319,0.0371 -225.195005,1.21612 -10.686786,3.71457 -18.4336956,11.63609 -22.016576,22.5122 -1.62303,4.92689 -1.62303,15.22646 0,20.15336 3.0654604,9.30546 9.1071,16.37048 17.69692,20.69368 3.134152,1.57739 6.952153,2.92685 9.409641,3.32666 2.566267,0.41755 21.873033,0.68138 50.891592,0.69553 42.470988,0.0208 47.542978,0.13656 55.343798,1.26125 10.13962,1.46193 21.53014,4.73665 31.74926,9.12792 8.74859,3.7594 20.2877,7.77525 28.75074,10.00545 11.8857,3.13204 30.45715,6.56345 42.23711,7.80454 5.18198,0.546 26.28775,-0.24021 32.44366,-1.20906 23.66795,-3.72484 43.35279,-9.09904 60.81064,-16.60093 10.21913,-4.39127 21.60962,-7.66599 31.74926,-9.12792 7.80079,-1.12469 12.87279,-1.2405 55.34379,-1.26125 29.01858,-0.0141 48.32531,-0.27797 50.89161,-0.69553 2.45748,-0.39981 6.2741,-1.74927 9.40824,-3.32666 8.58982,-4.3232 14.63282,-11.38822 17.69829,-20.69368 1.62302,-4.9269 1.62302,-15.22647 0,-20.15336 -3.58287,-10.87611 -11.32979,-18.79763 -22.01656,-22.5122 -3.39181,-1.17895 -10.27874,-1.21612 -225.19641,-1.21612 z m -71.66155,7.47585 71.66155,0 71.66295,0 1.4882,1.61961 c 1.19674,1.30185 2.26479,5.08943 5.4503,19.3393 3.50604,15.68382 3.86452,17.90942 3.12136,19.34779 -1.12258,2.17271 -9.85437,10.79141 -14.60869,14.41984 -5.42233,4.13822 -15.73015,9.88661 -22.34099,12.45881 -7.23484,2.81503 -19.41683,6.33858 -29.35129,8.48882 -10.86134,2.35081 -20.85981,2.28159 -31.96051,-0.2215 -28.87091,-6.51011 -44.92481,-14.23847 -59.36798,-28.58009 -2.73697,-2.71775 -5.3543,-5.67202 -5.81613,-6.56588 -0.74316,-1.43838 -0.38331,-3.66397 3.12273,-19.34779 3.18552,-14.24987 4.25216,-18.03745 5.44893,-19.3393 l 1.48957,-1.61961 z"
     id="path8070-4"
     inkscape:connector-curvature="0" />
  <g
     id="g4291"
     transform="translate(190,245)">
    <rect
       y="-150"
       x="45"
       height="155"
       width="155"
       id="rect4289"
       style="fill:#ffffff;fill-opacity:1;stroke:none;stroke-width:2.5;stroke-miterlimit:4;stroke-dasharray:none;stroke-opacity:1" />
    <rect
       y="-45"
       x="50"
       height="45"
       width="45"
       id="rect4142"
       style="fill:#000000;fill-opacity:1;stroke:none;stroke-width:2.5;stroke-miterlimit:4;stroke-dasharray:none;stroke-opacity:1" />
    <rect
       y="-45"
       x="100"
       height="45"
       width="45"
       id="rect4142-2"
       style="fill:#000000;fill-opacity:1;stroke:none;stroke-width:2.5;stroke-miterlimit:4;stroke-dasharray:none;stroke-opacity:1" />
    <rect
       y="-45"
       x="150"
       height="45"
       width="45"
       id="rect4142-2-4"
       style="fill:#000000;fill-opacity:1;stroke:none;stroke-width:2.5;stroke-miterlimit:4;stroke-dasharray:none;stroke-opacity:1" />
    <rect
       y="-95"
       x="50"
       height="45"
       width="45"
       id="rect4142-1"
       style="fill:#000000;fill-opacity:1;stroke:none;stroke-width:2.5;stroke-miterlimit:4;stroke-dasharray:none;stroke-opacity:1" />
    <rect
       y="-95"
       x="100"
       height="45"
       width="45"
       id="rect4142-2-0"
       style="fill:#000000;fill-opacity:1;stroke:none;stroke-width:2.5;stroke-miterlimit:4;stroke-dasharray:none;stroke-opacity:1" />
    <rect
       y="-95"
       x="150"
       height="45"
       width="45"
       id="rect4142-2-4-3"
       style="fill:#000000;fill-opacity:1;stroke:none;stroke-width:2.5;stroke-miterlimit:4;stroke-dasharray:none;stroke-opacity:1" />
    <rect
       y="-145"
       x="50"
       height="45"
       width="45"
       id="rect4142-1-0"
       style="fill:#000000;fill-opacity:1;stroke:none;stroke-width:2.5;stroke-miterlimit:4;stroke-dasharray:none;stroke-opacity:1" />
    <rect
       y="-145"
       x="100"
       height="45"
       width="45"
       id="rect4142-2-0-2"
       style="fill:#000000;fill-opacity:1;stroke:none;stroke-width:2.5;stroke-miterlimit:4;stroke-dasharray:none;stroke-opacity:1" />
    <rect
       y="-145"
       x="150"
       height="45"
       width="45"
       id="rect4142-2-4-3-8"
       style="fill:#000000;fill-opacity:1;stroke:none;stroke-width:2.5;stroke-miterlimit:4;stroke-dasharray:none;stroke-opacity:1" />
  </g>
  <path
     style="fill:#000000;stroke:#ffffff;stroke-width:2.99980998;stroke-miterlimit:4;stroke-dasharray:none;stroke-opacity:1"
     d="m 390.55768,216.50157 c -1.21467,-0.0256 -2.48864,0.24157 -3.78599,0.82351 -6.2394,2.79878 -7.84045,9.44968 -6.31953,26.23846 0.50906,5.61951 1.43898,13.63751 2.06648,17.81966 1.17712,7.84506 1.80681,12.73498 2.93958,22.81296 0.36159,3.21704 1.16945,9.0065 1.79576,12.86697 1.87929,11.5831 2.77642,19.62173 2.74323,24.56822 -0.0416,6.20212 -0.73658,4.21256 -1.63755,-4.68013 -0.39113,-3.86044 -1.33394,-10.70413 -2.09506,-15.20798 -0.76111,-4.50387 -1.77969,-12.39982 -2.26282,-17.54708 -0.48313,-5.14728 -1.79627,-15.14973 -2.91671,-22.22721 -1.12042,-7.0775 -2.32069,-14.78226 -2.66887,-17.12182 -0.79633,-5.35072 -2.8572,-8.52805 -6.18799,-9.54002 -2.66117,-0.80849 -4.30469,-0.48889 -7.01726,1.36479 -5.10383,3.48784 -6.0792,9.41462 -5.54174,33.68686 0.22382,10.10765 0.72676,19.54248 1.20482,22.60997 0.45121,2.89535 1.63083,14.34513 2.62122,25.44395 0.99037,11.09879 2.30547,22.6816 2.92242,25.73779 0.61695,3.05621 1.63463,9.37181 2.26092,14.03651 0.6263,4.6647 1.30772,9.53487 1.51555,10.8217 0.44979,2.78502 0.82372,3.09093 -6.4301,-5.26394 -3.0661,-3.53148 -7.49345,-7.72938 -11.17497,-10.59552 -5.25142,-4.08835 -6.79111,-4.96162 -11.0854,-6.28849 -5.86679,-1.81274 -6.22479,-1.82967 -12.60662,-0.58767 -3.4263,0.6668 -5.31919,1.35716 -6.28713,2.29463 -1.32296,1.28137 -1.35064,1.46471 -0.631,4.07118 0.88232,3.19561 6.44691,10.82502 13.86103,19.00274 4.44813,4.90628 5.55341,6.60287 9.444,14.4966 3.87726,7.86662 6.68096,15.006 10.10934,25.74359 0.54405,1.70392 2.8492,5.83762 5.12235,9.18627 3.19911,4.71271 4.90263,6.61962 7.5434,8.43814 1.8764,1.29215 5.55373,4.21934 8.17057,6.50499 7.73353,6.75472 17.41386,12.91326 24.7691,15.75894 3.10022,1.19943 8.5263,4.68684 8.97316,5.76654 0.21972,0.5309 3.21702,9.36902 6.66076,19.64069 3.44373,10.27168 6.53614,18.9578 6.87237,19.30236 0.33624,0.34456 3.26118,0.91808 6.50062,1.27394 3.23947,0.35587 9.87769,0.6844 14.75127,0.73072 8.40997,0.0799 9.36507,-0.0328 18.747,-2.21922 11.45168,-2.66886 22.39587,-6.81696 29.75036,-11.27408 2.7151,-1.64544 5.06247,-3.09868 5.21576,-3.22834 0.32039,-0.27102 -1.84418,-4.3782 -10.11888,-19.19217 -3.24191,-5.80398 -6.86892,-12.90976 -8.05809,-15.79179 l -2.16181,-5.24075 -0.14296,-23.1029 c -0.1878,-30.07027 -1.21656,-45.15233 -4.30452,-63.17107 -2.32297,-13.55484 -2.39449,-13.81576 -5.13569,-18.71858 -1.52886,-2.73447 -3.8612,-7.96959 -5.18335,-11.63359 -1.32214,-3.66401 -3.29382,-8.71635 -4.38267,-11.22767 -3.11881,-7.19316 -7.74022,-24.57909 -10.4029,-39.14022 -1.92601,-10.53246 -6.23872,-22.41124 -9.90918,-27.29203 -0.765,-1.01726 -2.4221,-2.26824 -3.68305,-2.77987 -1.98125,-0.80387 -2.54702,-0.82305 -4.15393,-0.13338 -3.19115,1.36964 -4.1079,2.93088 -4.3579,7.41745 -0.20841,3.74001 1.03295,16.2873 2.28379,23.08166 0.29616,1.60854 0.78943,4.76729 1.09616,7.01922 1.18222,8.67946 5.0613,28.33225 7.5453,38.22777 1.85272,7.38063 2.01897,8.72017 0.79495,6.43543 -2.94561,-5.4982 -9.64545,-36.11564 -11.82123,-54.02346 -0.3518,-2.89533 -1.12813,-7.89655 -1.72525,-11.1136 -0.59713,-3.21704 -1.25206,-7.033 -1.45452,-8.48065 -0.634,-4.53293 -5.49569,-21.20899 -6.67221,-22.88449 -1.49815,-2.13352 -4.33648,-3.8182 -7.15832,-4.24904 -2.50524,-0.3825 -4.24959,0.70347 -6.35193,3.95713 -1.26529,1.95823 -0.99067,6.83456 1.48694,26.39312 0.93732,7.39919 2.21704,17.79673 2.84236,23.10485 1.0284,8.72986 2.22836,16.10622 5.75335,35.33968 1.40789,7.68181 1.41514,7.85692 0.25734,6.68285 -0.53484,-0.54235 -1.36997,-3.56493 -2.01309,-7.28986 -3.40371,-19.71373 -3.84622,-22.59685 -6.05836,-39.41278 -0.48668,-3.6996 -1.23639,-8.56785 -1.66614,-10.81978 -0.42974,-2.25193 -0.94171,-6.72701 -1.13808,-9.94405 -0.19634,-3.21704 -0.6006,-7.4281 -0.89788,-9.35834 -0.29729,-1.93022 -0.79578,-6.66933 -1.10759,-10.52976 -0.31182,-3.86047 -0.98504,-8.24373 -1.49648,-9.74111 -1.65645,-4.84949 -4.77251,-7.57254 -8.41651,-7.6494 z m 66.40362,36.74121 c 0.0648,-0.0263 0.13992,0 0.2097,0 -0.0698,0 -0.14489,-0.0263 -0.2097,0 z"
     id="path8122-4"
     inkscape:connector-curvature="0" />
  <path
     style="fill:#000000;stroke:#ffffff;stroke-width:2.99980998;stroke-miterlimit:4;stroke-dasharray:none;stroke-opacity:1"
     d="m 109.44232,216.50156 c 1.21467,-0.0256 2.48864,0.24157 3.78599,0.82351 6.2394,2.79878 7.84045,9.44968 6.31953,26.23846 -0.50906,5.61952 -1.43898,13.63752 -2.06648,17.81967 -1.17712,7.84506 -1.80681,12.73498 -2.93958,22.81296 -0.36159,3.21704 -1.16945,9.0065 -1.79576,12.86697 -1.87929,11.5831 -2.77642,19.62173 -2.74323,24.56822 0.0416,6.20212 0.73658,4.21256 1.63755,-4.68013 0.39113,-3.86044 1.33394,-10.70413 2.09506,-15.20798 0.76111,-4.50387 1.77969,-12.39982 2.26282,-17.54708 0.48313,-5.14728 1.79627,-15.14973 2.91671,-22.22721 1.12042,-7.0775 2.32069,-14.78226 2.66887,-17.12183 0.79633,-5.35072 2.8572,-8.52805 6.18799,-9.54002 2.66117,-0.80849 4.30469,-0.48889 7.01726,1.36479 5.10383,3.48784 6.0792,9.41462 5.54174,33.68687 -0.22382,10.10765 -0.72676,19.54248 -1.20482,22.60997 -0.45121,2.89535 -1.63083,14.34513 -2.62122,25.44395 -0.99037,11.09879 -2.30547,22.6816 -2.92242,25.73779 -0.61695,3.05621 -1.63463,9.37181 -2.26092,14.03651 -0.6263,4.6647 -1.30772,9.53487 -1.51555,10.8217 -0.44979,2.78502 -0.82372,3.09093 6.4301,-5.26394 3.0661,-3.53148 7.49345,-7.72938 11.17497,-10.59552 5.25142,-4.08835 6.79111,-4.96162 11.0854,-6.28849 5.86679,-1.81274 6.22479,-1.82967 12.60662,-0.58767 3.4263,0.6668 5.31919,1.35716 6.28713,2.29463 1.32296,1.28137 1.35064,1.46471 0.631,4.07118 -0.88232,3.19561 -6.44691,10.82502 -13.86103,19.00274 -4.44813,4.90628 -5.55341,6.60287 -9.444,14.4966 -3.87726,7.86662 -6.68096,15.006 -10.10934,25.74359 -0.54405,1.70392 -2.8492,5.83762 -5.12235,9.18627 -3.19911,4.71271 -4.90263,6.61962 -7.5434,8.43814 -1.8764,1.29215 -5.55373,4.21934 -8.17057,6.50499 -7.73353,6.75472 -17.41386,12.91326 -24.7691,15.75894 -3.10022,1.19943 -8.5263,4.68684 -8.97316,5.76654 -0.21972,0.5309 -3.21702,9.36902 -6.66076,19.64069 -3.44372,10.27168 -6.53613,18.9578 -6.87236,19.30236 -0.33624,0.34456 -3.26118,0.91808 -6.50062,1.27394 -3.23947,0.35587 -9.87769,0.6844 -14.75127,0.73072 -8.40997,0.0799 -9.36507,-0.0328 -18.747,-2.21922 -11.45168,-2.66886 -22.39587,-6.81696 -29.7503597,-11.27408 -2.7151,-1.64544 -5.06247,-3.09868 -5.21576,-3.22834 -0.32039,-0.27102 1.84418,-4.3782 10.1188797,-19.19217 3.24191,-5.80398 6.86892,-12.90976 8.05809,-15.79179 l 2.16181,-5.24075 0.14296,-23.1029 c 0.1878,-30.07027 1.21656,-45.15233 4.30452,-63.17107 2.32297,-13.55484 2.39449,-13.81576 5.13569,-18.71858 1.52886,-2.73447 3.8612,-7.96959 5.18335,-11.63359 1.32214,-3.66401 3.29382,-8.71635 4.38267,-11.22767 3.11881,-7.19316 7.74022,-24.57909 10.4029,-39.14022 1.92601,-10.53246 6.23872,-22.41124 9.90918,-27.29203 0.765,-1.01727 2.4221,-2.26825 3.68305,-2.77988 1.98125,-0.80387 2.54702,-0.82305 4.15393,-0.13338 3.19115,1.36964 4.1079,2.93089 4.3579,7.41746 0.20841,3.74001 -1.03295,16.2873 -2.28379,23.08166 -0.29616,1.60854 -0.78943,4.76729 -1.09616,7.01922 -1.18222,8.67946 -5.0613,28.33225 -7.5453,38.22777 -1.85272,7.38063 -2.01897,8.72017 -0.79495,6.43543 2.94561,-5.4982 9.64545,-36.11564 11.82123,-54.02346 0.3518,-2.89533 1.12813,-7.89655 1.72525,-11.1136 0.59713,-3.21704 1.25206,-7.033 1.45452,-8.48065 0.634,-4.53293 5.49568,-21.209 6.6722,-22.8845 1.49815,-2.13352 4.33648,-3.8182 7.15832,-4.24904 2.50524,-0.3825 4.24959,0.70347 6.35193,3.95713 1.26529,1.95823 0.99067,6.83456 -1.48694,26.39313 -0.93732,7.39919 -2.21704,17.79673 -2.84236,23.10485 -1.0284,8.72986 -2.22836,16.10622 -5.75335,35.33968 -1.40789,7.68181 -1.41514,7.85692 -0.25734,6.68285 0.53484,-0.54235 1.36997,-3.56493 2.01309,-7.28986 3.40371,-19.71373 3.84622,-22.59685 6.05836,-39.41278 0.48668,-3.6996 1.23639,-8.56785 1.66614,-10.81978 0.42974,-2.25193 0.94171,-6.72701 1.13808,-9.94405 0.19634,-3.21704 0.6006,-7.42811 0.89788,-9.35835 0.29729,-1.93022 0.79578,-6.66933 1.10759,-10.52976 0.31182,-3.86047 0.98504,-8.24373 1.49648,-9.74111 1.65645,-4.84949 4.77251,-7.57254 8.41651,-7.6494 z m -66.40361,36.74122 c -0.0648,-0.0263 -0.13992,0 -0.2097,0 0.0698,0 0.14489,-0.0263 0.2097,0 z"
     id="path8122-4-9"
     inkscape:connector-curvature="0" />
</svg>
