<?xml version="1.0" encoding="UTF-8" standalone="no"?>
<!-- Created with Inkscape (http://www.inkscape.org/) -->

<svg
   xmlns:dc="http://purl.org/dc/elements/1.1/"
   xmlns:cc="http://creativecommons.org/ns#"
   xmlns:rdf="http://www.w3.org/1999/02/22-rdf-syntax-ns#"
   xmlns:svg="http://www.w3.org/2000/svg"
   xmlns="http://www.w3.org/2000/svg"
   xmlns:sodipodi="http://sodipodi.sourceforge.net/DTD/sodipodi-0.dtd"
   xmlns:inkscape="http://www.inkscape.org/namespaces/inkscape"
   id="svg2"
   version="1.1"
   inkscape:version="0.91 r13725"
   width="500"
   height="500"
   viewBox="0 0 500 500"
   sodipodi:docname="A4d1.svg">
  <metadata
     id="metadata8">
    <rdf:RDF>
      <cc:Work
         rdf:about="">
        <dc:format>image/svg+xml</dc:format>
        <dc:type
           rdf:resource="http://purl.org/dc/dcmitype/StillImage" />
        <dc:title></dc:title>
      </cc:Work>
    </rdf:RDF>
  </metadata>
  <defs
     id="defs6" />
  <sodipodi:namedview
     pagecolor="#ffffff"
     bordercolor="#666666"
     borderopacity="1"
     objecttolerance="10"
     gridtolerance="10"
     guidetolerance="10"
     inkscape:pageopacity="0"
     inkscape:pageshadow="2"
     inkscape:window-width="2560"
     inkscape:window-height="1413"
     id="namedview4"
     showgrid="false"
     fit-margin-top="0"
     fit-margin-left="0"
     fit-margin-right="0"
     fit-margin-bottom="0"
     inkscape:zoom="0.82408494"
     inkscape:cx="-251.12154"
     inkscape:cy="158.07886"
     inkscape:window-x="0"
     inkscape:window-y="27"
     inkscape:window-maximized="0"
     inkscape:current-layer="svg2" />
  <path
     style="fill:#000000"
     d="m 183.59501,234.30707 66.40499,0 66.40499,0 1.37902,1.46856 c 1.10896,1.18043 2.09735,4.61479 5.04913,17.53573 3.24879,14.22113 3.58226,16.23917 2.89362,17.5434 -1.0402,1.97008 -9.13262,9.78502 -13.53812,13.07505 -5.02448,3.75228 -14.57604,8.96458 -20.70183,11.29691 -6.70399,2.55248 -17.99218,5.74746 -27.19777,7.69715 -10.06443,2.13158 -19.32931,2.06881 -29.61553,-0.20085 -26.75266,-5.90297 -41.62737,-12.91059 -55.01086,-25.9147 -2.53618,-2.46429 -4.96145,-5.14303 -5.38941,-5.95356 -0.68864,-1.30423 -0.35645,-3.32227 2.89234,-17.5434 2.95178,-12.92094 3.94145,-16.3553 5.05041,-17.53573 l 1.37902,-1.46856 z"
     id="path8774"
     inkscape:connector-curvature="0" />
  <path
     style="fill:#000000"
     d="m 50.297632,227.2956 c -0.435371,-0.0948 -1.326962,-0.0126 -2.998522,0.17653 -12.385358,1.40125 -22.318707,9.5259 -26.37395,21.57171 -1.501125,4.45908 -1.502704,13.8024 -0.0039,18.27384 2.043253,6.09546 5.717923,11.47055 10.263288,15.01181 1.4504,1.12999 2.847507,1.92429 3.104699,1.76534 0.257191,-0.15895 0.791894,-1.2794 1.188407,-2.49067 0.396514,-1.21126 1.631925,-4.1923 2.745235,-6.62387 2.279349,-4.9783 7.071893,-21.84144 8.97382,-31.57658 1.269903,-6.50006 2.741069,-13.1671 3.359267,-15.22288 0.156046,-0.51892 0.176965,-0.79049 -0.258406,-0.88523 z"
     id="path8772"
     inkscape:connector-curvature="0" />
  <path
     style="fill:#000000"
     d="m 388.4642,178.75894 c -1.24134,-0.0258 -2.54257,0.24502 -3.8684,0.8315 -6.37641,2.82058 -8.01316,9.52098 -6.45885,26.44047 0.52025,5.66326 1.47073,13.74571 2.11201,17.96043 1.20295,7.90613 1.84728,12.83266 3.00492,22.9891 0.36954,3.24208 1.19563,9.07836 1.8357,12.96886 1.92053,11.67329 2.83794,19.77201 2.80408,24.757 -0.0424,6.25039 -0.75505,4.24664 -1.6758,-4.71525 -0.39971,-3.89051 -1.36233,-10.78757 -2.14015,-15.32649 -0.77782,-4.53893 -1.81912,-12.49678 -2.31285,-17.68412 -0.49374,-5.18735 -1.83431,-15.26678 -2.97934,-22.39938 -1.14502,-7.13259 -2.37277,-14.89781 -2.72861,-17.25557 -0.81381,-5.39239 -2.92062,-8.59488 -6.32453,-9.61472 -2.71956,-0.8148 -4.398,-0.49166 -7.17009,1.37646 -5.21586,3.51497 -6.21243,9.48837 -5.66317,33.94957 0.22873,10.18634 0.74335,19.69432 1.2319,22.7857 0.46112,2.91788 1.6666,14.45702 2.67871,25.64222 1.01211,11.18521 2.35526,22.85647 2.98574,25.93646 0.63048,3.07998 1.67025,9.44601 2.31029,14.14704 0.64004,4.70102 1.33804,9.60862 1.55043,10.90546 0.45966,2.80671 0.84034,3.11492 -6.5727,-5.30498 -3.1334,-3.55898 -7.65867,-7.79057 -11.421,-10.67904 -5.36668,-4.12018 -6.93906,-4.99885 -11.3276,-6.33604 -5.99557,-1.82685 -6.36124,-1.84393 -12.88316,-0.59229 -3.50149,0.67199 -5.43641,1.36809 -6.42559,2.31286 -1.352,1.29135 -1.38146,1.47574 -0.64601,4.1025 0.90168,3.22048 6.58939,10.90874 14.16623,19.15012 4.54578,4.94447 5.67581,6.65494 9.65181,14.61012 3.96236,7.92787 6.82745,15.1217 10.33109,25.94285 0.556,1.71721 2.91158,5.8831 5.23462,9.25781 3.26934,4.74941 5.01121,6.67167 7.70994,8.50434 1.91759,1.30222 5.67399,4.25265 8.34827,6.55608 7.90328,6.80729 17.79676,13.01383 25.31347,15.88167 3.16826,1.20878 8.71289,4.72217 9.16954,5.81028 0.22455,0.53503 3.28749,9.44192 6.8068,19.79357 3.51933,10.35166 6.68066,19.10606 7.02427,19.4533 0.34362,0.34724 3.3325,0.92444 6.64306,1.28308 3.31056,0.35863 10.09519,0.6902 15.07576,0.73683 8.59455,0.0805 9.56994,-0.0339 19.1578,-2.23738 11.70304,-2.68963 22.8876,-6.86904 30.40354,-11.36087 2.77469,-1.65826 5.17391,-3.12114 5.33056,-3.25181 0.32742,-0.27313 -1.8863,-4.41271 -10.3426,-19.34201 -3.3131,-5.84916 -7.01787,-13.01046 -8.23315,-15.91493 l -2.20923,-5.28196 -0.14839,-23.28332 c -0.19194,-30.30435 -1.24098,-45.50459 -4.39673,-63.6636 -2.37395,-13.66037 -2.44733,-13.92131 -5.24869,-18.86229 -1.56243,-2.75578 -3.94614,-8.03165 -5.2973,-11.72417 -1.35118,-3.69254 -3.36712,-8.78522 -4.47988,-11.3161 -3.18726,-7.24915 -7.90928,-24.76938 -10.63043,-39.44387 -1.96827,-10.61446 -6.37664,-22.58728 -10.12769,-27.50607 -0.7818,-1.02518 -2.47487,-2.28591 -3.7635,-2.80152 -2.02473,-0.81014 -2.60104,-0.82809 -4.24322,-0.13304 -3.26121,1.38029 -4.1988,2.95305 -4.45429,7.47456 -0.21298,3.76912 1.05501,16.41303 2.33332,23.26029 0.30264,1.62105 0.80715,4.8047 1.12061,7.07416 1.20816,8.74703 5.17269,28.55411 7.71122,38.52667 1.89337,7.43806 2.06194,8.78695 0.81103,6.48443 -3.01027,-5.54099 -9.85625,-36.39565 -12.0798,-54.44289 -0.3595,-2.91788 -1.15255,-7.95759 -1.76278,-11.19968 -0.61025,-3.24209 -1.27955,-7.0889 -1.48647,-8.54784 -0.64791,-4.5682 -5.61852,-21.37475 -6.82087,-23.06329 -1.53102,-2.15013 -4.43089,-3.84868 -7.31465,-4.28287 -2.56025,-0.38549 -4.34234,0.70963 -6.49083,3.98864 -1.29307,1.97347 -1.011,6.88957 1.521,26.60038 0.95789,7.4568 2.26354,17.93387 2.90258,23.28332 1.05098,8.79782 2.27956,16.23324 5.88192,35.61641 1.43879,7.74163 1.44546,7.9171 0.26224,6.73389 -0.54658,-0.54658 -1.39976,-3.59274 -2.057,-7.34664 -3.47842,-19.86722 -3.93081,-22.77207 -6.19149,-39.71891 -0.49737,-3.72841 -1.26476,-8.636 -1.70394,-10.90547 -0.43919,-2.26946 -0.96216,-6.77814 -1.16282,-10.02023 -0.20067,-3.24209 -0.6134,-7.48653 -0.91721,-9.43179 -0.30381,-1.94525 -0.81348,-6.72073 -1.13213,-10.61123 -0.31865,-3.89051 -1.00599,-8.30781 -1.52868,-9.81684 -1.6928,-4.88725 -4.87885,-7.63246 -8.60284,-7.70993 z m 61.23689,48.53666 c -0.43623,0.0948 -0.41573,0.36649 -0.26225,0.88523 0.77425,2.61692 2.09283,8.57879 3.05098,13.78885 1.74903,9.51058 6.68938,26.98515 9.48295,33.54406 1.46317,3.43531 2.90997,6.85189 3.21472,7.59352 0.71759,1.74634 1.83339,1.18305 6.0917,-3.07528 6.14378,-6.14376 8.88684,-12.88816 8.88684,-21.85186 0,-4.1769 -0.31908,-6.83898 -1.09247,-9.13628 -4.05524,-12.04581 -13.98731,-20.17046 -26.37267,-21.57171 -1.67098,-0.18904 -2.56358,-0.2713 -2.9998,-0.17653 z"
     id="path8770"
     inkscape:connector-curvature="0" />
  <path
     style="fill:#000000"
     d="m 111.53452,178.75894 c -3.72399,0.0775 -6.90876,2.82268 -8.60156,7.70993 -0.52268,1.50903 -1.21131,5.92633 -1.52996,9.81684 -0.31865,3.8905 -0.82703,8.66598 -1.13084,10.61123 -0.303809,1.94526 -0.716556,6.1897 -0.917219,9.43179 -0.200656,3.24209 -0.724911,7.75077 -1.1641,10.02023 -0.439181,2.26947 -1.20529,7.17706 -1.702659,10.90547 -2.260679,16.94684 -2.713072,19.85169 -6.191485,39.71891 -0.657247,3.7539 -1.510427,6.80006 -2.05701,7.34664 -1.183638,1.18363 -1.177134,1.00595 0.264803,-6.73389 2.724802,-14.6258 5.183667,-29.07425 5.559546,-32.66906 0.220351,-2.10735 1.427429,-11.92127 2.68255,-21.80964 3.091302,-24.35461 3.398374,-28.97814 2.059565,-31.02141 -2.14849,-3.27901 -3.929307,-4.37413 -6.489548,-3.98864 -2.883769,0.43419 -5.784908,2.13274 -7.315933,4.28287 -1.20235,1.68854 -6.171686,18.49509 -6.819593,23.06329 -0.206917,1.45894 -0.876222,5.30575 -1.486468,8.54784 -0.610233,3.24209 -1.398846,8.2818 -1.752548,11.19968 -1.130933,9.32978 -2.731981,17.95247 -6.566304,35.36824 -2.115556,9.60901 -4.094238,16.44339 -5.523731,19.07465 -1.250902,2.30252 -1.082333,0.95363 0.811034,-6.48443 2.538529,-9.97256 6.503057,-29.77964 7.711216,-38.52667 0.313461,-2.26946 0.816699,-5.45311 1.119333,-7.07416 1.278313,-6.84726 2.547574,-19.49117 2.334599,-23.26029 -0.25549,-4.52151 -1.193082,-6.09427 -4.454289,-7.47456 -1.64218,-0.69505 -2.218486,-0.6771 -4.243218,0.13304 -1.288628,0.51561 -2.982988,1.77634 -3.764783,2.80152 -3.751044,4.91879 -8.158141,16.89161 -10.12641,27.50607 -2.721146,14.67449 -7.443163,32.19472 -10.630428,39.44387 -1.112761,2.53088 -3.128707,7.62356 -4.479874,11.3161 -1.351166,3.69252 -3.734881,8.96839 -5.297304,11.72417 -2.801359,4.94098 -2.874731,5.20192 -5.248694,18.86229 -3.155755,18.15901 -4.206075,33.35925 -4.398004,63.6636 l -0.147111,23.28332 -2.209236,5.28196 c -1.215272,2.90448 -4.920043,10.06577 -8.233143,15.91493 -8.4562968,14.9293 -10.67002759,19.06888 -10.3426028,19.34201 0.1566551,0.13067 2.554602,1.59355 5.3292861,3.25181 7.3199027,4.37467 18.7129117,8.66912 30.0287197,11.31866 8.640673,2.02317 10.614474,2.2831 17.684119,2.32437 4.376819,0.0255 11.367617,-0.27267 15.535007,-0.66137 6.571131,-0.6129 7.67815,-0.86649 8.336766,-1.91757 0.417685,-0.66659 3.338978,-8.90505 6.492102,-18.30711 7.621502,-22.72597 6.842896,-21.03427 10.792893,-23.42276 1.841938,-1.11378 4.276426,-2.3801 5.411156,-2.81303 7.34586,-2.80265 17.5002,-9.12899 24.77619,-15.43651 2.35862,-2.04467 6.15828,-5.04893 8.44421,-6.67759 3.33416,-2.37549 4.97763,-4.15665 8.3099,-9.00324 2.28465,-3.32288 4.58709,-7.42875 5.11566,-9.1235 2.98808,-9.58067 6.29606,-17.90543 10.29271,-25.90191 3.976,-7.95518 5.10603,-9.66565 9.65181,-14.61012 7.57684,-8.24138 13.26327,-15.92964 14.16495,-19.15012 0.73545,-2.62676 0.70728,-2.81115 -0.64473,-4.1025 -0.98917,-0.94477 -2.92538,-1.64087 -6.42687,-2.31286 -6.53123,-1.25343 -6.89228,-1.23609 -12.88188,0.61276 -4.35136,1.34316 -6.00748,2.26917 -11.32761,6.33604 -3.80696,2.91016 -8.25042,7.05736 -11.42099,10.65857 -7.41304,8.4199 -7.03237,8.11169 -6.5727,5.30498 0.21239,-1.29684 0.91039,-6.20444 1.55043,-10.90546 0.64004,-4.70103 1.67981,-11.06706 2.31029,-14.14704 0.63048,-3.07999 1.97363,-14.75125 2.98574,-25.93646 1.0121,-11.1852 2.21759,-22.72434 2.67871,-25.64222 0.48855,-3.09138 1.0019,-12.59936 1.23062,-22.7857 0.54927,-24.4612 -0.44731,-30.4346 -5.66317,-33.94957 -2.77209,-1.86811 -4.45053,-2.19126 -7.17009,-1.37646 -3.40391,1.01984 -5.50945,4.22233 -6.32326,9.61472 -0.35583,2.35776 -1.58357,10.12298 -2.7286,17.25557 -1.14503,7.1326 -2.48688,17.21203 -2.98062,22.39938 -0.49373,5.18734 -1.53375,13.14519 -2.31156,17.68412 -0.77782,4.53892 -1.74045,11.43598 -2.14016,15.32649 -0.92075,8.96189 -1.63336,10.96564 -1.6758,4.71525 -0.0339,-4.98499 0.88355,-13.08371 2.80408,-24.757 0.64008,-3.8905 1.46616,-9.72678 1.8357,-12.96886 1.15764,-10.15644 1.80197,-15.08297 3.00492,-22.9891 0.64128,-4.21472 1.59048,-12.29717 2.11073,-17.96043 1.55431,-16.91949 -0.0824,-23.61989 -6.45884,-26.44047 -1.32584,-0.58648 -2.62708,-0.85733 -3.86841,-0.8315 z m 36.05135,48.47397 -0.36458,2.21052 c -0.20095,1.21578 -0.37085,5.9252 -0.37609,10.46413 -0.005,4.53892 -0.27677,9.84415 -0.6038,11.78941 -0.92792,5.5194 -4.16088,38.05767 -3.83386,38.58679 0.16075,0.26011 2.08612,0.65797 4.27903,0.88395 5.48193,0.5649 19.03527,4.54138 27.23999,7.99137 8.08601,3.40009 18.78439,7.0417 26.61957,9.06209 11.01363,2.83998 28.2225,5.95135 39.13813,7.07671 4.8018,0.49505 24.35901,-0.21782 30.06326,-1.0963 21.92002,-3.37572 40.17133,-8.25019 56.32464,-15.0425 8.20472,-3.44999 21.75806,-7.42647 27.23999,-7.99137 2.19292,-0.22598 4.11955,-0.62384 4.28032,-0.88395 0.32701,-0.52912 -2.90595,-33.06739 -3.83387,-38.58679 -0.32703,-1.94526 -0.59984,-7.25049 -0.60508,-11.78941 -0.005,-4.53893 -0.17385,-9.24835 -0.37481,-10.46413 l -0.36586,-2.21052 -102.41285,0 -102.41413,0 z"
     id="path8768"
     inkscape:connector-curvature="0" />
  <path
     style="fill:#000000"
     d="m 119.43251,105.21326 c -8.15435,0 -8.54784,0.0534 -8.54784,1.17817 0,1.12478 0.39349,1.17946 8.54784,1.17946 8.15434,0 8.54656,-0.0547 8.54656,-1.17946 0,-1.12477 -0.39222,-1.17817 -8.54656,-1.17817 z"
     id="path8758"
     inkscape:connector-curvature="0" />
  <path
     style="fill:#000000"
     d="m 150.96816,93.423849 0,1.473677 c 0,1.468437 0.0202,1.473676 5.60049,1.473676 3.07998,0 5.59975,0.198179 5.5992,0.441336 -6.5e-4,0.344945 -3.2023,10.979642 -6.83238,22.694872 -0.2535,0.81813 0.0326,1.03234 1.38285,1.03234 l 1.70266,0 3.64453,-12.23203 c 2.00489,-6.72733 3.64523,-12.827837 3.64326,-13.557307 -0.003,-1.304564 -0.12476,-1.326564 -7.37222,-1.326564 l -7.36839,0 z"
     id="path8756"
     inkscape:connector-curvature="0" />
  <path
     style="fill:#000000"
     d="m 81.116916,92.834122 c -0.486313,0 -0.885227,0.277645 -0.885227,0.616591 0,1.187187 -2.907925,3.510215 -4.394164,3.510215 -0.940769,0 -1.500543,0.329567 -1.500543,0.883951 0,0.617542 0.622475,0.88395 2.063403,0.88395 l 2.063402,0 0,10.609961 0,10.61124 1.767902,0 1.769178,0 0,-13.5586 c 0,-11.658416 -0.123619,-13.557308 -0.883951,-13.557308 z m 58.947064,0 c -0.48631,0 -0.88523,0.277645 -0.88523,0.616591 0,1.187187 -2.90792,3.510215 -4.39416,3.510215 -0.94078,0 -1.50054,0.329567 -1.50054,0.883951 0,0.617542 0.62247,0.88395 2.0634,0.88395 l 2.0634,0 0,10.609961 0,10.61124 1.7679,0 1.76918,0 0,-13.5586 c 0,-11.658416 -0.12362,-13.557308 -0.88395,-13.557308 z m -46.695847,0.589727 -0.378649,3.622788 c -0.208293,1.992811 -0.378657,5.043063 -0.378657,6.778653 0,2.8293 0.130201,3.15587 1.258762,3.15587 0.692294,0 1.873823,-0.66315 2.624992,-1.47368 1.651434,-1.78193 3.939289,-1.90296 5.548029,-0.29422 1.7098,1.70978 1.68388,8.04206 -0.0422,10.23643 -1.64162,2.08698 -4.167371,2.08698 -5.808994,0 -0.671951,-0.85425 -1.222949,-2.04844 -1.222949,-2.65313 0,-0.8384 -0.437374,-1.09887 -1.842096,-1.09887 -1.757703,0 -1.824444,0.0857 -1.464723,1.88432 0.538436,2.69218 1.931964,4.56908 4.088431,5.50709 2.416738,1.05123 4.088798,1.05807 6.559901,0.0256 2.40144,-1.00339 3.59372,-2.69555 4.38138,-6.21963 0.75981,-3.39946 -0.12951,-7.69613 -1.94572,-9.40236 -1.83926,-1.7279 -5.078254,-2.18823 -7.367096,-1.04641 -1.753937,0.87498 -1.820501,0.86124 -1.813952,-0.37354 0.0033,-0.70462 0.1713,-2.275243 0.372257,-3.491027 l 0.365859,-2.210515 4.932722,0 c 4.86932,0 4.934,-0.01914 4.934,-1.473676 l 0,-1.473677 -6.401283,0 -6.400001,0 z"
     id="path8754"
     inkscape:connector-curvature="0" />
  <g
     id="g8776"
     transform="matrix(0.65496737,0,0,0.65496737,1.2224128,37.017344)">
    <path
       id="path8766"
       d="m 407.73242,174.32031 0,23.40039 0,23.40039 23.39844,0 23.40039,0 0,-23.40039 0,-23.40039 -23.40039,0 -23.39844,0 z"
       style="fill:#000000"
       inkscape:connector-curvature="0" />
    <path
       id="path8764"
       d="m 305.13086,174.32031 0,23.40039 0,23.40039 23.40039,0 23.40039,0 0,-23.40039 0,-23.40039 -23.40039,0 -23.40039,0 z m 51.30078,0 0,23.40039 0,23.40039 23.40039,0 23.40039,0 0,-23.40039 0,-23.40039 -23.40039,0 -23.40039,0 z"
       style="fill:#000000"
       inkscape:connector-curvature="0" />
    <path
       id="path8762"
       d="m 407.73242,123.02148 0,23.39844 0,23.40039 23.39844,0 23.40039,0 0,-23.40039 0,-23.39844 -23.40039,0 -23.39844,0 z"
       style="fill:#000000"
       inkscape:connector-curvature="0" />
    <path
       id="path8760"
       d="m 305.13086,123.02148 0,23.39844 0,23.40039 23.40039,0 23.40039,0 0,-23.40039 0,-23.39844 -23.40039,0 -23.40039,0 z m 51.30078,0 0,23.39844 0,23.40039 23.40039,0 23.40039,0 0,-23.40039 0,-23.39844 -23.40039,0 -23.40039,0 z"
       style="fill:#000000"
       inkscape:connector-curvature="0" />
    <path
       id="path8752"
       d="m 407.73242,71.720703 0,23.400391 0,23.400386 23.39844,0 23.40039,0 0,-23.400386 0,-23.400391 -23.40039,0 -23.39844,0 z"
       style="fill:#000000"
       inkscape:connector-curvature="0" />
    <path
       id="path8750"
       d="m 305.13086,71.720703 0,23.400391 0,23.400386 23.40039,0 23.40039,0 0,-23.400386 0,-23.400391 -23.40039,0 -23.40039,0 z m 51.30078,0 0,23.400391 0,23.400386 23.40039,0 23.40039,0 0,-23.400386 0,-23.400391 -23.40039,0 -23.40039,0 z"
       style="fill:#000000"
       inkscape:connector-curvature="0" />
  </g>
  <path
     style="fill:#000000"
     d="m 123.74097,37.022459 c -1.10489,-0.02292 -2.58719,0.02561 -4.25985,0.148389 l -5.70538,0.418308 0.17525,2.988289 c 0.1546,2.635039 0.34949,3.028563 1.64638,3.332408 1.40526,0.329233 2.4958,2.356344 1.26772,2.356344 -2.53213,0 -10.61308,1.543765 -14.50395,2.77082 -4.856266,1.53151 -11.678484,4.701624 -14.674082,6.818315 -1.393247,0.984468 -1.771693,1.046677 -2.206677,0.367135 -0.356342,-0.556689 -0.164233,-1.120446 0.59868,-1.756386 1.095897,-0.913523 1.079713,-1.006535 -0.656245,-3.675232 l -1.780693,-2.737561 -4.891787,3.37973 c -5.407378,3.737362 -5.331134,3.456545 -2.08131,7.764946 0.985772,1.306857 1.083945,1.321194 2.534161,0.37098 1.039296,-0.680976 1.634471,-0.787192 1.909891,-0.341558 0.222342,0.35976 -1.423002,2.566542 -3.704659,4.968543 -17.999193,18.948469 -22.263326,45.771381 -10.878597,68.427461 8.756018,17.42485 25.609861,29.76729 44.649078,32.69592 5.66811,0.87188 18.17769,0.2964 23.38821,-1.07583 10.58976,-2.78891 19.39138,-7.75084 27.21441,-15.34312 7.87413,-7.64188 13.35927,-17.07065 16.44071,-28.25827 1.8111,-6.57547 1.8111,-22.514293 0,-29.089759 -2.975,-10.801198 -7.85983,-19.454723 -15.31115,-27.118466 -2.54511,-2.617662 -4.22851,-4.805882 -3.9912,-5.189843 0.28996,-0.469186 0.85355,-0.373928 1.92013,0.324922 1.45021,0.950214 1.54839,0.935877 2.53416,-0.37098 3.24983,-4.308401 3.32606,-4.027584 -2.08131,-7.764946 l -4.89179,-3.37973 -1.78069,2.737561 c -1.73596,2.668697 -1.75215,2.761709 -0.65625,3.675232 0.64964,0.54152 0.93538,1.229432 0.67671,1.631026 -0.31735,0.492731 -1.37439,0.111272 -3.63046,-1.311219 -6.42437,-4.050685 -16.2329,-7.362036 -24.3873,-8.23442 -3.20412,-0.342784 -3.97124,-0.61713 -3.82747,-1.363662 0.0989,-0.513651 0.8414,-1.088588 1.65021,-1.277953 1.28297,-0.300374 1.49438,-0.708111 1.65405,-3.201925 0.10066,-1.572178 -0.0643,-3.106236 -0.36586,-3.407874 -0.1608,-0.160808 -0.88815,-0.254678 -1.99304,-0.277595 z m 68.22918,39.695884 121.60134,0 -121.60134,0 z m -121.16897,5.505819 49.21978,0 49.22105,0 0,22.989098 0,22.9891 -49.22105,0 -49.21978,0 0,-22.9891 0,-22.989098 z"
     id="path4138"
     inkscape:connector-curvature="0" />
</svg>
