<?xml version="1.0" encoding="UTF-8" standalone="no"?>
<!-- Created with Inkscape (http://www.inkscape.org/) -->

<svg
   xmlns:dc="http://purl.org/dc/elements/1.1/"
   xmlns:cc="http://creativecommons.org/ns#"
   xmlns:rdf="http://www.w3.org/1999/02/22-rdf-syntax-ns#"
   xmlns:svg="http://www.w3.org/2000/svg"
   xmlns="http://www.w3.org/2000/svg"
   xmlns:sodipodi="http://sodipodi.sourceforge.net/DTD/sodipodi-0.dtd"
   xmlns:inkscape="http://www.inkscape.org/namespaces/inkscape"
   id="svg2"
   version="1.1"
   inkscape:version="0.91 r13725"
   width="759.66351"
   height="546.24036"
   viewBox="0 0 759.66351 546.24036"
   sodipodi:docname="A6c.svg">
  <metadata
     id="metadata8">
    <rdf:RDF>
      <cc:Work
         rdf:about="">
        <dc:format>image/svg+xml</dc:format>
        <dc:type
           rdf:resource="http://purl.org/dc/dcmitype/StillImage" />
        <dc:title></dc:title>
      </cc:Work>
    </rdf:RDF>
  </metadata>
  <defs
     id="defs6" />
  <sodipodi:namedview
     pagecolor="#ffffff"
     bordercolor="#666666"
     borderopacity="1"
     objecttolerance="10"
     gridtolerance="10"
     guidetolerance="10"
     inkscape:pageopacity="0"
     inkscape:pageshadow="2"
     inkscape:window-width="2120"
     inkscape:window-height="1409"
     id="namedview4"
     showgrid="false"
     fit-margin-top="0"
     fit-margin-left="0"
     fit-margin-right="0"
     fit-margin-bottom="0"
     inkscape:zoom="0.29135802"
     inkscape:cx="-467.92247"
     inkscape:cy="385.14034"
     inkscape:window-x="0"
     inkscape:window-y="27"
     inkscape:window-maximized="0"
     inkscape:current-layer="svg2" />
  <path
     style="fill:#000000"
     d="m 54.031765,542.69003 c -17.276903,-4.0453 -34.671524,-10.60171 -45.8474982,-17.28092 -4.236376,-2.53183 -7.89818798,-4.76656 -8.13736098,-4.96607 -0.499908,-0.41702 2.87905598,-6.73628 15.79007818,-29.53024 5.058418,-8.93046 10.715238,-19.86546 12.570712,-24.3 L 31.781285,458.55 32.006437,423 c 0.293035,-46.26848 1.896059,-69.47494 6.714246,-97.2 3.624551,-20.85657 3.735717,-21.25614 8.012813,-28.8 2.385498,-4.2075 6.025139,-12.26269 8.088091,-17.90041 2.062952,-5.63774 5.140877,-13.41199 6.839834,-17.27611 4.866295,-11.06796 12.075565,-37.81855 16.230194,-60.22348 3.00514,-16.20608 9.73576,-34.48589 15.46283,-41.99587 1.19364,-1.56523 3.77999,-3.48996 5.74746,-4.27719 3.091345,-1.23691 3.971265,-1.26453 6.478535,-0.20334 4.97919,2.10742 6.41044,4.50936 6.80052,11.41277 0.32517,5.75467 -1.61203,25.05928 -3.56375,35.51363 -0.46206,2.475 -1.23168,7.335 -1.71027,10.8 -1.84461,13.35491 -7.897305,43.59613 -11.773115,58.82217 -2.89078,11.35639 -3.14847,13.41626 -1.2386,9.90078 2.18254,-4.01739 5.20462,-14.45198 8.434635,-29.12295 5.85422,-26.59029 8.2983,-39.75536 10.025,-54 0.54003,-4.455 1.74418,-12.15 2.67588,-17.1 0.93172,-4.95 1.95252,-10.8225 2.26844,-13.05 0.98922,-6.9747 8.57769,-32.63548 10.41343,-35.21354 2.33756,-3.2828 6.76623,-5.87525 11.16915,-6.53817 3.90896,-0.58856 6.62865,1.0827 9.90895,6.08907 2.04408,3.11965 1.57547,10.17819 -3.14431,47.36264 -1.91631,15.0975 -3.75946,30.0825 -4.09589,33.3 -0.57389,5.48853 -4.32767,27.5469 -8.48788,49.87748 -2.20154,11.81714 -2.21228,12.08964 -0.40511,10.28247 0.83452,-0.83451 2.13672,-5.48642 3.1402,-11.21786 5.31082,-30.33314 6.00215,-34.76776 9.45374,-60.64209 0.75938,-5.6925 1.92931,-13.185 2.59985,-16.65 0.67055,-3.465 1.46985,-10.35 1.77622,-15.3 0.30637,-4.95 0.93655,-11.43 1.4004,-14.4 0.46386,-2.97 1.24144,-10.26 1.72795,-16.2 0.48652,-5.94 1.53752,-12.68507 2.33555,-14.98904 3.44607,-9.9491 10.94219,-14.08408 19.03926,-10.50236 9.73545,4.30645 12.23474,14.53768 9.86164,40.37025 -0.79432,8.64664 -2.2453,20.98615 -3.22441,27.42115 -1.83665,12.07104 -2.81971,19.59322 -4.58719,35.1 -0.56421,4.95 -1.82541,13.86 -2.80267,19.8 -2.93225,17.82271 -4.3328,30.18895 -4.2811,37.8 0.0648,9.54306 1.15185,6.48296 2.55764,-7.2 0.61028,-5.94 2.08125,-16.47 3.26882,-23.4 1.18757,-6.93 2.77598,-19.08 3.52981,-27 0.75383,-7.92 2.80096,-23.31 4.54918,-34.2 1.74822,-10.89 3.62308,-22.7453 4.16637,-26.34512 1.24252,-8.23307 4.45817,-13.12185 9.65523,-14.67893 4.15221,-1.24404 6.71509,-0.75246 10.94751,2.09976 7.96354,5.36663 9.48488,14.48695 8.64627,51.83415 -0.34921,15.55244 -1.13346,30.07024 -1.87938,34.79014 -0.70403,4.455 -2.54439,22.0725 -4.08967,39.15 -1.54528,17.0775 -3.5972,34.8975 -4.55981,39.6 -0.96262,4.7025 -2.54975,14.4225 -3.52696,21.6 -0.97721,7.1775 -2.04205,14.67 -2.36633,16.65 -0.70181,4.28527 -1.28426,4.75545 10.03392,-8.1 4.84081,-5.4983 11.62554,-11.82974 17.43798,-16.27295 8.12273,-6.20927 10.65232,-7.62427 17.29596,-9.675 9.14487,-2.82281 9.69641,-2.84904 19.66826,-0.93531 5.34605,1.02598 8.30086,2.0898 9.81112,3.53227 2.06424,1.97162 2.10843,2.25236 0.98555,6.26288 -1.37668,4.91701 -10.05962,16.65523 -21.62788,29.23811 -6.94047,7.54919 -8.66536,10.1602 -14.7359,22.30612 -6.10206,12.20898 -11.15341,24.92075 -15.71559,39.54847 -0.80702,2.58753 -4.32127,8.85551 -7.80946,13.92886 -5.0877,7.39974 -7.5973,10.11853 -12.68787,13.74541 -3.49015,2.48663 -9.29211,7.07535 -12.89324,10.19715 -11.10893,9.63028 -26.61112,19.28896 -37.82673,23.56803 -1.7325,0.661 -5.45094,2.59315 -8.2632,4.29366 -6.03083,3.64673 -4.84103,1.06443 -16.47749,35.7623 -4.81417,14.355 -9.27482,26.9327 -9.91254,27.95044 -1.00557,1.60478 -2.69538,1.99369 -12.72814,2.92946 -6.362745,0.59346 -17.036125,1.0471 -23.718625,1.0081 -10.793889,-0.063 -13.807476,-0.459 -27,-3.54797 z m 598.759935,2.35553 c -5.05454,-0.54756 -9.61931,-1.42933 -10.14394,-1.95949 -0.52463,-0.53016 -5.35017,-13.89516 -10.72345,-29.7 -5.37327,-15.80484 -10.05009,-29.40444 -10.39292,-30.22132 -0.69722,-1.66132 -9.16235,-7.02516 -13.99963,-8.87071 -11.47647,-4.3786 -26.58175,-13.85627 -38.64842,-24.24961 -4.08308,-3.51686 -9.81923,-8.02102 -12.747,-10.00923 -4.1204,-2.79812 -6.78035,-5.73171 -11.77196,-12.98308 -3.5468,-5.15249 -7.14328,-11.5133 -7.99217,-14.13513 -5.34934,-16.52167 -9.72363,-27.50664 -15.77334,-39.61087 -6.07054,-12.14592 -7.79543,-14.75693 -14.7359,-22.30612 -11.56827,-12.58288 -20.2512,-24.3211 -21.62788,-29.23811 -1.12288,-4.01052 -1.07869,-4.29126 0.98554,-6.26288 1.51027,-1.44247 4.46508,-2.50629 9.81113,-3.53227 9.95763,-1.91101 10.51585,-1.88535 19.66985,0.90388 6.7004,2.04161 9.10055,3.38433 17.29437,9.675 5.74429,4.41009 12.65392,10.87055 17.43798,16.30438 11.31818,12.85545 10.73573,12.38527 10.03392,8.1 -0.32428,-1.98 -1.38912,-9.4725 -2.36633,-16.65 -0.97721,-7.1775 -2.56434,-16.8975 -3.52696,-21.6 -0.96261,-4.7025 -3.01453,-22.5225 -4.55981,-39.6 -1.54529,-17.0775 -3.38564,-34.695 -4.08968,-39.15 -0.74591,-4.7199 -1.53016,-19.2377 -1.87938,-34.79014 -0.8386,-37.3472 0.68274,-46.46752 8.64628,-51.83415 4.23242,-2.85223 6.79529,-3.3438 10.94751,-2.09976 5.19706,1.55708 8.41271,6.44586 9.65523,14.67893 0.54329,3.59982 2.41815,15.45512 4.16636,26.34512 1.74823,10.89 3.79536,26.28 4.54919,34.2 0.75383,7.92 2.34224,20.07 3.52981,27 1.18757,6.93 2.65854,17.46 3.26882,23.4 1.40579,13.68296 2.49283,16.74306 2.55764,7.2 0.0517,-7.61105 -1.34885,-19.97729 -4.2811,-37.8 -0.97726,-5.94 -2.23846,-14.85 -2.80267,-19.8 -1.76748,-15.50678 -2.75054,-23.02896 -4.58719,-35.1 -0.97911,-6.435 -2.43009,-18.77451 -3.22441,-27.42115 -2.3731,-25.83257 0.12619,-36.0638 9.86164,-40.37025 8.09707,-3.58172 15.59319,0.55326 19.03926,10.50236 0.79803,2.30397 1.84903,9.04904 2.33555,14.98904 0.48651,5.94 1.26409,13.23 1.72794,16.2 0.46386,2.97 1.09404,9.45 1.40041,14.4 0.30637,4.95 1.10567,11.835 1.77622,15.3 0.67054,3.465 1.84047,10.9575 2.59984,16.65 3.45159,25.87433 4.14293,30.30895 9.45375,60.64209 1.00348,5.73144 2.30568,10.38335 3.1402,11.21786 1.80653,1.80653 1.79605,1.53739 -0.40068,-10.28247 -5.50006,-29.5941 -7.37438,-40.94503 -8.97901,-54.37748 -0.97569,-8.1675 -2.97057,-24.165 -4.43307,-35.55 -3.86585,-30.09433 -4.29468,-37.59957 -2.32044,-40.61264 3.28031,-5.00637 6,-6.67763 9.90896,-6.08907 4.40292,0.66292 8.83159,3.25537 11.16915,6.53817 1.83574,2.57806 9.42421,28.23884 10.41343,35.21354 0.31592,2.2275 1.33672,8.1 2.26844,13.05 0.9317,4.95 2.1431,12.645 2.69199,17.1 3.3949,27.5544 13.84747,74.66301 18.44353,83.12295 1.90987,3.51548 1.65218,1.45561 -1.2386,-9.90078 -3.87581,-15.22604 -9.92851,-45.46726 -11.77312,-58.82217 -0.47859,-3.465 -1.24821,-8.325 -1.71027,-10.8 -1.95172,-10.45435 -3.88892,-29.75896 -3.56375,-35.51363 0.39008,-6.90341 1.82132,-9.30535 6.80052,-11.41277 2.50727,-1.06119 3.38719,-1.03357 6.47854,0.20334 1.96747,0.78723 4.55382,2.71196 5.74746,4.27719 5.72708,7.50998 12.45769,25.78979 15.46283,41.99587 4.15463,22.40493 11.3639,49.15552 16.23019,60.22348 1.69896,3.86412 4.77688,11.63837 6.83984,17.27611 2.06295,5.63772 5.70259,13.69291 8.08809,17.90041 4.2771,7.54386 4.38827,7.94343 8.01281,28.8 4.81818,27.72506 6.42121,50.93152 6.71425,97.2 l 0.22515,35.55 3.37359,8.0628 c 1.85548,4.43454 7.51229,15.36954 12.57071,24.3 12.91103,22.79396 16.28999,29.11322 15.79008,29.53024 -0.23917,0.19951 -3.90099,2.43424 -8.13737,4.96607 -11.47528,6.85809 -28.55334,13.23957 -46.42147,17.34609 -14.63868,3.36432 -16.12789,3.53821 -29.25,3.41536 -7.60431,-0.0712 -17.96155,-0.57744 -23.01608,-1.125 z M 364.08176,320.75711 c -16.66592,-1.7182 -42.9406,-6.4693 -59.75614,-10.80536 -11.9627,-3.08472 -28.29585,-8.64543 -40.64152,-13.83667 -12.52692,-5.26743 -33.22008,-11.33766 -41.58985,-12.20014 -3.34813,-0.34503 -6.28833,-0.95224 -6.53377,-1.34937 -0.49929,-0.80786 4.43628,-50.48858 5.85302,-58.91557 0.49931,-2.97 0.91463,-11.07 0.92295,-18 0.008,-6.93 0.26616,-14.11875 0.57298,-15.975 l 0.55784,-3.375 156.36449,0 156.36449,0 0.55784,3.375 c 0.30682,1.85625 0.56466,9.045 0.57298,15.975 0.008,6.93 0.42364,15.03 0.92295,18 1.41674,8.42699 6.35231,58.10771 5.85303,58.91557 -0.24545,0.39713 -3.18565,1.00434 -6.53378,1.34937 -8.36977,0.86248 -29.06294,6.93271 -41.58985,12.20014 -24.66277,10.37045 -52.53032,17.81288 -85.99766,22.96691 -8.70921,1.34125 -38.56865,2.43096 -45.9,1.67512 z m 37.56709,-18.89382 c 14.05504,-2.97676 31.29033,-7.85408 41.52595,-11.7512 9.35282,-3.56098 23.93562,-11.51871 31.60696,-17.24768 6.72628,-5.0232 19.08065,-16.95651 20.66883,-19.96441 1.05141,-1.99129 0.54358,-5.07093 -4.41666,-26.78366 -4.50675,-19.72761 -6.01716,-24.97273 -7.71031,-26.775 l -2.10563,-2.24134 -101.38623,0 -101.38623,0 -2.10563,2.24134 c -1.69315,1.80227 -3.20356,7.04739 -7.71031,26.775 -4.96024,21.71273 -5.46807,24.79236 -4.41666,26.78366 0.65341,1.2375 4.3562,5.32838 8.22842,9.09084 20.43383,19.8546 43.14462,30.55306 83.99041,39.56568 15.70494,3.4653 29.85078,3.56126 45.21709,0.30677 z M 45.746231,270.42058 C 38.806396,265.0138 33.195077,256.8065 30.075452,247.5 c -2.288464,-6.82698 -2.284811,-21.09191 0.0071,-27.9 6.19152,-18.39146 21.356854,-30.79545 40.266738,-32.93486 5.104255,-0.57748 5.449265,-0.5024 4.972765,1.08216 -0.943861,3.13875 -3.189847,13.31634 -5.128726,23.24058 -2.90385,14.86357 -10.220863,40.61128 -13.70096,48.21212 -1.699794,3.7125 -3.585856,8.26311 -4.19125,10.11246 -0.605394,1.84936 -1.421998,3.56103 -1.814676,3.80372 -0.392678,0.24269 -2.525793,-0.97034 -4.740254,-2.6956 z m 662.631729,1.18818 c -0.46529,-1.13232 -2.67376,-6.35013 -4.90772,-11.59514 -4.26521,-10.0141 -11.80692,-36.69293 -14.47733,-51.21362 -1.46289,-7.95469 -3.47763,-17.0572 -4.65974,-21.0527 -0.46866,-1.58402 -0.12147,-1.65944 4.98102,-1.08216 18.90989,2.13941 34.07522,14.5434 40.26674,32.93486 1.18081,3.50751 1.66643,7.57273 1.66643,13.95 0,13.68572 -4.18752,23.98279 -13.56779,33.36305 -6.50157,6.50158 -8.20599,7.36201 -9.30161,4.69571 z M 425.73176,126 l 0,-23.4 23.4,0 23.4,0 0,23.4 0,23.4 -23.4,0 -23.4,0 0,-23.4 z m 51.3,0 0,-23.4 23.4,0 23.4,0 0,23.4 0,23.4 -23.4,0 -23.4,0 0,-23.4 z m 51.3,0 0,-23.4 23.4,0 23.4,0 0,5.51877 c 0,4.07276 -0.50596,6.33743 -1.93101,8.64322 -2.04991,3.31681 -4.28479,12.18411 -4.33737,17.2093 -0.0265,2.53052 -0.28746,2.91111 -1.60662,2.34301 -0.86625,-0.37306 -4.005,-0.85664 -6.975,-1.07463 -4.61434,-0.33867 -6.01779,-0.0487 -9.64619,1.99284 -4.33817,2.44093 -8.29067,6.45659 -9.95897,10.1181 -0.82871,1.81881 -1.57571,2.04939 -6.63931,2.04939 l -5.70553,0 0,-23.4 z m -102.6,-51.3 0,-23.4 23.4,0 23.4,0 0,23.4 0,23.4 -23.4,0 -23.4,0 0,-23.4 z m 51.3,0 0,-23.4 23.4,0 23.4,0 0,23.4 0,23.4 -23.4,0 -23.4,0 0,-23.4 z m 51.3,0 0,-23.4 23.4,0 23.4,0 0,23.4 0,23.4 -23.4,0 -23.4,0 0,-23.4 z m -102.6,-51.3 0,-23.4 23.4,0 23.4,0 0,23.4 0,23.4 -23.4,0 -23.4,0 0,-23.4 z m 51.3,0 0,-23.4 23.4,0 23.4,0 0,23.4 0,23.4 -23.4,0 -23.4,0 0,-23.4 z m 51.3,0 0,-23.4 23.4,0 23.4,0 0,23.4 0,23.4 -23.4,0 -23.4,0 0,-23.4 z"
     id="path4138"
     inkscape:connector-curvature="0" />
</svg>
