<?xml version="1.0" encoding="UTF-8" standalone="no"?>
<!-- Created with Inkscape (http://www.inkscape.org/) -->

<svg
   xmlns:dc="http://purl.org/dc/elements/1.1/"
   xmlns:cc="http://creativecommons.org/ns#"
   xmlns:rdf="http://www.w3.org/1999/02/22-rdf-syntax-ns#"
   xmlns:svg="http://www.w3.org/2000/svg"
   xmlns="http://www.w3.org/2000/svg"
   xmlns:sodipodi="http://sodipodi.sourceforge.net/DTD/sodipodi-0.dtd"
   xmlns:inkscape="http://www.inkscape.org/namespaces/inkscape"
   id="svg2"
   version="1.1"
   inkscape:version="0.91 r13725"
   width="500"
   height="500"
   viewBox="0 0 500 500"
   sodipodi:docname="A6c.svg">
  <metadata
     id="metadata8">
    <rdf:RDF>
      <cc:Work
         rdf:about="">
        <dc:format>image/svg+xml</dc:format>
        <dc:type
           rdf:resource="http://purl.org/dc/dcmitype/StillImage" />
        <dc:title></dc:title>
      </cc:Work>
    </rdf:RDF>
  </metadata>
  <defs
     id="defs6" />
  <sodipodi:namedview
     pagecolor="#ffffff"
     bordercolor="#666666"
     borderopacity="1"
     objecttolerance="10"
     gridtolerance="10"
     guidetolerance="10"
     inkscape:pageopacity="0"
     inkscape:pageshadow="2"
     inkscape:window-width="2560"
     inkscape:window-height="1413"
     id="namedview4"
     showgrid="false"
     fit-margin-top="0"
     fit-margin-left="0"
     fit-margin-right="0"
     fit-margin-bottom="0"
     inkscape:zoom="1.1654321"
     inkscape:cx="96.772479"
     inkscape:cy="208.95205"
     inkscape:window-x="0"
     inkscape:window-y="27"
     inkscape:window-maximized="0"
     inkscape:current-layer="svg2" />
  <path
     style="fill:#000000"
     d="M 36.070717,427.00702 C 24.726225,424.35076 13.304438,420.04564 5.9659803,415.65989 3.1842626,413.99742 0.77981699,412.53004 0.62276479,412.39903 0.29451007,412.12521 2.5132352,407.9758 10.990968,393.00866 c 3.321498,-5.86399 7.035922,-13.04421 8.254275,-15.95605 l 2.215194,-5.29426 0.147841,-23.34311 c 0.192415,-30.38116 1.245005,-45.61917 4.40876,-63.82421 2.37998,-13.695 2.452975,-13.95737 5.261434,-18.91087 1.566384,-2.76276 3.956273,-8.05202 5.310864,-11.75391 1.354591,-3.70189 3.375642,-8.80668 4.491224,-11.34397 3.195344,-7.26753 7.92915,-24.8327 10.657194,-39.5444 1.973258,-10.64136 6.392769,-22.64439 10.153322,-27.57565 0.783777,-1.02777 2.482046,-2.2916 3.773941,-2.80852 2.029862,-0.81219 2.607642,-0.83033 4.253985,-0.13352 3.269474,1.38379 4.209272,2.96097 4.465409,7.49394 0.213516,3.77868 -1.058503,16.45462 -2.340057,23.31923 -0.303401,1.62516 -0.808755,4.81637 -1.12301,7.09158 -1.211222,8.7692 -5.185589,28.62642 -7.730553,38.62426 -1.898166,7.45692 -2.067372,8.80949 -0.813299,6.50113 1.433116,-2.63793 3.417498,-9.48957 5.538415,-19.12293 3.844042,-17.45992 5.448893,-26.10447 6.582692,-35.4579 0.354598,-2.92527 1.145277,-7.97802 1.757057,-11.22833 0.611793,-3.25031 1.282078,-7.10635 1.48952,-8.56899 0.649549,-4.57978 5.632348,-21.42936 6.837746,-23.12218 1.534906,-2.15558 4.442893,-3.85786 7.333972,-4.29315 2.566732,-0.38646 4.352555,0.71093 6.506491,3.99825 1.342199,2.04845 1.034497,6.68329 -2.064641,31.09962 -1.258302,9.91344 -2.468565,19.753 -2.689475,21.8657 -0.376832,3.60392 -2.841667,18.08806 -5.573376,32.75094 -1.445592,7.75946 -1.452644,7.93839 -0.266007,6.75175 0.547969,-0.54796 1.40303,-3.60254 2.061942,-7.36596 3.487232,-19.91758 3.941178,-22.82947 6.207587,-39.81927 0.49863,-3.73785 1.266839,-8.65764 1.707134,-10.93285 0.440302,-2.27521 0.965144,-6.7961 1.166315,-10.0464 0.201171,-3.25031 0.614965,-7.50526 0.919541,-9.45544 0.304585,-1.95019 0.815165,-6.737 1.134625,-10.63737 0.31946,-3.90037 1.00957,-8.32937 1.53358,-9.84222 2.26279,-6.53285 7.18495,-9.24799 12.50171,-6.89613 6.39256,2.82773 8.03366,9.54584 6.47542,26.50822 -0.52157,5.67762 -1.47432,13.78008 -2.11724,18.00548 -1.20599,7.92618 -1.85149,12.86545 -3.01207,23.04763 -0.37048,3.25031 -1.19862,9.10086 -1.84031,13.00123 -1.9254,11.70288 -2.84504,19.8229 -2.81109,24.82052 0.0426,6.26624 0.75634,4.25689 1.67942,-4.72772 0.40072,-3.90036 1.3666,-10.81465 2.14639,-15.36508 0.7798,-4.55043 1.82279,-12.52846 2.31778,-17.72895 0.49498,-5.20049 1.83918,-15.30599 2.98711,-22.45666 1.14793,-7.15068 2.37902,-14.9352 2.73576,-17.29894 0.81587,-5.40606 2.92735,-8.61617 6.33989,-9.63859 2.72645,-0.81687 4.40931,-0.49409 7.18843,1.37876 5.22909,3.52388 6.22804,9.51253 5.67738,34.03574 -0.2293,10.21216 -0.74426,19.74495 -1.23405,22.84416 -0.46228,2.92528 -1.67072,14.49342 -2.68539,25.70698 -1.01467,11.21355 -2.36202,22.91466 -2.9941,26.00245 -0.63208,3.08779 -1.67423,9.47021 -2.3159,14.18316 -0.64166,4.71294 -1.34086,9.63272 -1.55379,10.93285 -0.46083,2.81382 -0.84328,3.12256 6.58855,-5.31869 3.17861,-3.61033 7.63365,-7.76773 11.45026,-10.68527 5.33361,-4.07717 6.99461,-5.0063 11.357,-6.35287 6.00478,-1.85353 6.36693,-1.87076 12.91473,-0.61415 3.51036,0.67369 5.45057,1.37222 6.44225,2.31939 1.35544,1.29462 1.38445,1.47896 0.64714,4.11238 -0.90397,3.22864 -6.60543,10.93628 -14.20147,19.19855 -4.5573,4.95701 -5.68991,6.67147 -9.67599,14.64681 -4.00679,8.01676 -7.32364,16.36366 -10.3193,25.96862 -0.52991,1.69905 -2.83746,5.81477 -5.1279,9.14608 -3.34073,4.85887 -4.9886,6.6441 -8.33121,9.02561 -2.29173,1.63279 -6.10146,4.64587 -8.46606,6.69573 -7.29443,6.32351 -17.4736,12.66567 -24.83807,15.47542 -1.137612,0.43403 -3.579243,1.70274 -5.42585,2.81934 -3.96001,2.39454 -3.178755,0.69893 -10.819576,23.48251 -3.161117,9.42589 -6.090103,17.68476 -6.508847,18.35303 -0.660286,1.05375 -1.769861,1.30912 -8.357649,1.92357 -4.177954,0.38968 -11.18639,0.68755 -15.574305,0.66195 -7.087565,-0.0414 -9.06637,-0.3014 -17.728946,-2.3297 z m 393.162323,1.54671 c -3.31895,-0.35955 -6.3163,-0.93854 -6.66079,-1.28666 -0.34449,-0.34812 -3.51307,-9.12394 -7.04131,-19.50184 -3.52824,-10.37789 -6.59917,-19.30777 -6.82428,-19.84415 -0.45782,-1.09087 -6.01626,-4.61292 -9.19255,-5.82476 -7.53576,-2.87511 -17.45431,-9.09841 -25.37762,-15.92296 -2.68106,-2.30927 -6.44758,-5.26682 -8.37003,-6.57234 -2.70557,-1.83732 -4.45217,-3.7636 -7.72979,-8.52505 -2.32893,-3.38326 -4.69048,-7.55995 -5.24788,-9.28151 -3.51253,-10.84859 -6.38481,-18.06162 -10.35722,-26.0096 -3.98608,-7.97534 -5.11869,-9.6898 -9.67599,-14.64681 -7.59605,-8.26227 -13.2975,-15.96991 -14.20147,-19.19855 -0.73731,-2.63342 -0.7083,-2.81776 0.64713,-4.11238 0.99169,-0.94717 2.9319,-1.6457 6.44226,-2.31939 6.53846,-1.25482 6.905,-1.23797 12.91577,0.59351 4.39967,1.34058 5.97567,2.22225 11.35596,6.35288 3.77186,2.89578 8.30892,7.1379 11.45026,10.7059 7.43183,8.44125 7.04938,8.13251 6.58855,5.31869 -0.21293,-1.30013 -0.91213,-6.21991 -1.5538,-10.93285 -0.64166,-4.71295 -1.68381,-11.09537 -2.3159,-14.18316 -0.63207,-3.08779 -1.97942,-14.7889 -2.99409,-26.00245 -1.01468,-11.21356 -2.22311,-22.7817 -2.6854,-25.70698 -0.48979,-3.09921 -1.00475,-12.632 -1.23405,-22.84416 -0.55065,-24.52321 0.4483,-30.51186 5.67738,-34.03574 2.77913,-1.87285 4.46198,-2.19563 7.18844,-1.37876 3.41253,1.02242 5.52402,4.23253 6.33989,9.63859 0.35674,2.36374 1.58783,10.14826 2.73575,17.29894 1.14794,7.15067 2.49214,17.25617 2.98712,22.45666 0.49499,5.20049 1.53798,13.17852 2.31777,17.72895 0.77979,4.55043 1.74567,11.46472 2.1464,15.36508 0.92308,8.98461 1.63686,10.99396 1.67942,4.72772 0.034,-4.99762 -0.88569,-13.11764 -2.81109,-24.82052 -0.6417,-3.90037 -1.46984,-9.75092 -1.84031,-13.00123 -1.16058,-10.18218 -1.80608,-15.12145 -3.01208,-23.04763 -0.64291,-4.2254 -1.59566,-12.32786 -2.11723,-18.00548 -1.55825,-16.96238 0.0829,-23.68049 6.47542,-26.50822 5.31676,-2.35186 10.23892,0.36328 12.50171,6.89613 0.524,1.51285 1.21412,5.94185 1.53358,9.84222 0.31946,3.90037 0.83004,8.68718 1.13462,10.63737 0.30458,1.95018 0.71837,6.20513 0.91954,9.45544 0.20118,3.2503 0.72602,7.77119 1.16632,10.0464 0.44029,2.27521 1.2085,7.195 1.70713,10.93285 2.26641,16.9898 2.72036,19.90169 6.20759,39.81927 0.65891,3.76342 1.51397,6.818 2.06194,7.36596 1.18622,1.18622 1.17934,1.00949 -0.2631,-6.75175 -3.61149,-19.43231 -4.84222,-26.88564 -5.89586,-35.70576 -0.64067,-5.36301 -1.95056,-15.86741 -2.91088,-23.34311 -2.53842,-19.76077 -2.82,-24.68892 -1.52366,-26.66739 2.15394,-3.28732 3.93976,-4.38471 6.50649,-3.99825 2.89108,0.43529 5.79907,2.13757 7.33398,4.29315 1.20539,1.69282 6.18819,18.5424 6.83774,23.12218 0.20744,1.46264 0.87773,5.31868 1.48952,8.56899 0.61178,3.25031 1.40722,8.30306 1.76764,11.22833 2.22918,18.09298 9.09263,49.0258 12.11053,54.58083 1.25407,2.30836 1.08487,0.95579 -0.8133,-6.50113 -2.54496,-9.99784 -6.51933,-29.85506 -7.73056,-38.62426 -0.31425,-2.27521 -0.81961,-5.46642 -1.12301,-7.09158 -1.28155,-6.86461 -2.55357,-19.54055 -2.34005,-23.31923 0.25613,-4.53297 1.19593,-6.11015 4.46541,-7.49394 1.64634,-0.69681 2.22412,-0.67867 4.25398,0.13352 1.2919,0.51692 2.99017,1.78075 3.77395,2.80852 3.76055,4.93126 8.18006,16.93429 10.15332,27.57565 2.72804,14.7117 7.46185,32.27687 10.65719,39.5444 1.11558,2.53729 3.13663,7.64208 4.49123,11.34397 1.35459,3.70189 3.74447,8.99115 5.31086,11.75391 2.80846,4.9535 2.88146,5.21587 5.26143,18.91087 3.16375,18.20504 4.21635,33.44305 4.40876,63.82421 l 0.14784,23.34311 2.2152,5.29426 c 1.21836,2.91184 4.93277,10.09206 8.25427,15.95605 8.47774,14.96714 10.69646,19.11655 10.36821,19.39037 -0.15705,0.13101 -2.5615,1.59839 -5.34323,3.26086 -7.53498,4.50321 -18.74891,8.69347 -30.48162,11.38992 -9.61216,2.20911 -10.59002,2.32329 -19.20636,2.24262 -4.9932,-0.0468 -11.79405,-0.37916 -15.11299,-0.7387 z m -189.57493,-147.274 c -10.9433,-1.12822 -28.19598,-4.24792 -39.23753,-7.0951 -7.85504,-2.02551 -18.57984,-5.67682 -26.68634,-9.08554 -8.22553,-3.45874 -21.81323,-7.44462 -27.30905,-8.01095 -2.19848,-0.22655 -4.12909,-0.62526 -4.29025,-0.88603 -0.32785,-0.53046 2.91298,-33.1522 3.84325,-38.68559 0.32786,-1.95018 0.60057,-7.26887 0.60603,-11.8193 0.005,-4.55043 0.17477,-9.27076 0.37624,-10.48962 l 0.36629,-2.21612 102.67325,0 102.67325,0 0.36629,2.21612 c 0.20147,1.21886 0.37077,5.93919 0.37623,10.48962 0.005,4.55043 0.27818,9.86912 0.60604,11.8193 0.93027,5.53339 4.1711,38.15513 3.84326,38.68559 -0.16117,0.26077 -2.09179,0.65948 -4.29026,0.88603 -5.49582,0.56633 -19.08353,4.55221 -27.30905,8.01095 -16.19425,6.80953 -34.49286,11.69643 -56.46844,15.08071 -5.7187,0.8807 -25.32524,1.59624 -30.13921,1.09993 z m 24.66759,-12.4062 c 9.22893,-1.95463 20.5461,-5.15721 27.26709,-7.71617 6.14132,-2.33823 15.71679,-7.5635 20.754,-11.3253 4.41667,-3.29837 12.52889,-11.13411 13.57173,-13.10918 0.69038,-1.30754 0.35693,-3.32972 -2.9001,-17.58689 -2.95926,-12.9537 -3.95104,-16.39779 -5.0628,-17.58121 l -1.38262,-1.47172 -66.573,0 -66.573,0 -1.38262,1.47172 c -1.11176,1.18342 -2.10354,4.62751 -5.0628,17.58121 -3.25703,14.25717 -3.59048,16.27935 -2.9001,17.58689 0.42905,0.81257 2.8604,3.49876 5.40301,5.96929 13.41742,13.03708 28.32995,20.06199 55.15042,25.97992 10.3123,2.27542 19.60085,2.33843 29.69079,0.20144 z M 30.630207,248.22737 c -4.556888,-3.55024 -8.241435,-8.93938 -10.289867,-15.05028 -1.502672,-4.48279 -1.500269,-13.84953 0.0047,-18.31991 4.065523,-12.07634 14.023501,-20.22115 26.440253,-21.62594 3.351595,-0.37919 3.578138,-0.32989 3.265255,0.71057 -0.619765,2.06099 -2.094542,8.74388 -3.367663,15.26041 -1.906748,9.75983 -6.711301,26.66649 -8.996429,31.65741 -1.116132,2.43773 -2.354572,5.42579 -2.752091,6.64012 -0.397518,1.21434 -0.933723,2.33827 -1.191566,2.49763 -0.257843,0.15936 -1.658506,-0.63715 -3.112582,-1.77001 z m 435.102313,0.7802 c -0.30553,-0.74352 -1.75567,-4.16967 -3.22255,-7.61369 -2.80065,-6.57554 -7.75275,-24.09359 -9.50621,-33.62828 -0.96058,-5.22327 -2.28351,-11.20023 -3.05972,-13.82379 -0.30773,-1.04011 -0.0798,-1.08963 3.27068,-0.71057 12.41675,1.40479 22.37473,9.5496 26.44025,21.62594 0.77535,2.30313 1.09423,4.97246 1.09423,9.15995 0,8.98642 -2.74965,15.74777 -8.90899,21.9071 -4.26911,4.26912 -5.38828,4.8341 -6.10769,3.08334 z m -185.59331,-95.61074 0,-15.36508 15.36509,0 15.36508,0 0,15.36508 0,15.36509 -15.36508,0 -15.36509,0 0,-15.36509 z m 33.685,0 0,-15.36508 15.36508,0 15.36509,0 0,15.36508 0,15.36509 -15.36509,0 -15.36508,0 0,-15.36509 z m 33.68499,0 0,-15.36508 15.36509,0 15.36509,0 0,3.62377 c 0,2.67429 -0.33223,4.16133 -1.26796,5.67538 -1.34602,2.17791 -2.81351,8.00042 -2.84803,11.3001 -0.0174,1.66161 -0.18876,1.91152 -1.05496,1.53849 -0.5688,-0.24497 -2.62979,-0.5625 -4.57997,-0.70564 -3.02991,-0.22238 -3.95145,-0.032 -6.33396,1.30856 -2.84856,1.60278 -5.44388,4.23957 -6.53933,6.64382 -0.54416,1.19428 -1.03466,1.34569 -4.35956,1.34569 l -3.74641,0 0,-15.36509 z m -67.36999,-33.685 0,-15.36508 15.36509,0 15.36508,0 0,15.36508 0,15.36509 -15.36508,0 -15.36509,0 0,-15.36509 z m 33.685,0 0,-15.36508 15.36508,0 15.36509,0 0,15.36508 0,15.36509 -15.36509,0 -15.36508,0 0,-15.36509 z m 33.68499,0 0,-15.36508 15.36509,0 15.36509,0 0,15.36508 0,15.36509 -15.36509,0 -15.36509,0 0,-15.36509 z m -67.36999,-33.684993 0,-15.365087 15.36509,0 15.36508,0 0,15.365087 0,15.365083 -15.36508,0 -15.36509,0 0,-15.365083 z m 33.685,0 0,-15.365087 15.36508,0 15.36509,0 0,15.365087 0,15.365083 -15.36509,0 -15.36508,0 0,-15.365083 z m 33.68499,0 0,-15.365087 15.36509,0 15.36509,0 0,15.365087 0,15.365083 -15.36509,0 -15.36509,0 0,-15.365083 z"
     id="path4138"
     inkscape:connector-curvature="0" />
</svg>
