<?xml version="1.0" encoding="UTF-8" standalone="no"?>
<!-- Created with Inkscape (http://www.inkscape.org/) -->

<svg
   xmlns:dc="http://purl.org/dc/elements/1.1/"
   xmlns:cc="http://creativecommons.org/ns#"
   xmlns:rdf="http://www.w3.org/1999/02/22-rdf-syntax-ns#"
   xmlns:svg="http://www.w3.org/2000/svg"
   xmlns="http://www.w3.org/2000/svg"
   xmlns:sodipodi="http://sodipodi.sourceforge.net/DTD/sodipodi-0.dtd"
   xmlns:inkscape="http://www.inkscape.org/namespaces/inkscape"
   id="svg2"
   version="1.1"
   inkscape:version="0.91 r13725"
   width="500"
   height="500"
   viewBox="0 0 500 500"
   sodipodi:docname="A6d.svg">
  <metadata
     id="metadata8">
    <rdf:RDF>
      <cc:Work
         rdf:about="">
        <dc:format>image/svg+xml</dc:format>
        <dc:type
           rdf:resource="http://purl.org/dc/dcmitype/StillImage" />
        <dc:title></dc:title>
      </cc:Work>
    </rdf:RDF>
  </metadata>
  <defs
     id="defs6" />
  <sodipodi:namedview
     pagecolor="#ffffff"
     bordercolor="#666666"
     borderopacity="1"
     objecttolerance="10"
     gridtolerance="10"
     guidetolerance="10"
     inkscape:pageopacity="0"
     inkscape:pageshadow="2"
     inkscape:window-width="2560"
     inkscape:window-height="1413"
     id="namedview4"
     showgrid="false"
     fit-margin-top="0"
     fit-margin-left="0"
     fit-margin-right="0"
     fit-margin-bottom="0"
     inkscape:zoom="1.6481699"
     inkscape:cx="221.72414"
     inkscape:cy="262.03519"
     inkscape:window-x="0"
     inkscape:window-y="27"
     inkscape:window-maximized="0"
     inkscape:current-layer="svg2" />
  <path
     style="fill:#000000"
     d="m 178.33819,216.59338 71.68097,0 71.68236,0 1.4886,1.58527 c 1.19709,1.27423 2.26542,4.98153 5.45178,18.92931 3.50699,15.35133 3.86558,17.52975 3.1222,18.93762 -1.12286,2.12665 -9.85704,10.56265 -14.61264,14.11416 -5.42379,4.05049 -15.73443,9.67702 -22.34706,12.1947 -7.23677,2.75533 -19.42206,6.20422 -29.35924,8.30886 -10.86427,2.30097 -20.86545,2.23322 -31.96914,-0.21681 -28.87875,-6.3721 -44.93698,-13.93661 -59.38409,-27.9742 -2.73773,-2.66014 -5.35575,-5.55176 -5.81772,-6.42671 -0.74336,-1.40787 -0.3834,-3.58629 3.1236,-18.93762 3.18635,-13.94779 4.25331,-17.65508 5.4504,-18.92931 l 1.48998,-1.58527 z"
     id="path8803"
     inkscape:connector-curvature="0" />
  <path
     style="fill:#000000"
     d="m 51.529056,208.81892 -11.950281,0.29276 c -10.023545,0.24519 -12.537863,0.5064 -15.580659,1.61563 -10.373423,3.78158 -17.7410236,11.32848 -21.2575249,21.774 -1.6234813,4.82242 -1.6234813,14.90368 0,19.7261 3.0626331,9.09733 9.1019569,16.01259 17.7017159,20.26743 2.901196,1.4354 6.850741,2.8698 8.7756,3.18711 1.924859,0.31731 5.015356,0.60946 6.86858,0.6504 l 3.369388,0.0745 -0.410125,-2.38619 c -0.226113,-1.31241 -0.78863,-4.38976 -1.249713,-6.83959 -0.461082,-2.44982 -1.02949,-8.15697 -1.26352,-12.68215 l -0.426698,-8.22738 2.290908,-4.49896 c 1.259852,-2.47431 4.036425,-9.08073 6.169847,-14.68032 2.133423,-5.59959 4.573268,-12.00208 5.421401,-14.22738 l 1.541081,-4.04603 z"
     id="path8801"
     inkscape:connector-curvature="0" />
  <path
     style="fill:#000000"
     d="m 386.69342,118.73198 c -0.80151,0.0846 -1.81334,0.29927 -3.16087,0.58826 -7.17275,1.53828 -10.98046,6.26722 -11.70725,14.54085 -0.19795,2.25347 -0.49046,4.30731 -0.64902,4.56385 -0.50696,0.82028 1.72788,9.45367 3.65939,14.13763 3.11944,7.56473 6.8831,13.84293 11.18801,18.66558 3.90941,4.3796 4.21518,4.96801 6.79402,13.04533 3.14198,9.84116 6.48722,17.33771 9.35005,20.95236 1.75479,2.2156 2.21694,3.6461 3.44534,10.67432 0.78017,4.46367 1.75712,8.74995 2.17215,9.52543 0.41502,0.77548 1.3099,4.70867 1.98849,8.7397 1.43967,8.55202 1.38299,7.88078 0.66835,7.88078 -0.31112,0 -1.00543,-1.78964 -1.54383,-3.97699 -3.02869,-12.30446 -3.87788,-16.05812 -4.99748,-22.11231 -0.98318,-5.31657 -1.67514,-7.33067 -3.38871,-9.86235 -3.27611,-4.84021 -6.89492,-13.21372 -9.21749,-21.32658 -2.03975,-7.12491 -2.19248,-7.41082 -6.12151,-11.4435 -2.21637,-2.27483 -4.58303,-4.84687 -5.25846,-5.71552 -1.14881,-1.47747 -1.1327,-1.2109 0.25271,4.13578 0.81453,3.14349 2.67609,9.0082 4.13578,13.0329 1.45968,4.02471 2.89082,9.03571 3.18159,11.13556 1.02134,7.3759 5.52739,21.50036 10.14958,31.81586 4.35213,9.71278 4.14337,8.63925 4.07641,20.99792 -0.0341,6.29953 -0.33048,17.03739 -0.65868,23.86189 -0.64298,13.36936 -0.3786,15.36132 3.45776,26.08928 1.46627,4.10011 2.47385,10.84722 1.47204,9.85686 -0.89821,-0.88796 -6.35474,-16.45775 -7.13371,-20.35581 -0.90202,-4.51399 -0.92846,-24.07889 -0.0387,-28.59146 0.40946,-2.07664 0.74429,-7.55528 0.74429,-12.17399 0,-7.45937 -0.18283,-8.88662 -1.63497,-12.76915 -2.21107,-5.91165 -5.1386,-8.90413 -9.26444,-9.47157 -4.70151,-0.64662 -10.15169,2.10136 -14.4787,7.30079 -3.9542,4.75146 -5.21994,7.14613 -7.0771,13.39057 -1.20106,4.03835 -1.41535,6.2404 -1.39195,14.31713 0.0152,5.24961 0.16189,10.97648 0.3259,12.72634 0.38182,4.07408 -1.56423,15.59608 -4.35535,25.78273 l -2.18319,7.9664 0.91691,8.26604 c 0.72622,6.54344 1.4344,9.65956 3.39838,14.95373 4.6798,12.61503 7.74526,17.30235 15.24925,23.32059 11.97301,9.60241 12.63444,10.38538 17.6589,20.88468 5.31916,11.11512 10.38065,24.41856 18.39907,48.35762 l 5.75419,17.17835 8.59057,2.98827 8.59057,2.98688 11.29711,0.0373 11.29849,0.0373 8.64718,-3.18296 8.64855,-3.18159 8.21081,-7.05086 c 4.51603,-3.87778 8.2122,-7.15798 8.2122,-7.28976 0,-0.13178 -4.56003,-9.62922 -10.13302,-21.10562 -5.57298,-11.47639 -11.58186,-24.85446 -13.35327,-29.72795 -1.77139,-4.87349 -3.92761,-9.88447 -4.79171,-11.13554 -4.74802,-6.87426 -9.55193,-21.36623 -11.29988,-34.0902 -0.33655,-2.44983 -0.65161,-12.04259 -0.70011,-21.31691 l -0.0884,-16.86213 2.68031,-15.58895 c 3.44968,-20.06612 3.61161,-26.66133 0.79954,-32.60021 -1.03885,-2.19396 -5.49064,-13.07441 -9.89274,-24.1795 -7.13476,-17.9987 -9.02056,-22.0427 -17.36063,-37.24417 -8.99041,-16.38687 -9.75363,-17.54404 -19.53693,-29.62438 -5.5996,-6.91432 -11.50594,-14.8677 -13.12542,-17.67409 -2.64941,-4.5911 -2.98454,-4.94326 -3.34316,-3.51439 -0.33216,1.3234 -0.90089,1.66097 -3.41772,2.02716 -6.45941,0.93983 -7.98331,2.87743 -8.74798,11.13279 -0.43386,4.68398 -0.37253,4.98496 2.23981,11.13555 4.23589,9.97311 5.28864,11.70224 10.69091,17.55948 2.79576,3.03121 5.23686,6.03864 5.42416,6.68216 4.26127,14.63992 7.48667,22.66581 12.08146,30.06213 3.00787,4.84178 3.44538,5.98772 3.8168,9.99494 0.45205,4.87682 4.3945,22.03109 5.88125,25.58939 0.49958,1.19566 0.90863,2.6923 0.90863,3.32658 0,0.63429 -1.77145,3.38164 -3.93555,6.10495 -4.52667,5.69632 -7.53224,12.83773 -9.33348,22.17581 -1.02105,5.29332 -1.16698,5.6127 -1.9305,4.22694 -0.9926,-1.80157 -0.62173,-3.6167 3.23544,-15.85685 2.44904,-7.77164 2.95841,-8.79804 6.37283,-12.82438 l 3.71186,-4.37606 -1.34638,-3.40115 c -1.96764,-4.97005 -5.68239,-21.69802 -5.68239,-25.58802 -10e-6,-3.05426 -0.34094,-3.84461 -3.89274,-9.03383 -4.06101,-5.93317 -7.81072,-14.70182 -10.73233,-25.09503 -1.40049,-4.98199 -1.90915,-5.85367 -6.43775,-11.05684 -4.21764,-4.84591 -5.52428,-6.97031 -9.19125,-14.93992 l -4.27387,-9.2893 0.11737,-5.42279 c 0.097,-4.45297 0.39473,-5.89464 1.65984,-8.05615 1.88957,-3.22844 5.26498,-5.32198 8.58365,-5.32198 4.00632,0 4.33984,-1.5563 1.49552,-6.98595 -1.91917,-3.66359 -2.42034,-4.58973 -4.82486,-4.33602 z m 61.81585,90.08694 1.54245,4.04603 c 0.84814,2.2253 3.28798,8.6278 5.42141,14.22738 2.13342,5.59959 4.90862,12.20601 6.16847,14.68032 l 2.2909,4.49896 -0.42532,8.22738 c -0.23402,4.52518 -0.80243,10.23233 -1.26351,12.68215 -0.46109,2.44983 -1.0236,5.52718 -1.24971,6.83958 l -0.41152,2.38619 2.73419,-0.004 c 12.45639,-0.022 25.17635,-7.11934 30.86027,-17.21979 3.30619,-5.87513 4.30012,-9.76613 4.30012,-16.81931 0,-4.50886 -0.34306,-7.3825 -1.17791,-9.86237 -3.5165,-10.44551 -10.88548,-17.99242 -21.25891,-21.77399 -3.04278,-1.10923 -5.55573,-1.37044 -15.57927,-1.61564 l -11.95166,-0.29275 z"
     id="path8795"
     inkscape:connector-curvature="0" />
  <path
     style="fill:#000000"
     d="m 113.3449,118.73198 c -2.40451,-0.25372 -2.90567,0.67242 -4.82485,4.33602 -2.84431,5.42964 -2.5108,6.98594 1.49551,6.98594 3.31867,0 6.69546,2.09354 8.58503,5.32198 1.26512,2.16151 1.56153,3.60318 1.65846,8.05615 l 0.11876,5.42279 -4.27526,9.2893 c -3.66696,7.96961 -4.97222,10.09401 -9.18987,14.93992 -4.52859,5.20317 -5.03726,6.07484 -6.43774,11.05684 -2.921628,10.39321 -6.671325,19.16185 -10.73233,25.09503 -3.551802,5.18923 -3.892749,5.97957 -3.892749,9.03383 0,3.89 -3.714742,20.61798 -5.682383,25.58802 l -1.346377,3.40115 3.710466,4.37606 c 3.414421,4.02633 3.925179,5.05274 6.374222,12.82438 3.857164,12.24015 4.226667,14.05528 3.234062,15.85685 -0.76351,1.38577 -0.90946,1.06639 -1.930495,-4.22692 -1.801251,-9.3381 -4.806832,-16.47951 -9.33348,-22.17583 -2.164115,-2.72331 -3.934173,-5.47066 -3.934173,-6.10495 -7e-6,-0.63428 0.409046,-2.13092 0.908626,-3.32658 1.486748,-3.55829 5.429207,-20.71257 5.881239,-25.58939 0.371434,-4.00722 0.80895,-5.15316 3.816801,-9.99493 4.594805,-7.39632 7.820198,-15.42221 12.081462,-30.06213 0.187304,-0.64352 2.628409,-3.65095 5.424159,-6.68216 5.40501,-5.86021 6.45395,-7.58413 10.70196,-17.58572 2.6091,-6.1429 2.68143,-6.49934 2.26605,-11.08308 -0.74291,-8.19835 -2.33491,-10.22052 -8.78527,-11.15903 -2.51681,-0.36619 -3.08694,-0.70376 -3.4191,-2.02716 -0.35862,-1.42887 -0.69374,-1.0767 -3.34314,3.5144 -1.6195,2.80638 -7.525843,10.75977 -13.125435,17.67409 -9.7833,12.08033 -10.546513,13.2375 -19.536925,29.62438 -8.340061,15.20147 -10.224497,19.24547 -17.359254,37.24417 -4.402099,11.10509 -8.853886,21.98554 -9.892744,24.1795 -2.778225,5.8674 -2.634988,12.47229 0.708399,32.60022 3.037369,18.28557 3.635281,28.69748 2.576753,44.85981 -1.15652,17.6586 -5.675193,33.99514 -11.893663,42.99837 -0.864107,1.25107 -3.020313,6.26205 -4.791712,11.13554 -1.771399,4.87349 -7.780297,18.25156 -13.353272,29.72795 -5.572976,11.4764 -10.1330207,20.97383 -10.1330207,21.10562 0,0.13178 3.6948578,3.41204 8.2108117,7.28976 8.188207,7.03097 8.234222,7.05927 16.703328,10.2062 l 8.492515,3.15535 11.45454,0.0101 11.453157,0.0111 8.590559,-3.03245 8.590563,-3.03245 5.758337,-17.15351 c 8.090223,-24.10126 13.108603,-37.28765 18.394923,-48.33415 5.02445,-10.4993 5.68589,-11.28227 17.65891,-20.88468 7.50398,-6.01822 10.56945,-10.70556 15.24924,-23.32058 1.96399,-5.29416 2.67217,-8.4103 3.39839,-14.95374 l 0.91692,-8.26604 -2.1832,-7.96639 c -2.79113,-10.18664 -4.73717,-21.70865 -4.35535,-25.78273 0.164,-1.74987 0.31068,-7.47672 0.32589,-12.72634 0.0234,-8.07673 -0.19088,-10.27878 -1.39194,-14.31714 -1.85717,-6.24444 -3.12289,-8.63911 -7.0771,-13.39055 -4.32702,-5.19944 -9.7772,-7.94743 -14.4787,-7.30081 -4.12584,0.56745 -7.05475,3.55992 -9.26582,9.47157 -1.45214,3.88253 -1.63499,5.30979 -1.63499,12.76916 0,4.61871 0.33483,10.09736 0.74432,12.17399 0.88518,4.4895 0.86556,24.04863 -0.029,28.59146 -0.73164,3.71536 -6.26922,19.43048 -7.175145,20.3627 -0.952249,0.9799 0.09396,-5.80607 1.520374,-9.86374 3.820991,-10.86946 4.066013,-12.7348 3.432901,-26.08929 -0.323523,-6.8245 -0.616321,-17.56235 -0.650399,-23.86189 -0.06695,-12.35866 -0.274331,-11.28514 4.077789,-20.99792 4.6159,-10.30147 9.11919,-24.41626 10.15236,-31.81586 0.29317,-2.09985 1.86884,-7.54008 3.50056,-12.08976 1.63173,-4.54966 3.37945,-10.04454 3.88308,-12.20988 0.50363,-2.16534 1.08593,-4.45553 1.29529,-5.08999 0.20935,-0.63445 -0.21205,-0.29457 -0.93625,0.75535 -0.7242,1.04993 -3.14914,3.77073 -5.38964,6.04556 -3.99039,4.05155 -4.11641,4.28527 -6.1657,11.4435 -2.32257,8.11286 -5.9414,16.48637 -9.217484,21.32657 -1.713591,2.53169 -2.406922,4.5458 -3.390103,9.86236 -1.119593,6.05419 -1.967401,9.80785 -4.996087,22.1123 -0.538403,2.18735 -1.232723,3.97699 -1.54384,3.97699 -0.714633,0 -0.772694,0.67125 0.666967,-7.88078 0.678596,-4.03102 1.573471,-7.96421 1.988491,-8.73969 0.415027,-0.77549 1.393365,-5.06177 2.173532,-9.52543 1.228396,-7.02823 1.690546,-8.45873 3.44534,-10.67433 2.862834,-3.61463 6.208074,-11.1112 9.350054,-20.95235 2.57885,-8.07733 2.88461,-8.66574 6.79401,-13.04533 4.30492,-4.82265 8.06857,-11.10086 11.18802,-18.66558 1.93152,-4.68397 4.16496,-13.31735 3.658,-14.13763 -0.15855,-0.25654 -0.44967,-2.31037 -0.64764,-4.56385 -0.72679,-8.27363 -4.53449,-13.00256 -11.70725,-14.54084 -1.34751,-0.289 -2.36074,-0.5037 -3.16225,-0.58827 z m 0.63935,90.22504 -1.74131,5.25017 c -0.95733,2.88729 -1.89236,5.64718 -2.07824,6.13256 -0.26131,0.68234 0.15362,0.80635 1.83107,0.54684 1.52391,-0.23577 3.6444,0.24103 7.12266,1.60183 4.09305,1.60131 5.63782,2.64207 8.90816,6.00552 4.397,4.52218 5.97839,7.36939 8.56294,15.40804 1.70352,5.29835 1.7565,5.89105 1.7565,19.77858 l 0,14.31715 2.2274,0.20162 c 3.94591,0.35678 19.76093,5.21815 27.32795,8.39998 8.72862,3.67032 20.27583,7.60132 28.73369,9.78228 11.88891,3.06567 30.46541,6.42432 42.24853,7.63912 5.18341,0.53438 26.29489,-0.23514 32.45247,-1.18343 23.66205,-3.644 43.36521,-8.90585 60.80227,-16.23797 7.56701,-3.18183 23.38202,-8.0432 27.32794,-8.39998 l 2.22739,-0.20162 0,-14.31715 c -10e-6,-13.88753 0.0517,-14.48024 1.75512,-19.77858 2.58455,-8.03866 4.16732,-10.88586 8.56432,-15.40804 3.27035,-3.36345 4.81512,-4.40422 8.90817,-6.00552 3.47826,-1.3608 5.59736,-1.8376 7.12128,-1.60183 1.67743,0.25951 2.09376,0.1355 1.83244,-0.54684 -0.18588,-0.48538 -1.1223,-3.24527 -2.07963,-6.13256 l -1.73992,-5.25017 -136.03629,0 -136.03491,0 z"
     id="path8793"
     inkscape:connector-curvature="0" />
  <g
     id="g8805"
     transform="matrix(0.70701915,0,0,0.70701915,1.5226418,54.332474)">
    <path
       id="path8799"
       d="m 379.37109,102.59961 0,23.40039 0,23.40039 23.40039,0 23.4004,0 0,-23.40039 0,-23.40039 -23.4004,0 -23.40039,0 z"
       style="fill:#000000"
       inkscape:connector-curvature="0" />
    <path
       id="path8797"
       d="m 276.77148,102.59961 0,23.40039 0,23.40039 23.4004,0 23.40039,0 0,-23.40039 0,-23.40039 -23.40039,0 -23.4004,0 z m 51.30079,0 0,23.40039 0,23.40039 23.39843,0 23.40039,0 0,-23.40039 0,-23.40039 -23.40039,0 -23.39843,0 z"
       style="fill:#000000"
       inkscape:connector-curvature="0" />
    <path
       id="path8791"
       d="m 379.37109,51.300781 0,23.398438 0,23.40039 23.40039,0 23.4004,0 0,-23.40039 0,-23.398438 -23.4004,0 -23.40039,0 z"
       style="fill:#000000"
       inkscape:connector-curvature="0" />
    <path
       id="path8789"
       d="m 276.77148,51.300781 0,23.398438 0,23.40039 23.4004,0 23.40039,0 0,-23.40039 0,-23.398438 -23.40039,0 -23.4004,0 z m 51.30079,0 0,23.398438 0,23.40039 23.39843,0 23.40039,0 0,-23.40039 0,-23.398438 -23.40039,0 -23.39843,0 z"
       style="fill:#000000"
       inkscape:connector-curvature="0" />
    <path
       id="path8787"
       d="m 379.37109,0 0,23.400391 0,23.40039 23.40039,0 23.4004,0 0,-23.40039 0,-23.400391 -23.4004,0 -23.40039,0 z"
       style="fill:#000000"
       inkscape:connector-curvature="0" />
    <path
       id="path4138"
       d="m 276.77148,0 0,23.400391 0,23.40039 23.4004,0 23.40039,0 0,-23.40039 0,-23.400391 -23.40039,0 -23.4004,0 z m 51.30079,0 0,23.400391 0,23.40039 23.39843,0 23.40039,0 0,-23.40039 0,-23.400391 -23.40039,0 -23.39843,0 z"
       style="fill:#000000"
       inkscape:connector-curvature="0" />
  </g>
</svg>
