<?xml version="1.0" encoding="UTF-8" standalone="no"?>
<!-- Created with Inkscape (http://www.inkscape.org/) -->

<svg
   xmlns:dc="http://purl.org/dc/elements/1.1/"
   xmlns:cc="http://creativecommons.org/ns#"
   xmlns:rdf="http://www.w3.org/1999/02/22-rdf-syntax-ns#"
   xmlns:svg="http://www.w3.org/2000/svg"
   xmlns="http://www.w3.org/2000/svg"
   xmlns:sodipodi="http://sodipodi.sourceforge.net/DTD/sodipodi-0.dtd"
   xmlns:inkscape="http://www.inkscape.org/namespaces/inkscape"
   id="svg2"
   version="1.1"
   inkscape:version="0.91 r13725"
   width="702.88696"
   height="553.5"
   viewBox="0 0 702.88696 553.5"
   sodipodi:docname="A6d.svg">
  <metadata
     id="metadata8">
    <rdf:RDF>
      <cc:Work
         rdf:about="">
        <dc:format>image/svg+xml</dc:format>
        <dc:type
           rdf:resource="http://purl.org/dc/dcmitype/StillImage" />
        <dc:title></dc:title>
      </cc:Work>
    </rdf:RDF>
  </metadata>
  <defs
     id="defs6" />
  <sodipodi:namedview
     pagecolor="#ffffff"
     bordercolor="#666666"
     borderopacity="1"
     objecttolerance="10"
     gridtolerance="10"
     guidetolerance="10"
     inkscape:pageopacity="0"
     inkscape:pageshadow="2"
     inkscape:window-width="2120"
     inkscape:window-height="1409"
     id="namedview4"
     showgrid="false"
     fit-margin-top="0"
     fit-margin-left="0"
     fit-margin-right="0"
     fit-margin-bottom="0"
     inkscape:zoom="0.29135802"
     inkscape:cx="-496.28289"
     inkscape:cy="360"
     inkscape:window-x="0"
     inkscape:window-y="27"
     inkscape:window-maximized="0"
     inkscape:current-layer="svg2" />
  <path
     style="fill:#000000"
     d="m 41.109646,548.96085 c -11.978609,-4.451 -12.043693,-4.49077 -23.625001,-14.4353 -6.387316,-5.4846 -11.6133015,-10.12449 -11.6133015,-10.31088 0,-0.1864 6.4491975,-13.6197 14.3315515,-29.85179 7.882354,-16.23208 16.381461,-35.15261 18.886908,-42.04561 2.505447,-6.89301 5.555322,-13.9805 6.777504,-15.75 8.795336,-12.73406 15.187046,-35.84113 16.822816,-60.81727 1.49717,-22.85981 0.65118,-37.58708 -3.64484,-63.45 -4.72885,-28.46871 -4.93191,-37.80918 -1.00242,-46.10796 1.46935,-3.10312 7.76577,-18.49316 13.99205,-34.20008 10.09132,-25.45716 12.75739,-31.17702 24.55348,-52.67781 12.715937,-23.17742 13.795557,-24.81447 27.632947,-41.90076 7.92,-9.77954 16.27412,-21.02859 18.56471,-24.99791 3.74728,-6.4936 4.22119,-6.99181 4.72842,-4.97083 0.4698,1.8718 1.27556,2.34965 4.83531,2.86758 9.12331,1.32741 11.3753,4.18788 12.42606,15.78353 0.5875,6.48319 0.48423,6.98816 -3.20606,15.67661 -6.00834,14.14615 -7.49204,16.58413 -15.13682,24.87275 -3.95428,4.28731 -7.40638,8.53981 -7.6713,9.45 -6.02709,20.70654 -10.58964,32.05939 -17.08848,42.52065 -4.25427,6.84815 -4.87271,8.46758 -5.39806,14.13534 -0.63935,6.89773 -6.21622,31.16113 -8.31906,36.19394 -0.7066,1.69112 -1.28472,3.80878 -1.28472,4.7059 0,0.89712 2.50438,4.78262 5.56528,8.63444 6.40244,8.05681 10.65352,18.15692 13.20119,31.36461 1.44414,7.48681 1.65087,7.93948 2.73077,5.97947 1.40393,-2.54812 0.8802,-5.11538 -4.57533,-22.4277 -3.4639,-10.99213 -4.18524,-12.44356 -9.01456,-18.13837 l -5.24937,-6.19016 1.90494,-4.81162 c 2.78302,-7.02957 8.03708,-30.68783 8.03708,-36.18981 0,-4.31991 0.48196,-5.4385 5.50559,-12.77808 5.74384,-8.39182 11.04799,-20.79369 15.18031,-35.49373 1.98082,-7.04647 2.6991,-8.28032 9.10429,-15.63962 5.96539,-6.85399 7.81315,-9.85732 12.99966,-21.12946 l 6.04586,-13.13983 -0.16699,-7.67054 c -0.1371,-6.29824 -0.55685,-8.33668 -2.34621,-11.39389 -2.67259,-4.56627 -7.4484,-7.52666 -12.14229,-7.52666 -5.66648,0 -6.13785,-2.20255 -2.11488,-9.88218 3.61928,-6.90899 3.6727,-6.93405 11.29637,-5.29907 10.14506,2.17574 15.5301,8.8644 16.55807,20.56651 0.27999,3.1873 0.69255,6.09198 0.9168,6.45483 0.71704,1.16018 -2.44328,13.37109 -5.17519,19.99604 -4.41211,10.69946 -9.73426,19.57938 -15.82309,26.40049 -5.52942,6.19445 -5.96228,7.02551 -9.60978,18.45 -4.44398,13.91922 -9.17604,24.52295 -13.2252,29.63545 -2.48196,3.13372 -3.13487,5.15686 -4.8723,15.0975 -1.10346,6.31336 -2.48657,12.37625 -3.07357,13.47308 -0.587,1.09683 -1.85257,6.65904 -2.81237,12.36048 -2.03625,12.09588 -1.9558,11.14687 -0.94503,11.14687 0.44004,0 1.42312,-2.53125 2.18463,-5.625 4.28374,-17.40329 5.48328,-22.71203 7.06682,-31.275 1.3906,-7.5197 2.36972,-10.3692 4.7934,-13.95 4.63367,-6.84593 9.7528,-18.68952 13.03782,-30.16425 2.89849,-10.12453 3.0767,-10.4553 8.72067,-16.18575 3.16894,-3.2175 6.59978,-7.065 7.62409,-8.55 1.0243,-1.485 1.6201,-1.96579 1.32399,-1.06843 -0.29612,0.89737 -1.12122,4.13737 -1.83354,7.2 -0.71233,3.06264 -3.18342,10.83343 -5.49132,17.26843 -2.3079,6.435 -4.53547,14.13 -4.95014,17.1 -1.4613,10.46591 -7.83249,30.42972 -14.36117,45 -6.15559,13.73764 -5.86094,12.22005 -5.76627,29.7 0.0482,8.91 0.46215,24.0975 0.91974,33.75 0.89547,18.88844 0.54831,21.52636 -4.85606,36.9 -2.0175,5.73913 -3.49596,15.33596 -2.14911,13.95 1.28133,-1.31853 9.11276,-23.54504 10.14757,-28.8 1.26527,-6.42533 1.29389,-34.09039 0.0419,-40.44029 -0.57917,-2.93716 -1.05302,-10.6852 -1.05302,-17.21785 0,-10.55045 0.25835,-12.5683 2.31224,-18.05971 3.12731,-8.36137 7.26857,-12.59556 13.10411,-13.39815 6.64976,-0.91458 14.3597,2.97332 20.47979,10.32735 5.59278,6.7204 7.38238,10.10659 10.00914,18.93865 1.69877,5.71182 2.00151,8.82636 1.96837,20.25 -0.0215,7.425 -0.22895,15.525 -0.46091,18 -0.54005,5.76233 2.21337,22.05989 6.1611,36.46777 l 3.08735,11.26775 -1.29751,11.69093 c -1.02716,9.25497 -2.02865,13.66179 -4.80649,21.1498 -6.61905,17.84256 -10.95466,24.4732 -21.56821,32.98531 -16.9345,13.58154 -17.87037,14.68834 -24.97691,29.53844 -7.47691,15.62404 -14.57485,34.27439 -26.01757,68.36296 l -8.1445,24.26298 -12.149997,4.28833 -12.15,4.28834 -16.2,-0.0142 -16.2,-0.0142 -12.011697,-4.4633 z m 564.161694,0.2082 -12.15,-4.22567 -8.13821,-24.29669 c -11.34116,-33.85915 -18.50051,-52.6756 -26.02386,-68.39669 -7.10654,-14.8501 -8.04241,-15.9569 -24.97691,-29.53844 -10.61355,-8.51211 -14.94916,-15.14275 -21.56821,-32.98531 -2.77784,-7.48801 -3.77933,-11.89483 -4.80649,-21.1498 l -1.29751,-11.69093 3.08735,-11.26775 c 3.94773,-14.40788 6.70115,-30.70544 6.1611,-36.46777 -0.23196,-2.475 -0.43937,-10.575 -0.46091,-18 -0.0331,-11.42364 0.2696,-14.53818 1.96837,-20.25 2.62675,-8.83206 4.41636,-12.21825 10.00914,-18.93865 6.12009,-7.35403 13.83003,-11.24193 20.47979,-10.32735 5.83554,0.80259 9.9768,5.03678 13.10411,13.39815 2.05389,5.49141 2.31224,7.50926 2.31224,18.05971 0,6.53265 -0.47385,14.28069 -1.05299,17.21785 -1.25851,6.38254 -1.22091,34.05574 0.0549,40.44029 1.10176,5.51338 8.81871,27.53465 10.08913,28.79057 1.41695,1.40077 -0.008,-8.14142 -2.08187,-13.94057 -5.4261,-15.17351 -5.79941,-17.99052 -4.88999,-36.9 0.46421,-9.6525 0.88351,-24.84 0.93177,-33.75 0.0947,-17.47995 0.38931,-15.96235 -5.76628,-29.7 -6.53758,-14.59013 -12.91035,-34.5676 -14.35492,-45 -0.41126,-2.97 -2.43694,-10.0575 -4.5015,-15.75 -2.06457,-5.6925 -4.69635,-13.98773 -5.84842,-18.43384 -1.9595,-7.56228 -1.98259,-7.93971 -0.35773,-5.85 0.95531,1.22861 4.30176,4.86634 7.43656,8.08384 5.55717,5.70377 5.7736,6.10836 8.65859,16.18575 3.28502,11.47473 8.40415,23.31832 13.03783,30.16425 2.42367,3.5808 3.4028,6.4303 4.7934,13.95 1.58353,8.56297 2.78308,13.87171 7.06681,31.275 0.76151,3.09375 1.74459,5.625 2.18463,5.625 1.01077,0 1.09122,0.94901 -0.94503,-11.14687 -0.95979,-5.70144 -2.22537,-11.26365 -2.81236,-12.36048 -0.58701,-1.09683 -1.97012,-7.15972 -3.07358,-13.47308 -1.73743,-9.94064 -2.39034,-11.96377 -4.8723,-15.0975 -4.04916,-5.1125 -8.78122,-15.71623 -13.2252,-29.63545 -3.64749,-11.42449 -4.08036,-12.25555 -9.60978,-18.45 -6.08882,-6.82111 -11.41098,-15.70103 -15.82309,-26.40049 -2.73191,-6.62495 -5.89223,-18.83585 -5.17519,-19.99604 0.22426,-0.36285 0.63682,-3.26753 0.91681,-6.45483 1.02796,-11.70211 6.413,-18.39077 16.55806,-20.5665 7.62368,-1.63499 7.67709,-1.60992 11.29637,5.29906 4.02297,7.67963 3.55161,9.88218 -2.11488,9.88218 -4.69389,0 -9.4697,2.96039 -12.14229,7.52666 -1.78935,3.05721 -2.20911,5.09565 -2.34621,11.39389 l -0.16699,7.67054 6.04586,13.13983 c 5.18651,11.27214 7.03428,14.27547 12.99966,21.12946 6.4052,7.3593 7.12347,8.59315 9.1043,15.63962 4.13231,14.70004 9.43646,27.10191 15.1803,35.49373 5.02363,7.33958 5.50559,8.45818 5.50559,12.77808 0,5.50198 5.25407,29.16024 8.03708,36.18981 l 1.90494,4.81162 -5.24937,6.19016 c -4.82932,5.69481 -5.55066,7.14624 -9.01456,18.13837 -5.45553,17.31232 -5.97926,19.87958 -4.57533,22.4277 1.07991,1.96001 1.28664,1.50734 2.73078,-5.97947 2.54766,-13.20769 6.79874,-23.3078 13.20119,-31.36461 3.0609,-3.85182 5.56527,-7.73732 5.56527,-8.63444 0,-0.89712 -0.57812,-3.01478 -1.28472,-4.7059 -2.10284,-5.03281 -7.67971,-29.29621 -8.31906,-36.19394 -0.52535,-5.66776 -1.14378,-7.28719 -5.39806,-14.13534 -6.49883,-10.46126 -11.06139,-21.81411 -17.08848,-42.52065 -0.26492,-0.91019 -3.71701,-5.16269 -7.6713,-9.45 -7.64092,-8.28442 -9.13005,-10.73026 -15.12123,-24.83612 -3.69487,-8.69932 -3.78047,-9.12504 -3.16682,-15.75 1.08153,-11.67629 3.23511,-14.41748 12.37123,-15.74677 3.55976,-0.51793 4.36551,-0.99578 4.83531,-2.86758 0.50723,-2.02098 0.98114,-1.52277 4.72843,4.97083 2.29059,3.96932 10.6447,15.21837 18.5647,24.99791 13.83739,17.08629 14.91701,18.72334 27.63295,41.90076 11.7961,21.50079 14.46216,27.22065 24.55348,52.67781 6.22628,15.70692 12.5227,31.09696 13.99205,34.20008 3.97736,8.39987 3.74869,17.72665 -1.13049,46.10796 l -3.79074,22.05 0.1247,23.85 c 0.0686,13.1175 0.51415,26.685 0.99016,30.15 2.47228,17.99665 9.26639,38.49439 15.98193,48.21727 1.22218,1.7695 4.27206,8.85699 6.7775,15.75 2.50545,6.893 11.00455,25.81353 18.88691,42.04561 7.88238,16.23209 14.33158,29.66539 14.33158,29.85179 0,0.18639 -5.22607,4.82635 -11.61348,10.31104 l -11.61349,9.97216 -12.23209,4.50106 -12.23208,4.50107 -15.97943,-0.0526 -15.97943,-0.0526 -12.15,-4.22567 z m -269.55,-196.01194 c -16.66592,-1.7182 -42.9406,-6.4693 -59.75614,-10.80536 -11.9627,-3.08472 -28.29585,-8.64543 -40.64152,-13.83667 -10.7027,-4.50036 -33.07128,-11.37562 -38.65234,-11.88026 l -3.15,-0.28482 0,-20.25 c 0,-19.64238 -0.0745,-20.48181 -2.48393,-27.97572 -3.65556,-11.3698 -5.89313,-15.39553 -12.11219,-21.79165 -4.62554,-4.75723 -6.81084,-6.23067 -12.6,-8.49554 -4.91962,-1.9247 -7.91705,-2.59884 -10.07246,-2.26538 -2.37255,0.36705 -2.96014,0.19161 -2.59055,-0.77349 0.26292,-0.68652 1.58587,-4.58947 2.93991,-8.67322 l 2.46188,-7.425 192.40734,0 192.40734,0 2.46188,7.425 c 1.35404,4.08375 2.67699,7.9867 2.93991,8.67322 0.36959,0.9651 -0.218,1.14054 -2.59055,0.77349 -2.15541,-0.33346 -5.15284,0.34068 -10.07246,2.26538 -5.78916,2.26486 -7.97446,3.73831 -12.6,8.49554 -6.21906,6.39612 -8.45663,10.42184 -12.11219,21.79165 -2.4094,7.49391 -2.48393,8.33334 -2.48393,27.97572 l 0,20.25 -3.15,0.28482 c -5.58106,0.50464 -27.94964,7.3799 -38.65234,11.88026 -24.66277,10.37045 -52.53032,17.81288 -85.99766,22.96691 -8.70921,1.34125 -38.56865,2.43096 -45.9,1.67512 z m 37.56709,-18.89382 c 14.05504,-2.97676 31.29033,-7.85408 41.52595,-11.7512 9.35282,-3.56098 23.93562,-11.51871 31.60696,-17.24768 6.72628,-5.0232 19.08065,-16.95651 20.66883,-19.96441 1.05141,-1.99129 0.54358,-5.07093 -4.41666,-26.78366 -4.50675,-19.72761 -6.01716,-24.97273 -7.71031,-26.775 l -2.10563,-2.24134 -101.38623,0 -101.38623,0 -2.10563,2.24134 c -1.69315,1.80227 -3.20356,7.04739 -7.71031,26.775 -4.96024,21.71273 -5.46807,24.79236 -4.41666,26.78366 0.65341,1.2375 4.3562,5.32838 8.22842,9.09084 20.43383,19.8546 43.14462,30.55306 83.99041,39.56568 15.70494,3.4653 29.85078,3.56126 45.21709,0.30677 z M 39.171343,313.07356 c -2.722499,-0.4488 -8.307344,-2.4771 -12.410763,-4.50732 C 14.597176,302.54825 6.0539265,292.76716 1.7221725,279.9 c -2.29623,-6.82079 -2.29623,-21.07921 0,-27.9 4.9737,-14.77401 15.3956585,-25.44895 30.0677135,-30.79755 4.303696,-1.56889 7.858269,-1.93734 22.035458,-2.28414 l 16.903999,-0.41349 -2.18106,5.72258 c -1.19959,3.14743 -4.649919,12.2026 -7.66741,20.1226 -3.017489,7.92 -6.94428,17.26334 -8.7262,20.76297 l -3.23986,6.36298 0.60185,11.63702 c 0.33101,6.40037 1.13542,14.47203 1.78757,17.93703 0.65215,3.465 1.44739,7.81875 1.7672,9.675 l 0.58148,3.375 -4.76579,-0.10521 c -2.621179,-0.0579 -6.99328,-0.47242 -9.71578,-0.92123 z M 649.87125,310.725 c 0.31981,-1.85625 1.11505,-6.21 1.7672,-9.675 0.65215,-3.465 1.45656,-11.53666 1.78757,-17.93703 l 0.60185,-11.63702 -3.23986,-6.36298 c -1.78192,-3.49963 -5.70871,-12.84297 -8.7262,-20.76297 -3.01749,-7.92 -6.46782,-16.97517 -7.66741,-20.1226 l -2.18106,-5.72258 16.904,0.41349 c 14.17719,0.3468 17.73177,0.71525 22.03546,2.28414 14.67205,5.3486 25.09401,16.02354 30.06771,30.79755 1.18081,3.50751 1.66643,7.57273 1.66643,13.95 0,9.97595 -1.40696,15.47765 -6.08318,23.78738 -8.03929,14.28596 -26.03001,24.32484 -43.6482,24.35583 l -3.86579,0.007 0.58148,-3.375 z M 276.77134,126 l 0,-23.4 23.4,0 23.4,0 0,23.4 0,23.4 -23.4,0 -23.4,0 0,-23.4 z m 51.3,0 0,-23.4 23.4,0 23.4,0 0,23.4 0,23.4 -23.4,0 -23.4,0 0,-23.4 z m 51.3,0 0,-23.4 23.4,0 23.4,0 0,23.4 0,23.4 -23.4,0 -23.4,0 0,-23.4 z m -102.6,-51.3 0,-23.4 23.4,0 23.4,0 0,23.4 0,23.4 -23.4,0 -23.4,0 0,-23.4 z m 51.3,0 0,-23.4 23.4,0 23.4,0 0,23.4 0,23.4 -23.4,0 -23.4,0 0,-23.4 z m 51.3,0 0,-23.4 23.4,0 23.4,0 0,23.4 0,23.4 -23.4,0 -23.4,0 0,-23.4 z m -102.6,-51.3 0,-23.4 23.4,0 23.4,0 0,23.4 0,23.4 -23.4,0 -23.4,0 0,-23.4 z m 51.3,0 0,-23.4 23.4,0 23.4,0 0,23.4 0,23.4 -23.4,0 -23.4,0 0,-23.4 z m 51.3,0 0,-23.4 23.4,0 23.4,0 0,23.4 0,23.4 -23.4,0 -23.4,0 0,-23.4 z"
     id="path4138"
     inkscape:connector-curvature="0" />
</svg>
