<?xml version="1.0" encoding="UTF-8" standalone="no"?>
<!-- Created with Inkscape (http://www.inkscape.org/) -->

<svg
   xmlns:dc="http://purl.org/dc/elements/1.1/"
   xmlns:cc="http://creativecommons.org/ns#"
   xmlns:rdf="http://www.w3.org/1999/02/22-rdf-syntax-ns#"
   xmlns:svg="http://www.w3.org/2000/svg"
   xmlns="http://www.w3.org/2000/svg"
   xmlns:sodipodi="http://sodipodi.sourceforge.net/DTD/sodipodi-0.dtd"
   xmlns:inkscape="http://www.inkscape.org/namespaces/inkscape"
   id="svg2"
   version="1.1"
   inkscape:version="0.91 r13725"
   width="500"
   height="500"
   viewBox="0 0 500 500"
   sodipodi:docname="A6e.svg">
  <metadata
     id="metadata8">
    <rdf:RDF>
      <cc:Work
         rdf:about="">
        <dc:format>image/svg+xml</dc:format>
        <dc:type
           rdf:resource="http://purl.org/dc/dcmitype/StillImage" />
        <dc:title></dc:title>
      </cc:Work>
    </rdf:RDF>
  </metadata>
  <defs
     id="defs6" />
  <sodipodi:namedview
     pagecolor="#ffffff"
     bordercolor="#666666"
     borderopacity="1"
     objecttolerance="10"
     gridtolerance="10"
     guidetolerance="10"
     inkscape:pageopacity="0"
     inkscape:pageshadow="2"
     inkscape:window-width="2560"
     inkscape:window-height="1413"
     id="namedview4"
     showgrid="false"
     fit-margin-top="0"
     fit-margin-left="0"
     fit-margin-right="0"
     fit-margin-bottom="0"
     inkscape:zoom="2.3308642"
     inkscape:cx="163.32719"
     inkscape:cy="211.72709"
     inkscape:window-x="0"
     inkscape:window-y="27"
     inkscape:window-maximized="0"
     inkscape:current-layer="svg2" />
  <path
     style="fill:#000000"
     d="m 362.6245,410.4203 -8.59001,-2.98753 -5.75368,-17.17766 c -8.01816,-23.9383 -13.0798,-37.24146 -18.39878,-48.35621 -5.02429,-10.49896 -5.68595,-11.28147 -17.65858,-20.88356 -7.50373,-6.01803 -10.56899,-10.70587 -15.24863,-23.32049 -1.96393,-5.294 -2.67198,-8.4096 -3.39818,-14.95283 l -0.91733,-8.26544 2.18275,-7.96626 c 2.79102,-10.18632 4.73768,-21.70863 4.35587,-25.78258 -0.164,-1.74981 -0.31063,-7.47648 -0.32586,-12.72593 -0.0234,-8.07646 0.19061,-10.27843 1.39162,-14.31667 1.85711,-6.24424 3.12236,-8.63825 7.07643,-13.38955 4.32688,-5.19927 9.77778,-7.94801 14.47913,-7.3014 4.12571,0.56743 7.05356,3.56098 9.26457,9.47244 1.45209,3.8824 1.63474,5.30902 1.63474,12.76815 0,4.61856 -0.33502,10.09639 -0.74446,12.17295 -0.88521,4.48936 -0.86498,24.04845 0.0296,28.59114 0.7316,3.71523 6.26839,19.42929 7.17428,20.36149 1.03143,1.06136 -0.13194,-5.96704 -1.73781,-10.4989 -3.66038,-10.32985 -3.87191,-11.99966 -3.2241,-25.45186 0.32864,-6.82428 0.62543,-17.56179 0.65955,-23.86113 0.067,-12.35825 0.27524,-11.28532 -4.07673,-20.99778 -4.61575,-10.30114 -9.12017,-24.41548 -10.15329,-31.81483 -0.29318,-2.09978 -1.84313,-7.47225 -3.44435,-11.93881 -1.6012,-4.46656 -3.32653,-9.9069 -3.83406,-12.08963 -0.50751,-2.18273 -1.12764,-4.54128 -1.37804,-5.2412 -0.2504,-0.69993 0.4142,-0.10177 1.47689,1.32925 1.06269,1.43103 3.46699,4.05595 5.3429,5.83318 3.22455,3.05491 3.51138,3.59025 5.25405,9.80593 2.30698,8.22852 6.27664,17.59524 9.39313,22.16388 1.98366,2.90794 2.59504,4.62921 3.61612,10.18074 1.1134,6.05345 1.95512,9.78357 4.98953,22.1113 0.53839,2.18727 1.23342,3.97686 1.54452,3.97686 0.71461,0 0.7715,0.67095 -0.66812,-7.88079 -0.67858,-4.0309 -1.57333,-7.96337 -1.98834,-8.73882 -0.41501,-0.77545 -1.39287,-5.0619 -2.173,-9.52542 -1.22836,-7.02799 -1.68997,-8.45833 -3.44471,-10.67387 -2.86273,-3.61452 -6.20828,-11.11131 -9.35016,-20.95214 -2.57877,-8.07709 -2.8848,-8.66463 -6.79408,-13.04409 -4.30478,-4.82249 -8.06752,-11.10057 -11.18685,-18.66505 -1.93146,-4.68381 -4.16579,-13.31687 -3.65885,-14.13712 0.15855,-0.25653 0.45022,-2.31013 0.64818,-4.56354 0.72676,-8.273347 4.53396,-13.002204 11.70648,-14.540437 5.38991,-1.155931 5.42767,-1.138207 7.9865,3.746415 2.84422,5.42947 2.51097,6.986665 -1.49521,6.986665 -3.31857,0 -6.69505,2.092988 -8.58456,5.321317 -1.26507,2.16144 -1.56183,3.6026 -1.65876,8.05544 l -0.11806,5.42304 4.27439,9.28982 c 3.66685,7.96935 4.97322,10.0927 9.19073,14.93844 4.52844,5.203 5.03625,6.07532 6.43669,11.05715 2.92153,10.39287 6.67154,19.16095 10.73242,25.09393 3.61182,5.2769 3.89297,5.94206 3.89998,9.2263 0.008,3.9958 3.63772,20.22624 5.67819,25.39381 l 1.34323,3.4018 -3.71129,4.37642 c -3.4143,4.02621 -3.9243,5.05237 -6.37325,12.82377 -3.85704,12.23974 -4.22732,14.05478 -3.23474,15.85629 0.76349,1.38572 0.90964,1.06568 1.93064,-4.22746 1.80119,-9.33779 4.80669,-16.47853 9.3332,-22.17467 2.16403,-2.72322 3.93462,-5.47025 3.93462,-6.10451 0,-0.63426 -0.40873,-2.13143 -0.90829,-3.32705 -1.4867,-3.55818 -5.42953,-20.71231 -5.88154,-25.58898 -0.37142,-4.00709 -0.80865,-5.15202 -3.81641,-9.99363 -4.59465,-7.39608 -7.82036,-15.4225 -12.08148,-30.06195 -0.18731,-0.64349 -2.62793,-3.65 -5.4236,-6.6811 -5.40483,-5.86003 -6.45378,-7.58367 -10.70167,-17.58495 -2.60902,-6.1427 -2.68202,-6.4997 -2.26667,-11.08329 0.74289,-8.19809 2.33504,-10.22043 8.78518,-11.1589 2.51673,-0.366179 3.0864,-0.704012 3.41854,-2.027371 0.35861,-1.428825 0.69367,-1.076592 3.34298,3.514361 1.61944,2.8063 7.52577,10.75933 13.12518,17.67344 9.78298,12.07993 10.54627,13.23731 19.53639,29.62366 8.3398,15.20098 10.22469,19.24489 17.35922,37.24301 4.40195,11.10473 8.85349,21.98544 9.89232,24.17933 2.76139,5.83184 2.62862,12.34094 -0.66363,32.53305 -3.29554,20.21235 -3.66709,26.00869 -2.7165,42.37883 0.65157,11.22065 1.1274,14.85859 2.9689,22.69871 2.17892,9.27669 5.55568,17.82935 9.0193,22.84405 0.86409,1.25102 3.02034,6.26187 4.79168,11.13519 1.77134,4.87333 7.78017,18.25006 13.35296,29.72609 5.57279,11.47602 10.13234,20.97332 10.13234,21.1051 0,0.13178 -3.69481,3.41221 -8.21068,7.28986 l -8.2107,7.05028 -8.64804,3.18224 -8.64803,3.18224 -11.2974,-0.0372 -11.29739,-0.0372 -8.59,-2.98753 z M 238.86481,352.65027 c -11.78274,-1.21476 -30.35884,-4.57377 -42.24737,-7.63935 -8.4651,-2.18281 -20.00711,-6.11315 -28.7578,-9.79273 -10.22156,-4.29806 -21.61468,-7.50331 -31.75673,-8.93419 -7.80265,-1.10082 -12.87671,-1.21395 -55.357802,-1.23424 -29.02549,-0.0139 -48.336851,-0.27213 -50.903729,-0.68081 -9.153622,-1.45731 -19.518774,-8.61058 -23.9900896,-16.55618 -3.3060706,-5.87495 -4.3007859,-9.76464 -4.3007859,-16.8176 0,-14.77123 8.1044019,-26.22227 22.4359165,-31.70062 l 3.627922,-1.3868 132.826918,-0.16788 c 73.05479,-0.0923 132.8269,0.007 132.8269,0.22022 0,0.21346 -0.44981,1.93542 -0.99959,3.82658 l -0.9996,3.43849 -56.47433,0 -56.47432,0 -1.48867,1.58462 c -1.19705,1.2742 -2.26491,4.98248 -5.45116,18.92982 -3.50688,15.35082 -3.86591,17.52811 -3.12256,18.93595 1.12283,2.12658 9.85731,10.56338 14.61278,14.11476 5.4236,4.05037 15.7336,9.67645 22.346,12.19405 7.23655,2.75525 19.42183,6.2035 29.35869,8.30805 14.41216,3.05242 25.23882,2.14539 46.60313,-3.90425 10.20483,-2.88965 17.79983,-5.79296 23.87115,-9.12508 l 4.83464,-2.65341 2.66803,2.11749 c 6.70833,5.32404 10.01842,8.61694 10.68147,10.62599 0.38688,1.17226 0.60329,2.20245 0.48092,2.2893 -0.72533,0.51478 -15.18142,5.04294 -20.26583,6.34797 -7.40105,1.89965 -23.54392,5.15281 -32.13298,6.47555 -6.15738,0.94826 -27.26788,1.71868 -32.45112,1.1843 z m 158.98586,-32.44523 c -1.22789,-2.65759 -3.19291,-8.59901 -4.36673,-13.20315 -1.91296,-7.50335 -2.21001,-9.88827 -2.86534,-23.00598 -0.43821,-8.77157 -0.52035,-16.92914 -0.20502,-20.36148 l 0.52612,-5.72668 40.40483,0 c 37.80253,0 40.63022,0.0766 43.90446,1.19032 10.68933,3.63574 18.43862,11.38929 22.02234,22.03451 0.83483,2.4798 1.17816,5.35389 1.17816,9.86259 0,7.05296 -0.99471,10.94265 -4.30077,16.8176 -4.47133,7.9456 -14.83648,15.09887 -23.9901,16.55618 -2.4595,0.39158 -17.49968,0.66043 -37.10568,0.6633 l -32.96976,0.005 -2.23251,-4.83199 z m -200.66329,-128.15399 0,-16.54371 16.54371,0 16.54371,0 0,16.54371 0,16.54371 -16.54371,0 -16.54371,0 0,-16.54371 z m 36.26891,0 0,-16.54371 16.54371,0 16.54371,0 0,16.54371 0,16.54371 -16.54371,0 -16.54371,0 0,-16.54371 z m 36.26891,0 0,-16.54371 16.54371,0 16.54371,0 0,12.37024 c 0,8.12881 -0.23432,12.51504 -0.6834,12.79259 -0.37587,0.2323 -1.41546,2.11036 -2.31021,4.17347 l -1.62681,3.75112 -14.2335,0 -14.2335,0 0,-16.54371 z m -72.53782,-36.2689 0,-16.54371 16.54371,0 16.54371,0 0,16.54371 0,16.54372 -16.54371,0 -16.54371,0 0,-16.54372 z m 36.26891,0 0,-16.54371 16.54371,0 16.54371,0 0,16.54371 0,16.54372 -16.54371,0 -16.54371,0 0,-16.54372 z m 36.26891,0 0,-16.54371 16.54371,0 16.54371,0 0,16.54371 0,16.54372 -16.54371,0 -16.54371,0 0,-16.54372 z m -72.53782,-36.2689 0,-16.54372 16.54371,0 16.54371,0 0,16.54372 0,16.54371 -16.54371,0 -16.54371,0 0,-16.54371 z m 36.26891,0 0,-16.54372 16.54371,0 16.54371,0 0,16.54372 0,16.54371 -16.54371,0 -16.54371,0 0,-16.54371 z m 36.26891,0 0,-16.54372 15.75293,0 15.75292,0 -0.21478,2.70426 c -0.11811,1.48735 0.23773,4.65479 0.79078,7.03875 0.67823,2.92352 1.00557,7.42858 1.00557,13.83945 l 0,9.50497 -16.54371,0 -16.54371,0 0,-16.54371 z"
     id="path4138"
     inkscape:connector-curvature="0" />
</svg>
