<?xml version="1.0" encoding="UTF-8" standalone="no"?>
<!-- Created with Inkscape (http://www.inkscape.org/) -->

<svg
   xmlns:dc="http://purl.org/dc/elements/1.1/"
   xmlns:cc="http://creativecommons.org/ns#"
   xmlns:rdf="http://www.w3.org/1999/02/22-rdf-syntax-ns#"
   xmlns:svg="http://www.w3.org/2000/svg"
   xmlns="http://www.w3.org/2000/svg"
   xmlns:sodipodi="http://sodipodi.sourceforge.net/DTD/sodipodi-0.dtd"
   xmlns:inkscape="http://www.inkscape.org/namespaces/inkscape"
   id="svg2"
   version="1.1"
   inkscape:version="0.91 r13725"
   width="702.83118"
   height="462.47"
   viewBox="0 0 702.83118 462.47"
   sodipodi:docname="A6e.svg">
  <metadata
     id="metadata8">
    <rdf:RDF>
      <cc:Work
         rdf:about="">
        <dc:format>image/svg+xml</dc:format>
        <dc:type
           rdf:resource="http://purl.org/dc/dcmitype/StillImage" />
        <dc:title></dc:title>
      </cc:Work>
    </rdf:RDF>
  </metadata>
  <defs
     id="defs6" />
  <sodipodi:namedview
     pagecolor="#ffffff"
     bordercolor="#666666"
     borderopacity="1"
     objecttolerance="10"
     gridtolerance="10"
     guidetolerance="10"
     inkscape:pageopacity="0"
     inkscape:pageshadow="2"
     inkscape:window-width="2120"
     inkscape:window-height="1409"
     id="namedview4"
     showgrid="false"
     fit-margin-top="0"
     fit-margin-left="0"
     fit-margin-right="0"
     fit-margin-bottom="0"
     inkscape:zoom="0.29135802"
     inkscape:cx="-496.33864"
     inkscape:cy="245.7"
     inkscape:window-x="0"
     inkscape:window-y="27"
     inkscape:window-maximized="0"
     inkscape:current-layer="svg2" />
  <path
     style="fill:#000000"
     d="m 510.7156,458.13905 -12.15,-4.22567 -8.13821,-24.29669 c -11.34116,-33.85915 -18.50051,-52.6756 -26.02386,-68.39669 -7.10654,-14.8501 -8.04241,-15.9569 -24.97691,-29.53844 -10.61355,-8.51211 -14.94916,-15.14275 -21.56821,-32.98531 -2.77784,-7.48801 -3.77933,-11.89483 -4.80649,-21.1498 l -1.29751,-11.69093 3.08735,-11.26775 c 3.94773,-14.40788 6.70115,-30.70544 6.1611,-36.46777 -0.23196,-2.475 -0.43937,-10.575 -0.46091,-18 -0.0331,-11.42364 0.2696,-14.53818 1.96837,-20.25 2.62675,-8.83206 4.41636,-12.21825 10.00914,-18.93865 6.12009,-7.35403 13.83003,-11.24193 20.47979,-10.32735 5.83554,0.80259 9.9768,5.03678 13.10411,13.39815 2.05389,5.49141 2.31224,7.50926 2.31224,18.05971 0,6.53265 -0.47385,14.28069 -1.05299,17.21785 -1.25207,6.3499 -1.22345,34.01496 0.0419,40.44029 1.03481,5.25496 8.86623,27.48147 10.14756,28.8 1.45888,1.50123 -0.18663,-8.43998 -2.45802,-14.85 -5.17738,-14.6109 -5.47657,-16.97273 -4.56029,-36 0.46484,-9.6525 0.88463,-24.84 0.93289,-33.75 0.0947,-17.47995 0.38931,-15.96235 -5.76627,-29.7 -6.52868,-14.57028 -12.89987,-34.53409 -14.36117,-45 -0.41467,-2.97 -2.60698,-10.568997 -4.8718,-16.886657 -2.2648,-6.31767 -4.70516,-14.01267 -5.42302,-17.1 -0.71785,-3.08734 -1.59497,-6.42334 -1.94915,-7.41334 -0.35417,-0.99 0.58585,-0.14394 2.08896,1.88015 1.5031,2.02408 4.90384,5.73687 7.55719,8.25065 4.56091,4.32098 4.96662,5.07817 7.4315,13.86985 3.26307,11.638697 8.87789,24.887307 13.28598,31.349347 2.80576,4.1131 3.67051,6.54772 5.11476,14.4 1.57483,8.56221 2.76539,13.83823 7.05737,31.275 0.76151,3.09375 1.74459,5.625 2.18462,5.625 1.01077,0 1.09123,0.94901 -0.94502,-11.14687 -0.9598,-5.70144 -2.22537,-11.26365 -2.81237,-12.36048 -0.58701,-1.09683 -1.97012,-7.15972 -3.07357,-13.47308 -1.73743,-9.94064 -2.39035,-11.96377 -4.87231,-15.0975 -4.04916,-5.1125 -8.78121,-15.71623 -13.2252,-29.635447 -3.64749,-11.42449 -4.08036,-12.25555 -9.60978,-18.45 -6.08882,-6.82111 -11.41098,-15.70103 -15.82308,-26.40049 -2.73192,-6.62495 -5.89223,-18.83585 -5.17519,-19.99604 0.22425,-0.36285 0.63681,-3.26753 0.9168,-6.45483 1.02796,-11.7021103 6.413,-18.3907703 16.55806,-20.56650033 7.62368,-1.63499 7.67709,-1.60992 11.29637,5.29906003 4.02298,7.6796303 3.55161,9.8821803 -2.11487,9.8821803 -4.6939,0 -9.4697,2.96039 -12.1423,7.52666 -1.78935,3.05721 -2.2091,5.09565 -2.34621,11.39389 l -0.16698,7.67054 6.04585,13.13983 c 5.18652,11.27214 7.03428,14.27547 12.99967,21.12946 6.40519,7.3593 7.12346,8.59315 9.10429,15.63962 4.13231,14.700037 9.43646,27.101907 15.18031,35.493727 5.10867,7.46383 5.50635,8.40465 5.51626,13.05 0.0121,5.6518 5.14533,28.60869 8.03143,35.91789 l 1.89992,4.81162 -5.24938,6.19016 c -4.82932,5.69481 -5.55066,7.14624 -9.01455,18.13837 -5.45553,17.31232 -5.97927,19.87958 -4.57533,22.4277 1.0799,1.96001 1.28663,1.50734 2.73077,-5.97947 2.54767,-13.20769 6.79874,-23.3078 13.20119,-31.36461 3.0609,-3.85182 5.56528,-7.73732 5.56528,-8.63444 0,-0.89712 -0.57813,-3.01478 -1.28473,-4.7059 -2.10284,-5.03281 -7.67971,-29.29621 -8.31906,-36.19394 -0.52534,-5.66776 -1.14378,-7.28719 -5.39805,-14.13534 -6.49884,-10.46126 -11.0614,-21.81411 -17.08848,-42.520647 -0.26493,-0.91019 -3.71702,-5.16269 -7.67131,-9.45 -7.64478,-8.28862 -9.12847,-10.7266 -15.13682,-24.87275 -3.69028,-8.68845 -3.79355,-9.19341 -3.20606,-15.67661 1.05077,-11.59565 3.30276,-14.45612 12.42607,-15.78353 3.55975,-0.51793 4.3655,-0.99578 4.8353,-2.86758 0.50723,-2.02098 0.98115,-1.52277 4.72843,4.97083 2.29059,3.96932 10.64471,15.21837 18.56471,24.99792 13.83739,17.08628 14.917,18.72333 27.63295,41.90075 11.79609,21.500787 14.46215,27.220647 24.55348,52.677807 6.22628,15.70692 12.52269,31.09696 13.99204,34.20008 3.90581,8.24875 3.71801,17.45545 -0.93866,46.01587 -4.66133,28.58905 -5.18686,36.78759 -3.84232,59.94209 0.92161,15.87089 1.59463,21.01651 4.19931,32.10585 3.08195,13.12128 7.85816,25.21845 12.75723,32.31142 1.22219,1.76949 4.27206,8.857 6.77751,15.75 2.50544,6.893 11.00455,25.81353 18.8869,42.04561 7.88233,16.23209 14.33153,29.66539 14.33153,29.85179 0,0.18639 -5.22607,4.82635 -11.61348,10.31104 l -11.61349,9.97216 -12.23209,4.50106 -12.23208,4.50107 -15.97943,-0.0526 -15.97943,-0.0526 -12.15,-4.22567 z m -175.05,-81.71194 c -16.66592,-1.7182 -42.9406,-6.4693 -59.75614,-10.80536 -11.97333,-3.08745 -28.29876,-8.64666 -40.67604,-13.85118 -14.45772,-6.07933 -30.57256,-10.61295 -44.91782,-12.63682 -11.03634,-1.55705 -18.21326,-1.71706 -78.3,-1.74576 -41.054662,-0.0196 -68.369321,-0.38492 -72.000002,-0.96295 C 27.068396,334.36375 12.407565,324.24592 6.083181,313.00738 1.406959,304.69765 0,299.19595 0,289.22 0,268.32705 11.463148,252.13031 31.73414,244.38154 L 36.865598,242.42 224.7406,242.18254 c 103.33125,-0.1306 187.875,0.01 187.875,0.31149 0,0.30192 -0.63624,2.73752 -1.41386,5.41245 l -1.41387,4.86352 -79.87925,0 -79.87925,0 -2.10563,2.24134 c -1.69315,1.80227 -3.20356,7.04739 -7.71031,26.775 -4.96024,21.71273 -5.46807,24.79236 -4.41666,26.78366 1.58818,3.0079 13.94254,14.94121 20.66883,19.96441 7.67134,5.72897 22.25414,13.6867 31.60696,17.24768 10.23562,3.89712 27.47091,8.77444 41.52595,11.7512 20.38505,4.31744 35.69866,3.03451 65.91709,-5.52231 14.43406,-4.08723 25.17669,-8.19376 33.76418,-12.90684 l 6.83827,-3.75307 3.77378,2.99505 c 9.48849,7.53052 14.17039,12.1881 15.10823,15.02978 0.54721,1.65808 0.85332,3.11521 0.68023,3.23805 -1.02594,0.72813 -21.47312,7.13292 -28.66469,8.9788 -10.4683,2.68693 -33.30134,7.28832 -45.45,9.15924 -8.70921,1.34125 -38.56865,2.43096 -45.9,1.67512 z m 224.87513,-45.89166 c -1.73677,-3.75899 -4.51618,-12.16274 -6.17646,-18.675 -2.70577,-10.613 -3.12591,-13.98632 -4.05284,-32.54045 -0.61981,-12.40682 -0.73599,-23.94516 -0.28998,-28.8 l 0.74415,-8.1 57.15,0 c 53.46922,0 57.46881,0.10843 62.1,1.68363 15.11936,5.1425 26.08022,16.10941 31.14917,31.16637 1.18081,3.50751 1.66643,7.57273 1.66643,13.95 0,9.97595 -1.40696,15.47765 -6.08318,23.78738 -6.32439,11.23854 -20.98522,21.35637 -33.93242,23.41766 -3.4788,0.55385 -24.75216,0.93412 -52.48356,0.93817 l -46.63357,0.007 -3.15774,-6.83455 z M 276.7156,149.27 l 0,-23.4 23.4,0 23.4,0 0,23.4 0,23.4 -23.4,0 -23.4,0 0,-23.4 z m 51.3,0 0,-23.4 23.4,0 23.4,0 0,23.4 0,23.4 -23.4,0 -23.4,0 0,-23.4 z m 51.3,0 0,-23.4 23.4,0 23.4,0 0,17.49688 c 0,11.49769 -0.33142,17.70172 -0.96662,18.09429 -0.53164,0.32858 -2.00207,2.98498 -3.26764,5.90311 l -2.30103,5.30572 -20.13235,0 -20.13236,0 0,-23.4 z m -102.6,-51.299997 0,-23.4 23.4,0 23.4,0 0,23.4 0,23.399997 -23.4,0 -23.4,0 0,-23.399997 z m 51.3,0 0,-23.4 23.4,0 23.4,0 0,23.4 0,23.399997 -23.4,0 -23.4,0 0,-23.399997 z m 51.3,0 0,-23.4 23.4,0 23.4,0 0,23.4 0,23.399997 -23.4,0 -23.4,0 0,-23.399997 z m -102.6,-51.3 0,-23.4 23.4,0 23.4,0 0,23.4 0,23.4 -23.4,0 -23.4,0 0,-23.4 z m 51.3,0 0,-23.4 23.4,0 23.4,0 0,23.4 0,23.4 -23.4,0 -23.4,0 0,-23.4 z m 51.3,0 0,-23.4 22.28149,0 22.28148,0 -0.30378,3.825 c -0.16707,2.10375 0.33625,6.58388 1.11851,9.95584 0.9593,4.13512 1.4223,10.50725 1.4223,19.57501 l 0,13.44415 -23.4,0 -23.4,0 0,-23.4 z"
     id="path4138"
     inkscape:connector-curvature="0" />
</svg>
