<?xml version="1.0" encoding="UTF-8" standalone="no"?>
<svg
   xml:space="preserve"
   width="500"
   height="500"
   version="1.1"
   id="svg1314"
   sodipodi:docname="333mbo.svg"
   inkscape:version="1.2.2 (b0a84865, 2022-12-01)"
   xmlns:inkscape="http://www.inkscape.org/namespaces/inkscape"
   xmlns:sodipodi="http://sodipodi.sourceforge.net/DTD/sodipodi-0.dtd"
   xmlns="http://www.w3.org/2000/svg"
   xmlns:svg="http://www.w3.org/2000/svg"><sodipodi:namedview
     id="namedview25738"
     pagecolor="#ffffff"
     bordercolor="#000000"
     borderopacity="0.25"
     inkscape:showpageshadow="2"
     inkscape:pageopacity="0.0"
     inkscape:pagecheckerboard="0"
     inkscape:deskcolor="#d1d1d1"
     showgrid="false"
     inkscape:zoom="0.472"
     inkscape:cx="255.29661"
     inkscape:cy="255.29661"
     inkscape:window-width="1728"
     inkscape:window-height="973"
     inkscape:window-x="0"
     inkscape:window-y="38"
     inkscape:window-maximized="0"
     inkscape:current-layer="svg1314" /><defs
     id="defs1318" /><path
     id="rect2224"
     style="fill:#000000;stroke:none;stroke-width:0;stroke-linecap:round;stroke-opacity:0.526316;paint-order:markers stroke fill"
     d="M 48.144028 -16.884937 L 48.144028 14.54817 L 336.39776 14.54817 L 336.39915 295.59411 L 367.83225 295.59411 L 367.83087 14.54817 L 641.60549 14.54817 L 641.60549 -16.884937 L 367.83087 -16.884937 L 367.83225 -297.87011 L 336.39915 -297.87011 L 336.39776 -16.884937 L 48.144028 -16.884937 z "
     transform="rotate(45)" /><path
     id="path1310"
     d="M 131.75977 19.585938 L 103.47656 47.869141 L 131.76172 76.152344 L 160.04492 47.869141 L 131.75977 19.585938 z M 171.5 59.039062 L 143.21484 87.324219 L 171.5 115.60742 L 199.7832 87.324219 L 171.5 59.039062 z M 384.63672 59.755859 C 299.08569 59.755859 275.07542 116.82564 268.50977 185.93555 L 394.40039 60.046875 C 391.27608 59.876523 388.06426 59.755859 384.63672 59.755859 z M 456.02148 85.464844 L 293.32812 248.15625 L 456.14453 410.97266 C 477.29305 373.37272 446.98962 306.23994 443.36719 249.91797 C 446.84666 195.81473 482.14004 123.41537 456.02148 85.464844 z M 211.16797 98.5625 L 182.88281 126.8457 L 211.16797 155.13086 L 239.45117 126.8457 L 211.16797 98.5625 z M 52.5625 98.779297 L 24.279297 127.0625 L 52.5625 155.34766 L 80.847656 127.0625 L 52.5625 98.779297 z M 92.304688 138.23438 L 64.019531 166.51953 L 92.304688 194.80273 L 120.58984 166.51953 L 92.304688 138.23438 z M 131.9707 177.76562 L 103.68555 206.05078 L 131.9707 234.33398 L 160.25391 206.05078 L 131.9707 177.76562 z M 131.64844 253.56836 L 103.36523 281.85352 L 131.64844 310.13672 L 159.93359 281.85352 L 131.64844 253.56836 z M 92.048828 293.16797 L 63.765625 321.44922 L 92.050781 349.73438 L 120.33398 321.45117 L 92.048828 293.16797 z M 267.92578 309.79297 C 273.20375 376.43245 293.66622 437.32624 372.56445 440.08008 C 381.88013 440.40518 389.99469 440.07032 397.57227 439.43945 L 267.92578 309.79297 z M 211.06055 332.54102 L 182.77539 360.82422 L 211.06055 389.10938 L 239.3457 360.82422 L 211.06055 332.54102 z M 52.451172 332.76367 L 24.167969 361.04883 L 52.451172 389.33203 L 80.736328 361.04883 L 52.451172 332.76367 z M 171.46289 372.13867 L 143.17969 400.42188 L 171.46484 428.70508 L 199.74609 400.42383 L 171.46289 372.13867 z M 131.86133 411.74414 L 103.57812 440.02539 L 131.86328 468.31055 L 160.14453 440.02734 L 131.86133 411.74414 z " /></svg>
