<?xml version="1.0" encoding="UTF-8" standalone="no"?>
<svg
   xml:space="preserve"
   width="500"
   height="500"
   version="1.1"
   id="svg1314"
   xmlns="http://www.w3.org/2000/svg"
   xmlns:svg="http://www.w3.org/2000/svg"><defs
     id="defs1318" /><path
     id="rect2224"
     style="fill:#000000;stroke:none;stroke-width:0;stroke-linecap:round;stroke-opacity:0.526316;paint-order:markers stroke fill"
     d="M 48.144028 -16.884937 L 48.144028 14.54817 L 336.39776 14.54817 L 336.39915 295.59411 L 367.83225 295.59411 L 367.83087 14.54817 L 641.60549 14.54817 L 641.60549 -16.884937 L 367.83087 -16.884937 L 367.83225 -297.87011 L 336.39915 -297.87011 L 336.39776 -16.884937 L 48.144028 -16.884937 z "
     transform="rotate(45)" /><path
     id="path1310"
     d="M 131.75977 19.585938 L 103.47656 47.869141 L 131.76172 76.152344 L 160.04492 47.869141 L 131.75977 19.585938 z M 171.5 59.039062 L 143.21484 87.324219 L 171.5 115.60742 L 199.7832 87.324219 L 171.5 59.039062 z M 384.63672 59.755859 C 295.88522 59.755859 273.30805 121.13569 267.79102 193.70312 L 400.96484 60.486328 C 395.85701 60.054069 390.51271 59.755859 384.63672 59.755859 z M 452.99219 81.511719 L 286.37305 248.18359 L 453.4707 415.22852 C 479.71224 378.61476 447.13019 308.42552 443.36719 249.91797 C 446.9713 193.87664 484.72897 118.19446 452.99219 81.511719 z M 211.16797 98.5625 L 182.88281 126.8457 L 211.16797 155.13086 L 239.45117 126.8457 L 211.16797 98.5625 z M 52.5625 98.779297 L 24.279297 127.0625 L 52.5625 155.34766 L 80.847656 127.0625 L 52.5625 98.779297 z M 92.304688 138.23438 L 64.019531 166.51953 L 92.304688 194.80273 L 120.58984 166.51953 L 92.304688 138.23438 z M 131.9707 177.76562 L 103.68555 206.05078 L 131.9707 234.33398 L 160.25391 206.05078 L 131.9707 177.76562 z M 131.64844 253.56836 L 103.36523 281.85352 L 131.64844 310.13672 L 159.93359 281.85352 L 131.64844 253.56836 z M 92.048828 293.16797 L 63.765625 321.44922 L 92.050781 349.73438 L 120.33398 321.45117 L 92.048828 293.16797 z M 267.3418 302.20898 C 271.68555 371.75045 290.67491 437.22183 372.56445 440.08008 C 384.53708 440.4979 394.91936 440.04403 404.10938 438.92969 L 267.3418 302.20898 z M 211.06055 332.54102 L 182.77539 360.82422 L 211.06055 389.10938 L 239.3457 360.82422 L 211.06055 332.54102 z M 52.451172 332.76367 L 24.167969 361.04883 L 52.451172 389.33203 L 80.736328 361.04883 L 52.451172 332.76367 z M 171.46289 372.13867 L 143.17969 400.42188 L 171.46484 428.70508 L 199.74609 400.42383 L 171.46289 372.13867 z M 131.86133 411.74414 L 103.57812 440.02539 L 131.86328 468.31055 L 160.14453 440.02734 L 131.86133 411.74414 z " /></svg>
