<svg enable-background="new 0 0 500 500" height="500" viewBox="0 0 500 500" width="500" xmlns="http://www.w3.org/2000/svg"><path fill-rule="evenodd" d="M217.749 457.949H113.342L81.087 358.68l106.26-2.553zm47.804 0h-31.106l-30.445-101.967h91.996zm152.98-99.278-32.257 99.278H282.251l30.401-101.822zm-236.195-18.428L75.927 342.8l-9.608-29.571 87.59-60.471zm251.03-27.229-9.675 29.776-106.032-2.547 28.429-87.485zM332.395 243.13l-31.472 96.852H199.077l-31.473-96.852L250 183.271zm-183.77-6.167-87.466 60.386L29 198.372l84.466-61.369zm321.993-38.591-32.09 98.762-87.154-60.171 35.081-99.739zm-234.008-25.15-74.426 54.069-35.209-100.103 25.303-18.384zm136.335-45.814q-17.564 49.941-35.13 99.883l-74.426-54.069 84.145-64.276zm-38.92-28.276L250 163.315l-84.213-64.326 84.022-61.045z" clip-rule="evenodd"/></svg>