<svg enable-background="new 0 0 480 480" height="500" viewBox="0 0 500 500" width="500" xmlns="http://www.w3.org/2000/svg"><path d="m145.11337 144.35313h87.08873v87.087601h-87.08873z"/><path d="m267.2374 20.712004h87.087601v87.087601h-87.087601z"/><path d="m388.96649 20.713123h87.089844v87.08873h-87.089844z" stroke-miterlimit="10"/><path d="m267.2374 144.72682h87.087601v87.086487h-87.087601z"/><path d="m388.96649 144.72792h87.089844v87.087601h-87.089844z"/><path d="m23.38427 268.74164h87.087601v87.089844h-87.087601z"/><path d="m145.11337 268.74164h87.08873v87.089844h-87.08873z"/><path d="m23.38427 392.75644h87.087601v87.087601h-87.087601z"/><path d="m145.11337 392.7587h87.08873v87.087601h-87.08873z"/><path d="m267.2374 268.74164h87.087601v87.087601h-87.087601z"/><path d="m388.96649 268.74164h87.089844v87.089844h-87.089844z"/><path d="m267.2374 392.75644h87.087601v87.087601h-87.087601z"/></svg>