<?xml version="1.0" standalone="no"?>
<!DOCTYPE svg PUBLIC "-//W3C//DTD SVG 20010904//EN"
 "http://www.w3.org/TR/2001/REC-SVG-20010904/DTD/svg10.dtd">
<svg version="1.0" xmlns="http://www.w3.org/2000/svg"
 width="200.000000pt" height="162.000000pt" viewBox="0 0 200.000000 162.000000"
 preserveAspectRatio="xMidYMid meet">

<g transform="translate(0.000000,162.000000) scale(0.100000,-0.100000)"
fill="#000000" stroke="none">
<path d="M886 1306 c-91 -43 -108 -63 -78 -89 26 -22 176 -97 195 -97 41 0
232 110 216 124 -16 15 -212 106 -226 105 -10 0 -58 -20 -107 -43z"/>
<path d="M582 1165 c-122 -58 -122 -69 3 -142 49 -29 100 -53 113 -53 13 0 38
10 54 22 17 12 60 33 96 48 36 15 67 31 69 37 5 14 -34 41 -122 86 -104 52
-107 52 -213 2z"/>
<path d="M1290 1181 c-19 -4 -72 -27 -118 -50 -97 -49 -102 -66 -28 -93 26
-10 67 -32 91 -48 61 -42 93 -39 195 18 117 65 117 74 -5 135 -52 26 -96 46
-98 46 -1 -1 -18 -5 -37 -8z"/>
<path d="M264 1015 c-90 -42 -114 -65 -93 -91 18 -22 164 -103 195 -109 22 -4
55 8 134 47 59 30 105 59 105 67 0 17 -177 117 -220 124 -22 3 -55 -7 -121
-38z"/>
<path d="M925 1010 c-22 -16 -58 -34 -80 -41 -81 -26 -86 -49 -15 -80 27 -12
71 -37 97 -55 27 -19 59 -34 72 -34 13 0 47 15 75 34 28 18 71 40 96 48 65 21
63 41 -9 77 -32 16 -77 41 -98 55 -48 33 -87 32 -138 -4z"/>
<path d="M1615 1022 c-42 -5 -209 -94 -213 -113 -2 -12 25 -32 94 -68 132 -71
136 -71 228 -21 111 61 122 71 105 99 -20 32 -176 107 -214 103z"/>
<path d="M558 830 c-53 -27 -99 -53 -102 -58 -3 -5 5 -18 17 -29 39 -36 181
-113 207 -113 35 1 225 102 225 120 0 8 -29 29 -64 47 -35 19 -77 45 -93 58
-43 36 -79 31 -190 -25z"/>
<path d="M1230 829 c-36 -22 -77 -43 -92 -46 -32 -6 -52 -27 -45 -45 7 -20
201 -118 231 -118 33 0 216 97 216 114 0 7 -8 20 -17 28 -31 26 -190 108 -210
108 -10 -1 -47 -19 -83 -41z"/>
<path d="M104 839 c-3 -6 -3 -68 1 -137 5 -99 11 -134 26 -159 26 -43 142
-115 177 -111 l27 3 -2 137 c-1 76 -6 145 -12 157 -12 21 -173 121 -196 121
-8 0 -17 -5 -21 -11z"/>
<path d="M1766 771 c-114 -67 -115 -70 -118 -231 l-3 -135 33 3 c47 5 147 66
171 105 15 25 22 63 31 160 6 70 8 132 5 137 -11 18 -39 9 -119 -39z"/>
<path d="M865 645 c-55 -30 -101 -58 -103 -63 -4 -13 26 -37 114 -90 116 -71
119 -71 222 -15 48 26 96 53 107 58 11 6 20 19 20 30 0 26 -187 135 -230 135
-17 -1 -75 -25 -130 -55z"/>
<path d="M397 673 c-13 -13 -8 -242 7 -277 17 -42 192 -154 216 -138 12 7 15
35 15 145 0 160 4 153 -126 226 -91 52 -101 56 -112 44z"/>
<path d="M1467 613 c-54 -31 -105 -66 -112 -77 -9 -14 -17 -68 -21 -156 -9
-177 -7 -180 109 -121 57 29 93 55 114 81 29 38 30 45 36 167 5 113 4 130 -11
145 -16 16 -23 14 -115 -39z"/>
<path d="M707 483 c-11 -10 -8 -258 2 -286 6 -16 41 -44 95 -77 47 -28 86 -55
86 -60 0 -5 10 -12 22 -16 39 -12 48 17 48 162 0 159 1 157 -133 234 -87 49
-107 57 -120 43z"/>
<path d="M1145 430 c-58 -34 -107 -70 -117 -87 -25 -40 -27 -293 -2 -314 12
-10 20 -10 35 -1 10 7 25 12 33 12 8 0 19 6 23 13 4 8 31 26 58 42 78 43 99
75 107 164 15 170 8 233 -26 230 -6 0 -56 -27 -111 -59z"/>
</g>
</svg>
