<?xml version="1.0" standalone="no"?>
<!DOCTYPE svg PUBLIC "-//W3C//DTD SVG 20010904//EN"
 "http://www.w3.org/TR/2001/REC-SVG-20010904/DTD/svg10.dtd">
<svg version="1.0" xmlns="http://www.w3.org/2000/svg"
 width="203.000000pt" height="199.000000pt" viewBox="0 0 203.000000 199.000000"
 preserveAspectRatio="xMidYMid meet">

<g transform="translate(0.000000,199.000000) scale(0.100000,-0.100000)"
fill="#000000" stroke="none">
<path d="M1680 1764 c-23 -27 -15 -70 20 -111 l34 -38 -461 -5 c-510 -6 -497
-4 -491 -69 5 -61 2 -61 507 -61 l455 0 -31 -32 c-47 -51 -56 -73 -41 -106 9
-19 22 -28 43 -30 27 -3 41 9 134 113 91 102 101 118 90 133 -21 27 -183 206
-194 214 -17 13 -52 9 -65 -8z"/>
<path d="M335 1671 c-51 -13 -89 -38 -134 -86 -62 -67 -84 -124 -84 -215 0
-90 26 -156 81 -213 59 -62 118 -87 204 -87 85 0 129 19 195 82 118 115 117
318 -2 441 -20 20 -55 47 -78 58 -44 23 -134 33 -182 20z"/>
<path d="M790 1080 l0 -150 139 0 140 0 3 146 c2 80 1 148 -1 150 -2 2 -67 4
-143 4 l-138 0 0 -150z"/>
<path d="M1160 1080 l0 -150 140 0 140 0 0 150 0 150 -140 0 -140 0 0 -150z"/>
<path d="M1520 1080 l0 -151 143 3 142 3 0 145 0 145 -142 3 -143 3 0 -151z"/>
<path d="M790 700 l0 -150 139 0 140 0 3 146 c2 80 1 148 -1 150 -2 2 -67 4
-143 4 l-138 0 0 -150z"/>
<path d="M1160 700 l0 -150 140 0 140 0 0 150 0 150 -140 0 -140 0 0 -150z"/>
<path d="M1520 700 l0 -151 143 3 142 3 3 148 3 147 -146 0 -145 0 0 -150z"/>
<path d="M335 761 c-51 -13 -89 -38 -134 -86 -62 -67 -84 -124 -84 -215 0 -90
26 -156 81 -213 59 -62 118 -87 204 -87 85 0 129 19 195 82 118 115 117 318
-2 441 -20 20 -55 47 -78 58 -44 23 -134 33 -182 20z"/>
<path d="M790 320 l0 -151 141 3 140 3 0 145 0 145 -140 3 -141 3 0 -151z"/>
<path d="M1160 320 l0 -150 140 0 140 0 0 150 0 150 -140 0 -140 0 0 -150z"/>
<path d="M1520 320 l0 -150 145 0 145 0 0 150 0 150 -145 0 -145 0 0 -150z"/>
</g>
</svg>
