<?xml version="1.0" standalone="no"?>
<!DOCTYPE svg PUBLIC "-//W3C//DTD SVG 20010904//EN"
 "http://www.w3.org/TR/2001/REC-SVG-20010904/DTD/svg10.dtd">
<svg version="1.0" xmlns="http://www.w3.org/2000/svg"
 width="1000.000000pt" height="1000.000000pt" viewBox="0 0 1000.000000 1000.000000"
 preserveAspectRatio="xMidYMid meet">

<g transform="translate(0.000000,1000.000000) scale(0.100000,-0.100000)"
fill="#000000" stroke="none">
<path d="M8220 9340 c-77 -7 -118 -14 -245 -40 -37 -8 -79 -19 -150 -40 -16
-5 -46 -13 -65 -19 -113 -31 -231 -79 -256 -105 -12 -12 -36 -59 -54 -106 -17
-47 -36 -94 -40 -105 -4 -11 -13 -36 -20 -55 -7 -19 -16 -44 -20 -55 -4 -11
-17 -46 -29 -77 -12 -32 -30 -84 -42 -115 -12 -32 -25 -67 -29 -78 -35 -89
-50 -129 -50 -135 0 -8 55 -18 215 -40 138 -19 246 -41 460 -92 194 -45 402
-112 593 -189 12 -5 32 -13 45 -18 229 -91 472 -217 737 -381 47 -28 88 -54
92 -57 9 -5 43 68 69 152 7 22 16 45 19 50 4 6 13 30 20 55 7 25 16 50 20 55
4 6 13 30 20 55 7 25 16 50 20 55 4 6 13 30 20 55 7 25 16 50 20 55 4 6 13 30
20 55 7 25 17 50 22 56 4 6 11 32 14 57 7 50 8 48 -89 202 -124 197 -202 306
-271 383 -208 230 -379 340 -636 409 -65 17 -291 24 -410 13z"/>
<path d="M942 7328 l3 -1733 1730 0 1730 0 0 1730 0 1730 -1733 3 -1732 2 2
-1732z"/>
<path d="M6987 7733 c-8 -27 -30 -86 -47 -133 -18 -47 -35 -96 -40 -110 -5
-14 -23 -63 -40 -110 -17 -47 -35 -96 -40 -110 -5 -14 -23 -63 -40 -110 -17
-47 -35 -96 -40 -110 -5 -14 -23 -63 -40 -110 -17 -47 -35 -96 -40 -110 -5
-14 -23 -63 -40 -110 -17 -47 -35 -96 -40 -110 -5 -14 -23 -63 -40 -110 -17
-47 -35 -96 -40 -110 -5 -14 -23 -63 -40 -110 -17 -47 -35 -96 -40 -110 -5
-14 -23 -63 -40 -110 -17 -47 -35 -96 -40 -110 -5 -14 -23 -63 -40 -110 -17
-47 -35 -96 -40 -110 -5 -14 -23 -63 -40 -110 -17 -47 -35 -96 -40 -110 -5
-14 -23 -63 -40 -110 -17 -47 -35 -96 -40 -110 -5 -14 -23 -63 -40 -110 -17
-47 -35 -96 -40 -110 -5 -14 -23 -63 -40 -110 -17 -47 -35 -96 -40 -110 -5
-14 -23 -63 -40 -110 -17 -47 -35 -96 -40 -110 -5 -14 -23 -63 -40 -110 -17
-47 -35 -96 -40 -110 -5 -14 -23 -63 -40 -110 -17 -47 -35 -96 -40 -110 -5
-14 -23 -63 -40 -110 -17 -47 -35 -96 -40 -110 -5 -14 -23 -63 -40 -110 -17
-47 -35 -96 -40 -110 -5 -14 -23 -63 -40 -110 -17 -47 -35 -96 -40 -110 -5
-14 -23 -63 -40 -110 -17 -47 -35 -96 -40 -110 -5 -14 -22 -63 -40 -110 -53
-142 -61 -170 -55 -180 3 -5 27 -11 53 -15 107 -13 200 -26 252 -36 30 -6 78
-15 105 -20 96 -18 160 -32 215 -46 64 -17 109 -29 165 -41 44 -10 305 -96
345 -114 14 -6 34 -14 45 -18 22 -8 55 -21 98 -39 15 -6 37 -15 50 -20 64 -26
279 -124 312 -143 11 -6 49 -27 85 -46 138 -73 197 -106 237 -134 23 -15 44
-28 48 -28 4 0 26 -13 50 -30 24 -16 50 -30 58 -30 8 0 21 21 30 47 8 27 30
86 47 133 18 47 35 96 40 110 5 14 23 63 40 110 17 47 35 96 40 110 5 14 23
63 40 110 17 47 35 96 40 110 5 14 23 63 40 110 17 47 35 96 40 110 5 14 23
63 40 110 17 47 35 96 40 110 5 14 23 63 40 110 17 47 35 96 40 110 5 14 23
63 40 110 17 47 35 96 40 110 5 14 23 63 40 110 17 47 35 96 40 110 5 14 23
63 40 110 17 47 35 96 40 110 5 14 23 63 40 110 17 47 35 96 40 110 5 14 23
63 40 110 17 47 35 96 40 110 5 14 23 63 40 110 17 47 35 96 40 110 5 14 23
63 40 110 17 47 35 96 40 110 5 14 23 63 40 110 17 47 35 96 40 110 5 14 23
63 40 110 17 47 35 96 40 110 5 14 23 63 40 110 17 47 35 96 40 110 5 14 23
63 40 110 17 47 35 96 40 110 5 14 23 63 40 110 17 47 35 96 40 110 5 14 23
63 40 110 17 47 35 96 40 110 5 14 23 63 40 110 17 47 35 96 40 110 5 14 22
63 40 110 68 183 65 161 28 193 -53 46 -341 247 -354 247 -3 0 -18 8 -32 19
-78 55 -348 190 -502 251 -58 23 -214 76 -265 91 -16 4 -48 13 -70 19 -130 37
-275 68 -365 80 -36 5 -119 16 -185 24 -66 9 -168 16 -226 16 l-106 0 -16 -47z"/>
<path d="M947 4403 c-4 -3 -7 -784 -7 -1735 l0 -1728 1733 2 1732 3 0 1730 0
1730 -1726 3 c-949 1 -1729 -1 -1732 -5z"/>
<path d="M5035 2387 c-11 -14 -27 -47 -46 -96 -7 -19 -13 -76 -13 -125 -1 -85
2 -96 35 -166 20 -41 53 -110 73 -152 20 -43 51 -111 70 -150 19 -40 44 -95
56 -123 13 -27 45 -97 72 -155 27 -58 63 -134 80 -170 17 -36 45 -96 63 -135
19 -38 56 -117 83 -175 27 -58 64 -138 82 -177 19 -40 40 -73 47 -73 12 0 61
23 298 135 50 23 119 56 155 73 36 16 100 46 143 66 42 20 112 52 155 72 42
20 105 49 140 65 34 16 90 42 125 58 34 16 82 38 107 49 25 11 68 30 95 42
211 93 270 150 311 300 16 57 4 82 -68 142 -187 156 -462 317 -798 466 -51 22
-248 89 -360 121 -41 12 -88 25 -105 30 -16 5 -59 14 -95 21 -36 6 -83 15
-105 20 -38 7 -92 15 -280 40 -111 14 -307 13 -320 -3z"/>
</g>
</svg>
