<?xml version="1.0" standalone="no"?>
<!DOCTYPE svg PUBLIC "-//W3C//DTD SVG 20010904//EN"
 "http://www.w3.org/TR/2001/REC-SVG-20010904/DTD/svg10.dtd">
<svg version="1.0" xmlns="http://www.w3.org/2000/svg"
 width="1111.000000pt" height="684.000000pt" viewBox="0 0 1111.000000 684.000000"
 preserveAspectRatio="xMidYMid meet">

<g transform="translate(0.000000,684.000000) scale(0.100000,-0.100000)"
fill="#000000" stroke="none">
<path d="M1280 6294 c-80 -13 -197 -32 -260 -42 -129 -21 -181 -41 -210 -83
-29 -40 -41 -114 -28 -174 9 -45 21 -60 102 -140 104 -101 125 -139 163 -285
50 -191 41 -325 -32 -470 -84 -167 -110 -302 -102 -535 5 -146 11 -197 46
-361 58 -279 88 -370 191 -576 104 -206 301 -504 469 -708 67 -82 192 -222
214 -242 18 -17 69 -18 768 -18 l749 0 0 799 0 799 -107 42 c-379 149 -724
392 -1308 920 -244 222 -261 257 -252 510 3 85 13 208 23 272 22 144 11 213
-40 264 -60 60 -149 67 -386 28z"/>
<path d="M10025 4670 c-27 -10 -93 -37 -146 -58 -301 -125 -605 -202 -1274
-326 -165 -31 -399 -76 -520 -100 -121 -25 -295 -57 -387 -72 l-168 -28 0
-717 0 -717 23 -6 c12 -3 481 -6 1042 -6 942 0 1022 1 1045 17 25 17 278 228
405 338 266 230 366 321 411 372 126 145 225 310 304 504 58 144 64 201 27
260 -28 46 -559 494 -629 532 -61 32 -67 32 -133 7z"/>
<path d="M3610 3417 l0 -754 437 -6 c240 -4 1063 -7 1830 -7 l1393 0 0 700 c0
553 -3 700 -12 700 -7 0 -69 -7 -138 -15 -184 -21 -518 -52 -825 -75 -148 -11
-371 -27 -495 -37 -420 -31 -852 -21 -1210 28 -266 37 -755 145 -919 203 -24
9 -47 16 -52 16 -5 0 -9 -330 -9 -753z"/>
<path d="M2091 2414 c25 -30 343 -310 399 -351 153 -112 847 -491 864 -472 2
2 1 192 -2 422 l-5 417 -635 0 c-584 0 -633 -1 -621 -16z"/>
<path d="M3610 1951 l0 -482 63 -28 c173 -79 554 -207 802 -269 451 -114 806
-158 1195 -149 416 10 810 59 1205 149 150 33 379 99 392 111 9 9 11 144 6
575 l-6 562 -1347 0 c-741 0 -1563 3 -1828 7 l-482 6 0 -482z"/>
<path d="M7534 2411 c-9 -9 -4 -1041 6 -1041 16 0 228 85 372 148 413 184 757
390 1192 716 183 136 224 172 205 173 -43 5 -1771 8 -1775 4z"/>
</g>
</svg>
