<svg height="500" viewBox="0 0 500 500" width="500" xmlns="http://www.w3.org/2000/svg"><path d="m8 70h153v153h-153z"/><path d="m8 277h153v153h-153z"/><path d="m193 52.2h104.4v104.4h-104.4z"/><path d="m193 198h104.4v104.4h-104.4z"/><path d="m193 343.8h104.4v104.4h-104.4z"/><path d="m327 43.4h78.3v78.3h-78.3z"/><path d="m327 155h78.3v78.3h-78.3z"/><path d="m327 266.6h78.3v78.3h-78.3z"/><path d="m327 378.2h78.3v78.3h-78.3z"/><path d="m428 26h64v64h-64z"/><path d="m428 122h64v64h-64z"/><path d="m428 218h64v64h-64z"/><path d="m428 314h64v64h-64z"/><path d="m428 410h64v64h-64z"/></svg>