<svg height="500" viewBox="0 0 500 500" width="500" xmlns="http://www.w3.org/2000/svg"><path d="m15 101.4h122.4v122.4h-122.4z"/><path d="m15 276.2h122.4v122.4h-122.4z"/><path d="m162 89h83.5v83.5h-83.5z"/><path d="m162 208.3h83.5v83.5h-83.5z"/><path d="m162 327.6h83.5v83.5h-83.5z"/><path d="m273.5 79.2h64.6v64.6h-64.6z"/><path d="m273.5 171.5h64.6v64.6h-64.6z"/><path d="m273.5 263.8h64.6v64.6h-64.6z"/><path d="m273.5 356.1h64.6v64.6h-64.6z"/><path d="m362.5 65.3h55v55h-55z"/><path d="m362.5 143.9h55v55h-55z"/><path d="m362.5 222.5h55v55h-55z"/><path d="m362.5 301.1h55v55h-55z"/><path d="m362.5 379.7h55v55h-55z"/><path d="m433 54.5h48v48h-48z"/><path d="m433 123.1h48v48h-48z"/><path d="m433 191.7h48v48h-48z"/><path d="m433 260.3h48v48h-48z"/><path d="m433 328.9h48v48h-48z"/><path d="m433 397.5h48v48h-48z"/></svg>