<svg enable-background="new 0 0 500 500" height="500" viewBox="0 0 500 500" width="500" xmlns="http://www.w3.org/2000/svg"><g stroke-width=".846261"><path d="m49.393852 210.77184h88.011131v88.011131h-88.011131z"/><path d="m49.393852 336.52621h88.011131v88.011131h-88.011131z"/><path d="m156.86897 201.80147h60.084522v60.084522h-60.084522z"/><path d="m156.86897 287.61234h60.084522v60.084522h-60.084522z"/><path d="m156.86897 373.42319h60.084522v60.084522h-60.084522z"/><path d="m241.07193 194.94676h46.459721v46.459721h-46.459721z"/><path d="m241.07193 261.29361h46.459721v46.459721h-46.459721z"/><path d="m241.07193 327.64047h46.459721v46.459721h-46.459721z"/><path d="m241.07193 393.98734h46.459721v46.459721h-46.459721z"/><path d="m307.92651 184.96088h39.520382v39.520382h-39.520382z"/><path d="m307.92651 241.40646h39.520382v39.520382h-39.520382z"/><path d="m307.92651 297.85211h39.520382v39.520382h-39.520382z"/><path d="m307.92651 354.29767h39.520382v39.520382h-39.520382z"/><path d="m307.92651 410.74329h39.520382v39.520382h-39.520382z"/><path d="m363.35663 177.00603h34.527443v34.527443h-34.527443z"/><path d="m363.35663 226.34303h34.527443v34.527443h-34.527443z"/><path d="m363.35663 275.68005h34.527443v34.527443h-34.527443z"/><path d="m363.35663 325.01709h34.527443v34.527443h-34.527443z"/><path d="m363.35663 374.35406h34.527443v34.527443h-34.527443z"/><path d="m363.35663 423.69107h34.527443v34.527443h-34.527443z"/><path d="m417.51733 159.23456h33.088799v33.088799h-33.088799z"/><path d="m417.51733 206.54053h33.088799v33.088799h-33.088799z"/><path d="m417.51733 253.84651h33.088799v33.088799h-33.088799z"/><path d="m417.51733 301.1525h33.088799v33.088799h-33.088799z"/><path d="m417.51733 348.4585h33.088799v33.088799h-33.088799z"/><path d="m417.51733 395.76447h33.088799v33.088799h-33.088799z"/><path d="m417.51733 443.07047h33.088799v33.088799h-33.088799z"/></g><circle cx="155.18205" cy="87" r="50" stroke-width=".885916"/><circle cx="344.81793" cy="87" r="50" stroke-width=".885916"/></svg>