<?xml version="1.0" standalone="no"?>
<!DOCTYPE svg PUBLIC "-//W3C//DTD SVG 20010904//EN"
 "http://www.w3.org/TR/2001/REC-SVG-20010904/DTD/svg10.dtd">
<svg version="1.0" xmlns="http://www.w3.org/2000/svg"
 width="651.000000pt" height="571.000000pt" viewBox="0 0 651.000000 571.000000"
 preserveAspectRatio="xMidYMid meet">

<g transform="translate(0.000000,571.000000) scale(0.100000,-0.100000)"
fill="#000000" stroke="none">
<path d="M560 5182 c0 -4 177 -184 393 -400 l392 -392 873 0 c481 0 872 4 870
8 -1 5 -185 184 -408 400 l-405 391 -857 1 c-472 0 -858 -3 -858 -8z"/>
<path d="M2490 5181 c0 -12 737 -716 749 -716 11 0 751 707 751 718 0 4 -337
7 -750 7 -454 0 -750 -4 -750 -9z"/>
<path d="M4154 5143 c-27 -27 -171 -165 -319 -308 -432 -416 -445 -428 -445
-437 0 -4 395 -8 878 -8 l878 0 392 393 c216 217 389 397 385 400 -3 4 -392 7
-863 7 l-857 0 -49 -47z"/>
<path d="M5630 4683 l-383 -388 -1 -598 c-1 -328 1 -597 4 -597 3 -1 177 174
387 387 l383 388 0 598 c0 328 -1 597 -3 597 -1 0 -175 -174 -387 -387z"/>
<path d="M477 5054 c-4 -4 -7 -269 -7 -588 l1 -581 384 -386 c211 -213 386
-384 389 -381 4 3 6 269 6 591 l0 586 -383 383 c-211 211 -386 380 -390 376z"/>
<path d="M1490 4245 c0 -5 172 -179 383 -386 l382 -377 75 71 c41 39 212 204
379 367 167 162 313 303 324 313 11 9 18 17 16 17 -380 6 -1559 2 -1559 -5z"/>
<path d="M3434 4251 c-2 -3 11 -18 29 -35 19 -17 191 -183 384 -369 192 -186
360 -345 373 -354 23 -16 24 -15 93 58 38 41 210 215 381 386 l311 313 -784 2
c-430 2 -785 1 -787 -1z"/>
<path d="M3065 4072 c-93 -92 -292 -286 -441 -432 l-270 -265 446 -443 445
-442 443 442 442 443 -133 130 c-291 286 -750 730 -756 732 -3 2 -82 -73 -176
-165z"/>
<path d="M5076 4128 c-9 -13 -185 -192 -391 -398 l-375 -376 2 -596 3 -596
398 394 397 393 0 595 c0 357 -4 597 -9 601 -5 3 -17 -5 -25 -17z"/>
<path d="M1380 3558 l0 -583 405 -405 405 -406 0 591 0 592 -400 396 c-219
219 -402 397 -405 397 -3 0 -5 -262 -5 -582z"/>
<path d="M480 3260 l0 -422 302 -312 c165 -171 336 -347 380 -391 l78 -80 0
430 -1 430 -379 384 -380 383 0 -422z"/>
<path d="M5626 3281 l-379 -386 1 -422 c1 -233 3 -423 6 -422 2 1 175 173 385
383 l381 382 0 427 c0 235 -3 426 -7 426 -5 -1 -178 -175 -387 -388z"/>
<path d="M3743 2787 l-423 -425 0 -599 0 -598 425 425 425 425 -2 598 -3 598
-422 -424z"/>
<path d="M2330 2610 l0 -595 425 -425 425 -425 0 595 0 595 -425 425 -425 425
0 -595z"/>
<path d="M1380 2340 l0 -435 103 -100 c57 -55 240 -239 405 -409 l302 -309 0
439 0 439 -405 405 -405 405 0 -435z"/>
<path d="M4702 2348 l-392 -393 2 -435 3 -435 398 405 397 405 0 422 c0 233
-3 423 -7 423 -5 0 -185 -177 -401 -392z"/>
<path d="M2330 1374 l1 -439 417 -426 c229 -235 420 -427 425 -428 4 -1 7 198
7 442 l0 442 -417 417 c-230 230 -421 421 -425 424 -5 4 -8 -190 -8 -432z"/>
<path d="M3743 1388 l-423 -423 0 -445 1 -445 424 430 424 430 1 438 c0 240
-1 437 -2 437 -2 0 -193 -190 -425 -422z"/>
</g>
</svg>
