<?xml version="1.0" standalone="no"?>
<!DOCTYPE svg PUBLIC "-//W3C//DTD SVG 20010904//EN"
 "http://www.w3.org/TR/2001/REC-SVG-20010904/DTD/svg10.dtd">
<svg version="1.0" xmlns="http://www.w3.org/2000/svg"
 width="362.000000pt" height="340.000000pt" viewBox="0 0 362.000000 340.000000"
 preserveAspectRatio="xMidYMid meet">

<g transform="translate(0.000000,340.000000) scale(0.100000,-0.100000)"
fill="#000000" stroke="none">
<path d="M561 3302 c-387 -2 -437 -4 -453 -19 -17 -15 -18 -43 -18 -448 0
-343 3 -435 13 -449 13 -18 39 -18 477 -17 311 2 469 6 477 13 19 15 19 891 1
905 -22 17 -51 18 -497 15z"/>
<path d="M1216 3078 c-3 -101 -8 -793 -11 -1539 l-5 -1356 817 -7 c920 -9 892
-10 1050 64 106 49 220 135 267 198 40 56 77 128 112 219 l26 68 9 610 c13
832 8 1313 -15 1380 -34 104 -105 230 -171 305 -76 86 -150 138 -255 179 -159
63 -121 61 -1008 61 l-810 0 -6 -182z m1057 -105 c218 -4 337 -10 337 -16 0
-6 -39 -91 -87 -188 l-86 -178 -34 29 c-79 70 -171 95 -338 94 -143 0 -226
-20 -293 -72 -24 -18 -48 -30 -52 -25 -5 4 -43 82 -86 172 -75 156 -77 164
-59 177 22 16 166 18 698 7z m434 -630 c-4 -285 -7 -789 -7 -1120 0 -332 -4
-603 -8 -603 -8 0 -94 174 -257 515 -47 99 -90 188 -95 197 -18 32 -10 37 67
40 l77 3 -3 55 c-2 35 -10 65 -23 83 -12 16 -36 64 -54 106 l-33 76 -72 3 -71
3 7 -33 c4 -18 18 -54 31 -80 l24 -48 -25 0 c-21 0 -31 13 -70 90 -25 49 -45
95 -45 101 0 6 24 54 54 108 29 53 57 107 61 121 16 51 119 255 149 295 33 43
41 60 72 157 24 74 206 448 218 448 6 0 7 -207 3 -517z m-1109 255 c43 -90 84
-189 91 -221 8 -39 25 -73 52 -107 43 -54 269 -509 269 -541 0 -11 -19 -58
-41 -104 l-41 -85 -98 0 c-54 0 -105 -3 -114 -6 -13 -5 -16 -22 -16 -85 l0
-79 70 0 c39 0 70 -2 70 -5 0 -4 -57 -125 -207 -435 -42 -85 -87 -180 -102
-210 l-26 -55 -3 585 c-3 564 6 1510 14 1510 3 0 40 -73 82 -162z m647 -70
c80 -20 117 -65 95 -118 -24 -58 -136 -86 -310 -78 -136 7 -192 29 -210 82
-22 69 27 108 157 125 75 10 206 5 268 -11z m-35 -408 c-13 -26 -32 -45 -54
-54 -52 -22 -70 -56 -63 -119 4 -29 2 -59 -3 -67 -7 -11 -26 20 -77 125 -37
77 -69 143 -71 147 -2 4 56 7 129 7 72 0 134 3 137 5 3 3 9 3 13 0 5 -3 0 -23
-11 -44z m-110 -567 c0 -7 -9 -13 -20 -13 -23 0 -24 4 -9 32 9 17 13 18 20 7
5 -8 9 -20 9 -26z m161 -323 c37 -74 68 -141 69 -148 0 -9 -13 -11 -47 -8 -27
3 -89 8 -140 11 l-91 6 -4 -122 -3 -121 -33 -29 c-37 -33 -85 -38 -132 -14
-61 32 -76 148 -31 249 12 28 15 46 9 48 -6 2 17 62 52 136 l63 133 110 -3
110 -3 68 -135z m57 -296 c21 -6 22 -10 22 -146 l0 -139 68 3 67 3 5 55 5 55
68 -139 c37 -76 67 -145 67 -151 0 -7 -7 -15 -15 -19 -17 -6 -998 3 -1032 10
-13 2 -23 10 -23 17 0 16 143 307 151 307 3 0 11 -11 17 -25 21 -45 93 -114
137 -131 67 -25 180 -17 232 18 58 38 95 117 99 211 2 40 4 73 4 75 0 5 106 1
128 -4z"/>
<path d="M1745 2061 c-48 -20 -72 -74 -55 -125 23 -69 87 -91 135 -46 52 49
36 147 -27 169 -17 6 -31 11 -32 10 -1 0 -10 -4 -21 -8z"/>
<path d="M108 2171 c-17 -16 -18 -52 -18 -463 0 -418 1 -446 18 -461 17 -15
64 -17 471 -17 293 0 459 4 472 10 18 10 19 26 19 468 0 343 -3 461 -12 470
-9 9 -127 12 -473 11 -427 0 -461 -1 -477 -18z"/>
<path d="M101 1017 l-22 -24 3 -410 c3 -388 4 -412 22 -432 19 -21 24 -21 476
-21 l457 0 21 23 c22 23 22 26 22 429 0 395 -1 406 -21 432 l-20 26 -458 0
-458 0 -22 -23z"/>
</g>
</svg>
