<?xml version="1.0" standalone="no"?>
<!DOCTYPE svg PUBLIC "-//W3C//DTD SVG 20010904//EN"
 "http://www.w3.org/TR/2001/REC-SVG-20010904/DTD/svg10.dtd">
<svg version="1.0" xmlns="http://www.w3.org/2000/svg"
 width="361.000000pt" height="356.000000pt" viewBox="0 0 361.000000 356.000000"
 preserveAspectRatio="xMidYMid meet">

<g transform="translate(0.000000,356.000000) scale(0.100000,-0.100000)"
fill="#000000" stroke="none">
<path d="M2197 3385 l-68 -85 63 0 64 0 65 68 c105 108 104 102 18 102 l-74
-1 -68 -84z"/>
<path d="M345 3417 c-3 -6 -4 -181 -3 -387 l3 -375 79 -3 c57 -2 82 1 87 10 5
7 9 75 9 151 l0 137 34 0 c50 0 78 -29 157 -163 40 -67 77 -125 83 -129 18
-13 186 -9 186 3 0 22 -166 272 -202 305 -21 19 -38 36 -38 38 0 2 14 9 30 16
51 21 118 104 126 156 20 137 -46 219 -197 244 -94 15 -348 13 -354 -3z m334
-145 c50 -37 46 -121 -6 -162 -20 -15 -41 -20 -89 -20 l-64 0 0 106 0 107 67
-6 c42 -4 77 -14 92 -25z"/>
<path d="M1375 3419 c-3 -8 -4 -183 -3 -389 l3 -375 180 0 c161 1 187 3 248
24 172 58 270 218 253 411 -16 177 -90 271 -251 317 -73 21 -423 31 -430 12z
m381 -163 c78 -36 108 -86 113 -189 2 -44 -2 -97 -8 -119 -16 -51 -66 -107
-119 -130 -57 -26 -181 -36 -193 -17 -10 16 -12 449 -2 475 5 14 16 16 81 10
47 -4 95 -15 128 -30z"/>
<path d="M2835 3418 c-3 -7 -4 -182 -3 -388 l3 -375 83 -3 82 -3 0 151 0 150
125 0 125 0 0 70 0 70 -125 0 -126 0 3 98 3 97 138 3 138 3 -3 67 -3 67 -218
3 c-169 2 -219 0 -222 -10z"/>
<path d="M1157 1928 l-67 -83 57 -3 56 -3 79 78 c43 43 78 81 78 85 0 5 -31 8
-68 8 l-69 0 -66 -82z"/>
<path d="M3076 1928 l-66 -83 57 -3 56 -3 79 78 c43 43 78 81 78 85 0 5 -31 8
-69 8 l-69 0 -66 -82z"/>
<path d="M332 1683 l3 -278 31 -66 c54 -114 125 -153 285 -153 98 -1 109 1
164 29 37 19 72 46 92 73 57 75 63 115 63 409 l0 263 -84 0 -85 0 -3 -262 c-3
-243 -5 -266 -23 -298 -29 -49 -78 -72 -137 -66 -61 6 -84 22 -108 72 -18 37
-20 62 -20 297 l0 257 -91 0 -91 0 4 -277z"/>
<path d="M1482 1578 l3 -383 185 0 c197 0 234 7 301 51 56 38 84 96 84 175 0
57 -4 70 -29 104 -17 22 -49 46 -77 59 -53 23 -59 31 -30 41 34 10 71 46 92
88 48 92 -6 200 -115 232 -36 11 -101 15 -233 15 l-183 0 2 -382z m332 231
c20 -16 26 -29 26 -60 0 -68 -59 -106 -151 -97 l-34 3 -3 88 -3 87 69 0 c55 0
75 -4 96 -21z m15 -303 c28 -15 51 -53 51 -84 0 -9 -9 -31 -20 -49 -23 -39
-73 -56 -150 -51 l-55 3 -3 98 -3 97 76 0 c46 0 87 -6 104 -14z"/>
<path d="M2492 1578 l3 -383 228 -3 227 -2 0 70 0 69 -137 3 -138 3 -3 313 -2
312 -90 0 -90 0 2 -382z"/>
<path d="M237 1032 c-15 -17 -17 -64 -17 -474 0 -423 1 -456 18 -471 15 -14
68 -16 456 -18 247 0 442 3 447 8 5 5 10 219 11 478 l3 469 -25 13 c-19 10
-127 13 -451 13 -400 0 -427 -1 -442 -18z"/>
<path d="M1354 1035 c-9 -8 -14 -122 -19 -470 l-7 -460 24 -22 c23 -21 29 -21
460 -25 l436 -3 26 24 25 24 1 452 c0 419 -1 453 -17 468 -16 14 -73 16 -467
19 -289 2 -453 -1 -462 -7z"/>
<path d="M2525 1038 c-45 -24 -45 -19 -45 -498 0 -430 1 -458 18 -473 17 -15
62 -17 440 -17 l422 0 14 23 c13 18 15 96 17 475 2 433 1 454 -17 472 -17 16
-52 18 -424 23 -271 4 -412 2 -425 -5z"/>
</g>
</svg>
