<?xml version="1.0" standalone="no"?>
<!DOCTYPE svg PUBLIC "-//W3C//DTD SVG 20010904//EN"
 "http://www.w3.org/TR/2001/REC-SVG-20010904/DTD/svg10.dtd">
<svg version="1.0" xmlns="http://www.w3.org/2000/svg"
 width="900.000000pt" height="807.000000pt" viewBox="0 0 900.000000 807.000000"
 preserveAspectRatio="xMidYMid meet">
<metadata>
Created by potrace 1.10, written by Peter Selinger 2001-2011
</metadata>
<g transform="translate(0.000000,807.000000) scale(0.100000,-0.100000)"
fill="#000000" stroke="none">
<path d="M450 7367 l-25 -13 -3 -834 -2 -834 22 -23 21 -23 864 0 c850 0 863
0 883 20 20 20 20 33 20 848 0 699 -2 831 -14 848 -14 19 -36 19 -878 21 -683
2 -868 0 -888 -10z"/>
<path d="M6835 7339 c-20 -18 -42 -48 -50 -67 -13 -30 -15 -464 -15 -3272 0
-3571 -6 -3278 64 -3332 l35 -28 700 0 699 0 31 26 c17 14 39 42 48 62 17 35
18 206 18 3277 0 3003 -1 3242 -17 3270 -9 17 -31 45 -48 63 l-32 32 -699 0
-698 0 -36 -31z m1405 -3335 c0 -1841 -4 -3165 -9 -3168 -7 -4 -963 -9 -1283
-6 l-48 0 0 3175 0 3175 658 2 c361 2 663 -1 669 -6 10 -7 13 -661 13 -3172z"/>
<path d="M7866 6271 c-10 -11 -20 -38 -23 -60 l-6 -41 -351 0 c-288 0 -356 -3
-372 -14 -16 -12 -19 -29 -22 -119 -6 -162 -55 -148 497 -145 253 2 463 7 468
11 4 5 10 49 12 98 2 70 0 94 -12 107 -18 20 -47 104 -47 135 0 35 -19 47 -75
47 -39 0 -56 -5 -69 -19z"/>
<path d="M7114 5126 c-16 -12 -19 -29 -22 -118 -4 -135 0 -142 99 -143 190 -2
231 -5 227 -17 -3 -7 -26 -20 -52 -30 -27 -9 -56 -24 -65 -32 -10 -9 -22 -16
-27 -16 -5 0 -43 -18 -84 -38 -86 -44 -108 -76 -75 -112 11 -12 89 -56 175
-98 l155 -77 -167 -5 c-91 -3 -170 -9 -175 -13 -4 -5 -9 -57 -11 -116 -5 -165
-48 -152 486 -151 429 1 464 4 484 34 4 6 8 59 8 118 0 106 0 107 -29 127 -16
12 -32 21 -36 21 -12 0 -375 184 -375 191 0 3 33 21 73 39 39 17 79 38 87 45
8 7 31 18 51 24 20 7 45 21 54 31 10 11 24 20 32 20 22 0 102 39 123 60 17 17
20 34 20 125 0 160 49 145 -488 145 -371 0 -452 -2 -468 -14z"/>
<path d="M7116 3899 c-28 -22 -28 -22 -24 -131 2 -83 7 -111 18 -118 9 -6 202
-10 472 -10 402 0 458 2 472 16 13 12 16 38 16 120 0 158 48 144 -484 144
-438 0 -444 0 -470 -21z"/>
<path d="M7109 3343 c-11 -13 -14 -84 -14 -365 0 -402 -6 -378 95 -378 90 0
89 -4 92 266 l3 229 382 5 c210 3 385 9 390 13 12 13 16 188 4 220 l-11 27
-464 0 c-419 0 -465 -2 -477 -17z"/>
<path d="M7119 2361 l-24 -19 0 -357 c0 -410 -6 -385 96 -385 91 0 89 -6 89
261 l0 230 123 -3 122 -3 5 -126 c6 -153 10 -159 91 -159 86 0 89 6 89 161 l0
129 85 0 85 0 0 -199 c0 -235 -2 -231 93 -231 34 0 69 5 77 10 13 8 15 57 15
344 0 261 -3 338 -13 348 -10 10 -110 14 -461 16 -431 2 -449 2 -472 -17z"/>
<path d="M5580 6685 c-67 -14 -86 -22 -155 -66 -48 -31 -123 -111 -157 -165
-22 -36 -32 -58 -73 -161 -35 -91 -35 -336 2 -428 8 -22 22 -58 31 -80 35 -87
124 -195 207 -251 72 -48 115 -59 225 -59 136 0 194 23 298 120 127 117 192
282 192 487 0 259 -110 458 -320 577 -22 12 -148 41 -175 40 -5 -1 -39 -7 -75
-14z"/>
<path d="M4133 5862 c-65 -33 -96 -77 -129 -180 -13 -42 -45 -142 -70 -222
-25 -80 -50 -154 -55 -165 -4 -11 -13 -40 -19 -65 -14 -56 -30 -109 -41 -135
-8 -18 -55 -168 -79 -250 -5 -16 -20 -68 -34 -114 -30 -100 -32 -131 -9 -200
11 -35 30 -64 59 -91 40 -37 48 -40 101 -40 51 0 64 4 97 32 49 40 68 81 120
263 15 50 32 106 40 125 7 19 18 51 24 70 16 56 82 268 113 362 16 48 29 94
29 103 0 8 9 24 19 34 18 18 22 18 63 5 23 -8 52 -18 63 -23 26 -11 171 -60
213 -73 18 -5 36 -16 39 -24 4 -11 -155 -458 -264 -739 -8 -22 -21 -56 -28
-75 -7 -19 -20 -53 -28 -75 -17 -44 -67 -181 -86 -235 -7 -19 -26 -71 -43
-115 -16 -44 -47 -127 -68 -185 -21 -58 -45 -118 -53 -135 -9 -16 -47 -95 -85
-175 -38 -80 -110 -228 -159 -330 -50 -102 -108 -223 -131 -270 -216 -453
-196 -418 -249 -441 -85 -38 -287 -122 -483 -201 -41 -16 -82 -33 -90 -38 -28
-14 -284 -122 -337 -141 -90 -34 -136 -86 -164 -184 -42 -150 10 -315 125
-393 43 -29 56 -32 120 -32 63 0 78 4 120 30 26 17 64 37 84 44 21 8 80 33
132 56 52 23 111 48 130 56 19 8 43 19 52 24 10 6 22 10 28 10 5 0 38 13 72
29 35 15 178 77 318 136 140 60 266 118 278 129 40 36 107 145 175 286 35 74
101 209 145 300 43 91 94 196 111 233 18 37 38 71 47 74 9 3 28 -10 50 -33 82
-88 174 -186 283 -300 329 -344 315 -327 302 -352 -11 -21 -189 -272 -277
-392 -229 -311 -413 -576 -439 -633 -21 -43 -25 -68 -25 -142 0 -111 26 -188
85 -249 53 -55 100 -76 171 -76 94 0 156 41 232 151 12 19 44 63 71 99 26 36
66 92 89 125 23 33 77 108 119 167 43 59 98 137 123 173 25 36 80 114 123 173
43 59 89 123 103 142 14 19 50 69 81 110 91 125 155 223 165 255 19 61 27 163
18 220 -14 88 -44 138 -153 253 -56 59 -167 177 -248 262 -210 222 -264 281
-268 292 -4 13 20 68 30 68 5 0 14 11 19 26 6 14 21 48 34 77 41 91 56 127 56
138 0 6 6 25 14 42 8 18 29 73 46 122 54 149 115 313 131 350 11 25 62 164 96
265 27 77 51 116 64 103 6 -7 50 -144 85 -263 56 -196 76 -235 134 -265 62
-32 164 -10 203 45 10 14 251 269 397 420 141 146 299 319 322 352 49 73 47
144 -10 256 -48 95 -136 135 -214 98 -30 -15 -420 -405 -503 -504 -23 -28 -30
-31 -41 -20 -12 12 -97 260 -185 543 -62 198 -145 352 -234 433 -57 52 -99 75
-200 110 -33 11 -78 27 -100 36 -82 30 -331 118 -360 127 -16 4 -88 29 -160
54 -371 132 -361 130 -442 87z"/>
<path d="M470 4903 c-8 -3 -23 -12 -32 -21 -17 -14 -18 -66 -18 -824 0 -858 0
-854 45 -872 22 -8 1698 -8 1720 0 45 18 45 14 45 867 0 777 -1 806 -19 828
l-19 24 -854 2 c-469 1 -860 -1 -868 -4z"/>
<path d="M465 2415 l-25 -24 0 -805 0 -805 24 -28 24 -28 854 -3 855 -3 26 21
27 21 0 819 0 819 -22 21 c-22 20 -30 20 -880 20 l-859 0 -24 -25z"/>
</g>
</svg>
