<?xml version="1.0" standalone="no"?>
<!DOCTYPE svg PUBLIC "-//W3C//DTD SVG 20010904//EN"
 "http://www.w3.org/TR/2001/REC-SVG-20010904/DTD/svg10.dtd">
<svg version="1.0" xmlns="http://www.w3.org/2000/svg"
 width="1024.000000pt" height="1024.000000pt" viewBox="0 0 1024.000000 1024.000000"
 preserveAspectRatio="xMidYMid meet">

<g transform="translate(0.000000,1024.000000) scale(0.100000,-0.100000)"
fill="#000000" stroke="none">
<path d="M4250 9834 c-384 -21 -717 -82 -1053 -195 -794 -267 -1498 -806
-1964 -1504 -349 -524 -560 -1134 -612 -1778 -15 -172 -15 -2326 -1 -2508 6
-73 22 -208 36 -299 177 -1170 943 -2209 2032 -2754 419 -210 847 -335 1337
-392 173 -20 594 -23 750 -5 636 72 1164 253 1690 579 367 228 765 595 1022
943 281 380 496 823 602 1239 l29 115 94 51 c550 298 933 805 1053 1395 105
522 -3 1072 -298 1514 -198 296 -436 512 -754 683 l-106 58 -52 169 c-227 752
-658 1380 -1290 1881 -547 433 -1233 712 -1935 788 -138 15 -464 26 -580 20z
m580 -404 c390 -49 743 -156 1095 -330 675 -335 1213 -867 1543 -1525 61 -123
182 -415 182 -441 0 -10 -7 -13 -22 -10 -63 14 -177 26 -305 32 l-141 7 -18
46 c-30 80 -143 299 -211 410 -106 172 -228 326 -388 490 -255 261 -489 433
-807 592 -767 384 -1694 420 -2483 94 -906 -374 -1572 -1159 -1774 -2090 -64
-299 -65 -304 -69 -1460 -3 -1056 2 -1286 33 -1523 81 -617 363 -1183 814
-1632 563 -561 1339 -880 2141 -880 1168 0 2264 699 2720 1735 l58 130 113 8
c63 4 165 14 228 23 62 8 116 12 120 9 3 -4 -9 -50 -28 -103 -246 -710 -773
-1346 -1448 -1749 -586 -350 -1300 -526 -1958 -483 -1365 88 -2507 909 -3005
2160 -84 210 -169 556 -202 820 -19 151 -19 2537 0 2690 134 1084 756 2016
1713 2563 316 181 731 330 1089 391 80 14 316 41 425 50 105 8 436 -6 585 -24z
m10 -584 c607 -95 1156 -372 1586 -801 168 -168 300 -336 427 -546 67 -110
179 -341 170 -350 -5 -4 -26 -9 -48 -11 l-40 -3 -65 131 c-233 467 -574 837
-1024 1111 -804 490 -1813 533 -2656 114 -285 -141 -494 -293 -725 -525 -234
-235 -370 -425 -515 -721 -126 -257 -196 -475 -243 -760 -20 -126 -21 -163
-25 -1270 -3 -1189 0 -1314 39 -1545 43 -252 110 -461 229 -705 393 -813 1218
-1384 2150 -1491 181 -20 579 -15 735 10 151 25 375 82 515 133 272 98 602
282 825 463 44 35 141 125 215 199 212 214 362 423 491 688 l69 142 38 -6 c20
-3 41 -9 45 -13 11 -10 -46 -139 -123 -281 -218 -399 -553 -753 -950 -1004
-338 -213 -728 -359 -1130 -422 -166 -26 -655 -26 -820 0 -741 117 -1355 462
-1819 1022 -301 364 -491 792 -578 1307 l-28 163 0 1240 0 1240 23 130 c73
417 183 716 387 1049 210 347 546 684 901 907 349 220 759 364 1179 415 153
18 622 12 765 -10z m-118 -231 c578 -67 1115 -329 1529 -744 155 -156 237
-256 341 -416 67 -102 188 -323 188 -343 0 -6 -46 -25 -102 -42 -57 -17 -145
-50 -196 -72 -54 -23 -97 -37 -102 -32 -4 5 -33 56 -64 112 -112 205 -218 344
-391 510 -313 301 -690 490 -1145 573 -141 26 -440 36 -591 20 -359 -39 -718
-168 -1009 -364 -217 -146 -432 -365 -584 -596 -184 -279 -294 -592 -326 -926
-13 -145 -14 -2142 0 -2325 19 -252 60 -427 153 -650 234 -560 754 -1019 1352
-1192 222 -64 322 -79 571 -85 254 -6 359 2 544 43 330 73 639 221 905 432 89
71 277 259 336 337 81 106 146 207 204 318 33 62 62 106 69 103 107 -46 248
-99 298 -111 97 -25 96 -22 62 -101 -42 -98 -157 -293 -246 -415 -391 -534
-1016 -910 -1698 -1020 -161 -26 -485 -36 -641 -20 -575 60 -1079 275 -1504
642 -172 148 -303 298 -434 495 -214 322 -325 616 -393 1045 l-23 144 1 1175
c1 1249 1 1246 50 1490 48 239 169 550 295 758 130 214 235 348 394 507 429
429 992 695 1605 758 100 10 437 6 552 -8z m-17 -830 c476 -82 907 -349 1165
-721 61 -88 170 -284 169 -304 0 -8 -32 -40 -70 -70 -166 -130 -374 -374 -483
-564 -111 -197 -195 -426 -238 -654 -19 -99 -22 -153 -22 -347 0 -254 14 -363
75 -573 107 -369 345 -728 646 -979 57 -47 103 -88 103 -93 0 -21 -119 -234
-176 -317 -118 -169 -310 -350 -494 -467 -518 -328 -1202 -364 -1765 -91 -560
271 -901 765 -955 1385 -14 159 -13 2156 1 2291 83 812 743 1435 1614 1523 79
8 342 -3 430 -19z m2875 -849 c670 -115 1234 -604 1443 -1252 71 -217 81 -292
82 -554 0 -265 -14 -364 -82 -575 -150 -466 -515 -879 -968 -1096 -290 -138
-520 -186 -853 -176 -212 6 -324 24 -498 82 -623 206 -1097 712 -1244 1328
-38 160 -50 262 -50 427 0 161 12 267 47 415 123 529 492 992 986 1237 210
105 393 156 687 192 82 10 312 -4 450 -28z"/>
<path d="M6152 5953 l3 -288 288 -3 287 -2 0 290 0 290 -290 0 -290 0 2 -287z"/>
<path d="M6975 6227 c-3 -7 -4 -136 -3 -287 l3 -275 286 -3 286 -2 6 91 c9
116 9 402 1 452 l-7 37 -284 0 c-219 0 -285 -3 -288 -13z"/>
<path d="M7795 6178 c-3 -35 -5 -164 -3 -288 l3 -225 286 -3 287 -2 6 22 c8
30 8 522 0 542 -5 14 -40 16 -289 16 l-283 0 -7 -62z"/>
<path d="M6157 5413 c-4 -3 -7 -133 -7 -289 l0 -282 143 -4 c78 -2 208 -1 290
0 l147 4 0 289 0 289 -283 0 c-156 0 -287 -3 -290 -7z"/>
<path d="M6977 5413 c-4 -3 -7 -134 -7 -290 l0 -283 288 0 289 0 6 98 c9 122
9 430 1 460 l-6 22 -282 0 c-156 0 -286 -3 -289 -7z"/>
<path d="M7795 5388 c-3 -18 -5 -148 -3 -288 l3 -255 284 -3 c221 -2 286 1
293 10 13 22 10 542 -4 556 -9 9 -87 12 -290 12 l-277 0 -6 -32z"/>
<path d="M6163 4593 c-10 -3 -13 -71 -13 -288 l0 -283 107 -7 c102 -7 459 -3
467 6 2 2 6 129 8 282 3 239 1 279 -12 287 -15 10 -534 13 -557 3z"/>
<path d="M6983 4594 c-10 -4 -13 -71 -13 -285 0 -257 1 -280 18 -287 22 -9
550 -7 559 2 13 13 17 546 4 559 -12 12 -543 22 -568 11z"/>
<path d="M7807 4588 c-17 -12 -18 -33 -15 -285 2 -149 7 -275 11 -280 10 -9
555 -9 564 1 3 3 8 129 11 279 4 227 2 276 -9 283 -8 5 -133 10 -279 12 -211
3 -269 1 -283 -10z"/>
</g>
</svg>
