<?xml version="1.0" standalone="no"?>
<!DOCTYPE svg PUBLIC "-//W3C//DTD SVG 20010904//EN"
 "http://www.w3.org/TR/2001/REC-SVG-20010904/DTD/svg10.dtd">
<svg version="1.0" xmlns="http://www.w3.org/2000/svg"
 width="600.000000pt" height="466.000000pt" viewBox="0 0 600.000000 466.000000"
 preserveAspectRatio="xMidYMid meet">

<g transform="translate(0.000000,466.000000) scale(0.100000,-0.100000)"
fill="#000000" stroke="none">
<path d="M3415 4579 c-290 -36 -542 -66 -713 -84 -145 -15 -177 -28 -189 -72
-8 -34 102 -1135 117 -1163 6 -11 20 -24 31 -30 11 -6 138 -31 282 -56 144
-25 377 -65 517 -90 313 -57 407 -69 443 -61 41 11 60 57 53 126 -9 77 -43
361 -61 506 -8 66 -24 199 -35 295 -11 96 -27 227 -35 290 -8 63 -19 157 -25
209 -12 102 -19 122 -52 145 -29 21 -59 19 -333 -15z"/>
<path d="M2135 4444 c-11 -2 -153 -10 -315 -19 -454 -24 -460 -25 -487 -51
l-23 -23 0 -319 c0 -175 3 -394 7 -487 6 -152 8 -170 28 -193 21 -24 21 -24
446 -53 233 -15 469 -28 525 -29 92 0 102 2 121 23 11 12 23 29 26 38 3 9 -1
90 -8 180 -7 90 -25 313 -39 494 -32 395 -31 391 -61 421 -22 22 -32 24 -112
23 -48 -1 -97 -3 -108 -5z"/>
<path d="M114 4409 c-12 -6 -27 -22 -33 -35 -29 -64 -38 -52 426 -512 241
-238 452 -442 468 -452 41 -27 69 -25 107 9 l33 29 7 244 c3 134 6 337 7 451
1 263 8 251 -160 261 -241 12 -833 16 -855 5z"/>
<path d="M1427 3120 c-27 -17 -49 -69 -42 -98 3 -14 73 -136 154 -272 140
-231 327 -563 405 -719 40 -78 65 -101 113 -101 26 0 42 10 77 45 154 161 286
425 332 665 21 109 35 270 26 304 -15 56 -36 62 -342 101 -157 20 -350 45
-430 55 -211 28 -272 32 -293 20z"/>
<path d="M2980 2899 l-294 -7 -26 -29 c-25 -28 -27 -38 -33 -159 -13 -271 -90
-480 -271 -731 -73 -102 -82 -140 -45 -187 20 -26 22 -26 147 -26 227 0 896
23 920 31 35 13 52 67 52 161 0 159 49 357 126 510 34 68 97 166 179 282 43
60 46 105 10 141 l-24 25 -223 -2 c-123 -1 -356 -5 -518 -9z"/>
<path d="M3959 2730 c-21 -12 -112 -126 -168 -209 -52 -77 -121 -219 -155
-321 -49 -147 -89 -416 -72 -484 12 -47 42 -56 283 -86 125 -15 343 -43 485
-61 279 -35 303 -34 327 17 20 45 12 75 -51 178 -189 312 -236 390 -297 500
-37 66 -103 189 -146 271 -43 83 -89 162 -103 178 -27 28 -71 36 -103 17z"/>
<path d="M2118 1619 c-28 -28 -30 -34 -25 -82 3 -29 35 -288 72 -577 36 -289
74 -596 85 -683 11 -87 25 -167 30 -177 24 -44 65 -48 255 -25 128 16 228 27
803 89 79 9 152 21 162 26 11 6 26 23 34 39 14 25 10 76 -34 517 -26 269 -51
524 -55 567 -6 66 -11 83 -33 107 -26 28 -38 31 -392 90 -201 33 -471 78 -600
100 -129 22 -243 40 -253 40 -10 0 -32 -14 -49 -31z"/>
<path d="M3633 1390 c-12 -5 -29 -23 -38 -40 -14 -27 -14 -44 -1 -183 18 -175
39 -411 61 -677 19 -214 26 -245 65 -265 30 -15 14 -16 655 20 336 19 331 18
356 58 17 28 19 44 14 142 -4 61 -7 275 -8 478 l-3 367 -26 27 c-23 23 -36 26
-105 30 -43 2 -222 13 -398 23 -473 28 -548 31 -572 20z"/>
<path d="M4987 1259 c-40 -23 -47 -61 -57 -301 -5 -128 -10 -324 -10 -436 0
-201 0 -203 24 -227 13 -13 39 -26 57 -29 19 -3 228 -9 464 -14 395 -9 432 -8
460 7 17 9 36 29 42 43 29 59 25 64 -434 516 -239 235 -445 432 -456 439 -27
15 -66 16 -90 2z"/>
</g>
</svg>
