<?xml version="1.0" standalone="no"?>
<!DOCTYPE svg PUBLIC "-//W3C//DTD SVG 20010904//EN"
 "http://www.w3.org/TR/2001/REC-SVG-20010904/DTD/svg10.dtd">
<svg version="1.0" xmlns="http://www.w3.org/2000/svg"
 width="225.000000pt" height="207.000000pt" viewBox="0 0 225.000000 207.000000"
 preserveAspectRatio="xMidYMid meet">

<g transform="translate(0.000000,207.000000) scale(0.100000,-0.100000)"
fill="#000000" stroke="none">
<path d="M1410 1761 l0 -262 68 3 67 3 3 163 c2 123 6 162 15 162 17 0 72 -58
146 -157 94 -126 157 -166 261 -166 104 -1 178 49 209 142 27 81 5 249 -41
314 -20 28 -57 35 -126 21 l-30 -6 24 -36 c34 -49 57 -136 49 -179 -3 -19 -18
-47 -31 -60 -22 -22 -32 -25 -73 -21 -63 6 -98 32 -170 126 -118 154 -187 202
-302 210 l-69 5 0 -262z"/>
<path d="M392 1828 c-17 -17 -17 -239 0 -256 16 -16 220 -16 236 0 17 17 17
239 0 256 -8 8 -49 12 -118 12 -69 0 -110 -4 -118 -12z"/>
<path d="M712 1828 c-8 -8 -12 -51 -12 -130 0 -106 2 -118 19 -128 28 -14 224
-13 239 2 8 8 12 50 12 123 0 145 0 145 -141 145 -68 0 -109 -4 -117 -12z"/>
<path d="M1042 1828 c-17 -17 -17 -239 0 -256 16 -16 220 -16 236 0 13 13 18
222 6 252 -5 13 -25 16 -118 16 -74 0 -116 -4 -124 -12z"/>
<path d="M392 1498 c-17 -17 -17 -229 0 -246 16 -16 220 -16 236 0 17 17 17
229 0 246 -8 8 -49 12 -118 12 -69 0 -110 -4 -118 -12z"/>
<path d="M712 1498 c-17 -17 -17 -229 0 -246 17 -17 229 -17 246 0 17 17 17
229 0 246 -8 8 -50 12 -123 12 -73 0 -115 -4 -123 -12z"/>
<path d="M1042 1498 c-17 -17 -17 -229 0 -246 16 -16 220 -16 236 0 17 17 17
229 0 246 -8 8 -49 12 -118 12 -69 0 -110 -4 -118 -12z"/>
<path d="M1410 1321 c0 -86 2 -100 18 -105 9 -4 53 -26 96 -50 l79 -44 -96
-52 -97 -52 0 -94 c0 -52 3 -94 6 -94 4 0 67 38 140 85 73 47 136 85 139 85 3
0 58 -35 123 -78 64 -43 123 -82 130 -86 9 -5 12 14 12 83 l0 90 -99 52 -98
52 98 50 99 50 0 98 0 99 -134 -85 c-73 -47 -137 -85 -141 -85 -4 0 -62 37
-128 83 -67 46 -128 86 -134 91 -10 5 -13 -15 -13 -93z"/>
<path d="M387 1174 c-4 -4 -7 -58 -7 -120 0 -142 2 -144 135 -144 128 0 126
-2 123 145 l-3 120 -121 3 c-66 1 -123 -1 -127 -4z"/>
<path d="M712 1168 c-8 -8 -12 -48 -12 -119 0 -137 2 -139 141 -139 139 0 141
2 137 150 l-3 115 -125 3 c-89 2 -129 -1 -138 -10z"/>
<path d="M1037 1174 c-4 -4 -7 -60 -7 -125 0 -143 -4 -139 139 -139 134 0 132
-2 129 149 l-3 116 -126 3 c-69 1 -128 -1 -132 -4z"/>
<path d="M116 911 c-17 -18 -30 -44 -33 -67 l-4 -39 228 -227 c195 -193 233
-227 266 -233 20 -4 40 -11 43 -16 7 -12 161 -11 169 1 8 13 532 14 539 1 3
-5 18 -12 33 -16 30 -7 156 -107 250 -198 88 -86 93 -80 93 122 l0 156 -212
208 c-117 115 -227 215 -245 223 -26 11 -93 14 -324 14 l-292 0 -33 -36 c-43
-45 -44 -78 -3 -127 l30 -37 225 0 c143 0 224 -4 224 -10 0 -6 -90 -10 -250
-10 l-250 0 -152 143 c-84 79 -161 146 -170 150 -10 3 -18 11 -18 17 0 5 -19
10 -43 10 -35 0 -49 -6 -71 -29z"/>
</g>
</svg>
