<?xml version="1.0" standalone="no"?>
<!DOCTYPE svg PUBLIC "-//W3C//DTD SVG 20010904//EN"
 "http://www.w3.org/TR/2001/REC-SVG-20010904/DTD/svg10.dtd">
<svg version="1.0" xmlns="http://www.w3.org/2000/svg"
 width="321.000000pt" height="321.000000pt" viewBox="0 0 321.000000 321.000000"
 preserveAspectRatio="xMidYMid meet">
<metadata>
Created by potrace 1.10, written by Peter Selinger 2001-2011
</metadata>
<g transform="translate(0.000000,321.000000) scale(0.100000,-0.100000)"
fill="#000000" stroke="none">
<path d="M380 2798 c-3 -199 1 -611 5 -618 4 -6 128 -10 309 -10 245 0 306 3
315 14 8 9 11 101 9 317 l-3 304 -317 3 c-251 2 -318 0 -318 -10z"/>
<path d="M2090 2675 c-7 -8 -27 -15 -45 -15 -18 0 -38 -7 -45 -15 -7 -8 -17
-15 -22 -15 -18 0 -123 -87 -168 -140 -25 -28 -55 -70 -67 -92 -12 -23 -27
-46 -33 -52 -5 -5 -10 -20 -10 -32 0 -12 -7 -27 -15 -34 -8 -7 -15 -27 -15
-44 -1 -17 -7 -42 -15 -56 -11 -20 -14 -84 -15 -326 0 -285 -1 -302 -19 -318
-19 -18 -22 -16 -81 43 l-61 61 -60 0 c-62 0 -89 -11 -141 -59 -16 -13 -28
-30 -28 -37 0 -6 -7 -17 -15 -24 -22 -18 -22 -222 0 -240 8 -7 15 -16 15 -21
0 -5 81 -117 180 -249 l180 -240 598 2 597 3 3 609 c2 517 0 619 -13 669 -8
32 -15 80 -15 105 0 26 -7 56 -15 66 -8 11 -15 32 -15 47 0 14 -7 32 -15 39
-8 7 -15 20 -15 30 0 10 -7 23 -15 30 -8 7 -15 17 -15 22 0 6 -13 27 -30 48
-16 21 -30 42 -30 47 0 11 -97 99 -130 118 -14 8 -35 19 -47 24 -11 5 -24 15
-28 20 -3 6 -18 11 -33 11 -15 0 -36 7 -46 15 -29 22 -238 21 -256 0z"/>
<path d="M383 1883 c-4 -10 -6 -153 -3 -318 l5 -300 304 -3 c216 -2 308 1 317
9 19 16 21 598 2 617 -9 9 -93 12 -315 12 -278 0 -303 -1 -310 -17z"/>
<path d="M392 978 c-17 -17 -17 -599 0 -616 17 -17 609 -17 626 0 17 17 17
599 0 616 -17 17 -609 17 -626 0z"/>
<path d="M1642 608 l3 -73 559 -3 560 -2 23 22 c20 19 23 30 21 73 l-3 50
-583 3 -583 2 3 -72z"/>
</g>
</svg>
