<svg height="500" width="500" xmlns="http://www.w3.org/2000/svg"><path d="m160.596 52.701a14.105 14.105 0 0 0 -14.137 14.137v21.726a14.105 14.105 0 0 0 14.137 14.137h10.863v20.168c-23.922 3.641-46.16 12.496-65.559 25.332l-14.656-14.831a15.101 15.101 0 0 0 -21.402-.125l-14.035 13.871a15.101 15.101 0 0 0 -.125 21.403l13.123 13.277c-23.032 28.284-36.885 64.313-36.885 103.477 0 90.461 73.815 164.278 164.275 164.278 26.82 0 52.153-6.53 74.557-18.018-9.122-11.44-15.95-24.847-21.04-39.56-16.076 8.036-34.236 12.578-53.517 12.578-66.14 0-119.275-53.137-119.275-119.278 0-66.14 53.134-119.275 119.275-119.275 15.046 0 29.406 2.776 42.633 7.803 1.973-15.588 4.844-30.542 9.147-44.367a163.896 163.896 0 0 0 -26.516-6.448v-20.285h10.863a14.105 14.105 0 0 0 14.137-14.137v-21.726a14.105 14.105 0 0 0 -14.137-14.138h-71.726zm-6.89 152.065a13.717 13.717 0 0 0 -9.731 4.043l-15.893 15.894a13.73 13.73 0 0 0 0 19.461l57.258 57.258a13.73 13.73 0 0 0 19.46 0l15.895-15.895a13.73 13.73 0 0 0 0-19.46l-57.257-57.258a13.722 13.722 0 0 0 -9.733-4.043z"/><path d="m444.456 260.04c4.929-76.658 73.935-190.163-58.733-190.163-111.138 0-118.596 96.192-118.596 190.163 0 84.969 4.044 186.586 106.526 190.163 142.872 4.987 76.28-104.974 70.803-190.163z"/></svg>