<svg xmlns="http://www.w3.org/2000/svg" width="980" height="980" viewBox="0 0 980 980">
<g>
<path d="M 359.99 807.07 C355.09,805.57 351.34,803.09 347.27,798.67 C339.39,790.12 340.02,812.45 340.00,541.59 C339.99,389.24 340.34,298.26 340.95,296.17 C342.47,290.89 346.74,284.30 350.48,281.45 C358.62,275.24 350.05,275.56 500.50,275.80 C651.85,276.03 642.70,275.63 650.62,282.40 C652.76,284.24 655.64,287.94 657.01,290.62 L 659.50 295.50 L 659.76 540.90 L 660.01 786.29 L 657.67 791.40 C654.93,797.39 650.42,802.20 644.63,805.29 L 640.50 807.50 L 501.50 807.67 C425.05,807.77 361.37,807.50 359.99,807.07 ZM 413.38 790.00 C416.41,790.00 423.37,785.34 425.35,781.98 C426.36,780.28 427.07,776.44 427.24,771.87 L 427.50 764.50 L 417.30 764.22 L 407.09 763.93 L 406.80 770.72 C406.50,777.48 406.49,777.50 403.57,777.50 C401.18,777.50 400.49,776.95 399.78,774.50 C398.56,770.32 399.60,762.10 401.62,759.86 C402.78,758.59 404.69,758.00 407.65,758.00 L 412.00 758.00 L 412.00 752.13 L 412.00 746.26 L 407.85 745.71 C405.57,745.40 402.85,744.29 401.80,743.24 C399.46,740.91 398.52,732.74 399.69,725.00 C400.49,719.75 400.66,719.50 403.51,719.50 L 406.50 719.50 L 406.79 729.78 L 407.07 740.07 L 417.29 739.78 L 427.50 739.50 L 427.21 730.00 C426.87,718.82 425.26,714.87 419.34,710.69 C411.96,705.47 395.65,705.32 387.98,710.40 C381.55,714.65 379.62,719.61 379.55,732.00 C379.49,744.47 379.96,746.44 384.03,750.88 L 387.13 754.27 L 383.86 757.64 C380.99,760.60 380.54,761.81 380.18,767.51 C379.83,773.02 380.17,774.82 382.42,779.42 C386.02,786.78 390.08,789.16 400.50,790.02 C404.90,790.38 409.10,790.53 409.83,790.34 C410.56,790.15 412.16,790.00 413.38,790.00 ZM 465.77 601.25 L 465.50 575.50 L 439.75 575.23 L 414.00 574.97 L 414.00 600.98 L 414.00 627.00 L 440.02 627.00 L 466.03 627.00 L 465.77 601.25 ZM 527.22 601.00 L 526.94 575.00 L 502.00 575.00 L 477.06 575.00 L 476.78 601.00 L 476.50 627.00 L 502.00 627.00 L 527.50 627.00 L 527.22 601.00 ZM 590.00 600.98 L 590.00 574.97 L 564.25 575.23 L 538.50 575.50 L 538.23 601.25 L 537.97 627.00 L 563.98 627.00 L 590.00 627.00 L 590.00 600.98 ZM 466.00 539.00 L 466.00 514.00 L 440.00 514.00 L 414.00 514.00 L 414.00 539.00 L 414.00 564.00 L 440.00 564.00 L 466.00 564.00 L 466.00 539.00 ZM 527.00 539.00 L 527.00 514.00 L 502.00 514.00 L 477.00 514.00 L 477.00 539.00 L 477.00 564.00 L 502.00 564.00 L 527.00 564.00 L 527.00 539.00 ZM 590.00 539.00 L 590.00 514.00 L 564.00 514.00 L 538.00 514.00 L 538.00 539.00 L 538.00 564.00 L 564.00 564.00 L 590.00 564.00 L 590.00 539.00 ZM 465.77 476.75 L 466.03 451.00 L 440.02 451.00 L 414.00 451.00 L 414.00 477.02 L 414.00 503.03 L 439.75 502.77 L 465.50 502.50 L 465.77 476.75 ZM 527.08 478.75 C527.12,465.41 527.30,453.71 527.49,452.75 C527.80,451.12 526.06,451.00 502.16,451.00 L 476.50 451.00 L 476.78 477.00 L 477.06 503.00 L 502.03 503.00 L 527.00 503.00 L 527.08 478.75 ZM 590.00 477.00 L 590.00 451.00 L 564.00 451.00 L 538.00 451.00 L 538.00 476.33 C538.00,490.27 538.30,501.97 538.67,502.33 C539.03,502.70 550.73,503.00 564.67,503.00 L 590.00 503.00 L 590.00 477.00 ZM 615.00 372.11 C617.84,370.41 620.41,367.77 621.97,364.96 C624.16,361.02 624.45,359.28 624.47,350.00 C624.50,337.51 624.04,335.55 619.97,331.12 L 616.88 327.74 L 619.32 325.12 C623.05,321.11 624.00,318.61 624.00,312.76 C624.00,305.66 620.22,297.92 615.34,295.04 C607.88,290.64 590.04,290.66 583.60,295.08 C578.46,298.59 576.93,301.96 576.70,310.24 L 576.50 317.50 L 586.70 317.78 L 596.91 318.07 L 597.20 311.28 L 597.50 304.50 L 600.46 304.50 C603.07,304.50 603.53,304.96 604.32,308.29 C605.25,312.21 604.59,319.47 603.08,321.89 C602.60,322.65 599.92,323.49 597.11,323.76 L 592.00 324.25 L 592.00 330.00 L 592.00 335.74 L 596.15 336.29 C598.43,336.60 601.15,337.71 602.20,338.76 C604.54,341.09 605.48,349.26 604.31,357.00 C603.51,362.25 603.34,362.50 600.49,362.50 L 597.50 362.50 L 597.21 352.22 L 596.93 341.93 L 586.71 342.22 L 576.50 342.50 L 576.81 352.00 C577.17,363.34 578.80,367.24 584.91,371.37 C592.52,376.52 607.03,376.87 615.00,372.11 ZM 324.24 588.95 C324.11,588.64 319.99,570.42 315.09,548.45 C310.19,526.48 296.91,466.98 285.59,416.24 C274.26,365.50 265.00,322.30 265.01,320.24 C265.02,307.23 273.74,296.96 288.07,293.08 C300.13,289.82 328.16,283.83 328.73,284.40 C329.02,284.68 328.41,286.85 327.38,289.21 C325.58,293.32 325.48,299.59 324.99,441.50 C324.71,522.90 324.37,589.25 324.24,588.95 ZM 251.69 418.66 L 217.88 351.47 L 217.88 344.81 C217.88,331.56 223.87,323.60 239.91,315.55 C244.89,313.05 249.40,311.00 249.94,311.00 C250.54,311.00 250.71,313.45 250.37,317.25 C249.74,324.33 250.14,326.41 263.50,385.50 C268.23,406.40 274.35,433.62 277.10,446.00 C279.85,458.38 283.00,472.03 284.10,476.36 C285.20,480.68 285.96,484.58 285.80,485.04 C285.63,485.49 270.28,455.62 251.69,418.66 ZM 252.35 456.20 C251.76,455.27 246.60,448.63 240.89,441.45 C235.18,434.27 222.18,417.94 212.00,405.16 C201.82,392.38 192.63,380.02 191.58,377.71 C187.36,368.49 189.58,356.10 196.96,347.70 C201.56,342.45 202.62,342.88 203.27,350.25 C203.77,355.94 206.10,361.05 228.97,406.86 C242.80,434.55 253.96,457.37 253.77,457.56 C253.58,457.75 252.94,457.14 252.35,456.20 ZM 298.75 264.33 C320.11,247.14 378.36,199.89 393.89,187.16 C408.96,174.81 414.19,172.02 422.37,172.01 C431.62,171.99 438.66,175.67 446.02,184.34 C449.31,188.22 452.00,191.65 451.99,191.95 C451.99,192.25 426.22,205.44 394.74,221.25 C363.26,237.07 325.58,256.06 311.00,263.47 C296.42,270.88 284.16,276.95 283.75,276.97 C283.34,276.99 290.09,271.30 298.75,264.33 ZM 406.17 232.30 C473.23,198.74 473.53,198.60 480.68,198.19 C493.67,197.46 502.40,203.45 509.47,217.93 C511.89,222.90 513.03,226.33 512.45,226.86 C511.93,227.34 491.92,232.10 468.00,237.45 C402.08,252.18 355.23,262.71 348.00,264.43 C344.42,265.28 340.90,265.98 340.17,265.99 C339.44,265.99 369.14,250.83 406.17,232.30 ZM 432.73 259.98 C433.95,259.48 440.93,257.92 448.23,256.50 C455.53,255.08 464.42,253.23 468.00,252.39 C471.58,251.55 490.70,247.27 510.50,242.86 C550.00,234.08 555.32,233.57 563.54,237.77 C568.97,240.54 575.29,247.57 577.47,253.27 C580.68,261.69 587.15,261.01 504.28,260.94 C459.73,260.90 431.38,260.52 432.73,259.98 Z" fill="rgba(0,0,0,1)"/>
</g>
</svg>