<?xml version="1.0" standalone="no"?>
<!DOCTYPE svg PUBLIC "-//W3C//DTD SVG 20010904//EN"
 "http://www.w3.org/TR/2001/REC-SVG-20010904/DTD/svg10.dtd">
<svg version="1.0" xmlns="http://www.w3.org/2000/svg"
 width="810.000000pt" height="810.000000pt" viewBox="0 0 810.000000 810.000000"
 preserveAspectRatio="xMidYMid meet">

<g transform="translate(0.000000,810.000000) scale(0.100000,-0.100000)"
fill="#000000" stroke="none">
<path d="M1994 6233 c8 -16 119 -208 248 -428 129 -220 362 -619 518 -888 207
-353 289 -487 301 -485 25 4 1159 671 1159 682 0 5 -149 265 -332 578 l-332
568 -788 0 -789 0 15 -27z"/>
<path d="M3740 6250 c0 -6 127 -228 282 -493 155 -265 293 -501 306 -524 13
-24 28 -43 32 -43 5 0 242 136 527 303 285 167 685 401 888 520 204 119 379
223 390 231 18 14 -108 15 -1202 16 -841 0 -1223 -3 -1223 -10z"/>
<path d="M5649 5767 c-1125 -657 -1201 -702 -1206 -713 -2 -6 110 -206 250
-445 139 -239 289 -495 332 -569 43 -74 83 -140 89 -147 8 -9 93 36 356 190
190 111 445 261 568 332 l222 130 0 787 c0 434 -1 788 -3 788 -2 0 -275 -159
-608 -353z"/>
<path d="M1910 4905 c0 -630 3 -1145 6 -1145 6 0 984 569 998 581 4 4 -205
371 -465 816 -260 444 -483 827 -497 851 -13 23 -28 42 -33 42 -5 0 -9 -460
-9 -1145z"/>
<path d="M3713 4637 c-378 -222 -581 -347 -578 -355 6 -17 665 -1145 675
-1156 7 -6 1142 645 1173 673 7 7 -673 1182 -683 1180 -3 0 -267 -155 -587
-342z"/>
<path d="M6215 4346 c-22 -13 -254 -148 -515 -301 -261 -152 -481 -283 -488
-289 -11 -11 67 -149 419 -752 238 -406 473 -810 523 -896 50 -87 94 -158 99
-158 4 0 7 545 7 1210 0 666 -1 1210 -2 1210 -2 0 -21 -11 -43 -24z"/>
<path d="M2565 3964 c-231 -135 -472 -276 -535 -313 l-115 -67 -3 -788 c-2
-723 -1 -788 14 -782 56 21 1753 1023 1751 1034 -4 24 -672 1161 -682 1161 -5
1 -199 -110 -430 -245z"/>
<path d="M4730 3479 c-738 -433 -822 -483 -827 -495 -2 -7 141 -260 318 -564
243 -416 329 -554 347 -561 34 -13 1539 -11 1548 2 3 5 -118 222 -270 482
-152 260 -388 663 -524 896 -137 234 -252 426 -258 427 -5 2 -155 -82 -334
-187z"/>
<path d="M3725 2891 c-16 -10 -379 -222 -805 -471 -1009 -589 -948 -552 -924
-561 32 -12 2374 -10 2374 2 0 6 -125 225 -279 487 -153 263 -289 496 -302
519 -13 24 -26 43 -29 43 -3 0 -18 -9 -35 -19z"/>
</g>
</svg>
