<?xml version="1.0" standalone="no"?>
<!DOCTYPE svg PUBLIC "-//W3C//DTD SVG 20010904//EN"
 "http://www.w3.org/TR/2001/REC-SVG-20010904/DTD/svg10.dtd">
<svg version="1.0" xmlns="http://www.w3.org/2000/svg"
 width="600.000000pt" height="600.000000pt" viewBox="0 0 600.000000 600.000000"
 preserveAspectRatio="xMidYMid meet">

<g transform="translate(0.000000,600.000000) scale(0.100000,-0.100000)"
fill="#000000" stroke="none">
<path d="M780 4780 l0 -600 600 0 600 0 0 600 0 600 -600 0 -600 0 0 -600z"/>
<path d="M4574 4495 c-58 -62 -124 -165 -154 -238 -28 -67 -28 -67 -100 -91
-124 -42 -210 -104 -297 -214 l-18 -23 -30 39 c-73 94 -211 185 -313 207 -30
6 -38 16 -73 88 -58 119 -89 167 -148 230 -48 51 -75 49 -100 -7 -40 -92 -80
-301 -66 -346 4 -13 -1 -25 -17 -37 -51 -40 -137 -135 -161 -177 -53 -95 -69
-155 -74 -276 l-6 -115 -106 3 c-58 2 -133 -1 -165 -7 l-60 -11 -45 38 c-53
45 -132 95 -213 137 -49 26 -58 27 -73 15 -35 -29 -5 -200 61 -358 l28 -64
-17 -63 c-43 -163 -4 -343 111 -504 26 -36 97 -116 158 -178 191 -192 202
-210 254 -408 50 -192 122 -311 247 -409 101 -80 274 -154 443 -191 102 -22
506 -32 622 -15 198 29 386 93 505 172 155 105 245 241 302 460 45 177 73 222
220 363 158 152 245 277 292 420 30 92 32 207 4 288 l-19 58 23 47 c13 26 27
55 32 64 13 25 37 147 45 227 7 75 -2 101 -35 101 -23 0 -174 -94 -244 -152
-56 -46 -61 -48 -100 -40 -23 4 -99 7 -169 7 l-128 -1 0 88 c0 180 -48 298
-168 418 l-79 78 -6 84 c-9 133 -69 325 -105 336 -8 2 -33 -17 -58 -43z m-939
-620 c123 -59 218 -251 201 -408 -13 -127 -80 -215 -181 -238 -73 -16 -131 7
-206 81 -66 65 -105 144 -120 243 -24 156 32 291 141 336 36 15 118 8 165 -14z
m918 11 c134 -57 178 -298 86 -477 -50 -99 -169 -189 -249 -189 -86 1 -164 68
-200 174 -23 69 -25 116 -6 203 37 172 160 301 289 303 26 0 62 -6 80 -14z
m-1553 -657 c127 -59 220 -186 220 -300 0 -109 -47 -172 -146 -198 -112 -30
-273 74 -347 224 -62 127 -31 265 68 295 52 16 145 6 205 -21z m2240 9 c60
-41 75 -71 75 -151 0 -92 -30 -159 -109 -244 -115 -125 -256 -152 -354 -68
-61 53 -76 125 -46 225 22 73 64 132 130 182 102 77 236 102 304 56z m-1065
-228 c72 -35 123 -93 182 -206 56 -106 90 -145 193 -214 144 -96 184 -161 184
-295 -1 -95 -20 -146 -83 -217 -64 -72 -126 -98 -231 -98 -76 0 -104 6 -211
42 -159 53 -249 56 -374 13 -44 -15 -85 -31 -90 -36 -19 -14 -149 -31 -195
-24 -76 11 -137 44 -189 101 -61 67 -86 133 -85 229 1 120 42 187 174 279 108
76 150 123 207 230 57 109 104 158 186 197 59 28 68 30 172 27 93 -3 118 -7
160 -28z"/>
<path d="M790 3100 l0 -600 598 2 597 3 3 598 2 597 -600 0 -600 0 0 -600z"/>
<path d="M790 1420 l0 -600 600 0 600 0 0 600 0 600 -600 0 -600 0 0 -600z"/>
</g>
</svg>
