<?xml version="1.0" encoding="utf-8"?>
<!DOCTYPE svg PUBLIC "-//W3C//DTD SVG 1.0//EN" "http://www.w3.org/TR/2001/REC-SVG-20010904/DTD/svg10.dtd">
<svg version="1.0" xmlns="http://www.w3.org/2000/svg" width="1024px" height="1024px" viewBox="0 0 1024 1024" preserveAspectRatio="xMidYMid meet">
 <g fill="#000000" stroke="#3c3c3c" stroke-width="1">
  <path d="M62 845 l0 -119 118.5 0 118.5 0 -0.2 118.8 -0.3 118.7 -118.2 0.3 -118.3 0.2 0 -119z"/>
  <path d="M394.7 963.3 c-0.4 -0.3 -0.7 -53.9 -0.7 -119 l0 -118.3 118.8 0.2 118.7 0.3 0.3 117.4 c0.1 85.9 -0.1 117.7 -0.9 118.7 -1 1.2 -20.9 1.4 -118.4 1.4 -64.4 0 -117.5 -0.3 -117.8 -0.7z"/>
  <path d="M727.7 963.3 c-0.4 -0.3 -0.7 -53.9 -0.7 -119 l0 -118.3 118.5 0 118.5 0 0 118 c0 98.9 -0.2 118 -1.4 118 -0.9 0 -1.2 -0.8 -0.8 -2.5 0.2 -1.5 0 -2.5 -0.7 -2.5 -0.6 0 -1.1 1.1 -1.1 2.4 0 1.9 -0.7 2.5 -3.2 3.2 -4 0.9 -228.2 1.7 -229.1 0.7z"/>
  <path d="M83.8 630.2 l-22.8 -0.2 0 -118 0 -118 118.4 0 118.3 0 0.7 9 c0.4 4.9 0.6 58 0.6 118 l-0.2 109 -79.6 0.1 c-43.8 0 -87.1 0.1 -96.2 0.2 -9.1 0.1 -26.7 0.1 -39.2 -0.1z"/>
  <path d="M393.7 630.3 c-0.2 -0.5 -0.3 -53.9 -0.3 -118.8 l0.1 -118 118.5 0 118.5 0 0 118.5 0 118.5 -118.2 0.3 c-65 0.1 -118.3 -0.1 -118.6 -0.5z m220.3 -118.3 l0 -102 -102 0 -102 0 0 102 0 102 102 0 102 0 0 -102z"/>
  <path d="M751.7 630.2 l-25.7 -0.2 0 -118 0 -118 119 0 119 0 0 118 c0 111.7 -0.1 118 -1.7 118 -62.7 0.3 -191.7 0.4 -210.6 0.2z"/>
  <path d="M60 179.1 l0 -118.9 118.3 0.2 118.2 0.1 0.3 118.8 0.2 118.7 -118.5 0 -118.5 0 0 -118.9z"/>
  <path d="M392.7 297.3 c-0.4 -0.3 -0.7 -53.4 -0.7 -117.8 0 -92.6 0.3 -117.5 1.3 -118.3 0.8 -0.7 38.9 -1 118.7 -0.9 l117.5 0.2 0 118.5 0 118.5 -118.1 0.3 c-64.9 0.1 -118.4 -0.1 -118.7 -0.5z"/>
  <path d="M725 180.6 c0 -64.6 0.3 -118.1 0.6 -119 0.6 -1.4 12 -1.6 118.5 -1.6 l117.9 0.1 0 118.9 0 119 -118.5 0 -118.5 0 0 -117.4z"/>
 </g>
</svg>