<?xml version="1.0" standalone="no"?>
<!DOCTYPE svg PUBLIC "-//W3C//DTD SVG 20010904//EN"
 "http://www.w3.org/TR/2001/REC-SVG-20010904/DTD/svg10.dtd">
<svg version="1.0" xmlns="http://www.w3.org/2000/svg"
 width="212.000000pt" height="216.000000pt" viewBox="0 0 212.000000 216.000000"
 preserveAspectRatio="xMidYMid meet">

<g transform="translate(0.000000,216.000000) scale(0.100000,-0.100000)"
fill="#000000" stroke="none">
<path d="M485 2041 c-124 -33 -212 -139 -223 -268 -4 -56 -1 -70 27 -128 71
-143 216 -200 365 -144 66 24 146 105 164 166 29 96 7 210 -52 280 -66 76
-191 118 -281 94z"/>
<path d="M1442 2031 c-73 -25 -121 -67 -159 -137 -107 -196 52 -434 274 -411
152 16 258 132 257 282 0 89 -27 148 -96 210 -80 72 -174 91 -276 56z"/>
<path d="M255 1236 c-61 -28 -87 -56 -117 -121 -21 -46 -23 -64 -23 -220 0
-166 1 -171 29 -233 35 -76 85 -123 160 -151 55 -20 72 -21 545 -21 l487 0 29
61 c39 80 109 150 192 191 63 31 75 33 168 33 88 0 107 -3 159 -28 32 -15 61
-26 63 -24 2 3 6 55 9 118 7 122 -7 252 -30 297 -21 41 -66 83 -111 103 -38
17 -83 19 -775 19 l-735 0 -50 -24z m926 -109 c87 -30 166 -79 244 -152 88
-82 87 -92 -14 -187 -235 -221 -522 -217 -761 11 -76 72 -79 98 -17 158 178
171 370 231 548 170z"/>
<path d="M975 1035 c-68 -37 -95 -80 -95 -153 0 -54 25 -100 73 -136 21 -16
43 -21 86 -21 48 0 64 5 95 29 119 91 67 280 -81 293 -32 3 -58 -1 -78 -12z
m112 -80 c67 -47 32 -155 -51 -155 -41 0 -80 41 -80 85 0 67 77 108 131 70z"/>
<path d="M1640 691 c-89 -29 -165 -93 -208 -176 -23 -43 -27 -62 -26 -135 0
-72 4 -93 27 -137 60 -116 160 -177 287 -178 66 0 85 5 143 33 150 74 215 240
156 399 -26 69 -98 145 -167 175 -51 23 -169 33 -212 19z m185 -92 c85 -40
138 -124 138 -219 0 -205 -232 -312 -399 -185 -72 55 -105 185 -69 272 55 131
205 191 330 132z"/>
<path d="M1702 568 c-8 -8 -12 -47 -12 -108 0 -61 4 -100 12 -108 12 -12 114
-17 142 -6 22 8 20 41 -3 54 -11 5 -33 10 -50 10 l-31 0 0 69 c0 50 -4 74 -16
85 -19 19 -26 20 -42 4z"/>
</g>
</svg>
