<?xml version="1.0" standalone="no"?>
<!DOCTYPE svg PUBLIC "-//W3C//DTD SVG 20010904//EN"
 "http://www.w3.org/TR/2001/REC-SVG-20010904/DTD/svg10.dtd">
<svg version="1.0" xmlns="http://www.w3.org/2000/svg"
 width="137.000000pt" height="138.000000pt" viewBox="0 0 137.000000 138.000000"
 preserveAspectRatio="xMidYMid meet">

<g transform="translate(0.000000,138.000000) scale(0.100000,-0.100000)"
fill="#000000" stroke="none">
<path d="M580 1279 c-25 -11 -53 -22 -64 -25 -38 -7 -112 -39 -167 -71 -90
-52 -158 -126 -212 -233 -47 -91 -49 -98 -54 -200 -4 -79 -2 -121 11 -168 9
-35 16 -76 16 -91 0 -64 56 -162 112 -195 15 -9 51 -37 80 -62 111 -96 227
-144 355 -147 191 -5 290 44 510 253 42 40 73 107 73 157 0 22 5 65 11 94 15
75 11 221 -7 277 -28 83 -103 199 -162 252 -69 61 -173 117 -233 126 -24 4
-65 17 -91 30 -59 30 -118 30 -178 3z m170 -57 c36 -27 50 -60 50 -118 0 -37
-6 -59 -21 -78 -65 -82 -200 -72 -243 18 -66 140 90 269 214 178z m-260 -260
c36 -27 50 -60 50 -120 0 -48 -4 -58 -33 -87 -74 -74 -189 -59 -231 30 -66
139 90 268 214 177z m527 8 c47 -28 65 -62 65 -121 -1 -84 -56 -139 -141 -139
-82 0 -141 61 -141 145 0 104 126 171 217 115z m100 -348 c44 -24 63 -61 63
-124 0 -54 -3 -63 -33 -93 -62 -62 -146 -64 -206 -4 -53 52 -54 143 -2 195 50
50 115 59 178 26z m-732 -22 c91 -56 84 -200 -11 -245 -67 -32 -139 -15 -183
41 -27 34 -29 128 -5 163 42 60 137 79 199 41z m350 -80 c49 -24 77 -67 77
-124 2 -85 -73 -154 -155 -143 -140 19 -172 205 -46 269 44 23 73 23 124 -2z"/>
</g>
</svg>
