<?xml version="1.0" standalone="no"?>
<!DOCTYPE svg PUBLIC "-//W3C//DTD SVG 20010904//EN"
 "http://www.w3.org/TR/2001/REC-SVG-20010904/DTD/svg10.dtd">
<svg version="1.0" xmlns="http://www.w3.org/2000/svg"
 width="517.000000pt" height="495.000000pt" viewBox="0 0 517.000000 495.000000"
 preserveAspectRatio="xMidYMid meet">

<g transform="translate(0.000000,495.000000) scale(0.100000,-0.100000)"
fill="#000000" stroke="none">
<path d="M680 4530 c0 -5 -18 -10 -40 -10 -22 0 -40 -2 -40 -5 0 -3 33 -39 73
-80 72 -75 142 -151 176 -192 10 -13 22 -23 25 -23 11 0 86 -80 86 -91 0 -5 6
-9 14 -9 8 0 18 -9 21 -20 3 -11 13 -20 21 -20 8 0 14 -4 14 -9 0 -5 22 -32
49 -60 l50 -51 555 0 c364 0 556 3 556 10 0 6 23 10 50 10 41 0 50 3 50 18 0
10 -9 24 -20 32 -11 8 -20 20 -20 27 0 7 -106 119 -235 248 l-235 235 -575 0
c-377 0 -575 -3 -575 -10z"/>
<path d="M1960 4534 c0 -9 28 -34 37 -34 5 0 15 -9 23 -20 8 -11 20 -20 27
-20 6 0 15 -9 18 -20 3 -11 11 -20 16 -20 6 0 41 -31 79 -70 38 -38 74 -70 80
-70 5 0 10 -4 10 -10 0 -5 5 -10 10 -10 6 0 42 -31 80 -70 38 -38 74 -70 80
-70 6 0 29 -18 50 -40 43 -45 59 -49 80 -20 8 11 21 20 30 20 9 0 22 -9 30
-20 20 -28 37 -25 70 10 15 17 33 30 39 30 6 0 11 5 11 10 0 6 5 10 10 10 6 0
42 32 80 70 38 39 74 70 80 70 6 0 46 36 90 80 44 44 86 80 94 80 8 0 18 9 21
20 3 11 11 20 16 20 10 0 79 65 79 75 0 3 -279 5 -620 5 -341 0 -620 -3 -620
-6z"/>
<path d="M3093 4304 c-128 -129 -233 -240 -233 -247 0 -7 -9 -19 -20 -27 -11
-8 -20 -22 -20 -32 0 -15 9 -18 55 -18 30 0 55 -4 55 -10 0 -7 190 -10 550
-10 l550 0 178 179 c97 99 188 194 202 211 14 17 53 60 88 96 34 35 62 66 62
69 0 3 -18 5 -40 5 -22 0 -40 5 -40 10 0 7 -199 10 -577 9 l-578 -1 -232 -234z"/>
<path d="M492 4380 c-9 -29 -12 -144 -12 -415 l0 -375 115 -115 c63 -63 119
-115 125 -115 5 0 10 -4 10 -9 0 -13 76 -91 89 -91 6 0 11 -4 11 -10 0 -5 5
-10 10 -10 6 0 42 -31 80 -70 38 -38 76 -70 85 -70 8 0 15 -4 15 -10 0 -5 5
-10 10 -10 6 0 10 27 10 60 0 33 4 60 10 60 6 0 10 122 10 345 l0 345 -235
235 c-129 129 -239 235 -245 235 -5 0 -10 5 -10 10 0 6 -6 10 -13 10 -7 0 -19
9 -27 20 -20 28 -23 26 -38 -20z"/>
<path d="M4651 4413 c0 -7 -6 -13 -12 -13 -6 0 -24 -13 -39 -30 -15 -16 -33
-30 -39 -30 -6 0 -11 -4 -11 -10 0 -5 -5 -10 -10 -10 -6 0 -107 -97 -225 -215
l-216 -215 5 -338 c5 -388 11 -472 32 -472 8 0 42 27 74 60 32 33 64 60 69 60
6 0 11 5 11 10 0 6 5 10 10 10 6 0 93 83 195 185 l185 185 0 395 c0 237 -4
395 -9 395 -5 0 -12 10 -14 23 -2 12 -5 16 -6 10z"/>
<path d="M1590 3870 c0 -6 -54 -10 -141 -10 -141 0 -169 -7 -169 -39 0 -15
407 -421 421 -421 6 0 24 -13 39 -30 46 -49 79 -42 150 30 32 33 64 60 69 60
6 0 11 5 11 10 0 6 6 10 13 10 7 0 19 9 27 21 26 38 68 79 79 79 6 0 11 4 11
8 0 12 35 52 45 52 8 0 32 26 55 61 8 12 48 55 88 95 39 41 72 76 72 79 0 3
-173 5 -385 5 -250 0 -385 -4 -385 -10z"/>
<path d="M2800 3875 c0 -3 29 -35 65 -70 36 -36 65 -70 65 -75 0 -6 5 -10 11
-10 13 0 49 -38 49 -52 0 -4 7 -8 15 -8 8 0 15 -4 15 -9 0 -11 75 -91 85 -91
10 0 85 -80 85 -91 0 -5 5 -9 11 -9 6 0 32 -22 59 -50 27 -27 53 -50 59 -50 6
0 11 -4 11 -10 0 -19 65 -11 80 10 8 11 20 20 28 20 7 0 53 41 102 90 49 50
94 90 99 90 5 0 13 9 16 20 3 11 12 20 20 20 8 0 17 9 20 20 3 11 12 20 18 20
7 0 19 10 27 21 8 12 45 53 83 91 68 70 79 88 52 88 -8 0 -15 5 -15 10 0 6
-57 10 -150 10 -93 0 -150 4 -150 10 0 6 -133 10 -380 10 -209 0 -380 -2 -380
-5z"/>
<path d="M2440 3790 c-14 -16 -31 -30 -37 -30 -7 0 -13 -4 -13 -10 0 -5 -5
-10 -10 -10 -13 0 -420 -407 -420 -420 0 -6 -11 -22 -25 -36 -14 -14 -25 -29
-25 -34 0 -5 -7 -16 -15 -24 -14 -14 -12 -20 30 -61 25 -25 45 -50 45 -55 0
-13 597 -610 610 -610 12 0 598 586 620 620 8 13 31 39 50 58 21 22 29 37 22
40 -7 2 -12 11 -12 21 0 9 -9 23 -20 31 -11 8 -20 20 -20 27 0 16 -445 463
-461 463 -6 0 -24 14 -39 30 -34 37 -87 41 -110 10 -8 -11 -21 -20 -30 -20 -9
0 -22 9 -30 20 -23 32 -79 26 -110 -10z"/>
<path d="M1155 3683 c-3 -32 -9 -214 -11 -405 l-5 -347 165 -166 c91 -91 170
-165 176 -165 5 0 10 -4 10 -9 0 -11 95 -111 105 -111 4 0 20 -13 35 -30 15
-16 32 -30 38 -30 5 0 15 -13 22 -30 7 -16 16 -30 21 -30 5 0 9 192 9 435 l0
435 -225 225 c-124 124 -229 225 -235 225 -5 0 -10 5 -10 10 0 6 -6 10 -13 10
-7 0 -19 9 -27 20 -28 39 -48 25 -55 -37z"/>
<path d="M3940 3710 c-14 -16 -31 -30 -37 -30 -7 0 -13 -4 -13 -10 0 -5 -5
-10 -10 -10 -6 0 -107 -97 -225 -215 l-215 -215 0 -435 c0 -239 2 -435 5 -435
3 0 134 128 291 285 l285 286 -5 357 c-2 196 -7 378 -11 405 -8 56 -27 61 -65
17z"/>
<path d="M453 3445 c-10 -11 -13 -78 -13 -265 l0 -250 183 -185 c100 -101 201
-206 225 -232 23 -26 55 -63 71 -80 16 -18 36 -33 45 -33 14 0 16 31 16 285
l0 285 -205 205 c-113 113 -209 205 -215 205 -5 0 -10 5 -10 10 0 6 -5 10 -11
10 -6 0 -24 14 -39 30 -32 34 -31 34 -47 15z"/>
<path d="M4650 3420 c-19 -21 -40 -39 -47 -40 -6 0 -15 -9 -18 -20 -3 -11 -13
-20 -21 -20 -8 0 -97 -83 -199 -185 l-185 -185 0 -285 c0 -249 2 -285 15 -285
16 0 238 218 265 260 8 13 70 79 138 146 l122 124 0 251 c0 204 -3 253 -14
265 -8 8 -16 14 -18 14 -2 -1 -19 -19 -38 -40z"/>
<path d="M1858 2644 l3 -435 204 -205 c113 -112 209 -204 214 -204 5 0 13 -9
16 -20 3 -11 12 -20 20 -20 8 0 17 -9 20 -20 3 -11 11 -20 16 -20 6 0 32 -22
59 -50 27 -27 53 -50 59 -50 8 0 11 131 11 425 l0 425 -305 305 c-168 168
-308 305 -312 305 -5 0 -7 -196 -5 -436z"/>
<path d="M2983 2774 l-303 -304 0 -425 c0 -386 1 -425 16 -425 17 0 54 36 54
52 0 4 5 8 10 8 6 0 131 121 279 269 l269 269 1 376 c1 207 4 383 8 391 3 8 0
15 -7 15 -8 0 -10 12 -5 40 5 30 4 40 -7 39 -7 0 -149 -138 -315 -305z"/>
<path d="M1140 2515 l0 -286 43 -43 c23 -24 49 -53 57 -66 8 -13 58 -67 110
-120 52 -53 102 -107 110 -120 8 -13 59 -67 112 -121 53 -54 99 -107 103 -119
3 -11 11 -20 17 -20 10 0 8 71 -11 395 -5 88 -13 187 -17 219 l-7 59 -253 253
c-140 140 -256 254 -259 254 -3 0 -5 -128 -5 -285z"/>
<path d="M3754 2545 l-252 -252 -6 -69 c-7 -66 -20 -271 -32 -496 -3 -60 -3
-108 1 -108 8 0 32 26 55 61 8 12 58 66 110 119 52 53 102 107 110 120 8 13
58 67 110 120 52 53 102 107 110 120 8 12 25 33 38 46 22 23 22 26 22 309 0
157 -3 285 -7 284 -5 0 -121 -114 -259 -254z"/>
<path d="M460 2640 c0 -11 -4 -20 -10 -20 -6 0 -10 -85 -10 -235 0 -231 0
-236 23 -260 12 -14 47 -52 77 -85 75 -83 428 -440 435 -440 3 0 5 126 5 280
0 167 -4 280 -9 280 -5 0 -13 9 -16 21 -9 28 -441 459 -460 459 -8 0 -15 5
-15 10 0 6 -4 10 -10 10 -5 0 -10 -9 -10 -20z"/>
<path d="M4680 2650 c0 -5 -7 -10 -15 -10 -16 0 -395 -374 -395 -390 0 -5 -20
-30 -45 -54 l-45 -45 0 -276 c0 -151 2 -275 5 -275 7 0 495 492 518 521 15 20
17 50 17 267 0 198 -3 246 -14 258 -17 16 -26 18 -26 4z"/>
<path d="M1858 1775 l3 -306 284 -284 c157 -157 287 -285 290 -285 3 0 5 137
5 305 l0 305 -285 285 c-157 157 -288 285 -292 285 -5 0 -7 -137 -5 -305z"/>
<path d="M3010 1802 l-274 -276 -8 -66 c-8 -74 -11 -560 -3 -560 3 0 95 90
205 200 110 110 204 200 210 200 5 0 10 4 10 8 0 11 35 52 45 52 10 0 65 60
65 71 0 5 9 9 19 9 29 0 34 54 29 345 -2 141 0 256 4 257 13 5 -2 38 -16 37
-6 0 -135 -125 -286 -277z"/>
<path d="M1140 1715 l0 -285 73 -74 c39 -40 79 -83 87 -96 8 -13 62 -71 120
-130 58 -59 112 -117 120 -130 17 -26 146 -160 155 -160 3 0 5 81 5 180 0 113
-4 180 -10 180 -6 0 -10 52 -10 135 l0 135 -265 265 c-146 146 -267 265 -270
265 -3 0 -5 -128 -5 -285z"/>
<path d="M3743 1735 l-261 -263 -6 -149 c-14 -334 -17 -483 -11 -483 8 0 157
153 175 180 8 13 68 76 133 142 64 65 117 123 117 128 0 5 29 39 65 75 l65 65
0 285 c0 157 -3 285 -7 284 -5 0 -126 -119 -270 -264z"/>
<path d="M1858 998 c0 -156 0 -293 1 -306 2 -27 542 -572 566 -572 13 0 15 39
15 295 l0 295 -165 165 c-91 91 -168 165 -173 165 -4 0 -14 10 -22 21 -25 36
-128 139 -139 139 -6 0 -11 4 -11 9 0 10 -55 71 -64 71 -3 0 -7 -127 -8 -282z"/>
<path d="M3250 1230 c-14 -16 -30 -30 -35 -30 -6 0 -17 -10 -25 -21 -8 -12
-32 -39 -52 -61 -21 -22 -38 -44 -38 -49 0 -5 -7 -9 -15 -9 -8 0 -15 -4 -15
-10 0 -5 -5 -10 -11 -10 -14 0 -46 -36 -54 -61 -4 -11 -15 -19 -26 -19 -10 0
-19 -4 -19 -8 0 -11 -35 -52 -44 -52 -3 0 -49 -43 -101 -95 l-95 -95 0 -295
c0 -256 2 -295 15 -295 8 0 140 125 293 277 l277 278 2 292 c1 266 0 293 -15
293 -10 0 -28 -14 -42 -30z"/>
</g>
</svg>
