<?xml version="1.0" standalone="no"?>
<!DOCTYPE svg PUBLIC "-//W3C//DTD SVG 20010904//EN"
 "http://www.w3.org/TR/2001/REC-SVG-20010904/DTD/svg10.dtd">
<svg version="1.0" xmlns="http://www.w3.org/2000/svg"
 width="153.000000pt" height="224.000000pt" viewBox="0 0 153.000000 224.000000"
 preserveAspectRatio="xMidYMid meet">

<g transform="translate(0.000000,224.000000) scale(0.100000,-0.100000)"
fill="#000000" stroke="none">
<path d="M250 1890 l0 -150 139 0 140 0 3 146 c2 80 1 148 -1 150 -2 2 -67 4
-143 4 l-138 0 0 -150z"/>
<path d="M620 1890 l0 -150 140 0 140 0 0 150 0 150 -140 0 -140 0 0 -150z"/>
<path d="M980 1890 l0 -151 143 3 142 3 3 148 3 147 -146 0 -145 0 0 -150z"/>
<path d="M250 1510 l0 -150 73 0 c69 0 74 2 88 26 7 14 37 48 66 74 l52 47 2
74 2 74 -141 3 -142 3 0 -151z"/>
<path d="M620 1605 l0 -56 38 8 c48 10 146 10 200 0 l42 -9 0 56 0 56 -140 0
-140 0 0 -55z"/>
<path d="M980 1587 l0 -74 74 -76 75 -77 70 0 71 0 0 150 0 150 -145 0 -145 0
0 -73z"/>
<path d="M674 1501 c-50 -13 -54 -19 -54 -82 l0 -59 140 0 140 0 0 58 c0 54
-2 60 -27 71 -34 16 -157 23 -199 12z"/>
<path d="M490 1393 l-22 -28 22 -3 c35 -6 48 4 43 32 -7 33 -16 33 -43 -1z"/>
<path d="M980 1390 c0 -27 3 -30 31 -30 31 0 32 7 1 43 -22 25 -32 21 -32 -13z"/>
<path d="M250 1140 l0 -150 50 0 c50 0 50 0 43 28 -12 40 -8 213 5 245 l12 27
-55 0 -55 0 0 -150z"/>
<path d="M408 1253 c-17 -48 -17 -210 0 -240 11 -20 21 -23 67 -23 l55 0 0
140 c0 77 0 143 0 148 0 4 -24 8 -54 10 l-54 3 -14 -38z"/>
<path d="M620 1140 l0 -150 140 0 140 0 0 150 0 150 -140 0 -140 0 0 -150z"/>
<path d="M980 1140 l0 -150 55 0 c46 0 56 3 67 23 17 30 17 192 0 240 -13 37
-14 37 -68 37 l-54 0 0 -150z"/>
<path d="M1162 1263 c13 -32 17 -205 5 -246 l-8 -28 53 3 53 3 0 145 0 145
-57 3 -58 3 12 -28z"/>
<path d="M250 760 l0 -150 140 0 140 0 0 71 0 71 -49 44 c-28 25 -60 60 -71
79 -21 34 -23 35 -91 35 l-69 0 0 -150z"/>
<path d="M482 878 c33 -43 45 -45 50 -8 6 37 3 40 -40 40 l-35 0 25 -32z"/>
<path d="M620 845 c0 -56 3 -66 23 -77 30 -17 183 -17 225 1 31 13 32 15 32
77 l0 64 -140 0 -140 0 0 -65z"/>
<path d="M980 874 c0 -42 13 -41 48 4 l25 32 -37 0 c-35 0 -36 -1 -36 -36z"/>
<path d="M1100 875 c-11 -19 -43 -54 -71 -79 l-49 -44 0 -71 0 -72 143 3 142
3 3 148 3 147 -75 0 c-74 0 -74 0 -96 -35z"/>
<path d="M620 660 l0 -50 140 0 140 0 0 51 0 51 -42 -9 c-54 -10 -152 -10
-200 0 l-38 8 0 -51z"/>
<path d="M250 380 l0 -151 141 3 140 3 0 145 0 145 -140 3 -141 3 0 -151z"/>
<path d="M620 380 l0 -150 140 0 140 0 0 150 0 150 -140 0 -140 0 0 -150z"/>
<path d="M980 380 l0 -150 145 0 145 0 0 150 0 150 -145 0 -145 0 0 -150z"/>
</g>
</svg>
