<svg height="500" viewBox="0 0 500 500" width="500" xmlns="http://www.w3.org/2000/svg"><path clip-rule="evenodd" d="m297.347 38.75h150.324c-2.358 14.614-4.715 28.522-6.832 42.466-4.767 31.389-10.035 62.72-13.91 94.22-2.841 23.104-4.688 46.413-5.387 69.679-1.217 40.591 3.011 80.761 11.858 120.472 4.169 18.714 7.707 37.605 10.552 56.563 2.025 13.481-3.539 21.915-16.613 25.861-8.038 2.425-16.657 4.075-25.018 4.087-35.923.047-71.861-1.427-107.766-.78-23.023.415-45.976 3.885-69 5.371-17.807 1.151-35.682 1.999-53.514 1.808-21.471-.229-42.938-1.552-64.39-2.695-11.739-.625-21.145-10.619-21.979-22.23-.284-3.946.877-5.913 4.922-6.602 65.386-11.154 123.136-40.638 179.522-73.89 25.534-15.058 36.307-38.033 40.95-65.445 5.695-33.606 5.668-67.438 2.594-101.212-3.636-39.927-8.194-79.771-12.479-119.638-.993-9.235-2.504-18.413-3.834-28.035z" fill-rule="evenodd"/><g stroke-width=".51463"><path d="m32.268063 84.453133h44.817917v44.817917h-44.817917z"/><path d="m94.913544 84.453712h44.818501v44.818501h-44.818501z"/><path d="m32.268063 148.27492h44.817917v44.817345h-44.817917z"/><path d="m94.913544 148.2755h44.818501v44.817917h-44.818501z"/><path d="m157.76227 84.646011h44.817917v44.817917h-44.817917z"/><path d="m220.40775 84.646591h44.819073v44.818501h-44.819073z" stroke-miterlimit="10"/><path d="m157.76227 148.4678h44.817917v44.817345h-44.817917z"/><path d="m220.40775 148.46837h44.819073v44.817917h-44.819073z"/><path d="m32.268063 212.28958h44.817917v44.819073h-44.817917z"/><path d="m94.913544 212.28958h44.818501v44.819073h-44.818501z"/><path d="m32.268063 276.11133h44.817917v44.817917h-44.817917z"/><path d="m94.913544 276.11252h44.818501v44.817917h-44.818501z"/><path d="m157.76227 212.28958h44.817917v44.817917h-44.817917z"/><path d="m220.40775 212.28958h44.819073v44.819073h-44.819073z"/><path d="m157.76227 276.11133h44.817917v44.817917h-44.817917z"/><path d="m220.40775 276.11252h44.819073v44.817917h-44.819073z"/></g></svg>