<?xml version="1.0" standalone="no"?>
<!DOCTYPE svg PUBLIC "-//W3C//DTD SVG 20010904//EN"
 "http://www.w3.org/TR/2001/REC-SVG-20010904/DTD/svg10.dtd">
<svg version="1.0" xmlns="http://www.w3.org/2000/svg"
 width="1000.000000pt" height="1000.000000pt" viewBox="0 0 1000.000000 1000.000000"
 preserveAspectRatio="xMidYMid meet">

<g transform="translate(0.000000,1000.000000) scale(0.100000,-0.100000)"
fill="#000000" stroke="none">
<path d="M2987 8813 c-4 -3 -7 -177 -7 -385 l0 -378 390 0 390 0 0 385 0 385
-383 0 c-211 0 -387 -3 -390 -7z"/>
<path d="M4070 8435 l0 -385 385 0 385 0 0 385 0 385 -385 0 -385 0 0 -385z"/>
<path d="M5157 8813 c-4 -3 -7 -179 -7 -390 l0 -383 385 0 385 0 0 390 0 390
-378 0 c-208 0 -382 -3 -385 -7z"/>
<path d="M6237 8813 c-4 -3 -7 -179 -7 -390 l0 -383 385 0 385 0 0 390 0 390
-378 0 c-208 0 -382 -3 -385 -7z"/>
<path d="M2987 7713 c-4 -3 -7 -177 -7 -385 l0 -378 390 0 390 0 0 385 0 385
-383 0 c-211 0 -387 -3 -390 -7z"/>
<path d="M4070 7335 l0 -385 385 0 385 0 0 385 0 385 -385 0 -385 0 0 -385z"/>
<path d="M5150 7325 l0 -385 385 0 385 0 0 385 0 385 -385 0 -385 0 0 -385z"/>
<path d="M6230 7325 l0 -385 385 0 385 0 0 385 0 385 -385 0 -385 0 0 -385z"/>
<path d="M2982 6228 l3 -383 388 -3 387 -2 0 385 0 385 -390 0 -390 0 2 -382z"/>
<path d="M4070 6225 l0 -385 385 0 385 0 0 385 0 385 -385 0 -385 0 0 -385z"/>
<path d="M5150 6225 l0 -385 385 0 385 0 0 385 0 385 -385 0 -385 0 0 -385z"/>
<path d="M6230 6225 l0 -385 385 0 385 0 0 385 0 385 -385 0 -385 0 0 -385z"/>
<path d="M2982 5128 l3 -383 388 -3 387 -2 0 385 0 385 -390 0 -390 0 2 -382z"/>
<path d="M4070 5125 l0 -385 385 0 385 0 0 385 0 385 -385 0 -385 0 0 -385z"/>
<path d="M5150 5125 l0 -385 385 0 385 0 0 385 0 385 -385 0 -385 0 0 -385z"/>
<path d="M6230 5125 l0 -385 385 0 385 0 0 385 0 385 -385 0 -385 0 0 -385z"/>
<path d="M1515 4806 c-135 -39 -226 -122 -276 -251 -18 -49 -23 -80 -23 -170
-1 -182 -44 -130 738 -908 791 -788 1190 -1177 1266 -1234 63 -47 183 -111
232 -123 18 -5 58 -16 88 -24 49 -14 189 -16 1230 -16 646 0 1261 5 1365 10
245 12 847 13 894 1 20 -5 61 -15 91 -21 132 -30 234 -94 495 -311 279 -233
465 -388 485 -405 236 -202 252 -217 517 -476 78 -76 149 -138 157 -138 14 0
16 80 13 753 l-2 752 -32 65 c-21 43 -52 84 -90 120 -32 29 -132 126 -223 215
-291 284 -732 710 -740 715 -4 3 -153 147 -331 320 -451 439 -506 491 -572
544 -84 67 -185 111 -287 126 -107 14 -2570 9 -2640 -6 -99 -22 -212 -98 -267
-179 -44 -66 -64 -139 -64 -230 -1 -47 5 -101 11 -118 63 -168 187 -279 335
-302 28 -4 507 -11 1065 -14 l1015 -6 3 -70 c2 -57 0 -72 -14 -82 -23 -17
-2477 -19 -2535 -3 -37 10 -78 45 -324 274 -71 67 -157 146 -190 176 -33 30
-67 62 -75 70 -8 8 -71 67 -140 130 -69 63 -132 122 -140 130 -17 17 -100 95
-325 306 -359 336 -364 340 -465 373 -70 23 -178 26 -245 7z"/>
</g>
</svg>
