<svg enable-background="new 0 0 500 500" height="500" viewBox="0 0 500 500" width="500" xmlns="http://www.w3.org/2000/svg"><path d="m75 428h46v46h-46z"/><path d="m75 361h46v46h-46z"/><path d="m75 294h46v46h-46z"/><path d="m75 227h46v46h-46z"/><path d="m75 160h46v46h-46z"/><path d="m75 93h46v46h-46z"/><path d="m75 26h46v46h-46z"/><path d="m413.248 249.918c4.928-76.658 73.934-190.163-58.734-190.163-111.137 0-118.595 96.192-118.595 190.163 0 84.969 4.044 186.586 106.527 190.163 142.87 4.986 76.279-104.975 70.802-190.163z"/></svg>