<svg xmlns="http://www.w3.org/2000/svg" width="500" height="500" viewBox="0 0 500 500"><g fill-rule="evenodd" transform="matrix(1.5 0 0 1.5 -125 -125)"><path d="m250 229 55-55h-110zm-70-70 55-55h-110zm140 0 55-55h-110zm-70-52.3 55 55h-110z"/><path d="m271 250 55 55v-110zm70-70 55 55v-110zm0 140 55 55v-110zm52.3-70-55 55v-110z"/><path d="m229 250-55-55v110zm-70 70-55-55v110zm0-140-55-55v110zm-52.3 70 55-55v110z"/><path d="m250 271 55 55h-110zm-70 70 55 55h-110zm140 0 55 55h-110zm-70 52.3 55-55h-110z"/></g></svg>