<?xml version="1.0" standalone="no"?>
<!DOCTYPE svg PUBLIC "-//W3C//DTD SVG 20010904//EN"
 "http://www.w3.org/TR/2001/REC-SVG-20010904/DTD/svg10.dtd">
<svg version="1.0" xmlns="http://www.w3.org/2000/svg"
 width="600.000000pt" height="600.000000pt" viewBox="0 0 600.000000 600.000000"
 preserveAspectRatio="xMidYMid meet">

<g transform="translate(0.000000,600.000000) scale(0.100000,-0.100000)"
fill="#000000" stroke="none">
<path d="M2792 5164 c-339 -61 -643 -289 -801 -599 -85 -167 -121 -321 -121
-515 0 -190 35 -339 117 -505 161 -322 463 -549 812 -610 175 -31 411 -13 564
42 289 104 508 293 641 553 100 194 133 348 123 571 -7 177 -37 295 -116 454
-162 325 -458 548 -811 610 -103 18 -307 18 -408 -1z m351 -582 c149 -527 156
-564 118 -648 -101 -222 -407 -229 -515 -12 -47 93 -43 115 111 660 76 268
140 488 143 488 3 0 67 -220 143 -488z"/>
<path d="M2912 4417 c-46 -160 -87 -311 -93 -335 -12 -57 3 -112 44 -159 104
-119 287 -65 322 95 5 26 -13 105 -87 363 -51 181 -95 329 -98 329 -3 0 -42
-132 -88 -293z"/>
<path d="M887 2876 c-133 -48 -202 -221 -138 -347 25 -49 339 -369 857 -873
332 -324 374 -357 489 -392 42 -12 148 -15 685 -14 349 0 808 3 1020 6 489 8
507 5 670 -122 179 -139 506 -420 643 -552 82 -79 150 -142 152 -140 2 1 4
203 6 448 2 404 1 449 -15 487 -13 31 -82 104 -274 290 -141 136 -394 381
-562 543 -338 327 -369 354 -440 381 -48 18 -89 19 -843 19 -898 0 -865 3
-941 -74 -46 -46 -76 -115 -76 -176 0 -91 63 -190 148 -232 l47 -23 633 -3
632 -3 0 -50 0 -49 -769 0 -770 0 -63 58 c-106 96 -637 590 -742 690 -115 110
-174 142 -256 141 -30 0 -72 -6 -93 -13z"/>
</g>
</svg>
