<svg enable-background="new 0 0 500 500" height="500" viewBox="0 0 500 500" width="500" xmlns="http://www.w3.org/2000/svg"><path d="M364.113 29.5c58.204 0 105.387 47.183 105.387 105.387 0 20.397-5.828 41.28-17.566 58.278-15.428 22.34-19.829 38.852-19.83 56.335s4.402 33.996 19.83 56.336c11.738 16.998 17.566 37.881 17.566 58.278 0 58.203-47.184 105.386-105.387 105.386-20.397 0-41.279-5.828-58.277-17.566-22.34-15.428-38.853-19.829-56.336-19.829s-33.996 4.401-56.336 19.829c-16.998 11.738-37.88 17.566-58.277 17.566C76.683 469.5 29.5 422.317 29.5 364.114c0-20.397 5.828-41.28 17.566-58.278 15.428-22.34 19.83-38.853 19.83-56.336s-4.402-33.995-19.83-56.335C35.328 176.167 29.5 155.284 29.5 134.887 29.5 76.683 76.683 29.5 134.887 29.5c20.397 0 41.279 5.828 58.277 17.566 22.34 15.428 38.853 19.83 56.336 19.83s33.996-4.402 56.336-19.83c16.998-11.738 37.88-17.566 58.277-17.566m0 270.728c-35.283 0-63.885 28.602-63.885 63.885S328.83 428 364.113 428 428 399.397 428 364.113s-28.603-63.885-63.887-63.885m-229.226.208c-35.169 0-63.679 28.509-63.679 63.677s28.51 63.679 63.679 63.679 63.677-28.51 63.677-63.679-28.509-63.677-63.677-63.677m0-229.228c-35.169 0-63.679 28.51-63.679 63.679s28.51 63.677 63.679 63.677 63.677-28.509 63.677-63.677-28.509-63.679-63.677-63.679m229.226 0c-35.168 0-63.677 28.51-63.677 63.679s28.509 63.677 63.677 63.677 63.679-28.509 63.679-63.677-28.51-63.679-63.679-63.679"/></svg>