<?xml version="1.0" standalone="no"?>
<!DOCTYPE svg PUBLIC "-//W3C//DTD SVG 20010904//EN"
 "http://www.w3.org/TR/2001/REC-SVG-20010904/DTD/svg10.dtd">
<svg version="1.0" xmlns="http://www.w3.org/2000/svg"
 width="151.000000pt" height="142.000000pt" viewBox="0 0 151.000000 142.000000"
 preserveAspectRatio="xMidYMid meet">

<g transform="translate(0.000000,142.000000) scale(0.100000,-0.100000)"
fill="#000000" stroke="none">
<path d="M790 1276 c-6 -6 -10 -83 -10 -173 0 -158 1 -164 21 -172 26 -9 106
8 138 29 l23 16 -26 52 c-31 61 -48 137 -47 207 l1 50 -45 0 c-25 0 -50 -4
-55 -9z"/>
<path d="M924 1266 c-12 -37 8 -169 33 -223 14 -29 29 -53 33 -53 4 0 32 26
62 58 50 55 109 156 123 212 l6 25 -126 0 c-114 0 -126 -2 -131 -19z"/>
<path d="M130 1191 l0 -89 31 -7 c35 -8 152 -54 159 -64 3 -3 38 -37 78 -76
l72 -69 30 29 29 28 -62 66 c-68 73 -119 164 -127 226 l-5 40 -102 3 -103 3 0
-90z"/>
<path d="M366 1243 c14 -83 136 -263 178 -263 14 0 59 92 76 155 7 22 10 63 8
90 l-3 50 -133 3 -133 3 7 -38z"/>
<path d="M660 1213 c0 -68 -15 -120 -59 -208 l-19 -40 21 -11 c12 -7 46 -20
75 -29 81 -27 81 -25 80 181 l-2 174 -48 0 -48 0 0 -67z"/>
<path d="M1247 1271 c-37 -6 -40 -10 -67 -73 -35 -82 -62 -123 -127 -191 l-50
-52 33 -33 32 -33 26 28 c14 15 26 30 26 34 0 22 195 131 250 139 l35 5 3 93
3 92 -63 -1 c-35 -1 -80 -5 -101 -8z"/>
<path d="M132 943 l3 -128 65 -3 c65 -3 178 24 217 53 17 13 17 15 -3 42 -38
50 -120 110 -190 137 -38 14 -75 26 -82 26 -10 0 -12 -30 -10 -127z"/>
<path d="M1360 1053 c-8 -2 -52 -23 -98 -45 -81 -40 -168 -116 -160 -140 8
-23 161 -70 233 -71 l70 -2 3 133 c3 141 2 142 -48 125z"/>
<path d="M950 936 c-14 -8 -50 -19 -80 -27 -85 -20 -90 -28 -90 -129 0 -53 5
-91 12 -98 8 -8 46 -12 105 -12 78 0 94 3 102 18 5 9 9 19 8 22 -3 13 28 107
41 128 15 22 13 26 -29 67 -41 41 -46 43 -69 31z"/>
<path d="M525 905 l-39 -33 25 -99 25 -98 98 -3 c64 -2 103 1 112 9 19 15 20
182 2 196 -7 6 -31 15 -53 21 -22 6 -60 17 -85 25 l-45 15 -40 -33z"/>
<path d="M395 826 c-82 -37 -118 -46 -193 -46 l-72 0 0 -55 0 -55 183 2 182 3
-2 53 c-2 49 -27 123 -42 121 -3 0 -28 -11 -56 -23z"/>
<path d="M1072 827 c-19 -25 -50 -134 -41 -149 7 -12 40 -15 194 -17 l185 -1
0 49 0 48 -87 7 c-49 4 -104 14 -123 23 -19 8 -54 23 -77 33 -32 15 -44 16
-51 7z"/>
<path d="M130 599 l0 -59 68 0 c82 -1 170 -21 217 -50 l35 -22 19 46 c24 55
34 107 24 122 -5 7 -72 13 -185 16 l-178 6 0 -59z"/>
<path d="M532 633 c-5 -10 -12 -38 -16 -61 -4 -24 -16 -61 -27 -83 l-20 -39
38 -40 38 -40 53 20 c29 11 70 23 90 26 58 9 62 17 62 115 0 115 -4 119 -120
119 -75 0 -91 -3 -98 -17z"/>
<path d="M798 639 c-15 -8 -18 -25 -18 -104 0 -64 4 -96 13 -102 6 -4 48 -20
92 -34 l80 -27 48 35 c26 19 47 37 47 39 0 3 -6 17 -14 32 -7 15 -19 53 -27
85 -8 37 -20 64 -33 73 -24 17 -161 19 -188 3z"/>
<path d="M1092 641 c-45 -8 -65 -25 -57 -51 2 -8 8 -33 14 -55 6 -22 17 -49
25 -60 13 -18 15 -19 33 -3 32 28 116 50 208 54 l90 4 3 55 3 55 -103 0 c-57
0 -119 2 -138 4 -19 3 -55 1 -78 -3z"/>
<path d="M153 513 c-22 -4 -23 -8 -23 -128 0 -68 4 -126 9 -129 11 -7 104 25
156 54 47 26 135 109 135 127 0 20 -75 53 -157 69 -76 14 -81 15 -120 7z"/>
<path d="M1175 477 c-33 -12 -61 -29 -63 -37 -1 -8 21 -41 51 -72 53 -58 144
-110 215 -124 l33 -7 -3 129 -3 129 -85 2 c-65 1 -99 -4 -145 -20z"/>
<path d="M395 357 c-62 -62 -154 -114 -225 -126 l-35 -6 -3 -83 -3 -82 100 0
101 0 6 28 c16 64 72 159 126 213 l56 57 -31 30 -32 30 -60 -61z"/>
<path d="M1048 397 c-35 -29 -35 -37 3 -73 45 -43 95 -123 122 -195 l24 -64
106 -3 107 -3 0 70 0 69 -47 18 c-85 30 -187 84 -198 103 -10 18 -82 101 -87
101 -2 -1 -15 -11 -30 -23z"/>
<path d="M650 384 c-80 -26 -83 -31 -49 -100 22 -44 31 -79 36 -141 l6 -83 48
0 49 0 0 114 c0 66 4 117 10 121 16 10 12 72 -6 89 -18 19 -34 19 -94 0z"/>
<path d="M776 374 c-4 -10 -4 -84 0 -166 l7 -148 38 0 c22 0 42 -1 47 -2 4 -2
10 26 13 62 3 36 18 94 33 130 15 36 30 72 32 80 7 20 -53 49 -116 57 -39 5
-48 2 -54 -13z"/>
<path d="M970 302 c-7 -20 -19 -41 -26 -47 -17 -13 -45 -152 -35 -177 6 -18
17 -19 130 -19 68 0 125 1 127 4 5 5 -13 62 -34 107 -27 56 -93 140 -122 155
-26 13 -27 13 -40 -23z"/>
<path d="M486 294 c-59 -57 -126 -172 -126 -215 0 -18 9 -19 125 -19 l125 0 0
75 c0 98 -37 195 -75 195 -7 0 -29 -16 -49 -36z"/>
</g>
</svg>
