<?xml version="1.0" standalone="no"?>
<!DOCTYPE svg PUBLIC "-//W3C//DTD SVG 20010904//EN"
 "http://www.w3.org/TR/2001/REC-SVG-20010904/DTD/svg10.dtd">
<svg version="1.0" xmlns="http://www.w3.org/2000/svg"
 width="779.000000pt" height="779.000000pt" viewBox="0 0 779.000000 779.000000"
 preserveAspectRatio="xMidYMid meet">

<g transform="translate(0.000000,779.000000) scale(0.100000,-0.100000)"
fill="#000000" stroke="none">
<path d="M255 7535 l-25 -24 0 -391 0 -391 23 -23 c14 -14 78 -41 168 -71 632
-210 1183 -587 1578 -1078 102 -128 134 -153 177 -143 29 8 192 170 199 199
11 43 -14 75 -137 173 -265 211 -552 534 -730 824 -149 241 -285 536 -369 800
-19 60 -42 114 -56 127 l-22 23 -391 0 -391 0 -24 -25z"/>
<path d="M1416 7529 c-14 -17 -26 -37 -26 -45 0 -28 100 -284 163 -415 107
-225 255 -463 395 -634 132 -161 386 -406 521 -503 55 -40 107 -43 138 -9 49
53 156 271 220 447 97 266 143 521 159 876 8 187 1 258 -31 290 l-24 24 -745
0 -744 0 -26 -31z"/>
<path d="M3276 7539 l-26 -20 0 -152 c-1 -555 -125 -1072 -357 -1488 -29 -53
-53 -108 -53 -122 0 -59 97 -115 335 -196 195 -67 502 -124 544 -101 54 28 52
-24 49 1053 l-3 995 -24 26 -24 26 -207 0 c-195 0 -209 -1 -234 -21z"/>
<path d="M4055 7535 l-25 -24 0 -1000 c0 -550 3 -1007 6 -1016 4 -8 20 -23 36
-31 72 -37 470 55 738 171 110 47 125 58 139 95 10 29 5 41 -54 155 -157 301
-243 552 -300 875 -32 180 -45 337 -45 557 0 181 0 182 -26 212 l-26 31 -209
0 c-210 0 -210 0 -234 -25z"/>
<path d="M4836 7534 c-29 -29 -29 -35 -26 -289 4 -402 98 -793 273 -1144 88
-178 106 -201 156 -201 44 0 76 21 236 155 303 255 585 628 769 1018 68 146
156 377 156 412 0 14 -11 37 -25 50 l-24 25 -744 0 -744 0 -27 -26z"/>
<path d="M6717 7548 c-20 -16 -43 -70 -91 -218 -75 -228 -218 -526 -357 -746
-62 -98 -132 -194 -238 -329 -82 -104 -351 -370 -471 -465 -130 -102 -140
-114 -140 -157 0 -31 11 -47 87 -125 48 -49 98 -91 112 -95 40 -10 81 22 161
125 393 504 961 893 1620 1107 69 22 125 47 140 61 l25 24 0 391 0 391 -28 24
-28 24 -388 0 c-294 0 -391 -3 -404 -12z"/>
<path d="M284 6390 c-56 -22 -54 9 -54 -795 l0 -742 24 -22 c21 -20 38 -24
123 -28 222 -12 593 29 828 92 190 50 395 132 557 222 116 64 128 75 128 119
0 43 -31 90 -150 228 -343 397 -779 697 -1285 886 -146 54 -140 53 -171 40z"/>
<path d="M7305 6336 c-199 -78 -306 -129 -460 -219 -322 -186 -588 -409 -821
-687 -126 -150 -143 -188 -109 -237 30 -43 293 -174 478 -238 298 -104 558
-146 910 -149 l209 -1 29 33 29 32 0 726 c0 787 1 766 -55 792 -14 7 -31 12
-38 12 -7 -1 -84 -29 -172 -64z"/>
<path d="M2637 5479 c-37 -21 -327 -322 -333 -345 -4 -16 12 -61 51 -146 116
-250 190 -500 226 -761 20 -143 23 -154 50 -180 l30 -28 502 3 502 3 33 23
c18 13 41 41 52 62 19 37 20 61 20 527 0 425 -2 491 -16 511 -23 33 -47 42
-142 53 -264 29 -587 124 -841 248 -90 43 -105 47 -134 30z"/>
<path d="M5015 5444 c-298 -136 -590 -219 -879 -250 -43 -4 -65 -12 -82 -29
l-24 -24 0 -506 0 -505 24 -39 c45 -71 44 -71 587 -71 531 0 528 0 548 62 5
18 15 76 21 128 29 246 105 508 226 773 30 65 54 129 54 143 0 19 -40 65 -163
189 -90 90 -174 166 -188 169 -16 4 -56 -8 -124 -40z"/>
<path d="M1905 4894 c-359 -198 -765 -313 -1220 -345 -93 -6 -212 -9 -262 -6
-51 3 -109 1 -128 -4 -62 -17 -65 -30 -65 -259 1 -215 3 -225 47 -248 16 -9
278 -12 1011 -12 976 0 990 0 1015 20 37 30 40 63 17 201 -35 208 -84 374
-162 559 -45 105 -83 150 -126 149 -15 0 -72 -25 -127 -55z"/>
<path d="M5706 4928 c-39 -35 -144 -297 -191 -477 -34 -131 -64 -341 -53 -372
21 -62 -28 -59 1053 -59 657 0 993 3 1006 10 42 23 49 58 49 254 0 110 -4 195
-11 209 -20 45 -44 51 -181 49 -261 -5 -604 34 -843 97 -226 59 -410 130 -623
242 -73 38 -144 69 -157 69 -13 0 -35 -10 -49 -22z"/>
<path d="M255 3735 c-25 -24 -25 -25 -25 -233 0 -195 1 -210 20 -230 11 -12
31 -24 43 -26 12 -3 135 -7 272 -10 205 -4 278 -10 405 -31 355 -59 666 -163
940 -315 95 -53 139 -62 176 -36 21 15 90 166 138 304 56 157 124 488 111 539
-3 12 -15 32 -27 43 -22 20 -31 20 -1025 20 l-1004 0 -24 -25z"/>
<path d="M2625 3735 c-14 -13 -25 -30 -25 -37 -1 -36 -41 -284 -59 -364 -29
-134 -114 -379 -178 -518 -31 -66 -57 -135 -57 -153 0 -29 19 -52 166 -198
131 -130 172 -165 193 -165 14 0 74 22 133 50 150 69 305 125 457 165 139 36
345 75 402 75 46 0 88 23 102 57 8 21 11 162 9 519 l-3 490 -25 36 c-47 69
-34 68 -591 68 l-500 0 -24 -25z"/>
<path d="M4102 3740 c-18 -11 -41 -34 -52 -52 -19 -32 -20 -52 -20 -539 l0
-506 24 -22 c19 -18 46 -25 133 -37 289 -38 546 -112 819 -239 98 -46 127 -52
154 -35 8 5 86 80 173 167 124 124 157 163 157 184 0 15 -23 76 -51 135 -110
235 -192 510 -229 769 -14 97 -26 148 -38 165 l-19 25 -509 3 c-493 2 -510 1
-542 -18z"/>
<path d="M5486 3739 c-32 -25 -34 -62 -10 -207 38 -242 159 -597 226 -669 36
-38 70 -29 270 71 274 138 533 220 857 272 125 20 204 26 396 30 297 6 301 6
326 47 18 30 19 47 17 229 -3 192 -4 197 -27 222 l-24 26 -1002 0 c-999 0
-1002 0 -1029 -21z"/>
<path d="M256 2953 l-26 -26 2 -749 3 -750 24 -19 c13 -10 34 -19 46 -19 35 0
274 91 410 155 428 204 801 495 1082 845 84 104 93 119 93 157 0 54 -18 68
-205 161 -372 186 -754 272 -1206 272 l-196 0 -27 -27z"/>
<path d="M6985 2965 c-366 -46 -665 -139 -960 -299 -171 -92 -169 -115 25
-340 344 -398 764 -690 1267 -882 79 -30 154 -54 167 -54 14 0 38 11 53 24
l28 24 0 747 0 747 -28 24 c-28 24 -30 24 -240 23 -117 -1 -257 -7 -312 -14z"/>
<path d="M2102 2353 c-11 -10 -65 -74 -120 -143 -371 -466 -940 -853 -1552
-1057 -149 -50 -169 -59 -187 -82 -9 -12 -12 -115 -13 -403 l0 -387 24 -28 24
-28 391 0 391 0 24 25 c14 15 40 75 66 155 101 307 224 564 396 827 101 155
200 285 302 397 43 46 80 89 84 95 12 21 250 232 338 301 140 109 141 131 11
259 -77 75 -93 86 -124 86 -19 0 -44 -8 -55 -17z"/>
<path d="M5509 2281 c-82 -81 -89 -91 -89 -128 0 -44 14 -60 140 -158 410
-320 775 -811 989 -1333 26 -64 69 -181 95 -260 43 -127 52 -146 80 -163 29
-18 54 -19 399 -19 407 0 415 1 436 61 7 21 11 153 11 388 0 319 -2 360 -18
391 -16 34 -25 38 -207 101 -404 140 -709 304 -1030 553 -159 123 -398 360
-524 519 -51 64 -101 122 -111 127 -10 6 -33 10 -51 10 -27 0 -46 -14 -120
-89z"/>
<path d="M3575 2323 c-81 -11 -307 -67 -394 -97 -258 -90 -341 -136 -341 -190
0 -11 42 -106 94 -211 101 -204 155 -344 210 -553 67 -250 106 -559 106 -844
0 -80 3 -154 6 -163 15 -37 56 -45 237 -45 213 0 233 3 258 44 18 30 19 67 19
1014 0 1014 0 1009 -39 1039 -15 12 -92 15 -156 6z"/>
<path d="M4052 2307 l-22 -23 0 -1005 c0 -991 0 -1006 20 -1027 28 -30 61 -34
268 -30 l184 3 24 28 c23 27 24 32 24 210 0 100 5 236 11 302 34 403 155 810
340 1145 58 106 64 140 28 175 -69 68 -423 188 -679 231 -126 21 -172 19 -198
-9z"/>
<path d="M2484 1864 c-132 -90 -371 -316 -511 -484 -214 -257 -415 -606 -528
-915 -55 -149 -57 -156 -44 -188 24 -59 2 -57 788 -57 506 0 727 3 744 11 47
21 52 47 51 253 -4 451 -86 818 -266 1184 -44 89 -93 176 -108 192 -35 38 -74
39 -126 4z"/>
<path d="M5197 1876 c-24 -18 -106 -163 -156 -277 -159 -355 -230 -701 -232
-1127 0 -200 5 -223 58 -243 16 -6 299 -8 755 -7 l730 3 24 28 c13 15 24 38
24 50 0 35 -87 262 -157 407 -198 416 -449 745 -799 1048 -140 121 -203 151
-247 118z"/>
</g>
</svg>
