<svg xmlns="http://www.w3.org/2000/svg" width="500" height="500" viewBox="0 0 500 500"><path d="M140.26 344.169a126 126 0 0 1 15.57 15.57C124.721 386.334 105 425.864 105 470H30v-75c44.136 0 83.665-19.722 110.26-50.831m27.206 31.952C178.602 394.815 185 416.66 185 440c0 10.341-1.257 20.389-3.624 30H125c0-37.405 16.43-70.971 42.466-93.879M240 470h-38.11a145.6 145.6 0 0 0 3.11-30c0-27.829-7.842-53.825-21.434-75.903A124.25 124.25 0 0 1 240 345.396zm20-124.604a124.25 124.25 0 0 1 56.433 18.701C302.842 386.175 295 412.171 295 440c0 10.285 1.074 20.32 3.11 30H260zm72.533 30.725C358.569 399.029 375 432.595 375 470h-56.376A125.3 125.3 0 0 1 315 440c0-23.34 6.397-45.185 17.533-63.879m27.206-31.952C386.334 375.279 425.863 395 470 395v75h-75c0-44.137-19.721-83.666-50.831-110.261a126 126 0 0 1 15.57-15.57M60 315c23.34 0 45.184 6.398 63.878 17.533C100.97 358.569 67.405 375 30 375v-56.376A125.3 125.3 0 0 1 60 315m380 0c10.341 0 20.389 1.257 30 3.624V375c-37.405 0-70.971-16.431-93.879-42.467C394.815 321.397 416.66 315 440 315m-200 10.342a144.16 144.16 0 0 0-68.085 22.458 146 146 0 0 0-19.716-19.716A144.16 144.16 0 0 0 174.658 260H240zM325.342 260a144.16 144.16 0 0 0 22.458 68.084 146 146 0 0 0-19.716 19.716A144.16 144.16 0 0 0 260 325.342V260zm-170.738 0a124.24 124.24 0 0 1-18.702 56.433C113.824 302.842 87.828 295 60 295c-10.285 0-20.32 1.073-30 3.109V260zM470 298.109A145.6 145.6 0 0 0 440 295c-27.829 0-53.825 7.842-75.903 21.433A124.25 124.25 0 0 1 345.396 260H470zM135.902 183.566A124.24 124.24 0 0 1 154.604 240H30v-38.11A145.6 145.6 0 0 0 60 205c27.828 0 53.824-7.843 75.902-21.434m36.013-31.367A144.16 144.16 0 0 0 240 174.657V240h-65.342a144.16 144.16 0 0 0-22.459-68.085 146 146 0 0 0 19.716-19.716m156.169 0a146 146 0 0 0 19.716 19.716A144.16 144.16 0 0 0 325.342 240H260v-65.343a144.16 144.16 0 0 0 68.084-22.458m36.013 31.367C386.175 197.158 412.171 205 440 205c10.285 0 20.32-1.074 30-3.11V240H345.396a124.25 124.25 0 0 1 18.701-56.434M30 125c37.404 0 70.97 16.43 93.878 42.466C105.184 178.602 83.34 185 60 185c-10.342 0-20.39-1.258-30-3.625zm440 56.375A125.3 125.3 0 0 1 440 185c-23.34 0-45.185-6.398-63.879-17.534C399.029 141.43 432.595 125 470 125zM105 30c0 44.136 19.721 83.665 50.83 110.26a126 126 0 0 1-15.57 15.57C113.665 124.721 74.136 105 30 105V30zm365 75c-44.136 0-83.666 19.721-110.261 50.83a126 126 0 0 1-15.57-15.57C375.278 113.665 395 74.136 395 30h75zm-230 49.604a124.26 124.26 0 0 1-56.434-18.702C197.157 113.824 205 87.828 205 60c0-10.285-1.074-20.32-3.11-30H240zM298.11 30A145.6 145.6 0 0 0 295 60c0 27.828 7.842 53.824 21.433 75.902A124.25 124.25 0 0 1 260 154.604V30zM375 30c0 37.405-16.431 70.97-42.467 93.878C321.398 105.184 315 83.339 315 60c0-10.341 1.257-20.39 3.624-30zm-193.624 0A125.3 125.3 0 0 1 185 60c0 23.34-6.398 45.184-17.534 63.878C141.43 100.97 125 67.404 125 30z"/></svg>