<svg height="500" viewBox="0 0 500 500" width="500" xmlns="http://www.w3.org/2000/svg"><path d="M80.679 339.333c17.995 34.037 45.951 61.993 79.988 79.988V470H30V339.333zM307.333 470H192.667v-37.332c18.101 5.676 37.36 8.737 57.333 8.737s39.232-3.061 57.333-8.737zM470 470H339.333v-50.679c34.037-17.995 61.993-45.951 79.988-79.988H470zm-162.667-71.22c-17.792 6.861-37.123 10.625-57.333 10.625s-39.541-3.764-57.333-10.625v-59.447h114.666zm-146.666-16.741a160.3 160.3 0 0 1-42.706-42.706h42.706zm221.372-42.706a160.3 160.3 0 0 1-42.706 42.706v-42.706zM67.332 192.667c-5.676 18.101-8.737 37.36-8.737 57.333s3.061 39.232 8.737 57.333H30V192.667zm240.001 114.666H192.667V192.667h114.666zm91.447-114.666c6.861 17.792 10.625 37.123 10.625 57.333s-3.764 39.541-10.625 57.333h-59.447V192.667zM470 307.333h-37.332c5.676-18.101 8.737-37.36 8.737-57.333s-3.061-39.232-8.737-57.333H470zm-309.333 0h-59.448C94.359 289.541 90.595 270.21 90.595 250s3.763-39.541 10.624-57.333h59.448zm0-226.655c-34.037 17.995-61.993 45.952-79.988 79.989H30V30h130.667zM250 90.595c20.21 0 39.541 3.762 57.333 10.623v59.449H192.667v-59.449c17.792-6.86 37.123-10.623 57.333-10.623m89.333 27.365a160.3 160.3 0 0 1 42.706 42.707h-42.706zM470 160.667h-50.679c-17.995-34.037-45.951-61.994-79.988-79.99V30H470zm-309.333 0h-42.706a160.3 160.3 0 0 1 42.706-42.707zm146.666-93.335c-18.101-5.676-37.36-8.737-57.333-8.737s-39.232 3.06-57.333 8.736V30h114.666z"/></svg>