<?xml version="1.0" standalone="no"?>
<!DOCTYPE svg PUBLIC "-//W3C//DTD SVG 20010904//EN"
 "http://www.w3.org/TR/2001/REC-SVG-20010904/DTD/svg10.dtd">
<svg version="1.0" xmlns="http://www.w3.org/2000/svg"
 width="502.000000pt" height="469.000000pt" viewBox="0 0 502.000000 469.000000"
 preserveAspectRatio="xMidYMid meet">

<g transform="translate(0.000000,469.000000) scale(0.100000,-0.100000)"
fill="#000000" stroke="none">
<path d="M748 4173 c-9 -10 -13 -25 -10 -33 6 -18 1687 -1700 1699 -1700 4 0
395 387 868 860 816 816 858 860 840 874 -18 14 -227 15 -1701 16 -1589 0
-1682 -1 -1696 -17z"/>
<path d="M4242 3924 c-51 -53 -98 -106 -104 -119 -6 -13 -17 -25 -25 -27 -20
-4 -291 -277 -295 -296 -2 -9 -11 -18 -21 -20 -20 -4 -127 -111 -127 -128 0
-6 -9 -15 -21 -20 -11 -5 -247 -236 -525 -513 -386 -387 -504 -510 -504 -528
0 -19 197 -221 861 -885 837 -837 861 -860 880 -842 19 17 19 47 19 1729 0
1646 -1 1713 -18 1728 -10 10 -20 17 -23 17 -2 0 -46 -44 -97 -96z"/>
<path d="M557 3952 c-16 -17 -17 -149 -17 -1694 0 -1597 1 -1676 18 -1691 17
-15 44 10 465 431 246 246 447 452 447 457 0 6 175 186 390 400 214 214 390
397 390 406 0 38 -78 138 -117 150 -19 6 -123 109 -123 122 0 14 -152 167
-166 167 -16 1 -54 38 -54 52 0 15 -42 57 -76 76 -28 15 -364 354 -364 367 0
14 -80 90 -102 98 -10 4 -18 12 -18 19 0 13 -639 658 -651 658 -3 0 -13 -8
-22 -18z"/>
<path d="M2409 2074 c-32 -17 -329 -314 -329 -329 0 -5 -297 -307 -660 -670
-363 -363 -660 -666 -660 -674 0 -41 -44 -40 1691 -41 1592 0 1657 1 1672 18
10 10 17 23 17 27 0 14 -462 475 -492 491 -16 8 -28 20 -28 27 0 15 -491 507
-506 507 -13 0 -54 43 -54 56 0 14 -133 144 -148 144 -7 0 -15 8 -19 18 -10
28 -86 102 -105 102 -11 0 -18 7 -18 18 0 19 -78 102 -96 102 -12 0 -104 92
-104 105 0 17 -84 95 -102 95 -10 0 -18 5 -18 10 0 13 -8 11 -41 -6z"/>
</g>
</svg>
