<svg height="500" viewBox="0 0 500 500" width="500" xmlns="http://www.w3.org/2000/svg"><path d="M102.5 261c0-5 1-2 1-11s-1-6-1-11c0-6.767 8.263-12.364 15-13 26.5-2.5 39.5-21.5 36.5-30s-29-8-39-3.5c-12.5 5.625-11 13.02-28.5 10.5-11.535-1.661-20-10.5-29.5-15-7.8-3.695-11.478-4-15.5-14.5-2.873-7.5 4.042-14 5-25.5 1-12-5-27-11.5-25.5-3.635.839-5 5.5-5 5.5v244s1.365 4.661 5 5.5C41.5 379 47.5 364 46.5 352c-.958-11.5-7.873-18-5-25.5C45.522 316 49.2 315.695 57 312c9.5-4.5 17.965-13.339 29.5-15 17.5-2.52 16 4.875 28.5 10.5 10 4.5 36 5 39-3.5s-10-27.5-36.5-30c-6.737-.636-15-6.233-15-13"/><path d="M30 93V30h63c5 0 6.822 7.943 7.5 15.5C101.643 58.239 108 60.236 120 64c32.518 10.2 47.5 14.4 44.5 33-2.5 15.5-21 11.5-32.5 12-6.246.272-7 4-13 10s-9.728 6.754-10 13c-.5 11.5 3.5 30-12 32.5-18.6 3-22.8-11.982-33-44.5-3.764-12-5.761-18.357-18.5-19.5C37.943 99.822 30 98 30 93M397.5 239c0 5-1 2-1 11s1 6 1 11c0 6.767-8.263 12.364-15 13-26.5 2.5-39.5 21.5-36.5 30s29 8 39 3.5c12.5-5.625 11-13.02 28.5-10.5 11.535 1.661 20 10.5 29.5 15 7.801 3.695 11.478 4 15.5 14.5 2.873 7.5-4.042 14-5 25.5-1 12 5 27 11.5 25.5 3.635-.839 5-5.5 5-5.5V128s-1.365-4.661-5-5.5c-6.5-1.5-12.5 13.5-11.5 25.5.958 11.5 7.873 18 5 25.5-4.022 10.5-7.699 10.805-15.5 14.5-9.5 4.5-17.965 13.339-29.5 15-17.5 2.52-16-4.875-28.5-10.5-10-4.5-36-5-39 3.5s10 27.5 36.5 30c6.737.636 15 6.233 15 13"/><path d="M470 407v63h-63c-5 0-6.822-7.943-7.5-15.5-1.143-12.739-7.5-14.736-19.5-18.5-32.518-10.199-47.5-14.4-44.5-33 2.5-15.5 21-11.5 32.5-12 6.246-.272 7-4 13-10s9.728-6.754 10-13c.5-11.5-3.5-30 12-32.5 18.6-3 22.801 11.982 33 44.5 3.764 12 5.761 18.357 18.5 19.5 7.557.678 15.5 2.5 15.5 7.5M239 102.5c5 0 2 1 11 1s6-1 11-1c6.767 0 12.364 8.263 13 15 2.5 26.5 21.5 39.5 30 36.5s8-29 3.5-39c-5.625-12.5-13.02-11-10.5-28.5 1.661-11.535 10.5-20 15-29.5 3.695-7.8 4-11.478 14.5-15.5 7.5-2.873 14 4.042 25.5 5 12 1 27-5 25.5-11.5-.839-3.635-5.5-5-5.5-5H128s-4.661 1.365-5.5 5C121 41.5 136 47.5 148 46.5c11.5-.958 18-7.873 25.5-5C184 45.522 184.305 49.2 188 57c4.5 9.5 13.339 17.965 15 29.5 2.52 17.5-4.875 16-10.5 28.5-4.5 10-5 36 3.5 39s27.5-10 30-36.5c.636-6.737 6.233-15 13-15"/><path d="M407 30h63v63c0 5-7.943 6.822-15.5 7.5-12.739 1.143-14.736 7.5-18.5 19.5-10.199 32.518-14.4 47.5-33 44.5-15.5-2.5-11.5-21-12-32.5-.272-6.246-4-7-10-13s-6.754-9.728-13-10c-11.5-.5-30 3.5-32.5-12-3-18.6 11.982-22.8 44.5-33 12-3.764 18.357-5.761 19.5-18.5.678-7.557 2.5-15.5 7.5-15.5M232 250c-2.616-6.667-4.844-9.752-11.5-11-32-6-29.5-40-25.5-44s38-6.5 44 25.5c1.248 6.656 4.333 8.884 11 11.5 6.667-2.616 9.752-4.844 11-11.5 6-32 40-29.5 44-25.5s6.5 38-25.5 44c-6.656 1.248-8.884 4.333-11.5 11 2.616 6.667 4.844 9.752 11.5 11 32 6 29.5 40 25.5 44s-38 6.5-44-25.5c-1.248-6.656-4.333-8.884-11-11.5-6.667 2.616-9.752 4.844-11 11.5-6 32-40 29.5-44 25.5s-6.5-38 25.5-44c6.656-1.248 8.884-4.333 11.5-11M261 397.5c-5 0-2-1-11-1s-6 1-11 1c-6.767 0-12.364-8.263-13-15-2.5-26.5-21.5-39.5-30-36.5s-8 29-3.5 39c5.625 12.5 13.02 11 10.5 28.5-1.661 11.535-10.5 20-15 29.5-3.695 7.801-4 11.478-14.5 15.5-7.5 2.873-14-4.042-25.5-5-12-1-27 5-25.5 11.5.839 3.635 5.5 5 5.5 5h244s4.661-1.365 5.5-5c1.5-6.5-13.5-12.5-25.5-11.5-11.5.958-18 7.873-25.5 5-10.5-4.022-10.805-7.699-14.5-15.5-4.5-9.5-13.339-17.965-15-29.5-2.52-17.5 4.875-16 10.5-28.5 4.5-10 5-36-3.5-39s-27.5 10-30 36.5c-.636 6.737-6.233 15-13 15"/><path d="M93 470H30v-63c0-5 7.943-6.822 15.5-7.5C58.239 398.357 60.236 392 64 380c10.2-32.518 14.4-47.5 33-44.5 15.5 2.5 11.5 21 12 32.5.272 6.246 4 7 10 13s6.754 9.728 13 10c11.5.5 30-3.5 32.5 12 3 18.6-11.982 22.801-44.5 33-12 3.764-18.357 5.761-19.5 18.5-.678 7.557-2.5 15.5-7.5 15.5"/></svg>