<?xml version="1.0" standalone="no"?>
<!DOCTYPE svg PUBLIC "-//W3C//DTD SVG 20010904//EN"
 "http://www.w3.org/TR/2001/REC-SVG-20010904/DTD/svg10.dtd">
<svg version="1.0" xmlns="http://www.w3.org/2000/svg"
 width="1024.000000pt" height="1024.000000pt" viewBox="0 0 1024.000000 1024.000000"
 preserveAspectRatio="xMidYMid meet">

<g transform="translate(0.000000,1024.000000) scale(0.100000,-0.100000)"
fill="#000000" stroke="none">
<path d="M643 9900 c-51 -12 -96 -43 -128 -89 l-30 -43 -3 -1191 -2 -1190 22
-24 c27 -28 78 -31 102 -5 10 12 41 129 81 306 68 301 77 325 138 361 56 33
112 25 357 -54 745 -240 939 -306 978 -328 83 -47 89 -66 137 -403 44 -318 50
-339 106 -367 38 -20 103 -16 133 8 35 27 52 63 59 124 26 223 59 466 67 497
20 72 37 77 365 113 161 18 302 38 313 44 86 46 80 188 -11 225 -17 8 -156 39
-307 70 -301 63 -341 78 -386 145 -14 22 -41 94 -60 162 -152 541 -290 1035
-302 1087 -18 71 -8 131 29 184 35 48 86 65 340 113 286 54 302 58 329 92 24
31 26 90 4 122 -37 53 3 51 -1191 50 -609 -1 -1122 -4 -1140 -9z"/>
<path d="M3755 9892 c-65 -22 -95 -65 -95 -135 0 -39 12 -77 56 -175 52 -116
55 -128 45 -161 -17 -59 -57 -87 -252 -175 -101 -46 -218 -99 -260 -118 -157
-73 -158 -110 -5 -385 59 -106 119 -201 133 -213 47 -36 96 -45 147 -26 37 14
75 52 236 232 106 118 200 219 210 224 25 13 86 13 113 -1 12 -7 60 -48 107
-93 193 -186 399 -306 622 -365 91 -23 114 -34 129 -62 8 -15 9 -122 4 -373
-6 -342 -6 -352 14 -383 11 -18 35 -40 52 -49 39 -20 193 -29 247 -14 41 11
85 51 100 90 6 16 6 155 0 368 -11 390 -12 382 64 403 204 54 363 125 498 220
41 29 120 96 175 150 55 53 110 101 122 108 28 14 75 14 108 -1 14 -6 111
-107 215 -224 227 -253 255 -271 356 -225 46 21 58 39 192 287 69 127 82 159
82 197 0 77 -21 93 -320 230 -352 163 -352 162 -255 380 30 68 55 138 55 156
0 63 -48 122 -115 140 -28 8 -444 11 -1385 11 -1241 -1 -1349 -2 -1395 -18z"/>
<path d="M7386 9900 c-41 -13 -65 -38 -72 -77 -8 -44 12 -90 47 -109 16 -8
144 -37 286 -65 300 -59 327 -70 367 -151 14 -28 26 -62 26 -75 0 -22 -117
-461 -275 -1028 -37 -132 -77 -258 -89 -280 -43 -79 -80 -94 -401 -160 -279
-57 -291 -60 -327 -93 -62 -56 -61 -132 3 -186 32 -27 25 -26 371 -65 256 -29
282 -36 312 -84 9 -13 28 -133 50 -304 25 -202 40 -289 52 -308 50 -76 172
-72 219 7 11 19 29 110 50 261 58 400 58 400 132 449 32 20 1079 373 1211 408
72 19 157 -16 195 -79 9 -15 44 -151 77 -301 33 -150 65 -281 71 -291 21 -41
103 -36 119 7 6 16 10 462 10 1178 0 1286 4 1219 -68 1289 -72 70 -12 67
-1236 66 -606 0 -1114 -5 -1130 -9z"/>
<path d="M4083 7520 c-66 -40 -66 -45 -48 -383 25 -447 11 -427 303 -427 214
0 232 4 268 64 17 27 19 55 22 216 1 102 5 195 7 207 9 40 44 43 537 43 l469
0 24 -25 c25 -24 25 -25 25 -226 l0 -201 39 -39 39 -39 202 0 202 0 38 38 c45
45 42 25 69 406 23 313 22 320 -42 364 -45 30 -73 28 -184 -13 -281 -106 -699
-160 -1055 -137 -286 19 -535 65 -732 136 -113 41 -139 44 -183 16z"/>
<path d="M1260 7133 c-43 -16 -81 -76 -201 -315 -84 -167 -137 -263 -153 -273
-48 -32 -85 -29 -190 14 -122 50 -166 53 -207 12 l-29 -29 0 -1282 c0 -955 3
-1287 12 -1303 32 -60 90 -62 230 -6 92 36 107 40 138 30 20 -6 46 -21 58 -34
12 -13 78 -133 146 -268 135 -265 158 -296 234 -306 52 -7 75 5 262 136 171
119 208 154 221 210 15 69 -8 109 -125 210 -335 293 -358 319 -337 383 6 18
41 67 77 108 128 147 232 321 292 490 17 47 33 92 37 101 14 36 47 39 448 39
437 0 437 0 485 70 19 29 22 46 22 134 0 82 -4 107 -20 133 -42 69 -30 67
-486 73 -381 5 -413 6 -432 23 -11 10 -32 55 -47 100 -54 165 -175 366 -311
518 -66 74 -79 106 -63 163 8 29 47 68 223 221 220 191 241 215 241 285 0 65
-34 99 -231 238 -176 125 -189 132 -233 131 -25 0 -53 -3 -61 -6z"/>
<path d="M8910 7119 c-76 -47 -327 -229 -354 -258 -42 -43 -48 -121 -14 -171
13 -19 113 -114 222 -210 114 -100 205 -189 214 -206 25 -54 10 -93 -74 -191
-135 -157 -233 -322 -296 -496 -48 -136 -15 -127 -481 -127 -369 0 -390 -1
-427 -20 -55 -28 -73 -67 -78 -172 -5 -108 16 -162 77 -196 38 -22 46 -22 434
-22 465 0 429 9 472 -123 56 -169 165 -350 307 -511 123 -140 117 -155 -156
-389 -113 -98 -213 -191 -221 -207 -21 -41 -19 -106 5 -144 20 -34 339 -268
397 -292 45 -19 77 -17 122 6 45 22 57 43 210 345 56 110 113 210 126 222 46
41 83 39 191 -7 55 -23 113 -43 130 -43 39 -1 82 26 95 59 6 16 8 500 7 1306
l-3 1280 -28 24 c-40 34 -92 31 -188 -10 -99 -43 -128 -50 -165 -36 -45 17
-73 49 -105 120 -17 36 -75 152 -131 257 -79 152 -107 197 -133 213 -43 27
-110 26 -155 -1z"/>
<path d="M7039 6355 c-405 -32 -389 -18 -389 -320 0 -297 -2 -295 314 -295
193 0 207 -1 226 -20 19 -19 20 -33 20 -465 0 -432 -1 -446 -20 -465 -19 -19
-33 -20 -226 -20 -230 0 -258 -6 -294 -65 -18 -30 -20 -49 -20 -241 0 -187 2
-212 19 -240 28 -46 71 -61 201 -69 63 -3 210 -13 327 -21 199 -14 215 -14
249 2 45 21 74 67 74 116 0 20 -13 72 -29 115 -96 261 -144 558 -143 893 0
316 38 559 128 826 24 73 44 148 44 168 0 80 -55 127 -147 125 -26 -1 -177
-12 -334 -24z"/>
<path d="M2836 6351 c-68 -45 -70 -86 -12 -257 48 -140 85 -293 113 -474 14
-91 18 -173 18 -390 -1 -240 -4 -292 -24 -409 -26 -154 -75 -340 -120 -456
-40 -103 -40 -144 -1 -188 52 -60 51 -59 421 -34 367 25 370 26 410 90 18 30
19 47 17 239 -3 191 -5 209 -24 235 -42 57 -68 63 -295 63 -161 0 -209 3 -225
14 -18 14 -19 31 -19 471 0 440 1 457 19 471 16 11 64 14 225 14 227 0 253 6
295 63 20 27 21 42 21 232 0 299 17 285 -390 314 -363 26 -392 26 -429 2z"/>
<path d="M4430 6134 c-45 -20 -96 -69 -123 -119 -22 -40 -22 -44 -25 -729 -2
-469 1 -706 8 -742 14 -67 56 -125 117 -161 l48 -28 700 0 700 0 47 28 c26 15
59 43 74 62 54 71 54 72 54 805 0 756 1 746 -68 822 -74 82 -30 78 -807 77
-594 0 -695 -2 -725 -15z"/>
<path d="M4140 3797 c-54 -19 -77 -63 -84 -160 -4 -45 -13 -172 -21 -282 -8
-110 -15 -226 -15 -257 0 -54 2 -58 42 -92 55 -47 77 -46 240 8 152 51 329 87
538 112 113 13 197 15 380 11 321 -8 536 -41 791 -123 154 -50 180 -52 227
-24 63 39 64 50 38 406 -26 343 -26 340 -90 388 -25 19 -41 21 -214 21 -166 0
-191 -2 -218 -19 -63 -38 -68 -59 -74 -291 l-5 -209 -25 -13 c-19 -10 -136
-13 -493 -13 -467 0 -498 2 -519 34 -4 6 -8 96 -8 200 0 168 -2 194 -20 231
-35 72 -59 80 -260 82 -119 2 -186 -1 -210 -10z"/>
<path d="M2393 3640 c-17 -10 -37 -29 -43 -40 -6 -12 -31 -153 -56 -313 -24
-161 -49 -304 -55 -319 -6 -15 -30 -45 -54 -67 -36 -33 -65 -46 -216 -94 -96
-30 -367 -117 -604 -192 -471 -150 -479 -151 -554 -102 -51 34 -65 67 -105
258 -67 319 -86 388 -109 404 -31 22 -65 18 -92 -10 l-25 -24 0 -1181 c0
-1045 2 -1185 16 -1218 19 -47 58 -88 106 -113 36 -18 75 -19 1183 -19 l1147
0 29 29 c23 23 29 38 29 71 0 53 -14 79 -53 95 -18 7 -149 36 -292 65 -284 56
-313 67 -356 137 -38 62 -32 114 53 413 42 146 113 396 158 555 124 441 117
422 157 466 20 22 48 46 62 54 14 7 152 39 306 70 154 31 292 63 306 71 90 46
93 169 6 216 -12 6 -154 26 -315 44 -303 34 -328 40 -353 86 -9 18 -40 229
-74 508 -10 83 -23 117 -56 145 -38 31 -100 34 -146 5z"/>
<path d="M7800 3653 c-23 -9 -61 -46 -70 -69 -9 -23 -28 -154 -60 -413 -22
-173 -34 -210 -79 -232 -14 -7 -158 -27 -319 -44 -327 -36 -335 -38 -361 -112
-13 -35 -13 -46 0 -78 23 -62 49 -74 275 -121 396 -84 388 -81 436 -124 25
-21 52 -56 61 -77 9 -21 93 -313 187 -650 177 -635 179 -644 147 -708 -15 -31
-59 -75 -92 -92 -16 -9 -146 -40 -288 -69 -142 -29 -269 -60 -283 -69 -52 -34
-59 -111 -15 -156 l30 -29 1154 2 1153 3 42 27 c22 15 54 49 69 75 l28 48 3
1176 c1 764 -1 1186 -8 1203 -19 52 -94 60 -124 13 -8 -12 -40 -141 -72 -287
-38 -178 -64 -279 -80 -307 -26 -46 -89 -83 -140 -83 -17 0 -120 29 -230 64
-109 35 -309 98 -444 141 -491 153 -575 183 -612 219 -19 19 -40 47 -46 62 -6
16 -30 159 -52 317 -22 158 -46 299 -52 313 -22 48 -102 77 -158 57z"/>
<path d="M5020 2871 c-19 -10 -44 -30 -55 -45 -19 -27 -20 -38 -16 -386 l3
-359 -24 -24 c-16 -16 -53 -31 -113 -46 -233 -58 -429 -171 -630 -362 -49 -47
-104 -90 -121 -96 -48 -17 -99 6 -153 69 -25 29 -73 82 -106 118 -34 36 -99
107 -145 159 -88 97 -124 121 -185 121 -77 0 -107 -29 -202 -200 -127 -227
-146 -268 -140 -318 6 -58 34 -85 126 -123 205 -85 439 -193 460 -212 33 -31
53 -83 46 -119 -4 -16 -29 -78 -56 -136 -36 -78 -49 -119 -49 -153 0 -56 29
-104 80 -130 33 -18 91 -19 1416 -19 l1381 0 34 23 c45 30 79 83 79 123 0 19
-24 88 -55 158 -84 190 -77 221 70 291 99 47 204 94 369 165 112 49 136 75
136 150 0 39 -16 74 -106 240 -59 107 -114 203 -123 214 -39 46 -130 59 -189
28 -18 -10 -70 -61 -115 -113 -260 -303 -317 -354 -381 -342 -17 4 -65 40
-124 96 -208 195 -411 312 -642 367 -63 16 -95 29 -112 47 -26 28 -26 25 -19
473 5 293 2 307 -72 341 -59 26 -218 27 -267 0z"/>
</g>
</svg>
