<svg height="500" viewBox="0 0 500 500" width="500" xmlns="http://www.w3.org/2000/svg"><path d="M171.336 457.949h-57.994L95.42 402.792l59.025-1.417zm57.765 0h-43.154l-16.928-56.701h43.153zm26.806 0H243.71l-16.928-56.701h46.054zm57.764 0h-43.153l16.928-56.701H330.6zm90.526-55.157-17.921 55.157h-57.995l16.891-56.574zm-254.135-15.316-59.157 1.421-13.335-41.041 59.158-1.421zm271.985-39.62-13.335 41.041-59.157-1.421 13.335-41.041zm-214.055 39.392H164.71l-13.376-41.165 44.052-1.058zm69.024 0h-54.413l-12.644-42.35h79.7zm71.268-41.165-13.375 41.165h-43.283l12.605-42.223zM132.212 332.54l-59.156 1.42-3.77-11.599 48.694-33.621zm298.119-10.179-3.769 11.599-59.157-1.42 14.232-43.8zm-239.328 8.765-44.184 1.062-16.814-51.75 36.369-25.111zm178.61-50.688-16.814 51.75-44.185-1.062 24.63-75.799zm-48.352-33.535-27.292 83.995H205.65l-27.293-83.996 71.452-51.913zm126.92 20.521-13.335 41.041-48.695-33.621 13.335-41.041zm-334.715 7.42-48.694 33.62-13.336-41.04 48.695-33.621zm48.285-33.338-36.262 25.036-13.375-41.163 35.017-25.442zm225.752-16.128-13.374 41.164-36.262-25.036 14.62-41.569zm-291.995-5.395L46.92 253.529 29 198.372l46.918-34.089zm375.11-21.611-17.923 55.157-48.586-33.546 19.589-55.7zm-232.524-12.175-64.479 46.846-14.664-41.694 44.022-31.982zm102.573 5.152-14.664 41.694-64.479-46.847 35.122-26.829zm-198.383-5.195-34.912 25.365-19.634-55.824 34.912-25.365zm269.594-30.459-19.633 55.824-34.911-25.364 19.633-55.824zm-46.732-33.952-19.632 55.824-37.258-27.069 47.024-35.923zm-173.785 28.754-37.257 27.069-19.634-55.823 9.866-7.169zm93.464.282-35.016 26.749-35.016-26.749 35.016-25.441zm58.635-44.793-47.024 35.924-34.912-25.366 47.025-35.922zm-105.367 10.558-34.911 25.365-47.025-35.923 34.911-25.364zm58.635-44.511-46.919 35.842-46.919-35.842 46.919-34.088z"/></svg>