<?xml version="1.0" standalone="no"?>
<!DOCTYPE svg PUBLIC "-//W3C//DTD SVG 20010904//EN"
 "http://www.w3.org/TR/2001/REC-SVG-20010904/DTD/svg10.dtd">
<svg version="1.0" xmlns="http://www.w3.org/2000/svg"
 width="332.000000pt" height="357.000000pt" viewBox="0 0 332.000000 357.000000"
 preserveAspectRatio="xMidYMid meet">

<g transform="translate(0.000000,357.000000) scale(0.100000,-0.100000)"
fill="#000000" stroke="none">
<path d="M257 3433 c-4 -3 -7 -181 -7 -395 0 -324 2 -392 14 -404 12 -12 83
-14 429 -14 l415 0 6 283 c3 155 9 332 12 393 6 109 6 112 -17 128 -21 14 -71
16 -435 16 -226 0 -414 -3 -417 -7z"/>
<path d="M1782 3368 c-17 -17 -17 -513 0 -568 7 -22 16 -40 20 -40 5 0 8 -9 8
-20 0 -11 5 -20 10 -20 6 0 10 -9 10 -20 0 -19 -7 -20 -150 -20 -93 0 -150 -4
-150 -10 0 -5 -7 -10 -16 -10 -29 0 -44 -27 -44 -80 0 -55 15 -80 49 -80 11 0
23 -4 26 -10 9 -15 1470 -14 1498 2 38 20 47 35 47 78 0 43 -33 90 -65 90 -8
0 -15 5 -15 10 0 6 -60 10 -160 10 -100 0 -160 4 -160 10 0 6 5 10 10 10 6 0
10 9 10 20 0 11 5 20 10 20 6 0 10 12 10 26 0 46 19 54 134 54 64 0 106 4 106
10 0 6 7 10 15 10 20 0 65 45 65 65 0 8 5 15 10 15 14 0 13 146 -1 250 -13 92
-37 130 -84 130 -14 0 -25 5 -25 11 0 9 -24 10 -85 6 -47 -3 -92 -4 -100 0 -9
3 -15 18 -15 34 l0 29 -478 0 c-358 0 -481 -3 -490 -12z m1048 -178 c0 -5 12
-10 26 -10 50 0 74 -45 74 -140 0 -73 -12 -100 -44 -100 -9 0 -16 -4 -16 -10
0 -14 -32 -13 -80 2 l-40 13 0 127 0 128 40 0 c22 0 40 -4 40 -10z"/>
<path d="M2160 2370 c-8 -5 -32 -10 -52 -10 -21 0 -38 -4 -38 -10 0 -5 -13
-10 -30 -10 -16 0 -30 -4 -30 -10 0 -5 -9 -10 -20 -10 -11 0 -20 -4 -20 -10 0
-5 -9 -10 -20 -10 -11 0 -20 -4 -20 -10 0 -5 -6 -10 -13 -10 -7 0 -30 -16 -51
-35 -21 -19 -42 -35 -47 -35 -5 0 -9 -5 -9 -11 0 -6 -18 -28 -40 -49 -22 -21
-40 -46 -40 -54 0 -9 -4 -16 -10 -16 -5 0 -10 -9 -10 -20 0 -11 -4 -20 -10
-20 -5 0 -10 -9 -10 -20 0 -11 -4 -20 -10 -20 -5 0 -10 -9 -10 -19 0 -11 -4
-23 -10 -26 -5 -3 -10 -19 -10 -35 0 -16 -4 -32 -10 -35 -5 -3 -10 -24 -10
-46 0 -21 -4 -39 -10 -39 -6 0 -10 -27 -10 -60 0 -33 -4 -60 -10 -60 -6 0 -10
-43 -10 -108 0 -62 -4 -112 -10 -118 -12 -12 -7 -267 9 -459 20 -236 23 -255
32 -255 5 0 9 -18 9 -40 0 -22 5 -40 10 -40 6 0 10 -13 10 -30 0 -16 5 -30 10
-30 6 0 10 -6 10 -13 0 -18 24 -67 33 -67 4 0 7 -9 7 -20 0 -11 5 -20 10 -20
6 0 10 -7 10 -15 0 -17 132 -152 170 -173 71 -42 93 -52 110 -52 11 0 20 -4
20 -9 0 -18 80 -24 310 -24 230 0 310 6 310 24 0 5 6 9 13 9 18 0 67 24 67 33
0 4 7 7 16 7 19 0 84 68 84 87 0 7 5 13 10 13 6 0 10 14 10 30 0 17 5 30 11
30 13 0 6 245 -10 320 -7 30 -15 74 -18 98 -3 23 -9 42 -14 42 -5 0 -9 18 -9
40 0 22 -4 40 -10 40 -5 0 -10 23 -10 50 0 28 -4 50 -10 50 -5 0 -10 23 -10
50 0 28 -4 50 -10 50 -6 0 -10 43 -10 110 0 67 4 110 10 110 6 0 10 18 10 40
0 22 5 40 10 40 6 0 10 18 10 40 0 22 5 40 10 40 6 0 10 18 10 40 0 22 5 40
10 40 6 0 10 14 10 30 0 17 5 30 10 30 6 0 10 18 10 40 0 22 4 40 9 40 13 0
22 75 27 229 3 87 1 138 -5 144 -6 6 -11 19 -11 29 0 10 -4 18 -10 18 -5 0
-10 7 -10 15 0 20 -65 85 -85 85 -8 0 -15 5 -15 10 0 6 -9 10 -20 10 -11 0
-20 5 -20 10 0 6 -9 10 -20 10 -11 0 -20 4 -20 9 0 15 -85 23 -295 27 -123 3
-206 0 -215 -6z"/>
<path d="M273 2232 l-23 -3 0 -415 0 -414 290 0 c187 0 290 -4 290 -10 0 -15
249 -13 263 3 33 34 37 82 37 454 l0 371 -287 6 c-465 10 -547 11 -570 8z"/>
<path d="M275 998 c-10 -32 -16 -158 -21 -460 -5 -283 -3 -330 10 -343 12 -13
75 -15 440 -15 l426 0 0 408 0 409 -122 6 c-66 4 -258 7 -425 7 -234 0 -305
-3 -308 -12z"/>
</g>
</svg>
