<?xml version="1.0" standalone="no"?>
<!DOCTYPE svg PUBLIC "-//W3C//DTD SVG 20010904//EN"
 "http://www.w3.org/TR/2001/REC-SVG-20010904/DTD/svg10.dtd">
<svg version="1.0" xmlns="http://www.w3.org/2000/svg"
 width="512.000000pt" height="537.000000pt" viewBox="0 0 512.000000 537.000000"
 preserveAspectRatio="xMidYMid meet">

<g transform="translate(0.000000,537.000000) scale(0.100000,-0.100000)"
fill="#000000" stroke="none">
<path d="M1930 4641 c0 -209 -4 -332 -10 -336 -15 -9 -13 -318 2 -333 9 -9
136 -12 510 -12 l498 0 0 505 0 505 -500 0 -500 0 0 -329z"/>
<path d="M3405 4938 c-3 -18 -4 -242 -3 -498 l3 -465 488 -3 487 -2 0 500 0
500 -485 0 -484 0 -6 -32z"/>
<path d="M447 4940 c-3 -11 -3 -238 1 -505 l5 -485 498 0 499 0 5 23 c3 12 4
238 3 502 l-3 480 -501 3 c-494 2 -502 2 -507 -18z"/>
<path d="M3352 3768 c-9 -9 -12 -189 -12 -764 l0 -752 23 -6 c12 -3 204 -3
425 1 l404 6 11 24 c5 12 14 23 19 23 4 0 8 8 8 18 0 9 9 28 20 42 29 36 28
165 0 214 -12 19 -27 37 -35 40 -8 3 -15 15 -15 27 0 11 -8 34 -17 50 -13 22
-15 33 -5 51 6 13 14 38 17 55 4 18 12 36 20 40 7 5 21 24 32 43 17 31 18 52
15 181 l-3 145 -35 38 c-19 20 -34 44 -34 52 0 8 -4 14 -10 14 -5 0 -10 16
-10 35 0 37 31 96 69 129 17 16 21 30 21 87 0 59 -5 76 -39 141 l-39 73 -409
3 c-310 2 -412 -1 -421 -10z"/>
<path d="M1610 3750 c-14 -11 -39 -20 -56 -20 -17 0 -37 -7 -44 -15 -7 -8 -19
-15 -27 -15 -7 0 -16 -7 -19 -15 -4 -9 -26 -27 -50 -41 -47 -28 -94 -77 -94
-99 0 -8 -10 -25 -22 -38 -13 -14 -31 -53 -41 -88 -16 -54 -28 -73 -86 -131
l-67 -67 -65 -3 -64 -3 -3 -215 c-3 -246 -5 -240 84 -240 50 0 53 -2 118 -65
42 -42 69 -76 73 -95 3 -17 9 -30 13 -30 5 0 11 -14 15 -30 4 -17 18 -43 31
-57 13 -14 24 -35 24 -47 0 -21 41 -59 93 -85 15 -8 27 -18 27 -22 0 -18 86
-69 116 -69 18 0 39 -7 48 -15 12 -12 50 -15 210 -15 191 0 195 0 220 24 l26
23 0 716 0 716 -32 30 -33 31 -185 0 c-168 0 -187 -2 -210 -20z"/>
<path d="M2230 3645 c-13 -34 -1 -1286 13 -1302 12 -17 858 -19 888 -3 18 10
19 28 19 660 0 632 -1 650 -19 660 -13 6 -174 10 -456 10 l-435 0 -10 -25z"/>
<path d="M548 3158 c-4 -257 3 -482 16 -491 6 -4 63 -6 126 -5 l115 3 0 320 0
320 -127 3 -128 3 -2 -153z"/>
<path d="M490 2400 c0 -5 -11 -10 -25 -10 -14 0 -25 -5 -25 -11 0 -14 -25 -39
-39 -39 -6 0 -11 -11 -11 -25 0 -14 -4 -25 -10 -25 -5 0 -10 -14 -10 -30 0
-17 -5 -39 -12 -49 -12 -19 -1 -77 23 -123 5 -10 9 -25 9 -33 0 -8 7 -15 15
-15 8 0 15 -5 15 -11 0 -14 25 -39 39 -39 6 0 11 -5 11 -11 0 -14 25 -39 39
-39 6 0 11 -5 11 -11 0 -14 25 -39 39 -39 6 0 11 -5 11 -11 0 -14 25 -39 39
-39 6 0 11 -5 11 -11 0 -14 25 -39 39 -39 6 0 11 -5 11 -11 0 -14 25 -39 39
-39 6 0 11 -5 11 -11 0 -14 25 -39 39 -39 6 0 11 -5 11 -11 0 -14 25 -39 39
-39 6 0 11 -5 11 -11 0 -14 25 -39 39 -39 6 0 11 -5 11 -11 0 -14 25 -39 39
-39 6 0 11 -5 11 -11 0 -14 25 -39 39 -39 6 0 11 -5 11 -11 0 -14 25 -39 39
-39 6 0 11 -5 11 -11 0 -14 25 -39 39 -39 6 0 11 -5 11 -11 0 -14 25 -39 39
-39 6 0 11 -5 11 -11 0 -14 25 -39 39 -39 6 0 11 -5 11 -11 0 -14 25 -39 39
-39 6 0 11 -5 11 -11 0 -14 25 -39 39 -39 6 0 11 -7 11 -15 0 -8 5 -15 11 -15
6 0 36 -25 67 -54 80 -77 125 -116 134 -116 5 0 8 -7 8 -15 0 -8 9 -15 19 -15
11 0 23 -4 26 -10 3 -5 15 -10 26 -10 11 0 22 -7 25 -15 4 -9 19 -15 38 -15
18 0 37 -5 43 -11 10 -10 1236 -6 1717 7 148 3 222 2 229 -5 6 -6 30 -11 54
-11 30 0 45 -5 49 -15 4 -8 14 -15 24 -15 11 0 22 -4 25 -10 3 -5 14 -10 24
-10 10 0 27 -11 37 -25 10 -14 24 -25 31 -25 7 0 13 -6 13 -13 0 -7 16 -19 35
-27 19 -8 35 -19 35 -25 0 -6 11 -18 25 -25 14 -7 25 -19 25 -27 0 -7 7 -13
15 -13 8 0 15 -4 15 -10 0 -5 6 -10 13 -10 7 0 24 -11 39 -25 15 -14 32 -25
38 -25 5 0 10 -5 10 -11 0 -14 25 -39 39 -39 6 0 11 -6 11 -13 0 -7 16 -19 35
-27 19 -8 35 -19 35 -25 0 -6 11 -18 25 -25 14 -7 25 -19 25 -27 0 -7 5 -13
11 -13 7 0 19 -8 28 -18 9 -10 24 -23 33 -28 9 -5 61 -52 116 -105 55 -53 104
-99 108 -102 13 -8 10 843 -3 851 -6 4 -13 17 -17 30 -4 12 -12 22 -17 22 -5
0 -9 7 -9 15 0 8 -8 15 -18 15 -10 0 -39 22 -65 50 -26 27 -51 50 -55 50 -5 0
-15 11 -22 25 -7 14 -17 25 -22 25 -13 0 -38 26 -38 39 0 6 -4 11 -10 11 -5 0
-123 112 -261 250 -137 137 -253 250 -255 250 -5 0 -83 72 -180 168 -29 28
-58 52 -64 52 -5 0 -10 5 -10 11 0 14 -25 39 -39 39 -6 0 -11 7 -11 15 0 8 -7
15 -15 15 -8 0 -15 5 -15 10 0 6 -9 10 -19 10 -10 0 -21 6 -24 14 -3 8 -25 17
-49 21 -69 12 -1490 17 -1502 5 -5 -5 -24 -10 -42 -10 -19 0 -34 -6 -38 -15
-3 -8 -13 -15 -21 -15 -19 0 -45 -23 -45 -39 0 -6 -7 -11 -15 -11 -9 0 -15 -9
-15 -25 0 -14 -4 -25 -10 -25 -6 0 -10 -35 -10 -85 0 -50 4 -85 10 -85 6 0 10
-11 10 -25 0 -16 6 -25 15 -25 8 0 15 -5 15 -11 0 -13 25 -39 38 -39 6 0 12
-5 14 -11 2 -6 33 -17 68 -24 51 -11 187 -14 633 -15 l567 0 0 -48 c0 -45 -2
-49 -33 -60 -45 -16 -1357 -17 -1408 -1 -54 17 -79 31 -79 46 0 7 -5 13 -10
13 -6 0 -60 50 -120 110 -61 61 -115 110 -120 110 -4 0 -31 23 -59 50 -28 28
-55 50 -61 50 -5 0 -10 6 -10 13 0 8 -11 20 -25 27 -14 7 -25 19 -25 27 0 7
-5 13 -11 13 -14 0 -39 25 -39 39 0 6 -5 11 -11 11 -14 0 -39 25 -39 39 0 6
-5 11 -11 11 -14 0 -39 25 -39 39 0 6 -4 11 -10 11 -11 0 -47 28 -93 73 -16
15 -31 27 -33 27 -10 0 -34 28 -34 39 0 6 -5 11 -11 11 -7 0 -22 11 -35 25
-13 14 -30 25 -39 25 -8 0 -15 5 -15 10 0 6 -37 10 -90 10 -53 0 -90 -4 -90
-10z"/>
</g>
</svg>
