<?xml version="1.0" standalone="no"?>
<!DOCTYPE svg PUBLIC "-//W3C//DTD SVG 20010904//EN"
 "http://www.w3.org/TR/2001/REC-SVG-20010904/DTD/svg10.dtd">
<svg version="1.0" xmlns="http://www.w3.org/2000/svg"
 width="384.000000pt" height="346.000000pt" viewBox="0 0 384.000000 346.000000"
 preserveAspectRatio="xMidYMid meet">

<g transform="translate(0.000000,346.000000) scale(0.100000,-0.100000)"
fill="#000000" stroke="none">
<path d="M492 3197 l-22 -23 0 -992 c0 -992 0 -992 21 -1013 20 -20 22 -20 40
-3 11 10 19 30 19 49 0 20 6 35 15 39 9 3 15 18 15 39 0 19 7 40 15 47 8 7 15
25 15 41 0 15 5 31 10 34 6 3 10 15 10 26 0 11 7 22 15 25 9 4 15 19 15 38 0
22 8 40 25 56 15 14 25 35 25 51 0 14 7 32 15 39 8 7 15 20 15 29 0 10 11 28
25 41 14 13 25 32 25 42 0 10 7 21 15 24 8 4 15 14 15 23 0 10 11 28 25 41 14
13 25 31 25 40 0 9 11 27 25 40 14 13 25 31 25 40 0 9 14 27 30 40 17 13 30
30 30 39 0 9 23 39 50 66 28 27 50 56 50 65 0 20 380 400 400 400 9 0 40 25
70 55 30 30 62 55 72 55 10 0 18 5 18 10 0 6 8 10 18 10 10 0 36 18 57 40 21
22 47 40 56 40 9 0 22 7 29 15 7 8 19 15 27 15 8 0 24 11 37 25 13 14 30 25
38 25 9 0 21 7 28 15 7 8 20 15 30 15 10 0 23 7 30 15 7 8 21 15 31 15 11 0
19 5 19 10 0 6 8 10 19 10 10 0 24 7 31 15 7 8 21 15 31 15 10 0 21 5 24 10 3
6 19 10 34 10 16 0 34 7 41 15 7 8 21 15 32 15 10 0 21 7 24 15 4 9 19 15 39
15 19 0 37 5 40 10 3 6 19 10 34 10 16 0 34 7 41 15 7 8 28 15 47 15 21 0 36
6 39 15 4 10 20 15 50 15 27 0 51 7 64 17 20 17 20 17 -2 40 l-21 23 -1047 0
-1047 0 -21 -23z"/>
<path d="M3045 3070 c-3 -5 -44 -10 -89 -10 -62 0 -87 -4 -96 -15 -9 -11 -32
-15 -80 -15 -48 0 -71 -4 -80 -15 -7 -8 -28 -15 -46 -15 -19 0 -34 -4 -34 -10
0 -5 -15 -10 -34 -10 -18 0 -39 -7 -46 -15 -7 -8 -25 -15 -41 -15 -15 0 -31
-4 -34 -10 -3 -5 -19 -10 -35 -10 -16 0 -35 -7 -44 -15 -8 -8 -28 -15 -44 -15
-16 0 -35 -7 -42 -15 -7 -8 -21 -15 -31 -15 -11 0 -19 -4 -19 -10 0 -5 -16
-10 -35 -10 -22 0 -38 -6 -41 -15 -4 -8 -16 -15 -29 -15 -13 0 -25 -7 -29 -15
-3 -8 -14 -15 -24 -15 -10 0 -29 -11 -42 -25 -13 -14 -31 -25 -41 -25 -9 0
-22 -7 -29 -15 -7 -8 -21 -15 -31 -15 -11 0 -19 -4 -19 -10 0 -5 -8 -10 -18
-10 -10 0 -31 -13 -47 -30 -16 -16 -35 -30 -43 -30 -8 0 -25 -11 -38 -25 -13
-14 -30 -25 -38 -25 -8 0 -38 -25 -68 -55 -29 -30 -60 -55 -68 -55 -20 0 -420
-401 -420 -420 0 -9 -25 -40 -55 -70 -30 -30 -55 -60 -55 -67 0 -7 -18 -30
-40 -50 -22 -21 -40 -46 -40 -55 0 -9 -5 -20 -10 -23 -6 -3 -10 -14 -10 -23 0
-9 -14 -30 -30 -46 -17 -16 -30 -38 -30 -48 0 -10 -4 -18 -10 -18 -5 0 -10 -8
-10 -19 0 -10 -7 -24 -15 -31 -8 -7 -15 -21 -15 -31 0 -10 -4 -20 -9 -24 -12
-7 -41 -64 -41 -80 0 -7 -7 -18 -15 -25 -8 -7 -15 -21 -15 -31 0 -11 -4 -19
-8 -19 -12 0 -42 -73 -42 -104 0 -14 -7 -29 -15 -32 -9 -4 -15 -19 -15 -39 0
-18 -7 -38 -15 -45 -8 -7 -15 -25 -15 -41 0 -15 -4 -31 -10 -34 -5 -3 -10 -26
-10 -49 0 -27 -6 -48 -15 -56 -9 -8 -15 -29 -15 -56 0 -23 -4 -46 -10 -49 -6
-3 -10 -33 -10 -66 0 -44 -4 -61 -15 -65 -12 -5 -15 -28 -15 -119 0 -88 -3
-115 -15 -125 -10 -8 -15 -30 -15 -64 0 -42 5 -57 23 -74 22 -21 32 -22 194
-22 139 0 173 3 183 15 9 11 34 15 95 15 61 0 86 4 95 15 8 10 31 15 71 15 33
0 59 4 59 10 0 6 22 10 49 10 34 0 51 4 55 15 3 9 18 15 39 15 19 0 40 7 47
15 7 8 25 15 41 15 15 0 31 5 34 10 3 6 21 10 40 10 20 0 35 6 39 15 3 8 14
15 25 15 11 0 23 5 26 10 3 6 15 10 26 10 11 0 22 7 25 15 4 9 19 15 39 15 18
0 38 7 45 15 7 8 21 15 31 15 11 0 19 5 19 10 0 6 8 10 18 10 10 0 31 13 47
30 16 16 37 30 46 30 10 0 21 4 24 10 3 6 14 10 24 10 10 0 28 14 41 30 13 17
31 30 41 30 10 0 21 5 24 10 3 6 14 10 23 10 10 0 42 25 72 55 30 30 60 55 68
55 7 0 37 25 67 55 29 30 59 55 67 55 17 0 208 191 208 208 0 6 36 48 80 92
44 44 80 86 80 93 0 7 18 31 40 52 22 21 40 46 40 55 0 9 11 27 25 40 14 13
25 31 25 41 0 9 7 19 15 23 8 3 15 14 15 24 0 10 11 29 25 42 14 13 25 31 25
41 0 9 7 22 15 29 8 7 15 20 15 30 0 10 7 20 15 24 8 3 15 14 15 25 0 11 5 23
10 26 6 3 10 14 10 24 0 10 7 24 15 31 8 7 15 25 15 40 0 15 7 33 15 40 8 7
15 21 15 31 0 11 5 19 10 19 6 0 10 15 10 34 0 18 7 39 15 46 8 7 15 25 15 41
0 15 5 31 10 34 6 3 10 14 10 24 0 10 7 24 15 31 9 7 15 29 15 55 0 26 6 48
15 55 10 8 15 31 15 71 0 33 4 59 10 59 6 0 10 31 10 74 0 53 4 77 15 86 11 9
15 34 15 95 0 61 4 86 15 95 11 9 15 35 15 104 0 125 -1 126 -165 126 -72 0
-126 -4 -130 -10z"/>
<path d="M3382 2267 c-12 -13 -22 -35 -22 -50 0 -14 -4 -29 -10 -32 -5 -3 -10
-22 -10 -41 0 -22 -6 -37 -15 -40 -9 -4 -15 -19 -15 -39 0 -18 -7 -38 -15 -45
-8 -7 -15 -21 -15 -31 0 -11 -4 -19 -10 -19 -5 0 -10 -15 -10 -34 0 -18 -7
-39 -15 -46 -8 -7 -15 -20 -15 -30 0 -10 -7 -20 -15 -24 -8 -3 -15 -14 -15
-25 0 -11 -4 -23 -10 -26 -5 -3 -10 -14 -10 -24 0 -10 -7 -24 -15 -31 -8 -7
-15 -21 -15 -31 0 -11 -4 -19 -10 -19 -5 0 -10 -8 -10 -19 0 -10 -7 -24 -15
-31 -8 -7 -15 -20 -15 -29 0 -10 -11 -28 -25 -41 -14 -13 -25 -29 -25 -37 0
-7 -13 -26 -30 -41 -16 -16 -30 -36 -30 -45 0 -9 -4 -19 -10 -22 -5 -3 -10
-14 -10 -23 0 -9 -25 -41 -55 -70 -30 -30 -55 -60 -55 -68 0 -8 -36 -49 -80
-93 -44 -43 -80 -85 -80 -93 0 -17 -61 -78 -79 -78 -7 0 -55 -43 -107 -95 -52
-52 -100 -95 -107 -95 -7 0 -36 -22 -63 -50 -27 -27 -56 -50 -65 -50 -9 0 -22
-7 -29 -15 -7 -8 -19 -15 -28 -15 -8 0 -25 -11 -38 -25 -13 -14 -29 -25 -37
-25 -8 0 -20 -7 -27 -15 -7 -8 -20 -15 -29 -15 -10 0 -28 -11 -41 -25 -13 -14
-32 -25 -42 -25 -10 0 -21 -7 -24 -15 -4 -8 -14 -15 -24 -15 -11 0 -22 -4 -25
-10 -3 -5 -14 -10 -24 -10 -10 0 -24 -7 -31 -15 -7 -8 -20 -15 -30 -15 -10 0
-20 -7 -24 -15 -3 -9 -18 -15 -40 -15 -19 0 -38 -4 -41 -10 -3 -5 -15 -10 -26
-10 -11 0 -22 -7 -25 -15 -4 -9 -19 -15 -39 -15 -18 0 -38 -7 -45 -15 -7 -8
-25 -15 -41 -15 -15 0 -31 -5 -34 -10 -3 -6 -18 -10 -33 -10 -15 -1 -38 -10
-51 -21 -23 -19 -23 -20 -6 -39 18 -20 34 -20 990 -20 929 0 973 1 988 18 16
17 17 101 17 1004 0 941 -1 986 -18 1001 -17 16 -20 15 -40 -6z"/>
</g>
</svg>
