<?xml version="1.0" standalone="no"?>
<!DOCTYPE svg PUBLIC "-//W3C//DTD SVG 20010904//EN"
 "http://www.w3.org/TR/2001/REC-SVG-20010904/DTD/svg10.dtd">
<svg version="1.0" xmlns="http://www.w3.org/2000/svg"
 width="1250.000000pt" height="1250.000000pt" viewBox="0 0 1250.000000 1250.000000"
 preserveAspectRatio="xMidYMid meet">

<g transform="translate(0.000000,1250.000000) scale(0.100000,-0.100000)"
fill="#000000" stroke="none">
<path d="M917 12270 c-307 -6 -329 -8 -355 -27 -38 -28 -41 -81 -9 -136 14
-23 96 -109 183 -192 87 -82 272 -261 411 -397 336 -328 402 -377 504 -378 94
0 129 27 458 359 467 470 611 632 611 688 0 33 -35 60 -88 67 -51 7 -1034 26
-1252 24 -74 -1 -283 -4 -463 -8z"/>
<path d="M4040 12270 c-264 -5 -288 -7 -320 -25 -62 -37 -51 -86 45 -205 73
-89 809 -818 864 -855 36 -25 55 -30 101 -30 109 0 201 75 691 565 184 184
350 357 368 385 38 59 38 99 1 127 -23 16 -58 19 -350 28 -413 12 -1033 16
-1400 10z"/>
<path d="M7140 12270 c-273 -4 -309 -7 -333 -23 -61 -40 -54 -104 22 -195 75
-89 485 -505 708 -718 268 -255 292 -264 425 -163 82 61 470 432 743 710 215
218 258 277 237 324 -24 53 -39 55 -328 60 -467 8 -1158 10 -1474 5z"/>
<path d="M9970 12261 c-47 -10 -77 -27 -91 -52 -29 -55 106 -217 482 -579 520
-501 507 -490 589 -490 101 0 203 84 759 625 293 285 361 365 361 424 0 10
-16 33 -35 50 l-36 31 -997 -1 c-548 -1 -1013 -4 -1032 -8z"/>
<path d="M3104 12201 c-107 -78 -634 -581 -864 -824 -169 -179 -210 -236 -210
-297 0 -41 36 -56 167 -72 147 -17 1901 -18 2002 0 187 32 193 82 34 254 -110
118 -859 856 -913 899 -96 77 -152 88 -216 40z"/>
<path d="M6235 12207 c-63 -29 -199 -150 -484 -431 -342 -338 -560 -571 -592
-632 -23 -41 -23 -44 -6 -79 10 -20 29 -40 44 -46 53 -21 558 -31 1333 -25
439 3 799 10 829 15 66 12 81 26 88 77 4 32 -1 48 -28 88 -32 48 -586 603
-834 836 -202 190 -275 231 -350 197z"/>
<path d="M9365 12208 c-60 -21 -177 -123 -558 -487 -292 -278 -508 -504 -537
-561 -44 -87 -12 -139 93 -152 115 -13 1449 -21 1800 -10 l338 11 35 26 c19
14 34 34 34 44 0 48 -98 160 -434 495 -611 607 -682 666 -771 634z"/>
<path d="M240 11973 c-29 -26 -33 -36 -42 -117 -5 -53 -8 -448 -5 -995 4 -950
5 -970 48 -1039 33 -53 100 -32 220 72 138 117 846 829 885 889 53 82 53 134
-1 212 -38 56 -620 637 -833 831 -185 170 -223 190 -272 147z"/>
<path d="M12275 11971 c-84 -40 -376 -303 -781 -706 -218 -217 -265 -268 -279
-307 -23 -63 -14 -103 39 -176 86 -116 959 -972 1013 -993 39 -15 109 -11 123
6 11 13 14 224 18 1029 3 557 2 1038 -2 1070 -12 93 -50 115 -131 77z"/>
<path d="M2145 10805 c-54 -14 -95 -52 -95 -87 0 -57 49 -116 339 -410 335
-341 665 -659 713 -688 19 -11 51 -20 74 -20 52 0 124 46 245 156 165 151 838
825 868 871 41 61 44 134 8 158 -44 28 -260 35 -1187 34 -730 0 -925 -3 -965
-14z"/>
<path d="M5262 10809 c-66 -11 -109 -33 -117 -60 -11 -33 37 -116 127 -219 88
-101 679 -690 813 -809 90 -80 162 -121 214 -121 86 0 153 56 654 550 481 474
554 575 460 637 -22 15 -63 19 -262 24 -340 10 -1826 8 -1889 -2z"/>
<path d="M8380 10814 c-86 -17 -130 -52 -130 -103 0 -36 37 -79 363 -420 351
-366 623 -622 706 -666 48 -24 109 -19 167 14 78 45 954 889 1030 993 48 64
54 106 20 137 -14 13 -44 28 -68 33 -44 9 -2042 21 -2088 12z"/>
<path d="M7759 10670 c-20 -10 -245 -232 -500 -492 -474 -483 -510 -525 -495
-581 11 -46 44 -57 213 -68 200 -13 1549 -13 1745 0 184 12 218 27 218 94 0
57 -173 248 -595 657 -262 255 -367 346 -446 385 -57 30 -91 31 -140 5z"/>
<path d="M4677 10666 c-54 -20 -145 -104 -604 -561 -428 -427 -445 -447 -429
-510 12 -47 41 -55 228 -65 217 -12 1632 -12 1792 -1 179 13 210 48 139 154
-52 77 -286 327 -560 598 -360 356 -460 424 -566 385z"/>
<path d="M1385 10506 c-84 -37 -997 -939 -1076 -1064 -50 -79 -38 -126 57
-237 87 -100 932 -923 985 -959 98 -65 151 -39 163 81 26 282 32 1978 6 2090
-20 89 -66 119 -135 89z"/>
<path d="M11102 10503 c-13 -10 -28 -36 -34 -58 -15 -54 -23 -1872 -10 -2058
13 -169 22 -191 80 -195 32 -2 54 3 87 22 80 47 824 778 991 974 35 41 73 94
84 118 41 83 36 89 -454 584 -176 179 -374 374 -440 433 -205 187 -258 218
-304 180z"/>
<path d="M1785 10488 c-21 -19 -27 -37 -35 -98 -5 -43 -10 -497 -10 -1063 0
-1056 -1 -1036 48 -1073 53 -40 118 -4 302 168 174 162 606 599 748 756 139
154 149 196 71 300 -60 81 -911 931 -988 986 -71 52 -98 56 -136 24z"/>
<path d="M10680 10461 c-40 -22 -158 -121 -275 -231 -408 -384 -703 -672 -732
-716 -49 -73 -54 -127 -20 -196 38 -77 76 -120 410 -462 474 -486 645 -635
707 -619 11 3 29 18 40 33 19 27 21 54 30 477 13 602 13 1597 0 1645 -6 20
-18 46 -28 58 -24 30 -87 36 -132 11z"/>
<path d="M3748 9300 c-120 -15 -167 -55 -139 -116 33 -74 1015 -1045 1095
-1084 57 -27 89 -19 177 47 70 53 584 552 784 761 224 236 259 297 200 352
-22 21 -38 24 -157 32 -186 11 -1878 19 -1960 8z"/>
<path d="M6817 9300 c-125 -16 -167 -63 -127 -144 22 -46 594 -621 908 -913
199 -185 214 -189 352 -85 92 70 945 919 989 985 42 62 44 93 8 120 -24 18
-48 23 -150 29 -184 11 -1902 18 -1980 8z"/>
<path d="M6235 9151 c-104 -50 -956 -874 -1003 -972 -28 -57 -28 -71 1 -105
23 -26 30 -28 158 -36 153 -11 1748 -2 1853 10 82 9 100 26 93 89 -6 60 -69
143 -250 330 -189 197 -527 527 -626 612 -110 94 -151 107 -226 72z"/>
<path d="M9557 8960 c-53 -42 -52 -25 -52 -1155 0 -966 1 -1053 17 -1087 19
-43 55 -64 92 -54 14 3 52 27 83 53 178 144 991 967 1032 1045 46 86 20 130
-237 403 -177 188 -651 646 -750 725 -106 84 -147 100 -185 70z"/>
<path d="M2899 8931 c-55 -36 -568 -532 -818 -793 -238 -248 -268 -303 -226
-406 29 -68 964 -991 1048 -1034 53 -27 114 -21 139 13 18 23 20 56 30 420 11
410 3 1556 -11 1708 -7 70 -12 88 -31 103 -32 26 -79 22 -131 -11z"/>
<path d="M3328 8933 c-44 -51 -43 -19 -46 -1008 -2 -554 1 -991 7 -1063 12
-152 22 -172 85 -172 36 0 55 8 107 46 70 51 759 731 896 883 124 138 147 197
104 267 -57 93 -913 951 -1020 1022 -68 45 -109 53 -133 25z"/>
<path d="M247 8910 c-53 -42 -52 -29 -52 -1095 0 -544 4 -1012 8 -1039 17 -96
81 -122 164 -65 63 43 548 514 771 749 271 286 299 338 232 443 -35 56 -294
323 -471 486 -69 64 -211 197 -315 296 -251 238 -289 263 -337 225z"/>
<path d="M9120 8894 c-144 -115 -999 -952 -1025 -1003 -24 -48 -14 -102 31
-170 41 -61 763 -788 909 -915 145 -126 201 -143 231 -69 23 54 39 1072 27
1669 -9 421 -11 454 -29 485 -17 28 -26 34 -59 37 -33 2 -48 -4 -85 -34z"/>
<path d="M12262 8905 c-105 -60 -352 -286 -754 -692 -348 -351 -359 -372 -268
-511 69 -108 681 -728 890 -903 130 -109 220 -150 249 -115 40 48 41 2183 0
2232 -17 21 -69 17 -117 -11z"/>
<path d="M5260 7801 c-92 -6 -127 -22 -137 -60 -10 -39 19 -81 168 -241 243
-261 861 -876 913 -909 113 -70 151 -44 620 419 479 473 646 658 646 715 0 12
-11 32 -24 44 -23 22 -33 23 -317 31 -315 10 -1728 10 -1869 1z"/>
<path d="M4834 7405 c-28 -43 -33 -207 -33 -1135 -1 -843 5 -1076 29 -1120 15
-28 83 -27 129 1 19 11 161 143 315 292 715 693 766 748 766 829 0 21 -7 53
-16 70 -38 73 -1019 1048 -1080 1074 -53 22 -91 18 -110 -11z"/>
<path d="M11095 7396 c-14 -14 -27 -43 -32 -72 -4 -27 -8 -515 -7 -1084 0
-1128 0 -1118 55 -1149 35 -19 66 -10 135 43 151 113 881 828 997 976 37 46
70 98 73 116 7 39 -12 79 -74 154 -62 75 -707 724 -862 868 -185 172 -235 198
-285 148z"/>
<path d="M1797 7399 c-11 -6 -26 -27 -35 -48 -15 -32 -17 -122 -20 -908 -3
-936 5 -1246 32 -1288 38 -58 119 -20 303 142 143 125 826 811 858 861 55 85
35 152 -92 295 -99 112 -866 860 -936 913 -61 46 -79 51 -110 33z"/>
<path d="M1385 7391 c-48 -20 -469 -424 -791 -759 -278 -290 -307 -331 -286
-409 26 -97 130 -215 529 -604 458 -448 552 -529 610 -529 27 0 36 6 50 33 26
51 34 315 36 1262 2 901 1 932 -44 989 -21 27 -62 33 -104 17z"/>
<path d="M8047 7389 c-9 -5 -25 -24 -35 -42 -16 -30 -17 -105 -20 -1108 l-3
-1077 31 -26 c18 -14 42 -29 56 -32 59 -15 101 22 615 535 307 307 502 510
512 533 29 61 22 108 -24 177 -55 83 -261 301 -585 622 -407 401 -480 457
-547 418z"/>
<path d="M10727 7390 c-16 -5 -50 -25 -75 -45 -152 -118 -882 -841 -977 -967
-24 -32 -47 -75 -51 -94 -16 -87 92 -215 587 -691 504 -485 534 -506 604 -433
l28 30 5 998 c3 549 1 1033 -3 1075 -10 108 -47 148 -118 127z"/>
<path d="M7633 7374 c-42 -21 -194 -164 -598 -563 -362 -357 -445 -448 -471
-518 -17 -43 -17 -46 4 -89 15 -30 175 -198 534 -560 282 -284 525 -522 540
-530 37 -19 71 -18 98 4 22 17 23 28 31 218 14 341 22 1830 11 1918 -13 96
-34 130 -83 134 -19 1 -48 -5 -66 -14z"/>
<path d="M4455 7356 c-40 -17 -110 -81 -497 -453 -428 -412 -536 -531 -559
-615 -18 -70 3 -104 185 -298 180 -193 688 -698 778 -774 97 -81 164 -90 201
-26 15 25 19 82 28 457 15 599 7 1560 -13 1631 -25 87 -56 107 -123 78z"/>
<path d="M6251 5979 c-24 -7 -101 -77 -264 -237 -285 -281 -639 -639 -740
-751 -109 -119 -122 -177 -47 -216 41 -21 508 -35 1190 -34 668 0 978 11 1020
36 68 39 47 98 -86 248 -148 166 -865 879 -924 918 -62 41 -100 50 -149 36z"/>
<path d="M9573 5869 c-44 -16 -55 -51 -65 -202 -13 -200 -4 -1990 10 -2042 20
-73 77 -86 154 -35 49 32 846 786 960 908 136 145 141 211 28 347 -68 80 -745
788 -839 877 -135 126 -200 165 -248 147z"/>
<path d="M12275 5826 c-27 -12 -95 -63 -150 -112 -145 -129 -616 -595 -771
-763 -194 -208 -200 -236 -84 -389 120 -159 805 -854 949 -962 64 -49 115 -68
146 -56 39 14 40 37 43 826 3 877 -7 1440 -28 1464 -17 22 -46 20 -105 -8z"/>
<path d="M235 5814 c-14 -15 -28 -43 -32 -63 -5 -20 -8 -497 -7 -1061 1 -1126
0 -1114 57 -1133 38 -12 72 3 169 75 252 187 817 759 958 971 50 75 52 111 8
174 -72 105 -936 967 -1035 1032 -57 38 -86 39 -118 5z"/>
<path d="M2898 5798 c-129 -101 -671 -610 -874 -822 -151 -157 -179 -202 -172
-276 9 -95 47 -140 432 -523 519 -516 619 -604 695 -614 34 -5 40 -2 62 28 23
33 24 44 32 269 8 242 2 1426 -10 1744 -6 169 -7 180 -30 207 -35 41 -69 38
-135 -13z"/>
<path d="M3344 5825 c-61 -26 -59 9 -59 -1085 0 -1054 1 -1077 46 -1134 27
-34 54 -33 115 5 52 33 740 711 906 894 55 61 110 129 121 152 20 40 20 43 3
86 -27 71 -158 219 -511 576 -486 492 -545 540 -621 506z"/>
<path d="M9112 5780 c-70 -51 -912 -891 -960 -958 -36 -51 -45 -73 -46 -106
-2 -78 44 -134 513 -615 416 -427 552 -545 611 -526 43 14 53 57 63 280 13
312 3 1842 -12 1880 -33 81 -96 98 -169 45z"/>
<path d="M5424 4540 c-167 -8 -193 -14 -220 -55 -15 -24 -15 -28 9 -78 40 -80
159 -210 556 -608 279 -278 379 -372 421 -394 107 -56 183 -33 330 100 118
107 685 691 777 799 156 184 138 222 -111 237 -171 10 -1537 9 -1762 -1z"/>
<path d="M7761 4435 c-35 -16 -691 -661 -928 -913 -131 -140 -134 -144 -131
-184 2 -31 10 -46 31 -62 27 -20 44 -21 440 -27 514 -9 1325 -9 1559 0 169 6
178 7 202 30 36 34 35 84 -3 142 -34 50 -843 859 -939 937 -110 90 -161 107
-231 77z"/>
<path d="M4674 4410 c-147 -116 -793 -766 -957 -963 -100 -121 -97 -167 14
-188 78 -15 1807 -24 1967 -10 137 11 172 23 186 64 14 38 -7 75 -123 211
-186 218 -841 855 -922 896 -58 30 -118 26 -165 -10z"/>
<path d="M1364 4291 c-47 -22 -243 -213 -657 -643 -320 -333 -389 -412 -413
-475 -16 -42 -16 -44 9 -95 17 -34 81 -112 180 -218 192 -205 783 -792 855
-848 66 -51 115 -57 152 -17 23 24 23 31 32 301 5 152 7 649 6 1103 -3 766 -4
828 -21 858 -30 56 -72 66 -143 34z"/>
<path d="M1781 4276 c-17 -18 -24 -42 -31 -112 -13 -117 -12 -1763 0 -1921 16
-205 40 -261 107 -250 69 12 145 81 626 579 478 496 511 546 436 676 -30 53
-537 583 -804 841 -215 207 -281 244 -334 187z"/>
<path d="M11101 4283 c-12 -10 -27 -36 -33 -58 -14 -55 -22 -1291 -10 -1795
10 -454 9 -453 80 -458 32 -2 55 3 90 24 51 29 862 834 976 969 123 145 132
188 61 283 -46 61 -727 740 -923 920 -141 130 -193 154 -241 115z"/>
<path d="M10672 4243 c-30 -17 -341 -314 -800 -767 -107 -104 -205 -210 -219
-234 -36 -61 -29 -123 22 -198 85 -123 822 -877 950 -972 39 -29 87 -57 108
-64 34 -10 40 -9 59 10 12 11 25 42 29 69 12 69 22 1626 12 1896 l-8 229 -28
24 c-34 29 -79 31 -125 7z"/>
<path d="M3978 3020 c-257 -5 -279 -7 -304 -26 -15 -11 -32 -27 -38 -36 -17
-28 10 -89 70 -158 177 -204 852 -875 959 -953 57 -41 123 -35 200 17 69 48
349 316 637 611 350 357 404 426 380 480 -24 53 -43 56 -465 65 -422 10 -995
10 -1439 0z"/>
<path d="M6885 3024 c-74 -9 -134 -26 -150 -44 -26 -29 -13 -82 35 -145 64
-82 374 -407 606 -635 360 -352 427 -404 499 -380 68 22 165 109 534 474 523
519 598 606 572 663 -21 46 -57 52 -403 63 -293 9 -1621 12 -1693 4z"/>
<path d="M3110 2919 c-34 -15 -164 -140 -536 -512 -556 -558 -569 -575 -511
-643 23 -26 28 -27 163 -35 232 -13 1533 -21 1794 -12 266 10 303 18 316 68
15 58 -104 194 -596 679 -397 391 -499 477 -567 476 -10 0 -38 -10 -63 -21z"/>
<path d="M6211 2894 c-56 -32 -149 -115 -479 -433 -340 -328 -545 -546 -567
-605 -23 -60 -11 -95 41 -121 38 -20 56 -20 1099 -18 l1060 3 33 35 c39 43 40
59 4 116 -64 100 -898 932 -1011 1007 -76 50 -115 54 -180 16z"/>
<path d="M9315 2907 c-48 -22 -198 -163 -501 -468 -289 -292 -420 -430 -506
-533 -43 -52 -49 -63 -46 -99 2 -30 10 -45 31 -61 26 -19 46 -21 260 -28 304
-8 1133 -8 1562 1 311 6 343 8 372 26 18 10 35 25 38 33 10 26 -32 94 -113
187 -129 146 -841 847 -915 899 -75 54 -130 66 -182 43z"/>
<path d="M12264 2695 c-58 -29 -182 -138 -474 -416 -214 -205 -476 -474 -544
-559 -48 -60 -60 -104 -42 -162 29 -99 122 -202 560 -626 406 -393 463 -444
533 -478 59 -29 87 -23 100 24 5 15 8 513 8 1107 0 1018 -1 1082 -18 1108 -22
35 -57 35 -123 2z"/>
<path d="M243 2688 c-12 -6 -25 -18 -28 -27 -26 -64 -31 -1805 -6 -2065 7 -80
11 -92 36 -113 35 -30 60 -26 133 24 134 91 874 833 961 964 79 118 68 154
-105 344 -176 194 -802 816 -858 853 -51 33 -93 40 -133 20z"/>
<path d="M5218 1499 c-20 -6 -49 -22 -64 -36 -22 -20 -25 -30 -21 -61 4 -20
23 -60 42 -88 39 -56 537 -553 800 -798 227 -211 284 -244 368 -217 82 27 232
165 644 593 337 349 394 413 424 470 25 50 24 70 -7 99 -24 22 -36 25 -162 31
-248 12 -1984 18 -2024 7z"/>
<path d="M2215 1490 c-63 -4 -126 -14 -147 -23 -55 -23 -53 -64 7 -145 62 -85
287 -321 601 -633 294 -290 373 -360 449 -395 120 -57 134 -48 534 355 487
489 648 669 667 747 11 43 -3 71 -38 78 -105 19 -1811 33 -2073 16z"/>
<path d="M8460 1491 c-196 -11 -234 -38 -185 -130 35 -64 124 -161 542 -587
347 -355 430 -432 510 -473 91 -46 132 -27 319 147 227 212 839 833 873 886
38 61 39 85 5 117 -24 22 -36 24 -172 31 -219 10 -1748 17 -1892 9z"/>
<path d="M1555 1351 c-68 -40 -241 -197 -544 -496 -262 -258 -450 -457 -482
-510 -34 -54 -24 -106 25 -133 28 -16 104 -17 916 -20 487 -2 958 -1 1048 3
143 6 166 10 195 29 79 53 46 99 -382 530 -487 490 -639 626 -706 626 -11 0
-42 -13 -70 -29z"/>
<path d="M4672 1358 c-83 -45 -1008 -947 -1041 -1015 -26 -53 -26 -83 -2 -110
32 -34 159 -38 1186 -38 872 0 953 1 987 17 58 26 66 55 34 115 -36 66 -204
248 -542 588 -299 301 -412 403 -486 441 -59 30 -84 30 -136 2z"/>
<path d="M7763 1359 c-55 -27 -266 -223 -667 -619 -212 -210 -339 -343 -357
-375 -38 -66 -38 -106 0 -138 26 -22 40 -24 166 -30 196 -10 1514 -8 1793 2
223 9 235 10 258 32 13 12 24 32 24 45 0 45 -102 158 -494 550 -554 554 -605
592 -723 533z"/>
<path d="M10902 1368 c-42 -14 -190 -148 -515 -468 -287 -282 -415 -421 -489
-531 -81 -119 -64 -154 81 -170 138 -15 1984 -7 2033 10 66 21 75 71 28 143
-56 84 -566 610 -834 860 -179 166 -214 184 -304 156z"/>
</g>
</svg>
