<svg height="500" viewBox="0 0 500 500" width="500" xmlns="http://www.w3.org/2000/svg"><g stroke-width=".773559"><path d="m208.84929 53.655769h56.31509v56.31509h-56.31509z"/><path d="m208.84929 134.10591h56.31509v56.31509h-56.31509z"/><path d="m277.61865 47.931435h38.445877v38.445877h-38.445877z"/><path d="m277.61865 102.85411h38.445877v38.445877h-38.445877z"/><path d="m277.61865 157.69946h38.445877v38.445877h-38.445877z"/><path d="m331.53574 43.522152h29.704662v29.704662h-29.704662z"/><path d="m331.53574 85.990524h29.704662v29.704662h-29.704662z"/><path d="m331.53574 128.45892h29.704662v29.704662h-29.704662z"/><path d="m331.53574 170.84996h29.704662v29.704662h-29.704662z"/><path d="m374.31354 37.101612h25.295376v25.295376h-25.295376z"/><path d="m374.31354 73.226814h25.295376v25.295376h-25.295376z"/><path d="m374.31354 109.35202h25.295376v25.295376h-25.295376z"/><path d="m374.31354 145.47722h25.295376v25.295376h-25.295376z"/><path d="m374.31354 181.60242h25.295376v25.295376h-25.295376z"/><path d="m313.98627 238.37862h69.6203v19.338972h-69.6203z"/><path d="m313.98627 238.37862h19.338972v69.6203h-19.338972z"/><path d="m344.92862 269.32095h69.6203v69.6203h-69.6203z"/></g><path d="m313.16841 366.40333-49.91057 36.15458 19.04482 59.16201h61.73149l19.04481-59.16201z" stroke-width=".657037"/><path d="m363.26271 463.01218h98.04019l-49.0201-85.30939z" stroke-width=".614128"/><path d="m237.67615 228.66224c-30.16144 0-54.61213 24.45068-54.61213 54.61213s24.45069 54.61214 54.61213 54.61214c30.16143 0 54.61213-24.45069 54.61213-54.61214s-24.4507-54.61213-54.61213-54.61213zm0 4.96548 13.18167 46.12775h-.008c.33434 1.1893.51198 2.44161.51198 3.73833 0 7.5901-6.12549 13.74242-13.68552 13.74242-7.56004 0-13.68554-6.15232-13.68554-13.74242 0-1.29672.17766-2.54903.51198-3.73833h-.0162zm0 17.11505-8.6713 30.33737h.008c-.21988.78217-.34133 1.60147-.34133 2.45429 0 4.99185 4.03244 9.037 9.0045 9.037 4.97208 0 9.00451-4.04515 9.00451-9.037 0-.85282-.12145-1.67212-.34133-2.45429h.008z" stroke-width=".260057"/><path clip-rule="evenodd" d="m222.69549 438.94631c0-.70682 0-1.32232 0-2.07152-3.71369 0-7.35928.004-11.00487-.00075-4.83245-.005-9.6654.0182-14.4976-.0419-2.59873-.0326-4.61425-1.82028-5.12784-4.36048-.46743-2.31142.76534-4.81278 3.03009-5.79834.85287-.37131 1.86719-.51383 2.80886-.51737 10.29528-.035 20.59131.002 30.88686-.0406 2.30131-.01 3.87841 1.06527 5.45601 2.62168 6.37196 6.28594 12.85365 12.46065 19.29447 18.6772.90712.87559 1.74157 1.84476 2.73395 2.60959 1.56776 1.20754 2.08313 2.66886 2.02889 4.65385-.1395 5.08117-.0469 10.16891-.0464 15.25386v2.13938c-2.40224-2.31091-4.4619-4.46189-6.7009-6.40678-3.45137-2.99805-7.01144-5.87174-10.55335-8.76434-2.14997-1.7562-4.73861-2.37045-7.42184-2.34849-5.83541.0484-11.66957.31204-17.50498.36173-7.14412.061-14.29075-.0924-21.4336.0199-3.18649.0502-5.80212-1.13565-7.94124-3.21903-7.52603-7.33002-14.93526-14.77961-22.39091-22.18153-1.66589-1.65404-2.07555-3.64812-1.31677-5.78849.73457-2.07254 2.3379-3.25031 4.54135-3.46851 1.73526-.17204 3.1774.50451 4.44069 1.6886 4.9664 4.65561 9.95398 9.28928 14.934 13.93052.95277.88819 1.88384 1.80211 2.8747 2.64515.31986.27244.79864.50577 1.20527.50678 10.42268.0214 20.84535.0101 31.26776.0005.11907 0 .23763-.053.43741-.10064z" fill-rule="evenodd" stroke-width=".252255"/><path d="m180.61351 365.8663h53.611294v53.612255h-53.611294z" stroke-width=".958718"/><circle cx="85.562248" cy="162.10699" r="50" stroke-width=".90259"/><circle cx="85.561996" cy="322.61816" r="50" stroke-width=".90259"/></svg>