<svg height="500" viewBox="0 0 500 500" width="500" xmlns="http://www.w3.org/2000/svg"><g clip-rule="evenodd" fill-rule="evenodd" stroke-width="1.12555"><path d="m179.37841 441.18124c-14.97088-4.87473-29.66713-9.6673-44.36901-14.4475-21.83671-7.10219-43.663287-14.2404-65.53489-21.23567-2.755337-.8813-4.510063-1.66806-4.498806-5.14374.118181-37.48517.07541-74.96922.09455-112.45327.0012-.87793.214979-1.75585.415326-3.29222 8.864798 2.82849 17.352538 5.49829 25.815516 8.24462 28.054224 9.10791 56.081434 18.29237 84.166044 27.29786 3.17517 1.01861 4.36712 2.41092 4.35474 5.85171-.12606 37.10925-.0765 74.21848-.0934 111.32885-.00096 1.10304-.19472 2.20494-.35005 3.84936z"/><path d="m179.55399 198.61377v104.00268c-7.70773-2.47733-15.03728-4.81172-22.35333-7.18999-29.11224-9.46247-58.196338-19.01722-87.361474-28.31423-3.710924-1.18294-5.040193-2.80711-4.878115-6.6666.299395-7.10783-.110304-14.24717.231863-21.35161.07991-1.67931 1.630916-4.28157 3.070488-4.75881 36.499188-12.08948 73.073798-23.95386 109.640518-35.83962.32079-.10242.72711.045 1.65005.11818z"/><path d="m179.74534 58.818758v5.63223c0 36.387762-.0551 72.774392.0777 109.161042.0147 3.94954-.98822 5.80106-5.04019 7.09544-34.88179 11.1384-69.66903 22.57281-104.487779 33.90819-1.397928.45472-2.829622.80813-4.728418 1.34502-.192468-1.62191-.498617-3.01308-.499742-4.40425-.02589-36.94942.0022-73.89883-.06416-110.84824-.0057-3.087371.418703-5.031188 3.947289-6.158985 35.94767-11.490695 71.82668-23.190743 107.72709-34.828885.69784-.22511 1.40468-.414201 3.06824-.901562z"/></g><path d="m406.334 249.91814c4.929-76.658 73.935-190.163004-58.733-190.163004-111.138 0-118.596 96.192004-118.596 190.163004 0 84.969 4.044 186.586 106.526 190.163 142.872 4.987 76.281-104.974 70.803-190.163z"/></svg>