<?xml version="1.0" encoding="UTF-8" standalone="no"?>
<!-- Generator: Adobe Illustrator 16.0.0, SVG Export Plug-In . SVG Version: 6.00 Build 0)  -->

<svg
   version="1.1"
   id="Layer_1"
   x="0px"
   y="0px"
   width="500px"
   height="500px"
   viewBox="0 0 500 500"
   enable-background="new 0 0 500 500"
   xml:space="preserve"
   sodipodi:docname="minx_bld.svg"
   inkscape:version="1.3.2 (091e20ef0f, 2023-11-25, custom)"
   xmlns:inkscape="http://www.inkscape.org/namespaces/inkscape"
   xmlns:sodipodi="http://sodipodi.sourceforge.net/DTD/sodipodi-0.dtd"
   xmlns="http://www.w3.org/2000/svg"
   xmlns:svg="http://www.w3.org/2000/svg"><defs
   id="defs11" /><sodipodi:namedview
   id="namedview11"
   pagecolor="#ffffff"
   bordercolor="#000000"
   borderopacity="0.25"
   inkscape:showpageshadow="2"
   inkscape:pageopacity="0.0"
   inkscape:pagecheckerboard="0"
   inkscape:deskcolor="#d1d1d1"
   inkscape:zoom="0.2110272"
   inkscape:cx="-530.73726"
   inkscape:cy="582.86324"
   inkscape:window-width="1918"
   inkscape:window-height="1171"
   inkscape:window-x="0"
   inkscape:window-y="27"
   inkscape:window-maximized="1"
   inkscape:current-layer="Layer_1" />
<path
   fill-rule="evenodd"
   clip-rule="evenodd"
   fill="#000000"
   d="m 179.37841,441.18124 c -14.97088,-4.87473 -29.66713,-9.6673 -44.36901,-14.4475 -21.83671,-7.10219 -43.663287,-14.2404 -65.53489,-21.23567 -2.755337,-0.8813 -4.510063,-1.66806 -4.498806,-5.14374 0.118181,-37.48517 0.07541,-74.96922 0.09455,-112.45327 0.0012,-0.87793 0.214979,-1.75585 0.415326,-3.29222 8.864798,2.82849 17.352538,5.49829 25.815516,8.24462 28.054224,9.10791 56.081434,18.29237 84.166044,27.29786 3.17517,1.01861 4.36712,2.41092 4.35474,5.85171 -0.12606,37.10925 -0.0765,74.21848 -0.0934,111.32885 -9.6e-4,1.10304 -0.19472,2.20494 -0.35005,3.84936 z"
   id="path3"
   inkscape:label="corner 2"
   style="stroke-width:1.12555" /><path
   fill-rule="evenodd"
   clip-rule="evenodd"
   fill="#000000"
   d="m 179.55399,198.61377 c 0,34.56438 0,68.81812 0,104.00268 -7.70773,-2.47733 -15.03728,-4.81172 -22.35333,-7.18999 -29.11224,-9.46247 -58.196338,-19.01722 -87.361474,-28.31423 -3.710924,-1.18294 -5.040193,-2.80711 -4.878115,-6.6666 0.299395,-7.10783 -0.110304,-14.24717 0.231863,-21.35161 0.07991,-1.67931 1.630916,-4.28157 3.070488,-4.75881 36.499188,-12.08948 73.073798,-23.95386 109.640518,-35.83962 0.32079,-0.10242 0.72711,0.045 1.65005,0.11818 z"
   id="path8"
   inkscape:label="edge"
   style="stroke-width:1.12555" />
<path
   fill-rule="evenodd"
   clip-rule="evenodd"
   fill="#000000"
   d="m 179.74534,58.818758 c 0,2.302867 0,3.967548 0,5.63223 0,36.387762 -0.0551,72.774392 0.0777,109.161042 0.0147,3.94954 -0.98822,5.80106 -5.04019,7.09544 -34.88179,11.1384 -69.66903,22.57281 -104.487779,33.90819 -1.397928,0.45472 -2.829622,0.80813 -4.728418,1.34502 -0.192468,-1.62191 -0.498617,-3.01308 -0.499742,-4.40425 -0.02589,-36.94942 0.0022,-73.89883 -0.06416,-110.84824 -0.0057,-3.087371 0.418703,-5.031188 3.947289,-6.158985 35.94767,-11.490695 71.82668,-23.190743 107.72709,-34.828885 0.69784,-0.22511 1.40468,-0.414201 3.06824,-0.901562 z"
   id="path2"
   inkscape:label="corner 1"
   style="stroke-width:1.12555" /><path
   fill="#000000"
   d="m 406.334,249.91814 c 4.929,-76.658 73.935,-190.163004 -58.733,-190.163004 -111.138,0 -118.596,96.192004 -118.596,190.163004 0,84.969 4.044,186.586 106.526,190.163 142.872,4.987 76.281,-104.974 70.803,-190.163 z"
   id="path3-3"
   inkscape:label="blindfold" /></svg>
