<?xml version="1.0" encoding="UTF-8"?>
<svg width="600" height="600" viewBox="0 0 600 600" xmlns="http://www.w3.org/2000/svg">
  <rect width="100%" height="100%" fill="none"/>
  <polygon points="300.0,60.0 528.2535639108369,225.83592135001263 441.06846055019355,494.1640786499874 158.93153944980648,494.1640786499874 71.74643608916313,225.83592135001265" fill="black" stroke="white" stroke-width="8"/>
  <line x1="300.0" y1="300.0" x2="414.12678195541844" y2="142.91796067500633" stroke="white" stroke-width="14"/>
  <line x1="300.0" y1="300.0" x2="484.6610122305152" y2="360.0" stroke="white" stroke-width="14"/>
  <line x1="300.0" y1="300.0" x2="300.0" y2="494.1640786499874" stroke="white" stroke-width="14"/>
  <line x1="300.0" y1="300.0" x2="115.3389877694848" y2="360.0" stroke="white" stroke-width="14"/>
  <line x1="300.0" y1="300.0" x2="185.87321804458156" y2="142.91796067500633" stroke="white" stroke-width="14"/>
  <line x1="233.9336678173837" y1="108.0" x2="503.0184705291185" y2="303.50155281000764" stroke="white" stroke-width="14"/>
  <line x1="462.1872317282205" y1="177.83592135001265" x2="359.40598294839765" y2="494.16407864998746" stroke="white" stroke-width="14"/>
  <line x1="466.303553931912" y1="416.4984471899924" x2="133.69644606808805" y2="416.4984471899924" stroke="white" stroke-width="14"/>
  <line x1="240.59401705160235" y1="494.1640786499874" x2="137.81276827177948" y2="177.83592135001268" stroke="white" stroke-width="14"/>
  <line x1="96.98152947088154" y1="303.5015528100076" x2="366.0663321826163" y2="108.00000000000003" stroke="white" stroke-width="14"/>
  <polygon points="300.0,156.0 436.9521383465021,255.50155281000758 384.6410763301161,416.4984471899924 215.3589236698839,416.4984471899924 163.04786165349788,255.50155281000758" fill="none" stroke="white" stroke-width="14"/>
</svg>