<svg height="500" width="500" xmlns="http://www.w3.org/2000/svg"><path d="m30 30v93.0293l93.0293-93.0293zm126.9707 0 93.0293 93.03125 93.03125-93.03125zm220 0 93.0293 93.03125v-93.03125zm-236.9707 16.96875-93.03125 93.03125 93.03125 93.03125 93.03125-93.03125zm220 0-93.03125 93.03125 93.03125 93.03125 93.03125-93.03125zm-110 110-93.03125 93.03125 93.03125 93.03125 93.03125-93.03125zm-220 .00195v186.0586l93.03125-93.0293zm440 0-93.03125 93.0293 93.03125 93.03125zm-330 109.99805-93.03125 93.03125 93.03125 93.03125 93.03125-93.03125zm220 0-93.03125 93.03125 93.03125 93.03125 93.03125-93.03125zm-110 110-93.0293 93.03125h186.06055zm-220 .00195v93.0293h93.03125zm440 0-93.03125 93.0293h93.03125z" fill-rule="evenodd"/></svg>