<?xml version="1.0" encoding="UTF-8" standalone="no"?>
<svg
   width="500"
   height="500"
   version="1.1"
   id="svg317"
   xmlns="http://www.w3.org/2000/svg"
   xmlns:svg="http://www.w3.org/2000/svg">
  <defs
     id="defs321" />
  <path
     id="path311"
     style="fill-rule:evenodd"
     d="M 30 30 L 30 123.0293 L 123.0293 30 L 30 30 z M 156.9707 30 L 250 123.03125 L 343.03125 30 L 156.9707 30 z M 376.9707 30 L 470 123.03125 L 470 30 L 376.9707 30 z M 140 46.96875 L 46.96875 140 L 140 233.03125 L 233.03125 140 L 140 46.96875 z M 360 46.96875 L 266.96875 140 L 360 233.03125 L 453.03125 140 L 360 46.96875 z M 250 156.96875 L 156.96875 250 L 250 343.03125 L 343.03125 250 L 250 156.96875 z M 30 156.9707 L 30 343.0293 L 123.03125 250 L 30 156.9707 z M 470 156.9707 L 376.96875 250 L 470 343.03125 L 470 156.9707 z M 140 266.96875 L 46.96875 360 L 140 453.03125 L 233.03125 360 L 140 266.96875 z M 360 266.96875 L 266.96875 360 L 360 453.03125 L 453.03125 360 L 360 266.96875 z M 250 376.96875 L 156.9707 470 L 343.03125 470 L 250 376.96875 z M 30 376.9707 L 30 470 L 123.03125 470 L 30 376.9707 z M 470 376.9707 L 376.96875 470 L 470 470 L 470 376.9707 z " />
</svg>
