<?xml version="1.0" standalone="no"?>
<!DOCTYPE svg PUBLIC "-//W3C//DTD SVG 20010904//EN"
 "http://www.w3.org/TR/2001/REC-SVG-20010904/DTD/svg10.dtd">
<svg version="1.0" xmlns="http://www.w3.org/2000/svg"
 width="900.000000pt" height="867.000000pt" viewBox="0 0 900.000000 867.000000"
 preserveAspectRatio="xMidYMid meet">
<metadata>
Created by potrace 1.10, written by Peter Selinger 2001-2011
</metadata>
<g transform="translate(0.000000,867.000000) scale(0.100000,-0.100000)"
fill="#000000" stroke="none">
<path d="M4455 8515 c-155 -28 -257 -58 -360 -105 -29 -14 -103 -56 -117 -67
-7 -6 -40 -25 -73 -43 -33 -18 -83 -56 -110 -84 -93 -94 -138 -123 -223 -140
-42 -10 -95 -23 -117 -30 -22 -7 -67 -21 -100 -31 -33 -10 -78 -23 -100 -30
-22 -7 -67 -20 -100 -30 -98 -29 -155 -51 -248 -94 -48 -23 -90 -41 -94 -41
-13 0 -301 -141 -363 -178 -19 -11 -57 -33 -85 -47 -27 -15 -57 -33 -65 -40
-8 -7 -46 -32 -85 -55 -38 -24 -90 -60 -114 -81 -24 -22 -83 -65 -130 -97 -47
-31 -102 -71 -121 -89 -19 -17 -62 -51 -95 -76 -101 -76 -369 -347 -539 -547
-57 -67 -326 -451 -326 -465 0 -20 -69 -99 -96 -111 -19 -8 -50 -21 -69 -29
-20 -8 -40 -15 -45 -15 -5 0 -20 -10 -33 -22 -13 -13 -53 -45 -88 -73 -147
-116 -329 -342 -329 -410 0 -10 -13 -42 -30 -71 -16 -29 -34 -81 -40 -116 -5
-35 -17 -88 -25 -118 -19 -69 -19 -187 0 -310 19 -127 37 -174 114 -290 66
-99 65 -92 72 -390 3 -151 11 -324 18 -385 25 -231 60 -441 86 -520 7 -22 21
-74 31 -115 9 -41 23 -91 30 -110 7 -19 22 -80 34 -135 39 -192 71 -274 145
-375 18 -25 44 -72 58 -106 25 -59 120 -247 167 -329 12 -22 36 -65 52 -95 86
-159 251 -371 441 -565 122 -123 167 -191 167 -248 0 -35 34 -173 55 -222 28
-66 188 -277 238 -313 10 -8 25 -22 35 -31 43 -44 264 -171 299 -171 9 0 46
-12 82 -27 64 -26 74 -27 341 -33 258 -6 278 -8 325 -29 50 -23 61 -27 165
-55 30 -8 87 -26 125 -39 72 -26 143 -45 255 -71 36 -8 95 -22 132 -30 37 -9
82 -16 101 -16 19 0 56 -7 83 -15 93 -28 425 -42 909 -38 295 3 432 18 605 68
48 14 127 30 200 40 25 4 86 20 135 36 127 41 171 54 245 74 36 10 92 27 125
37 60 20 60 20 100 0 98 -49 140 -56 335 -56 178 0 187 1 255 28 64 25 137 49
192 63 12 3 28 11 34 19 6 8 19 14 28 14 9 0 25 7 35 15 11 8 26 15 35 15 8 0
47 27 88 60 40 33 77 60 83 60 5 0 58 49 117 109 125 126 202 248 214 335 9
67 30 120 60 154 32 34 59 78 59 93 0 7 33 55 73 108 69 91 127 178 139 211 3
8 31 53 62 99 31 46 56 88 56 93 0 5 19 39 43 76 24 37 60 101 82 142 21 41
52 98 70 125 17 28 56 100 87 162 32 62 81 147 110 190 65 96 77 114 84 133 3
8 12 30 20 48 8 18 14 39 14 48 0 8 26 69 59 137 67 140 91 224 91 321 0 37 6
79 14 94 7 15 19 61 25 102 7 41 17 98 22 125 19 105 22 161 9 184 -8 16 -11
80 -11 204 1 293 10 564 20 589 5 13 29 58 53 99 56 96 108 202 108 222 0 9 7
42 15 74 9 36 15 103 15 183 0 80 -6 147 -15 183 -8 32 -15 65 -15 74 0 15
-85 195 -112 238 -67 105 -224 266 -285 291 -21 9 -49 26 -63 39 -14 13 -41
31 -60 42 -56 29 -74 45 -108 96 -18 26 -32 50 -32 53 0 6 -182 297 -248 398
-67 101 -204 257 -433 490 -138 141 -216 213 -247 227 -25 13 -93 69 -156 131
-112 111 -198 178 -226 178 -9 0 -74 34 -145 76 -234 138 -446 239 -690 331
-22 8 -51 20 -65 25 -14 6 -38 14 -55 19 -16 4 -61 18 -100 32 -75 26 -145 47
-240 73 -129 34 -184 67 -302 178 -136 128 -157 145 -193 163 -19 10 -49 28
-66 41 -17 12 -41 22 -53 22 -12 0 -36 10 -52 23 -22 15 -46 22 -82 23 -29 1
-70 9 -92 17 -49 20 -207 20 -310 2z m205 -256 c25 -5 63 -12 85 -15 57 -9
230 -95 296 -148 123 -97 215 -232 271 -397 18 -54 21 -87 22 -214 0 -127 -3
-160 -22 -217 -46 -145 -102 -238 -202 -338 -131 -131 -279 -203 -472 -230
-172 -24 -331 13 -538 125 -14 8 -70 60 -125 117 -138 142 -187 240 -220 440
-16 97 -14 124 14 263 28 139 154 348 262 438 100 81 226 141 354 167 33 7 65
14 70 15 23 7 163 3 205 -6z m-1499 -1484 c52 -8 119 -24 149 -35 30 -12 64
-24 75 -28 60 -17 197 -112 271 -188 67 -67 90 -99 127 -175 61 -128 77 -200
77 -346 0 -135 -11 -208 -40 -268 -11 -23 -20 -45 -20 -50 0 -31 -93 -155
-176 -233 -134 -127 -246 -184 -429 -217 -134 -25 -298 -14 -425 28 -212 70
-383 239 -484 479 -24 57 -49 252 -41 317 16 128 42 216 88 293 15 26 27 54
27 62 0 23 119 146 204 211 40 30 76 55 79 55 4 0 26 12 48 26 39 24 67 34
194 68 68 19 163 19 276 1z m3089 -84 c94 -23 236 -88 300 -139 123 -97 218
-232 264 -376 21 -66 22 -332 1 -391 -8 -22 -15 -45 -15 -51 0 -46 -96 -192
-204 -314 -48 -54 -179 -150 -204 -150 -7 0 -25 -9 -40 -20 -15 -11 -58 -27
-97 -36 -218 -50 -425 -15 -615 104 -60 37 -200 175 -224 220 -94 177 -116
254 -116 412 0 139 20 223 80 343 70 141 206 272 355 343 156 74 350 94 515
55z m-4813 -912 c188 -67 311 -156 405 -294 38 -57 87 -156 99 -200 4 -16 17
-61 28 -100 25 -84 26 -172 6 -280 -20 -101 -31 -135 -68 -210 -37 -74 -51
-93 -135 -178 -92 -94 -221 -181 -302 -202 -14 -4 -40 -13 -58 -22 -28 -12
-68 -14 -220 -11 -118 3 -200 10 -222 18 -76 28 -238 113 -298 156 -110 79
-196 194 -241 324 -7 19 -22 60 -33 90 -17 48 -20 74 -16 200 3 132 6 150 31
204 15 32 27 66 27 75 0 62 131 231 245 315 86 63 115 77 230 111 50 15 95 28
100 30 6 2 83 4 172 4 156 1 164 0 250 -30z m6603 7 c169 -25 241 -63 385
-204 143 -140 157 -166 216 -402 24 -97 21 -165 -12 -289 -70 -261 -224 -431
-484 -534 -155 -62 -419 -63 -560 -3 -226 97 -362 226 -449 425 -74 167 -78
367 -12 511 69 147 198 300 311 366 28 16 59 35 70 41 75 44 186 82 244 84 20
1 47 5 61 9 39 12 126 11 230 -4z m-3345 -507 c143 -16 286 -92 413 -218 122
-120 192 -301 192 -497 0 -342 -198 -623 -525 -747 -149 -56 -370 -53 -525 6
-206 79 -356 222 -446 423 -73 164 -72 425 3 584 38 80 125 205 177 255 37 35
157 111 231 145 121 57 278 73 480 49z m-2413 -1289 c203 -46 326 -107 438
-220 93 -93 151 -190 192 -316 31 -95 33 -330 4 -414 -82 -238 -207 -382 -417
-483 -142 -68 -288 -86 -479 -58 -165 25 -336 119 -445 247 -55 64 -59 69
-108 169 -64 128 -72 165 -71 325 0 121 4 157 22 214 65 202 192 357 375 455
72 39 162 71 202 72 16 0 55 7 85 14 79 18 100 17 202 -5z m4790 -29 c198 -57
380 -203 465 -373 68 -137 78 -179 78 -338 -1 -149 -8 -186 -59 -300 -50 -110
-178 -255 -277 -316 -324 -197 -729 -153 -987 106 -134 135 -211 320 -212 508
0 95 20 206 46 254 8 14 14 31 14 37 0 13 67 128 94 159 160 188 367 279 641
281 101 1 145 -3 197 -18z m-2392 -1587 c87 -21 231 -93 308 -154 85 -69 146
-147 198 -257 137 -283 80 -615 -143 -836 -96 -95 -211 -168 -288 -182 -22 -4
-44 -10 -50 -15 -5 -4 -40 -15 -76 -24 -107 -26 -262 -18 -342 18 -18 8 -51
17 -73 21 -53 8 -174 77 -248 141 -156 133 -255 347 -256 546 0 195 75 388
205 524 43 44 184 145 222 159 27 9 62 23 78 30 125 55 305 67 465 29z m-2070
-309 c185 -30 306 -91 435 -220 75 -74 99 -106 134 -177 58 -118 81 -210 81
-330 0 -233 -104 -441 -292 -585 -73 -56 -165 -103 -201 -103 -17 0 -38 -6
-46 -14 -24 -20 -154 -46 -235 -46 -70 0 -166 19 -189 38 -7 5 -26 9 -44 9
-18 0 -67 17 -110 38 -196 96 -325 245 -394 456 -31 95 -31 317 -1 408 48 142
117 249 215 334 70 62 169 127 191 127 8 0 17 4 21 9 13 22 214 68 305 69 25
1 83 -5 130 -13z m3964 -20 c27 -8 65 -15 85 -15 82 0 231 -72 340 -164 42
-35 119 -124 132 -151 5 -11 20 -39 33 -62 69 -122 92 -286 62 -438 -25 -125
-68 -215 -150 -312 -43 -52 -159 -150 -196 -166 -8 -4 -22 -11 -30 -15 -143
-81 -361 -113 -540 -77 -71 14 -139 34 -178 54 -171 84 -294 203 -366 354 -35
73 -76 230 -76 289 1 75 38 217 78 300 67 137 213 278 358 345 140 65 340 91
448 58z"/>
</g>
</svg>
