<?xml version="1.0" standalone="no"?>
<!DOCTYPE svg PUBLIC "-//W3C//DTD SVG 20010904//EN"
 "http://www.w3.org/TR/2001/REC-SVG-20010904/DTD/svg10.dtd">
<svg version="1.0" xmlns="http://www.w3.org/2000/svg"
 width="229.000000pt" height="204.000000pt" viewBox="0 0 229.000000 204.000000"
 preserveAspectRatio="xMidYMid meet">

<g transform="translate(0.000000,204.000000) scale(0.100000,-0.100000)"
fill="#000000" stroke="none">
<path d="M1154 1823 c-23 -11 -49 -46 -101 -137 -304 -529 -364 -637 -358
-646 10 -16 87 -63 105 -64 8 -1 51 -22 96 -48 44 -27 85 -48 90 -48 5 0 47
69 94 153 65 116 90 152 105 152 15 0 41 -36 107 -150 48 -82 92 -151 97 -153
5 -2 32 11 59 28 28 17 59 33 70 35 34 6 147 80 150 98 3 14 -19 57 -118 232
-309 544 -323 566 -354 564 -6 0 -25 -7 -42 -16z"/>
<path d="M1122 1013 c-169 -290 -262 -458 -259 -467 10 -31 54 -36 327 -36
283 0 300 2 300 39 -1 9 -65 131 -144 271 -106 188 -149 256 -164 258 -16 3
-29 -12 -60 -65z"/>
<path d="M638 973 c-8 -10 -33 -49 -55 -88 -22 -38 -78 -135 -125 -215 -47
-80 -100 -172 -117 -205 -18 -33 -37 -64 -41 -70 -4 -5 -31 -50 -60 -99 -63
-110 -69 -156 -26 -193 l28 -24 412 2 c467 3 493 5 504 28 4 9 5 90 2 181 l-5
165 -185 5 -185 5 2 25 c0 14 38 89 82 166 45 78 81 146 81 151 0 12 -55 50
-117 81 -22 12 -47 27 -54 35 -18 18 -103 67 -116 67 -5 0 -17 -8 -25 -17z"/>
<path d="M1626 940 c-22 -17 -45 -30 -51 -30 -7 0 -23 -9 -35 -20 -13 -12 -48
-35 -77 -51 l-54 -31 32 -56 c107 -188 149 -266 149 -278 0 -20 -80 -28 -226
-20 -106 5 -133 4 -143 -8 -8 -9 -11 -66 -9 -187 l3 -174 451 -3 c502 -2 471
-7 481 67 5 33 -1 51 -42 122 -26 46 -80 140 -119 209 -308 543 -287 515 -360
460z"/>
<path d="M1540 10 c0 -5 11 -10 25 -10 14 0 25 5 25 10 0 6 -11 10 -25 10 -14
0 -25 -4 -25 -10z"/>
</g>
</svg>
