<?xml version="1.0" standalone="no"?>
<!DOCTYPE svg PUBLIC "-//W3C//DTD SVG 20010904//EN"
 "http://www.w3.org/TR/2001/REC-SVG-20010904/DTD/svg10.dtd">
<svg version="1.0" xmlns="http://www.w3.org/2000/svg"
 width="198.000000pt" height="181.000000pt" viewBox="0 0 198.000000 181.000000"
 preserveAspectRatio="xMidYMid meet">

<g transform="translate(0.000000,181.000000) scale(0.100000,-0.100000)"
fill="#000000" stroke="none">
<path d="M950 1783 c-14 -9 -66 -47 -116 -84 l-92 -68 24 -68 c14 -37 35 -97
48 -133 13 -36 38 -103 55 -150 73 -201 99 -265 107 -265 10 0 224 626 217
637 -8 15 -193 148 -206 148 -7 0 -24 -8 -37 -17z"/>
<path d="M1263 1578 c-5 -7 -17 -35 -26 -63 -8 -27 -48 -144 -87 -260 -39
-115 -68 -215 -66 -222 4 -8 39 12 105 60 325 237 381 279 381 287 0 6 -15 20
-34 32 -18 13 -82 58 -141 101 -59 42 -111 77 -115 77 -4 0 -12 -6 -17 -12z"/>
<path d="M534 1484 c-65 -47 -122 -91 -126 -98 -5 -8 10 -26 40 -48 49 -37
222 -163 258 -188 12 -8 49 -34 82 -57 59 -42 82 -43 67 -5 -8 20 -55 148
-119 326 -44 124 -60 156 -76 156 -3 0 -60 -39 -126 -86z"/>
<path d="M212 1250 c-51 -37 -95 -70 -97 -72 -7 -7 66 -221 79 -235 12 -12
654 -24 658 -12 3 6 -106 90 -232 181 -25 17 -67 48 -95 68 -145 106 -196 140
-207 139 -7 0 -55 -31 -106 -69z"/>
<path d="M1535 1244 c-55 -41 -116 -86 -135 -99 -135 -93 -275 -203 -275 -215
0 -22 621 -38 641 -18 18 18 96 260 86 269 -33 29 -194 139 -204 138 -7 0 -58
-34 -113 -75z"/>
<path d="M226 842 c-8 -13 95 -336 114 -355 4 -5 71 38 148 95 77 56 174 128
217 158 114 82 119 86 111 98 -8 14 -581 17 -590 4z"/>
<path d="M1174 829 c-3 -6 -2 -14 2 -18 13 -11 329 -243 370 -271 12 -8 34
-24 48 -34 23 -16 29 -17 40 -5 25 27 111 298 98 311 -5 5 -94 11 -198 14
-104 2 -226 6 -271 9 -51 2 -85 0 -89 -6z"/>
<path d="M1065 771 c-3 -5 8 -45 24 -88 15 -43 60 -166 99 -273 38 -107 77
-212 86 -232 l16 -38 115 0 c105 0 115 2 125 20 20 36 71 210 68 227 -2 10
-20 29 -40 43 -20 14 -122 88 -228 165 -237 173 -258 187 -265 176z"/>
<path d="M808 713 c-100 -74 -195 -143 -309 -226 -59 -42 -112 -84 -119 -92
-10 -12 -7 -31 14 -102 15 -49 34 -103 41 -120 l15 -33 114 0 c83 0 117 4 125
13 15 19 210 595 203 601 -10 11 -20 6 -84 -41z"/>
<path d="M963 693 c-28 -70 -180 -539 -176 -545 2 -5 92 -8 199 -8 165 0 196
2 200 15 4 8 -10 59 -30 113 -20 53 -64 173 -99 266 -34 93 -68 171 -75 174
-6 2 -15 -5 -19 -15z"/>
</g>
</svg>
