<svg height="500" viewBox="0 0 500 500" width="500" xmlns="http://www.w3.org/2000/svg"><path d="M178.771 458.004h-65.066L93.71 396.466l137.519-99.914zm121.929 0H199.8l50.449-155.273zm105.964-61.63-20.024 61.63h-64.911L269.27 296.551zM87.211 376.465l-31.222-96.093h163.484zm325.951-.091-132.135-96.002h163.328zM219.473 260.372H49.49l-20.127-61.945 52.425-38.089zm251.508-61.945-20.127 61.945H281.027l137.607-99.978zm-69.361-50.394-132.349 96.158 50.553-155.586zM231.228 244.19 98.801 147.977l81.845-59.464zm71.584-167.946-52.563 161.768-52.591-161.859L250.173 38z"/></svg>