<svg height="500" width="500" xmlns="http://www.w3.org/2000/svg">
	<mask id="splits">
		<rect width="500" height="500" fill="white"/>
		<path d="M125 73.2233L375 426.77669M125 426.77669L375 73.2233" stroke="black" stroke-width="20"/>
		<path d="
			M193.62372 152.95139L250 73.2233M306.37627 152.95139L250 73.2233M193.62372 152.95139L306.37627 152.95139
			M193.62372 347.0486L250 426.7767M306.37627 347.0486L250 426.7767M193.62372 347.0486L306.37627 347.0486
			M53.48952 157.03388L184.61324 342.96611M53.48952 342.96611L184.61324 157.03388
			M315.38675 157.03388L446.51047 342.96611M315.38675 342.96611L446.51047 157.03388
		" stroke="black" stroke-width="10"/>
	</mask>
	<path d="m0 250 l125-176.77669h250l125 176.77669l-125 176.77669h-250z" fill-rule="evenodd" fill="black" mask="url(#splits)"/>
</svg>