<?xml version="1.0" standalone="no"?>
<!DOCTYPE svg PUBLIC "-//W3C//DTD SVG 20010904//EN"
 "http://www.w3.org/TR/2001/REC-SVG-20010904/DTD/svg10.dtd">
<svg version="1.0" xmlns="http://www.w3.org/2000/svg"
 width="1536.000000pt" height="1024.000000pt" viewBox="0 0 1536.000000 1024.000000"
 preserveAspectRatio="xMidYMid meet">

<g transform="translate(0.000000,1024.000000) scale(0.100000,-0.100000)"
fill="#000000" stroke="none">
<path d="M5598 10070 l-1117 -5 317 -451 c174 -248 347 -491 383 -540 200
-272 303 -413 391 -536 55 -76 102 -138 106 -138 4 0 23 24 42 52 19 29 83
118 141 198 278 382 503 694 722 1000 132 184 255 356 274 383 l35 47 -89 -2
c-48 -2 -591 -5 -1205 -8z"/>
<path d="M8011 10038 c13 -18 80 -112 149 -208 69 -96 200 -278 290 -405 232
-325 762 -1047 765 -1042 24 33 955 1338 1015 1422 48 66 110 153 138 193 l52
72 -1216 0 -1215 0 22 -32z"/>
<path d="M7345 9909 c-94 -139 -1227 -1747 -1291 -1832 -24 -31 -44 -60 -44
-63 0 -8 2838 1 2846 9 4 3 -107 165 -247 359 -347 484 -704 985 -959 1346
-118 166 -217 302 -220 301 -3 0 -41 -54 -85 -120z"/>
<path d="M3775 9758 c-66 -94 -205 -291 -309 -437 -500 -704 -837 -1181 -842
-1194 -3 -9 51 -90 133 -200 76 -102 183 -247 239 -324 499 -687 1035 -1413
1043 -1412 3 0 36 41 72 92 36 51 185 254 330 452 146 198 405 552 577 787
l312 427 -128 178 c-70 98 -229 318 -352 488 -123 171 -325 452 -450 625 -244
341 -456 632 -486 667 l-19 22 -120 -171z"/>
<path d="M10760 9628 c-118 -161 -265 -365 -326 -453 -62 -88 -283 -398 -491
-689 l-380 -530 185 -265 c611 -879 1076 -1531 1091 -1531 4 0 18 15 31 33
106 142 668 914 890 1222 150 209 326 453 391 542 l118 163 -313 437 c-419
587 -895 1257 -935 1316 -17 26 -35 47 -39 47 -4 0 -104 -132 -222 -292z"/>
<path d="M12491 7577 c-36 -51 -247 -346 -470 -657 -506 -705 -871 -1220 -871
-1226 0 -5 196 -284 831 -1184 212 -300 425 -602 474 -672 49 -71 91 -128 94
-128 3 1 18 17 32 38 14 20 173 240 354 487 551 755 634 870 838 1153 108 150
197 276 197 279 0 3 -49 74 -108 157 -216 301 -1180 1673 -1257 1789 -21 31
-41 57 -44 56 -3 0 -35 -42 -70 -92z"/>
<path d="M2208 7461 c-68 -97 -226 -318 -350 -491 -280 -393 -886 -1244 -917
-1288 l-23 -32 141 -193 c77 -105 220 -300 317 -432 97 -132 343 -467 547
-745 203 -278 377 -513 387 -523 16 -18 29 -1 321 405 482 673 1050 1460 1082
1500 29 37 29 38 12 64 -9 15 -135 187 -278 383 -143 196 -317 435 -387 531
-70 96 -239 328 -375 515 -137 187 -272 372 -300 411 l-52 72 -125 -177z"/>
<path d="M6150 7624 c0 -7 53 -82 290 -409 108 -148 254 -353 325 -455 185
-264 670 -922 685 -928 3 -1 63 75 131 170 184 254 1121 1578 1143 1616 6 9
-254 12 -1283 12 -710 0 -1291 -3 -1291 -6z"/>
<path d="M5339 7043 c-178 -246 -369 -510 -425 -588 -55 -77 -194 -270 -309
-430 -115 -159 -222 -309 -238 -332 l-30 -42 68 -113 c63 -103 359 -531 1043
-1506 140 -200 255 -362 257 -360 40 47 1277 1797 1318 1866 11 17 -1 34 -278
427 -116 165 -287 408 -380 540 -290 414 -375 534 -538 760 -88 121 -160 221
-161 223 -2 1 -149 -199 -327 -445z"/>
<path d="M9117 7348 c-176 -247 -975 -1389 -1221 -1746 l-78 -113 199 -277
c528 -739 1116 -1547 1133 -1557 11 -7 3 -17 661 930 527 758 715 1032 725
1060 3 8 -111 175 -272 397 -153 211 -379 523 -502 693 -332 458 -543 745
-547 745 -2 0 -46 -60 -98 -132z"/>
<path d="M3885 4988 c-77 -106 -366 -510 -642 -898 -277 -388 -524 -732 -548
-765 l-43 -60 22 -30 c12 -16 137 -185 277 -375 342 -464 777 -1051 955 -1292
l146 -197 41 52 c23 29 116 158 207 287 313 444 1053 1485 1083 1523 l30 38
-20 22 c-11 12 -65 85 -120 162 -55 77 -288 401 -518 720 -230 319 -481 668
-558 775 -77 107 -148 203 -157 213 -16 17 -24 8 -155 -175z"/>
<path d="M10738 4997 c-261 -361 -311 -431 -543 -757 -131 -184 -344 -480
-472 -658 l-234 -323 29 -37 c30 -38 547 -753 920 -1272 395 -549 414 -574
426 -559 57 75 319 427 516 694 134 182 339 458 455 615 116 157 246 335 290
395 43 61 90 122 103 137 23 25 24 29 10 45 -9 10 -148 203 -309 428 -161 226
-412 574 -557 775 -146 201 -316 436 -379 522 -63 87 -118 160 -122 163 -5 2
-65 -73 -133 -168z"/>
<path d="M7409 5113 c-9 -21 -90 -137 -181 -258 -235 -312 -1018 -1371 -1056
-1427 -18 -26 -32 -49 -32 -53 0 -3 589 -5 1310 -4 l1310 2 -33 36 c-17 20
-78 100 -135 178 -56 78 -333 450 -615 826 -281 376 -521 696 -532 711 l-20
27 -16 -38z"/>
<path d="M6216 2928 c62 -79 213 -283 334 -449 386 -535 901 -1222 910 -1212
9 10 184 254 415 578 180 251 687 954 776 1075 l48 65 -102 6 c-56 4 -628 7
-1270 8 l-1168 1 57 -72z"/>
<path d="M5594 2672 c-67 -92 -347 -482 -622 -867 -276 -385 -510 -711 -521
-725 l-19 -25 1284 0 c868 0 1283 3 1280 10 -2 6 -120 172 -262 370 -142 198
-426 595 -632 883 -206 287 -377 522 -381 521 -3 0 -60 -75 -127 -167z"/>
<path d="M9064 2712 c-50 -70 -220 -309 -379 -532 -536 -753 -768 -1075 -793
-1102 l-26 -28 1296 0 1296 0 -94 128 c-78 106 -333 460 -1112 1545 -46 64
-87 117 -90 116 -4 0 -48 -57 -98 -127z"/>
</g>
</svg>
