<?xml version="1.0" standalone="no"?>
<!DOCTYPE svg PUBLIC "-//W3C//DTD SVG 20010904//EN"
 "http://www.w3.org/TR/2001/REC-SVG-20010904/DTD/svg10.dtd">
<svg version="1.0" xmlns="http://www.w3.org/2000/svg"
 width="216.000000pt" height="176.000000pt" viewBox="0 0 216.000000 176.000000"
 preserveAspectRatio="xMidYMid meet">

<g transform="translate(0.000000,176.000000) scale(0.100000,-0.100000)"
fill="#000000" stroke="none">
<path d="M526 1648 c45 -73 227 -333 234 -333 7 0 145 196 224 318 l18 27
-241 0 c-191 0 -241 -3 -235 -12z"/>
<path d="M1090 1655 c0 -9 232 -345 238 -345 8 1 226 319 230 337 3 10 -48 13
-232 13 -130 0 -236 -2 -236 -5z"/>
<path d="M954 1493 c-48 -71 -102 -149 -121 -175 l-33 -48 241 0 c189 0 239 3
233 13 -21 35 -226 337 -229 337 -2 0 -43 -57 -91 -127z"/>
<path d="M378 1463 c-52 -76 -98 -144 -102 -150 -7 -13 218 -353 233 -353 7 0
21 19 150 207 l63 92 -117 171 c-65 93 -121 170 -125 170 -4 0 -50 -62 -102
-137z"/>
<path d="M1490 1439 c-61 -89 -114 -167 -116 -174 -6 -14 194 -307 207 -303 4
2 60 79 124 171 l116 168 -103 150 c-57 82 -106 149 -110 149 -4 0 -57 -73
-118 -161z"/>
<path d="M124 1083 c-59 -87 -109 -167 -111 -178 -3 -13 31 -71 97 -165 55
-80 107 -151 114 -158 11 -11 32 13 126 149 63 89 113 168 113 174 0 9 -200
303 -223 328 -4 5 -56 -63 -116 -150z"/>
<path d="M1818 1193 c-19 -26 -72 -103 -117 -170 l-83 -121 112 -161 c62 -89
116 -163 120 -166 9 -6 230 307 230 325 0 10 -195 305 -220 333 -4 5 -23 -13
-42 -40z"/>
<path d="M830 1209 c0 -16 204 -308 215 -308 10 0 215 298 215 312 0 4 -97 7
-215 7 -148 0 -215 -3 -215 -11z"/>
<path d="M654 1058 c-55 -78 -103 -150 -108 -159 -6 -13 20 -57 109 -185 64
-93 119 -170 123 -171 5 -2 187 254 215 303 6 11 -215 346 -232 352 -5 2 -53
-61 -107 -140z"/>
<path d="M1210 1034 c-63 -92 -116 -171 -118 -175 -4 -9 208 -319 217 -319 3
0 59 77 123 171 92 135 115 175 108 189 -18 33 -201 295 -208 298 -5 1 -59
-73 -122 -164z"/>
<path d="M478 813 c-35 -42 -209 -305 -206 -312 10 -28 225 -330 232 -328 6 2
59 74 119 162 82 118 107 162 100 174 -15 31 -218 321 -224 321 -3 0 -13 -8
-21 -17z"/>
<path d="M1475 673 c-59 -86 -109 -163 -112 -172 -4 -17 205 -324 222 -325 8
-1 216 288 231 321 5 11 -213 333 -226 333 -4 0 -55 -70 -115 -157z"/>
<path d="M942 658 l-100 -143 104 -3 c58 -1 149 -1 204 0 l98 3 -93 134 c-52
74 -98 138 -104 144 -5 5 -48 -47 -109 -135z"/>
<path d="M830 450 c0 -9 208 -310 215 -310 5 0 205 289 212 306 4 12 -29 14
-211 14 -130 0 -216 -4 -216 -10z"/>
<path d="M652 277 c-56 -84 -102 -155 -102 -159 0 -10 427 -10 433 -1 6 10
-205 313 -218 312 -5 0 -56 -68 -113 -152z"/>
<path d="M1207 276 c-59 -85 -107 -157 -107 -160 0 -3 99 -6 221 -6 196 0 220
2 215 16 -9 24 -207 304 -215 304 -4 0 -55 -69 -114 -154z"/>
</g>
</svg>
