<svg height="500" viewBox="0 0 500 500" width="500" xmlns="http://www.w3.org/2000/svg"><g transform="matrix(.8526973 0 0 .8526973 3.363515 36.823117)"><path d="m292.637 50.222-42.541 170.076-42.555-170.076z"/><path d="m49.989 207.429 170.379 42.579-170.379 42.571z"/><path d="m227.836 227.996-177.847-47.634v-130.14h130.194.438l47.662 177.774"/><path d="m227.836 272.029-177.847 47.633v130.122h130.194.438l47.662-177.755"/></g><path d="m434.41327 249.91814c4.929-76.658 73.935-190.163003-58.733-190.163003-111.138 0-118.596 96.192003-118.596 190.163003 0 84.969 4.044 186.586 106.526 190.163 142.872 4.987 76.281-104.974 70.803-190.163z"/></svg>