<svg enable-background="new 0 0 500 500" height="500" viewBox="0 0 500 500" width="500" xmlns="http://www.w3.org/2000/svg"><path d="M183.986 450H66.971l159.846-159.848zm107.18 0h-82.332l41.165-153.636zm141.863 0H316.014l-42.832-159.848zM50 433.029V316.013l159.843-42.83zm400-117.016v117.016L290.152 273.182zm-246.365-66.014L50 291.166v-82.333zM450 291.166l-153.634-41.167L450 208.833zm0-107.18-159.851 42.832L450 66.971zm-240.153 42.831L50 183.986V66.971zm16.97-16.97L66.971 50h117.015zm46.365 0L316.014 50h117.015zm-23.183-6.214L208.834 50h82.332z"/></svg>