<svg height="500" viewBox="0 0 500 500" width="500" xmlns="http://www.w3.org/2000/svg"><path d="M139.69 291.98c11.958 31.405 36.925 56.372 68.33 68.33L183.987 450H50V316.013zM291.167 450h-82.333l22.371-83.491a119 119 0 0 0 18.796 1.492c6.39 0 12.668-.511 18.794-1.492zM450 316.013V450H316.013l-24.033-89.69c31.406-11.958 56.372-36.924 68.33-68.33zm-106.829-78.555c.546 4.099.83 8.286.83 12.543a94.1 94.1 0 0 1-3.18 24.343c-8.643 32.34-34.137 57.834-66.477 66.477a94.1 94.1 0 0 1-24.343 3.18 94.1 94.1 0 0 1-24.344-3.18c-28.439-7.601-51.582-28.234-62.63-55.093zm-209.68-6.253a119 119 0 0 0-1.49 18.796c0 6.39.509 12.668 1.49 18.794L50 291.166v-82.333zM450 291.166l-83.491-22.371a119 119 0 0 0 1.492-18.794c0-6.391-.511-12.67-1.492-18.796L450 208.833zM250.001 156.001a94.1 94.1 0 0 1 24.343 3.179c28.439 7.601 51.581 28.234 62.629 55.092l-180.144 48.27a95 95 0 0 1-.828-12.541 94.1 94.1 0 0 1 3.179-24.344c8.643-32.34 34.137-57.834 66.477-66.477a94.1 94.1 0 0 1 24.344-3.179M208.02 139.69c-31.405 11.958-56.372 36.925-68.33 68.33L50 183.987V50h133.987zM450 183.987l-89.69 24.033c-11.958-31.405-36.925-56.372-68.33-68.33L316.013 50H450zm-181.205-50.496a119 119 0 0 0-18.794-1.49c-6.391 0-12.67.509-18.796 1.49L208.834 50h82.333z"/></svg>