<?xml version="1.0" standalone="no"?>
<!DOCTYPE svg PUBLIC "-//W3C//DTD SVG 20010904//EN"
 "http://www.w3.org/TR/2001/REC-SVG-20010904/DTD/svg10.dtd">
<svg version="1.0" xmlns="http://www.w3.org/2000/svg"
 width="318.000000pt" height="320.000000pt" viewBox="0 0 318.000000 320.000000"
 preserveAspectRatio="xMidYMid meet">

<g transform="translate(0.000000,320.000000) scale(0.100000,-0.100000)"
fill="#000000" stroke="none">
<path d="M105 3108 l-44 -43 -3 -197 -4 -197 40 -40 c28 -27 53 -41 80 -45 81
-13 82 -13 100 -79 34 -121 94 -239 159 -311 49 -54 58 -59 104 -63 l50 -5 57
67 c54 64 57 70 51 106 -19 111 -3 164 57 195 25 13 48 15 112 10 l81 -6 59
53 59 53 -6 58 c-5 52 -11 64 -49 103 -48 49 -175 116 -297 154 -79 26 -91 39
-91 105 0 26 -10 45 -41 79 l-42 45 -194 0 -194 0 -44 -42z"/>
<path d="M2585 3099 c-26 -23 -33 -39 -38 -80 -9 -77 -25 -93 -119 -125 -202
-66 -312 -135 -324 -202 -3 -20 -8 -45 -10 -54 -6 -20 56 -92 95 -113 20 -10
40 -11 85 -4 73 12 111 1 157 -47 l34 -35 -3 -98 c-2 -87 0 -100 18 -116 11
-10 20 -23 20 -30 0 -6 10 -21 23 -33 25 -24 86 -30 130 -13 52 20 149 188
202 351 23 71 29 78 74 85 74 12 110 26 130 52 20 24 21 39 21 220 l0 195 -34
34 c-31 31 -39 34 -97 35 -35 0 -124 2 -198 4 l-133 3 -33 -29z"/>
<path d="M714 3087 c-34 -19 0 -74 61 -97 46 -18 101 -14 174 10 100 34 148
14 196 -83 15 -29 42 -75 62 -104 61 -88 58 -132 -16 -249 -24 -38 -33 -65
-36 -110 -5 -66 11 -159 31 -175 22 -18 63 -1 116 49 59 55 75 83 88 155 13
69 28 104 48 113 10 3 66 8 125 9 100 3 110 2 136 -20 21 -19 30 -38 40 -91 6
-37 19 -80 27 -96 19 -37 89 -105 128 -125 29 -15 31 -14 52 10 26 31 40 114
31 189 -5 36 -19 70 -48 114 -60 93 -58 140 15 250 22 35 53 84 68 109 19 31
40 51 65 62 37 15 41 15 119 -12 63 -22 90 -27 123 -21 56 9 97 30 117 62 36
54 64 52 -859 56 -467 2 -855 -1 -863 -5z"/>
<path d="M113 2488 c-4 -7 -9 -391 -11 -853 -3 -731 -1 -843 12 -860 18 -24
40 -14 73 34 37 55 40 115 10 199 -14 40 -24 80 -21 90 15 47 34 67 99 104 38
22 84 51 100 63 42 31 100 48 139 41 18 -3 61 -25 97 -49 l64 -42 95 0 c100 0
150 17 150 50 0 25 -46 90 -91 128 -33 29 -59 40 -121 54 -51 11 -88 25 -103
39 -24 22 -25 29 -25 134 0 103 2 113 24 134 14 15 45 28 82 35 109 22 171 64
220 149 34 59 -15 91 -141 91 -72 1 -103 -10 -190 -65 -60 -37 -127 -30 -203
22 -31 22 -74 48 -95 59 -94 48 -117 113 -77 217 23 60 25 109 9 159 -22 63
-74 100 -96 67z"/>
<path d="M2968 2462 c-39 -47 -54 -115 -38 -171 38 -135 39 -142 29 -169 -15
-39 -38 -61 -93 -89 -27 -14 -73 -41 -102 -60 -95 -63 -151 -63 -247 3 -59 40
-97 48 -195 41 -132 -10 -144 -54 -44 -157 54 -56 61 -59 139 -76 119 -25 128
-36 129 -172 1 -59 -3 -115 -7 -124 -13 -25 -43 -38 -117 -54 -87 -18 -145
-54 -187 -117 -41 -60 -42 -68 -15 -92 16 -14 42 -19 123 -22 l102 -5 75 46
c111 68 120 66 311 -49 119 -72 143 -126 99 -224 -38 -83 -17 -197 42 -231 21
-11 30 -12 39 -3 16 16 16 52 21 988 l3 760 -21 3 c-14 2 -30 -7 -46 -26z"/>
<path d="M1205 1956 c-13 -19 -15 -36 -10 -68 17 -102 64 -164 154 -199 69
-27 91 -45 91 -74 0 -29 -25 -49 -87 -69 -71 -23 -127 -80 -147 -147 -35 -117
-14 -155 83 -146 98 8 167 65 207 169 25 65 27 68 59 68 38 0 49 -11 70 -71
35 -100 109 -162 209 -175 40 -6 50 -4 72 17 24 22 25 29 20 77 -12 100 -69
173 -162 207 -61 23 -84 42 -84 70 0 28 12 38 78 63 29 11 68 32 87 46 47 36
85 117 85 183 0 60 -14 73 -76 73 -103 0 -186 -62 -224 -168 -28 -75 -54 -95
-94 -68 -14 9 -30 33 -36 53 -17 62 -52 115 -98 147 -35 25 -55 31 -111 34
-65 4 -70 3 -86 -22z"/>
<path d="M2519 1080 c-15 -11 -39 -37 -55 -57 -27 -36 -29 -42 -26 -124 3 -81
2 -87 -24 -119 -29 -34 -83 -63 -106 -56 -7 3 -39 7 -71 10 l-58 6 -54 -51
c-48 -46 -55 -57 -55 -91 0 -88 47 -139 195 -208 44 -21 112 -48 152 -61 79
-25 93 -43 93 -117 0 -27 9 -43 39 -74 l40 -39 200 3 201 3 31 31 c40 41 45
68 48 269 l2 170 -34 33 c-27 26 -46 35 -90 41 -31 4 -63 13 -71 20 -8 7 -22
38 -31 69 -35 122 -88 234 -138 288 -50 55 -57 59 -122 68 -31 5 -46 1 -66
-14z"/>
<path d="M474 1080 c-48 -20 -109 -125 -164 -285 -15 -44 -31 -88 -35 -97 -8
-20 -56 -38 -101 -38 -20 0 -44 -10 -63 -26 l-31 -26 0 -192 0 -192 33 -31 32
-31 190 -6 c184 -7 192 -6 217 14 20 15 29 33 33 68 14 100 13 100 175 153 91
30 203 86 231 115 18 19 24 39 27 87 4 63 4 63 -37 100 l-41 37 -90 -2 -90 -3
-52 52 c-52 52 -52 53 -50 110 1 32 4 70 7 84 5 20 -3 37 -27 70 -32 42 -37
44 -88 46 -30 1 -64 -2 -76 -7z"/>
<path d="M1171 962 c-19 -36 -31 -142 -21 -193 10 -54 21 -78 55 -124 28 -38
40 -101 25 -140 -6 -17 -26 -52 -44 -80 -19 -27 -46 -72 -60 -98 -48 -84 -111
-106 -189 -65 -57 30 -137 30 -194 0 -43 -23 -66 -63 -46 -83 10 -10 780 -24
1363 -24 l355 0 0 30 c0 22 -8 35 -33 52 -53 35 -116 40 -189 15 -115 -41
-168 -21 -219 80 -14 28 -39 68 -55 91 -35 48 -53 109 -45 152 4 17 24 55 45
84 45 60 57 116 46 211 -13 108 -49 124 -137 57 -54 -41 -86 -98 -100 -178 -7
-42 -19 -70 -34 -86 -21 -21 -31 -23 -133 -23 -139 0 -155 10 -177 115 -18 89
-57 151 -118 193 -55 36 -81 40 -95 14z"/>
</g>
</svg>
