<?xml version="1.0" standalone="no"?>
<!DOCTYPE svg PUBLIC "-//W3C//DTD SVG 20010904//EN"
 "http://www.w3.org/TR/2001/REC-SVG-20010904/DTD/svg10.dtd">
<svg version="1.0" xmlns="http://www.w3.org/2000/svg"
 width="467.000000pt" height="438.000000pt" viewBox="0 0 467.000000 438.000000"
 preserveAspectRatio="xMidYMid meet">

<g transform="translate(0.000000,438.000000) scale(0.100000,-0.100000)"
fill="#000000" stroke="none">
<path d="M2110 4060 c0 -6 -30 -10 -70 -10 -40 0 -70 -4 -70 -10 0 -6 -27 -10
-60 -10 -33 0 -60 -4 -60 -10 0 -5 -18 -10 -40 -10 -22 0 -40 -4 -40 -10 0 -5
-18 -10 -40 -10 -22 0 -40 -4 -40 -10 0 -5 -13 -10 -30 -10 -16 0 -30 -4 -30
-10 0 -5 -13 -10 -30 -10 -16 0 -30 -4 -30 -10 0 -5 -13 -10 -30 -10 -16 0
-30 -4 -30 -10 0 -5 -9 -10 -20 -10 -11 0 -20 -4 -20 -10 0 -5 -9 -10 -20 -10
-20 0 -20 -7 -20 -290 l0 -290 451 0 c426 0 451 1 443 18 -5 9 -10 180 -12
380 l-2 362 -100 0 c-60 0 -100 -4 -100 -10z"/>
<path d="M2510 3710 c0 -233 -4 -360 -10 -360 -5 0 -10 -9 -10 -20 0 -20 7
-20 460 -20 l460 0 0 276 c0 298 -1 304 -54 304 -14 0 -26 5 -26 10 0 6 -9 10
-20 10 -11 0 -20 5 -20 10 0 6 -13 10 -30 10 -16 0 -30 5 -30 10 0 6 -13 10
-30 10 -16 0 -30 5 -30 10 0 6 -13 10 -30 10 -16 0 -30 5 -30 10 0 6 -18 10
-40 10 -22 0 -40 5 -40 10 0 6 -18 10 -40 10 -22 0 -40 5 -40 10 0 6 -27 10
-60 10 -33 0 -60 4 -60 10 0 6 -30 10 -70 10 -40 0 -70 4 -70 10 0 6 -37 10
-90 10 l-90 0 0 -360z"/>
<path d="M1210 3780 c0 -5 -9 -10 -20 -10 -11 0 -20 -4 -20 -10 0 -5 -8 -10
-18 -10 -10 0 -24 -9 -32 -20 -8 -11 -21 -20 -30 -20 -9 0 -22 -9 -30 -20 -8
-11 -21 -20 -28 -20 -8 0 -27 -13 -42 -30 -15 -16 -33 -30 -39 -30 -6 0 -11
-4 -11 -10 0 -5 -5 -10 -10 -10 -16 0 -227 -216 -235 -239 -3 -12 -11 -21 -16
-21 -5 0 -9 -4 -9 -10 0 -6 100 -10 280 -10 l280 0 0 240 c0 153 -4 240 -10
240 -5 0 -10 -4 -10 -10z"/>
<path d="M3610 3540 l0 -230 260 0 c167 0 260 4 260 10 0 6 -4 10 -9 10 -5 0
-13 9 -16 21 -8 23 -219 239 -235 239 -5 0 -10 5 -10 10 0 6 -5 10 -11 10 -6
0 -24 14 -39 30 -15 17 -33 30 -39 30 -6 0 -11 5 -11 10 0 6 -7 10 -15 10 -8
0 -15 5 -15 10 0 6 -8 10 -18 10 -10 0 -24 9 -32 20 -8 11 -22 20 -32 20 -10
0 -18 5 -18 10 0 6 -4 10 -10 10 -6 0 -10 -83 -10 -230z"/>
<path d="M1453 3205 c-22 -24 -23 -30 -23 -230 0 -130 4 -205 10 -205 6 0 10
-7 10 -16 0 -41 18 -44 260 -44 l231 0 24 25 c25 24 25 24 25 235 0 211 0 211
-25 235 l-24 25 -233 -1 c-233 0 -233 0 -255 -24z"/>
<path d="M2183 3215 c-20 -22 -18 -471 1 -491 12 -11 57 -14 236 -14 l221 0
24 25 25 24 0 221 c0 179 -3 224 -14 236 -21 21 -475 20 -493 -1z"/>
<path d="M2903 3215 c-10 -10 -13 -73 -13 -235 l0 -221 25 -24 24 -25 221 0
c231 0 250 3 250 44 0 9 5 16 10 16 6 0 10 75 10 205 0 205 0 206 -25 230
l-24 25 -233 0 c-188 -1 -235 -3 -245 -15z"/>
<path d="M350 2820 l0 -390 390 0 390 0 0 390 0 390 -390 0 -390 0 0 -390z"/>
<path d="M3630 2820 l0 -390 390 0 390 0 0 390 0 390 -390 0 -390 0 0 -390z"/>
<path d="M350 1700 l0 -390 390 0 390 0 0 390 0 390 -390 0 -390 0 0 -390z"/>
<path d="M3630 1700 l0 -390 390 0 390 0 0 390 0 390 -390 0 -390 0 0 -390z"/>
<path d="M1463 1775 c-7 -8 -13 -21 -13 -30 0 -8 -4 -15 -10 -15 -6 0 -10 -75
-10 -205 l0 -206 35 -34 34 -35 211 0 211 0 34 35 35 34 0 206 c0 130 -4 205
-10 205 -5 0 -10 7 -10 16 0 41 -18 44 -262 44 -188 -1 -235 -3 -245 -15z"/>
<path d="M2183 1775 c-10 -10 -13 -75 -13 -245 l0 -231 25 -24 c24 -25 24 -25
235 -25 211 0 211 0 235 25 l25 24 0 221 0 221 -25 24 -24 25 -223 0 c-180 -1
-225 -4 -235 -15z"/>
<path d="M2913 1765 c-22 -24 -23 -30 -23 -245 l0 -221 25 -24 c24 -25 24 -25
235 -25 l211 0 34 35 35 34 0 206 c0 130 -4 205 -10 205 -5 0 -10 7 -10 16 0
41 -19 44 -252 43 -222 0 -223 0 -245 -24z"/>
<path d="M350 580 l0 -390 390 0 390 0 0 390 0 390 -390 0 -390 0 0 -390z"/>
<path d="M1430 580 l0 -390 390 0 390 0 0 390 0 390 -390 0 -390 0 0 -390z"/>
<path d="M2530 580 l0 -390 390 0 390 0 0 390 0 390 -390 0 -390 0 0 -390z"/>
<path d="M3630 580 l0 -390 390 0 390 0 0 390 0 390 -390 0 -390 0 0 -390z"/>
</g>
</svg>
