<svg id="svg" version="1.1" xmlns="http://www.w3.org/2000/svg" xmlns:xlink="http://www.w3.org/1999/xlink" width="400" height="399.2063492063492" viewBox="0, 0, 400,399.2063492063492"><g id="svgg"><path id="path0" d="M0.000 199.800 L 0.000 399.600 200.000 399.600 L 400.000 399.600 400.000 199.800 L 400.000 0.000 200.000 0.000 L 0.000 0.000 0.000 199.800 M256.344 9.191 C 256.479 9.411,257.451 9.590,258.504 9.590 C 261.065 9.590,262.772 10.504,263.591 12.314 C 264.276 13.829,270.789 20.779,271.523 20.779 C 271.749 20.779,276.247 25.095,281.518 30.370 C 286.790 35.644,291.285 39.960,291.508 39.960 C 291.732 39.960,296.317 44.366,301.698 49.750 C 307.080 55.135,311.627 59.540,311.803 59.540 C 311.980 59.540,312.589 60.005,313.156 60.572 L 314.188 61.604 312.455 63.369 C 311.502 64.340,310.527 65.135,310.288 65.135 C 310.048 65.135,309.150 65.854,308.292 66.733 C 307.433 67.612,306.534 68.332,306.294 68.332 C 306.053 68.332,305.154 69.051,304.296 69.930 C 303.437 70.809,302.538 71.528,302.298 71.528 C 302.057 71.528,301.158 72.248,300.300 73.127 C 299.441 74.006,298.542 74.725,298.302 74.725 C 298.061 74.725,297.162 75.445,296.304 76.324 C 295.445 77.203,294.546 77.922,294.306 77.922 C 294.065 77.922,293.166 78.641,292.308 79.520 C 291.449 80.400,290.576 81.119,290.367 81.119 C 290.158 81.119,289.036 81.973,287.872 83.017 C 286.709 84.061,284.848 85.634,283.735 86.513 C 279.776 89.643,277.500 91.490,275.880 92.888 C 274.977 93.668,274.070 94.306,273.864 94.306 C 273.657 94.306,272.787 95.025,271.928 95.904 C 271.070 96.783,270.171 97.502,269.930 97.502 C 269.690 97.502,268.791 98.222,267.932 99.101 C 267.074 99.980,266.175 100.699,265.934 100.699 C 265.694 100.699,264.795 101.419,263.936 102.298 C 263.078 103.177,262.179 103.896,261.938 103.896 C 261.698 103.896,260.798 104.615,259.940 105.495 C 259.082 106.374,258.183 107.093,257.942 107.093 C 257.702 107.093,256.802 107.812,255.944 108.691 L 254.383 110.290 241.301 110.290 C 233.011 110.290,228.129 110.436,227.972 110.689 C 227.816 110.942,223.000 111.089,214.842 111.089 C 207.030 111.089,201.805 111.242,201.570 111.477 C 201.343 111.704,195.844 111.954,188.403 112.076 C 181.375 112.192,169.964 112.382,163.046 112.498 C 155.743 112.621,150.304 112.873,150.079 113.098 C 149.220 113.957,130.477 113.579,129.670 112.687 C 129.273 112.248,128.743 111.888,128.494 111.888 C 128.246 111.888,127.156 110.989,126.074 109.890 C 124.992 108.791,123.913 107.892,123.676 107.892 C 123.440 107.892,122.361 106.993,121.279 105.894 C 120.196 104.795,119.119 103.896,118.884 103.896 C 118.649 103.896,117.389 102.817,116.084 101.499 C 114.779 100.180,113.543 99.101,113.338 99.101 C 113.132 99.101,112.007 98.247,110.838 97.203 C 109.668 96.159,107.673 94.447,106.404 93.398 C 105.134 92.350,102.927 90.510,101.499 89.311 C 98.271 86.601,95.167 84.026,92.308 81.686 C 91.099 80.697,89.050 78.951,87.755 77.806 C 86.459 76.661,85.224 75.657,85.009 75.575 C 84.794 75.493,83.337 74.191,81.770 72.683 C 80.203 71.175,78.776 69.938,78.598 69.935 C 78.037 69.926,74.725 66.628,74.725 66.079 C 74.725 65.790,75.916 64.336,77.372 62.847 C 78.827 61.358,81.210 58.800,82.666 57.163 C 84.123 55.526,86.149 53.326,87.168 52.273 C 88.188 51.221,90.788 48.424,92.948 46.059 C 97.109 41.501,100.219 38.167,108.292 29.613 C 111.039 26.702,113.352 24.137,113.432 23.912 C 113.895 22.612,121.126 15.925,121.623 16.338 C 122.216 16.830,124.187 16.054,125.082 14.977 C 125.352 14.652,125.792 14.386,126.061 14.386 C 126.330 14.386,126.875 14.026,127.273 13.586 C 127.671 13.147,128.407 12.787,128.909 12.787 C 129.412 12.787,129.934 12.607,130.070 12.388 C 130.206 12.168,130.745 11.988,131.269 11.988 C 131.792 11.988,132.332 11.808,132.468 11.588 C 132.611 11.357,134.795 11.189,137.662 11.189 C 140.530 11.189,142.714 11.021,142.857 10.789 C 143.017 10.531,150.579 10.390,164.236 10.390 C 177.892 10.390,185.455 10.248,185.614 9.990 C 185.774 9.732,193.469 9.590,207.393 9.590 C 221.316 9.590,229.011 9.449,229.171 9.191 C 229.508 8.645,256.006 8.645,256.344 9.191 M350.050 11.668 C 350.050 12.041,350.157 12.041,350.529 11.668 C 351.107 11.091,355.644 11.020,355.644 11.588 C 355.644 11.810,356.710 11.988,358.042 11.988 C 359.374 11.988,360.440 12.166,360.440 12.388 C 360.440 12.607,360.844 12.804,361.339 12.823 C 362.678 12.877,366.162 14.888,366.665 15.897 C 366.906 16.381,367.417 17.124,367.800 17.547 C 368.618 18.451,368.505 18.566,360.245 25.175 C 359.009 26.164,357.223 27.647,356.277 28.472 C 355.330 29.296,354.396 29.971,354.201 29.973 C 354.006 29.974,353.127 30.685,352.248 31.552 C 351.369 32.418,350.461 33.136,350.231 33.147 C 350.001 33.158,349.110 33.886,348.252 34.765 C 347.393 35.644,346.503 36.365,346.273 36.367 C 346.042 36.369,344.955 37.261,343.856 38.348 C 342.757 39.436,341.678 40.335,341.459 40.346 C 341.239 40.356,340.340 41.075,339.461 41.941 C 338.581 42.808,337.674 43.526,337.444 43.537 C 337.214 43.548,336.323 44.276,335.465 45.155 C 334.606 46.034,333.707 46.753,333.467 46.753 C 333.226 46.753,332.327 47.473,331.469 48.352 C 330.610 49.231,329.711 49.950,329.471 49.950 C 329.230 49.950,328.331 50.669,327.473 51.548 C 326.614 52.428,325.712 53.147,325.468 53.147 C 325.224 53.147,324.508 53.686,323.876 54.346 C 323.244 55.005,322.548 55.544,322.329 55.544 C 322.109 55.544,321.544 55.907,321.072 56.350 L 320.215 57.155 319.486 56.350 C 319.085 55.907,318.559 55.544,318.317 55.544 C 318.074 55.544,313.383 51.049,307.892 45.554 C 302.401 40.060,297.725 35.564,297.502 35.564 C 297.279 35.564,292.874 31.339,287.712 26.174 C 282.551 21.009,278.139 16.783,277.909 16.783 C 277.678 16.783,276.726 16.006,275.793 15.055 C 272.580 11.781,270.655 11.988,304.338 11.988 C 323.890 11.988,334.066 11.851,334.066 11.588 C 334.066 11.335,336.996 11.189,342.058 11.189 C 348.008 11.189,350.050 11.311,350.050 11.668 M112.227 13.313 C 112.562 13.717,112.203 14.294,110.677 15.796 C 109.585 16.872,108.691 17.941,108.691 18.173 C 108.691 18.404,106.354 20.925,103.497 23.776 C 100.639 26.627,98.302 29.145,98.302 29.371 C 98.302 29.597,95.964 32.114,93.107 34.965 C 90.250 37.816,87.912 40.323,87.912 40.535 C 87.912 40.748,85.619 43.314,82.817 46.236 C 80.015 49.159,75.663 53.707,73.145 56.344 C 68.055 61.677,67.869 61.759,65.683 59.638 C 64.832 58.813,63.506 57.695,62.737 57.154 C 61.968 56.612,60.678 55.489,59.871 54.658 C 59.065 53.827,58.250 53.147,58.061 53.147 C 57.872 53.147,56.775 52.248,55.622 51.149 C 54.470 50.050,53.391 49.151,53.225 49.151 C 53.058 49.151,51.979 48.252,50.827 47.153 C 49.675 46.054,48.601 45.155,48.440 45.155 C 48.279 45.155,47.425 44.474,46.542 43.643 C 45.659 42.811,44.566 41.867,44.113 41.545 C 43.660 41.223,42.339 40.150,41.178 39.161 C 38.326 36.731,35.338 34.208,32.184 31.568 C 30.740 30.360,28.865 28.786,28.017 28.072 C 27.170 27.358,26.356 26.773,26.209 26.773 C 25.160 26.773,23.576 24.908,23.576 23.673 C 23.576 21.752,26.430 17.582,27.744 17.582 C 28.089 17.582,28.372 17.403,28.372 17.183 C 28.372 16.963,28.731 16.783,29.171 16.783 C 29.610 16.783,29.970 16.603,29.970 16.384 C 29.970 16.164,30.509 15.984,31.169 15.984 C 31.828 15.984,32.368 15.804,32.368 15.584 C 32.368 15.336,34.558 15.185,38.138 15.185 C 41.554 15.185,44.010 15.022,44.156 14.785 C 44.311 14.533,48.748 14.386,56.144 14.386 C 63.540 14.386,67.976 14.238,68.132 13.986 C 68.288 13.733,73.190 13.586,81.518 13.586 C 89.847 13.586,94.749 13.440,94.905 13.187 C 95.305 12.539,111.684 12.659,112.227 13.313 M375.824 25.574 C 376.222 26.014,376.761 26.374,377.023 26.374 C 378.038 26.374,380.819 30.797,380.819 32.412 C 380.819 32.801,380.999 33.231,381.219 33.367 C 381.475 33.525,381.618 39.490,381.618 49.950 C 381.618 60.410,381.762 66.375,382.018 66.533 C 382.277 66.694,382.418 75.246,382.418 90.884 C 382.418 117.651,382.453 117.290,380.063 114.731 C 379.423 114.047,378.746 113.487,378.558 113.487 C 378.370 113.487,373.813 109.081,368.432 103.696 C 363.050 98.312,358.465 93.906,358.242 93.906 C 358.019 93.906,353.523 89.590,348.252 84.316 C 342.980 79.041,338.484 74.725,338.260 74.725 C 337.156 74.725,325.536 62.387,326.053 61.763 C 326.338 61.420,326.781 61.139,327.037 61.139 C 327.293 61.139,328.388 60.240,329.471 59.141 C 330.553 58.042,331.634 57.143,331.872 57.143 C 332.110 57.143,333.008 56.424,333.866 55.544 C 334.725 54.665,335.624 53.946,335.864 53.946 C 336.105 53.946,337.004 53.227,337.862 52.348 C 338.721 51.469,339.618 50.749,339.856 50.749 C 340.095 50.749,341.175 49.850,342.258 48.751 C 343.340 47.652,344.424 46.753,344.665 46.753 C 344.907 46.753,345.622 46.214,346.254 45.554 C 346.885 44.895,347.602 44.356,347.846 44.356 C 348.090 44.356,348.992 43.636,349.850 42.757 C 350.709 41.878,351.582 41.159,351.791 41.159 C 352.000 41.159,353.114 40.305,354.267 39.261 C 355.419 38.217,357.115 36.823,358.034 36.164 C 358.953 35.504,360.475 34.291,361.416 33.467 C 362.357 32.642,363.293 31.968,363.496 31.968 C 363.700 31.968,364.752 31.069,365.834 29.970 C 366.917 28.871,367.979 27.972,368.195 27.972 C 368.411 27.972,369.081 27.500,369.683 26.923 C 372.007 24.696,374.529 24.143,375.824 25.574 M20.120 28.559 C 20.243 28.881,20.176 29.249,19.971 29.376 C 19.228 29.835,24.258 35.964,25.377 35.964 C 25.612 35.964,26.690 36.863,27.772 37.962 C 28.855 39.061,29.934 39.960,30.170 39.960 C 30.406 39.960,31.485 40.859,32.567 41.958 C 33.650 43.057,34.706 43.956,34.914 43.956 C 35.122 43.956,36.207 44.773,37.326 45.771 C 39.299 47.531,42.213 49.997,46.753 53.746 C 47.962 54.745,50.120 56.543,51.548 57.742 C 52.977 58.942,55.186 60.781,56.457 61.830 C 57.728 62.878,59.706 64.583,60.852 65.618 L 62.937 67.499 59.241 71.220 C 57.208 73.266,55.544 75.119,55.544 75.338 C 55.544 75.557,53.207 78.068,50.350 80.919 C 47.493 83.770,45.155 86.287,45.155 86.513 C 45.155 86.740,42.817 89.257,39.960 92.108 C 37.103 94.959,34.765 97.476,34.765 97.702 C 34.765 97.928,32.428 100.446,29.570 103.297 C 26.713 106.148,24.376 108.665,24.376 108.891 C 24.376 109.118,22.130 111.543,19.385 114.282 C 12.439 121.211,13.056 122.698,12.705 98.188 C 11.816 36.037,11.830 34.205,13.223 33.344 C 13.423 33.221,13.586 32.807,13.586 32.425 C 13.586 30.323,19.462 26.845,20.120 28.559 M331.857 78.721 C 332.066 78.721,336.517 82.992,341.749 88.212 C 346.981 93.432,351.483 97.769,351.754 97.851 C 352.026 97.934,356.612 102.339,361.947 107.642 C 367.281 112.944,371.846 117.351,372.092 117.434 C 372.729 117.651,383.717 128.763,384.316 129.796 C 384.590 130.271,384.815 131.010,384.815 131.440 C 384.815 131.869,384.995 132.332,385.215 132.468 C 385.469 132.625,385.614 137.992,385.614 147.253 C 385.614 156.514,385.759 161.881,386.014 162.038 C 386.272 162.198,386.414 169.893,386.414 183.816 C 386.414 197.739,386.555 205.435,386.813 205.594 C 387.071 205.754,387.213 212.961,387.213 225.907 L 387.213 245.973 384.016 249.151 C 382.258 250.899,380.819 252.518,380.819 252.749 C 380.819 252.979,379.560 254.417,378.022 255.944 C 376.484 257.471,375.225 258.909,375.225 259.140 C 375.225 259.370,373.786 260.989,372.028 262.737 C 370.270 264.485,368.831 266.087,368.831 266.297 C 368.831 266.675,366.678 269.085,359.940 276.251 C 358.017 278.296,356.444 280.143,356.444 280.355 C 356.444 280.567,355.185 281.990,353.646 283.516 C 352.108 285.043,350.849 286.483,350.849 286.715 C 350.849 286.948,349.770 288.206,348.452 289.510 C 347.133 290.815,346.054 292.073,346.054 292.305 C 346.054 292.536,344.615 294.156,342.857 295.904 C 341.099 297.652,339.660 299.271,339.660 299.502 C 339.660 299.733,338.402 301.171,336.863 302.697 C 335.325 304.224,334.066 305.664,334.066 305.897 C 334.066 306.130,333.088 307.287,331.893 308.467 L 329.719 310.614 326.852 307.655 C 325.274 306.027,323.510 304.071,322.931 303.309 C 322.352 302.546,321.180 301.197,320.327 300.312 C 319.474 299.426,317.952 297.712,316.944 296.503 C 314.942 294.102,312.691 291.570,308.092 286.546 C 306.444 284.745,305.030 283.088,304.952 282.864 C 304.873 282.640,303.569 281.180,302.054 279.620 C 300.540 278.059,299.301 276.627,299.301 276.436 C 299.301 276.246,297.862 274.667,296.104 272.927 C 294.346 271.188,292.907 269.568,292.907 269.328 C 292.907 269.089,291.648 267.651,290.110 266.134 C 288.571 264.617,287.313 263.193,287.313 262.971 C 287.313 262.749,285.874 261.093,284.116 259.292 C 282.358 257.490,280.919 255.867,280.919 255.683 C 280.919 255.500,279.660 254.077,278.122 252.520 C 276.583 250.963,275.325 249.531,275.325 249.338 C 275.325 249.144,273.886 247.499,272.128 245.680 C 270.370 243.862,268.931 242.222,268.931 242.035 C 268.931 241.848,268.254 241.035,267.427 240.228 C 266.600 239.421,264.937 237.597,263.731 236.173 C 262.525 234.750,261.320 233.351,261.054 233.063 C 260.710 232.692,260.683 232.242,260.961 231.510 C 261.212 230.851,261.336 209.420,261.305 172.152 L 261.258 113.824 262.167 112.856 C 262.667 112.324,263.250 111.888,263.462 111.888 C 263.673 111.888,264.625 111.214,265.576 110.390 C 266.527 109.565,268.217 108.172,269.331 107.293 C 270.445 106.414,272.134 105.020,273.085 104.196 C 274.037 103.372,274.983 102.697,275.188 102.697 C 275.394 102.697,276.264 101.978,277.123 101.099 C 277.981 100.220,278.880 99.500,279.121 99.500 C 279.361 99.500,280.260 98.781,281.119 97.902 C 281.977 97.023,282.876 96.304,283.117 96.304 C 283.357 96.304,284.256 95.584,285.115 94.705 C 285.973 93.826,286.872 93.107,287.113 93.107 C 287.353 93.107,288.252 92.388,289.111 91.508 C 289.969 90.629,290.868 89.910,291.109 89.910 C 291.349 89.910,292.248 89.191,293.107 88.312 C 293.965 87.433,294.864 86.713,295.105 86.713 C 295.345 86.713,296.244 85.994,297.103 85.115 C 297.961 84.236,298.860 83.516,299.101 83.516 C 299.341 83.516,300.240 82.797,301.099 81.918 C 301.957 81.039,302.856 80.320,303.097 80.320 C 303.337 80.320,304.236 79.600,305.095 78.721 C 305.953 77.842,306.852 77.123,307.093 77.123 C 307.333 77.123,308.232 76.404,309.091 75.524 C 309.949 74.645,310.847 73.926,311.085 73.926 C 311.324 73.926,312.404 73.027,313.487 71.928 C 314.569 70.829,315.650 69.930,315.888 69.930 C 316.126 69.930,317.027 69.208,317.889 68.325 L 319.457 66.719 325.467 72.720 C 328.773 76.021,331.649 78.721,331.857 78.721 M70.929 73.926 C 71.788 74.805,72.685 75.524,72.923 75.524 C 73.162 75.524,74.242 76.424,75.325 77.522 C 76.407 78.621,77.486 79.520,77.722 79.520 C 77.959 79.520,79.038 80.420,80.120 81.518 C 81.202 82.617,82.281 83.516,82.517 83.516 C 82.754 83.516,83.833 84.416,84.915 85.514 C 85.997 86.613,87.078 87.512,87.316 87.512 C 87.555 87.512,88.452 88.232,89.311 89.111 C 90.169 89.990,91.017 90.709,91.195 90.709 C 91.373 90.709,92.460 91.607,93.611 92.703 C 94.762 93.800,95.839 94.699,96.003 94.701 C 96.167 94.703,96.977 95.352,97.801 96.141 C 98.626 96.931,99.930 98.055,100.699 98.639 C 101.469 99.223,102.768 100.310,103.588 101.055 C 104.407 101.801,105.486 102.689,105.986 103.030 C 106.485 103.371,106.983 103.755,107.093 103.883 C 107.203 104.012,108.457 105.101,109.880 106.304 C 111.304 107.507,112.666 108.672,112.908 108.893 C 113.150 109.114,115.087 110.729,117.213 112.482 L 121.079 115.670 121.084 117.675 C 121.087 118.778,121.264 123.636,121.478 128.472 C 121.692 133.307,122.141 144.186,122.476 152.647 C 123.115 168.773,123.602 180.522,124.281 196.204 C 124.943 211.506,125.475 224.738,125.710 231.768 C 125.831 235.395,126.076 238.721,126.254 239.161 C 127.432 242.069,127.447 241.866,125.922 243.654 C 123.707 246.251,120.836 249.715,118.881 252.148 C 116.009 255.722,113.412 258.821,111.389 261.088 C 110.345 262.257,109.491 263.383,109.491 263.590 C 109.491 263.797,108.591 264.852,107.493 265.934 C 106.394 267.016,105.495 268.095,105.495 268.332 C 105.495 268.568,104.595 269.647,103.497 270.729 C 102.398 271.812,101.499 272.892,101.499 273.131 C 101.499 273.369,100.779 274.266,99.900 275.125 C 99.021 275.983,98.302 276.881,98.302 277.119 C 98.302 277.357,97.403 278.438,96.304 279.520 C 95.205 280.603,94.306 281.682,94.306 281.918 C 94.306 282.154,93.407 283.233,92.308 284.316 C 91.209 285.398,90.310 286.477,90.310 286.713 C 90.310 286.950,89.411 288.029,88.312 289.111 C 87.213 290.193,86.314 291.272,86.314 291.508 C 86.314 291.745,85.415 292.824,84.316 293.906 C 83.217 294.988,82.318 296.069,82.318 296.307 C 82.318 296.546,81.598 297.443,80.719 298.302 C 79.840 299.160,79.121 300.058,79.121 300.296 C 79.121 300.534,78.222 301.615,77.123 302.697 C 76.024 303.780,75.125 304.859,75.125 305.095 C 75.125 305.331,74.226 306.410,73.127 307.493 C 72.028 308.575,71.129 309.654,71.129 309.890 C 71.129 310.126,70.230 311.205,69.131 312.288 C 68.032 313.370,67.133 314.454,67.133 314.695 C 67.133 314.937,66.590 315.655,65.926 316.291 L 64.720 317.447 61.731 314.478 C 60.086 312.845,58.741 311.374,58.741 311.211 C 58.741 311.047,57.078 309.186,55.045 307.075 C 53.012 304.965,51.182 302.937,50.977 302.568 C 50.773 302.200,48.795 300.043,46.582 297.777 C 44.368 295.510,42.490 293.442,42.407 293.181 C 42.325 292.921,40.436 290.790,38.211 288.446 C 30.587 280.414,26.573 276.040,26.408 275.583 C 26.317 275.331,24.339 273.181,22.013 270.804 C 19.686 268.428,17.708 266.273,17.618 266.016 C 17.293 265.090,16.900 264.845,13.134 263.221 C 10.529 262.098,10.629 265.071,10.933 198.206 C 11.118 157.523,11.344 137.617,11.632 136.668 C 11.867 135.896,12.267 134.600,12.523 133.788 C 12.847 132.758,14.526 130.750,18.082 127.139 C 20.884 124.293,23.177 121.808,23.177 121.616 C 23.177 121.424,25.514 118.935,28.372 116.084 C 31.229 113.233,33.566 110.715,33.566 110.489 C 33.566 110.262,35.653 108.012,38.204 105.488 C 40.755 102.964,43.160 100.395,43.548 99.778 C 43.936 99.161,46.404 96.464,49.032 93.784 C 51.659 91.104,53.976 88.607,54.180 88.235 C 54.384 87.863,56.753 85.306,59.443 82.552 C 62.134 79.798,64.336 77.410,64.336 77.246 C 64.336 76.896,68.796 72.328,69.137 72.328 C 69.264 72.328,70.071 73.047,70.929 73.926 M241.359 118.583 C 242.128 118.812,242.436 119.018,242.043 119.040 C 241.650 119.063,240.562 119.845,239.624 120.779 C 237.253 123.141,234.594 125.472,234.252 125.487 C 233.847 125.505,231.768 127.375,231.768 127.722 C 231.768 128.266,230.445 129.471,229.847 129.471 C 229.517 129.471,228.632 130.190,227.879 131.069 C 227.127 131.948,226.346 132.667,226.143 132.667 C 225.941 132.667,225.012 133.387,224.079 134.266 C 223.146 135.145,222.244 135.864,222.075 135.864 C 221.907 135.864,220.827 136.761,219.676 137.858 C 218.524 138.955,217.403 139.863,217.183 139.876 C 216.963 139.889,216.064 140.609,215.185 141.475 C 214.306 142.342,213.407 143.061,213.187 143.074 C 212.967 143.086,212.068 143.805,211.189 144.672 C 210.310 145.539,209.456 146.249,209.292 146.251 C 209.127 146.252,208.229 146.973,207.296 147.852 C 206.362 148.731,205.455 149.451,205.279 149.451 C 205.103 149.451,204.521 149.888,203.987 150.422 C 203.453 150.957,202.337 151.900,201.508 152.518 C 200.678 153.136,199.910 153.743,199.800 153.867 C 199.690 153.991,198.072 155.326,196.204 156.833 C 194.336 158.341,192.243 160.174,191.554 160.906 C 190.055 162.500,189.450 162.555,187.885 161.239 C 187.232 160.689,186.561 160.240,186.395 160.240 C 186.228 160.240,185.134 159.386,183.965 158.342 C 182.795 157.298,180.750 155.544,179.421 154.446 C 178.091 153.347,176.046 151.593,174.876 150.549 C 173.707 149.505,172.581 148.651,172.374 148.651 C 172.167 148.651,171.112 147.752,170.030 146.653 C 168.948 145.554,167.869 144.655,167.632 144.655 C 167.396 144.655,166.317 143.756,165.235 142.657 C 164.152 141.558,163.073 140.659,162.837 140.659 C 162.601 140.659,161.522 139.760,160.440 138.661 C 159.357 137.562,158.278 136.663,158.042 136.663 C 157.806 136.663,156.727 135.764,155.644 134.665 C 154.562 133.566,153.483 132.667,153.247 132.667 C 153.010 132.667,151.932 131.768,150.849 130.669 C 149.767 129.570,148.688 128.671,148.452 128.671 C 148.215 128.671,147.136 127.772,146.054 126.673 C 144.972 125.574,143.890 124.675,143.650 124.675 C 143.410 124.675,142.611 124.053,141.874 123.293 C 139.287 120.624,137.316 120.858,170.629 119.877 C 177.552 119.673,189.510 119.308,197.203 119.065 C 234.261 117.895,238.872 117.844,241.359 118.583 M253.746 170.855 C 253.746 203.276,253.610 220.217,253.347 220.380 C 253.127 220.515,252.936 221.200,252.922 221.902 C 252.901 222.969,252.842 223.047,252.559 222.378 C 252.373 221.938,251.216 220.596,249.987 219.394 C 248.758 218.193,247.752 217.020,247.752 216.787 C 247.752 216.555,246.314 214.935,244.555 213.187 C 242.797 211.439,241.359 209.878,241.359 209.719 C 241.359 209.560,240.100 208.166,238.561 206.621 C 237.023 205.076,235.764 203.624,235.764 203.392 C 235.764 203.161,235.468 202.858,235.107 202.720 C 234.399 202.448,228.874 196.811,228.615 196.096 C 228.529 195.858,227.270 194.424,225.817 192.908 C 224.365 191.392,223.110 189.964,223.028 189.735 C 222.947 189.506,221.508 187.889,219.832 186.141 C 218.155 184.393,216.710 182.757,216.621 182.505 C 216.533 182.253,215.004 180.542,213.225 178.704 C 211.446 176.865,209.826 175.060,209.625 174.693 C 209.424 174.326,207.985 172.712,206.428 171.106 C 204.871 169.500,203.525 167.971,203.437 167.709 C 203.349 167.447,202.855 166.724,202.338 166.103 C 201.057 164.563,201.140 163.200,202.597 161.838 C 203.257 161.222,203.796 160.606,203.796 160.469 C 203.796 160.031,207.353 156.643,207.813 156.643 C 208.056 156.643,208.953 155.916,209.807 155.028 C 210.979 153.807,211.619 153.440,212.419 153.529 C 213.131 153.608,213.627 153.392,213.932 152.871 C 214.470 151.951,217.851 148.679,218.281 148.663 C 218.445 148.656,219.343 147.932,220.277 147.053 C 221.210 146.174,222.109 145.455,222.275 145.455 C 222.440 145.455,223.339 144.735,224.273 143.856 C 225.206 142.977,226.101 142.258,226.262 142.258 C 226.423 142.258,227.497 141.359,228.649 140.260 C 229.802 139.161,230.884 138.262,231.056 138.262 C 231.227 138.262,232.131 137.542,233.064 136.663 C 233.997 135.784,234.897 135.065,235.062 135.065 C 235.228 135.065,236.105 134.346,237.011 133.467 C 237.917 132.587,238.816 131.868,239.009 131.868 C 239.202 131.868,240.101 131.149,241.007 130.270 C 241.913 129.391,242.812 128.671,243.005 128.671 C 243.198 128.671,244.097 127.952,245.003 127.073 C 245.909 126.194,246.814 125.475,247.015 125.475 C 247.215 125.475,247.992 124.861,248.742 124.112 C 249.491 123.362,250.654 122.425,251.326 122.028 C 251.998 121.631,252.547 121.143,252.547 120.944 C 252.547 120.745,252.817 120.805,253.147 121.079 C 253.674 121.516,253.746 127.539,253.746 170.855 M134.904 127.306 C 135.982 128.204,137.942 129.810,139.261 130.875 C 140.579 131.941,141.949 133.140,142.305 133.539 C 142.660 133.939,143.110 134.268,143.304 134.270 C 143.498 134.272,144.598 135.171,145.749 136.268 C 146.901 137.364,147.980 138.264,148.147 138.266 C 148.315 138.268,149.393 139.167,150.545 140.264 C 151.696 141.360,152.775 142.260,152.942 142.262 C 153.110 142.264,154.189 143.163,155.340 144.260 C 156.491 145.356,157.570 146.256,157.737 146.258 C 157.905 146.260,158.984 147.159,160.135 148.256 C 161.286 149.352,162.365 150.252,162.533 150.254 C 162.700 150.256,163.779 151.155,164.930 152.252 C 166.081 153.349,167.160 154.247,167.328 154.249 C 167.495 154.251,168.531 155.143,169.630 156.230 C 170.729 157.318,171.815 158.216,172.043 158.225 C 172.271 158.234,173.343 159.141,174.426 160.240 C 175.508 161.339,176.587 162.238,176.823 162.238 C 177.059 162.238,178.138 163.137,179.221 164.236 C 180.303 165.335,181.370 166.234,181.591 166.234 C 181.812 166.234,182.929 167.158,184.072 168.287 C 186.459 170.644,186.466 170.584,183.417 174.104 C 182.428 175.246,180.899 177.094,180.020 178.211 C 179.141 179.328,177.481 181.361,176.332 182.728 C 175.183 184.096,173.385 186.253,172.336 187.523 C 171.288 188.792,169.575 190.787,168.531 191.957 C 167.488 193.126,166.633 194.252,166.633 194.459 C 166.633 194.666,165.734 195.721,164.635 196.803 C 163.536 197.886,162.637 198.966,162.637 199.205 C 162.637 199.443,161.918 200.340,161.039 201.199 C 160.160 202.057,159.441 202.955,159.441 203.193 C 159.441 203.431,158.541 204.512,157.443 205.594 C 156.344 206.677,155.445 207.756,155.445 207.992 C 155.445 208.228,154.545 209.307,153.447 210.390 C 152.348 211.472,151.449 212.551,151.449 212.787 C 151.449 213.024,150.549 214.102,149.451 215.185 C 148.352 216.267,147.453 217.346,147.453 217.582 C 147.453 217.819,146.553 218.898,145.455 219.980 C 144.356 221.062,143.457 222.143,143.457 222.381 C 143.457 222.620,142.737 223.517,141.858 224.376 C 140.979 225.234,140.260 226.130,140.260 226.366 C 140.260 226.603,139.088 227.957,137.656 229.376 C 134.024 232.976,133.704 232.723,133.553 226.138 C 133.491 223.418,133.266 221.019,133.054 220.806 C 132.827 220.579,132.667 216.582,132.667 211.132 C 132.667 205.372,132.516 201.752,132.268 201.598 C 132.020 201.445,131.868 197.806,131.868 192.008 C 131.868 186.210,131.716 182.571,131.469 182.418 C 131.221 182.265,131.069 178.692,131.069 173.027 C 131.069 167.362,130.917 163.789,130.669 163.636 C 130.421 163.483,130.270 159.844,130.270 154.046 C 130.270 148.248,130.118 144.609,129.870 144.456 C 129.622 144.302,129.471 140.663,129.471 134.865 C 129.471 129.067,129.319 125.428,129.071 125.275 C 128.528 124.939,128.566 123.741,129.139 123.169 C 129.496 122.812,130.001 123.052,131.276 124.188 C 132.195 125.005,133.827 126.409,134.904 127.306 M201.444 176.892 C 203.177 178.579,204.595 180.157,204.595 180.400 C 204.595 180.642,205.854 182.090,207.393 183.616 C 208.931 185.143,210.190 186.581,210.190 186.812 C 210.190 187.043,211.628 188.662,213.387 190.410 C 215.145 192.158,216.583 193.747,216.583 193.942 C 216.583 194.136,217.797 195.545,219.281 197.072 C 220.764 198.599,222.050 200.063,222.139 200.324 C 222.227 200.585,223.576 202.115,225.135 203.724 C 226.695 205.332,228.136 206.950,228.339 207.320 C 228.542 207.690,229.801 209.129,231.137 210.519 C 232.473 211.910,233.731 213.348,233.932 213.716 C 234.133 214.084,235.571 215.702,237.128 217.310 C 238.685 218.918,240.116 220.537,240.309 220.906 C 240.502 221.276,241.628 222.575,242.812 223.793 C 246.665 227.756,246.890 227.723,211.788 228.396 C 206.623 228.495,202.038 228.753,201.598 228.971 C 201.159 229.188,196.753 229.454,191.808 229.562 C 186.863 229.670,178.501 229.940,173.227 230.163 C 153.316 231.002,150.909 231.040,149.353 230.532 L 147.856 230.043 149.752 227.939 C 150.795 226.781,152.410 224.877,153.340 223.706 C 154.271 222.536,155.844 220.600,156.837 219.405 C 157.829 218.209,158.641 217.079,158.641 216.894 C 158.641 216.708,159.255 215.944,160.004 215.194 C 160.753 214.445,161.691 213.282,162.088 212.610 C 162.485 211.938,162.951 211.389,163.123 211.389 C 163.296 211.389,163.437 211.186,163.437 210.938 C 163.437 210.690,164.021 209.789,164.735 208.937 C 165.450 208.085,166.933 206.315,168.032 205.003 C 169.131 203.692,170.749 201.706,171.628 200.589 C 172.507 199.472,174.081 197.606,175.125 196.443 C 176.169 195.280,177.023 194.157,177.023 193.949 C 177.023 193.740,177.742 192.866,178.621 192.008 C 179.500 191.150,180.220 190.252,180.220 190.014 C 180.220 189.775,181.119 188.695,182.218 187.612 C 183.317 186.530,184.216 185.451,184.216 185.215 C 184.216 184.978,185.115 183.900,186.214 182.817 C 187.313 181.735,188.212 180.649,188.212 180.404 C 188.212 178.903,194.534 173.826,196.404 173.826 C 198.219 173.826,198.418 173.947,201.444 176.892 M255.236 237.853 C 257.054 239.662,258.541 241.330,258.541 241.560 C 258.541 241.791,259.800 243.229,261.339 244.755 C 262.877 246.282,264.141 247.716,264.148 247.941 C 264.154 248.167,265.591 249.790,267.341 251.548 C 269.091 253.307,270.524 254.930,270.526 255.156 C 270.528 255.381,271.788 256.815,273.327 258.342 C 274.865 259.868,276.124 261.306,276.124 261.537 C 276.124 261.768,277.562 263.387,279.321 265.135 C 281.079 266.883,282.517 268.502,282.517 268.733 C 282.517 268.963,283.776 270.401,285.315 271.928 C 286.853 273.455,288.112 274.865,288.112 275.062 C 288.112 275.259,289.416 276.760,291.009 278.397 C 292.602 280.034,294.086 281.707,294.306 282.115 C 294.696 282.840,296.749 285.136,302.997 291.838 C 304.700 293.665,306.094 295.332,306.094 295.542 C 306.094 295.753,307.353 297.175,308.891 298.701 C 310.430 300.228,311.688 301.666,311.688 301.897 C 311.688 302.128,313.127 303.747,314.885 305.495 C 316.643 307.242,318.082 308.862,318.082 309.094 C 318.082 309.326,319.161 310.583,320.480 311.888 C 321.798 313.193,322.877 314.469,322.877 314.724 C 322.877 314.978,323.147 315.411,323.477 315.684 C 323.806 315.958,324.076 316.337,324.076 316.527 C 324.076 316.808,320.104 321.760,319.304 322.478 C 318.958 322.787,315.757 326.376,312.887 329.670 C 311.459 331.310,309.558 333.465,308.663 334.458 C 307.071 336.226,301.261 342.838,289.697 356.044 C 286.521 359.670,283.177 363.447,282.265 364.436 C 281.354 365.425,280.097 366.863,279.473 367.632 C 278.848 368.402,278.063 369.301,277.727 369.630 C 277.392 369.960,275.951 371.578,274.525 373.227 C 273.100 374.875,271.658 376.494,271.320 376.823 C 270.983 377.153,269.722 378.579,268.520 379.993 C 267.318 381.407,265.600 383.340,264.704 384.289 L 263.074 386.014 198.323 386.014 L 133.572 386.014 116.636 369.367 C 107.321 360.211,96.647 349.737,92.915 346.090 C 67.481 321.237,69.458 323.685,72.371 320.664 C 73.226 319.777,73.926 318.871,73.926 318.651 C 73.926 318.431,74.825 317.366,75.924 316.284 C 77.023 315.201,77.922 314.121,77.922 313.882 C 77.922 313.644,78.641 312.747,79.520 311.888 C 80.400 311.030,81.119 310.132,81.119 309.894 C 81.119 309.656,82.018 308.575,83.117 307.493 C 84.216 306.410,85.115 305.331,85.115 305.095 C 85.115 304.859,86.014 303.780,87.113 302.697 C 88.212 301.615,89.111 300.560,89.111 300.353 C 89.111 300.147,89.965 299.020,91.009 297.851 C 93.032 295.584,95.630 292.485,98.501 288.911 C 101.186 285.570,103.897 282.324,105.934 280.010 C 106.945 278.862,107.934 277.630,108.132 277.272 C 108.505 276.598,110.715 273.988,113.986 270.360 C 115.030 269.202,115.884 268.084,115.884 267.875 C 115.884 267.666,116.603 266.793,117.483 265.934 C 118.362 265.076,119.081 264.178,119.081 263.940 C 119.081 263.701,119.980 262.621,121.079 261.538 C 122.178 260.456,123.077 259.377,123.077 259.141 C 123.077 258.905,123.976 257.826,125.075 256.743 C 126.174 255.661,127.073 254.582,127.073 254.346 C 127.073 254.109,127.972 253.030,129.071 251.948 C 130.170 250.866,131.069 249.787,131.069 249.550 C 131.069 249.314,131.968 248.235,133.067 247.153 C 134.166 246.070,135.065 244.969,135.065 244.706 C 135.065 243.923,137.446 242.158,138.501 242.158 C 139.437 242.158,139.452 242.117,138.861 241.215 C 137.653 239.371,139.001 239.150,155.245 238.531 C 166.906 238.086,180.768 237.527,194.805 236.934 C 214.284 236.112,224.893 235.738,234.360 235.538 C 239.684 235.426,244.116 235.165,244.330 234.951 C 244.542 234.739,246.339 234.565,248.323 234.565 L 251.931 234.565 255.236 237.853 M385.614 261.109 C 385.614 261.984,383.621 265.591,382.615 266.535 C 381.239 267.828,381.245 270.039,382.628 271.338 C 384.034 272.659,384.815 274.382,384.815 276.162 C 384.815 276.994,384.995 277.786,385.215 277.922 C 385.464 278.076,385.614 281.981,385.614 288.312 C 385.614 294.642,385.765 298.547,386.014 298.701 C 386.234 298.837,386.414 299.556,386.414 300.300 C 386.414 301.043,386.593 301.762,386.813 301.898 C 387.066 302.055,387.213 306.956,387.213 315.285 C 387.213 323.613,387.359 328.515,387.612 328.671 C 387.859 328.824,388.012 332.197,388.012 337.463 C 388.012 342.728,388.165 346.102,388.412 346.254 C 388.632 346.390,388.811 348.181,388.811 350.250 C 388.811 352.318,388.632 354.110,388.412 354.246 C 388.192 354.382,388.012 355.461,388.012 356.643 C 388.012 357.826,387.832 358.905,387.612 359.041 C 387.393 359.177,387.213 359.896,387.213 360.639 C 387.213 361.383,387.033 362.102,386.813 362.238 C 386.593 362.374,386.414 362.892,386.414 363.390 C 386.414 363.889,385.945 364.732,385.372 365.265 C 384.799 365.798,384.178 366.630,383.991 367.114 C 383.804 367.598,383.101 368.278,382.430 368.625 C 381.013 369.358,381.241 369.529,376.839 364.429 C 375.418 362.784,373.440 360.530,372.443 359.420 C 368.046 354.525,365.392 351.476,364.847 350.694 C 364.524 350.230,363.040 348.645,361.550 347.172 C 360.060 345.699,358.841 344.297,358.841 344.056 C 358.841 343.815,357.582 342.376,356.044 340.859 C 354.505 339.342,353.247 337.904,353.247 337.665 C 353.247 337.425,351.808 335.805,350.050 334.066 C 348.292 332.326,346.853 330.708,346.853 330.470 C 346.853 330.231,345.415 328.613,343.656 326.873 C 341.898 325.134,340.460 323.514,340.460 323.275 C 340.460 323.035,339.201 321.597,337.662 320.080 C 334.328 316.792,334.282 316.429,336.863 313.886 C 337.962 312.804,338.861 311.727,338.861 311.494 C 338.861 311.261,340.300 309.640,342.058 307.892 C 343.816 306.144,345.255 304.525,345.255 304.294 C 345.255 304.064,346.513 302.626,348.052 301.099 C 349.590 299.572,350.849 298.134,350.849 297.902 C 350.849 297.671,352.108 296.232,353.646 294.705 C 355.185 293.179,356.444 291.741,356.444 291.510 C 356.444 291.279,357.882 289.660,359.640 287.912 C 361.399 286.164,362.837 284.545,362.837 284.314 C 362.837 284.084,364.096 282.646,365.634 281.119 C 367.173 279.592,368.432 278.170,368.432 277.958 C 368.432 277.746,370.005 275.901,371.928 273.858 C 377.562 267.873,380.020 265.097,380.020 264.716 C 380.020 263.823,384.571 259.771,385.090 260.202 C 385.378 260.441,385.614 260.850,385.614 261.109 M15.865 275.403 C 16.590 276.106,17.183 276.873,17.183 277.109 C 17.183 277.345,18.981 279.329,21.179 281.518 C 23.377 283.708,25.175 285.686,25.175 285.913 C 25.175 286.141,27.153 288.299,29.570 290.709 C 31.988 293.119,33.966 295.278,33.966 295.505 C 33.966 295.733,35.764 297.711,37.962 299.900 C 40.160 302.090,41.958 304.068,41.958 304.296 C 41.958 304.524,43.756 306.502,45.954 308.691 C 48.152 310.881,49.950 312.859,49.950 313.087 C 49.950 313.316,51.675 315.207,53.784 317.291 C 55.892 319.374,58.066 321.775,58.615 322.626 L 59.612 324.173 57.978 325.838 C 57.079 326.754,56.344 327.683,56.344 327.902 C 56.344 328.122,55.445 329.187,54.346 330.270 C 53.247 331.352,52.348 332.431,52.348 332.667 C 52.348 332.904,51.449 333.983,50.350 335.065 C 49.251 336.147,48.352 337.226,48.352 337.463 C 48.352 337.699,47.453 338.778,46.354 339.860 C 45.255 340.943,44.356 342.023,44.356 342.262 C 44.356 342.500,43.636 343.397,42.757 344.256 C 41.878 345.114,41.159 346.012,41.159 346.250 C 41.159 346.488,40.260 347.569,39.161 348.651 C 38.062 349.734,37.163 350.813,37.163 351.049 C 37.163 351.285,36.264 352.364,35.165 353.447 C 34.066 354.529,33.167 355.608,33.167 355.844 C 33.167 356.080,32.268 357.159,31.169 358.242 C 30.070 359.324,29.171 360.403,29.171 360.639 C 29.171 360.876,28.272 361.955,27.173 363.037 C 26.074 364.119,25.175 365.200,25.175 365.438 C 25.175 365.677,24.456 366.574,23.576 367.433 C 22.697 368.291,21.978 369.195,21.978 369.442 C 21.978 370.698,20.012 371.789,18.811 371.200 C 15.759 369.704,11.988 365.088,11.988 362.849 C 11.988 362.209,11.808 361.574,11.588 361.439 C 11.036 361.097,11.036 279.862,11.588 279.520 C 11.808 279.385,11.988 278.765,11.988 278.144 C 11.988 276.590,13.278 274.126,14.090 274.126 C 14.342 274.126,15.140 274.701,15.865 275.403 M332.758 325.764 C 334.356 327.352,335.664 328.823,335.664 329.034 C 335.664 329.244,337.058 330.907,338.761 332.730 C 340.465 334.553,343.117 337.488,344.655 339.252 C 349.489 344.795,353.913 349.735,357.030 353.071 C 358.686 354.843,360.040 356.466,360.040 356.678 C 360.040 356.891,361.299 358.313,362.837 359.840 C 364.376 361.367,365.634 362.805,365.634 363.036 C 365.634 363.266,367.073 364.885,368.831 366.633 C 370.589 368.381,372.028 369.970,372.028 370.163 C 372.028 370.356,372.478 371.048,373.027 371.701 C 374.045 372.911,374.477 376.024,373.626 376.024 C 373.407 376.024,373.227 376.481,373.227 377.040 C 373.227 377.975,369.302 382.418,368.476 382.418 C 367.924 382.418,366.040 383.421,366.037 383.716 C 366.035 383.881,365.674 384.016,365.235 384.016 C 364.795 384.016,364.436 384.196,364.436 384.416 C 364.436 384.635,364.091 384.815,363.670 384.815 C 363.248 384.815,362.829 385.040,362.737 385.315 C 362.606 385.709,353.364 385.840,318.748 385.937 L 274.925 386.059 274.925 385.203 C 274.925 384.728,276.037 383.055,277.423 381.447 C 281.448 376.775,293.747 362.796,295.554 360.839 C 296.467 359.850,297.726 358.412,298.351 357.642 C 298.976 356.873,299.583 356.154,299.699 356.044 C 299.816 355.934,301.257 354.319,302.903 352.455 C 304.548 350.592,306.638 348.254,307.548 347.261 C 308.458 346.267,309.714 344.825,310.339 344.056 C 310.964 343.287,311.571 342.567,311.687 342.458 C 311.804 342.348,313.242 340.729,314.883 338.861 C 316.524 336.993,318.769 334.463,319.872 333.239 C 320.976 332.016,323.485 329.183,325.449 326.946 C 329.702 322.100,329.158 322.188,332.758 325.764 M72.174 336.364 C 87.765 351.521,121.878 385.368,121.878 385.679 C 121.878 386.174,36.470 386.109,36.164 385.614 C 36.028 385.395,35.478 385.215,34.941 385.215 C 34.405 385.215,33.966 385.035,33.966 384.815 C 33.966 384.595,33.606 384.416,33.167 384.416 C 32.727 384.416,32.367 384.281,32.367 384.116 C 32.367 383.951,31.592 383.327,30.645 382.729 C 28.970 381.671,27.923 380.649,26.061 378.255 L 25.155 377.089 26.563 375.928 C 27.338 375.290,27.972 374.549,27.972 374.282 C 27.972 374.015,28.871 372.911,29.970 371.828 C 31.069 370.746,31.968 369.691,31.968 369.484 C 31.968 369.277,32.822 368.151,33.866 366.982 C 35.890 364.715,38.487 361.616,41.359 358.042 C 44.044 354.701,46.754 351.455,48.791 349.141 C 49.803 347.992,50.792 346.754,50.989 346.388 C 51.187 346.022,52.080 344.943,52.973 343.990 C 53.866 343.037,54.765 341.958,54.971 341.593 C 55.176 341.227,56.109 340.114,57.043 339.119 C 57.977 338.124,58.741 337.156,58.741 336.968 C 58.741 336.780,59.461 335.923,60.340 335.065 C 61.219 334.206,61.938 333.323,61.938 333.103 C 61.938 332.700,64.724 329.670,65.094 329.670 C 65.202 329.670,68.388 332.682,72.174 336.364 " stroke="none" fill="#fbfbfb" fill-rule="evenodd"></path><path id="path1" d="M229.171 9.191 C 229.011 9.449,221.316 9.590,207.393 9.590 C 193.469 9.590,185.774 9.732,185.614 9.990 C 185.455 10.248,177.892 10.390,164.236 10.390 C 150.579 10.390,143.017 10.531,142.857 10.789 C 142.714 11.021,140.530 11.189,137.662 11.189 C 134.795 11.189,132.611 11.357,132.468 11.588 C 132.332 11.808,131.792 11.988,131.269 11.988 C 130.745 11.988,130.206 12.168,130.070 12.388 C 129.934 12.607,129.412 12.787,128.909 12.787 C 128.407 12.787,127.671 13.147,127.273 13.586 C 126.875 14.026,126.330 14.386,126.061 14.386 C 125.792 14.386,125.352 14.652,125.082 14.977 C 124.187 16.054,122.216 16.830,121.623 16.338 C 121.126 15.925,113.895 22.612,113.432 23.912 C 113.352 24.137,111.039 26.702,108.292 29.613 C 100.219 38.167,97.109 41.501,92.948 46.059 C 90.788 48.424,88.188 51.221,87.168 52.273 C 86.149 53.326,84.123 55.526,82.666 57.163 C 81.210 58.800,78.827 61.358,77.372 62.847 C 75.916 64.336,74.725 65.790,74.725 66.079 C 74.725 66.628,78.037 69.926,78.598 69.935 C 78.776 69.938,80.203 71.175,81.770 72.683 C 83.337 74.191,84.794 75.493,85.009 75.575 C 85.224 75.657,86.459 76.661,87.755 77.806 C 89.050 78.951,91.099 80.697,92.308 81.686 C 95.167 84.026,98.271 86.601,101.499 89.311 C 102.927 90.510,105.134 92.350,106.404 93.398 C 107.673 94.447,109.668 96.159,110.838 97.203 C 112.007 98.247,113.132 99.101,113.338 99.101 C 113.543 99.101,114.779 100.180,116.084 101.499 C 117.389 102.817,118.649 103.896,118.884 103.896 C 119.119 103.896,120.196 104.795,121.279 105.894 C 122.361 106.993,123.440 107.892,123.676 107.892 C 123.913 107.892,124.992 108.791,126.074 109.890 C 127.156 110.989,128.246 111.888,128.494 111.888 C 128.743 111.888,129.273 112.248,129.670 112.687 C 130.477 113.579,149.220 113.957,150.079 113.098 C 150.304 112.873,155.743 112.621,163.046 112.498 C 169.964 112.382,181.375 112.192,188.403 112.076 C 195.844 111.954,201.343 111.704,201.570 111.477 C 201.805 111.242,207.030 111.089,214.842 111.089 C 223.000 111.089,227.816 110.942,227.972 110.689 C 228.129 110.436,233.011 110.290,241.301 110.290 L 254.383 110.290 255.944 108.691 C 256.802 107.812,257.702 107.093,257.942 107.093 C 258.183 107.093,259.082 106.374,259.940 105.495 C 260.798 104.615,261.698 103.896,261.938 103.896 C 262.179 103.896,263.078 103.177,263.936 102.298 C 264.795 101.419,265.694 100.699,265.934 100.699 C 266.175 100.699,267.074 99.980,267.932 99.101 C 268.791 98.222,269.690 97.502,269.930 97.502 C 270.171 97.502,271.070 96.783,271.928 95.904 C 272.787 95.025,273.657 94.306,273.864 94.306 C 274.070 94.306,274.977 93.668,275.880 92.888 C 277.500 91.490,279.776 89.643,283.735 86.513 C 284.848 85.634,286.709 84.061,287.872 83.017 C 289.036 81.973,290.158 81.119,290.367 81.119 C 290.576 81.119,291.449 80.400,292.308 79.520 C 293.166 78.641,294.065 77.922,294.306 77.922 C 294.546 77.922,295.445 77.203,296.304 76.324 C 297.162 75.445,298.061 74.725,298.302 74.725 C 298.542 74.725,299.441 74.006,300.300 73.127 C 301.158 72.248,302.057 71.528,302.298 71.528 C 302.538 71.528,303.437 70.809,304.296 69.930 C 305.154 69.051,306.053 68.332,306.294 68.332 C 306.534 68.332,307.433 67.612,308.292 66.733 C 309.150 65.854,310.048 65.135,310.288 65.135 C 310.527 65.135,311.502 64.340,312.455 63.369 L 314.188 61.604 313.156 60.572 C 312.589 60.005,311.980 59.540,311.803 59.540 C 311.627 59.540,307.080 55.135,301.698 49.750 C 296.317 44.366,291.732 39.960,291.508 39.960 C 291.285 39.960,286.790 35.644,281.518 30.370 C 276.247 25.095,271.749 20.779,271.523 20.779 C 270.789 20.779,264.276 13.829,263.591 12.314 C 262.772 10.504,261.065 9.590,258.504 9.590 C 257.451 9.590,256.479 9.411,256.344 9.191 C 256.006 8.645,229.508 8.645,229.171 9.191 M334.066 11.588 C 334.066 11.851,323.890 11.988,304.338 11.988 C 270.655 11.988,272.580 11.781,275.793 15.055 C 276.726 16.006,277.678 16.783,277.909 16.783 C 278.139 16.783,282.551 21.009,287.712 26.174 C 292.874 31.339,297.279 35.564,297.502 35.564 C 297.725 35.564,302.401 40.060,307.892 45.554 C 313.383 51.049,318.074 55.544,318.317 55.544 C 318.559 55.544,319.085 55.907,319.486 56.350 L 320.215 57.155 321.072 56.350 C 321.544 55.907,322.109 55.544,322.329 55.544 C 322.548 55.544,323.244 55.005,323.876 54.346 C 324.508 53.686,325.224 53.147,325.468 53.147 C 325.712 53.147,326.614 52.428,327.473 51.548 C 328.331 50.669,329.230 49.950,329.471 49.950 C 329.711 49.950,330.610 49.231,331.469 48.352 C 332.327 47.473,333.226 46.753,333.467 46.753 C 333.707 46.753,334.606 46.034,335.465 45.155 C 336.323 44.276,337.214 43.548,337.444 43.537 C 337.674 43.526,338.581 42.808,339.461 41.941 C 340.340 41.075,341.239 40.356,341.459 40.346 C 341.678 40.335,342.757 39.436,343.856 38.348 C 344.955 37.261,346.042 36.369,346.273 36.367 C 346.503 36.365,347.393 35.644,348.252 34.765 C 349.110 33.886,350.001 33.158,350.231 33.147 C 350.461 33.136,351.369 32.418,352.248 31.552 C 353.127 30.685,354.006 29.974,354.201 29.973 C 354.396 29.971,355.330 29.296,356.277 28.472 C 357.223 27.647,359.009 26.164,360.245 25.175 C 368.505 18.566,368.618 18.451,367.800 17.547 C 367.417 17.124,366.906 16.381,366.665 15.897 C 366.162 14.888,362.678 12.877,361.339 12.823 C 360.844 12.804,360.440 12.607,360.440 12.388 C 360.440 12.166,359.374 11.988,358.042 11.988 C 356.710 11.988,355.644 11.810,355.644 11.588 C 355.644 11.020,351.107 11.091,350.529 11.668 C 350.157 12.041,350.050 12.041,350.050 11.668 C 350.050 11.311,348.008 11.189,342.058 11.189 C 336.996 11.189,334.066 11.335,334.066 11.588 M94.905 13.187 C 94.749 13.440,89.847 13.586,81.518 13.586 C 73.190 13.586,68.288 13.733,68.132 13.986 C 67.976 14.238,63.540 14.386,56.144 14.386 C 48.748 14.386,44.311 14.533,44.156 14.785 C 44.010 15.022,41.554 15.185,38.138 15.185 C 34.558 15.185,32.368 15.336,32.368 15.584 C 32.368 15.804,31.828 15.984,31.169 15.984 C 30.509 15.984,29.970 16.164,29.970 16.384 C 29.970 16.603,29.610 16.783,29.171 16.783 C 28.731 16.783,28.372 16.963,28.372 17.183 C 28.372 17.403,28.089 17.582,27.744 17.582 C 26.430 17.582,23.576 21.752,23.576 23.673 C 23.576 24.908,25.160 26.773,26.209 26.773 C 26.356 26.773,27.170 27.358,28.017 28.072 C 28.865 28.786,30.740 30.360,32.184 31.568 C 35.338 34.208,38.326 36.731,41.178 39.161 C 42.339 40.150,43.660 41.223,44.113 41.545 C 44.566 41.867,45.659 42.811,46.542 43.643 C 47.425 44.474,48.279 45.155,48.440 45.155 C 48.601 45.155,49.675 46.054,50.827 47.153 C 51.979 48.252,53.058 49.151,53.225 49.151 C 53.391 49.151,54.470 50.050,55.622 51.149 C 56.775 52.248,57.872 53.147,58.061 53.147 C 58.250 53.147,59.065 53.827,59.871 54.658 C 60.678 55.489,61.968 56.612,62.737 57.154 C 63.506 57.695,64.832 58.813,65.683 59.638 C 67.869 61.759,68.055 61.677,73.145 56.344 C 75.663 53.707,80.015 49.159,82.817 46.236 C 85.619 43.314,87.912 40.748,87.912 40.535 C 87.912 40.323,90.250 37.816,93.107 34.965 C 95.964 32.114,98.302 29.597,98.302 29.371 C 98.302 29.145,100.639 26.627,103.497 23.776 C 106.354 20.925,108.691 18.404,108.691 18.173 C 108.691 17.941,109.585 16.872,110.677 15.796 C 113.641 12.877,113.428 12.787,103.471 12.787 C 98.356 12.787,95.057 12.941,94.905 13.187 M371.703 25.363 C 371.194 25.644,370.285 26.346,369.683 26.923 C 369.081 27.500,368.411 27.972,368.195 27.972 C 367.979 27.972,366.917 28.871,365.834 29.970 C 364.752 31.069,363.700 31.968,363.496 31.968 C 363.293 31.968,362.357 32.642,361.416 33.467 C 360.475 34.291,358.953 35.504,358.034 36.164 C 357.115 36.823,355.419 38.217,354.267 39.261 C 353.114 40.305,352.000 41.159,351.791 41.159 C 351.582 41.159,350.709 41.878,349.850 42.757 C 348.992 43.636,348.090 44.356,347.846 44.356 C 347.602 44.356,346.885 44.895,346.254 45.554 C 345.622 46.214,344.907 46.753,344.665 46.753 C 344.424 46.753,343.340 47.652,342.258 48.751 C 341.175 49.850,340.095 50.749,339.856 50.749 C 339.618 50.749,338.721 51.469,337.862 52.348 C 337.004 53.227,336.105 53.946,335.864 53.946 C 335.624 53.946,334.725 54.665,333.866 55.544 C 333.008 56.424,332.110 57.143,331.872 57.143 C 331.634 57.143,330.553 58.042,329.471 59.141 C 328.388 60.240,327.293 61.139,327.037 61.139 C 326.781 61.139,326.338 61.420,326.053 61.763 C 325.536 62.387,337.156 74.725,338.260 74.725 C 338.484 74.725,342.980 79.041,348.252 84.316 C 353.523 89.590,358.019 93.906,358.242 93.906 C 358.465 93.906,363.050 98.312,368.432 103.696 C 373.813 109.081,378.370 113.487,378.558 113.487 C 378.746 113.487,379.423 114.047,380.063 114.731 C 382.453 117.290,382.418 117.651,382.418 90.884 C 382.418 75.246,382.277 66.694,382.018 66.533 C 381.762 66.375,381.618 60.410,381.618 49.950 C 381.618 39.490,381.475 33.525,381.219 33.367 C 380.999 33.231,380.819 32.801,380.819 32.412 C 380.819 30.797,378.038 26.374,377.023 26.374 C 376.761 26.374,376.222 26.014,375.824 25.574 C 375.002 24.666,373.140 24.571,371.703 25.363 M17.582 28.418 C 16.196 28.967,13.586 31.584,13.586 32.425 C 13.586 32.807,13.423 33.221,13.223 33.344 C 11.830 34.205,11.816 36.037,12.705 98.188 C 13.056 122.698,12.439 121.211,19.385 114.282 C 22.130 111.543,24.376 109.118,24.376 108.891 C 24.376 108.665,26.713 106.148,29.570 103.297 C 32.428 100.446,34.765 97.928,34.765 97.702 C 34.765 97.476,37.103 94.959,39.960 92.108 C 42.817 89.257,45.155 86.740,45.155 86.513 C 45.155 86.287,47.493 83.770,50.350 80.919 C 53.207 78.068,55.544 75.557,55.544 75.338 C 55.544 75.119,57.208 73.266,59.241 71.220 L 62.937 67.499 60.852 65.618 C 59.706 64.583,57.728 62.878,56.457 61.830 C 55.186 60.781,52.977 58.942,51.548 57.742 C 50.120 56.543,47.962 54.745,46.753 53.746 C 42.213 49.997,39.299 47.531,37.326 45.771 C 36.207 44.773,35.122 43.956,34.914 43.956 C 34.706 43.956,33.650 43.057,32.567 41.958 C 31.485 40.859,30.406 39.960,30.170 39.960 C 29.934 39.960,28.855 39.061,27.772 37.962 C 26.690 36.863,25.612 35.964,25.377 35.964 C 24.258 35.964,19.228 29.835,19.971 29.376 C 21.365 28.515,19.365 27.713,17.582 28.418 M317.889 68.325 C 317.027 69.208,316.126 69.930,315.888 69.930 C 315.650 69.930,314.569 70.829,313.487 71.928 C 312.404 73.027,311.324 73.926,311.085 73.926 C 310.847 73.926,309.949 74.645,309.091 75.524 C 308.232 76.404,307.333 77.123,307.093 77.123 C 306.852 77.123,305.953 77.842,305.095 78.721 C 304.236 79.600,303.337 80.320,303.097 80.320 C 302.856 80.320,301.957 81.039,301.099 81.918 C 300.240 82.797,299.341 83.516,299.101 83.516 C 298.860 83.516,297.961 84.236,297.103 85.115 C 296.244 85.994,295.345 86.713,295.105 86.713 C 294.864 86.713,293.965 87.433,293.107 88.312 C 292.248 89.191,291.349 89.910,291.109 89.910 C 290.868 89.910,289.969 90.629,289.111 91.508 C 288.252 92.388,287.353 93.107,287.113 93.107 C 286.872 93.107,285.973 93.826,285.115 94.705 C 284.256 95.584,283.357 96.304,283.117 96.304 C 282.876 96.304,281.977 97.023,281.119 97.902 C 280.260 98.781,279.361 99.500,279.121 99.500 C 278.880 99.500,277.981 100.220,277.123 101.099 C 276.264 101.978,275.394 102.697,275.188 102.697 C 274.983 102.697,274.037 103.372,273.085 104.196 C 272.134 105.020,270.445 106.414,269.331 107.293 C 268.217 108.172,266.527 109.565,265.576 110.390 C 264.625 111.214,263.673 111.888,263.462 111.888 C 263.250 111.888,262.667 112.324,262.167 112.856 L 261.258 113.824 261.305 172.152 C 261.336 209.420,261.212 230.851,260.961 231.510 C 260.683 232.242,260.710 232.692,261.054 233.063 C 261.320 233.351,262.525 234.750,263.731 236.173 C 264.937 237.597,266.600 239.421,267.427 240.228 C 268.254 241.035,268.931 241.848,268.931 242.035 C 268.931 242.222,270.370 243.862,272.128 245.680 C 273.886 247.499,275.325 249.144,275.325 249.338 C 275.325 249.531,276.583 250.963,278.122 252.520 C 279.660 254.077,280.919 255.500,280.919 255.683 C 280.919 255.867,282.358 257.490,284.116 259.292 C 285.874 261.093,287.313 262.749,287.313 262.971 C 287.313 263.193,288.571 264.617,290.110 266.134 C 291.648 267.651,292.907 269.089,292.907 269.328 C 292.907 269.568,294.346 271.188,296.104 272.927 C 297.862 274.667,299.301 276.246,299.301 276.436 C 299.301 276.627,300.540 278.059,302.054 279.620 C 303.569 281.180,304.873 282.640,304.952 282.864 C 305.030 283.088,306.444 284.745,308.092 286.546 C 312.691 291.570,314.942 294.102,316.944 296.503 C 317.952 297.712,319.474 299.426,320.327 300.312 C 321.180 301.197,322.352 302.546,322.931 303.309 C 323.510 304.071,325.274 306.027,326.852 307.655 L 329.719 310.614 331.893 308.467 C 333.088 307.287,334.066 306.130,334.066 305.897 C 334.066 305.664,335.325 304.224,336.863 302.697 C 338.402 301.171,339.660 299.733,339.660 299.502 C 339.660 299.271,341.099 297.652,342.857 295.904 C 344.615 294.156,346.054 292.536,346.054 292.305 C 346.054 292.073,347.133 290.815,348.452 289.510 C 349.770 288.206,350.849 286.948,350.849 286.715 C 350.849 286.483,352.108 285.043,353.646 283.516 C 355.185 281.990,356.444 280.567,356.444 280.355 C 356.444 280.143,358.017 278.296,359.940 276.251 C 366.678 269.085,368.831 266.675,368.831 266.297 C 368.831 266.087,370.270 264.485,372.028 262.737 C 373.786 260.989,375.225 259.370,375.225 259.140 C 375.225 258.909,376.484 257.471,378.022 255.944 C 379.560 254.417,380.819 252.979,380.819 252.749 C 380.819 252.518,382.258 250.899,384.016 249.151 L 387.213 245.973 387.213 225.907 C 387.213 212.961,387.071 205.754,386.813 205.594 C 386.555 205.435,386.414 197.739,386.414 183.816 C 386.414 169.893,386.272 162.198,386.014 162.038 C 385.759 161.881,385.614 156.514,385.614 147.253 C 385.614 137.992,385.469 132.625,385.215 132.468 C 384.995 132.332,384.815 131.869,384.815 131.440 C 384.815 131.010,384.590 130.271,384.316 129.796 C 383.717 128.763,372.729 117.651,372.092 117.434 C 371.846 117.351,367.281 112.944,361.947 107.642 C 356.612 102.339,352.026 97.934,351.754 97.851 C 351.483 97.769,346.981 93.432,341.749 88.212 C 336.517 82.992,332.066 78.721,331.857 78.721 C 331.649 78.721,328.773 76.021,325.467 72.720 L 319.457 66.719 317.889 68.325 M66.621 74.637 C 65.364 75.907,64.336 77.081,64.336 77.246 C 64.336 77.410,62.134 79.798,59.443 82.552 C 56.753 85.306,54.384 87.863,54.180 88.235 C 53.976 88.607,51.659 91.104,49.032 93.784 C 46.404 96.464,43.936 99.161,43.548 99.778 C 43.160 100.395,40.755 102.964,38.204 105.488 C 35.653 108.012,33.566 110.262,33.566 110.489 C 33.566 110.715,31.229 113.233,28.372 116.084 C 25.514 118.935,23.177 121.424,23.177 121.616 C 23.177 121.808,20.884 124.293,18.082 127.139 C 14.526 130.750,12.847 132.758,12.523 133.788 C 12.267 134.600,11.867 135.896,11.632 136.668 C 11.344 137.617,11.118 157.523,10.933 198.206 C 10.629 265.071,10.529 262.098,13.134 263.221 C 16.900 264.845,17.293 265.090,17.618 266.016 C 17.708 266.273,19.686 268.428,22.013 270.804 C 24.339 273.181,26.317 275.331,26.408 275.583 C 26.573 276.040,30.587 280.414,38.211 288.446 C 40.436 290.790,42.325 292.921,42.407 293.181 C 42.490 293.442,44.368 295.510,46.582 297.777 C 48.795 300.043,50.773 302.200,50.977 302.568 C 51.182 302.937,53.012 304.965,55.045 307.075 C 57.078 309.186,58.741 311.047,58.741 311.211 C 58.741 311.374,60.086 312.845,61.731 314.478 L 64.720 317.447 65.926 316.291 C 66.590 315.655,67.133 314.937,67.133 314.695 C 67.133 314.454,68.032 313.370,69.131 312.288 C 70.230 311.205,71.129 310.126,71.129 309.890 C 71.129 309.654,72.028 308.575,73.127 307.493 C 74.226 306.410,75.125 305.331,75.125 305.095 C 75.125 304.859,76.024 303.780,77.123 302.697 C 78.222 301.615,79.121 300.534,79.121 300.296 C 79.121 300.058,79.840 299.160,80.719 298.302 C 81.598 297.443,82.318 296.546,82.318 296.307 C 82.318 296.069,83.217 294.988,84.316 293.906 C 85.415 292.824,86.314 291.745,86.314 291.508 C 86.314 291.272,87.213 290.193,88.312 289.111 C 89.411 288.029,90.310 286.950,90.310 286.713 C 90.310 286.477,91.209 285.398,92.308 284.316 C 93.407 283.233,94.306 282.154,94.306 281.918 C 94.306 281.682,95.205 280.603,96.304 279.520 C 97.403 278.438,98.302 277.357,98.302 277.119 C 98.302 276.881,99.021 275.983,99.900 275.125 C 100.779 274.266,101.499 273.369,101.499 273.131 C 101.499 272.892,102.398 271.812,103.497 270.729 C 104.595 269.647,105.495 268.568,105.495 268.332 C 105.495 268.095,106.394 267.016,107.493 265.934 C 108.591 264.852,109.491 263.797,109.491 263.590 C 109.491 263.383,110.345 262.257,111.389 261.088 C 113.412 258.821,116.009 255.722,118.881 252.148 C 120.836 249.715,123.707 246.251,125.922 243.654 C 127.447 241.866,127.432 242.069,126.254 239.161 C 126.076 238.721,125.831 235.395,125.710 231.768 C 125.475 224.738,124.943 211.506,124.281 196.204 C 123.602 180.522,123.115 168.773,122.476 152.647 C 122.141 144.186,121.692 133.307,121.478 128.472 C 121.264 123.636,121.087 118.778,121.084 117.675 L 121.079 115.670 117.213 112.482 C 115.087 110.729,113.150 109.114,112.908 108.893 C 112.666 108.672,111.304 107.507,109.880 106.304 C 108.457 105.101,107.203 104.012,107.093 103.883 C 106.983 103.755,106.485 103.371,105.986 103.030 C 105.486 102.689,104.407 101.801,103.588 101.055 C 102.768 100.310,101.469 99.223,100.699 98.639 C 99.930 98.055,98.626 96.931,97.801 96.141 C 96.977 95.352,96.167 94.703,96.003 94.701 C 95.839 94.699,94.762 93.800,93.611 92.703 C 92.460 91.607,91.373 90.709,91.195 90.709 C 91.017 90.709,90.169 89.990,89.311 89.111 C 88.452 88.232,87.555 87.512,87.316 87.512 C 87.078 87.512,85.997 86.613,84.915 85.514 C 83.833 84.416,82.754 83.516,82.517 83.516 C 82.281 83.516,81.202 82.617,80.120 81.518 C 79.038 80.420,77.959 79.520,77.722 79.520 C 77.486 79.520,76.407 78.621,75.325 77.522 C 74.242 76.424,73.162 75.524,72.923 75.524 C 72.685 75.524,71.788 74.805,70.929 73.926 C 68.997 71.947,69.339 71.891,66.621 74.637 M221.978 118.317 C 216.044 118.485,204.895 118.822,197.203 119.065 C 189.510 119.308,177.552 119.673,170.629 119.877 C 137.316 120.858,139.287 120.624,141.874 123.293 C 142.611 124.053,143.410 124.675,143.650 124.675 C 143.890 124.675,144.972 125.574,146.054 126.673 C 147.136 127.772,148.215 128.671,148.452 128.671 C 148.688 128.671,149.767 129.570,150.849 130.669 C 151.932 131.768,153.010 132.667,153.247 132.667 C 153.483 132.667,154.562 133.566,155.644 134.665 C 156.727 135.764,157.806 136.663,158.042 136.663 C 158.278 136.663,159.357 137.562,160.440 138.661 C 161.522 139.760,162.601 140.659,162.837 140.659 C 163.073 140.659,164.152 141.558,165.235 142.657 C 166.317 143.756,167.396 144.655,167.632 144.655 C 167.869 144.655,168.948 145.554,170.030 146.653 C 171.112 147.752,172.167 148.651,172.374 148.651 C 172.581 148.651,173.707 149.505,174.876 150.549 C 176.046 151.593,178.091 153.347,179.421 154.446 C 180.750 155.544,182.795 157.298,183.965 158.342 C 185.134 159.386,186.228 160.240,186.395 160.240 C 186.561 160.240,187.232 160.689,187.885 161.239 C 189.450 162.555,190.055 162.500,191.554 160.906 C 192.243 160.174,194.336 158.341,196.204 156.833 C 198.072 155.326,199.690 153.991,199.800 153.867 C 199.910 153.743,200.678 153.136,201.508 152.518 C 202.337 151.900,203.453 150.957,203.987 150.422 C 204.521 149.888,205.103 149.451,205.279 149.451 C 205.455 149.451,206.362 148.731,207.296 147.852 C 208.229 146.973,209.127 146.252,209.292 146.251 C 209.456 146.249,210.310 145.539,211.189 144.672 C 212.068 143.805,212.967 143.086,213.187 143.074 C 213.407 143.061,214.306 142.342,215.185 141.475 C 216.064 140.609,216.963 139.889,217.183 139.876 C 217.403 139.863,218.524 138.955,219.676 137.858 C 220.827 136.761,221.907 135.864,222.075 135.864 C 222.244 135.864,223.146 135.145,224.079 134.266 C 225.012 133.387,225.941 132.667,226.143 132.667 C 226.346 132.667,227.127 131.948,227.879 131.069 C 228.632 130.190,229.517 129.471,229.847 129.471 C 230.445 129.471,231.768 128.266,231.768 127.722 C 231.768 127.375,233.847 125.505,234.252 125.487 C 234.594 125.472,237.253 123.141,239.624 120.779 C 240.562 119.845,241.650 119.063,242.043 119.040 C 242.436 119.018,242.128 118.812,241.359 118.583 C 239.461 118.020,234.748 117.955,221.978 118.317 M252.547 120.944 C 252.547 121.143,251.998 121.631,251.326 122.028 C 250.654 122.425,249.491 123.362,248.742 124.112 C 247.992 124.861,247.215 125.475,247.015 125.475 C 246.814 125.475,245.909 126.194,245.003 127.073 C 244.097 127.952,243.198 128.671,243.005 128.671 C 242.812 128.671,241.913 129.391,241.007 130.270 C 240.101 131.149,239.202 131.868,239.009 131.868 C 238.816 131.868,237.917 132.587,237.011 133.467 C 236.105 134.346,235.228 135.065,235.062 135.065 C 234.897 135.065,233.997 135.784,233.064 136.663 C 232.131 137.542,231.227 138.262,231.056 138.262 C 230.884 138.262,229.802 139.161,228.649 140.260 C 227.497 141.359,226.423 142.258,226.262 142.258 C 226.101 142.258,225.206 142.977,224.273 143.856 C 223.339 144.735,222.440 145.455,222.275 145.455 C 222.109 145.455,221.210 146.174,220.277 147.053 C 219.343 147.932,218.445 148.656,218.281 148.663 C 217.851 148.679,214.470 151.951,213.932 152.871 C 213.627 153.392,213.131 153.608,212.419 153.529 C 211.619 153.440,210.979 153.807,209.807 155.028 C 208.953 155.916,208.056 156.643,207.813 156.643 C 207.353 156.643,203.796 160.031,203.796 160.469 C 203.796 160.606,203.257 161.222,202.597 161.838 C 201.140 163.200,201.057 164.563,202.338 166.103 C 202.855 166.724,203.349 167.447,203.437 167.709 C 203.525 167.971,204.871 169.500,206.428 171.106 C 207.985 172.712,209.424 174.326,209.625 174.693 C 209.826 175.060,211.446 176.865,213.225 178.704 C 215.004 180.542,216.533 182.253,216.621 182.505 C 216.710 182.757,218.155 184.393,219.832 186.141 C 221.508 187.889,222.947 189.506,223.028 189.735 C 223.110 189.964,224.365 191.392,225.817 192.908 C 227.270 194.424,228.529 195.858,228.615 196.096 C 228.874 196.811,234.399 202.448,235.107 202.720 C 235.468 202.858,235.764 203.161,235.764 203.392 C 235.764 203.624,237.023 205.076,238.561 206.621 C 240.100 208.166,241.359 209.560,241.359 209.719 C 241.359 209.878,242.797 211.439,244.555 213.187 C 246.314 214.935,247.752 216.555,247.752 216.787 C 247.752 217.020,248.758 218.193,249.987 219.394 C 251.216 220.596,252.373 221.938,252.559 222.378 C 252.842 223.047,252.901 222.969,252.922 221.902 C 252.936 221.200,253.127 220.515,253.347 220.380 C 254.077 219.928,253.879 121.687,253.147 121.079 C 252.817 120.805,252.547 120.745,252.547 120.944 M129.139 123.169 C 128.566 123.741,128.528 124.939,129.071 125.275 C 129.319 125.428,129.471 129.067,129.471 134.865 C 129.471 140.663,129.622 144.302,129.870 144.456 C 130.118 144.609,130.270 148.248,130.270 154.046 C 130.270 159.844,130.421 163.483,130.669 163.636 C 130.917 163.789,131.069 167.362,131.069 173.027 C 131.069 178.692,131.221 182.265,131.469 182.418 C 131.716 182.571,131.868 186.210,131.868 192.008 C 131.868 197.806,132.020 201.445,132.268 201.598 C 132.516 201.752,132.667 205.372,132.667 211.132 C 132.667 216.582,132.827 220.579,133.054 220.806 C 133.266 221.019,133.491 223.418,133.553 226.138 C 133.704 232.723,134.024 232.976,137.656 229.376 C 139.088 227.957,140.260 226.603,140.260 226.366 C 140.260 226.130,140.979 225.234,141.858 224.376 C 142.737 223.517,143.457 222.620,143.457 222.381 C 143.457 222.143,144.356 221.062,145.455 219.980 C 146.553 218.898,147.453 217.819,147.453 217.582 C 147.453 217.346,148.352 216.267,149.451 215.185 C 150.549 214.102,151.449 213.024,151.449 212.787 C 151.449 212.551,152.348 211.472,153.447 210.390 C 154.545 209.307,155.445 208.228,155.445 207.992 C 155.445 207.756,156.344 206.677,157.443 205.594 C 158.541 204.512,159.441 203.431,159.441 203.193 C 159.441 202.955,160.160 202.057,161.039 201.199 C 161.918 200.340,162.637 199.443,162.637 199.205 C 162.637 198.966,163.536 197.886,164.635 196.803 C 165.734 195.721,166.633 194.666,166.633 194.459 C 166.633 194.252,167.488 193.126,168.531 191.957 C 169.575 190.787,171.288 188.792,172.336 187.523 C 173.385 186.253,175.183 184.096,176.332 182.728 C 177.481 181.361,179.141 179.328,180.020 178.211 C 180.899 177.094,182.428 175.246,183.417 174.104 C 186.466 170.584,186.459 170.644,184.072 168.287 C 182.929 167.158,181.812 166.234,181.591 166.234 C 181.370 166.234,180.303 165.335,179.221 164.236 C 178.138 163.137,177.059 162.238,176.823 162.238 C 176.587 162.238,175.508 161.339,174.426 160.240 C 173.343 159.141,172.271 158.234,172.043 158.225 C 171.815 158.216,170.729 157.318,169.630 156.230 C 168.531 155.143,167.495 154.251,167.328 154.249 C 167.160 154.247,166.081 153.349,164.930 152.252 C 163.779 151.155,162.700 150.256,162.533 150.254 C 162.365 150.252,161.286 149.352,160.135 148.256 C 158.984 147.159,157.905 146.260,157.737 146.258 C 157.570 146.256,156.491 145.356,155.340 144.260 C 154.189 143.163,153.110 142.264,152.942 142.262 C 152.775 142.260,151.696 141.360,150.545 140.264 C 149.393 139.167,148.315 138.268,148.147 138.266 C 147.980 138.264,146.901 137.364,145.749 136.268 C 144.598 135.171,143.498 134.272,143.304 134.270 C 143.110 134.268,142.660 133.939,142.305 133.539 C 141.949 133.140,140.579 131.941,139.261 130.875 C 135.834 128.106,133.197 125.898,131.276 124.188 C 130.001 123.052,129.496 122.812,129.139 123.169 M191.363 176.892 C 189.630 178.579,188.212 180.159,188.212 180.404 C 188.212 180.649,187.313 181.735,186.214 182.817 C 185.115 183.900,184.216 184.978,184.216 185.215 C 184.216 185.451,183.317 186.530,182.218 187.612 C 181.119 188.695,180.220 189.775,180.220 190.014 C 180.220 190.252,179.500 191.150,178.621 192.008 C 177.742 192.866,177.023 193.740,177.023 193.949 C 177.023 194.157,176.169 195.280,175.125 196.443 C 174.081 197.606,172.507 199.472,171.628 200.589 C 170.749 201.706,169.131 203.692,168.032 205.003 C 166.933 206.315,165.450 208.085,164.735 208.937 C 164.021 209.789,163.437 210.690,163.437 210.938 C 163.437 211.186,163.296 211.389,163.123 211.389 C 162.951 211.389,162.485 211.938,162.088 212.610 C 161.691 213.282,160.753 214.445,160.004 215.194 C 159.255 215.944,158.641 216.708,158.641 216.894 C 158.641 217.079,157.829 218.209,156.837 219.405 C 155.844 220.600,154.271 222.536,153.340 223.706 C 152.410 224.877,150.795 226.781,149.752 227.939 L 147.856 230.043 149.353 230.532 C 150.909 231.040,153.316 231.002,173.227 230.163 C 178.501 229.940,186.863 229.670,191.808 229.562 C 196.753 229.454,201.159 229.188,201.598 228.971 C 202.038 228.753,206.623 228.495,211.788 228.396 C 246.890 227.723,246.665 227.756,242.812 223.793 C 241.628 222.575,240.502 221.276,240.309 220.906 C 240.116 220.537,238.685 218.918,237.128 217.310 C 235.571 215.702,234.133 214.084,233.932 213.716 C 233.731 213.348,232.473 211.910,231.137 210.519 C 229.801 209.129,228.542 207.690,228.339 207.320 C 228.136 206.950,226.695 205.332,225.135 203.724 C 223.576 202.115,222.227 200.585,222.139 200.324 C 222.050 200.063,220.764 198.599,219.281 197.072 C 217.797 195.545,216.583 194.136,216.583 193.942 C 216.583 193.747,215.145 192.158,213.387 190.410 C 211.628 188.662,210.190 187.043,210.190 186.812 C 210.190 186.581,208.931 185.143,207.393 183.616 C 205.854 182.090,204.595 180.642,204.595 180.400 C 204.595 178.902,198.270 173.826,196.404 173.826 C 194.588 173.826,194.390 173.947,191.363 176.892 M244.330 234.951 C 244.116 235.165,239.684 235.426,234.360 235.538 C 224.893 235.738,214.284 236.112,194.805 236.934 C 180.768 237.527,166.906 238.086,155.245 238.531 C 139.001 239.150,137.653 239.371,138.861 241.215 C 139.452 242.117,139.437 242.158,138.501 242.158 C 137.446 242.158,135.065 243.923,135.065 244.706 C 135.065 244.969,134.166 246.070,133.067 247.153 C 131.968 248.235,131.069 249.314,131.069 249.550 C 131.069 249.787,130.170 250.866,129.071 251.948 C 127.972 253.030,127.073 254.109,127.073 254.346 C 127.073 254.582,126.174 255.661,125.075 256.743 C 123.976 257.826,123.077 258.905,123.077 259.141 C 123.077 259.377,122.178 260.456,121.079 261.538 C 119.980 262.621,119.081 263.701,119.081 263.940 C 119.081 264.178,118.362 265.076,117.483 265.934 C 116.603 266.793,115.884 267.666,115.884 267.875 C 115.884 268.084,115.030 269.202,113.986 270.360 C 110.715 273.988,108.505 276.598,108.132 277.272 C 107.934 277.630,106.945 278.862,105.934 280.010 C 103.897 282.324,101.186 285.570,98.501 288.911 C 95.630 292.485,93.032 295.584,91.009 297.851 C 89.965 299.020,89.111 300.147,89.111 300.353 C 89.111 300.560,88.212 301.615,87.113 302.697 C 86.014 303.780,85.115 304.859,85.115 305.095 C 85.115 305.331,84.216 306.410,83.117 307.493 C 82.018 308.575,81.119 309.656,81.119 309.894 C 81.119 310.132,80.400 311.030,79.520 311.888 C 78.641 312.747,77.922 313.644,77.922 313.882 C 77.922 314.121,77.023 315.201,75.924 316.284 C 74.825 317.366,73.926 318.431,73.926 318.651 C 73.926 318.871,73.226 319.777,72.371 320.664 C 69.458 323.685,67.481 321.237,92.915 346.090 C 96.647 349.737,107.321 360.211,116.636 369.367 L 133.572 386.014 198.323 386.014 L 263.074 386.014 264.704 384.289 C 265.600 383.340,267.318 381.407,268.520 379.993 C 269.722 378.579,270.983 377.153,271.320 376.823 C 271.658 376.494,273.100 374.875,274.525 373.227 C 275.951 371.578,277.392 369.960,277.727 369.630 C 278.063 369.301,278.848 368.402,279.473 367.632 C 280.097 366.863,281.354 365.425,282.265 364.436 C 283.177 363.447,286.521 359.670,289.697 356.044 C 301.261 342.838,307.071 336.226,308.663 334.458 C 309.558 333.465,311.459 331.310,312.887 329.670 C 315.757 326.376,318.958 322.787,319.304 322.478 C 320.104 321.760,324.076 316.808,324.076 316.527 C 324.076 316.337,323.806 315.958,323.477 315.684 C 323.147 315.411,322.877 314.978,322.877 314.724 C 322.877 314.469,321.798 313.193,320.480 311.888 C 319.161 310.583,318.082 309.326,318.082 309.094 C 318.082 308.862,316.643 307.242,314.885 305.495 C 313.127 303.747,311.688 302.128,311.688 301.897 C 311.688 301.666,310.430 300.228,308.891 298.701 C 307.353 297.175,306.094 295.753,306.094 295.542 C 306.094 295.332,304.700 293.665,302.997 291.838 C 296.749 285.136,294.696 282.840,294.306 282.115 C 294.086 281.707,292.602 280.034,291.009 278.397 C 289.416 276.760,288.112 275.259,288.112 275.062 C 288.112 274.865,286.853 273.455,285.315 271.928 C 283.776 270.401,282.517 268.963,282.517 268.733 C 282.517 268.502,281.079 266.883,279.321 265.135 C 277.562 263.387,276.124 261.768,276.124 261.537 C 276.124 261.306,274.865 259.868,273.327 258.342 C 271.788 256.815,270.528 255.381,270.526 255.156 C 270.524 254.930,269.091 253.307,267.341 251.548 C 265.591 249.790,264.154 248.167,264.148 247.941 C 264.141 247.716,262.877 246.282,261.339 244.755 C 259.800 243.229,258.541 241.791,258.541 241.560 C 258.541 241.330,257.054 239.662,255.236 237.853 L 251.931 234.565 248.323 234.565 C 246.339 234.565,244.542 234.739,244.330 234.951 M382.292 262.063 C 381.043 263.325,380.020 264.519,380.020 264.716 C 380.020 265.097,377.562 267.873,371.928 273.858 C 370.005 275.901,368.432 277.746,368.432 277.958 C 368.432 278.170,367.173 279.592,365.634 281.119 C 364.096 282.646,362.837 284.084,362.837 284.314 C 362.837 284.545,361.399 286.164,359.640 287.912 C 357.882 289.660,356.444 291.279,356.444 291.510 C 356.444 291.741,355.185 293.179,353.646 294.705 C 352.108 296.232,350.849 297.671,350.849 297.902 C 350.849 298.134,349.590 299.572,348.052 301.099 C 346.513 302.626,345.255 304.064,345.255 304.294 C 345.255 304.525,343.816 306.144,342.058 307.892 C 340.300 309.640,338.861 311.261,338.861 311.494 C 338.861 311.727,337.962 312.804,336.863 313.886 C 334.282 316.429,334.328 316.792,337.662 320.080 C 339.201 321.597,340.460 323.035,340.460 323.275 C 340.460 323.514,341.898 325.134,343.656 326.873 C 345.415 328.613,346.853 330.231,346.853 330.470 C 346.853 330.708,348.292 332.326,350.050 334.066 C 351.808 335.805,353.247 337.425,353.247 337.665 C 353.247 337.904,354.505 339.342,356.044 340.859 C 357.582 342.376,358.841 343.815,358.841 344.056 C 358.841 344.297,360.060 345.699,361.550 347.172 C 363.040 348.645,364.524 350.230,364.847 350.694 C 365.392 351.476,368.046 354.525,372.443 359.420 C 373.440 360.530,375.418 362.784,376.839 364.429 C 381.241 369.529,381.013 369.358,382.430 368.625 C 383.101 368.278,383.804 367.598,383.991 367.114 C 384.178 366.630,384.799 365.798,385.372 365.265 C 385.945 364.732,386.414 363.889,386.414 363.390 C 386.414 362.892,386.593 362.374,386.813 362.238 C 387.033 362.102,387.213 361.383,387.213 360.639 C 387.213 359.896,387.393 359.177,387.612 359.041 C 387.832 358.905,388.012 357.826,388.012 356.643 C 388.012 355.461,388.192 354.382,388.412 354.246 C 388.632 354.110,388.811 352.318,388.811 350.250 C 388.811 348.181,388.632 346.390,388.412 346.254 C 388.165 346.102,388.012 342.728,388.012 337.463 C 388.012 332.197,387.859 328.824,387.612 328.671 C 387.359 328.515,387.213 323.613,387.213 315.285 C 387.213 306.956,387.066 302.055,386.813 301.898 C 386.593 301.762,386.414 301.043,386.414 300.300 C 386.414 299.556,386.234 298.837,386.014 298.701 C 385.765 298.547,385.614 294.642,385.614 288.312 C 385.614 281.981,385.464 278.076,385.215 277.922 C 384.995 277.786,384.815 276.994,384.815 276.162 C 384.815 274.382,384.034 272.659,382.628 271.338 C 381.245 270.039,381.239 267.828,382.615 266.535 C 383.621 265.591,385.614 261.984,385.614 261.109 C 385.614 259.519,384.490 259.842,382.292 262.063 M13.312 274.625 C 12.389 276.062,11.988 277.127,11.988 278.144 C 11.988 278.765,11.808 279.385,11.588 279.520 C 11.036 279.862,11.036 361.097,11.588 361.439 C 11.808 361.574,11.988 362.209,11.988 362.849 C 11.988 365.088,15.759 369.704,18.811 371.200 C 20.012 371.789,21.978 370.698,21.978 369.442 C 21.978 369.195,22.697 368.291,23.576 367.433 C 24.456 366.574,25.175 365.677,25.175 365.438 C 25.175 365.200,26.074 364.119,27.173 363.037 C 28.272 361.955,29.171 360.876,29.171 360.639 C 29.171 360.403,30.070 359.324,31.169 358.242 C 32.268 357.159,33.167 356.080,33.167 355.844 C 33.167 355.608,34.066 354.529,35.165 353.447 C 36.264 352.364,37.163 351.285,37.163 351.049 C 37.163 350.813,38.062 349.734,39.161 348.651 C 40.260 347.569,41.159 346.488,41.159 346.250 C 41.159 346.012,41.878 345.114,42.757 344.256 C 43.636 343.397,44.356 342.500,44.356 342.262 C 44.356 342.023,45.255 340.943,46.354 339.860 C 47.453 338.778,48.352 337.699,48.352 337.463 C 48.352 337.226,49.251 336.147,50.350 335.065 C 51.449 333.983,52.348 332.904,52.348 332.667 C 52.348 332.431,53.247 331.352,54.346 330.270 C 55.445 329.187,56.344 328.122,56.344 327.902 C 56.344 327.683,57.079 326.754,57.978 325.838 L 59.612 324.173 58.615 322.626 C 58.066 321.775,55.892 319.374,53.784 317.291 C 51.675 315.207,49.950 313.316,49.950 313.087 C 49.950 312.859,48.152 310.881,45.954 308.691 C 43.756 306.502,41.958 304.524,41.958 304.296 C 41.958 304.068,40.160 302.090,37.962 299.900 C 35.764 297.711,33.966 295.733,33.966 295.505 C 33.966 295.278,31.988 293.119,29.570 290.709 C 27.153 288.299,25.175 286.141,25.175 285.913 C 25.175 285.686,23.377 283.708,21.179 281.518 C 18.981 279.329,17.183 277.345,17.183 277.109 C 17.183 275.765,13.924 273.674,13.312 274.625 M325.449 326.946 C 323.485 329.183,320.976 332.016,319.872 333.239 C 318.769 334.463,316.524 336.993,314.883 338.861 C 313.242 340.729,311.804 342.348,311.687 342.458 C 311.571 342.567,310.964 343.287,310.339 344.056 C 309.714 344.825,308.458 346.267,307.548 347.261 C 306.638 348.254,304.548 350.592,302.903 352.455 C 301.257 354.319,299.816 355.934,299.699 356.044 C 299.583 356.154,298.976 356.873,298.351 357.642 C 297.726 358.412,296.467 359.850,295.554 360.839 C 293.747 362.796,281.448 376.775,277.423 381.447 C 276.037 383.055,274.925 384.728,274.925 385.203 L 274.925 386.059 318.748 385.937 C 353.364 385.840,362.606 385.709,362.737 385.315 C 362.829 385.040,363.248 384.815,363.670 384.815 C 364.091 384.815,364.436 384.635,364.436 384.416 C 364.436 384.196,364.795 384.016,365.235 384.016 C 365.674 384.016,366.035 383.881,366.037 383.716 C 366.040 383.421,367.924 382.418,368.476 382.418 C 369.302 382.418,373.227 377.975,373.227 377.040 C 373.227 376.481,373.407 376.024,373.626 376.024 C 374.477 376.024,374.045 372.911,373.027 371.701 C 372.478 371.048,372.028 370.356,372.028 370.163 C 372.028 369.970,370.589 368.381,368.831 366.633 C 367.073 364.885,365.634 363.266,365.634 363.036 C 365.634 362.805,364.376 361.367,362.837 359.840 C 361.299 358.313,360.040 356.891,360.040 356.678 C 360.040 356.466,358.686 354.843,357.030 353.071 C 353.913 349.735,349.489 344.795,344.655 339.252 C 343.117 337.488,340.465 334.553,338.761 332.730 C 337.058 330.907,335.664 329.244,335.664 329.034 C 335.664 328.516,329.959 322.877,329.436 322.877 C 329.207 322.877,327.413 324.708,325.449 326.946 M63.418 331.186 C 62.604 332.019,61.938 332.882,61.938 333.103 C 61.938 333.323,61.219 334.206,60.340 335.065 C 59.461 335.923,58.741 336.780,58.741 336.968 C 58.741 337.156,57.977 338.124,57.043 339.119 C 56.109 340.114,55.176 341.227,54.971 341.593 C 54.765 341.958,53.866 343.037,52.973 343.990 C 52.080 344.943,51.187 346.022,50.989 346.388 C 50.792 346.754,49.803 347.992,48.791 349.141 C 46.754 351.455,44.044 354.701,41.359 358.042 C 38.487 361.616,35.890 364.715,33.866 366.982 C 32.822 368.151,31.968 369.277,31.968 369.484 C 31.968 369.691,31.069 370.746,29.970 371.828 C 28.871 372.911,27.972 374.015,27.972 374.282 C 27.972 374.549,27.338 375.290,26.563 375.928 L 25.155 377.089 26.061 378.255 C 27.923 380.649,28.970 381.671,30.645 382.729 C 31.592 383.327,32.367 383.951,32.367 384.116 C 32.367 384.281,32.727 384.416,33.167 384.416 C 33.606 384.416,33.966 384.595,33.966 384.815 C 33.966 385.035,34.405 385.215,34.941 385.215 C 35.478 385.215,36.028 385.395,36.164 385.614 C 36.470 386.109,121.878 386.174,121.878 385.679 C 121.878 385.174,65.606 329.670,65.094 329.670 C 64.986 329.670,64.232 330.352,63.418 331.186 " stroke="none" fill="#040404" fill-rule="evenodd"></path></g></svg>
