<svg height="500" viewBox="0 0 500 500" width="500" xmlns="http://www.w3.org/2000/svg"><path d="M250 122c54.224 0 99.38 38.819 109.196 90.182C419.644 227.97 460 256.473 460 289.012c0 49.666-94.02 89.929-210 89.929S40 338.678 40 289.012c0-32.539 40.356-61.042 100.803-76.83C150.619 160.819 195.776 122 250 122m0 204c-24.853 0-45 6.492-45 14.5s20.147 14.5 45 14.5 45-6.492 45-14.5-20.147-14.5-45-14.5m0-43c-19.33 0-35 5.149-35 11.5s15.67 11.5 35 11.5 35-5.149 35-11.5-15.67-11.5-35-11.5m0-37c-14.359 0-26 3.806-26 8.5s11.641 8.5 26 8.5 26-3.806 26-8.5-11.641-8.5-26-8.5"/></svg>