<svg height="500" viewBox="0 0 500 500" width="500" xmlns="http://www.w3.org/2000/svg"><path d="m175 69.943359v26.369141l45.67188-26.369141zm122.59961 0 24.95703 43.228521v-43.228521zm-122.59961 97.652341v49.9043h28.8125zm147.55664 22.50391-47.46094 27.40039h47.46094z"/><path d="m249.99932 271.50095c-214.917641 0-221.803191.0371-225.195011 1.21612-10.68678 3.71457-18.43369 11.63609-22.01657 22.5122-1.62303 4.92689-1.62303 15.22646 0 20.15336 3.06546 9.30546 9.1071 16.37048 17.69692 20.69368 3.13415 1.57739 6.95215 2.92685 9.40964 3.32666 2.56626.41755 21.87303.68138 50.89159.69553 42.470991.0208 47.542981.13656 55.343801 1.26125 10.13962 1.46193 21.53014 4.73665 31.74926 9.12792 8.74859 3.7594 20.2877 7.77525 28.75074 10.00545 11.8857 3.13204 30.45715 6.56345 42.23711 7.80454 5.18198.546 26.28775-.24021 32.44366-1.20906 23.66795-3.72484 43.35279-9.09904 60.81064-16.60093 10.21913-4.39127 21.60962-7.66599 31.74926-9.12792 7.80079-1.12469 12.87279-1.2405 55.34379-1.26125 29.01858-.0141 48.32531-.27797 50.89161-.69553 2.45748-.39981 6.2741-1.74927 9.40824-3.32666 8.58982-4.3232 14.63282-11.38822 17.69829-20.69368 1.62302-4.9269 1.62302-15.22647 0-20.15336-3.58287-10.87611-11.32979-18.79763-22.01656-22.5122-3.39181-1.17895-10.27874-1.21612-225.19641-1.21612zm-71.66155 7.47585h71.66155 71.66295l1.4882 1.61961c1.19674 1.30185 2.26479 5.08943 5.4503 19.3393 3.50604 15.68382 3.86452 17.90942 3.12136 19.34779-1.12258 2.17271-9.85437 10.79141-14.60869 14.41984-5.42233 4.13822-15.73015 9.88661-22.34099 12.45881-7.23484 2.81503-19.41683 6.33858-29.35129 8.48882-10.86134 2.35081-20.85981 2.28159-31.96051-.2215-28.87091-6.51011-44.92481-14.23847-59.36798-28.58009-2.73697-2.71775-5.3543-5.67202-5.81613-6.56588-.74316-1.43838-.38331-3.66397 3.12273-19.34779 3.18552-14.24987 4.25216-18.03745 5.44893-19.3393z" stroke="#fff" stroke-width="3"/><g transform="matrix(.8660254 -.5 .5 .8660254 0 0)"><path d="m72.756355 275.90863h45v45h-45z"/><path d="m122.75636 275.90863h45v45h-45z"/><path d="m172.75635 275.90863h45v45h-45z"/><path d="m72.756355 225.90862h45v45h-45z"/><path d="m122.75636 225.90862h45v45h-45z"/><path d="m172.75635 225.90862h45v45h-45z"/><path d="m72.756355 175.90862h45.000005v45h-45.000005z"/><path d="m122.75636 175.90862h45v45h-45z"/><path d="m172.75635 175.90862h45v45h-45z"/></g></svg>