<svg height="500" viewBox="0 0 500 500" width="500" xmlns="http://www.w3.org/2000/svg"><path d="M175 69.943v26.37l45.672-26.37zm122.6 0 24.957 43.229V69.943zM175 167.596V217.5h28.812zM322.557 190.1l-47.461 27.4h47.461zM249.999 271.501c-214.917 0-221.803.037-225.195 1.216-10.686 3.715-18.433 11.636-22.016 22.512-1.623 4.927-1.623 15.227 0 20.154 3.065 9.305 9.107 16.37 17.697 20.693 3.134 1.578 6.952 2.927 9.41 3.327 2.566.418 21.872.681 50.89.696 42.472.02 47.544.136 55.345 1.261 10.139 1.462 21.53 4.736 31.749 9.128 8.749 3.759 20.288 7.775 28.751 10.005 11.885 3.132 30.457 6.564 42.237 7.805 5.182.546 26.288-.241 32.443-1.209 23.668-3.725 43.353-9.099 60.811-16.601 10.219-4.392 21.61-7.666 31.749-9.128 7.801-1.125 12.873-1.241 55.344-1.261 29.019-.015 48.325-.278 50.892-.696 2.457-.4 6.274-1.749 9.408-3.327 8.59-4.323 14.633-11.388 17.698-20.693 1.623-4.927 1.623-15.227 0-20.154-3.583-10.876-11.33-18.797-22.016-22.512-3.392-1.179-10.279-1.216-225.197-1.216m-71.661 7.476h143.324l1.488 1.619c1.197 1.302 2.265 5.09 5.451 19.34 3.506 15.684 3.864 17.909 3.121 19.348-1.122 2.172-9.854 10.791-14.609 14.419-5.422 4.139-15.73 9.887-22.341 12.459-7.234 2.815-19.416 6.339-29.351 8.489-10.861 2.351-20.86 2.282-31.96-.221-28.871-6.511-44.925-14.239-59.368-28.581-2.737-2.717-5.355-5.672-5.816-6.565-.744-1.439-.384-3.664 3.122-19.348 3.186-14.25 4.252-18.038 5.449-19.34zM200.963 202.566l38.971-22.5 22.5 38.971-38.971 22.5zM244.264 177.566l38.972-22.5 22.5 38.971-38.972 22.5zM287.566 152.566l38.971-22.5 22.5 38.971-38.971 22.5zM175.963 159.264l38.971-22.5 22.5 38.972-38.971 22.5zM219.264 134.264l38.972-22.5 22.5 38.972-38.972 22.5zM262.566 109.264l38.971-22.5 22.5 38.972-38.971 22.5zM150.963 115.963l38.971-22.5 22.5 38.971-38.971 22.5zM194.264 90.963l38.972-22.5 22.5 38.971-38.972 22.5zM237.566 65.963l38.971-22.5 22.5 38.971-38.971 22.5z"/></svg>