<?xml version="1.0" encoding="UTF-8" standalone="no"?>
<!-- Created with Inkscape (http://www.inkscape.org/) -->

<svg
   id="svg2"
   version="1.1"
   inkscape:version="1.2.2 (b0a84865, 2022-12-01)"
   width="500"
   height="500"
   viewBox="0 0 500 500"
   sodipodi:docname="A4b.svg"
   xmlns:inkscape="http://www.inkscape.org/namespaces/inkscape"
   xmlns:sodipodi="http://sodipodi.sourceforge.net/DTD/sodipodi-0.dtd"
   xmlns="http://www.w3.org/2000/svg"
   xmlns:svg="http://www.w3.org/2000/svg"
   xmlns:rdf="http://www.w3.org/1999/02/22-rdf-syntax-ns#"
   xmlns:cc="http://creativecommons.org/ns#"
   xmlns:dc="http://purl.org/dc/elements/1.1/">
  <metadata
     id="metadata8">
    <rdf:RDF>
      <cc:Work
         rdf:about="">
        <dc:format>image/svg+xml</dc:format>
        <dc:type
           rdf:resource="http://purl.org/dc/dcmitype/StillImage" />
        <dc:title />
      </cc:Work>
    </rdf:RDF>
  </metadata>
  <defs
     id="defs6" />
  <sodipodi:namedview
     pagecolor="#ffffff"
     bordercolor="#666666"
     borderopacity="1"
     objecttolerance="10"
     gridtolerance="10"
     guidetolerance="10"
     inkscape:pageopacity="0"
     inkscape:pageshadow="2"
     inkscape:window-width="1728"
     inkscape:window-height="974"
     id="namedview4"
     showgrid="false"
     fit-margin-top="0"
     fit-margin-left="0"
     fit-margin-right="0"
     fit-margin-bottom="0"
     inkscape:zoom="1.1654321"
     inkscape:cx="189.20021"
     inkscape:cy="302.89195"
     inkscape:window-x="0"
     inkscape:window-y="38"
     inkscape:window-maximized="0"
     inkscape:current-layer="svg2"
     inkscape:showpageshadow="2"
     inkscape:pagecheckerboard="0"
     inkscape:deskcolor="#d1d1d1" />
  <g
     id="g4291"
     transform="translate(127.5,245)">
    <rect
       y="-45"
       x="50"
       height="45"
       width="45"
       id="rect4142"
       style="fill:#000000;fill-opacity:1;stroke:none;stroke-width:2.5;stroke-miterlimit:4;stroke-dasharray:none;stroke-opacity:1" />
    <rect
       y="-45"
       x="100"
       height="45"
       width="45"
       id="rect4142-2"
       style="fill:#000000;fill-opacity:1;stroke:none;stroke-width:2.5;stroke-miterlimit:4;stroke-dasharray:none;stroke-opacity:1" />
    <rect
       y="-45"
       x="150"
       height="45"
       width="45"
       id="rect4142-2-4"
       style="fill:#000000;fill-opacity:1;stroke:none;stroke-width:2.5;stroke-miterlimit:4;stroke-dasharray:none;stroke-opacity:1" />
    <rect
       y="-95"
       x="50"
       height="45"
       width="45"
       id="rect4142-1"
       style="fill:#000000;fill-opacity:1;stroke:none;stroke-width:2.5;stroke-miterlimit:4;stroke-dasharray:none;stroke-opacity:1" />
    <rect
       y="-95"
       x="100"
       height="45"
       width="45"
       id="rect4142-2-0"
       style="fill:#000000;fill-opacity:1;stroke:none;stroke-width:2.5;stroke-miterlimit:4;stroke-dasharray:none;stroke-opacity:1" />
    <rect
       y="-95"
       x="150"
       height="45"
       width="45"
       id="rect4142-2-4-3"
       style="fill:#000000;fill-opacity:1;stroke:none;stroke-width:2.5;stroke-miterlimit:4;stroke-dasharray:none;stroke-opacity:1" />
    <rect
       y="-145"
       x="50"
       height="45"
       width="45"
       id="rect4142-1-0"
       style="fill:#000000;fill-opacity:1;stroke:none;stroke-width:2.5;stroke-miterlimit:4;stroke-dasharray:none;stroke-opacity:1" />
    <rect
       y="-145"
       x="100"
       height="45"
       width="45"
       id="rect4142-2-0-2"
       style="fill:#000000;fill-opacity:1;stroke:none;stroke-width:2.5;stroke-miterlimit:4;stroke-dasharray:none;stroke-opacity:1" />
    <rect
       y="-145"
       x="150"
       height="45"
       width="45"
       id="rect4142-2-4-3-8"
       style="fill:#000000;fill-opacity:1;stroke:none;stroke-width:2.5;stroke-miterlimit:4;stroke-dasharray:none;stroke-opacity:1" />
  </g>
  <path
     id="path8070-4"
     style="fill:#000000;stroke:none;stroke-width:3;stroke-miterlimit:4;stroke-dasharray:none;stroke-opacity:1"
     d="M 250 273 C 179.22876 273 156.57253 273.07481 123.62109 273.13281 C 123.98746 273.52106 124.36089 273.89599 124.71289 274.3125 C 128.78743 279.13382 130.27948 281.91629 132.18945 288.24023 C 133.43857 292.37606 133.69187 294.89067 133.66797 302.99609 C 133.65249 308.27152 133.51788 313.89006 133.33008 315.86328 C 133.17159 317.52849 133.52789 321.45874 134.31836 326.06641 C 135.05595 330.36583 136.1673 335.33447 137.44922 340.07617 C 137.47233 340.07976 137.49641 340.08624 137.51953 340.08984 C 142.50226 340.86688 147.71549 342.03348 152.94922 343.5625 C 153.18277 343.63035 153.41297 343.71792 153.64648 343.78711 C 156.02827 344.49672 158.40683 345.24666 160.75781 346.08789 C 163.37272 347.02046 165.95574 348.02866 168.4707 349.10938 C 172.8032 350.97111 177.8482 352.90387 182.85547 354.64648 C 187.86274 356.3891 192.8323 357.94159 197.01172 359.04297 C 208.78613 362.14569 227.36665 365.57853 239.02344 366.80664 C 243.63407 367.29244 265.31928 366.51378 271.07812 365.60742 C 276.39891 364.77004 281.45299 363.82173 286.38477 362.8125 C 288.19044 362.44184 289.91681 362.03158 291.67383 361.63672 C 294.71021 360.95679 297.69168 360.24594 300.5918 359.49219 C 307.61265 357.66129 314.32293 355.65372 320.6543 353.36719 C 320.65566 353.36669 320.65684 353.36573 320.6582 353.36523 C 320.62472 353.26022 320.56144 353.13936 320.5332 353.03711 C 320.16967 351.72042 319.88562 350.91861 320.04688 349.87695 C 320.20813 348.83529 320.883 348.15215 321.56641 347.49023 C 322.97195 346.12893 325.09616 345.48488 328.61133 344.80078 C 334.84332 343.58794 336.07564 343.63853 341.57422 345.32227 C 344.97033 344.17482 348.38049 343.18457 351.78516 342.32422 C 352.34712 342.18015 352.89712 342.03596 353.45703 341.90039 C 356.92361 341.07336 360.3577 340.35059 363.65625 339.875 C 363.87307 339.84374 364.10671 339.83052 364.32031 339.80078 C 363.62262 334.69426 362.76494 327.09744 362.00195 318.54688 C 361.01282 307.46215 359.81239 295.89311 359.39258 293.19922 C 358.91839 290.15656 358.51219 282.0693 358.26758 273.11328 C 326.16044 273.07318 310.62904 273 250 273 z M 361.27148 273.11719 C 361.52452 282.0392 361.9679 290.25146 362.35547 292.73828 C 362.83807 295.83509 363.99664 307.16645 364.98828 318.2793 C 365.7521 326.83922 366.64111 334.56958 367.30469 339.4668 C 368.76578 339.31127 370.71284 339.17272 372.64453 339.07031 C 373.15579 339.04339 373.82107 339.02005 374.38672 338.99609 C 376.1108 338.92377 378.59593 338.85117 380.99609 338.80469 C 388.62137 338.65725 399.91155 338.60706 419.21289 338.59766 C 433.71776 338.59061 445.79472 338.52212 454.55859 338.40234 C 458.94054 338.34246 462.4948 338.2707 465.10352 338.1875 C 466.49669 338.14308 466.814 338.09619 467.64648 338.04492 C 467.49336 337.7683 467.41526 337.59388 467.23828 337.27734 C 465.62858 334.3983 463.3116 329.18654 461.95312 325.42188 C 460.64318 321.79162 458.66513 316.72526 457.60547 314.28125 C 454.35089 306.77498 449.78341 289.46982 447.10352 274.81445 C 447.01034 274.30489 446.8844 273.77984 446.7793 273.26367 C 446.76148 273.26354 446.71723 273.26381 446.69922 273.26367 C 442.94822 273.23555 434.95475 273.21188 430.02344 273.18945 C 430.09517 273.61729 430.16263 274.17669 430.23438 274.56641 C 430.54014 276.22714 431.03136 279.37515 431.3418 281.6543 C 432.50566 290.19899 436.39587 309.92046 438.85547 319.71875 C 439.78447 323.41957 440.29006 325.53374 440.43945 326.74219 C 440.47695 327.0443 440.52731 327.24722 440.44531 327.70117 C 440.40432 327.92815 440.37073 328.36931 439.75586 328.77734 C 439.44842 328.98138 439.00948 329.06248 438.69727 329.02148 C 438.38505 328.98053 438.18737 328.87246 438.04883 328.78516 C 437.49466 328.43602 437.48121 328.24897 437.33203 328.01953 C 437.18286 327.79009 437.03712 327.53477 436.87305 327.22852 C 435.97477 325.55181 435.05141 322.6345 433.96484 318.67383 C 432.87827 314.71314 431.69302 309.79167 430.53125 304.48242 C 428.24804 294.04821 426.07194 282.16696 424.95508 273.18359 C 421.98374 273.17122 411.53757 273.17667 408.10547 273.16602 C 408.33307 275.04398 408.67064 277.69543 408.83008 279.04883 C 409.8541 287.74152 411.04672 295.06709 414.57031 314.29297 C 415.27454 318.13539 415.63809 319.98717 415.68359 321.16797 C 415.69498 321.46317 415.72921 321.71013 415.5625 322.17773 C 415.47915 322.41154 415.30882 322.75498 414.91992 323.01367 C 414.53102 323.27235 414.00891 323.31175 413.69727 323.24805 C 413.07398 323.12058 412.93099 322.90198 412.75391 322.75 C 412.57682 322.59802 412.4342 322.4539 412.2832 322.30078 C 411.79745 321.8082 411.69871 321.44189 411.50586 320.94922 C 411.31301 320.45654 411.12671 319.8733 410.93945 319.19531 C 410.56494 317.83933 410.18983 316.11559 409.86133 314.21289 C 406.45716 294.49654 406.00559 291.55979 403.79297 274.74023 C 403.7219 274.19995 403.63166 273.74061 403.55078 273.16016 C 399.76728 273.14931 390.01006 273.15166 385.65625 273.14258 C 386.05385 276.29243 386.44628 279.55476 386.94922 284.0293 C 387.30542 287.19838 388.11339 292.99453 388.73438 296.82227 C 390.61914 308.43911 391.53255 316.50191 391.49805 321.64062 C 391.48746 323.2197 391.44743 324.25656 391.33203 324.99805 C 391.30318 325.18342 391.27297 325.34899 391.20117 325.5625 C 391.12937 325.77601 391.15915 326.15886 390.38086 326.55664 C 389.99171 326.75556 389.35592 326.74231 389 326.57031 C 388.64408 326.39832 388.49889 326.20203 388.39648 326.0625 C 388.19167 325.78343 388.14478 325.62114 388.08398 325.44727 C 387.84075 324.75176 387.70304 323.89224 387.50586 322.51953 C 387.30868 321.14682 387.09381 319.33839 386.86719 317.10156 C 386.4825 313.30477 385.53859 306.4525 384.78516 301.99414 C 384.01269 297.42309 382.99594 289.53637 382.50781 284.33594 C 382.25208 281.61129 381.74781 277.48442 381.16992 273.13672 C 376.16237 273.12709 367.05098 273.12484 361.27148 273.11719 z M 119.26562 273.13672 C 115.2359 273.1444 106.86988 273.14524 103.30469 273.1543 C 102.42415 274.39843 101.61682 275.97663 100.85352 277.98633 C 99.407156 281.79432 99.291016 282.78731 99.291016 290.22266 C 99.291016 294.76828 99.670543 300.3704 100.01758 302.10352 C 100.54984 304.76177 100.71694 310.6209 100.71094 316.67773 C 100.70464 322.73458 100.52332 328.61165 99.988281 331.28711 C 99.686543 332.79603 98.773135 335.63515 97.736328 338.68945 C 117.97536 338.76136 128.80793 338.95921 134.24805 339.64062 C 133.08118 335.17852 132.05563 330.6099 131.36328 326.57422 C 130.55368 321.85499 130.11444 317.98746 130.34375 315.57812 C 130.48907 314.05123 130.65267 308.21324 130.66797 302.98828 C 130.69169 294.93852 130.50886 293.0492 129.31836 289.10742 C 127.45599 282.94116 126.37918 280.93263 122.42188 276.25 C 121.41714 275.06111 120.35486 274.02628 119.26562 273.13672 z M 96.939453 273.16016 C 95.832467 273.1633 92.785331 273.16271 91.724609 273.16602 C 91.13112 275.62228 90.68372 277.53797 89.757812 281.24219 C 89.470998 282.38963 89.146759 283.42739 88.828125 284.23633 C 88.668808 284.6408 88.516831 284.98251 88.328125 285.30273 C 88.233772 285.46285 88.136778 285.61751 87.957031 285.80664 C 87.777285 285.99577 87.481811 286.35547 86.734375 286.35547 C 86.759207 286.35547 86.724721 286.36219 86.53125 286.36719 C 86.337779 286.37185 85.832994 286.36581 85.367188 285.97656 C 84.901381 285.58732 84.790949 285.08963 84.755859 284.79297 C 84.720769 284.4963 84.736096 284.26731 84.759766 283.99219 C 84.854463 282.89168 85.203063 280.99401 85.933594 276.7207 C 86.152046 275.44286 86.397772 274.33684 86.638672 273.17188 C 85.815124 273.17467 83.208511 273.17287 82.414062 273.17578 C 82.359736 273.41818 82.328876 273.61523 82.273438 273.85938 C 81.082766 279.10289 79.668664 284.42213 78.544922 287.22461 L 77.519531 289.78125 L 80.695312 293.4668 C 84.196933 297.53295 84.966875 299.02071 87.460938 306.81445 C 89.421937 312.94244 90.502245 316.45669 90.990234 318.8125 C 91.234234 319.99041 91.338414 320.89646 91.277344 321.72461 C 91.216274 322.55276 90.950742 323.28262 90.626953 323.86133 C 90.411088 324.24713 90.411781 324.60552 89.591797 325.08984 C 89.181804 325.33204 88.256804 325.35643 87.787109 325.03711 C 87.317417 324.71779 87.194314 324.41095 87.074219 324.15234 C 86.593839 323.11792 86.404768 321.8461 85.884766 319.19141 C 84.088159 310.0195 81.127155 303.13854 76.710938 297.66602 C 75.582883 296.26813 74.561262 294.87021 73.800781 293.70898 C 73.420542 293.12837 73.104788 292.60967 72.865234 292.15039 C 72.625683 291.69111 72.380859 291.48679 72.380859 290.61914 C 72.380859 289.97483 72.521773 289.43423 72.707031 288.76562 C 72.892289 288.09704 73.137636 287.37498 73.421875 286.70508 C 74.024533 285.28471 75.482426 279.96244 76.722656 274.64844 C 76.840573 274.1432 76.924108 273.68853 77.039062 273.18164 C 65.66432 273.22738 51.781411 273.28778 45.775391 273.36133 C 45.732462 273.36186 45.691133 273.3608 45.648438 273.36133 C 43.168921 279.38793 41.041609 284.48191 40.314453 285.99414 C 39.010694 288.70557 38.396031 291.46599 38.494141 296.19727 C 38.592253 300.92852 39.447071 307.56361 41.115234 317.63867 C 42.616428 326.70539 43.452331 332.7909 43.910156 338.37109 C 44.511201 338.38029 44.805096 338.39365 45.441406 338.40234 C 54.205281 338.52206 66.282258 338.59066 80.787109 338.59766 C 86.713864 338.60056 87.576197 338.65087 92.160156 338.66016 C 95.187434 330.09546 95.384617 328.01245 94.771484 315.47461 C 94.43609 308.6165 94.136372 297.88343 94.101562 291.54492 C 94.043218 280.94891 94.163963 279.42052 96.939453 273.16016 z M 449.85547 273.30469 C 449.91789 273.62646 449.99617 273.95344 450.05469 274.27344 C 452.70011 288.74024 457.37439 306.2079 460.35742 313.08789 C 461.47546 315.66652 463.44108 320.70461 464.77539 324.40234 C 466.06121 327.96566 468.40941 333.2246 469.85742 335.81445 C 470.25177 336.51976 470.51538 337.06359 470.82617 337.65625 C 470.83924 337.65331 470.856 337.64557 470.86914 337.64258 C 471.94649 337.3982 473.23419 337.0142 474.57422 336.53711 C 476.01047 336.00897 477.5048 335.40825 478.83984 334.73633 C 487.09581 330.58116 492.83434 323.87738 495.78711 314.91406 C 497.21576 310.57723 497.21576 300.03604 495.78711 295.69922 C 492.33757 285.22786 484.97753 277.70599 474.70312 274.13477 C 473.50892 273.71967 468.26445 273.47482 449.85547 273.30469 z M 42.369141 273.4043 C 31.389226 273.57408 26.286927 273.79061 25.296875 274.13477 C 15.022458 277.70599 7.6624369 285.22785 4.2128906 295.69922 C 2.7842393 300.03604 2.7842382 310.57723 4.2128906 314.91406 C 7.1656813 323.8775 12.902311 330.58118 21.158203 334.73633 C 24.162248 336.24824 27.962258 337.56844 30.134766 337.92188 C 30.506783 337.9824 32.287773 338.1043 34.896484 338.1875 C 36.38228 338.23488 38.824875 338.27066 40.902344 338.31055 C 40.445367 332.92637 39.62988 327.02915 38.15625 318.12891 C 36.480665 308.00903 35.598463 301.29048 35.494141 296.25977 C 35.389818 291.22903 36.108563 287.81656 37.609375 284.69531 C 38.16108 283.54796 40.079682 278.97747 42.382812 273.4043 C 42.376703 273.40439 42.375246 273.4042 42.369141 273.4043 z M 177.67969 277.47656 L 250 277.47656 L 322.32031 277.47656 L 324.25586 279.58203 L 324.25391 279.58203 C 325.19231 280.60286 325.74138 282.04902 326.57422 285.00391 C 327.40706 287.95877 328.47009 292.47724 330.06445 299.60938 C 331.81839 307.45539 332.78731 311.92919 333.23633 314.71289 C 333.46082 316.10474 333.56112 317.07772 333.54102 317.89648 C 333.5209 318.71527 333.33546 319.42922 333.05469 319.97266 C 332.59567 320.86107 331.83022 321.74226 330.75 322.94531 C 329.66978 324.14837 328.3092 325.55951 326.83398 327.01562 C 323.88357 329.9279 320.50386 333.00348 318.02344 334.89648 C 312.40486 339.18448 302.13998 344.90557 295.31641 347.56055 C 291.63095 348.99453 286.74047 350.59193 281.51953 352.10156 C 276.29859 353.61119 270.74717 355.03305 265.73828 356.11719 C 254.685 358.50954 244.41428 358.43687 233.13086 355.89258 C 204.12794 349.35269 187.68144 341.45739 173.03516 326.91406 C 171.64348 325.53216 170.2889 324.09602 169.20898 322.87695 C 168.12909 321.65788 167.39537 320.84751 166.94336 319.97266 C 166.6625 319.42906 166.47898 318.71526 166.45898 317.89648 C 166.43903 317.07773 166.53899 316.1047 166.76367 314.71289 C 167.21303 311.92927 168.18162 307.45535 169.93555 299.60938 C 171.52991 292.47728 172.59331 287.95872 173.42578 285.00391 C 174.25825 282.04908 174.80551 280.60307 175.74414 279.58203 L 177.23438 277.96094 L 177.67969 277.47656 z M 335.31641 346.87695 C 333.8749 346.81135 332.36809 347.12634 329.18359 347.74609 C 325.84619 348.3956 324.18461 349.13092 323.6543 349.64453 C 323.01477 350.26394 323.01277 350.31394 323.00977 350.33594 C 323.00636 350.35791 323.06772 350.95047 323.42383 352.24023 C 323.42915 352.25953 323.46463 352.31566 323.4707 352.33594 C 323.47531 352.3342 323.47977 352.33182 323.48438 352.33008 C 326.21465 351.2981 328.90766 350.23592 331.5293 349.10938 C 333.19718 348.39266 334.93068 347.75811 336.64844 347.10352 C 336.20563 347.01949 335.73124 346.89584 335.31641 346.87695 z " />
  <path
     id="path8122-4"
     style="fill:#000000;stroke:none;stroke-width:2.99980998;stroke-miterlimit:4;stroke-dasharray:none;stroke-opacity:1"
     d="M 390.52539 218.00195 C 389.5526 217.98145 388.50396 218.19133 387.38477 218.69336 C 384.62617 219.93077 383.07535 221.74859 382.16016 225.54883 C 381.24496 229.34905 381.19073 235.09819 381.94531 243.42773 C 382.45113 249.01145 383.38393 257.04117 384.00195 261.16016 C 385.181 269.01802 385.81557 273.94354 386.94922 284.0293 C 387.30542 287.19839 388.11339 292.99453 388.73438 296.82227 C 390.61915 308.43913 391.53255 316.5019 391.49805 321.64062 C 391.48746 323.2197 391.44743 324.25656 391.33203 324.99805 C 391.30318 325.18342 391.27297 325.34899 391.20117 325.5625 C 391.12937 325.77601 391.15915 326.15886 390.38086 326.55664 C 389.99171 326.75556 389.35592 326.74231 389 326.57031 C 388.64408 326.39832 388.49889 326.20203 388.39648 326.0625 C 388.19167 325.78343 388.14478 325.62114 388.08398 325.44727 C 387.84075 324.75176 387.70304 323.89224 387.50586 322.51953 C 387.30868 321.14682 387.09381 319.33839 386.86719 317.10156 C 386.4825 313.30476 385.53859 306.4525 384.78516 301.99414 C 384.01269 297.42308 382.99594 289.53638 382.50781 284.33594 C 382.03142 279.26043 380.71812 269.24379 379.60352 262.20312 C 378.48268 255.12299 377.28507 247.4301 376.93359 245.06836 C 376.5568 242.53659 375.88369 240.60694 375.01367 239.26562 C 374.14365 237.92432 373.12292 237.14626 371.79297 236.74219 C 370.59716 236.37889 369.81837 236.30867 369.02539 236.46289 C 368.23242 236.61711 367.32957 237.04028 366.05664 237.91016 C 363.79473 239.45588 362.58318 241.23288 361.80469 245.96484 C 361.0262 250.69681 360.89974 258.21285 361.16797 270.32617 C 361.39114 280.40474 361.92482 289.97501 362.35547 292.73828 C 362.83807 295.83509 363.99664 307.16644 364.98828 318.2793 C 365.97641 329.353 367.33537 341.11261 367.88867 343.85352 C 368.52162 346.98898 369.53497 353.28817 370.16602 357.98828 C 370.79153 362.64723 371.48065 367.56131 371.67578 368.76953 C 371.7837 369.43776 371.93568 369.85682 371.89648 370.61328 C 371.88667 370.8024 371.88114 371.04307 371.6875 371.4082 C 371.49386 371.77333 370.9043 372.22087 370.39648 372.26367 C 369.38086 372.34927 369.19965 371.94545 368.91797 371.71484 C 367.79126 370.79243 366.25534 368.90315 362.63086 364.72852 C 359.6476 361.29245 355.24926 357.12014 351.66797 354.33203 C 346.447 350.2674 345.27409 349.59489 341.06055 348.29297 C 335.20769 346.48453 335.55258 346.50659 329.18359 347.74609 C 325.84618 348.3956 324.18461 349.13092 323.6543 349.64453 C 323.01477 350.26394 323.01277 350.31394 323.00977 350.33594 C 323.00636 350.35791 323.06772 350.95046 323.42383 352.24023 C 323.73119 353.35346 325.28554 356.11704 327.67188 359.38867 C 330.05822 362.66031 333.27461 366.57953 336.95117 370.63477 C 341.43182 375.5769 342.7262 377.5563 346.62891 385.47461 C 350.53848 393.40681 353.38042 400.64601 356.82227 411.42578 C 357.01449 412.02781 357.70945 413.50257 358.61523 415.12695 C 359.52103 416.75134 360.64804 418.5946 361.75586 420.22656 C 364.9216 424.89011 366.42462 426.55987 368.91016 428.27148 C 370.9041 429.64459 374.55348 432.55461 377.2168 434.88086 C 384.82344 441.52476 394.44999 447.6284 401.53906 450.37109 C 403.27077 451.04107 405.42556 452.23668 407.29102 453.43555 C 408.22373 454.03498 409.07389 454.63242 409.75586 455.17969 C 410.09685 455.45332 410.39582 455.71301 410.65625 455.97852 C 410.91668 456.24402 411.15103 456.46421 411.35742 456.96289 C 411.51389 457.34095 411.67216 457.82927 412.03906 458.89648 C 412.40597 459.96371 412.90964 461.44155 413.51367 463.22266 C 414.72173 466.78486 416.33234 471.56393 418.05469 476.70117 C 419.77404 481.82953 421.40544 486.56302 422.64648 490.04883 C 423.26701 491.79173 423.79019 493.22256 424.17383 494.22656 C 424.35623 494.70392 424.5019 495.0702 424.61133 495.33008 C 424.61803 495.33208 424.618 495.33198 424.625 495.33398 C 424.92749 495.4216 425.39394 495.53065 425.95508 495.64062 C 427.07736 495.8606 428.58843 496.08994 430.16992 496.26367 C 433.28791 496.6062 439.95237 496.93858 444.77148 496.98438 C 453.16697 497.06414 453.79297 496.98858 463.16406 494.80469 C 474.48687 492.16586 485.33338 488.03805 492.47656 483.70898 C 493.83058 482.88842 495.0935 482.11488 496.0332 481.5332 C 496.31048 481.36157 496.48863 481.24951 496.70312 481.11523 C 496.43352 480.51834 496.01134 479.65698 495.30664 478.32031 C 493.78575 475.43548 491.17673 470.7068 487.04102 463.30273 C 483.77721 457.45956 480.17402 450.42408 478.90625 447.35156 L 476.63281 441.83984 L 476.48828 418.44531 C 476.30068 388.40618 475.27887 373.4536 472.20508 355.51758 C 471.04376 348.74111 470.44088 345.29715 469.82617 343.05664 C 469.21147 340.81613 468.60606 339.72371 467.23828 337.27734 C 465.62858 334.39829 463.3116 329.18655 461.95312 325.42188 C 460.64317 321.79162 458.66513 316.72526 457.60547 314.28125 C 454.35089 306.77497 449.78342 289.46983 447.10352 274.81445 C 445.21288 264.47545 440.77775 252.55183 437.4707 248.1543 C 436.97603 247.49651 435.31971 246.22483 434.42383 245.86133 C 433.47544 245.47653 432.99729 245.35275 432.7207 245.34375 C 432.44411 245.33481 432.16402 245.39911 431.42383 245.7168 C 429.97023 246.34068 429.30295 246.85701 428.84375 247.63867 C 428.38455 248.42033 428.09253 249.68861 427.97266 251.83984 C 427.88284 253.45164 428.12502 257.58229 428.5625 262.00391 C 428.99998 266.42551 429.62274 271.24403 430.23438 274.56641 C 430.54015 276.22715 431.03136 279.37515 431.3418 281.6543 C 432.50566 290.199 436.39587 309.92045 438.85547 319.71875 C 439.78447 323.41957 440.29006 325.53374 440.43945 326.74219 C 440.47695 327.0443 440.52731 327.24722 440.44531 327.70117 C 440.40432 327.92815 440.37073 328.36931 439.75586 328.77734 C 439.44842 328.98138 439.00948 329.06248 438.69727 329.02148 C 438.38505 328.98053 438.18737 328.87246 438.04883 328.78516 C 437.49466 328.43602 437.48121 328.24897 437.33203 328.01953 C 437.18286 327.79009 437.03712 327.53477 436.87305 327.22852 C 435.97477 325.55181 435.05141 322.63451 433.96484 318.67383 C 432.87827 314.71314 431.69302 309.79167 430.53125 304.48242 C 428.20772 293.86394 425.98253 281.71302 424.88477 272.67773 C 424.53989 269.8394 423.76262 264.82841 423.17383 261.65625 C 422.57377 258.42345 421.92282 254.63838 421.70898 253.10938 C 421.42989 251.1139 420.05386 245.72289 418.62109 240.80859 C 417.90471 238.35145 417.17169 235.9821 416.55078 234.14258 C 416.24033 233.22282 415.95641 232.43492 415.72461 231.84766 C 415.49281 231.26039 415.24532 230.81026 415.29492 230.88086 C 414.09538 229.17259 411.53021 227.61739 409.13672 227.25195 C 408.14481 227.10051 407.54853 227.20873 406.83008 227.65625 C 406.11163 228.10377 405.26131 229.00912 404.27148 230.54102 C 403.97368 231.00192 403.63435 232.41718 403.84961 236.23828 C 404.06487 240.05939 404.74861 246.16094 405.98633 255.93164 C 406.92427 263.33575 408.20357 273.73059 408.83008 279.04883 C 409.8541 287.74153 411.04671 295.06707 414.57031 314.29297 C 415.27454 318.1354 415.63809 319.98717 415.68359 321.16797 C 415.69498 321.46317 415.72921 321.71013 415.5625 322.17773 C 415.47915 322.41154 415.30882 322.75498 414.91992 323.01367 C 414.53102 323.27235 414.00891 323.31175 413.69727 323.24805 C 413.07398 323.12058 412.93099 322.90198 412.75391 322.75 C 412.57682 322.59802 412.4342 322.4539 412.2832 322.30078 C 411.79745 321.8082 411.69871 321.44189 411.50586 320.94922 C 411.31301 320.45654 411.12671 319.8733 410.93945 319.19531 C 410.56494 317.83933 410.18983 316.11559 409.86133 314.21289 C 406.45716 294.49652 406.00559 291.5598 403.79297 274.74023 C 403.31008 271.06944 402.55597 266.18232 402.14062 264.00586 C 401.68343 261.61 401.17939 257.16195 400.97852 253.87109 C 400.78495 250.69958 400.37417 246.45845 400.0957 244.65039 C 399.78059 242.60443 399.29077 237.90378 398.97656 234.01367 C 398.82396 232.12437 398.57976 230.09036 398.31445 228.36328 C 398.04915 226.6362 397.73078 225.15227 397.55469 224.63672 C 396.02871 220.1692 393.44069 218.06345 390.52539 218.00195 z M 456.96094 253.24219 C 457.02574 253.21589 457.1021 253.24219 457.17188 253.24219 C 457.10208 253.24219 457.02575 253.21589 456.96094 253.24219 z " />
  <path
     id="path4138-4-9"
     style="fill:#000000;stroke:none;stroke-width:2.99988914;stroke-miterlimit:4;stroke-dasharray:none;stroke-opacity:1"
     d="M 109.73828 162.98242 C 109.55494 163.02069 109.45205 163.11747 109.26367 163.30078 C 108.88694 163.6674 108.25112 164.73784 107.27734 166.56836 C 105.87237 169.2095 105.52936 170.89484 105.56836 171.07422 C 105.58785 171.16392 105.44673 171.03812 105.68555 171.13672 C 105.92434 171.23535 106.55113 171.34961 107.47266 171.34961 C 111.46448 171.34961 115.30604 173.74783 117.48047 177.40625 C 118.86236 179.73123 119.2752 181.68152 119.375 186.19531 L 119.50391 191.9707 L 115.01172 201.58008 C 111.27296 209.58167 109.76908 211.98275 105.44336 216.87695 C 100.86235 222.06003 100.63335 222.42059 99.224609 227.35547 C 96.225511 237.86147 92.38597 246.75127 88.113281 252.89844 C 86.285564 255.528 85.342723 256.97749 84.90625 257.99414 C 84.470032 259.0102 84.423422 259.6745 84.419922 261.27148 L 84.419922 261.27344 C 84.4146 263.72911 83.463893 268.61682 82.273438 273.85938 C 81.082765 279.1029 79.668665 284.42213 78.544922 287.22461 L 77.519531 289.78125 L 80.695312 293.4668 C 84.196936 297.53296 84.966873 299.0207 87.460938 306.81445 C 89.421939 312.94244 90.502244 316.45669 90.990234 318.8125 C 91.234234 319.99041 91.338414 320.89646 91.277344 321.72461 C 91.216274 322.55276 90.950742 323.28262 90.626953 323.86133 C 90.411088 324.24713 90.411782 324.60552 89.591797 325.08984 C 89.181804 325.33204 88.256804 325.35643 87.787109 325.03711 C 87.317416 324.71779 87.194314 324.41095 87.074219 324.15234 C 86.593839 323.11792 86.404769 321.84611 85.884766 319.19141 C 84.088158 310.01949 81.12716 303.13855 76.710938 297.66602 C 75.582882 296.26813 74.561263 294.87021 73.800781 293.70898 C 73.420541 293.12837 73.104788 292.60967 72.865234 292.15039 C 72.625682 291.69111 72.380859 291.48679 72.380859 290.61914 C 72.380859 289.97483 72.521773 289.43423 72.707031 288.76562 C 72.892289 288.09703 73.137636 287.37498 73.421875 286.70508 C 74.024534 285.28471 75.482425 279.96245 76.722656 274.64844 C 77.962887 269.33441 79.076412 263.75559 79.283203 261.55859 C 79.668216 257.46814 80.306038 255.77944 83.382812 250.90234 C 87.957091 243.65142 91.172683 235.79801 95.484375 221.21094 C 95.69294 220.50532 95.916656 220.33021 96.25 219.86914 C 96.583344 219.40808 97.014809 218.8581 97.527344 218.23633 C 98.552411 216.99279 99.897897 215.46711 101.33789 213.92969 C 106.79315 208.10523 107.62024 206.75122 111.92383 196.77344 C 113.24658 193.70664 113.88433 192.14063 114.13477 190.93555 C 114.38519 189.73047 114.3192 188.70041 114.10938 186.41992 C 113.74005 182.40647 113.12671 180.14439 112.14453 178.91602 C 111.16236 177.68763 109.61173 177.05773 106.46875 176.60742 C 105.1423 176.41736 104.22184 176.26667 103.35742 175.76172 C 103.04213 175.57754 102.8199 175.29087 102.59375 175.01367 C 102.18646 175.62826 101.95276 175.92467 101.10742 177.36719 C 99.283375 180.47979 93.357382 188.28699 87.640625 195.23828 C 77.710128 207.31322 77.078916 208.25923 67.951172 224.64258 C 59.489201 239.83082 57.641421 243.73466 50.400391 261.72266 C 45.925519 272.83907 41.483653 283.56261 40.314453 285.99414 C 39.010693 288.70557 38.396031 291.46599 38.494141 296.19727 C 38.592253 300.92853 39.447069 307.5636 41.115234 317.63867 C 44.466884 337.88155 44.860614 343.93735 43.892578 360.35352 L 43.892578 360.35547 C 43.877058 360.61789 43.863316 360.68501 43.853516 360.83008 L 43.853516 361.45117 C 43.853516 361.40909 43.952142 361.71531 43.816406 362.31836 L 43.816406 362.32031 C 43.783114 362.46694 43.752194 362.45674 43.708984 362.55664 C 43.682784 362.88503 43.655126 363.15419 43.634766 363.45703 L 43.632812 363.24609 C 43.632173 363.23741 43.606521 363.63129 43.582031 363.95117 L 43.59375 363.93359 C 43.58399 364.07499 43.568394 364.15174 43.558594 364.29102 C 43.013202 372.062 42.433381 376.63545 40.839844 383.31641 C 38.593951 392.73225 35.162233 401.38119 31.447266 406.67773 C 31.212544 407.01238 30.374014 408.63954 29.505859 410.62695 C 28.637706 412.61438 27.650651 415.06435 26.761719 417.47266 C 24.889786 422.54413 18.811956 435.83705 13.136719 447.3457 C 10.307559 453.08287 7.7349371 458.32555 5.8710938 462.14844 C 4.9391722 464.05988 4.1842684 465.6178 3.6640625 466.70117 C 3.5075118 467.0272 3.4167641 467.21689 3.3046875 467.45312 C 3.7099476 467.82115 4.2435718 468.29553 4.9375 468.90234 C 6.4397052 470.21596 8.5206224 472.00287 10.808594 473.9375 L 18.941406 480.81445 L 27.472656 483.90625 L 36.007812 486.99805 L 47.214844 486.96289 L 58.441406 486.92578 L 66.931641 484.01758 L 74.958984 481.26953 L 80.566406 464.78711 C 88.717397 440.82363 93.877927 427.45311 99.322266 416.25 C 104.43505 405.72921 105.50987 404.45308 117.67969 394.8418 C 125.15937 388.9346 127.97153 384.69496 132.69141 372.16602 C 134.65955 366.94163 135.32529 364.06123 136.05664 357.57227 L 136.95312 349.5957 L 134.81641 341.9082 C 133.38405 336.76038 132.17289 331.29344 131.36328 326.57422 C 130.55368 321.85499 130.11444 317.98746 130.34375 315.57812 C 130.48907 314.05122 130.65267 308.21324 130.66797 302.98828 C 130.69169 294.93851 130.50886 293.0492 129.31836 289.10742 C 127.45599 282.94115 126.37919 280.93263 122.42188 276.25 C 118.25994 271.32525 113.12645 268.91468 109.06445 269.46484 C 105.47596 269.95085 103.00264 272.32793 100.85352 277.98633 C 99.407156 281.79433 99.291016 282.78731 99.291016 290.22266 C 99.291016 294.76829 99.670542 300.3704 100.01758 302.10352 C 100.54984 304.76178 100.71694 310.62089 100.71094 316.67773 C 100.70464 322.73458 100.52332 328.61165 99.988281 331.28711 C 99.553849 333.4596 97.976843 338.18695 96.353516 342.72461 C 95.541851 344.99344 94.724445 347.17419 94.044922 348.86523 C 93.70516 349.71076 93.402165 350.43221 93.140625 350.99805 C 93.009855 351.28096 92.890181 351.52424 92.771484 351.74023 C 92.652788 351.95623 92.592208 352.11481 92.298828 352.41211 C 92.112761 352.60066 91.851429 352.88258 91.236328 352.95508 C 90.621228 353.02754 89.906891 352.56295 89.681641 352.2168 C 89.231138 351.52449 89.343337 351.22389 89.335938 350.83203 C 89.321074 350.04831 89.438648 349.10032 89.630859 347.95703 C 90.015284 345.67046 90.725869 342.73972 91.585938 340.34961 C 95.292322 330.04954 95.428355 328.90685 94.771484 315.47461 C 94.436089 308.61649 94.136372 297.88343 94.101562 291.54492 C 94.033601 279.20256 93.966664 279.60842 98.376953 269.91602 C 103.00332 259.74876 107.56693 245.56886 108.56836 238.50586 C 108.91942 236.02994 110.49053 230.80167 112.14258 226.26367 C 113.73517 221.8889 115.45107 216.51602 115.94336 214.47461 C 114.88525 215.62277 114.00236 216.71516 112.94336 217.70312 C 111.32164 219.21607 110.59236 219.96126 110.00391 221.04297 C 109.41545 222.12468 108.90754 223.72781 108.02539 226.82617 C 105.64025 235.2036 101.64737 244.56586 98.275391 249.43359 C 96.336521 252.23248 95.871266 253.53779 94.84375 259.03906 C 93.70827 265.11828 92.841111 268.90703 89.757812 281.24219 C 89.470997 282.38963 89.146759 283.42739 88.828125 284.23633 C 88.668808 284.6408 88.516831 284.98251 88.328125 285.30273 C 88.233772 285.46285 88.136778 285.61751 87.957031 285.80664 C 87.777285 285.99577 87.481812 286.35547 86.734375 286.35547 C 86.759207 286.35547 86.724721 286.36219 86.53125 286.36719 C 86.337779 286.37185 85.832995 286.36581 85.367188 285.97656 C 84.901381 285.58732 84.790949 285.08963 84.755859 284.79297 C 84.720769 284.4963 84.736096 284.26731 84.759766 283.99219 C 84.854463 282.89168 85.203063 280.99401 85.933594 276.7207 C 86.282987 274.67691 86.688322 272.6643 87.0625 271.04492 C 87.249589 270.23523 87.427431 269.52466 87.59375 268.94531 C 87.760069 268.36596 87.863863 267.98009 88.115234 267.51758 C 88.061636 267.6162 88.246097 267.1809 88.400391 266.63672 C 88.554683 266.09254 88.739424 265.36282 88.935547 264.51562 C 89.327791 262.82125 89.770331 260.65268 90.162109 258.44531 C 90.788496 254.9162 91.216552 252.7606 91.761719 251.09766 C 92.306884 249.4347 93.019174 248.27244 93.96875 247.0918 C 96.598993 243.82147 100.0434 236.37101 103.20703 226.61328 C 105.83034 218.5221 106.4349 217.42393 110.42383 213.02344 C 114.65282 208.35815 118.3953 202.22332 121.51172 194.78125 C 122.44538 192.55165 123.49917 189.2495 124.23242 186.46094 C 124.59905 185.06665 124.88785 183.79269 125.04688 182.86523 C 125.12638 182.40151 125.17209 182.02099 125.18359 181.79688 C 125.19512 181.57277 124.95936 181.41015 125.3418 182.01953 C 125.13716 181.69346 125.14126 181.59237 125.10156 181.45117 C 125.0619 181.30998 125.0315 181.17252 125 181.01758 C 124.93709 180.7077 124.87675 180.33621 124.81445 179.9043 C 124.68982 179.04047 124.56172 177.94269 124.45898 176.79102 C 124.10827 172.85948 123.0351 169.92899 121.30273 167.81055 C 119.57038 165.6921 117.1448 164.3001 113.75391 163.58398 C 112.38607 163.29509 111.37906 163.08848 110.69727 163.01758 C 110.18539 162.96439 109.92162 162.94415 109.73828 162.98242 z M 42.865234 365.11719 C 42.719627 365.19717 42.596099 365.24807 42.542969 365.26367 C 42.414909 365.30122 42.469645 365.35461 42.863281 365.12109 L 42.865234 365.11719 z " />
</svg>
