<svg height="500" viewBox="0 0 500 500" width="500" xmlns="http://www.w3.org/2000/svg"><path d="m177.5 200h45v45h-45z"/><path d="m227.5 200h45v45h-45z"/><path d="m277.5 200h45v45h-45z"/><path d="m177.5 150h45v45h-45z"/><path d="m227.5 150h45v45h-45z"/><path d="m277.5 150h45v45h-45z"/><path d="m177.5 100h45v45h-45z"/><path d="m227.5 100h45v45h-45z"/><path d="m277.5 100h45v45h-45z"/><path d="m250 273c-70.77124 0-93.42747.07481-126.37891.13281.36637.38825.7398.76318 1.0918 1.17969 4.07454 4.82132 5.56659 7.60379 7.47656 13.92773 1.24912 4.13583 1.50242 6.65044 1.47852 14.75586-.01548 5.27543-.15009 10.89397-.33789 12.86719-.15849 1.66521.19781 5.59546.98828 10.20313.73759 4.29942 1.84894 9.26806 3.13086 14.00976.02311.00359.04719.01007.07031.01367 4.98273.77704 10.19596 1.94364 15.42969 3.47266.23355.06785.46375.15542.69726.22461 2.38179.70961 4.76035 1.45955 7.11133 2.30078 2.61491.93257 5.19793 1.94077 7.71289 3.02149 4.3325 1.86173 9.3775 3.79449 14.38477 5.5371 5.00727 1.74262 9.97683 3.29511 14.15625 4.39649 11.77441 3.10272 30.35493 6.53556 42.01172 7.76367 4.61063.4858 26.29584-.29286 32.05468-1.19922 5.32079-.83738 10.37487-1.78569 15.30665-2.79492 1.80567-.37066 3.53204-.78092 5.28906-1.17578 3.03638-.67993 6.01785-1.39078 8.91797-2.14453 7.02085-1.8309 13.73113-3.83847 20.0625-6.125.00136-.0005.00254-.00146.0039-.00196-.03348-.10501-.09676-.22587-.125-.32812-.36353-1.31669-.64758-2.1185-.48632-3.16016.16125-1.04166.83612-1.7248 1.51953-2.38672 1.40554-1.3613 3.52975-2.00535 7.04492-2.68945 6.23199-1.21284 7.46431-1.16225 12.96289.52149 3.39611-1.14745 6.80627-2.1377 10.21094-2.99805.56196-.14407 1.11196-.28826 1.67187-.42383 3.46658-.82703 6.90067-1.5498 10.19922-2.02539.21682-.03126.45046-.04448.66406-.07422-.69769-5.10652-1.55537-12.70334-2.31836-21.2539-.98913-11.08473-2.18956-22.65377-2.60937-25.34766-.47419-3.04266-.88039-11.12992-1.125-20.08594-32.10714-.0401-47.63854-.11328-108.26758-.11328zm111.27148.11719c.25304 8.92201.69642 17.13427 1.08399 19.62109.4826 3.09681 1.64117 14.42817 2.63281 25.54102.76382 8.55992 1.65283 16.29028 2.31641 21.1875 1.46109-.15553 3.40815-.29408 5.33984-.39649.51126-.02692 1.17654-.05026 1.74219-.07422 1.72408-.07232 4.20921-.14492 6.60937-.1914 7.62528-.14744 18.91546-.19763 38.2168-.20703 14.50487-.00705 26.58183-.07554 35.3457-.19532 4.38195-.05988 7.93621-.13164 10.54493-.21484 1.39317-.04442 1.71048-.09131 2.54296-.14258-.15312-.27662-.23122-.45104-.4082-.76758-1.6097-2.87904-3.92668-8.0908-5.28516-11.85546-1.30994-3.63026-3.28799-8.69662-4.34765-11.14063-3.25458-7.50627-7.82206-24.81143-10.50195-39.4668-.09318-.50956-.21912-1.03461-.32422-1.55078-.01782-.00013-.06207.00014-.08008 0-3.751-.02812-11.74447-.05179-16.67578-.07422.07173.42784.13919.98724.21094 1.37696.30576 1.66073.79698 4.80874 1.10742 7.08789 1.16386 8.54469 5.05407 28.26616 7.51367 38.06445.929 3.70082 1.43459 5.81499 1.58398 7.02344.0375.30211.08786.50503.00586.95898-.04099.22698-.07458.66814-.68945 1.07617-.30744.20404-.74638.28514-1.05859.24414-.31222-.04095-.5099-.14902-.64844-.23632-.55417-.34914-.56762-.53619-.7168-.76563-.14917-.22944-.29491-.48476-.45898-.79101-.89828-1.67671-1.82164-4.59402-2.90821-8.55469-1.08657-3.96069-2.27182-8.88216-3.43359-14.19141-2.28321-10.43421-4.45931-22.31546-5.57617-31.29883-2.97134-.01237-13.41751-.00692-16.84961-.01757.2276 1.87796.56517 4.52941.72461 5.88281 1.02402 8.69269 2.21664 16.01826 5.74023 35.24414.70423 3.84242 1.06778 5.6942 1.11328 6.875.01139.2952.04562.54216-.12109 1.00976-.08335.23381-.25368.57725-.64258.83594-.3889.25868-.91101.29808-1.22265.23438-.62329-.12747-.76628-.34607-.94336-.49805-.17709-.15198-.31971-.2961-.47071-.44922-.48575-.49258-.58449-.85889-.77734-1.35156-.19285-.49268-.37915-1.07592-.56641-1.75391-.37451-1.35598-.74962-3.07972-1.07812-4.98242-3.40417-19.71635-3.85574-22.6531-6.06836-39.47266-.07107-.54028-.16131-.99962-.24219-1.58007-3.7835-.01085-13.54072-.0085-17.89453-.01758.3976 3.14985.79003 6.41218 1.29297 10.88672.3562 3.16908 1.16417 8.96523 1.78516 12.79297 1.88476 11.61684 2.79817 19.67964 2.76367 24.81835-.01059 1.57908-.05062 2.61594-.16602 3.35743-.02885.18537-.05906.35094-.13086.56445s-.04202.59636-.82031.99414c-.38915.19892-1.02494.18567-1.38086.01367-.35592-.17199-.50111-.36828-.60352-.50781-.20481-.27907-.2517-.44136-.3125-.61523-.24323-.69551-.38094-1.55503-.57812-2.92774s-.41205-3.18114-.63867-5.41797c-.38469-3.79679-1.3286-10.64906-2.08203-15.10742-.77247-4.57105-1.78922-12.45777-2.27735-17.6582-.25573-2.72465-.76-6.85152-1.33789-11.19922-5.00755-.00963-14.11894-.01188-19.89844-.01953zm-242.00586.01953c-4.02972.00768-12.39574.00852-15.96093.01758-.88054 1.24413-1.68787 2.82233-2.45117 4.83203-1.446364 3.80799-1.562504 4.80098-1.562504 12.23633 0 4.54562.379527 10.14774.726564 11.88086.53226 2.65825.69936 8.51738.69336 14.57421-.0063 6.05685-.18762 11.93392-.722659 14.60938-.301738 1.50892-1.215146 4.34804-2.251953 7.40234 20.239032.07191 31.071602.26976 36.511722.95117-1.16687-4.4621-2.19242-9.03072-2.88477-13.0664-.8096-4.71923-1.24884-8.58676-1.01953-10.9961.14532-1.52689.30892-7.36488.32422-12.58984.02372-8.04976-.15911-9.93908-1.34961-13.88086-1.86237-6.16626-2.93918-8.17479-6.89648-12.85742-1.00474-1.18889-2.06702-2.22372-3.15626-3.11328zm-22.326167.02344c-1.106986.00314-4.154122.00255-5.214844.00586-.593489 2.45626-1.040889 4.37195-1.966797 8.07617-.286814 1.14744-.611053 2.1852-.929687 2.99414-.159317.40447-.311294.74618-.5 1.0664-.094353.16012-.191347.31478-.371094.50391-.179746.18913-.47522.54883-1.222656.54883.024832 0-.009654.00672-.203125.01172-.193471.00466-.698256-.00138-1.164062-.39063-.465807-.38924-.576239-.88693-.611329-1.18359-.03509-.29667-.019763-.52566.003907-.80078.094697-1.10051.443297-2.99818 1.173828-7.27149.218452-1.27784.464178-2.38386.705078-3.54882-.823548.00279-3.430161.00099-4.22461.0039-.054326.2424-.085186.43945-.140624.6836-1.190672 5.24351-2.604774 10.56275-3.728516 13.36523l-1.025391 2.55664 3.175781 3.68555c3.501621 4.06615 4.271563 5.55391 6.765626 13.34765 1.960999 6.12799 3.041307 9.64224 3.529296 11.99805.244 1.17791.34818 2.08396.28711 2.91211s-.326602 1.55801-.650391 2.13672c-.215865.3858-.215172.74419-1.035156 1.22851-.409993.2422-1.334993.26659-1.804688-.05273-.469692-.31932-.592795-.62616-.71289-.88477-.48038-1.03442-.669451-2.30624-1.189453-4.96093-1.796607-9.17191-4.757611-16.05287-9.173828-21.52539-1.128055-1.39789-2.149676-2.79581-2.910157-3.95704-.380239-.58061-.695993-1.09931-.935547-1.55859-.239551-.45928-.484375-.6636-.484375-1.53125 0-.64431.140914-1.18491.326172-1.85352.185258-.66858.430605-1.39064.714844-2.06054.602658-1.42037 2.060551-6.74264 3.300781-12.05664.117917-.50524.201452-.95991.316406-1.4668-11.374742.04574-25.257651.10614-31.263671.17969-.042929.00053-.084258-.00053-.126953 0-2.479517 6.0266-4.606829 11.12058-5.333985 12.63281-1.303759 2.71143-1.918422 5.47185-1.820312 10.20313.098112 4.73125.95293 11.36634 2.621093 21.4414 1.501194 9.06672 2.337097 15.15223 2.794922 20.73242.601045.0092.89494.02256 1.53125.03125 8.763875.11972 20.840852.18832 35.345703.19532 5.926755.0029 6.789088.05321 11.373047.0625 3.027278-8.5647 3.224461-10.64771 2.611328-23.18555-.335394-6.85811-.635112-17.59118-.669922-23.92969-.058344-10.59601.062401-12.1244 2.837891-18.38476zm352.916017.14453c.06242.32177.1407.64875.19922.96875 2.64542 14.4668 7.3197 31.93446 10.30273 38.81445 1.11804 2.57863 3.08366 7.61672 4.41797 11.31445 1.28582 3.56332 3.63402 8.82226 5.08203 11.41211.39435.70531.65796 1.24914.96875 1.8418.01307-.00294.02983-.01068.04297-.01367 1.07735-.24438 2.36505-.62838 3.70508-1.10547 1.43625-.52814 2.93058-1.12886 4.26562-1.80078 8.25597-4.15517 13.9945-10.85895 16.94727-19.82227 1.42865-4.33683 1.42865-14.87802 0-19.21484-3.44954-10.47136-10.80958-17.99323-21.08399-21.56445-1.1942-.4151-6.43867-.65995-24.84765-.83008zm-407.486329.09961c-10.979915.16978-16.082214.38631-17.072266.73047-10.274417 3.57122-17.6344381 11.09308-21.0839844 21.56445-1.4286513 4.33682-1.4286524 14.87801 0 19.21484 2.9527907 8.96344 8.6894204 15.66712 16.9453124 19.82227 3.004045 1.51191 6.804055 2.83211 8.976563 3.18555.372017.06052 2.153007.18242 4.761718.26562 1.485796.04738 3.928391.08316 6.00586.12305-.456977-5.38418-1.272464-11.2814-2.746094-20.18164-1.675585-10.11988-2.557787-16.83843-2.662109-21.86914-.104323-5.03074.614422-8.44321 2.115234-11.56446.551705-1.14735 2.470307-5.71784 4.773437-11.29101-.006109.00009-.007566-.0001-.013671 0zm135.310549 4.07226h72.32031 72.32031l1.93555 2.10547h-.00195c.9384 1.02083 1.48747 2.46699 2.32031 5.42188.83284 2.95486 1.89587 7.47333 3.49023 14.60547 1.75394 7.84601 2.72286 12.31981 3.17188 15.10351.22449 1.39185.32479 2.36483.30469 3.18359-.02012.81879-.20556 1.53274-.48633 2.07618-.45902.88841-1.22447 1.7696-2.30469 2.97265-1.08022 1.20306-2.4408 2.6142-3.91602 4.07031-2.95041 2.91228-6.33012 5.98786-8.81054 7.88086-5.61858 4.288-15.88346 10.00909-22.70703 12.66407-3.68546 1.43398-8.57594 3.03138-13.79688 4.54101s-10.77236 2.93149-15.78125 4.01563c-11.05328 2.39235-21.324 2.31968-32.60742-.22461-29.00292-6.53989-45.44942-14.43519-60.0957-28.97852-1.39168-1.3819-2.74626-2.81804-3.82618-4.03711-1.07989-1.21907-1.81361-2.02944-2.26562-2.90429-.28086-.5436-.46438-1.2574-.48438-2.07618-.01995-.81875.08001-1.79178.30469-3.18359.44936-2.78362 1.41795-7.25754 3.17188-15.10351 1.59436-7.1321 2.65776-11.65066 3.49023-14.60547.83247-2.95483 1.37973-4.40084 2.31836-5.42188l1.49024-1.62109zm157.63672 69.40039c-1.44151-.0656-2.94832.24939-6.13282.86914-3.3374.64951-4.99898 1.38483-5.52929 1.89844-.63953.61941-.64153.66941-.64453.69141-.00341.02197.05795.61453.41406 1.90429.00532.0193.0408.07543.04687.09571.00461-.00174.00907-.00412.01368-.00586 2.73027-1.03198 5.42328-2.09416 8.04492-3.2207 1.66788-.71672 3.40138-1.35127 5.11914-2.00586-.44281-.08403-.9172-.20768-1.33203-.22657z"/><path d="m390.52539 218.00195c-.97279-.0205-2.02143.18938-3.14062.69141-2.7586 1.23741-4.30942 3.05523-5.22461 6.85547-.9152 3.80022-.96943 9.54936-.21485 17.8789.50582 5.58372 1.43862 13.61344 2.05664 17.73243 1.17905 7.85786 1.81362 12.78338 2.94727 22.86914.3562 3.16909 1.16417 8.96523 1.78516 12.79297 1.88477 11.61686 2.79817 19.67963 2.76367 24.81835-.01059 1.57908-.05062 2.61594-.16602 3.35743-.02885.18537-.05906.35094-.13086.56445s-.04202.59636-.82031.99414c-.38915.19892-1.02494.18567-1.38086.01367-.35592-.17199-.50111-.36828-.60352-.50781-.20481-.27907-.2517-.44136-.3125-.61523-.24323-.69551-.38094-1.55503-.57812-2.92774s-.41205-3.18114-.63867-5.41797c-.38469-3.7968-1.3286-10.64906-2.08203-15.10742-.77247-4.57106-1.78922-12.45776-2.27735-17.6582-.47639-5.07551-1.78969-15.09215-2.90429-22.13282-1.12084-7.08013-2.31845-14.77302-2.66993-17.13476-.37679-2.53177-1.0499-4.46142-1.91992-5.80274-.87002-1.3413-1.89075-2.11936-3.2207-2.52343-1.19581-.3633-1.9746-.43352-2.76758-.2793-.79297.15422-1.69582.57739-2.96875 1.44727-2.26191 1.54572-3.47346 3.32272-4.25195 8.05468-.77849 4.73197-.90495 12.24801-.63672 24.36133.22317 10.07857.75685 19.64884 1.1875 22.41211.4826 3.09681 1.64117 14.42816 2.63281 25.54102.98813 11.0737 2.34709 22.83331 2.90039 25.57422.63295 3.13546 1.6463 9.43465 2.27735 14.13476.62551 4.65895 1.31463 9.57303 1.50976 10.78125.10792.66823.2599 1.08729.2207 1.84375-.00981.18912-.01534.42979-.20898.79492s-.7832.81267-1.29102.85547c-1.01562.0856-1.19683-.31822-1.47851-.54883-1.12671-.92241-2.66263-2.81169-6.28711-6.98632-2.98326-3.43607-7.3816-7.60838-10.96289-10.39649-5.22097-4.06463-6.39388-4.73714-10.60742-6.03906-5.85286-1.80844-5.50797-1.78638-11.87696-.54688-3.33741.64951-4.99898 1.38483-5.52929 1.89844-.63953.61941-.64153.66941-.64453.69141-.00341.02197.05795.61452.41406 1.90429.30736 1.11323 1.86171 3.87681 4.24805 7.14844 2.38634 3.27164 5.60273 7.19086 9.27929 11.2461 4.48065 4.94213 5.77503 6.92153 9.67774 14.83984 3.90957 7.9322 6.75151 15.1714 10.19336 25.95117.19222.60203.88718 2.07679 1.79296 3.70117.9058 1.62439 2.03281 3.46765 3.14063 5.09961 3.16574 4.66355 4.66876 6.33331 7.1543 8.04492 1.99394 1.37311 5.64332 4.28313 8.30664 6.60938 7.60664 6.6439 17.23319 12.74754 24.32226 15.49023 1.73171.66998 3.8865 1.86559 5.75196 3.06446.93271.59943 1.78287 1.19687 2.46484 1.74414.34099.27363.63996.53332.90039.79883.26043.2655.49478.48569.70117.98437.15647.37806.31474.86638.68164 1.93359.36691 1.06723.87058 2.54507 1.47461 4.32618 1.20806 3.5622 2.81867 8.34127 4.54102 13.47851 1.71935 5.12836 3.35075 9.86185 4.59179 13.34766.62053 1.7429 1.14371 3.17373 1.52735 4.17773.1824.47736.32807.84364.4375 1.10352.0067.002.00667.0019.01367.0039.30249.08762.76894.19667 1.33008.30664 1.12228.21998 2.63335.44932 4.21484.62305 3.11799.34253 9.78245.67491 14.60156.72071 8.39549.07976 9.02149.0042 18.39258-2.17969 11.32281-2.63883 22.16932-6.76664 29.3125-11.09571 1.35402-.82056 2.61694-1.5941 3.55664-2.17578.27728-.17163.45543-.28369.66992-.41797-.2696-.59689-.69178-1.45825-1.39648-2.79492-1.52089-2.88483-4.12991-7.61351-8.26562-15.01758-3.26381-5.84317-6.867-12.87865-8.13477-15.95117l-2.27344-5.51172-.14453-23.39453c-.1876-30.03913-1.20941-44.99171-4.2832-62.92773-1.16132-6.77647-1.7642-10.22043-2.37891-12.46094-.6147-2.24051-1.22011-3.33293-2.58789-5.7793-1.6097-2.87905-3.92668-8.09079-5.28516-11.85546-1.30995-3.63026-3.28799-8.69662-4.34765-11.14063-3.25458-7.50628-7.82205-24.81142-10.50195-39.4668-1.89064-10.339-6.32577-22.26262-9.63282-26.66015-.49467-.65779-2.15099-1.92947-3.04687-2.29297-.94839-.3848-1.42654-.50858-1.70313-.51758-.27659-.00894-.55668.05536-1.29687.37305-1.4536.62388-2.12088 1.14021-2.58008 1.92187s-.75122 2.04994-.87109 4.20117c-.08982 1.6118.15236 5.74245.58984 10.16407.43748 4.4216 1.06024 9.24012 1.67188 12.5625.30577 1.66074.79698 4.80874 1.10742 7.08789 1.16386 8.5447 5.05407 28.26615 7.51367 38.06445.929 3.70082 1.43459 5.81499 1.58398 7.02344.0375.30211.08786.50503.00586.95898-.04099.22698-.07458.66814-.68945 1.07617-.30744.20404-.74638.28514-1.05859.24414-.31222-.04095-.5099-.14902-.64844-.23632-.55417-.34914-.56762-.53619-.7168-.76563-.14917-.22944-.29491-.48476-.45898-.79101-.89828-1.67671-1.82164-4.59401-2.90821-8.55469-1.08657-3.96069-2.27182-8.88216-3.43359-14.19141-2.32353-10.61848-4.54872-22.7694-5.64648-31.80469-.34488-2.83833-1.12215-7.84932-1.71094-11.02148-.60006-3.2328-1.25101-7.01787-1.46485-8.54687-.27909-1.99548-1.65512-7.38649-3.08789-12.30079-.71638-2.45714-1.4494-4.82649-2.07031-6.66601-.31045-.91976-.59437-1.70766-.82617-2.29492-.2318-.58727-.47929-1.0374-.42969-.9668-1.19954-1.70827-3.76471-3.26347-6.1582-3.62891-.99191-.15144-1.58819-.04322-2.30664.4043s-1.56877 1.35287-2.5586 2.88477c-.2978.4609-.63713 1.87616-.42187 5.69726.21526 3.82111.899 9.92266 2.13672 19.69336.93794 7.40411 2.21724 17.79895 2.84375 23.11719 1.02402 8.6927 2.21663 16.01824 5.74023 35.24414.70423 3.84243 1.06778 5.6942 1.11328 6.875.01139.2952.04562.54216-.12109 1.00976-.08335.23381-.25368.57725-.64258.83594-.3889.25868-.91101.29808-1.22265.23438-.62329-.12747-.76628-.34607-.94336-.49805-.17709-.15198-.31971-.2961-.47071-.44922-.48575-.49258-.58449-.85889-.77734-1.35156-.19285-.49268-.37915-1.07592-.56641-1.75391-.37451-1.35598-.74962-3.07972-1.07812-4.98242-3.40417-19.71637-3.85574-22.65309-6.06836-39.47266-.48289-3.67079-1.237-8.55791-1.65235-10.73437-.45719-2.39586-.96123-6.84391-1.1621-10.13477-.19357-3.17151-.60435-7.41264-.88282-9.2207-.31511-2.04596-.80493-6.74661-1.11914-10.63672-.1526-1.8893-.3968-3.92331-.66211-5.65039-.2653-1.72708-.58367-3.21101-.75976-3.72656-1.52598-4.46752-4.114-6.57327-7.0293-6.63477zm66.43555 35.24024c.0648-.0263.14116 0 .21094 0-.0698 0-.14613-.0263-.21094 0z"/><path d="m109.73828 162.98242c-.18334.03827-.28623.13505-.47461.31836-.37673.36662-1.01255 1.43706-1.98633 3.26758-1.40497 2.64114-1.74798 4.32648-1.70898 4.50586.01949.0897-.12163-.0361.11719.0625.23879.09863.86558.21289 1.78711.21289 3.99182 0 7.83338 2.39822 10.00781 6.05664 1.38189 2.32498 1.79473 4.27527 1.89453 8.78906l.12891 5.77539-4.49219 9.60938c-3.73876 8.00159-5.24264 10.40267-9.56836 15.29687-4.58101 5.18308-4.81001 5.54364-6.218751 10.47852-2.999098 10.506-6.838639 19.3958-11.111328 25.54297-1.827717 2.62956-2.770558 4.07905-3.207031 5.0957-.436218 1.01606-.482828 1.68036-.486328 3.27734v.00196c-.005322 2.45567-.956029 7.34338-2.146484 12.58594-1.190673 5.24352-2.604773 10.56275-3.728516 13.36523l-1.025391 2.55664 3.175781 3.68555c3.501624 4.06616 4.271561 5.5539 6.765626 13.34765 1.961001 6.12799 3.041306 9.64224 3.529296 11.99805.244 1.17791.34818 2.08396.28711 2.91211s-.326602 1.55801-.650391 2.13672c-.215865.3858-.215171.74419-1.035156 1.22851-.409993.2422-1.334993.26659-1.804688-.05273-.469693-.31932-.592795-.62616-.71289-.88477-.48038-1.03442-.66945-2.30623-1.189453-4.96093-1.796608-9.17192-4.757606-16.05286-9.173828-21.52539-1.128056-1.39789-2.149675-2.79581-2.910157-3.95704-.38024-.58061-.695993-1.09931-.935547-1.55859-.239552-.45928-.484375-.6636-.484375-1.53125 0-.64431.140914-1.18491.326172-1.85352.185258-.66859.430605-1.39064.714844-2.06054.602659-1.42037 2.06055-6.74263 3.300781-12.05664 1.240231-5.31403 2.353756-10.89285 2.560547-13.08985.385013-4.09045 1.022835-5.77915 4.099609-10.65625 4.574279-7.25092 7.789871-15.10433 12.101563-29.6914.208565-.70562.432281-.88073.765625-1.3418.333344-.46106.764809-1.01104 1.277344-1.63281 1.025067-1.24354 2.370553-2.76922 3.810546-4.30664 5.45526-5.82446 6.28235-7.17847 10.58594-17.15625 1.32275-3.0668 1.9605-4.63281 2.21094-5.83789.25042-1.20508.18443-2.23514-.02539-4.51563-.36933-4.01345-.98267-6.27553-1.96485-7.5039-.98217-1.22839-2.5328-1.85829-5.67578-2.3086-1.32645-.19006-2.24691-.34075-3.11133-.8457-.31529-.18418-.53752-.47085-.76367-.74805-.40729.61459-.64099.911-1.48633 2.35352-1.824045 3.1126-7.750038 10.9198-13.466795 17.87109-9.930497 12.07494-10.561709 13.02095-19.689453 29.4043-8.461971 15.18824-10.309751 19.09208-17.550781 37.08008-4.474872 11.11641-8.916738 21.83995-10.085938 24.27148-1.30376 2.71143-1.918422 5.47185-1.820312 10.20313.098112 4.73126.952928 11.36633 2.621093 21.4414 3.35165 20.24288 3.74538 26.29868 2.777344 42.71485v.00195c-.01552.26242-.029262.32954-.039062.47461v.62109c0-.04208.098626.26414-.03711.86719v.00195c-.033292.14663-.064212.13643-.107422.23633-.0262.32839-.053858.59755-.074218.90039l-.001954-.21094c-.000639-.00868-.026291.3852-.050781.70508l.011719-.01758c-.00976.1414-.025356.21815-.035156.35743-.545392 7.77098-1.125213 12.34443-2.71875 19.02539-2.245893 9.41584-5.677611 18.06478-9.392578 23.36132-.234722.33465-1.073252 1.96181-1.941407 3.94922-.868153 1.98743-1.855208 4.4374-2.74414 6.84571-1.871933 5.07147-7.949763 18.36439-13.625 29.87304-2.82916 5.73717-5.4017819 10.97985-7.2656252 14.80274-.9319216 1.91144-1.6868254 3.46936-2.2070313 4.55273-.1565507.32603-.2472984.51572-.359375.75195.4052601.36803.9388843.84241 1.6328125 1.44922 1.5022052 1.31362 3.5831224 3.10053 5.871094 5.03516l8.132812 6.87695 8.53125 3.0918 8.535156 3.0918 11.207032-.03516 11.226562-.03711 8.490235-2.9082 8.027343-2.74805 5.607422-16.48242c8.150991-23.96348 13.311521-37.334 18.75586-48.53711 5.112784-10.52079 6.187604-11.79692 18.357424-21.4082 7.47968-5.9072 10.29184-10.14684 15.01172-22.67578 1.96814-5.22439 2.63388-8.10479 3.36523-14.59375l.89648-7.97657-2.13671-7.6875c-1.43236-5.14782-2.64352-10.61476-3.45313-15.33398-.8096-4.71923-1.24884-8.58676-1.01953-10.9961.14532-1.5269.30892-7.36488.32422-12.58984.02372-8.04977-.15911-9.93908-1.34961-13.88086-1.86237-6.16627-2.93917-8.17479-6.89648-12.85742-4.16194-4.92475-9.29543-7.33532-13.35743-6.78516-3.58849.48601-6.06181 2.86309-8.21093 8.52149-1.446364 3.808-1.562504 4.80098-1.562504 12.23633 0 4.54563.379526 10.14774.726564 11.88086.53226 2.65826.69936 8.51737.69336 14.57421-.0063 6.05685-.18762 11.93392-.722659 14.60938-.434432 2.17249-2.011438 6.89984-3.634765 11.4375-.811665 2.26883-1.629071 4.44958-2.308594 6.14062-.339762.84553-.642757 1.56698-.904297 2.13282-.13077.28291-.250444.52619-.369141.74218-.118696.216-.179276.37458-.472656.67188-.186067.18855-.447399.47047-1.0625.54297-.6151.07246-1.329437-.39213-1.554687-.73828-.450503-.69231-.338304-.99291-.345703-1.38477-.014864-.78372.10271-1.73171.294921-2.875.384425-2.28657 1.09501-5.21731 1.955079-7.60742 3.706384-10.30007 3.842417-11.44276 3.185546-24.875-.335395-6.85812-.635112-17.59118-.669922-23.92969-.067961-12.34236-.134898-11.9365 4.275391-21.6289 4.626367-10.16726 9.189977-24.34716 10.191407-31.41016.35106-2.47592 1.92217-7.70419 3.57422-12.24219 1.59259-4.37477 3.30849-9.74765 3.80078-11.78906-1.05811 1.14816-1.941 2.24055-3 3.22851-1.62172 1.51295-2.351 2.25814-2.93945 3.33985-.58846 1.08171-1.09637 2.68484-1.97852 5.7832-2.38514 8.37743-6.37802 17.73969-9.749999 22.60742-1.93887 2.79889-2.404125 4.1042-3.431641 9.60547-1.13548 6.07922-2.002639 9.86797-5.085938 22.20313-.286815 1.14744-.611053 2.1852-.929687 2.99414-.159317.40447-.311294.74618-.5 1.0664-.094353.16012-.191347.31478-.371094.50391-.179746.18913-.475219.54883-1.222656.54883.024832 0-.009654.00672-.203125.01172-.193471.00466-.698255-.00138-1.164062-.39063-.465807-.38924-.576239-.88693-.611329-1.18359-.03509-.29667-.019763-.52566.003907-.80078.094697-1.10051.443297-2.99818 1.173828-7.27149.349393-2.04379.754728-4.0564 1.128906-5.67578.187089-.80969.364931-1.52026.53125-2.09961s.270113-.96522.521484-1.42773c-.053598.09862.130863-.33668.285157-.88086.154292-.54418.339033-1.2739.535156-2.1211.392244-1.69437.834784-3.86294 1.226562-6.07031.626387-3.52911 1.054443-5.68471 1.59961-7.34765.545165-1.66296 1.257455-2.82522 2.207031-4.00586 2.630243-3.27033 6.07465-10.72079 9.23828-20.47852 2.62331-8.09118 3.22787-9.18935 7.2168-13.58984 4.22899-4.66529 7.97147-10.80012 11.08789-18.24219.93366-2.2296 1.98745-5.53175 2.7207-8.32031.36663-1.39429.65543-2.66825.81446-3.59571.0795-.46372.12521-.84424.13671-1.06835.01153-.22411-.22423-.38673.15821.22265-.20464-.32607-.20054-.42716-.24024-.56836-.03966-.14119-.07006-.27865-.10156-.43359-.06291-.30988-.12325-.68137-.18555-1.11328-.12463-.86383-.25273-1.96161-.35547-3.11328-.35071-3.93154-1.42388-6.86203-3.15625-8.98047-1.73235-2.11845-4.15793-3.51045-7.54882-4.22657-1.36784-.28889-2.37485-.4955-3.05664-.5664-.51188-.05319-.77565-.07343-.95899-.03516zm-66.873046 202.13477c-.145607.07998-.269135.13088-.322265.14648-.12806.03755-.073324.09094.320312-.14258z"/></svg>