<svg height="500" viewBox="0 0 500 500" width="500" xmlns="http://www.w3.org/2000/svg"><path d="m250 273c-60.62903 0-76.16042.07318-108.26758.11328-.24461 8.95606-.65082 17.04338-1.125 20.08594-.41981 2.69387-1.62024 14.26096-2.60937 25.3457-.76303 8.55101-1.62065 16.14887-2.31836 21.25586.21361.02974.44724.04296.66406.07422 7.05515 1.01722 14.65918 2.93932 22.08203 5.44727 5.49867-1.68374 6.73279-1.73434 12.96484-.52149 3.51524.68411 5.63753 1.32824 7.04297 2.68945.6833.66182 1.36022 1.34507 1.52149 2.38672.16126 1.04166-.12477 1.84354-.48828 3.16016-.0255.09233-.11671.22182-.14649.31641 6.16605 2.24977 12.51982 4.32662 17.69141 5.68945 11.77441 3.10272 30.35493 6.53556 42.01172 7.76367 4.61063.4858 26.29584-.29286 32.05468-1.19922 18.79804-2.9584 35.01203-6.97806 49.60352-12.25-.0302-.09579-.12262-.22682-.14844-.32031-.36351-1.31662-.64954-2.1185-.48828-3.16016.16127-1.04165.83819-1.7249 1.52149-2.38672 1.40544-1.36121 3.52774-2.00534 7.04297-2.68945 6.23206-1.21285 7.46617-1.16225 12.96484.52149 7.42285-2.50795 15.02687-4.43005 22.08203-5.44727.21682-.03126.45046-.04448.66406-.07422-.69771-5.10699-1.55533-12.70485-2.31836-21.25586-.98913-11.08474-2.18956-22.65183-2.60937-25.3457-.47418-3.04256-.88039-11.12988-1.125-20.08594-32.10716-.0401-47.63854-.11328-108.26758-.11328zm-111.27344.11719c-5.74083.0076-14.78663.00998-19.76562.01953-.53544 4.07268-1.2277 8.63097-1.46875 11.19922-.4881 5.20019-1.50483 13.08685-2.27735 17.6582-.75346 4.45853-1.69736 11.31082-2.08203 15.10742-.22662 2.23686-.44137 4.04525-.63867 5.41797s-.33649 2.23199-.58008 2.92774c-.06089.17393-.10541.33806-.31054.61718-.10257.13957-.24952.33614-.60547.50782-.35596.1717-.9901.18303-1.37891-.01563-.77756-.39732-.75037-.78055-.82226-.99414-.07186-.21359-.10196-.37902-.13086-.56445-.11557-.74172-.15347-1.77831-.16407-3.35743-.03449-5.13891.87893-13.20157 2.76367-24.81835.62096-3.82752 1.42893-9.62556 1.78516-12.79493.53961-4.80077.97634-7.55002 1.40234-10.88476-4.38405.00912-14.19727.00666-18.003901.01758-.080957.58049-.173065 1.03978-.244141 1.58007-2.212603 16.81947-2.660276 19.75623-6.064453 39.47266-.328522 1.90279-.705397 3.62659-1.080078 4.98242-.187341.67792-.373493 1.26132-.566406 1.75391-.192915.49259-.291815.85726-.777344 1.34961-.150931.15305-.293775.29924-.470703.45117-.176929.15193-.318616.36819-.941406.49609-.311395.06396-.833244.02624-1.222657-.23242-.389412-.25866-.561141-.60202-.644531-.83594-.166774-.46783-.132524-.71466-.121094-1.00976.045721-1.18041.411017-3.03065 1.115235-6.87305 3.523587-19.22581 4.712287-26.55324 5.736328-35.24609.159428-1.35334.496841-4.00483.724609-5.88281-3.433641.01066-13.884959.0052-16.857422.01757-1.115942 8.98598-3.281493 20.8558-5.566406 31.29883-1.161649 5.30924-2.347112 10.23072-3.433594 14.19141-1.086482 3.96068-2.009911 6.87796-2.908203 8.55469-.164072.30625-.309803.56157-.458984.79101-.149182.22944-.162543.41649-.716797.76563-.138564.08728-.336204.19542-.648438.23632-.312232.04093-.751211-.04207-1.058593-.24609-.614764-.40804-.648464-.8492-.689453-1.07617-.08194-.45393-.031491-.65491.005859-.95703.149388-1.20849.654989-3.32262 1.583984-7.02344 2.459593-9.79829 6.349804-29.51973 7.513672-38.06445.310409-2.27894.801593-5.42684 1.107422-7.08789.067046-.36419.116548-.97932.183594-1.37696-4.927919.02241-12.98032.04609-16.69336.07422-.104508.51347-.268629 1.04386-.361328 1.55078-2.679906 14.65535-7.245433 31.95858-10.5 39.46485-1.059632 2.44392-3.039637 7.51229-4.349609 11.14258-1.358519 3.76479-3.67555 8.97658-5.285156 11.85546-.176972.31653-.255136.49097-.408204.76758.83264.0513 1.150666.09811 2.544922.14258 2.608713.08318 6.162986.15494 10.544922.21484 8.763875.11972 20.840852.18832 35.345703.19532 36.050351.01765 45.132721.14795 51.908201.86914.66304-4.89718 1.55063-12.62754 2.31446-21.1875.99163-11.11284 2.1502-22.4442 2.63281-25.54102.38757-2.48692.83095-10.69912 1.08398-19.62109zm222.54688 0c.25303 8.92197.69641 17.13417 1.08398 19.62109.48261 3.09682 1.64118 14.42818 2.63281 25.54102.76383 8.55996 1.65142 16.29032 2.31446 21.1875 6.77546-.72121 15.85784-.85157 51.9082-.86914 14.50487-.00705 26.58183-.07554 35.3457-.19532 4.38195-.05988 7.93621-.13164 10.54493-.21484 1.39424-.04446 1.71228-.09127 2.54492-.14258-.15307-.27661-.23123-.45105-.40821-.76758-1.6096-2.87888-3.92663-8.09067-5.28515-11.85546-1.30997-3.63029-3.28998-8.69865-4.34961-11.14258-3.25457-7.50627-7.82009-24.8095-10.5-39.46485-.0927-.50692-.25682-1.03731-.36133-1.55078-3.71304-.02813-11.76544-.05181-16.69336-.07422.06705.39764.11655 1.01277.1836 1.37696.30583 1.66105.79701 4.80895 1.10742 7.08789 1.16387 8.54472 5.05407 28.26617 7.51367 38.06445.929 3.70082 1.4346 5.81495 1.58398 7.02344.0375.30212.08786.50309.00586.95703-.04099.22697-.07468.66813-.68945 1.07617-.30738.20399-.74636.28699-1.05859.24609-.31224-.04092-.50988-.14902-.64844-.23632-.55426-.34914-.56762-.53619-.7168-.76563s-.29491-.48476-.45898-.79101c-.89829-1.67673-1.82172-4.59401-2.90821-8.55469-1.08648-3.96069-2.27194-8.88217-3.43359-14.19141-2.28491-10.44303-4.45047-22.31285-5.56641-31.29883-2.97246-.01237-13.42378-.00691-16.85742-.01757.22777 1.87798.56518 4.52947.72461 5.88281 1.02404 8.69285 2.21273 16.02028 5.73633 35.24609.70422 3.8424 1.06953 5.69264 1.11523 6.87305.01143.2951.04569.54193-.12109 1.00976-.08339.23392-.25512.57728-.64453.83594-.38941.25862-.91126.29642-1.22266.23242-.62279-.1279-.76447-.34416-.9414-.49609s-.31978-.29812-.47071-.45117c-.48553-.49235-.58443-.85702-.77734-1.34961-.19292-.49259-.37907-1.07599-.56641-1.75391-.37468-1.35583-.75155-3.07963-1.08007-4.98242-3.40418-19.71643-3.85185-22.65319-6.06446-39.47266-.07107-.54029-.16318-.99958-.24414-1.58007-3.80663-.01092-13.61985-.00846-18.0039-.01758.426 3.33474.86273 6.08399 1.40234 10.88476.35623 3.16937 1.1642 8.96741 1.78516 12.79493 1.88474 11.61678 2.79817 19.67945 2.76367 24.81835-.01059 1.57912-.0485 2.61571-.16407 3.35743-.02889.18543-.05896.35086-.13086.56445-.07188.21359-.04465.59682-.82226.99414-.38881.19863-1.02295.1873-1.37891.01563-.35595-.17168-.5029-.36825-.60547-.50782-.20513-.27912-.24964-.44325-.31054-.61718-.24359-.69575-.38278-1.55502-.58008-2.92774s-.41205-3.18111-.63867-5.41797c-.38467-3.7966-1.32857-10.64889-2.08203-15.10742-.77252-4.57135-1.78925-12.45801-2.27735-17.6582-.24105-2.56825-.93331-7.12654-1.46875-11.19922-4.97899-.00955-14.02479-.01193-19.76562-.01953zm-311.107424.1875c-18.433258.17011-23.67433.41475-24.869141.83008-10.274417 3.57122-17.6344381 11.09308-21.0839844 21.56445-1.4286513 4.33682-1.4286524 14.87801 0 19.21484 2.9527907 8.96344 8.6894204 15.66712 16.9453124 19.82227 2.6583 1.3379 5.790056 2.41737 8.015625 2.91797.310818-.59289.574397-1.13647.96875-1.8418 1.448103-2.59004 3.796258-7.84696 5.082031-11.41016 1.3343-3.6977 3.297955-8.73575 4.416016-11.31445 2.983035-6.88001 7.659251-24.34566 10.304687-38.8125.058509-.31996.158291-.64897.220704-.9707zm399.667964 0c.06242.32173.1622.65074.22071.9707 2.64543 14.46685 7.32165 31.9325 10.30469 38.8125 1.11806 2.5787 3.08172 7.61675 4.41601 11.31445 1.28578 3.5632 3.63393 8.82012 5.08203 11.41016.39436.70533.65793 1.24891.96875 1.8418 2.22515-.50058 5.35526-1.58 8.01367-2.91797 8.25597-4.15517 13.9945-10.85895 16.94727-19.82227 1.42865-4.33683 1.42865-14.87802 0-19.21484-3.44954-10.47136-10.80958-17.99323-21.08399-21.56445-1.19477-.4153-6.43588-.65996-24.86914-.83008zm-272.15429 4.17187h72.32031 72.32031l1.93555 2.10547h-.00195c.9384 1.02083 1.48747 2.46699 2.32031 5.42188.83284 2.95486 1.89587 7.47333 3.49023 14.60547 1.75394 7.84601 2.72286 12.31981 3.17188 15.10351.22449 1.39185.32479 2.36483.30469 3.18359-.02012.81879-.20556 1.53274-.48633 2.07618-.45902.88841-1.22447 1.7696-2.30469 2.97265-1.08022 1.20306-2.4408 2.6142-3.91602 4.07031-2.95041 2.91228-6.33012 5.98786-8.81054 7.88086-5.61858 4.288-15.88346 10.00909-22.70703 12.66407-7.37092 2.86795-19.56035 6.38836-29.57813 8.55664-11.05328 2.39235-21.324 2.31968-32.60742-.22461-29.00292-6.53989-45.44942-14.43519-60.0957-28.97852-1.39168-1.3819-2.74626-2.81804-3.82618-4.03711-1.07989-1.21907-1.81361-2.02944-2.26562-2.90429-.28086-.5436-.46438-1.2574-.48438-2.07618-.01995-.81875.08001-1.79178.30469-3.18359.44936-2.78362 1.41795-7.25754 3.17188-15.10351 1.59436-7.1321 2.65776-11.65066 3.49023-14.60547.83247-2.95483 1.37973-4.40084 2.31836-5.42188l1.49024-1.62109zm-12.9961 69.40039c-.41479.01902-.88947.14264-1.33203.22657 1.71775.65463 3.45125 1.28914 5.11914 2.00586 2.49243 1.07103 5.2392 2.15435 8.06055 3.22265.00579-.01941.03981-.0733.04492-.0918.35616-1.28983.41706-1.88279.41406-1.90429-.00333-.02154-.00292-.06991-.64257-.68946-.53041-.51371-2.19393-1.2509-5.53125-1.90039-3.18447-.61974-4.6913-.93523-6.13282-.86914zm170.63282 0c-1.44152-.06609-2.94835.2494-6.13282.86914-3.33732.64949-5.00084 1.38668-5.53125 1.90039-.63957.61956-.63957.66796-.64257.68946-.00334.02154.05793.61446.41406 1.90429.00533.01931.0408.07542.04687.09571 2.73509-1.03364 5.43246-2.09808 8.0586-3.22656 1.66789-.71672 3.40139-1.35123 5.11914-2.00586-.44256-.08393-.91724-.20755-1.33203-.22657z" stroke-width="3"/><path d="m240 100v45h45v-45zm50 0v45h45v-45zm50 0v45h45v-45zm-100 50v45h45v-45zm50 0v45h45v-45zm50 0v45h45v-45zm-100 50v45h45v-45zm50 0v45h45v-45zm50 0v45h18.94141c.88448-4.86308 2.67446-7.68756 5.42382-9.56641 1.43961-.98378 2.71564-1.64705 4.08789-1.91406 1.37227-.26701 2.7455-.09365 4.21094.35156 2.00099.60795 3.67517 1.92543 4.86719 3.76368.50854.78423.90007 1.70571 1.25781 2.66992-.44349-6.51353-.44436-11.72071.45508-15.45703.94152-3.91112 2.9072-6.63459 5.75586-8.29297v-16.55469zm45 20.20117c-1.33528 1.18556-2.23245 2.82449-2.83984 5.34766-.91495 3.80072-.96748 9.55129-.21289 17.88086.04218.46569.11639 1.0743.16406 1.57031h2.88867zm-14.74219 16.20703c-.44329-.0437-.83587-.02246-1.23242.05469-.79309.15432-1.6958.57737-2.96875 1.44727-2.08217 1.42289-3.25364 3.14998-4.03711 7.08984h14.89844c-.37877-2.49613-1.04269-4.40564-1.9043-5.73438-.86995-1.34157-1.89091-2.11941-3.2207-2.52343-.59786-.18165-1.09186-.29029-1.53516-.33399z"/><path d="m109.47266 218.00195c-2.91558.06153-5.50136 2.16528-7.02735 6.63282-.17602.51534-.49455 2.00114-.75976 3.72851-.26522 1.72737-.5095 3.76103-.66211 5.65039-.31421 3.89006-.80402 8.59071-1.119143 10.63672-.278516 1.8084-.689263 6.04938-.882813 9.2207-.200847 3.2904-.704775 7.73823-1.162109 10.13477-.415486 2.17719-1.171466 7.06405-1.654297 10.73437-2.212603 16.81947-2.660276 19.75623-6.064453 39.47266-.328522 1.90279-.705397 3.62659-1.080078 4.98242-.187341.67792-.373493 1.26132-.566406 1.75391-.192915.49259-.291815.85726-.777344 1.34961-.150931.15305-.293775.29924-.470703.45117-.176929.15193-.318616.36819-.941406.49609-.311395.06396-.833244.02624-1.222657-.23242-.389412-.25866-.561141-.60202-.644531-.83594-.166774-.46783-.132524-.71466-.121094-1.00976.045721-1.18041.411017-3.03065 1.115235-6.87305 3.523587-19.22581 4.712287-26.55324 5.736328-35.24609.626538-5.31848 1.907782-15.71521 2.845703-23.11914 1.237715-9.77068 1.921608-15.87046 2.136719-19.69141.215109-3.82094-.123977-5.23622-.421875-5.69726-.989844-1.53192-1.840251-2.43534-2.558594-2.88282-.718343-.44745-1.314704-.5577-2.306641-.40625-2.393815.36549-4.95877 1.91884-6.158203 3.62696.049576-.07061-.197895.38148-.429687.96875-.231793.58727-.515734 1.37514-.826172 2.29492-.620879 1.83955-1.353971 4.20884-2.070313 6.66601-1.432682 4.91437-2.806835 10.30528-3.085937 12.30079-.213892 1.52939-.866774 5.31425-1.466797 8.54687-.588862 3.17256-1.36807 8.18361-1.712891 11.02148-1.097772 9.03526-3.321232 21.18622-5.644531 31.80469-1.161649 5.30924-2.347112 10.23072-3.433594 14.19141-1.086482 3.96068-2.009911 6.87796-2.908203 8.55469-.164072.30625-.309803.56157-.458984.79101-.149182.22944-.162543.41649-.716797.76563-.138564.08728-.336204.19542-.648438.23632-.312232.04093-.751211-.04207-1.058593-.24609-.614764-.40804-.648464-.8492-.689453-1.07617-.08194-.45393-.031491-.65491.005859-.95703.149388-1.20849.654989-3.32262 1.583984-7.02344 2.459593-9.79829 6.349804-29.51973 7.513672-38.06445.310409-2.27894.801593-5.42684 1.107422-7.08789.611664-3.32247 1.234058-8.1408 1.671875-12.5625.437817-4.42172.679644-8.55246.589844-10.16407-.119875-2.15129-.411958-3.42133-.871094-4.20312s-1.12657-1.29608-2.580078-1.91992c-.739821-.31755-1.018128-.38205-1.294922-.37305-.276794.00911-.754494.13463-1.703125.51953-.896387.36371-2.554536 1.63372-3.048828 2.29102-3.307062 4.39756-7.744147 16.32123-9.634766 26.66015-2.679906 14.65535-7.245433 31.95858-10.5 39.46485-1.059632 2.44392-3.039637 7.51229-4.349609 11.14258-1.358519 3.76479-3.67555 8.97658-5.285156 11.85546-1.367738 2.4463-1.971439 3.53871-2.585938 5.7793-.614497 2.24059-1.217581 5.68445-2.378906 12.46094-3.073783 17.93601-4.095598 32.88863-4.283203 62.92773l-.144531 23.39258-2.273438 5.51367c-1.267859 3.07273-4.872976 10.10616-8.136719 15.94922-4.1357065 7.40404-6.7427169 12.13441-8.2636716 15.01953-.7047222 1.33681-1.1268448 2.19792-1.3964844 2.79492.2144239.13407.3928779.24666.6699219.41797.9400902.58132 2.2023501 1.35309 3.5566406 2.17383 7.1433095 4.32915 17.9898185 8.4588 29.3125005 11.09766 9.371057 2.18368 9.997052 2.25948 18.392578 2.17969 4.819154-.04578 11.483676-.37819 14.601562-.72071 1.58155-.17374 3.092709-.40319 4.214844-.62305.561067-.10991 1.027665-.21904 1.330078-.30664.00677-.002.006972-.0019.013672-.0039.109444-.25989.253133-.62424.435547-1.10156.383703-1.00404.906733-2.43675 1.527343-4.17969 1.241223-3.48589 2.874411-8.21933 4.59375-13.34766 1.722333-5.13721 3.333113-9.91634 4.541016-13.47851.603952-1.7811 1.105809-3.25701 1.472656-4.32422.366849-1.06722.525087-1.55727.681641-1.93555.206429-.49877.442657-.71885.703125-.98437.260468-.26553.559342-.52515.900391-.79883.682095-.54736 1.531943-1.14458 2.464843-1.74414 1.865803-1.19913 4.020186-2.39446 5.751954-3.06446 7.089132-2.74272 16.715612-8.84437 24.322262-15.48828 2.66337-2.32628 6.31271-5.23823 8.30664-6.61133 2.4856-1.71166 3.98856-3.38138 7.1543-8.04492 1.10781-1.63195 2.23466-3.47491 3.14063-5.09961.90596-1.6247 1.60076-3.10117 1.79296-3.70312 3.44187-10.7798 6.28382-18.0171 10.19336-25.94922 3.90269-7.91827 5.19707-9.8977 9.67774-14.83984 3.67654-4.05522 6.89288-7.97417 9.27929-11.2461 2.38643-3.27192 3.94069-6.03521 4.24805-7.14844.35616-1.28983.41706-1.88279.41406-1.90429-.00333-.02154-.00292-.06991-.64257-.68946-.53041-.51371-2.19393-1.2509-5.53125-1.90039-6.36894-1.23949-6.0241-1.2596-11.87696.54883-4.21384 1.30202-5.38663 1.97261-10.60742 6.03711-3.58114 2.78798-7.97949 6.95832-10.96289 10.39453-3.62447 4.17463-5.16047 6.06591-6.28711 6.98828-.28166.2306-.4626.63463-1.47851.54883-.50797-.04291-1.09753-.49232-1.29102-.85742-.19348-.3651-.19898-.6039-.20898-.79297-.03914-.75629.11474-1.17555.22265-1.84375.19517-1.20845.88425-6.12235 1.50977-10.78125.631-4.69985 1.64236-10.99891 2.27539-14.13476.55326-2.74072 1.9103-14.50048 2.89844-25.57422.99163-11.11284 2.1502-22.4442 2.63281-25.54102.43066-2.76338.96432-12.33359 1.1875-22.41211.26822-12.11333.14355-19.62917-.63477-24.36133-.77832-4.73214-1.99011-6.50901-4.25195-8.05468-1.27295-.8699-2.17566-1.29295-2.96875-1.44727-.79309-.15431-1.57186-.08397-2.76758.2793-1.32979.40402-2.35075 1.18186-3.2207 2.52343-.86995 1.34159-1.54117 3.27091-1.91797 5.80274-.35155 2.36221-1.55106 10.0548-2.67188 17.13476-1.11458 7.04058-2.42789 17.05719-2.90429 22.13282-.4881 5.20019-1.50483 13.08685-2.27735 17.6582-.75346 4.45853-1.69736 11.31082-2.08203 15.10742-.22662 2.23686-.44137 4.04525-.63867 5.41797s-.33649 2.23199-.58008 2.92774c-.06089.17393-.10541.33806-.31054.61718-.10257.13957-.24952.33614-.60547.50782-.35596.1717-.9901.18303-1.37891-.01563-.77756-.39732-.75037-.78055-.82226-.99414-.07186-.21359-.10196-.37902-.13086-.56445-.11557-.74172-.15347-1.77831-.16407-3.35743-.03449-5.13891.87893-13.20157 2.76367-24.81835.62096-3.82752 1.42893-9.62556 1.78516-12.79493 1.13364-10.08574 1.76822-15.00932 2.94727-22.86718.61802-4.11901 1.54887-12.14676 2.05468-17.73047.75459-8.32957.70205-14.08014-.21289-17.88086-.91493-3.80073-2.46614-5.61812-5.22461-6.85547-1.11817-.50158-2.16878-.71191-3.14257-.69141zm281.05468 0c-.97379-.02052-2.0244.18983-3.14257.69141-2.75846 1.23735-4.30967 3.05474-5.22461 6.85547-.91495 3.80072-.96748 9.55129-.21289 17.88086.50581 5.5837 1.43666 13.61146 2.05468 17.73047 1.17905 7.85786 1.81363 12.78144 2.94727 22.86718.35623 3.16937 1.1642 8.96741 1.78516 12.79493 1.88474 11.61678 2.79817 19.67945 2.76367 24.81835-.01059 1.57912-.0485 2.61571-.16407 3.35743-.02889.18543-.05896.35086-.13086.56445-.07188.21359-.04465.59682-.82226.99414-.38881.19863-1.02295.1873-1.37891.01563-.35595-.17168-.5029-.36825-.60547-.50782-.20513-.27912-.24964-.44325-.31054-.61718-.24359-.69575-.38278-1.55502-.58008-2.92774s-.41205-3.18111-.63867-5.41797c-.38467-3.7966-1.32857-10.64889-2.08203-15.10742-.77252-4.57135-1.78925-12.45801-2.27735-17.6582-.4764-5.07563-1.78971-15.09224-2.90429-22.13282-1.12082-7.07996-2.32033-14.77256-2.67188-17.13476-.3768-2.53183-1.04802-4.46115-1.91797-5.80274-.86995-1.34157-1.89091-2.11941-3.2207-2.52343-1.19572-.3633-1.97449-.43361-2.76758-.2793-.79309.15432-1.6958.57737-2.96875 1.44727-2.26184 1.54567-3.47363 3.32254-4.25195 8.05468-.77832 4.73216-.90299 12.24801-.63477 24.36133.22318 10.07852.75684 19.64873 1.1875 22.41211.48261 3.09682 1.64118 14.42818 2.63281 25.54102.98814 11.07374 2.34518 22.8335 2.89844 25.57422.63303 3.13585 1.64439 9.43491 2.27539 14.13476.62552 4.6589 1.3146 9.5728 1.50977 10.78125.10791.6682.26175 1.08746.22265 1.84375-.00978.18907-.01549.42787-.20898.79297s-.78305.81452-1.29102.85742c-1.01591.08583-1.19685-.31823-1.47851-.54883-1.12664-.92237-2.66264-2.81365-6.28711-6.98828-2.9834-3.43621-7.38175-7.60655-10.96289-10.39453-5.22079-4.0645-6.39358-4.73509-10.60742-6.03711-5.85286-1.80843-5.50802-1.78832-11.87696-.54883-3.33732.64949-5.00084 1.38668-5.53125 1.90039-.63957.61956-.63957.66796-.64257.68946-.00334.02154.05793.61446.41406 1.90429.30736 1.11323 1.86163 3.87652 4.24805 7.14844 2.38642 3.27193 5.60275 7.19088 9.27929 11.2461 4.48067 4.94214 5.77505 6.92157 9.67774 14.83984 3.90954 7.93212 6.75149 15.16942 10.19336 25.94922.1922.60195.887 2.07842 1.79296 3.70312.90597 1.6247 2.03282 3.46766 3.14063 5.09961 3.16574 4.66354 4.6687 6.33326 7.1543 8.04492 1.99393 1.3731 5.64327 4.28505 8.30664 6.61133 7.60665 6.64391 17.23313 12.74556 24.32226 15.48828 1.73177.67 3.88615 1.86533 5.75196 3.06446.93289.59956 1.78274 1.19678 2.46484 1.74414.34105.27368.63992.5333.90039.79883.26047.26552.49671.4856.70313.98437.15655.37828.31479.86833.68164 1.93555.36684 1.06721.8687 2.54312 1.47265 4.32422 1.20791 3.56217 2.81869 8.3413 4.54102 13.47851 1.71935 5.12833 3.35253 9.86177 4.59375 13.34766.62061 1.74294 1.14364 3.17565 1.52734 4.17969.18241.47732.3261.84167.43555 1.10156.0067.002.00667.0019.01367.0039.30241.08757.76901.19673 1.33008.30664 1.12213.21986 2.63329.44931 4.21484.62305 3.11789.34252 9.78241.67491 14.60156.72071 8.39554.07975 9.02153.0042 18.39258-2.17969 11.32268-2.63879 22.16919-6.76851 29.3125-11.09766 1.35429-.82074 2.61655-1.59251 3.55664-2.17383.27705-.17131.45551-.2839.66992-.41797-.26962-.597-.69176-1.45811-1.39648-2.79492-1.52096-2.88512-4.12797-7.61549-8.26367-15.01953-3.26374-5.84306-6.86886-12.87649-8.13672-15.94922l-2.27344-5.51367-.14453-23.39258c-.1876-30.0391-1.20941-44.99173-4.2832-62.92773-1.16132-6.77649-1.76441-10.22035-2.37891-12.46094s-1.2182-3.333-2.58594-5.7793c-1.6096-2.87888-3.92663-8.09067-5.28515-11.85546-1.30997-3.63029-3.28998-8.69865-4.34961-11.14258-3.25457-7.50627-7.82009-24.8095-10.5-39.46485-1.89062-10.33892-6.3277-22.26259-9.63477-26.66015-.4943-.6573-2.15244-1.92731-3.04882-2.29102-.94863-.3849-1.42634-.51053-1.70313-.51953-.27679-.00911-.5551.05552-1.29492.37305-1.45351.62384-2.12094 1.13813-2.58008 1.91992s-.75122 2.05183-.87109 4.20312c-.08981 1.61161.15202 5.74235.58984 10.16407.43782 4.4217 1.06022 9.24003 1.67188 12.5625.30583 1.66105.79701 4.80895 1.10742 7.08789 1.16387 8.54472 5.05407 28.26617 7.51367 38.06445.929 3.70082 1.4346 5.81495 1.58398 7.02344.0375.30212.08786.50309.00586.95703-.04099.22697-.07468.66813-.68945 1.07617-.30738.20399-.74636.28699-1.05859.24609-.31224-.04092-.50988-.14902-.64844-.23632-.55426-.34914-.56762-.53619-.7168-.76563s-.29491-.48476-.45898-.79101c-.89829-1.67673-1.82172-4.59401-2.90821-8.55469-1.08648-3.96069-2.27194-8.88217-3.43359-14.19141-2.3233-10.61847-4.54676-22.76943-5.64453-31.80469-.34482-2.83787-1.12403-7.84892-1.71289-11.02148-.60003-3.23262-1.25291-7.01748-1.4668-8.54687-.2791-1.99551-1.65325-7.38642-3.08594-12.30079-.71634-2.45717-1.44943-4.82646-2.07031-6.66601-.31044-.91978-.59438-1.70765-.82617-2.29492s-.47929-1.03935-.42969-.96875c-1.19942-1.70812-3.76438-3.26147-6.1582-3.62696-.99194-.15145-1.5883-.04122-2.30664.40625-.71834.44748-1.56875 1.3509-2.5586 2.88282-.29789.46104-.63698 1.87632-.42187 5.69726.21511 3.82095.899 9.92073 2.13672 19.69141.93792 7.40393 2.21916 17.80066 2.8457 23.11914 1.02404 8.69285 2.21273 16.02028 5.73633 35.24609.70422 3.8424 1.06953 5.69264 1.11523 6.87305.01143.2951.04569.54193-.12109 1.00976-.08339.23392-.25512.57728-.64453.83594-.38941.25862-.91126.29642-1.22266.23242-.62279-.1279-.76447-.34416-.9414-.49609s-.31978-.29812-.47071-.45117c-.48553-.49235-.58443-.85702-.77734-1.34961-.19292-.49259-.37907-1.07599-.56641-1.75391-.37468-1.35583-.75155-3.07963-1.08007-4.98242-3.40418-19.71643-3.85185-22.65319-6.06446-39.47266-.48283-3.67032-1.23881-8.55718-1.6543-10.73437-.45732-2.39654-.96126-6.84437-1.1621-10.13477-.19355-3.17132-.6043-7.4123-.88282-9.2207-.31511-2.04599-.80493-6.74665-1.11914-10.63672-.15261-1.88936-.39689-3.92302-.66211-5.65039-.26521-1.72737-.58375-3.21318-.75976-3.72851-1.52599-4.46754-4.11179-6.57132-7.02735-6.63282z" stroke-width="2.99981"/></svg>