<svg height="500" viewBox="0 0 500 500" width="500" xmlns="http://www.w3.org/2000/svg"><path d="m250 273c-70.82921 0-93.529.0747-126.48242.13281.39162.41193.82195.73559 1.19726 1.17969 4.07465 4.82145 5.56469 7.60397 7.47461 13.92773 1.24913 4.13589 1.50242 6.65048 1.47852 14.75586-.01547 5.2752-.14808 10.8933-.33594 12.86719-.15848 1.66517.19776 5.59541.98828 10.20313.73765 4.29946 1.84723 9.26808 3.12891 14.00976 10.01366 1.55461 21.04084 4.74441 31.02148 9.03321 8.665 3.72347 20.18218 7.73084 28.54102 9.93359 11.77441 3.10272 30.35493 6.53556 42.01172 7.76367 4.61063.4858 26.29584-.29286 32.05468-1.19922 23.57518-3.71022 43.1304-9.05506 60.45118-16.49804 9.98064-4.2888 21.00781-7.4786 31.02148-9.03321 1.28168-4.74168 2.39126-9.7103 3.12891-14.00976.79052-4.60772 1.14676-8.53796.98828-10.20313-.18786-1.97389-.32044-7.59199-.33594-12.86719-.02385-8.10538.22938-10.61997 1.47852-14.75586 1.90992-6.32376 3.39996-9.10628 7.47461-13.92773.37531-.4441.80564-.76776 1.19726-1.17969-32.95343-.05812-55.6532-.13281-126.48242-.13281zm-130.74609.13672c-3.9998.00763-12.30177.0086-15.84375.01758-.91165 1.25975-1.77051 2.76225-2.55664 4.83203-1.446341 3.80796-1.562504 4.80096-1.562504 12.23633 0 4.5456.379525 10.14772.726564 11.88086.53225 2.6582.69936 8.51743.69336 14.57421-.00617 6.0568-.18761 11.93387-.722659 14.60938-.30172 1.50882-1.215148 4.34798-2.251953 7.40234 20.239032.07191 31.071602.26976 36.511722.95117-1.16685-4.4621-2.19237-9.03067-2.88477-13.0664-.80966-4.71928-1.24884-8.58673-1.01953-10.9961.14526-1.52623.30892-7.36466.32422-12.58984.02372-8.04979-.15912-9.93915-1.34961-13.88086-1.86242-6.16646-2.93927-8.17492-6.89648-12.85742-1.0076-1.19227-2.07547-2.22207-3.16797-3.11328zm261.49218 0c-1.0925.89121-2.16037 1.92101-3.16797 3.11328-3.95721 4.6825-5.03406 6.69096-6.89648 12.85742-1.19048 3.9417-1.37331 5.83106-1.34961 13.88086.01533 5.22518.17896 11.06361.32422 12.58984.22931 2.40937-.20987 6.27682-1.01953 10.9961-.6924 4.03573-1.71792 8.6043-2.88477 13.0664 5.4401-.68142 16.27267-.87929 36.51172-.95117-1.0368-3.05436-1.95023-5.89352-2.25195-7.40234-.53505-2.67551-.71666-8.55258-.72266-14.60938-.00616-6.05678.16112-11.91601.69336-14.57421.34704-1.73314.72656-7.33526.72656-11.88086 0-7.43537-.11616-8.42838-1.5625-12.23633-.78645-2.07063-1.64651-3.57207-2.55859-4.83203-3.5416-.00898-11.84249-.00995-15.8418-.01758zm-283.806637.02344c-1.107816.00314-4.157267.00255-5.21875.00586-.593642 2.45559-1.0392 4.37107-1.964844 8.07421-.286758 1.14723-.611319 2.18695-.929687 2.9961-.159184.40457-.309501.74607-.498047 1.0664-.094273.16017-.191417.31465-.371094.50391s-.474665.54883-1.222656.54883c.02469 0-.009462.00672-.203125.01172-.193663.0046-.698659-.00159-1.164062-.39063-.465403-.38903-.578092-.88687-.613282-1.18359-.03519-.29673-.019713-.5236.003906-.79883.0945-1.10093.445243-3.00009 1.175782-7.27344.218394-1.27751.464816-2.38355.705078-3.54882-.823169.0028-3.428562.00099-4.222656.0039-.054491.24318-.086971.44061-.142578.68555-1.190436 5.24358-2.602788 10.56072-3.726563 13.36328l-1.025391 2.55664 3.173828 3.68555c3.50163 4.06618 4.271569 5.55393 6.765626 13.34765 1.960992 6.12797 3.043213 9.64037 3.53125 11.9961.244016 1.17786.346206 2.08397.285156 2.91211-.061047.82813-.326604 1.55996-.650391 2.13867-.215911.38588-.213586.74441-1.033203 1.22851-.409809.24209-1.336654.26624-1.806641-.05273-.469985-.31897-.592612-.62609-.71289-.88477-.481114-1.03471-.671381-2.30613-1.191407-4.96093-1.796593-9.17183-4.757512-16.05274-9.173828-21.52539-1.128186-1.39805-2.149905-2.79547-2.910156-3.95704-.380125-.58078-.694167-1.09921-.933594-1.55859-.239426-.45938-.484375-.664-.484375-1.53125 0-.64387.1391-1.18499.324219-1.85352.185119-.66851.432508-1.39053.716797-2.06054.602646-1.42033 2.060598-6.74256 3.300781-12.05664.117919-.50527.20148-.95988.316406-1.4668-11.476297.04615-25.50409.10717-31.476562.18164-1.92518 4.64437-4.64161 11.36758-5.25 12.63281-1.303731 2.71137-1.918742 5.47007-1.820312 10.20118.098434 4.73109.956833 11.36631 2.625 21.4414 1.50119 9.06671 2.337094 15.15222 2.794921 20.73242.600323.00919.893798.02257 1.529297.03125 8.763875.11972 20.840852.18832 35.345703.19532 5.926755.0029 6.789088.05321 11.373047.0625 3.02707-8.56392 3.22446-10.6459 2.611328-23.1836-.335396-6.85818-.635132-17.59321-.669922-23.93164-.058338-10.59606.062419-12.12445 2.837891-18.38476zm306.121097 0c2.77546 6.26031 2.89618 7.7887 2.83789 18.38476-.03481 6.33842-.33452 17.07346-.66992 23.93164-.61313 12.5377-.41574 14.61968 2.61132 23.1836 4.58397-.00928 5.44629-.05962 11.37305-.0625 14.50487-.00705 26.58183-.07554 35.3457-.19532.6355-.00868.92898-.02206 1.5293-.03125.45783-5.5802 1.29373-11.66571 2.79492-20.73242 1.66816-10.07505 2.52505-16.71034 2.62305-21.4414.09796-4.73108-.51652-7.48968-1.82031-10.20118-.60858-1.2656-3.32529-7.98832-5.25-12.63281-5.97232-.07446-19.99957-.13549-31.47461-.18164.11492.50692.19849.96153.3164 1.4668 1.24019 5.31408 2.69815 10.63631 3.30078 12.05664.28429.67002.53168 1.39203.7168 2.06054.18512.66853.32422 1.20965.32422 1.85352 0 .86725-.24495 1.07187-.48437 1.53125-.23943.45938-.55347.97781-.9336 1.55859-.76025 1.16157-1.78198 2.55899-2.91015 3.95704-4.41634 5.47264-7.37724 12.35356-9.17383 21.52539-.52003 2.6548-.7103 3.92622-1.19141 4.96093-.12028.25868-.2429.5658-.71289.88477-.46999.31894-1.39683.29478-1.80664.05273-.81962-.4841-.81729-.84263-1.0332-1.22851-.32379-.57871-.58939-1.31054-.65039-2.13867-.06105-.82814.04113-1.73425.28515-2.91211.48804-2.35573 1.57025-5.86813 3.53125-11.9961 2.49405-7.79372 3.26398-9.28147 6.76563-13.34765l3.17383-3.68555-1.0254-2.55664c-1.12376-2.80256-2.53613-8.1197-3.72656-13.36328-.0556-.24494-.08809-.44237-.14258-.68555-.79409-.00291-3.39948-.0011-4.22265-.0039.24026 1.16527.48668 2.27131.70508 3.54882.73054 4.27335 1.08128 6.17056 1.17578 7.27149.0237.27523.0391.50405.0039.80078-.03519.29672-.14787.79456-.61328 1.18359-.4654.38863-.9704.39563-1.16406.39063-.19413-.0047-.22782-.01172-.20313-.01172-.74799 0-1.04298-.35957-1.22265-.54883s-.2768-.34374-.37109-.50391c-.18854-.32033-.33887-.66183-.49805-1.0664-.31837-.80915-.64293-1.84887-.92969-2.9961-.92566-3.70323-1.37315-5.61858-1.9668-8.07421-1.0611-.00331-4.10939-.00272-5.21679-.00586zm-360.761722.24609c-10.926096.16977-16.013554.38494-17.001953.72852-10.274412 3.57122-17.6344382 11.09308-21.0839844 21.56445-1.4286514 4.33682-1.4286525 14.87801 0 19.21484 2.9527917 8.96344 8.6894174 15.66712 16.9453124 19.82227 3.004045 1.51191 6.804055 2.83211 8.976563 3.18555.372017.06052 2.153007.18242 4.761718.26562 1.485796.04738 3.928391.08316 6.00586.12305-.456966-5.38472-1.272424-11.2831-2.746094-20.1836-1.675576-10.11984-2.557446-16.83667-2.662109-21.86718-.104664-5.03053.614391-8.44315 2.115234-11.56446.440968-.91705 3.031651-7.31254 4.689453-11.28906zm415.400392 0c1.65744 3.97674 4.24862 10.37229 4.68945 11.28906 1.50079 3.12119 2.22135 6.5339 2.11719 11.56446-.10416 5.03054-.98652 11.74729-2.66211 21.86718-1.47367 8.9005-2.28913 14.79888-2.74609 20.1836 2.07747-.03989 4.52006-.07566 6.00586-.12305 2.60869-.08318 4.38968-.20514 4.76171-.26562 2.17242-.35343 5.97044-1.67356 8.97461-3.18555 8.25597-4.15517 13.9945-10.85895 16.94727-19.82227 1.42865-4.33683 1.42865-14.87802 0-19.21484-3.44954-10.47136-10.80958-17.99323-21.08399-21.56445-.98841-.34357-6.07627-.55874-17.0039-.72852zm-280.01953 4.07031h72.32031 72.32031l1.93555 2.10547h-.00195c.9384 1.02083 1.48747 2.46699 2.32031 5.42188.83284 2.95486 1.89587 7.47333 3.49023 14.60547 1.75394 7.84601 2.72286 12.31981 3.17188 15.10351.22449 1.39185.32479 2.36483.30469 3.18359-.02012.81879-.20556 1.53274-.48633 2.07618-.45902.88841-1.22447 1.7696-2.30469 2.97265-1.08022 1.20306-2.4408 2.6142-3.91602 4.07031-2.95041 2.91228-6.33012 5.98786-8.81054 7.88086-5.61858 4.288-15.88346 10.00909-22.70703 12.66407-7.37092 2.86795-19.56035 6.38836-29.57813 8.55664-11.05328 2.39235-21.324 2.31968-32.60742-.22461-29.00292-6.53989-45.44942-14.43519-60.0957-28.97852-1.39168-1.3819-2.74626-2.81804-3.82618-4.03711-1.07989-1.21907-1.81361-2.02944-2.26562-2.90429-.28086-.5436-.46438-1.2574-.48438-2.07618-.01995-.81875.08001-1.79178.30469-3.18359.44936-2.78362 1.41795-7.25754 3.17188-15.10351 1.59436-7.1321 2.65776-11.65066 3.49023-14.60547.83247-2.95483 1.37973-4.40084 2.31836-5.42188l1.49024-1.62109z"/><path d="m109.73828 162.98242c-.18336.03782-.28642.13519-.47461.31836-.37638.36635-1.01249 1.43697-1.98633 3.26758-1.40498 2.64117-1.74593 4.32694-1.70703 4.50586.01944.0895-.12361-.03805.11524.06055.23884.09861.8655.21484 1.78711.21484 3.99216 0 7.83169 2.40061 10.00586 6.05859 1.38151 2.32437 1.79668 4.273 1.89648 8.78711l.12891 5.77735-4.49219 9.60546c-3.73867 8.00141-5.24243 10.40634-9.56836 15.30079-4.58117 5.18324-4.81204 5.54191-6.220704 10.47656-2.9991 10.50598-6.83668 19.39384-11.109375 25.54101-1.827682 2.62952-2.770653 4.08088-3.207031 5.09766s-.482928 1.68022-.486328 3.2793c-.004976 2.45511-.956048 7.3443-2.146484 12.58789-1.190436 5.24358-2.602788 10.56072-3.726563 13.36328l-1.025391 2.55664 3.173828 3.68555c3.50163 4.06618 4.271569 5.55393 6.765626 13.34765 1.960992 6.12797 3.043213 9.64037 3.53125 11.9961.244016 1.17786.346206 2.08397.285156 2.91211-.061047.82813-.326604 1.55996-.650391 2.13867-.215911.38588-.213586.74441-1.033203 1.22851-.409809.24209-1.336654.26624-1.806641-.05273-.469985-.31897-.592612-.62609-.71289-.88477-.481114-1.03471-.671381-2.30613-1.191407-4.96093-1.796593-9.17183-4.757512-16.05274-9.173828-21.52539-1.128186-1.39805-2.149905-2.79547-2.910156-3.95704-.380125-.58078-.694167-1.09921-.933594-1.55859-.239426-.45938-.484375-.664-.484375-1.53125 0-.64387.1391-1.18499.324219-1.85352.185119-.66851.432508-1.39053.716797-2.06054.602646-1.42033 2.060598-6.74256 3.300781-12.05664 1.240183-5.31409 2.351801-10.89284 2.558594-13.08985.385035-4.09064 1.02483-5.77921 4.101562-10.65625 4.574312-7.25097 7.791847-15.10439 12.103516-29.6914.208508-.70541.430404-.88082.763672-1.3418s.764914-1.00921 1.277344-1.63086c1.024858-1.2433 2.368608-2.77117 3.808596-4.30859 5.4552-5.82441 6.28431-7.17847 10.58789-17.15625 1.32274-3.06677 1.96057-4.63468 2.21094-5.83985.25035-1.20516.18443-2.2351-.02539-4.51562-.36933-4.01349-.98294-6.27404-1.96485-7.50195-.98191-1.22793-2.5327-1.85827-5.67578-2.3086-1.32673-.1901-2.24883-.34033-3.11328-.8457-.31561-.18451-.53737-.47047-.76367-.74805-.40742.61489-.63914.91118-1.48438 2.35352-1.824046 3.11262-7.750065 10.91982-13.466795 17.87109-9.930471 12.07489-10.561695 13.02094-19.689453 29.4043-8.461954 15.1882-10.309757 19.09208-17.550781 37.08008-4.474909 11.11649-8.918891 21.84234-10.087891 24.27343-1.303731 2.71137-1.918742 5.47007-1.820312 10.20118.098434 4.73109.956833 11.36631 2.625 21.4414 3.351641 20.24284 3.745383 26.29867 2.777343 42.71485-.01583.26837-.031515.33692-.041015.47656v.62109c0-.04195.099754.26188-.03711.86719-.033945.15049-.065095.14067-.109375.24219-.02625.32653-.053999.59581-.074219.89648v-.21094c-.000669-.0092-.026271.38508-.050781.70508l.011719-.01758c-.00976.1414-.025356.21815-.035156.35743-.545351 7.7709-1.125178 12.34429-2.71875 19.02539-2.245918 9.41597-5.677691 18.06489-9.392578 23.36132-.234771.33471-1.073443 1.96221-1.941407 3.94922-.867962 1.98703-1.857157 4.43739-2.746093 6.84571-1.871901 5.07139-7.947795 18.36632-13.623047 29.875-2.82916 5.73717-5.4018524 10.97815-7.2656252 14.80078-.9318864 1.91131-1.6868519 3.46946-2.2070313 4.55273-.1568739.32669-.2471665.51739-.359375.75391.4052611.36805.9392166.84264 1.6328125 1.44922 1.50231 1.31382 3.5831498 3.10056 5.871094 5.03515l8.132812 6.875 8.533203 3.0918 8.533203 3.09375 11.208985-.03711 11.224609-.03711 8.490235-2.91016 8.027343-2.74609 5.607422-16.48242c8.150969-23.96342 13.311484-37.33589 18.75586-48.53906 5.112824-10.52089 6.187684-11.79504 18.357424-21.40625 7.47962-5.90715 10.29184-10.14682 15.01172-22.67578 1.96812-5.22432 2.63388-8.10473 3.36523-14.59375l.89648-7.97852-2.13671-7.68555c-1.43236-5.14781-2.64346-10.61471-3.45313-15.33398-.80966-4.71928-1.24884-8.58673-1.01953-10.9961.14526-1.52623.30892-7.36466.32422-12.58984.02372-8.04979-.15912-9.93915-1.34961-13.88086-1.86242-6.16646-2.93927-8.17492-6.89648-12.85742-4.16199-4.92479-9.29562-7.33529-13.35743-6.78516-3.58839.486-6.06187 2.86328-8.21093 8.52149-1.446345 3.80796-1.562504 4.80096-1.562504 12.23633 0 4.5456.379521 10.14772.726564 11.88086.53225 2.6582.69936 8.51743.69336 14.57421-.00617 6.0568-.18761 11.93387-.722659 14.60938-.434405 2.17234-2.011665 6.89959-3.634765 11.4375-.811552 2.26895-1.627203 4.44948-2.306641 6.14062-.339719.84558-.644735 1.56695-.90625 2.13282-.130758.28293-.250449.52617-.369141.74218-.118691.21602-.177278.37454-.470703.67188-.186075.18855-.449282.47057-1.064453.54297-.61517.07242-1.327532-.39214-1.552734-.73828-.450406-.6923-.338303-.9929-.345703-1.38477-.014845-.78375.100739-1.73166.292968-2.875.384462-2.28668 1.095015-5.21731 1.955079-7.60742 3.706332-10.29992 3.842429-11.4407 3.185546-24.87305-.335396-6.85818-.635132-17.59321-.669922-23.93164-.067952-12.34241-.134852-11.9366 4.275391-21.6289 4.626317-10.16716 9.189967-24.34707 10.191407-31.41016.35111-2.47627 1.92223-7.70628 3.57422-12.24414 1.59302-4.37593 3.30902-9.74873 3.80078-11.78906-1.05845 1.14876-1.94061 2.24407-3 3.23242-1.62179 1.51301-2.34914 2.25657-2.9375 3.33789-.58837 1.08132-1.09637 2.6829-1.97852 5.78125-2.38516 8.37756-6.38201 17.74176-9.753902 22.60937-1.938831 2.79884-2.402168 4.10421-3.429688 9.60547-1.135484 6.07927-2.004596 9.86608-5.087891 22.20117-.286758 1.14723-.611319 2.18695-.929687 2.9961-.159184.40457-.309501.74607-.498047 1.0664-.094273.16017-.191417.31465-.371094.50391s-.474665.54883-1.222656.54883c.02469 0-.009462.00672-.203125.01172-.193663.0046-.698659-.00159-1.164062-.39063-.465403-.38903-.578092-.88687-.613282-1.18359-.03519-.29673-.019713-.5236.003906-.79883.0945-1.10093.445243-3.00009 1.175782-7.27344.349393-2.0438.752734-4.05818 1.126953-5.67773.187109-.80978.366871-1.51825.533203-2.09766s.268142-.96714.519531-1.42969c-.053374.09821.132712-.33679.28711-.88085.154397-.54407.338895-1.2741.535156-2.1211.39252-1.69399.834808-3.86114 1.226562-6.06836.626372-3.52902 1.054787-5.68466 1.59961-7.34765.544822-1.66301 1.257328-2.82505 2.207031-4.00586 2.630191-3.27026 6.0727-10.72274 9.23633-20.48047 2.62334-8.09129 3.22991-9.18945 7.21875-13.58985 4.22894-4.66523 7.97144-10.79809 11.08789-18.24023.93371-2.22971 1.98712-5.53175 2.7207-8.32031.36679-1.39429.65532-2.66826.81446-3.59571.0796-.46372.12521-.84425.13671-1.06835.01155-.2241-.22235-.38685.16016.22265-.20433-.32549-.20053-.42726-.24023-.56836-.03972-.14109-.07202-.27868-.10352-.43359-.06309-.30982-.12305-.68138-.18555-1.11328-.12506-.86382-.2527-1.96125-.35547-3.11328-.35072-3.93163-1.42425-6.86211-3.15625-8.98047-1.73198-2.11838-4.15794-3.51045-7.54882-4.22657-1.36758-.28883-2.37457-.49355-3.05664-.56445-.51196-.05319-.77563-.07493-.95899-.03711zm280.52344 0c-.18336-.03782-.44703-.01608-.95899.03711-.68207.07089-1.68906.27562-3.05664.56445-3.39088.71612-5.81684 2.10819-7.54882 4.22657-1.732 2.11836-2.80553 5.04884-3.15625 8.98047-.10277 1.15203-.23041 2.24946-.35547 3.11328-.06253.4319-.12245.80346-.18555 1.11328-.03152.15491-.06382.2925-.10352.43359-.0397.1411-.03593.24287-.24023.56836.38251-.6095.14866-.44675.16016-.22265.01154.2241.05712.60463.13671 1.06835.15914.92745.44767 2.20142.81446 3.59571.73358 2.78856 1.78699 6.0906 2.7207 8.32031 3.11645 7.44214 6.85895 13.575 11.08789 18.24023 3.98884 4.4004 4.59541 5.49856 7.21875 13.58985 3.16363 9.75773 6.60614 17.21021 9.23633 20.48047.94971 1.18081 1.66221 2.34285 2.20703 4.00586.54482 1.66299.97324 3.81863 1.59961 7.34765.39176 2.20722.83404 4.37437 1.22656 6.06836.19626.847.38076 1.57703.53516 2.1211.1544.54406.34051.97905.28711.88085.2514.46256.3532.85028.51953 1.42969.16633.57942.34609 1.28788.5332 2.09766.37422 1.61955.77757 3.63393 1.12696 5.67773.73054 4.27335 1.08128 6.17056 1.17578 7.27149.0237.27523.0391.50405.0039.80078-.03519.29672-.14787.79456-.61328 1.18359-.4654.38863-.9704.39563-1.16406.39063-.19413-.0047-.22782-.01172-.20313-.01172-.74799 0-1.04298-.35957-1.22265-.54883s-.2768-.34374-.37109-.50391c-.18854-.32033-.33887-.66183-.49805-1.0664-.31837-.80915-.64293-1.84887-.92969-2.9961-3.08329-12.33509-3.9524-16.1219-5.08789-22.20117-1.02752-5.50126-1.49085-6.80663-3.42969-9.60547-3.37188-4.86761-7.36874-14.23181-9.7539-22.60937-.88215-3.09835-1.39015-4.69993-1.97852-5.78125-.58836-1.08132-1.31571-1.82488-2.9375-3.33789-1.05939-.98835-1.94155-2.08366-3-3.23242.49176 2.04033 2.20776 7.41313 3.80078 11.78906 1.65199 4.53786 3.22311 9.76787 3.57422 12.24414 1.00144 7.0631 5.56509 21.243 10.19141 31.41016 4.41024 9.6923 4.34329 9.28649 4.27539 21.6289-.03481 6.33842-.33452 17.07346-.66992 23.93164-.65688 13.43235-.52078 14.57313 3.18554 24.87305.86007 2.39011 1.57062 5.32074 1.95508 7.60742.19223 1.14334.30777 2.09125.29297 2.875-.00742.39187.1047.69247-.3457 1.38477-.22521.34614-.93757.81068-1.55274.73828-.61517-.07242-.87838-.35442-1.06445-.54297-.29343-.29734-.35201-.45586-.4707-.67188-.1187-.21601-.23839-.45925-.36914-.74218-.26151-.56587-.56654-1.28724-.90626-2.13282-.67942-1.69114-1.49508-3.87167-2.30664-6.14062-1.62309-4.53791-3.20036-9.26516-3.63476-11.4375-.53505-2.67551-.71666-8.55258-.72266-14.60938-.00616-6.05678.16112-11.91601.69336-14.57421.34704-1.73314.72656-7.33526.72656-11.88086 0-7.43537-.11616-8.42838-1.5625-12.23633-2.14906-5.65821-4.62254-8.03549-8.21093-8.52149-4.06181-.55013-9.19544 1.86037-13.35743 6.78516-3.95721 4.6825-5.03406 6.69096-6.89648 12.85742-1.19048 3.9417-1.37331 5.83106-1.34961 13.88086.01533 5.22518.17896 11.06361.32422 12.58984.22931 2.40937-.20987 6.27682-1.01953 10.9961-.80967 4.71927-2.02077 10.18617-3.45313 15.33398l-2.13671 7.68555.89648 7.97852c.73135 6.48902 1.39711 9.36943 3.36523 14.59375 4.71988 12.52896 7.5321 16.76863 15.01172 22.67578 12.16974 9.61121 13.24461 10.88536 18.35742 21.40625 5.44439 11.20317 10.6049 24.57564 18.75586 48.53906l5.60743 16.48242 8.02734 2.74609 8.49023 2.91016 11.22461.03711 11.20899.03711 8.5332-3.09375 8.5332-3.0918 8.13282-6.875c2.28793-1.93459 4.36878-3.72133 5.87109-5.03515.6936-.60658 1.22755-1.08117 1.63281-1.44922-.11221-.23652-.2025-.42722-.35937-.75391-.52018-1.08327-1.27515-2.64142-2.20703-4.55273-1.86378-3.82263-4.43647-9.06362-7.26563-14.80078-5.67524-11.50868-11.75114-24.80362-13.62305-29.875-.88892-2.40831-1.87813-4.85868-2.74609-6.84571-.86796-1.98701-1.70663-3.61451-1.94141-3.94922-3.71488-5.29643-7.14666-13.94535-9.39257-23.36132-1.59342-6.68046-2.17344-11.25392-2.71875-19.02344l-.00196-.00195c-.01-.0304.0051-.01768-.0039-.04688-.0085-.1212-.0213-.18774-.0293-.31055l.00977.01368c-.0233-.31647-.05015-.71018-.05079-.70118v.21094c-.0205-.30429-.04666-.57204-.07226-.89648-.04398-.10089-.07548-.09086-.10938-.24024-.1371-.60568-.03711-.91134-.03711-.86914v-.62109c-.0096-.13994-.02511-.2085-.04101-.47656-.96804-16.41618-.5743-22.47201 2.77734-42.71485 1.66816-10.07505 2.52505-16.71034 2.62305-21.4414.09796-4.73108-.51652-7.48968-1.82031-10.20118-1.16932-2.43174-5.61109-13.15708-10.08594-24.27343-7.24102-17.988-9.08883-21.89188-17.55078-37.08008-9.12777-16.38336-9.75897-17.32941-19.68945-29.4043-5.71675-6.95127-11.64274-14.75848-13.4668-17.87109-.84536-1.44254-1.07892-1.73866-1.48633-2.35352-.22612.27714-.44652.56378-.76172.74805-.86445.50537-1.78655.6556-3.11328.8457-3.14308.45033-4.69387 1.08067-5.67578 2.3086-.98191 1.22791-1.59552 3.48846-1.96485 7.50195-.20983 2.28052-.27575 3.31046-.02539 4.51562.25037 1.20517.8882 2.77308 2.21094 5.83985 4.30358 9.97778 5.13073 11.33184 10.58594 17.15625 1.43999 1.53742 2.78569 3.06529 3.81055 4.30859.51243.62165.94407 1.16988 1.27734 1.63086.33327.46099.55517.63638.76367 1.3418 4.31169 14.58701 7.5292 22.44043 12.10352 29.6914 3.07672 4.87704 3.71652 6.56561 4.10156 10.65625.20679 2.19701 1.31841 7.77576 2.55859 13.08985 1.24019 5.31408 2.69815 10.63631 3.30078 12.05664.28429.67002.53168 1.39203.7168 2.06054.18512.66853.32422 1.20965.32422 1.85352 0 .86725-.24495 1.07187-.48437 1.53125-.23943.45938-.55347.97781-.9336 1.55859-.76025 1.16157-1.78198 2.55899-2.91015 3.95704-4.41634 5.47264-7.37724 12.35356-9.17383 21.52539-.52003 2.6548-.7103 3.92622-1.19141 4.96093-.12028.25868-.2429.5658-.71289.88477-.46999.31894-1.39683.29478-1.80664.05273-.81962-.4841-.81729-.84263-1.0332-1.22851-.32379-.57871-.58939-1.31054-.65039-2.13867-.06105-.82814.04113-1.73425.28515-2.91211.48804-2.35573 1.57025-5.86813 3.53125-11.9961 2.49405-7.79372 3.26398-9.28147 6.76563-13.34765l3.17383-3.68555-1.0254-2.55664c-1.12376-2.80256-2.53613-8.1197-3.72656-13.36328-1.19043-5.24359-2.14148-10.1328-2.14648-12.58789-.00341-1.59908-.04995-2.26252-.48633-3.2793s-1.37935-2.46814-3.20703-5.09766c-4.2727-6.14717-8.11028-15.03503-11.10938-25.54101-1.40866-4.93465-1.63953-5.29332-6.2207-10.47656-4.32578-4.89428-5.83156-7.2992-9.57031-15.30079l-4.49024-9.60742.12891-5.77539c.09983-4.51367.51268-6.46217 1.89453-8.78711 2.1744-3.65836 6.01565-6.05859 10.00781-6.05859.92161 0 1.54827-.11624 1.78711-.21484.23885-.0987.09574.02895.11524-.06055.03893-.17892-.30205-1.86469-1.70703-4.50586-.97384-1.83061-1.60995-2.90123-1.98633-3.26758-.18819-.18317-.29125-.28054-.47461-.31836zm-347.384767 202.11719c-.133187.07106-.279362.14616-.326172.16016-.130521.03916-.069526.08793.314453-.14063z"/><path d="m177.5 150h45v45h-45z"/><path d="m227.5 150h45v45h-45z"/><path d="m277.5 150h45v45h-45z"/><path d="m177.5 100h45v45h-45z"/><path d="m227.5 100h45v45h-45z"/><path d="m277.5 100h45v45h-45z"/><path d="m177.5 50h45v45h-45z"/><path d="m227.5 50h45v45h-45z"/><path d="m277.5 50h45v45h-45z"/></svg>