<svg height="500" viewBox="0 0 500 500" width="500" xmlns="http://www.w3.org/2000/svg"><path d="m250 273c-214.916818 0-221.896784.15926-224.703125 1.13477-10.274417 3.57122-17.6344385 11.09308-21.0839844 21.56445-1.4286513 4.33682-1.4286524 14.87801 0 19.21484 2.9527903 8.96344 8.6894204 15.66712 16.9453124 19.82227 3.004045 1.51191 6.804055 2.83211 8.976563 3.18555.372017.06052 2.153007.18242 4.761718.26562 2.608713.08318 6.162986.15494 10.544922.21484 8.763875.11972 20.840852.18832 35.345703.19532 42.473531.0208 47.679341.14162 55.556641 1.27734 10.29569 1.48444 21.78492 4.79029 32.12695 9.23438 8.665 3.72347 20.18218 7.73084 28.54102 9.93359 11.77441 3.10272 30.35493 6.53556 42.01172 7.76367 4.61063.4858 26.29584-.29286 32.05468-1.19922 23.57518-3.71022 43.1304-9.05506 60.45118-16.49804 2.42266-1.04105 4.91706-2.00672 7.43554-2.91407-4.14173-8.48442-5.89963-10.76203-14.07617-17.3457-2.42068 2.30108-4.91121 4.5556-6.86523 6.04687-5.61858 4.288-15.88346 10.00909-22.70703 12.66407-7.37092 2.86795-19.56035 6.38836-29.57813 8.55664-11.05328 2.39235-21.324 2.31968-32.60742-.22461-29.00292-6.53989-45.44942-14.43519-60.0957-28.97852-1.39168-1.3819-2.74626-2.81804-3.82618-4.03711-1.07989-1.21907-1.81361-2.02944-2.26562-2.90429-.28086-.5436-.46438-1.2574-.48438-2.07618-.01995-.81875.08001-1.79178.30469-3.18359.44936-2.78362 1.41795-7.25754 3.17188-15.10351 1.59436-7.1321 2.65776-11.65066 3.49023-14.60547.83247-2.95483 1.37973-4.40084 2.31836-5.42188l1.49024-1.62109.44531-.48438h72.32031 52.07812l1.22852-4.41992c-22.37413-.00791-23.45531-.05664-53.30664-.05664zm95.39062.09961c1.49396 4.12098 2.95023 7.82735 3.37696 8.25977.88877.90061.14178-3.97629-1.0918-8.25782-.72804-.00073-1.546-.00124-2.28516-.00195zm51.85938.05469c-.20256 5.07158-.05805 10.13196.35352 17.11132.0131.22152.02996.28238.04296.49805v.6875c0 .17877-.0395.36259 0 .53711.01997.08849.07225.16459.12305.24219.0287.45083.0632.69965.0918 1.125-.0113.15387-.0487.31085 0 .45508.0047.0135.02921.01253.04101.01953.55178 7.99928 1.11071 12.40506 2.7168 19.13867 2.21302 9.27802 5.64432 17.83223 9.16211 22.84766.29447.41982.87486 1.70471 1.40039 2.82421 3.49976-.00486 3.84598-.04092 8.03125-.04296 14.50487-.00705 26.58183-.07554 35.3457-.19532 4.38195-.05988 7.93621-.13164 10.54493-.21484 2.60869-.08318 4.38968-.20514 4.76171-.26562 2.17242-.35343 5.97044-1.67356 8.97461-3.18555 8.25597-4.15517 13.9945-10.85895 16.94727-19.82227 1.42865-4.33683 1.42865-14.87802 0-19.21484-3.44954-10.47136-10.80958-17.99323-21.08399-21.56445-1.72955-.60118-24.84954-.84553-77.45312-.98047z"/><path d="m180 90v45h45v-45zm50 0v45h45v-45zm50 0v45h40.21289c-1.6164-2.78251-3.12346-5.79007-4.49219-9.05859-1.02801-2.4549-2.08975-5.81221-2.85351-8.7168-.38188-1.4523-.68788-2.78304-.8711-3.85156-.09158-.53426-.15398-.99851-.17578-1.42188-.01961-.38135-.15096-.67306.19141-1.31836.00874-.03168.02751-.10777.04883-.21289.04425-.21798.09915-.54974.15625-.94531.11414-.79114.23763-1.84717.33593-2.94922.38743-4.343 1.61527-7.914416 3.82227-10.613281 2.0857-2.550533 5.02293-4.23656 8.625-5.109375v-.802734zm-100 50v45h45v-45zm50 0v45h45v-45zm50 0v45h45v-27.82422c-1.62979-4.48644-3.34878-9.78554-3.90625-12.14648-.50357-2.13278-1.17309-4.56507-1.33789-5.0293zm-100 50v45h45v-45zm50 0v45h45v-45zm50 0v45h26.35938c-.00595-.6918-.02532-1.31493-.02735-2.00391-.02385-8.10542.2294-10.62002 1.47852-14.75586 1.90997-6.32394 3.40202-9.10641 7.47656-13.92773 2.87291-3.39947 6.2515-5.87447 9.71289-7.08789v-7.22461z"/><path d="m330.26172 92.982422c-.18334-.038271-.44711-.01803-.95899.035156-.68179.070861-1.6888.277516-3.05664.566406-3.39089.716117-5.81647 2.108117-7.54882 4.226563-1.73237 2.118446-2.80554 5.048933-3.15625 8.980473-.10274 1.15167-.23084 2.24945-.35547 3.11328-.06232.43191-.12265.8034-.18555 1.11328-.03146.15494-.06196.2924-.10156.43359-.03966.1412-.03557.24229-.24024.56836.38244-.60938.14671-.44677.15821-.22265.01152.2241.05722.60463.13671 1.06835.15903.92746.44783 2.20142.81446 3.59571.73325 2.78856 1.78704 6.09071 2.7207 8.32031 3.11642 7.44207 6.8589 13.5769 11.08789 18.24219 3.98893 4.40049 4.59349 5.49866 7.2168 13.58984 3.16363 9.75773 6.60803 17.20819 9.23828 20.47852.94958 1.18065 1.66187 2.3429 2.20703 4.00586.54516 1.66294.97322 3.81854 1.59961 7.34765.39179 2.20737.83432 4.37594 1.22656 6.07031.19613.8472.38087 1.57692.53516 2.1211s.33876.97946.28516.88086c.25137.46251.35516.84838.52148 1.42773s.34416 1.28992.53125 2.09961c.37418 1.61938.77952 3.63199 1.12891 5.67578.73053 4.27331 1.07912 6.17098 1.17382 7.27149.0238.27512.03901.50411.00391.80078-.03509.29666-.14552.79435-.61133 1.18359-.46581.38963-.97059.39563-1.16406.39063-.19313-.0047-.22792-.01172-.20313-.01172-.74742 0-1.0429-.3597-1.22265-.54883s-.2767-.34379-.37109-.50391c-.1887-.32022-.34069-.66193-.5-1.0664-.31863-.80894-.64288-1.8467-.92969-2.99414-3.0833-12.33516-3.95046-16.12391-5.08594-22.20313-1.02752-5.50127-1.49277-6.80658-3.43164-9.60547-3.37198-4.86773-7.36486-14.22999-9.75-22.60742-.88215-3.09836-1.39006-4.70149-1.97852-5.7832-.58845-1.08171-1.31773-1.8269-2.93945-3.33985-1.059-.98796-1.94189-2.08035-3-3.22851.49229 2.04141 2.20819 7.41429 3.80078 11.78906 1.65205 4.538 3.22316 9.76627 3.57422 12.24219 1.00143 7.063 5.56504 21.2429 10.19141 31.41016 4.41028 9.69241 4.34329 9.28654 4.27539 21.6289-.03481 6.33851-.33453 17.07157-.66992 23.92969-.65688 13.43224-.52084 14.57493 3.18554 24.875.86007 2.39011 1.57066 5.32085 1.95508 7.60742.19221 1.14329.30982 2.09128.29492 2.875-.00743.39186.1048.69246-.3457 1.38477-.22525.34615-.93959.81078-1.55469.73828-.6151-.07246-.87643-.35442-1.0625-.54297-.29338-.2973-.35396-.45588-.47265-.67188-.1187-.21599-.23837-.45927-.36914-.74218-.26154-.56584-.56454-1.28729-.9043-2.13282-.67953-1.69104-1.49693-3.87179-2.3086-6.14062-1.62331-4.53766-3.20033-9.26501-3.63476-11.4375-.53504-2.67546-.71666-8.55253-.72266-14.60938-.00629-6.05684.1611-11.91595.69336-14.57421.34703-1.73312.72656-7.33523.72656-11.88086 0-7.43535-.11614-8.42833-1.5625-12.23633-2.14913-5.6584-4.62244-8.03548-8.21093-8.52149-4.062-.55016-9.19549 1.86041-13.35743 6.78516-3.95731 4.68263-5.03411 6.69115-6.89648 12.85742-1.1905 3.94178-1.37331 5.83109-1.34961 13.88086.01533 5.22496.1789 11.06294.32422 12.58984.22931 2.40934-.20993 6.27687-1.01953 10.9961-.80961 4.71922-2.02077 10.18616-3.45313 15.33398l-2.13671 7.6875.89648 7.97657c.73135 6.48896 1.39709 9.36936 3.36523 14.59375 4.71988 12.52894 7.53204 16.76858 15.01172 22.67578 12.16982 9.61128 13.24465 10.88741 18.35742 21.4082 5.44435 11.20311 10.60487 24.57363 18.75586 48.53711l5.60743 16.48242 8.02734 2.74805 8.49023 2.9082 11.22657.03711 11.20703.03516 8.53515-3.0918 8.53125-3.0918 8.13282-6.87695c2.28796-1.93463 4.36888-3.72154 5.87109-5.03516.69393-.60681 1.22755-1.08119 1.63281-1.44922-.11207-.23623-.20282-.42592-.35937-.75195-.52021-1.08337-1.27511-2.64129-2.20703-4.55273-1.86385-3.82289-4.43647-9.06557-7.26563-14.80274-5.67523-11.50865-11.75306-24.80157-13.625-29.87304-.88893-2.40831-1.87598-4.85828-2.74414-6.84571-.86815-1.98741-1.70668-3.61457-1.94141-3.94922-3.71496-5.29654-7.14669-13.94548-9.39257-23.36132-1.59353-6.68096-2.17336-11.25441-2.71875-19.02539-.0098-.13928-.02516-.21603-.03516-.35743l.01172.01758c-.0245-.31988-.05014-.71408-.05078-.70508l-.00196.21094c-.0203-.30284-.04801-.572-.07421-.90039-.04323-.09988-.07413-.0897-.10743-.23633-.1371-.60575-.03711-.91134-.03711-.86914v-.62109c-.0098-.14507-.02356-.21219-.03906-.47461v-.00195c-.96803-16.41617-.5743-22.47197 2.77735-42.71485 1.66815-10.07507 2.52299-16.71014 2.62109-21.4414.09811-4.73128-.51655-7.4917-1.82031-10.20313-1.16919-2.43152-5.61107-13.15507-10.08594-24.27148-7.24103-17.988-9.08881-21.89184-17.55078-37.08008-9.12775-16.38335-9.75894-17.32936-19.68945-29.4043-5.71676-6.95129-11.64276-14.75849-13.4668-17.87109-.84535-1.44252-1.07904-1.73893-1.48633-2.35352-.22615.2772-.44838.56387-.76367.74805-.86442.50495-1.78488.65564-3.11133.8457-3.14298.45031-4.69361 1.08021-5.67578 2.3086-.98218 1.22837-1.59552 3.49045-1.96485 7.5039-.20983 2.28049-.27582 3.31055-.02539 4.51563.25044 1.20508.88819 2.77109 2.21094 5.83789 4.30359 9.97778 5.13068 11.33179 10.58594 17.15625 1.43999 1.53742 2.78548 3.0631 3.81055 4.30664.51253.62177.944 1.17175 1.27734 1.63281.33334.46107.55707.63618.76562 1.3418 4.3117 14.58707 7.52728 22.44048 12.10157 29.6914 3.07677 4.8771 3.71458 6.5658 4.09961 10.65625.20679 2.197 1.32031 7.77582 2.56054 13.08985 1.24023 5.31401 2.69813 10.63628 3.30078 12.05664.28425.6699.52959 1.39195.71485 2.06054.18525.66861.32617 1.20922.32617 1.85352 0 .86765-.24482 1.07197-.48437 1.53125-.23956.45928-.55531.97798-.93555 1.55859-.76048 1.16123-1.7821 2.55915-2.91016 3.95704-4.41622 5.47253-7.37722 12.35347-9.17383 21.52539-.52 2.6547-.70907 3.92651-1.18945 4.96093-.12009.25861-.24319.56545-.71289.88477-.46969.31929-1.39469.2949-1.80469.05273-.81998-.48432-.81929-.84271-1.03515-1.22851-.32379-.57871-.58929-1.30857-.65039-2.13672-.06107-.82815.04311-1.7342.28711-2.91211.48799-2.35581 1.56829-5.87006 3.52929-11.99805 2.49407-7.79375 3.264-9.28149 6.76563-13.34765l3.17578-3.68555-1.02539-2.55664c-1.12375-2.80248-2.53785-8.12171-3.72852-13.36523-1.19045-5.24255-2.14148-10.13029-2.14648-12.58594-.00341-1.59902-.04986-2.26265-.48633-3.2793s-1.37931-2.46614-3.20703-5.0957c-4.27269-6.14717-8.11223-15.03697-11.11133-25.54297-1.40874-4.93488-1.63773-5.29544-6.21875-10.47852-4.32572-4.8942-5.8296-7.29528-9.56836-15.29687l-4.49219-9.60938.12891-5.77539c.09983-4.51379.51264-6.46408 1.89453-8.78906 2.17443-3.65842 6.016-6.05664 10.00781-6.05664.92154 0 1.54831-.11429 1.78711-.21289.23881-.0986.09769.0272.11719-.0625.03903-.17938-.30401-1.864723-1.70898-4.505861-.97379-1.830516-1.60959-2.900961-1.98633-3.267578-.18838-.183306-.29128-.280088-.47461-.318359zm66.87305 202.134768.00195.0039c.39361.23348.44837.18018.32031.14258-.05313-.01558-.17666-.06648-.32226-.14648z"/></svg>